<?xml version="1.0" encoding="utf-8" standalone="no"?>
<!DOCTYPE svg PUBLIC "-//W3C//DTD SVG 1.1//EN"
  "http://www.w3.org/Graphics/SVG/1.1/DTD/svg11.dtd">
<svg xmlns:xlink="http://www.w3.org/1999/xlink" width="1440pt" height="1008pt" viewBox="0 0 1440 1008" xmlns="http://www.w3.org/2000/svg" version="1.1">
 <metadata>
  <rdf:RDF xmlns:dc="http://purl.org/dc/elements/1.1/" xmlns:cc="http://creativecommons.org/ns#" xmlns:rdf="http://www.w3.org/1999/02/22-rdf-syntax-ns#">
   <cc:Work>
    <dc:type rdf:resource="http://purl.org/dc/dcmitype/StillImage"/>
    <dc:date>2023-04-12T03:36:46.424119</dc:date>
    <dc:format>image/svg+xml</dc:format>
    <dc:creator>
     <cc:Agent>
      <dc:title>Matplotlib v3.5.1, https://matplotlib.org/</dc:title>
     </cc:Agent>
    </dc:creator>
   </cc:Work>
  </rdf:RDF>
 </metadata>
 <defs>
  <style type="text/css">*{stroke-linejoin: round; stroke-linecap: butt}</style>
 </defs>
 <g id="figure_1">
  <g id="patch_1">
   <path d="M 0 1008 
L 1440 1008 
L 1440 0 
L 0 0 
z
" style="fill: #ffffff"/>
  </g>
  <g id="axes_1">
   <g id="patch_2">
    <path d="M 180 882 
L 1296 882 
L 1296 120.96 
L 180 120.96 
z
" style="fill: #ffffff"/>
   </g>
   <g id="matplotlib.axis_1">
    <g id="xtick_1">
     <g id="line2d_1">
      <path d="M 302.457577 882 
L 302.457577 120.96 
" clip-path="url(#p0fdb07c2ba)" style="fill: none; stroke: #cccccc; stroke-linecap: round"/>
     </g>
     <g id="text_1">
      <!-- −1.0 -->
      <g style="fill: #262626" transform="translate(272.846639 912.973438)scale(0.3 -0.3)">
       <defs>
        <path id="ArialMT-2212" d="M 3381 1997 
L 356 1997 
L 356 2522 
L 3381 2522 
L 3381 1997 
z
" transform="scale(0.015625)"/>
        <path id="ArialMT-31" d="M 2384 0 
L 1822 0 
L 1822 3584 
Q 1619 3391 1289 3197 
Q 959 3003 697 2906 
L 697 3450 
Q 1169 3672 1522 3987 
Q 1875 4303 2022 4600 
L 2384 4600 
L 2384 0 
z
" transform="scale(0.015625)"/>
        <path id="ArialMT-2e" d="M 581 0 
L 581 641 
L 1222 641 
L 1222 0 
L 581 0 
z
" transform="scale(0.015625)"/>
        <path id="ArialMT-30" d="M 266 2259 
Q 266 3072 433 3567 
Q 600 4063 929 4331 
Q 1259 4600 1759 4600 
Q 2128 4600 2406 4451 
Q 2684 4303 2865 4023 
Q 3047 3744 3150 3342 
Q 3253 2941 3253 2259 
Q 3253 1453 3087 958 
Q 2922 463 2592 192 
Q 2263 -78 1759 -78 
Q 1097 -78 719 397 
Q 266 969 266 2259 
z
M 844 2259 
Q 844 1131 1108 757 
Q 1372 384 1759 384 
Q 2147 384 2411 759 
Q 2675 1134 2675 2259 
Q 2675 3391 2411 3762 
Q 2147 4134 1753 4134 
Q 1366 4134 1134 3806 
Q 844 3388 844 2259 
z
" transform="scale(0.015625)"/>
       </defs>
       <use xlink:href="#ArialMT-2212"/>
       <use xlink:href="#ArialMT-31" x="58.398438"/>
       <use xlink:href="#ArialMT-2e" x="114.013672"/>
       <use xlink:href="#ArialMT-30" x="141.796875"/>
      </g>
     </g>
    </g>
    <g id="xtick_2">
     <g id="line2d_2">
      <path d="M 518.224919 882 
L 518.224919 120.96 
" clip-path="url(#p0fdb07c2ba)" style="fill: none; stroke: #cccccc; stroke-linecap: round"/>
     </g>
     <g id="text_2">
      <!-- −0.5 -->
      <g style="fill: #262626" transform="translate(488.613982 912.973438)scale(0.3 -0.3)">
       <defs>
        <path id="ArialMT-35" d="M 266 1200 
L 856 1250 
Q 922 819 1161 601 
Q 1400 384 1738 384 
Q 2144 384 2425 690 
Q 2706 997 2706 1503 
Q 2706 1984 2436 2262 
Q 2166 2541 1728 2541 
Q 1456 2541 1237 2417 
Q 1019 2294 894 2097 
L 366 2166 
L 809 4519 
L 3088 4519 
L 3088 3981 
L 1259 3981 
L 1013 2750 
Q 1425 3038 1878 3038 
Q 2478 3038 2890 2622 
Q 3303 2206 3303 1553 
Q 3303 931 2941 478 
Q 2500 -78 1738 -78 
Q 1113 -78 717 272 
Q 322 622 266 1200 
z
" transform="scale(0.015625)"/>
       </defs>
       <use xlink:href="#ArialMT-2212"/>
       <use xlink:href="#ArialMT-30" x="58.398438"/>
       <use xlink:href="#ArialMT-2e" x="114.013672"/>
       <use xlink:href="#ArialMT-35" x="141.796875"/>
      </g>
     </g>
    </g>
    <g id="xtick_3">
     <g id="line2d_3">
      <path d="M 733.992262 882 
L 733.992262 120.96 
" clip-path="url(#p0fdb07c2ba)" style="fill: none; stroke: #cccccc; stroke-linecap: round"/>
     </g>
     <g id="text_3">
      <!-- 0.0 -->
      <g style="fill: #262626" transform="translate(713.142262 912.973438)scale(0.3 -0.3)">
       <use xlink:href="#ArialMT-30"/>
       <use xlink:href="#ArialMT-2e" x="55.615234"/>
       <use xlink:href="#ArialMT-30" x="83.398438"/>
      </g>
     </g>
    </g>
    <g id="xtick_4">
     <g id="line2d_4">
      <path d="M 949.759604 882 
L 949.759604 120.96 
" clip-path="url(#p0fdb07c2ba)" style="fill: none; stroke: #cccccc; stroke-linecap: round"/>
     </g>
     <g id="text_4">
      <!-- 0.5 -->
      <g style="fill: #262626" transform="translate(928.909604 912.973438)scale(0.3 -0.3)">
       <use xlink:href="#ArialMT-30"/>
       <use xlink:href="#ArialMT-2e" x="55.615234"/>
       <use xlink:href="#ArialMT-35" x="83.398438"/>
      </g>
     </g>
    </g>
    <g id="xtick_5">
     <g id="line2d_5">
      <path d="M 1165.526947 882 
L 1165.526947 120.96 
" clip-path="url(#p0fdb07c2ba)" style="fill: none; stroke: #cccccc; stroke-linecap: round"/>
     </g>
     <g id="text_5">
      <!-- 1.0 -->
      <g style="fill: #262626" transform="translate(1144.676947 912.973438)scale(0.3 -0.3)">
       <use xlink:href="#ArialMT-31"/>
       <use xlink:href="#ArialMT-2e" x="55.615234"/>
       <use xlink:href="#ArialMT-30" x="83.398438"/>
      </g>
     </g>
    </g>
    <g id="text_6">
     <!-- Potential INEXUS relative to baseline -->
     <g style="fill: #262626" transform="translate(490.378125 944.409375)scale(0.3 -0.3)">
      <defs>
       <path id="ArialMT-50" d="M 494 0 
L 494 4581 
L 2222 4581 
Q 2678 4581 2919 4538 
Q 3256 4481 3484 4323 
Q 3713 4166 3852 3881 
Q 3991 3597 3991 3256 
Q 3991 2672 3619 2267 
Q 3247 1863 2275 1863 
L 1100 1863 
L 1100 0 
L 494 0 
z
M 1100 2403 
L 2284 2403 
Q 2872 2403 3119 2622 
Q 3366 2841 3366 3238 
Q 3366 3525 3220 3729 
Q 3075 3934 2838 4000 
Q 2684 4041 2272 4041 
L 1100 4041 
L 1100 2403 
z
" transform="scale(0.015625)"/>
       <path id="ArialMT-6f" d="M 213 1659 
Q 213 2581 725 3025 
Q 1153 3394 1769 3394 
Q 2453 3394 2887 2945 
Q 3322 2497 3322 1706 
Q 3322 1066 3130 698 
Q 2938 331 2570 128 
Q 2203 -75 1769 -75 
Q 1072 -75 642 372 
Q 213 819 213 1659 
z
M 791 1659 
Q 791 1022 1069 705 
Q 1347 388 1769 388 
Q 2188 388 2466 706 
Q 2744 1025 2744 1678 
Q 2744 2294 2464 2611 
Q 2184 2928 1769 2928 
Q 1347 2928 1069 2612 
Q 791 2297 791 1659 
z
" transform="scale(0.015625)"/>
       <path id="ArialMT-74" d="M 1650 503 
L 1731 6 
Q 1494 -44 1306 -44 
Q 1000 -44 831 53 
Q 663 150 594 308 
Q 525 466 525 972 
L 525 2881 
L 113 2881 
L 113 3319 
L 525 3319 
L 525 4141 
L 1084 4478 
L 1084 3319 
L 1650 3319 
L 1650 2881 
L 1084 2881 
L 1084 941 
Q 1084 700 1114 631 
Q 1144 563 1211 522 
Q 1278 481 1403 481 
Q 1497 481 1650 503 
z
" transform="scale(0.015625)"/>
       <path id="ArialMT-65" d="M 2694 1069 
L 3275 997 
Q 3138 488 2766 206 
Q 2394 -75 1816 -75 
Q 1088 -75 661 373 
Q 234 822 234 1631 
Q 234 2469 665 2931 
Q 1097 3394 1784 3394 
Q 2450 3394 2872 2941 
Q 3294 2488 3294 1666 
Q 3294 1616 3291 1516 
L 816 1516 
Q 847 969 1125 678 
Q 1403 388 1819 388 
Q 2128 388 2347 550 
Q 2566 713 2694 1069 
z
M 847 1978 
L 2700 1978 
Q 2663 2397 2488 2606 
Q 2219 2931 1791 2931 
Q 1403 2931 1139 2672 
Q 875 2413 847 1978 
z
" transform="scale(0.015625)"/>
       <path id="ArialMT-6e" d="M 422 0 
L 422 3319 
L 928 3319 
L 928 2847 
Q 1294 3394 1984 3394 
Q 2284 3394 2536 3286 
Q 2788 3178 2913 3003 
Q 3038 2828 3088 2588 
Q 3119 2431 3119 2041 
L 3119 0 
L 2556 0 
L 2556 2019 
Q 2556 2363 2490 2533 
Q 2425 2703 2258 2804 
Q 2091 2906 1866 2906 
Q 1506 2906 1245 2678 
Q 984 2450 984 1813 
L 984 0 
L 422 0 
z
" transform="scale(0.015625)"/>
       <path id="ArialMT-69" d="M 425 3934 
L 425 4581 
L 988 4581 
L 988 3934 
L 425 3934 
z
M 425 0 
L 425 3319 
L 988 3319 
L 988 0 
L 425 0 
z
" transform="scale(0.015625)"/>
       <path id="ArialMT-61" d="M 2588 409 
Q 2275 144 1986 34 
Q 1697 -75 1366 -75 
Q 819 -75 525 192 
Q 231 459 231 875 
Q 231 1119 342 1320 
Q 453 1522 633 1644 
Q 813 1766 1038 1828 
Q 1203 1872 1538 1913 
Q 2219 1994 2541 2106 
Q 2544 2222 2544 2253 
Q 2544 2597 2384 2738 
Q 2169 2928 1744 2928 
Q 1347 2928 1158 2789 
Q 969 2650 878 2297 
L 328 2372 
Q 403 2725 575 2942 
Q 747 3159 1072 3276 
Q 1397 3394 1825 3394 
Q 2250 3394 2515 3294 
Q 2781 3194 2906 3042 
Q 3031 2891 3081 2659 
Q 3109 2516 3109 2141 
L 3109 1391 
Q 3109 606 3145 398 
Q 3181 191 3288 0 
L 2700 0 
Q 2613 175 2588 409 
z
M 2541 1666 
Q 2234 1541 1622 1453 
Q 1275 1403 1131 1340 
Q 988 1278 909 1158 
Q 831 1038 831 891 
Q 831 666 1001 516 
Q 1172 366 1500 366 
Q 1825 366 2078 508 
Q 2331 650 2450 897 
Q 2541 1088 2541 1459 
L 2541 1666 
z
" transform="scale(0.015625)"/>
       <path id="ArialMT-6c" d="M 409 0 
L 409 4581 
L 972 4581 
L 972 0 
L 409 0 
z
" transform="scale(0.015625)"/>
       <path id="ArialMT-20" transform="scale(0.015625)"/>
       <path id="ArialMT-49" d="M 597 0 
L 597 4581 
L 1203 4581 
L 1203 0 
L 597 0 
z
" transform="scale(0.015625)"/>
       <path id="ArialMT-4e" d="M 488 0 
L 488 4581 
L 1109 4581 
L 3516 984 
L 3516 4581 
L 4097 4581 
L 4097 0 
L 3475 0 
L 1069 3600 
L 1069 0 
L 488 0 
z
" transform="scale(0.015625)"/>
       <path id="ArialMT-45" d="M 506 0 
L 506 4581 
L 3819 4581 
L 3819 4041 
L 1113 4041 
L 1113 2638 
L 3647 2638 
L 3647 2100 
L 1113 2100 
L 1113 541 
L 3925 541 
L 3925 0 
L 506 0 
z
" transform="scale(0.015625)"/>
       <path id="ArialMT-58" d="M 28 0 
L 1800 2388 
L 238 4581 
L 959 4581 
L 1791 3406 
Q 2050 3041 2159 2844 
Q 2313 3094 2522 3366 
L 3444 4581 
L 4103 4581 
L 2494 2422 
L 4228 0 
L 3478 0 
L 2325 1634 
Q 2228 1775 2125 1941 
Q 1972 1691 1906 1597 
L 756 0 
L 28 0 
z
" transform="scale(0.015625)"/>
       <path id="ArialMT-55" d="M 3500 4581 
L 4106 4581 
L 4106 1934 
Q 4106 1244 3950 837 
Q 3794 431 3386 176 
Q 2978 -78 2316 -78 
Q 1672 -78 1262 144 
Q 853 366 678 786 
Q 503 1206 503 1934 
L 503 4581 
L 1109 4581 
L 1109 1938 
Q 1109 1341 1220 1058 
Q 1331 775 1601 622 
Q 1872 469 2263 469 
Q 2931 469 3215 772 
Q 3500 1075 3500 1938 
L 3500 4581 
z
" transform="scale(0.015625)"/>
       <path id="ArialMT-53" d="M 288 1472 
L 859 1522 
Q 900 1178 1048 958 
Q 1197 738 1509 602 
Q 1822 466 2213 466 
Q 2559 466 2825 569 
Q 3091 672 3220 851 
Q 3350 1031 3350 1244 
Q 3350 1459 3225 1620 
Q 3100 1781 2813 1891 
Q 2628 1963 1997 2114 
Q 1366 2266 1113 2400 
Q 784 2572 623 2826 
Q 463 3081 463 3397 
Q 463 3744 659 4045 
Q 856 4347 1234 4503 
Q 1613 4659 2075 4659 
Q 2584 4659 2973 4495 
Q 3363 4331 3572 4012 
Q 3781 3694 3797 3291 
L 3216 3247 
Q 3169 3681 2898 3903 
Q 2628 4125 2100 4125 
Q 1550 4125 1298 3923 
Q 1047 3722 1047 3438 
Q 1047 3191 1225 3031 
Q 1400 2872 2139 2705 
Q 2878 2538 3153 2413 
Q 3553 2228 3743 1945 
Q 3934 1663 3934 1294 
Q 3934 928 3725 604 
Q 3516 281 3123 101 
Q 2731 -78 2241 -78 
Q 1619 -78 1198 103 
Q 778 284 539 648 
Q 300 1013 288 1472 
z
" transform="scale(0.015625)"/>
       <path id="ArialMT-72" d="M 416 0 
L 416 3319 
L 922 3319 
L 922 2816 
Q 1116 3169 1280 3281 
Q 1444 3394 1641 3394 
Q 1925 3394 2219 3213 
L 2025 2691 
Q 1819 2813 1613 2813 
Q 1428 2813 1281 2702 
Q 1134 2591 1072 2394 
Q 978 2094 978 1738 
L 978 0 
L 416 0 
z
" transform="scale(0.015625)"/>
       <path id="ArialMT-76" d="M 1344 0 
L 81 3319 
L 675 3319 
L 1388 1331 
Q 1503 1009 1600 663 
Q 1675 925 1809 1294 
L 2547 3319 
L 3125 3319 
L 1869 0 
L 1344 0 
z
" transform="scale(0.015625)"/>
       <path id="ArialMT-62" d="M 941 0 
L 419 0 
L 419 4581 
L 981 4581 
L 981 2947 
Q 1338 3394 1891 3394 
Q 2197 3394 2470 3270 
Q 2744 3147 2920 2923 
Q 3097 2700 3197 2384 
Q 3297 2069 3297 1709 
Q 3297 856 2875 390 
Q 2453 -75 1863 -75 
Q 1275 -75 941 416 
L 941 0 
z
M 934 1684 
Q 934 1088 1097 822 
Q 1363 388 1816 388 
Q 2184 388 2453 708 
Q 2722 1028 2722 1663 
Q 2722 2313 2464 2622 
Q 2206 2931 1841 2931 
Q 1472 2931 1203 2611 
Q 934 2291 934 1684 
z
" transform="scale(0.015625)"/>
       <path id="ArialMT-73" d="M 197 991 
L 753 1078 
Q 800 744 1014 566 
Q 1228 388 1613 388 
Q 2000 388 2187 545 
Q 2375 703 2375 916 
Q 2375 1106 2209 1216 
Q 2094 1291 1634 1406 
Q 1016 1563 777 1677 
Q 538 1791 414 1992 
Q 291 2194 291 2438 
Q 291 2659 392 2848 
Q 494 3038 669 3163 
Q 800 3259 1026 3326 
Q 1253 3394 1513 3394 
Q 1903 3394 2198 3281 
Q 2494 3169 2634 2976 
Q 2775 2784 2828 2463 
L 2278 2388 
Q 2241 2644 2061 2787 
Q 1881 2931 1553 2931 
Q 1166 2931 1000 2803 
Q 834 2675 834 2503 
Q 834 2394 903 2306 
Q 972 2216 1119 2156 
Q 1203 2125 1616 2013 
Q 2213 1853 2448 1751 
Q 2684 1650 2818 1456 
Q 2953 1263 2953 975 
Q 2953 694 2789 445 
Q 2625 197 2315 61 
Q 2006 -75 1616 -75 
Q 969 -75 630 194 
Q 291 463 197 991 
z
" transform="scale(0.015625)"/>
      </defs>
      <use xlink:href="#ArialMT-50"/>
      <use xlink:href="#ArialMT-6f" x="66.699219"/>
      <use xlink:href="#ArialMT-74" x="122.314453"/>
      <use xlink:href="#ArialMT-65" x="150.097656"/>
      <use xlink:href="#ArialMT-6e" x="205.712891"/>
      <use xlink:href="#ArialMT-74" x="261.328125"/>
      <use xlink:href="#ArialMT-69" x="289.111328"/>
      <use xlink:href="#ArialMT-61" x="311.328125"/>
      <use xlink:href="#ArialMT-6c" x="366.943359"/>
      <use xlink:href="#ArialMT-20" x="389.160156"/>
      <use xlink:href="#ArialMT-49" x="416.943359"/>
      <use xlink:href="#ArialMT-4e" x="444.726562"/>
      <use xlink:href="#ArialMT-45" x="516.943359"/>
      <use xlink:href="#ArialMT-58" x="583.642578"/>
      <use xlink:href="#ArialMT-55" x="650.341797"/>
      <use xlink:href="#ArialMT-53" x="722.558594"/>
      <use xlink:href="#ArialMT-20" x="789.257812"/>
      <use xlink:href="#ArialMT-72" x="817.041016"/>
      <use xlink:href="#ArialMT-65" x="850.341797"/>
      <use xlink:href="#ArialMT-6c" x="905.957031"/>
      <use xlink:href="#ArialMT-61" x="928.173828"/>
      <use xlink:href="#ArialMT-74" x="983.789062"/>
      <use xlink:href="#ArialMT-69" x="1011.572266"/>
      <use xlink:href="#ArialMT-76" x="1033.789062"/>
      <use xlink:href="#ArialMT-65" x="1083.789062"/>
      <use xlink:href="#ArialMT-20" x="1139.404297"/>
      <use xlink:href="#ArialMT-74" x="1167.1875"/>
      <use xlink:href="#ArialMT-6f" x="1194.970703"/>
      <use xlink:href="#ArialMT-20" x="1250.585938"/>
      <use xlink:href="#ArialMT-62" x="1278.369141"/>
      <use xlink:href="#ArialMT-61" x="1333.984375"/>
      <use xlink:href="#ArialMT-73" x="1389.599609"/>
      <use xlink:href="#ArialMT-65" x="1439.599609"/>
      <use xlink:href="#ArialMT-6c" x="1495.214844"/>
      <use xlink:href="#ArialMT-69" x="1517.431641"/>
      <use xlink:href="#ArialMT-6e" x="1539.648438"/>
      <use xlink:href="#ArialMT-65" x="1595.263672"/>
     </g>
    </g>
   </g>
   <g id="matplotlib.axis_2">
    <g id="ytick_1">
     <g id="text_7">
      <!-- Ridehail -->
      <g style="fill: #262626" transform="translate(62.10625 226.826719)scale(0.3 -0.3)">
       <defs>
        <path id="ArialMT-52" d="M 503 0 
L 503 4581 
L 2534 4581 
Q 3147 4581 3465 4457 
Q 3784 4334 3975 4021 
Q 4166 3709 4166 3331 
Q 4166 2844 3850 2509 
Q 3534 2175 2875 2084 
Q 3116 1969 3241 1856 
Q 3506 1613 3744 1247 
L 4541 0 
L 3778 0 
L 3172 953 
Q 2906 1366 2734 1584 
Q 2563 1803 2427 1890 
Q 2291 1978 2150 2013 
Q 2047 2034 1813 2034 
L 1109 2034 
L 1109 0 
L 503 0 
z
M 1109 2559 
L 2413 2559 
Q 2828 2559 3062 2645 
Q 3297 2731 3419 2920 
Q 3541 3109 3541 3331 
Q 3541 3656 3305 3865 
Q 3069 4075 2559 4075 
L 1109 4075 
L 1109 2559 
z
" transform="scale(0.015625)"/>
        <path id="ArialMT-64" d="M 2575 0 
L 2575 419 
Q 2259 -75 1647 -75 
Q 1250 -75 917 144 
Q 584 363 401 755 
Q 219 1147 219 1656 
Q 219 2153 384 2558 
Q 550 2963 881 3178 
Q 1213 3394 1622 3394 
Q 1922 3394 2156 3267 
Q 2391 3141 2538 2938 
L 2538 4581 
L 3097 4581 
L 3097 0 
L 2575 0 
z
M 797 1656 
Q 797 1019 1065 703 
Q 1334 388 1700 388 
Q 2069 388 2326 689 
Q 2584 991 2584 1609 
Q 2584 2291 2321 2609 
Q 2059 2928 1675 2928 
Q 1300 2928 1048 2622 
Q 797 2316 797 1656 
z
" transform="scale(0.015625)"/>
        <path id="ArialMT-68" d="M 422 0 
L 422 4581 
L 984 4581 
L 984 2938 
Q 1378 3394 1978 3394 
Q 2347 3394 2619 3248 
Q 2891 3103 3008 2847 
Q 3125 2591 3125 2103 
L 3125 0 
L 2563 0 
L 2563 2103 
Q 2563 2525 2380 2717 
Q 2197 2909 1863 2909 
Q 1613 2909 1392 2779 
Q 1172 2650 1078 2428 
Q 984 2206 984 1816 
L 984 0 
L 422 0 
z
" transform="scale(0.015625)"/>
       </defs>
       <use xlink:href="#ArialMT-52"/>
       <use xlink:href="#ArialMT-69" x="72.216797"/>
       <use xlink:href="#ArialMT-64" x="94.433594"/>
       <use xlink:href="#ArialMT-65" x="150.048828"/>
       <use xlink:href="#ArialMT-68" x="205.664062"/>
       <use xlink:href="#ArialMT-61" x="261.279297"/>
       <use xlink:href="#ArialMT-69" x="316.894531"/>
       <use xlink:href="#ArialMT-6c" x="339.111328"/>
      </g>
     </g>
    </g>
    <g id="ytick_2">
     <g id="text_8">
      <!-- Car -->
      <g style="fill: #262626" transform="translate(122.1625 417.086719)scale(0.3 -0.3)">
       <defs>
        <path id="ArialMT-43" d="M 3763 1606 
L 4369 1453 
Q 4178 706 3683 314 
Q 3188 -78 2472 -78 
Q 1731 -78 1267 223 
Q 803 525 561 1097 
Q 319 1669 319 2325 
Q 319 3041 592 3573 
Q 866 4106 1370 4382 
Q 1875 4659 2481 4659 
Q 3169 4659 3637 4309 
Q 4106 3959 4291 3325 
L 3694 3184 
Q 3534 3684 3231 3912 
Q 2928 4141 2469 4141 
Q 1941 4141 1586 3887 
Q 1231 3634 1087 3207 
Q 944 2781 944 2328 
Q 944 1744 1114 1308 
Q 1284 872 1643 656 
Q 2003 441 2422 441 
Q 2931 441 3284 734 
Q 3638 1028 3763 1606 
z
" transform="scale(0.015625)"/>
       </defs>
       <use xlink:href="#ArialMT-43"/>
       <use xlink:href="#ArialMT-61" x="72.216797"/>
       <use xlink:href="#ArialMT-72" x="127.832031"/>
      </g>
     </g>
    </g>
    <g id="ytick_3">
     <g id="text_9">
      <!-- Transit -->
      <g style="fill: #262626" transform="translate(79.946875 607.346719)scale(0.3 -0.3)">
       <defs>
        <path id="ArialMT-54" d="M 1659 0 
L 1659 4041 
L 150 4041 
L 150 4581 
L 3781 4581 
L 3781 4041 
L 2266 4041 
L 2266 0 
L 1659 0 
z
" transform="scale(0.015625)"/>
       </defs>
       <use xlink:href="#ArialMT-54"/>
       <use xlink:href="#ArialMT-72" x="57.333984"/>
       <use xlink:href="#ArialMT-61" x="90.634766"/>
       <use xlink:href="#ArialMT-6e" x="146.25"/>
       <use xlink:href="#ArialMT-73" x="201.865234"/>
       <use xlink:href="#ArialMT-69" x="251.865234"/>
       <use xlink:href="#ArialMT-74" x="274.082031"/>
      </g>
     </g>
    </g>
    <g id="ytick_4">
     <g id="text_10">
      <!-- Walk/Bike -->
      <g style="fill: #262626" transform="translate(38.265625 797.606719)scale(0.3 -0.3)">
       <defs>
        <path id="ArialMT-57" d="M 1294 0 
L 78 4581 
L 700 4581 
L 1397 1578 
Q 1509 1106 1591 641 
Q 1766 1375 1797 1488 
L 2669 4581 
L 3400 4581 
L 4056 2263 
Q 4303 1400 4413 641 
Q 4500 1075 4641 1638 
L 5359 4581 
L 5969 4581 
L 4713 0 
L 4128 0 
L 3163 3491 
Q 3041 3928 3019 4028 
Q 2947 3713 2884 3491 
L 1913 0 
L 1294 0 
z
" transform="scale(0.015625)"/>
        <path id="ArialMT-6b" d="M 425 0 
L 425 4581 
L 988 4581 
L 988 1969 
L 2319 3319 
L 3047 3319 
L 1778 2088 
L 3175 0 
L 2481 0 
L 1384 1697 
L 988 1316 
L 988 0 
L 425 0 
z
" transform="scale(0.015625)"/>
        <path id="ArialMT-2f" d="M 0 -78 
L 1328 4659 
L 1778 4659 
L 453 -78 
L 0 -78 
z
" transform="scale(0.015625)"/>
        <path id="ArialMT-42" d="M 469 0 
L 469 4581 
L 2188 4581 
Q 2713 4581 3030 4442 
Q 3347 4303 3526 4014 
Q 3706 3725 3706 3409 
Q 3706 3116 3547 2856 
Q 3388 2597 3066 2438 
Q 3481 2316 3704 2022 
Q 3928 1728 3928 1328 
Q 3928 1006 3792 729 
Q 3656 453 3456 303 
Q 3256 153 2954 76 
Q 2653 0 2216 0 
L 469 0 
z
M 1075 2656 
L 2066 2656 
Q 2469 2656 2644 2709 
Q 2875 2778 2992 2937 
Q 3109 3097 3109 3338 
Q 3109 3566 3000 3739 
Q 2891 3913 2687 3977 
Q 2484 4041 1991 4041 
L 1075 4041 
L 1075 2656 
z
M 1075 541 
L 2216 541 
Q 2509 541 2628 563 
Q 2838 600 2978 687 
Q 3119 775 3209 942 
Q 3300 1109 3300 1328 
Q 3300 1584 3169 1773 
Q 3038 1963 2805 2039 
Q 2572 2116 2134 2116 
L 1075 2116 
L 1075 541 
z
" transform="scale(0.015625)"/>
       </defs>
       <use xlink:href="#ArialMT-57"/>
       <use xlink:href="#ArialMT-61" x="90.634766"/>
       <use xlink:href="#ArialMT-6c" x="146.25"/>
       <use xlink:href="#ArialMT-6b" x="168.466797"/>
       <use xlink:href="#ArialMT-2f" x="218.466797"/>
       <use xlink:href="#ArialMT-42" x="246.25"/>
       <use xlink:href="#ArialMT-69" x="312.949219"/>
       <use xlink:href="#ArialMT-6b" x="335.166016"/>
       <use xlink:href="#ArialMT-65" x="385.166016"/>
      </g>
     </g>
    </g>
    <g id="text_11">
     <!-- Mode -->
     <g style="fill: #262626" transform="translate(28.303125 538.99875)rotate(-90)scale(0.3 -0.3)">
      <defs>
       <path id="ArialMT-4d" d="M 475 0 
L 475 4581 
L 1388 4581 
L 2472 1338 
Q 2622 884 2691 659 
Q 2769 909 2934 1394 
L 4031 4581 
L 4847 4581 
L 4847 0 
L 4263 0 
L 4263 3834 
L 2931 0 
L 2384 0 
L 1059 3900 
L 1059 0 
L 475 0 
z
" transform="scale(0.015625)"/>
      </defs>
      <use xlink:href="#ArialMT-4d"/>
      <use xlink:href="#ArialMT-6f" x="83.300781"/>
      <use xlink:href="#ArialMT-64" x="138.916016"/>
      <use xlink:href="#ArialMT-65" x="194.53125"/>
     </g>
    </g>
   </g>
   <g id="patch_3">
    <path d="M 733.992262 140.290416 
L 733.992262 170.123184 
L 733.992262 170.123184 
L 733.992262 140.290416 
L 733.992262 140.290416 
z
" clip-path="url(#p0fdb07c2ba)" style="fill: #3b203e; stroke: #1c1c1c; stroke-width: 1.5; stroke-linejoin: miter"/>
   </g>
   <g id="patch_4">
    <path d="M 652.79633 170.732016 
L 652.79633 200.564784 
L 811.463249 200.564784 
L 811.463249 170.732016 
L 652.79633 170.732016 
z
" clip-path="url(#p0fdb07c2ba)" style="fill: #772b58; stroke: #1c1c1c; stroke-width: 1.5; stroke-linejoin: miter"/>
   </g>
   <g id="patch_5">
    <path d="M 651.726325 201.173616 
L 651.726325 231.006384 
L 812.325188 231.006384 
L 812.325188 201.173616 
L 651.726325 201.173616 
z
" clip-path="url(#p0fdb07c2ba)" style="fill: #b53158; stroke: #1c1c1c; stroke-width: 1.5; stroke-linejoin: miter"/>
   </g>
   <g id="patch_6">
    <path d="M 651.551253 231.615216 
L 651.551253 261.447984 
L 810.805608 261.447984 
L 810.805608 231.615216 
L 651.551253 231.615216 
z
" clip-path="url(#p0fdb07c2ba)" style="fill: #db6e59; stroke: #1c1c1c; stroke-width: 1.5; stroke-linejoin: miter"/>
   </g>
   <g id="patch_7">
    <path d="M 653.600513 262.056816 
L 653.600513 291.889584 
L 809.246003 291.889584 
L 809.246003 262.056816 
L 653.600513 262.056816 
z
" clip-path="url(#p0fdb07c2ba)" style="fill: #e8af92; stroke: #1c1c1c; stroke-width: 1.5; stroke-linejoin: miter"/>
   </g>
   <g id="patch_8">
    <path d="M 733.992262 330.550416 
L 733.992262 360.383184 
L 733.992262 360.383184 
L 733.992262 330.550416 
L 733.992262 330.550416 
z
" clip-path="url(#p0fdb07c2ba)" style="fill: #3b203e; stroke: #1c1c1c; stroke-width: 1.5; stroke-linejoin: miter"/>
   </g>
   <g id="patch_9">
    <path d="M 665.265381 360.992016 
L 665.265381 390.824784 
L 803.077726 390.824784 
L 803.077726 360.992016 
L 665.265381 360.992016 
z
" clip-path="url(#p0fdb07c2ba)" style="fill: #772b58; stroke: #1c1c1c; stroke-width: 1.5; stroke-linejoin: miter"/>
   </g>
   <g id="patch_10">
    <path d="M 665.542284 391.433616 
L 665.542284 421.266384 
L 802.546219 421.266384 
L 802.546219 391.433616 
L 665.542284 391.433616 
z
" clip-path="url(#p0fdb07c2ba)" style="fill: #b53158; stroke: #1c1c1c; stroke-width: 1.5; stroke-linejoin: miter"/>
   </g>
   <g id="patch_11">
    <path d="M 665.25876 421.875216 
L 665.25876 451.707984 
L 802.404778 451.707984 
L 802.404778 421.875216 
L 665.25876 421.875216 
z
" clip-path="url(#p0fdb07c2ba)" style="fill: #db6e59; stroke: #1c1c1c; stroke-width: 1.5; stroke-linejoin: miter"/>
   </g>
   <g id="patch_12">
    <path d="M 664.697361 452.316816 
L 664.697361 482.149584 
L 802.558661 482.149584 
L 802.558661 452.316816 
L 664.697361 452.316816 
z
" clip-path="url(#p0fdb07c2ba)" style="fill: #e8af92; stroke: #1c1c1c; stroke-width: 1.5; stroke-linejoin: miter"/>
   </g>
   <g id="patch_13">
    <path d="M 733.992262 520.810416 
L 733.992262 550.643184 
L 733.992262 550.643184 
L 733.992262 520.810416 
L 733.992262 520.810416 
z
" clip-path="url(#p0fdb07c2ba)" style="fill: #3b203e; stroke: #1c1c1c; stroke-width: 1.5; stroke-linejoin: miter"/>
   </g>
   <g id="patch_14">
    <path d="M 614.740837 551.252016 
L 614.740837 581.084784 
L 851.207111 581.084784 
L 851.207111 551.252016 
L 614.740837 551.252016 
z
" clip-path="url(#p0fdb07c2ba)" style="fill: #772b58; stroke: #1c1c1c; stroke-width: 1.5; stroke-linejoin: miter"/>
   </g>
   <g id="patch_15">
    <path d="M 617.5176 581.693616 
L 617.5176 611.526384 
L 850.543441 611.526384 
L 850.543441 581.693616 
L 617.5176 581.693616 
z
" clip-path="url(#p0fdb07c2ba)" style="fill: #b53158; stroke: #1c1c1c; stroke-width: 1.5; stroke-linejoin: miter"/>
   </g>
   <g id="patch_16">
    <path d="M 615.672096 612.135216 
L 615.672096 641.967984 
L 849.608132 641.967984 
L 849.608132 612.135216 
L 615.672096 612.135216 
z
" clip-path="url(#p0fdb07c2ba)" style="fill: #db6e59; stroke: #1c1c1c; stroke-width: 1.5; stroke-linejoin: miter"/>
   </g>
   <g id="patch_17">
    <path d="M 614.440685 642.576816 
L 614.440685 672.409584 
L 849.747422 672.409584 
L 849.747422 642.576816 
L 614.440685 642.576816 
z
" clip-path="url(#p0fdb07c2ba)" style="fill: #e8af92; stroke: #1c1c1c; stroke-width: 1.5; stroke-linejoin: miter"/>
   </g>
   <g id="patch_18">
    <path d="M 733.992262 711.070416 
L 733.992262 740.903184 
L 733.992262 740.903184 
L 733.992262 711.070416 
L 733.992262 711.070416 
z
" clip-path="url(#p0fdb07c2ba)" style="fill: #3b203e; stroke: #1c1c1c; stroke-width: 1.5; stroke-linejoin: miter"/>
   </g>
   <g id="patch_19">
    <path d="M 611.322813 741.512016 
L 611.322813 771.344784 
L 863.324896 771.344784 
L 863.324896 741.512016 
L 611.322813 741.512016 
z
" clip-path="url(#p0fdb07c2ba)" style="fill: #772b58; stroke: #1c1c1c; stroke-width: 1.5; stroke-linejoin: miter"/>
   </g>
   <g id="patch_20">
    <path d="M 611.489795 771.953616 
L 611.489795 801.786384 
L 856.599323 801.786384 
L 856.599323 771.953616 
L 611.489795 771.953616 
z
" clip-path="url(#p0fdb07c2ba)" style="fill: #b53158; stroke: #1c1c1c; stroke-width: 1.5; stroke-linejoin: miter"/>
   </g>
   <g id="patch_21">
    <path d="M 607.33152 802.395216 
L 607.33152 832.227984 
L 858.418406 832.227984 
L 858.418406 802.395216 
L 607.33152 802.395216 
z
" clip-path="url(#p0fdb07c2ba)" style="fill: #db6e59; stroke: #1c1c1c; stroke-width: 1.5; stroke-linejoin: miter"/>
   </g>
   <g id="patch_22">
    <path d="M 612.038578 832.836816 
L 612.038578 862.669584 
L 865.412528 862.669584 
L 865.412528 832.836816 
L 612.038578 832.836816 
z
" clip-path="url(#p0fdb07c2ba)" style="fill: #e8af92; stroke: #1c1c1c; stroke-width: 1.5; stroke-linejoin: miter"/>
   </g>
   <g id="patch_23">
    <path d="M 733.992262 216.09 
L 733.992262 216.09 
L 733.992262 216.09 
L 733.992262 216.09 
z
" clip-path="url(#p0fdb07c2ba)" style="fill: #3b203e; stroke: #1c1c1c; stroke-width: 0.75; stroke-linejoin: miter"/>
   </g>
   <g id="patch_24">
    <path d="M 733.992262 216.09 
L 733.992262 216.09 
L 733.992262 216.09 
L 733.992262 216.09 
z
" clip-path="url(#p0fdb07c2ba)" style="fill: #772b58; stroke: #1c1c1c; stroke-width: 0.75; stroke-linejoin: miter"/>
   </g>
   <g id="patch_25">
    <path d="M 733.992262 216.09 
L 733.992262 216.09 
L 733.992262 216.09 
L 733.992262 216.09 
z
" clip-path="url(#p0fdb07c2ba)" style="fill: #b53158; stroke: #1c1c1c; stroke-width: 0.75; stroke-linejoin: miter"/>
   </g>
   <g id="patch_26">
    <path d="M 733.992262 216.09 
L 733.992262 216.09 
L 733.992262 216.09 
L 733.992262 216.09 
z
" clip-path="url(#p0fdb07c2ba)" style="fill: #db6e59; stroke: #1c1c1c; stroke-width: 0.75; stroke-linejoin: miter"/>
   </g>
   <g id="patch_27">
    <path d="M 733.992262 216.09 
L 733.992262 216.09 
L 733.992262 216.09 
L 733.992262 216.09 
z
" clip-path="url(#p0fdb07c2ba)" style="fill: #e8af92; stroke: #1c1c1c; stroke-width: 0.75; stroke-linejoin: miter"/>
   </g>
   <g id="line2d_6">
    <path d="M 733.992262 155.2068 
L 733.992262 155.2068 
" clip-path="url(#p0fdb07c2ba)" style="fill: none; stroke: #1c1c1c; stroke-width: 1.5; stroke-linecap: round"/>
   </g>
   <g id="line2d_7">
    <path d="M 733.992262 155.2068 
L 733.992262 155.2068 
" clip-path="url(#p0fdb07c2ba)" style="fill: none; stroke: #1c1c1c; stroke-width: 1.5; stroke-linecap: round"/>
   </g>
   <g id="line2d_8">
    <path d="M 733.992262 147.748608 
L 733.992262 162.664992 
" clip-path="url(#p0fdb07c2ba)" style="fill: none; stroke: #1c1c1c; stroke-width: 1.5; stroke-linecap: round"/>
   </g>
   <g id="line2d_9">
    <path d="M 733.992262 147.748608 
L 733.992262 162.664992 
" clip-path="url(#p0fdb07c2ba)" style="fill: none; stroke: #1c1c1c; stroke-width: 1.5; stroke-linecap: round"/>
   </g>
   <g id="line2d_10">
    <path d="M 652.79633 185.6484 
L 416.63723 185.6484 
" clip-path="url(#p0fdb07c2ba)" style="fill: none; stroke: #1c1c1c; stroke-width: 1.5; stroke-linecap: round"/>
   </g>
   <g id="line2d_11">
    <path d="M 811.463249 185.6484 
L 1048.967979 185.6484 
" clip-path="url(#p0fdb07c2ba)" style="fill: none; stroke: #1c1c1c; stroke-width: 1.5; stroke-linecap: round"/>
   </g>
   <g id="line2d_12">
    <path d="M 416.63723 178.190208 
L 416.63723 193.106592 
" clip-path="url(#p0fdb07c2ba)" style="fill: none; stroke: #1c1c1c; stroke-width: 1.5; stroke-linecap: round"/>
   </g>
   <g id="line2d_13">
    <path d="M 1048.967979 178.190208 
L 1048.967979 193.106592 
" clip-path="url(#p0fdb07c2ba)" style="fill: none; stroke: #1c1c1c; stroke-width: 1.5; stroke-linecap: round"/>
   </g>
   <g id="line2d_14">
    <path d="M 651.726325 216.09 
L 411.397296 216.09 
" clip-path="url(#p0fdb07c2ba)" style="fill: none; stroke: #1c1c1c; stroke-width: 1.5; stroke-linecap: round"/>
   </g>
   <g id="line2d_15">
    <path d="M 812.325188 216.09 
L 1052.821666 216.09 
" clip-path="url(#p0fdb07c2ba)" style="fill: none; stroke: #1c1c1c; stroke-width: 1.5; stroke-linecap: round"/>
   </g>
   <g id="line2d_16">
    <path d="M 411.397296 208.631808 
L 411.397296 223.548192 
" clip-path="url(#p0fdb07c2ba)" style="fill: none; stroke: #1c1c1c; stroke-width: 1.5; stroke-linecap: round"/>
   </g>
   <g id="line2d_17">
    <path d="M 1052.821666 208.631808 
L 1052.821666 223.548192 
" clip-path="url(#p0fdb07c2ba)" style="fill: none; stroke: #1c1c1c; stroke-width: 1.5; stroke-linecap: round"/>
   </g>
   <g id="line2d_18">
    <path d="M 651.551253 246.5316 
L 413.691001 246.5316 
" clip-path="url(#p0fdb07c2ba)" style="fill: none; stroke: #1c1c1c; stroke-width: 1.5; stroke-linecap: round"/>
   </g>
   <g id="line2d_19">
    <path d="M 810.805608 246.5316 
L 1049.256062 246.5316 
" clip-path="url(#p0fdb07c2ba)" style="fill: none; stroke: #1c1c1c; stroke-width: 1.5; stroke-linecap: round"/>
   </g>
   <g id="line2d_20">
    <path d="M 413.691001 239.073408 
L 413.691001 253.989792 
" clip-path="url(#p0fdb07c2ba)" style="fill: none; stroke: #1c1c1c; stroke-width: 1.5; stroke-linecap: round"/>
   </g>
   <g id="line2d_21">
    <path d="M 1049.256062 239.073408 
L 1049.256062 253.989792 
" clip-path="url(#p0fdb07c2ba)" style="fill: none; stroke: #1c1c1c; stroke-width: 1.5; stroke-linecap: round"/>
   </g>
   <g id="line2d_22">
    <path d="M 653.600513 276.9732 
L 421.129554 276.9732 
" clip-path="url(#p0fdb07c2ba)" style="fill: none; stroke: #1c1c1c; stroke-width: 1.5; stroke-linecap: round"/>
   </g>
   <g id="line2d_23">
    <path d="M 809.246003 276.9732 
L 1042.699707 276.9732 
" clip-path="url(#p0fdb07c2ba)" style="fill: none; stroke: #1c1c1c; stroke-width: 1.5; stroke-linecap: round"/>
   </g>
   <g id="line2d_24">
    <path d="M 421.129554 269.515008 
L 421.129554 284.431392 
" clip-path="url(#p0fdb07c2ba)" style="fill: none; stroke: #1c1c1c; stroke-width: 1.5; stroke-linecap: round"/>
   </g>
   <g id="line2d_25">
    <path d="M 1042.699707 269.515008 
L 1042.699707 284.431392 
" clip-path="url(#p0fdb07c2ba)" style="fill: none; stroke: #1c1c1c; stroke-width: 1.5; stroke-linecap: round"/>
   </g>
   <g id="line2d_26">
    <path d="M 733.992262 345.4668 
L 733.992262 345.4668 
" clip-path="url(#p0fdb07c2ba)" style="fill: none; stroke: #1c1c1c; stroke-width: 1.5; stroke-linecap: round"/>
   </g>
   <g id="line2d_27">
    <path d="M 733.992262 345.4668 
L 733.992262 345.4668 
" clip-path="url(#p0fdb07c2ba)" style="fill: none; stroke: #1c1c1c; stroke-width: 1.5; stroke-linecap: round"/>
   </g>
   <g id="line2d_28">
    <path d="M 733.992262 338.008608 
L 733.992262 352.924992 
" clip-path="url(#p0fdb07c2ba)" style="fill: none; stroke: #1c1c1c; stroke-width: 1.5; stroke-linecap: round"/>
   </g>
   <g id="line2d_29">
    <path d="M 733.992262 338.008608 
L 733.992262 352.924992 
" clip-path="url(#p0fdb07c2ba)" style="fill: none; stroke: #1c1c1c; stroke-width: 1.5; stroke-linecap: round"/>
   </g>
   <g id="line2d_30">
    <path d="M 665.265381 375.9084 
L 458.551806 375.9084 
" clip-path="url(#p0fdb07c2ba)" style="fill: none; stroke: #1c1c1c; stroke-width: 1.5; stroke-linecap: round"/>
   </g>
   <g id="line2d_31">
    <path d="M 803.077726 375.9084 
L 1009.795897 375.9084 
" clip-path="url(#p0fdb07c2ba)" style="fill: none; stroke: #1c1c1c; stroke-width: 1.5; stroke-linecap: round"/>
   </g>
   <g id="line2d_32">
    <path d="M 458.551806 368.450208 
L 458.551806 383.366592 
" clip-path="url(#p0fdb07c2ba)" style="fill: none; stroke: #1c1c1c; stroke-width: 1.5; stroke-linecap: round"/>
   </g>
   <g id="line2d_33">
    <path d="M 1009.795897 368.450208 
L 1009.795897 383.366592 
" clip-path="url(#p0fdb07c2ba)" style="fill: none; stroke: #1c1c1c; stroke-width: 1.5; stroke-linecap: round"/>
   </g>
   <g id="line2d_34">
    <path d="M 665.542284 406.35 
L 460.037041 406.35 
" clip-path="url(#p0fdb07c2ba)" style="fill: none; stroke: #1c1c1c; stroke-width: 1.5; stroke-linecap: round"/>
   </g>
   <g id="line2d_35">
    <path d="M 802.546219 406.35 
L 1008.047711 406.35 
" clip-path="url(#p0fdb07c2ba)" style="fill: none; stroke: #1c1c1c; stroke-width: 1.5; stroke-linecap: round"/>
   </g>
   <g id="line2d_36">
    <path d="M 460.037041 398.891808 
L 460.037041 413.808192 
" clip-path="url(#p0fdb07c2ba)" style="fill: none; stroke: #1c1c1c; stroke-width: 1.5; stroke-linecap: round"/>
   </g>
   <g id="line2d_37">
    <path d="M 1008.047711 398.891808 
L 1008.047711 413.808192 
" clip-path="url(#p0fdb07c2ba)" style="fill: none; stroke: #1c1c1c; stroke-width: 1.5; stroke-linecap: round"/>
   </g>
   <g id="line2d_38">
    <path d="M 665.25876 436.7916 
L 459.541001 436.7916 
" clip-path="url(#p0fdb07c2ba)" style="fill: none; stroke: #1c1c1c; stroke-width: 1.5; stroke-linecap: round"/>
   </g>
   <g id="line2d_39">
    <path d="M 802.404778 436.7916 
L 1008.123064 436.7916 
" clip-path="url(#p0fdb07c2ba)" style="fill: none; stroke: #1c1c1c; stroke-width: 1.5; stroke-linecap: round"/>
   </g>
   <g id="line2d_40">
    <path d="M 459.541001 429.333408 
L 459.541001 444.249792 
" clip-path="url(#p0fdb07c2ba)" style="fill: none; stroke: #1c1c1c; stroke-width: 1.5; stroke-linecap: round"/>
   </g>
   <g id="line2d_41">
    <path d="M 1008.123064 429.333408 
L 1008.123064 444.249792 
" clip-path="url(#p0fdb07c2ba)" style="fill: none; stroke: #1c1c1c; stroke-width: 1.5; stroke-linecap: round"/>
   </g>
   <g id="line2d_42">
    <path d="M 664.697361 467.2332 
L 457.90627 467.2332 
" clip-path="url(#p0fdb07c2ba)" style="fill: none; stroke: #1c1c1c; stroke-width: 1.5; stroke-linecap: round"/>
   </g>
   <g id="line2d_43">
    <path d="M 802.558661 467.2332 
L 1009.349975 467.2332 
" clip-path="url(#p0fdb07c2ba)" style="fill: none; stroke: #1c1c1c; stroke-width: 1.5; stroke-linecap: round"/>
   </g>
   <g id="line2d_44">
    <path d="M 457.90627 459.775008 
L 457.90627 474.691392 
" clip-path="url(#p0fdb07c2ba)" style="fill: none; stroke: #1c1c1c; stroke-width: 1.5; stroke-linecap: round"/>
   </g>
   <g id="line2d_45">
    <path d="M 1009.349975 459.775008 
L 1009.349975 474.691392 
" clip-path="url(#p0fdb07c2ba)" style="fill: none; stroke: #1c1c1c; stroke-width: 1.5; stroke-linecap: round"/>
   </g>
   <g id="line2d_46">
    <path d="M 733.992262 535.7268 
L 733.992262 535.7268 
" clip-path="url(#p0fdb07c2ba)" style="fill: none; stroke: #1c1c1c; stroke-width: 1.5; stroke-linecap: round"/>
   </g>
   <g id="line2d_47">
    <path d="M 733.992262 535.7268 
L 733.992262 535.7268 
" clip-path="url(#p0fdb07c2ba)" style="fill: none; stroke: #1c1c1c; stroke-width: 1.5; stroke-linecap: round"/>
   </g>
   <g id="line2d_48">
    <path d="M 733.992262 528.268608 
L 733.992262 543.184992 
" clip-path="url(#p0fdb07c2ba)" style="fill: none; stroke: #1c1c1c; stroke-width: 1.5; stroke-linecap: round"/>
   </g>
   <g id="line2d_49">
    <path d="M 733.992262 528.268608 
L 733.992262 543.184992 
" clip-path="url(#p0fdb07c2ba)" style="fill: none; stroke: #1c1c1c; stroke-width: 1.5; stroke-linecap: round"/>
   </g>
   <g id="line2d_50">
    <path d="M 614.740837 566.1684 
L 260.469912 566.1684 
" clip-path="url(#p0fdb07c2ba)" style="fill: none; stroke: #1c1c1c; stroke-width: 1.5; stroke-linecap: round"/>
   </g>
   <g id="line2d_51">
    <path d="M 851.207111 566.1684 
L 1205.903058 566.1684 
" clip-path="url(#p0fdb07c2ba)" style="fill: none; stroke: #1c1c1c; stroke-width: 1.5; stroke-linecap: round"/>
   </g>
   <g id="line2d_52">
    <path d="M 260.469912 558.710208 
L 260.469912 573.626592 
" clip-path="url(#p0fdb07c2ba)" style="fill: none; stroke: #1c1c1c; stroke-width: 1.5; stroke-linecap: round"/>
   </g>
   <g id="line2d_53">
    <path d="M 1205.903058 558.710208 
L 1205.903058 573.626592 
" clip-path="url(#p0fdb07c2ba)" style="fill: none; stroke: #1c1c1c; stroke-width: 1.5; stroke-linecap: round"/>
   </g>
   <g id="line2d_54">
    <path d="M 617.5176 596.61 
L 268.075696 596.61 
" clip-path="url(#p0fdb07c2ba)" style="fill: none; stroke: #1c1c1c; stroke-width: 1.5; stroke-linecap: round"/>
   </g>
   <g id="line2d_55">
    <path d="M 850.543441 596.61 
L 1200.076162 596.61 
" clip-path="url(#p0fdb07c2ba)" style="fill: none; stroke: #1c1c1c; stroke-width: 1.5; stroke-linecap: round"/>
   </g>
   <g id="line2d_56">
    <path d="M 268.075696 589.151808 
L 268.075696 604.068192 
" clip-path="url(#p0fdb07c2ba)" style="fill: none; stroke: #1c1c1c; stroke-width: 1.5; stroke-linecap: round"/>
   </g>
   <g id="line2d_57">
    <path d="M 1200.076162 589.151808 
L 1200.076162 604.068192 
" clip-path="url(#p0fdb07c2ba)" style="fill: none; stroke: #1c1c1c; stroke-width: 1.5; stroke-linecap: round"/>
   </g>
   <g id="line2d_58">
    <path d="M 615.672096 627.0516 
L 264.769357 627.0516 
" clip-path="url(#p0fdb07c2ba)" style="fill: none; stroke: #1c1c1c; stroke-width: 1.5; stroke-linecap: round"/>
   </g>
   <g id="line2d_59">
    <path d="M 849.608132 627.0516 
L 1200.481984 627.0516 
" clip-path="url(#p0fdb07c2ba)" style="fill: none; stroke: #1c1c1c; stroke-width: 1.5; stroke-linecap: round"/>
   </g>
   <g id="line2d_60">
    <path d="M 264.769357 619.593408 
L 264.769357 634.509792 
" clip-path="url(#p0fdb07c2ba)" style="fill: none; stroke: #1c1c1c; stroke-width: 1.5; stroke-linecap: round"/>
   </g>
   <g id="line2d_61">
    <path d="M 1200.481984 619.593408 
L 1200.481984 634.509792 
" clip-path="url(#p0fdb07c2ba)" style="fill: none; stroke: #1c1c1c; stroke-width: 1.5; stroke-linecap: round"/>
   </g>
   <g id="line2d_62">
    <path d="M 614.440685 657.4932 
L 261.523988 657.4932 
" clip-path="url(#p0fdb07c2ba)" style="fill: none; stroke: #1c1c1c; stroke-width: 1.5; stroke-linecap: round"/>
   </g>
   <g id="line2d_63">
    <path d="M 849.747422 657.4932 
L 1202.542695 657.4932 
" clip-path="url(#p0fdb07c2ba)" style="fill: none; stroke: #1c1c1c; stroke-width: 1.5; stroke-linecap: round"/>
   </g>
   <g id="line2d_64">
    <path d="M 261.523988 650.035008 
L 261.523988 664.951392 
" clip-path="url(#p0fdb07c2ba)" style="fill: none; stroke: #1c1c1c; stroke-width: 1.5; stroke-linecap: round"/>
   </g>
   <g id="line2d_65">
    <path d="M 1202.542695 650.035008 
L 1202.542695 664.951392 
" clip-path="url(#p0fdb07c2ba)" style="fill: none; stroke: #1c1c1c; stroke-width: 1.5; stroke-linecap: round"/>
   </g>
   <g id="line2d_66">
    <path d="M 733.992262 725.9868 
L 733.992262 725.9868 
" clip-path="url(#p0fdb07c2ba)" style="fill: none; stroke: #1c1c1c; stroke-width: 1.5; stroke-linecap: round"/>
   </g>
   <g id="line2d_67">
    <path d="M 733.992262 725.9868 
L 733.992262 725.9868 
" clip-path="url(#p0fdb07c2ba)" style="fill: none; stroke: #1c1c1c; stroke-width: 1.5; stroke-linecap: round"/>
   </g>
   <g id="line2d_68">
    <path d="M 733.992262 718.528608 
L 733.992262 733.444992 
" clip-path="url(#p0fdb07c2ba)" style="fill: none; stroke: #1c1c1c; stroke-width: 1.5; stroke-linecap: round"/>
   </g>
   <g id="line2d_69">
    <path d="M 733.992262 718.528608 
L 733.992262 733.444992 
" clip-path="url(#p0fdb07c2ba)" style="fill: none; stroke: #1c1c1c; stroke-width: 1.5; stroke-linecap: round"/>
   </g>
   <g id="line2d_70">
    <path d="M 611.322813 756.4284 
L 233.333998 756.4284 
" clip-path="url(#p0fdb07c2ba)" style="fill: none; stroke: #1c1c1c; stroke-width: 1.5; stroke-linecap: round"/>
   </g>
   <g id="line2d_71">
    <path d="M 863.324896 756.4284 
L 1241.306329 756.4284 
" clip-path="url(#p0fdb07c2ba)" style="fill: none; stroke: #1c1c1c; stroke-width: 1.5; stroke-linecap: round"/>
   </g>
   <g id="line2d_72">
    <path d="M 233.333998 748.970208 
L 233.333998 763.886592 
" clip-path="url(#p0fdb07c2ba)" style="fill: none; stroke: #1c1c1c; stroke-width: 1.5; stroke-linecap: round"/>
   </g>
   <g id="line2d_73">
    <path d="M 1241.306329 748.970208 
L 1241.306329 763.886592 
" clip-path="url(#p0fdb07c2ba)" style="fill: none; stroke: #1c1c1c; stroke-width: 1.5; stroke-linecap: round"/>
   </g>
   <g id="line2d_74">
    <path d="M 611.489795 786.87 
L 244.044032 786.87 
" clip-path="url(#p0fdb07c2ba)" style="fill: none; stroke: #1c1c1c; stroke-width: 1.5; stroke-linecap: round"/>
   </g>
   <g id="line2d_75">
    <path d="M 856.599323 786.87 
L 1224.121133 786.87 
" clip-path="url(#p0fdb07c2ba)" style="fill: none; stroke: #1c1c1c; stroke-width: 1.5; stroke-linecap: round"/>
   </g>
   <g id="line2d_76">
    <path d="M 244.044032 779.411808 
L 244.044032 794.328192 
" clip-path="url(#p0fdb07c2ba)" style="fill: none; stroke: #1c1c1c; stroke-width: 1.5; stroke-linecap: round"/>
   </g>
   <g id="line2d_77">
    <path d="M 1224.121133 779.411808 
L 1224.121133 794.328192 
" clip-path="url(#p0fdb07c2ba)" style="fill: none; stroke: #1c1c1c; stroke-width: 1.5; stroke-linecap: round"/>
   </g>
   <g id="line2d_78">
    <path d="M 607.33152 817.3116 
L 230.727273 817.3116 
" clip-path="url(#p0fdb07c2ba)" style="fill: none; stroke: #1c1c1c; stroke-width: 1.5; stroke-linecap: round"/>
   </g>
   <g id="line2d_79">
    <path d="M 858.418406 817.3116 
L 1235.005468 817.3116 
" clip-path="url(#p0fdb07c2ba)" style="fill: none; stroke: #1c1c1c; stroke-width: 1.5; stroke-linecap: round"/>
   </g>
   <g id="line2d_80">
    <path d="M 230.727273 809.853408 
L 230.727273 824.769792 
" clip-path="url(#p0fdb07c2ba)" style="fill: none; stroke: #1c1c1c; stroke-width: 1.5; stroke-linecap: round"/>
   </g>
   <g id="line2d_81">
    <path d="M 1235.005468 809.853408 
L 1235.005468 824.769792 
" clip-path="url(#p0fdb07c2ba)" style="fill: none; stroke: #1c1c1c; stroke-width: 1.5; stroke-linecap: round"/>
   </g>
   <g id="line2d_82">
    <path d="M 612.038578 847.7532 
L 232.004447 847.7532 
" clip-path="url(#p0fdb07c2ba)" style="fill: none; stroke: #1c1c1c; stroke-width: 1.5; stroke-linecap: round"/>
   </g>
   <g id="line2d_83">
    <path d="M 865.412528 847.7532 
L 1245.272727 847.7532 
" clip-path="url(#p0fdb07c2ba)" style="fill: none; stroke: #1c1c1c; stroke-width: 1.5; stroke-linecap: round"/>
   </g>
   <g id="line2d_84">
    <path d="M 232.004447 840.295008 
L 232.004447 855.211392 
" clip-path="url(#p0fdb07c2ba)" style="fill: none; stroke: #1c1c1c; stroke-width: 1.5; stroke-linecap: round"/>
   </g>
   <g id="line2d_85">
    <path d="M 1245.272727 840.295008 
L 1245.272727 855.211392 
" clip-path="url(#p0fdb07c2ba)" style="fill: none; stroke: #1c1c1c; stroke-width: 1.5; stroke-linecap: round"/>
   </g>
   <g id="line2d_86">
    <path d="M 733.992262 140.290416 
L 733.992262 170.123184 
" clip-path="url(#p0fdb07c2ba)" style="fill: none; stroke: #1c1c1c; stroke-width: 1.5; stroke-linecap: round"/>
   </g>
   <g id="line2d_87">
    <path d="M 733.987587 170.732016 
L 733.987587 200.564784 
" clip-path="url(#p0fdb07c2ba)" style="fill: none; stroke: #1c1c1c; stroke-width: 1.5; stroke-linecap: round"/>
   </g>
   <g id="line2d_88">
    <path d="M 733.992262 201.173616 
L 733.992262 231.006384 
" clip-path="url(#p0fdb07c2ba)" style="fill: none; stroke: #1c1c1c; stroke-width: 1.5; stroke-linecap: round"/>
   </g>
   <g id="line2d_89">
    <path d="M 733.949762 231.615216 
L 733.949762 261.447984 
" clip-path="url(#p0fdb07c2ba)" style="fill: none; stroke: #1c1c1c; stroke-width: 1.5; stroke-linecap: round"/>
   </g>
   <g id="line2d_90">
    <path d="M 733.56081 262.056816 
L 733.56081 291.889584 
" clip-path="url(#p0fdb07c2ba)" style="fill: none; stroke: #1c1c1c; stroke-width: 1.5; stroke-linecap: round"/>
   </g>
   <g id="line2d_91">
    <path d="M 733.992262 330.550416 
L 733.992262 360.383184 
" clip-path="url(#p0fdb07c2ba)" style="fill: none; stroke: #1c1c1c; stroke-width: 1.5; stroke-linecap: round"/>
   </g>
   <g id="line2d_92">
    <path d="M 733.992262 360.992016 
L 733.992262 390.824784 
" clip-path="url(#p0fdb07c2ba)" style="fill: none; stroke: #1c1c1c; stroke-width: 1.5; stroke-linecap: round"/>
   </g>
   <g id="line2d_93">
    <path d="M 733.992262 391.433616 
L 733.992262 421.266384 
" clip-path="url(#p0fdb07c2ba)" style="fill: none; stroke: #1c1c1c; stroke-width: 1.5; stroke-linecap: round"/>
   </g>
   <g id="line2d_94">
    <path d="M 733.992262 421.875216 
L 733.992262 451.707984 
" clip-path="url(#p0fdb07c2ba)" style="fill: none; stroke: #1c1c1c; stroke-width: 1.5; stroke-linecap: round"/>
   </g>
   <g id="line2d_95">
    <path d="M 733.992262 452.316816 
L 733.992262 482.149584 
" clip-path="url(#p0fdb07c2ba)" style="fill: none; stroke: #1c1c1c; stroke-width: 1.5; stroke-linecap: round"/>
   </g>
   <g id="line2d_96">
    <path d="M 733.992262 520.810416 
L 733.992262 550.643184 
" clip-path="url(#p0fdb07c2ba)" style="fill: none; stroke: #1c1c1c; stroke-width: 1.5; stroke-linecap: round"/>
   </g>
   <g id="line2d_97">
    <path d="M 733.992262 551.252016 
L 733.992262 581.084784 
" clip-path="url(#p0fdb07c2ba)" style="fill: none; stroke: #1c1c1c; stroke-width: 1.5; stroke-linecap: round"/>
   </g>
   <g id="line2d_98">
    <path d="M 733.992262 581.693616 
L 733.992262 611.526384 
" clip-path="url(#p0fdb07c2ba)" style="fill: none; stroke: #1c1c1c; stroke-width: 1.5; stroke-linecap: round"/>
   </g>
   <g id="line2d_99">
    <path d="M 733.992262 612.135216 
L 733.992262 641.967984 
" clip-path="url(#p0fdb07c2ba)" style="fill: none; stroke: #1c1c1c; stroke-width: 1.5; stroke-linecap: round"/>
   </g>
   <g id="line2d_100">
    <path d="M 733.992262 642.576816 
L 733.992262 672.409584 
" clip-path="url(#p0fdb07c2ba)" style="fill: none; stroke: #1c1c1c; stroke-width: 1.5; stroke-linecap: round"/>
   </g>
   <g id="line2d_101">
    <path d="M 733.992262 711.070416 
L 733.992262 740.903184 
" clip-path="url(#p0fdb07c2ba)" style="fill: none; stroke: #1c1c1c; stroke-width: 1.5; stroke-linecap: round"/>
   </g>
   <g id="line2d_102">
    <path d="M 734.218034 741.512016 
L 734.218034 771.344784 
" clip-path="url(#p0fdb07c2ba)" style="fill: none; stroke: #1c1c1c; stroke-width: 1.5; stroke-linecap: round"/>
   </g>
   <g id="line2d_103">
    <path d="M 733.594179 771.953616 
L 733.594179 801.786384 
" clip-path="url(#p0fdb07c2ba)" style="fill: none; stroke: #1c1c1c; stroke-width: 1.5; stroke-linecap: round"/>
   </g>
   <g id="line2d_104">
    <path d="M 733.992262 802.395216 
L 733.992262 832.227984 
" clip-path="url(#p0fdb07c2ba)" style="fill: none; stroke: #1c1c1c; stroke-width: 1.5; stroke-linecap: round"/>
   </g>
   <g id="line2d_105">
    <path d="M 733.992262 832.836816 
L 733.992262 862.669584 
" clip-path="url(#p0fdb07c2ba)" style="fill: none; stroke: #1c1c1c; stroke-width: 1.5; stroke-linecap: round"/>
   </g>
   <g id="patch_28">
    <path d="M 180 882 
L 180 120.96 
" style="fill: none; stroke: #cccccc; stroke-width: 1.25; stroke-linejoin: miter; stroke-linecap: square"/>
   </g>
   <g id="patch_29">
    <path d="M 1296 882 
L 1296 120.96 
" style="fill: none; stroke: #cccccc; stroke-width: 1.25; stroke-linejoin: miter; stroke-linecap: square"/>
   </g>
   <g id="patch_30">
    <path d="M 180 882 
L 1296 882 
" style="fill: none; stroke: #cccccc; stroke-width: 1.25; stroke-linejoin: miter; stroke-linecap: square"/>
   </g>
   <g id="patch_31">
    <path d="M 180 120.96 
L 1296 120.96 
" style="fill: none; stroke: #cccccc; stroke-width: 1.25; stroke-linejoin: miter; stroke-linecap: square"/>
   </g>
   <g id="legend_1">
    <g id="patch_32">
     <path d="M 1025.592187 612.069844 
L 1275 612.069844 
Q 1281 612.069844 1281 606.069844 
L 1281 396.890156 
Q 1281 390.890156 1275 390.890156 
L 1025.592187 390.890156 
Q 1019.592187 390.890156 1019.592187 396.890156 
L 1019.592187 606.069844 
Q 1019.592187 612.069844 1025.592187 612.069844 
z
" style="fill: #ffffff; opacity: 0.8; stroke: #cccccc; stroke-linejoin: miter"/>
    </g>
    <g id="patch_33">
     <path d="M 1031.592187 424.363594 
L 1091.592187 424.363594 
L 1091.592187 403.363594 
L 1031.592187 403.363594 
z
" style="fill: #3b203e; stroke: #1c1c1c; stroke-width: 0.75; stroke-linejoin: miter"/>
    </g>
    <g id="text_12">
     <!-- 800% Price -->
     <g style="fill: #262626" transform="translate(1115.592187 424.363594)scale(0.3 -0.3)">
      <defs>
       <path id="ArialMT-38" d="M 1131 2484 
Q 781 2613 612 2850 
Q 444 3088 444 3419 
Q 444 3919 803 4259 
Q 1163 4600 1759 4600 
Q 2359 4600 2725 4251 
Q 3091 3903 3091 3403 
Q 3091 3084 2923 2848 
Q 2756 2613 2416 2484 
Q 2838 2347 3058 2040 
Q 3278 1734 3278 1309 
Q 3278 722 2862 322 
Q 2447 -78 1769 -78 
Q 1091 -78 675 323 
Q 259 725 259 1325 
Q 259 1772 486 2073 
Q 713 2375 1131 2484 
z
M 1019 3438 
Q 1019 3113 1228 2906 
Q 1438 2700 1772 2700 
Q 2097 2700 2305 2904 
Q 2513 3109 2513 3406 
Q 2513 3716 2298 3927 
Q 2084 4138 1766 4138 
Q 1444 4138 1231 3931 
Q 1019 3725 1019 3438 
z
M 838 1322 
Q 838 1081 952 856 
Q 1066 631 1291 507 
Q 1516 384 1775 384 
Q 2178 384 2440 643 
Q 2703 903 2703 1303 
Q 2703 1709 2433 1975 
Q 2163 2241 1756 2241 
Q 1359 2241 1098 1978 
Q 838 1716 838 1322 
z
" transform="scale(0.015625)"/>
       <path id="ArialMT-25" d="M 372 3481 
Q 372 3972 619 4315 
Q 866 4659 1334 4659 
Q 1766 4659 2048 4351 
Q 2331 4044 2331 3447 
Q 2331 2866 2045 2552 
Q 1759 2238 1341 2238 
Q 925 2238 648 2547 
Q 372 2856 372 3481 
z
M 1350 4272 
Q 1141 4272 1002 4090 
Q 863 3909 863 3425 
Q 863 2984 1003 2804 
Q 1144 2625 1350 2625 
Q 1563 2625 1702 2806 
Q 1841 2988 1841 3469 
Q 1841 3913 1700 4092 
Q 1559 4272 1350 4272 
z
M 1353 -169 
L 3859 4659 
L 4316 4659 
L 1819 -169 
L 1353 -169 
z
M 3334 1075 
Q 3334 1569 3581 1911 
Q 3828 2253 4300 2253 
Q 4731 2253 5014 1945 
Q 5297 1638 5297 1041 
Q 5297 459 5011 145 
Q 4725 -169 4303 -169 
Q 3888 -169 3611 142 
Q 3334 453 3334 1075 
z
M 4316 1866 
Q 4103 1866 3964 1684 
Q 3825 1503 3825 1019 
Q 3825 581 3965 400 
Q 4106 219 4313 219 
Q 4528 219 4667 400 
Q 4806 581 4806 1063 
Q 4806 1506 4665 1686 
Q 4525 1866 4316 1866 
z
" transform="scale(0.015625)"/>
       <path id="ArialMT-63" d="M 2588 1216 
L 3141 1144 
Q 3050 572 2676 248 
Q 2303 -75 1759 -75 
Q 1078 -75 664 370 
Q 250 816 250 1647 
Q 250 2184 428 2587 
Q 606 2991 970 3192 
Q 1334 3394 1763 3394 
Q 2303 3394 2647 3120 
Q 2991 2847 3088 2344 
L 2541 2259 
Q 2463 2594 2264 2762 
Q 2066 2931 1784 2931 
Q 1359 2931 1093 2626 
Q 828 2322 828 1663 
Q 828 994 1084 691 
Q 1341 388 1753 388 
Q 2084 388 2306 591 
Q 2528 794 2588 1216 
z
" transform="scale(0.015625)"/>
      </defs>
      <use xlink:href="#ArialMT-38"/>
      <use xlink:href="#ArialMT-30" x="55.615234"/>
      <use xlink:href="#ArialMT-30" x="111.230469"/>
      <use xlink:href="#ArialMT-25" x="166.845703"/>
      <use xlink:href="#ArialMT-20" x="255.761719"/>
      <use xlink:href="#ArialMT-50" x="283.544922"/>
      <use xlink:href="#ArialMT-72" x="350.244141"/>
      <use xlink:href="#ArialMT-69" x="383.544922"/>
      <use xlink:href="#ArialMT-63" x="405.761719"/>
      <use xlink:href="#ArialMT-65" x="455.761719"/>
     </g>
    </g>
    <g id="patch_34">
     <path d="M 1031.592187 466.799531 
L 1091.592187 466.799531 
L 1091.592187 445.799531 
L 1031.592187 445.799531 
z
" style="fill: #772b58; stroke: #1c1c1c; stroke-width: 0.75; stroke-linejoin: miter"/>
    </g>
    <g id="text_13">
     <!-- 500% Price -->
     <g style="fill: #262626" transform="translate(1115.592187 466.799531)scale(0.3 -0.3)">
      <use xlink:href="#ArialMT-35"/>
      <use xlink:href="#ArialMT-30" x="55.615234"/>
      <use xlink:href="#ArialMT-30" x="111.230469"/>
      <use xlink:href="#ArialMT-25" x="166.845703"/>
      <use xlink:href="#ArialMT-20" x="255.761719"/>
      <use xlink:href="#ArialMT-50" x="283.544922"/>
      <use xlink:href="#ArialMT-72" x="350.244141"/>
      <use xlink:href="#ArialMT-69" x="383.544922"/>
      <use xlink:href="#ArialMT-63" x="405.761719"/>
      <use xlink:href="#ArialMT-65" x="455.761719"/>
     </g>
    </g>
    <g id="patch_35">
     <path d="M 1031.592187 509.235469 
L 1091.592187 509.235469 
L 1091.592187 488.235469 
L 1031.592187 488.235469 
z
" style="fill: #b53158; stroke: #1c1c1c; stroke-width: 0.75; stroke-linejoin: miter"/>
    </g>
    <g id="text_14">
     <!-- 300% Price -->
     <g style="fill: #262626" transform="translate(1115.592187 509.235469)scale(0.3 -0.3)">
      <defs>
       <path id="ArialMT-33" d="M 269 1209 
L 831 1284 
Q 928 806 1161 595 
Q 1394 384 1728 384 
Q 2125 384 2398 659 
Q 2672 934 2672 1341 
Q 2672 1728 2419 1979 
Q 2166 2231 1775 2231 
Q 1616 2231 1378 2169 
L 1441 2663 
Q 1497 2656 1531 2656 
Q 1891 2656 2178 2843 
Q 2466 3031 2466 3422 
Q 2466 3731 2256 3934 
Q 2047 4138 1716 4138 
Q 1388 4138 1169 3931 
Q 950 3725 888 3313 
L 325 3413 
Q 428 3978 793 4289 
Q 1159 4600 1703 4600 
Q 2078 4600 2393 4439 
Q 2709 4278 2876 4000 
Q 3044 3722 3044 3409 
Q 3044 3113 2884 2869 
Q 2725 2625 2413 2481 
Q 2819 2388 3044 2092 
Q 3269 1797 3269 1353 
Q 3269 753 2831 336 
Q 2394 -81 1725 -81 
Q 1122 -81 723 278 
Q 325 638 269 1209 
z
" transform="scale(0.015625)"/>
      </defs>
      <use xlink:href="#ArialMT-33"/>
      <use xlink:href="#ArialMT-30" x="55.615234"/>
      <use xlink:href="#ArialMT-30" x="111.230469"/>
      <use xlink:href="#ArialMT-25" x="166.845703"/>
      <use xlink:href="#ArialMT-20" x="255.761719"/>
      <use xlink:href="#ArialMT-50" x="283.544922"/>
      <use xlink:href="#ArialMT-72" x="350.244141"/>
      <use xlink:href="#ArialMT-69" x="383.544922"/>
      <use xlink:href="#ArialMT-63" x="405.761719"/>
      <use xlink:href="#ArialMT-65" x="455.761719"/>
     </g>
    </g>
    <g id="patch_36">
     <path d="M 1031.592187 551.671406 
L 1091.592187 551.671406 
L 1091.592187 530.671406 
L 1031.592187 530.671406 
z
" style="fill: #db6e59; stroke: #1c1c1c; stroke-width: 0.75; stroke-linejoin: miter"/>
    </g>
    <g id="text_15">
     <!-- 175% Price -->
     <g style="fill: #262626" transform="translate(1115.592187 551.671406)scale(0.3 -0.3)">
      <defs>
       <path id="ArialMT-37" d="M 303 3981 
L 303 4522 
L 3269 4522 
L 3269 4084 
Q 2831 3619 2401 2847 
Q 1972 2075 1738 1259 
Q 1569 684 1522 0 
L 944 0 
Q 953 541 1156 1306 
Q 1359 2072 1739 2783 
Q 2119 3494 2547 3981 
L 303 3981 
z
" transform="scale(0.015625)"/>
      </defs>
      <use xlink:href="#ArialMT-31"/>
      <use xlink:href="#ArialMT-37" x="55.615234"/>
      <use xlink:href="#ArialMT-35" x="111.230469"/>
      <use xlink:href="#ArialMT-25" x="166.845703"/>
      <use xlink:href="#ArialMT-20" x="255.761719"/>
      <use xlink:href="#ArialMT-50" x="283.544922"/>
      <use xlink:href="#ArialMT-72" x="350.244141"/>
      <use xlink:href="#ArialMT-69" x="383.544922"/>
      <use xlink:href="#ArialMT-63" x="405.761719"/>
      <use xlink:href="#ArialMT-65" x="455.761719"/>
     </g>
    </g>
    <g id="patch_37">
     <path d="M 1031.592187 594.107344 
L 1091.592187 594.107344 
L 1091.592187 573.107344 
L 1031.592187 573.107344 
z
" style="fill: #e8af92; stroke: #1c1c1c; stroke-width: 0.75; stroke-linejoin: miter"/>
    </g>
    <g id="text_16">
     <!-- Baseline -->
     <g style="fill: #262626" transform="translate(1115.592187 594.107344)scale(0.3 -0.3)">
      <use xlink:href="#ArialMT-42"/>
      <use xlink:href="#ArialMT-61" x="66.699219"/>
      <use xlink:href="#ArialMT-73" x="122.314453"/>
      <use xlink:href="#ArialMT-65" x="172.314453"/>
      <use xlink:href="#ArialMT-6c" x="227.929688"/>
      <use xlink:href="#ArialMT-69" x="250.146484"/>
      <use xlink:href="#ArialMT-6e" x="272.363281"/>
      <use xlink:href="#ArialMT-65" x="327.978516"/>
     </g>
    </g>
   </g>
  </g>
 </g>
 <defs>
  <clipPath id="p0fdb07c2ba">
   <rect x="180" y="120.96" width="1116" height="761.04"/>
  </clipPath>
 </defs>
</svg>
