<?xml version="1.0" encoding="utf-8" standalone="no"?>
<!DOCTYPE svg PUBLIC "-//W3C//DTD SVG 1.1//EN"
  "http://www.w3.org/Graphics/SVG/1.1/DTD/svg11.dtd">
<svg xmlns:xlink="http://www.w3.org/1999/xlink" width="1226.682813pt" height="843.809687pt" viewBox="0 0 1226.682813 843.809687" xmlns="http://www.w3.org/2000/svg" version="1.1">
 <metadata>
  <rdf:RDF xmlns:dc="http://purl.org/dc/elements/1.1/" xmlns:cc="http://creativecommons.org/ns#" xmlns:rdf="http://www.w3.org/1999/02/22-rdf-syntax-ns#">
   <cc:Work>
    <dc:type rdf:resource="http://purl.org/dc/dcmitype/StillImage"/>
    <dc:date>2023-05-11T04:41:17.167978</dc:date>
    <dc:format>image/svg+xml</dc:format>
    <dc:creator>
     <cc:Agent>
      <dc:title>Matplotlib v3.5.1, https://matplotlib.org/</dc:title>
     </cc:Agent>
    </dc:creator>
   </cc:Work>
  </rdf:RDF>
 </metadata>
 <defs>
  <style type="text/css">*{stroke-linejoin: round; stroke-linecap: butt}</style>
 </defs>
 <g id="figure_1">
  <g id="patch_1">
   <path d="M 0 843.809687 
L 1226.682813 843.809687 
L 1226.682813 0 
L 0 0 
z
" style="fill: #ffffff"/>
  </g>
  <g id="axes_1">
   <g id="patch_2">
    <path d="M 103.482813 768.24 
L 1219.482812 768.24 
L 1219.482812 7.2 
L 103.482813 7.2 
z
" style="fill: #ffffff"/>
   </g>
   <g id="matplotlib.axis_1">
    <g id="xtick_1">
     <g id="line2d_1">
      <path d="M 180.73879 768.24 
L 180.73879 7.2 
" clip-path="url(#pfa2c53cec7)" style="fill: none; stroke: #cccccc; stroke-width: 1.5; stroke-linecap: round"/>
     </g>
     <g id="text_1">
      <!-- −60 -->
      <g style="fill: #262626" transform="translate(162.08004 796.487187)scale(0.22 -0.22)">
       <defs>
        <path id="ArialMT-2212" d="M 3381 1997 
L 356 1997 
L 356 2522 
L 3381 2522 
L 3381 1997 
z
" transform="scale(0.015625)"/>
        <path id="ArialMT-36" d="M 3184 3459 
L 2625 3416 
Q 2550 3747 2413 3897 
Q 2184 4138 1850 4138 
Q 1581 4138 1378 3988 
Q 1113 3794 959 3422 
Q 806 3050 800 2363 
Q 1003 2672 1297 2822 
Q 1591 2972 1913 2972 
Q 2475 2972 2870 2558 
Q 3266 2144 3266 1488 
Q 3266 1056 3080 686 
Q 2894 316 2569 119 
Q 2244 -78 1831 -78 
Q 1128 -78 684 439 
Q 241 956 241 2144 
Q 241 3472 731 4075 
Q 1159 4600 1884 4600 
Q 2425 4600 2770 4297 
Q 3116 3994 3184 3459 
z
M 888 1484 
Q 888 1194 1011 928 
Q 1134 663 1356 523 
Q 1578 384 1822 384 
Q 2178 384 2434 671 
Q 2691 959 2691 1453 
Q 2691 1928 2437 2201 
Q 2184 2475 1800 2475 
Q 1419 2475 1153 2201 
Q 888 1928 888 1484 
z
" transform="scale(0.015625)"/>
        <path id="ArialMT-30" d="M 266 2259 
Q 266 3072 433 3567 
Q 600 4063 929 4331 
Q 1259 4600 1759 4600 
Q 2128 4600 2406 4451 
Q 2684 4303 2865 4023 
Q 3047 3744 3150 3342 
Q 3253 2941 3253 2259 
Q 3253 1453 3087 958 
Q 2922 463 2592 192 
Q 2263 -78 1759 -78 
Q 1097 -78 719 397 
Q 266 969 266 2259 
z
M 844 2259 
Q 844 1131 1108 757 
Q 1372 384 1759 384 
Q 2147 384 2411 759 
Q 2675 1134 2675 2259 
Q 2675 3391 2411 3762 
Q 2147 4134 1753 4134 
Q 1366 4134 1134 3806 
Q 844 3388 844 2259 
z
" transform="scale(0.015625)"/>
       </defs>
       <use xlink:href="#ArialMT-2212"/>
       <use xlink:href="#ArialMT-36" x="58.398438"/>
       <use xlink:href="#ArialMT-30" x="114.013672"/>
      </g>
     </g>
    </g>
    <g id="xtick_2">
     <g id="line2d_2">
      <path d="M 345.378743 768.24 
L 345.378743 7.2 
" clip-path="url(#pfa2c53cec7)" style="fill: none; stroke: #cccccc; stroke-width: 1.5; stroke-linecap: round"/>
     </g>
     <g id="text_2">
      <!-- −40 -->
      <g style="fill: #262626" transform="translate(326.719993 796.487187)scale(0.22 -0.22)">
       <defs>
        <path id="ArialMT-34" d="M 2069 0 
L 2069 1097 
L 81 1097 
L 81 1613 
L 2172 4581 
L 2631 4581 
L 2631 1613 
L 3250 1613 
L 3250 1097 
L 2631 1097 
L 2631 0 
L 2069 0 
z
M 2069 1613 
L 2069 3678 
L 634 1613 
L 2069 1613 
z
" transform="scale(0.015625)"/>
       </defs>
       <use xlink:href="#ArialMT-2212"/>
       <use xlink:href="#ArialMT-34" x="58.398438"/>
       <use xlink:href="#ArialMT-30" x="114.013672"/>
      </g>
     </g>
    </g>
    <g id="xtick_3">
     <g id="line2d_3">
      <path d="M 510.018697 768.24 
L 510.018697 7.2 
" clip-path="url(#pfa2c53cec7)" style="fill: none; stroke: #cccccc; stroke-width: 1.5; stroke-linecap: round"/>
     </g>
     <g id="text_3">
      <!-- −20 -->
      <g style="fill: #262626" transform="translate(491.359947 796.487187)scale(0.22 -0.22)">
       <defs>
        <path id="ArialMT-32" d="M 3222 541 
L 3222 0 
L 194 0 
Q 188 203 259 391 
Q 375 700 629 1000 
Q 884 1300 1366 1694 
Q 2113 2306 2375 2664 
Q 2638 3022 2638 3341 
Q 2638 3675 2398 3904 
Q 2159 4134 1775 4134 
Q 1369 4134 1125 3890 
Q 881 3647 878 3216 
L 300 3275 
Q 359 3922 746 4261 
Q 1134 4600 1788 4600 
Q 2447 4600 2831 4234 
Q 3216 3869 3216 3328 
Q 3216 3053 3103 2787 
Q 2991 2522 2730 2228 
Q 2469 1934 1863 1422 
Q 1356 997 1212 845 
Q 1069 694 975 541 
L 3222 541 
z
" transform="scale(0.015625)"/>
       </defs>
       <use xlink:href="#ArialMT-2212"/>
       <use xlink:href="#ArialMT-32" x="58.398438"/>
       <use xlink:href="#ArialMT-30" x="114.013672"/>
      </g>
     </g>
    </g>
    <g id="xtick_4">
     <g id="line2d_4">
      <path d="M 674.658651 768.24 
L 674.658651 7.2 
" clip-path="url(#pfa2c53cec7)" style="fill: none; stroke: #cccccc; stroke-width: 1.5; stroke-linecap: round"/>
     </g>
     <g id="text_4">
      <!-- 0 -->
      <g style="fill: #262626" transform="translate(668.54162 796.487187)scale(0.22 -0.22)">
       <use xlink:href="#ArialMT-30"/>
      </g>
     </g>
    </g>
    <g id="xtick_5">
     <g id="line2d_5">
      <path d="M 839.298605 768.24 
L 839.298605 7.2 
" clip-path="url(#pfa2c53cec7)" style="fill: none; stroke: #cccccc; stroke-width: 1.5; stroke-linecap: round"/>
     </g>
     <g id="text_5">
      <!-- 20 -->
      <g style="fill: #262626" transform="translate(827.064543 796.487187)scale(0.22 -0.22)">
       <use xlink:href="#ArialMT-32"/>
       <use xlink:href="#ArialMT-30" x="55.615234"/>
      </g>
     </g>
    </g>
    <g id="xtick_6">
     <g id="line2d_6">
      <path d="M 1003.938559 768.24 
L 1003.938559 7.2 
" clip-path="url(#pfa2c53cec7)" style="fill: none; stroke: #cccccc; stroke-width: 1.5; stroke-linecap: round"/>
     </g>
     <g id="text_6">
      <!-- 40 -->
      <g style="fill: #262626" transform="translate(991.704496 796.487187)scale(0.22 -0.22)">
       <use xlink:href="#ArialMT-34"/>
       <use xlink:href="#ArialMT-30" x="55.615234"/>
      </g>
     </g>
    </g>
    <g id="xtick_7">
     <g id="line2d_7">
      <path d="M 1168.578513 768.24 
L 1168.578513 7.2 
" clip-path="url(#pfa2c53cec7)" style="fill: none; stroke: #cccccc; stroke-width: 1.5; stroke-linecap: round"/>
     </g>
     <g id="text_7">
      <!-- 60 -->
      <g style="fill: #262626" transform="translate(1156.34445 796.487187)scale(0.22 -0.22)">
       <use xlink:href="#ArialMT-36"/>
       <use xlink:href="#ArialMT-30" x="55.615234"/>
      </g>
     </g>
    </g>
    <g id="text_8">
     <!-- Potential INEXUS ($) -->
     <g style="fill: #262626" transform="translate(511.205312 829.874687)scale(0.32 -0.32)">
      <defs>
       <path id="ArialMT-50" d="M 494 0 
L 494 4581 
L 2222 4581 
Q 2678 4581 2919 4538 
Q 3256 4481 3484 4323 
Q 3713 4166 3852 3881 
Q 3991 3597 3991 3256 
Q 3991 2672 3619 2267 
Q 3247 1863 2275 1863 
L 1100 1863 
L 1100 0 
L 494 0 
z
M 1100 2403 
L 2284 2403 
Q 2872 2403 3119 2622 
Q 3366 2841 3366 3238 
Q 3366 3525 3220 3729 
Q 3075 3934 2838 4000 
Q 2684 4041 2272 4041 
L 1100 4041 
L 1100 2403 
z
" transform="scale(0.015625)"/>
       <path id="ArialMT-6f" d="M 213 1659 
Q 213 2581 725 3025 
Q 1153 3394 1769 3394 
Q 2453 3394 2887 2945 
Q 3322 2497 3322 1706 
Q 3322 1066 3130 698 
Q 2938 331 2570 128 
Q 2203 -75 1769 -75 
Q 1072 -75 642 372 
Q 213 819 213 1659 
z
M 791 1659 
Q 791 1022 1069 705 
Q 1347 388 1769 388 
Q 2188 388 2466 706 
Q 2744 1025 2744 1678 
Q 2744 2294 2464 2611 
Q 2184 2928 1769 2928 
Q 1347 2928 1069 2612 
Q 791 2297 791 1659 
z
" transform="scale(0.015625)"/>
       <path id="ArialMT-74" d="M 1650 503 
L 1731 6 
Q 1494 -44 1306 -44 
Q 1000 -44 831 53 
Q 663 150 594 308 
Q 525 466 525 972 
L 525 2881 
L 113 2881 
L 113 3319 
L 525 3319 
L 525 4141 
L 1084 4478 
L 1084 3319 
L 1650 3319 
L 1650 2881 
L 1084 2881 
L 1084 941 
Q 1084 700 1114 631 
Q 1144 563 1211 522 
Q 1278 481 1403 481 
Q 1497 481 1650 503 
z
" transform="scale(0.015625)"/>
       <path id="ArialMT-65" d="M 2694 1069 
L 3275 997 
Q 3138 488 2766 206 
Q 2394 -75 1816 -75 
Q 1088 -75 661 373 
Q 234 822 234 1631 
Q 234 2469 665 2931 
Q 1097 3394 1784 3394 
Q 2450 3394 2872 2941 
Q 3294 2488 3294 1666 
Q 3294 1616 3291 1516 
L 816 1516 
Q 847 969 1125 678 
Q 1403 388 1819 388 
Q 2128 388 2347 550 
Q 2566 713 2694 1069 
z
M 847 1978 
L 2700 1978 
Q 2663 2397 2488 2606 
Q 2219 2931 1791 2931 
Q 1403 2931 1139 2672 
Q 875 2413 847 1978 
z
" transform="scale(0.015625)"/>
       <path id="ArialMT-6e" d="M 422 0 
L 422 3319 
L 928 3319 
L 928 2847 
Q 1294 3394 1984 3394 
Q 2284 3394 2536 3286 
Q 2788 3178 2913 3003 
Q 3038 2828 3088 2588 
Q 3119 2431 3119 2041 
L 3119 0 
L 2556 0 
L 2556 2019 
Q 2556 2363 2490 2533 
Q 2425 2703 2258 2804 
Q 2091 2906 1866 2906 
Q 1506 2906 1245 2678 
Q 984 2450 984 1813 
L 984 0 
L 422 0 
z
" transform="scale(0.015625)"/>
       <path id="ArialMT-69" d="M 425 3934 
L 425 4581 
L 988 4581 
L 988 3934 
L 425 3934 
z
M 425 0 
L 425 3319 
L 988 3319 
L 988 0 
L 425 0 
z
" transform="scale(0.015625)"/>
       <path id="ArialMT-61" d="M 2588 409 
Q 2275 144 1986 34 
Q 1697 -75 1366 -75 
Q 819 -75 525 192 
Q 231 459 231 875 
Q 231 1119 342 1320 
Q 453 1522 633 1644 
Q 813 1766 1038 1828 
Q 1203 1872 1538 1913 
Q 2219 1994 2541 2106 
Q 2544 2222 2544 2253 
Q 2544 2597 2384 2738 
Q 2169 2928 1744 2928 
Q 1347 2928 1158 2789 
Q 969 2650 878 2297 
L 328 2372 
Q 403 2725 575 2942 
Q 747 3159 1072 3276 
Q 1397 3394 1825 3394 
Q 2250 3394 2515 3294 
Q 2781 3194 2906 3042 
Q 3031 2891 3081 2659 
Q 3109 2516 3109 2141 
L 3109 1391 
Q 3109 606 3145 398 
Q 3181 191 3288 0 
L 2700 0 
Q 2613 175 2588 409 
z
M 2541 1666 
Q 2234 1541 1622 1453 
Q 1275 1403 1131 1340 
Q 988 1278 909 1158 
Q 831 1038 831 891 
Q 831 666 1001 516 
Q 1172 366 1500 366 
Q 1825 366 2078 508 
Q 2331 650 2450 897 
Q 2541 1088 2541 1459 
L 2541 1666 
z
" transform="scale(0.015625)"/>
       <path id="ArialMT-6c" d="M 409 0 
L 409 4581 
L 972 4581 
L 972 0 
L 409 0 
z
" transform="scale(0.015625)"/>
       <path id="ArialMT-20" transform="scale(0.015625)"/>
       <path id="ArialMT-49" d="M 597 0 
L 597 4581 
L 1203 4581 
L 1203 0 
L 597 0 
z
" transform="scale(0.015625)"/>
       <path id="ArialMT-4e" d="M 488 0 
L 488 4581 
L 1109 4581 
L 3516 984 
L 3516 4581 
L 4097 4581 
L 4097 0 
L 3475 0 
L 1069 3600 
L 1069 0 
L 488 0 
z
" transform="scale(0.015625)"/>
       <path id="ArialMT-45" d="M 506 0 
L 506 4581 
L 3819 4581 
L 3819 4041 
L 1113 4041 
L 1113 2638 
L 3647 2638 
L 3647 2100 
L 1113 2100 
L 1113 541 
L 3925 541 
L 3925 0 
L 506 0 
z
" transform="scale(0.015625)"/>
       <path id="ArialMT-58" d="M 28 0 
L 1800 2388 
L 238 4581 
L 959 4581 
L 1791 3406 
Q 2050 3041 2159 2844 
Q 2313 3094 2522 3366 
L 3444 4581 
L 4103 4581 
L 2494 2422 
L 4228 0 
L 3478 0 
L 2325 1634 
Q 2228 1775 2125 1941 
Q 1972 1691 1906 1597 
L 756 0 
L 28 0 
z
" transform="scale(0.015625)"/>
       <path id="ArialMT-55" d="M 3500 4581 
L 4106 4581 
L 4106 1934 
Q 4106 1244 3950 837 
Q 3794 431 3386 176 
Q 2978 -78 2316 -78 
Q 1672 -78 1262 144 
Q 853 366 678 786 
Q 503 1206 503 1934 
L 503 4581 
L 1109 4581 
L 1109 1938 
Q 1109 1341 1220 1058 
Q 1331 775 1601 622 
Q 1872 469 2263 469 
Q 2931 469 3215 772 
Q 3500 1075 3500 1938 
L 3500 4581 
z
" transform="scale(0.015625)"/>
       <path id="ArialMT-53" d="M 288 1472 
L 859 1522 
Q 900 1178 1048 958 
Q 1197 738 1509 602 
Q 1822 466 2213 466 
Q 2559 466 2825 569 
Q 3091 672 3220 851 
Q 3350 1031 3350 1244 
Q 3350 1459 3225 1620 
Q 3100 1781 2813 1891 
Q 2628 1963 1997 2114 
Q 1366 2266 1113 2400 
Q 784 2572 623 2826 
Q 463 3081 463 3397 
Q 463 3744 659 4045 
Q 856 4347 1234 4503 
Q 1613 4659 2075 4659 
Q 2584 4659 2973 4495 
Q 3363 4331 3572 4012 
Q 3781 3694 3797 3291 
L 3216 3247 
Q 3169 3681 2898 3903 
Q 2628 4125 2100 4125 
Q 1550 4125 1298 3923 
Q 1047 3722 1047 3438 
Q 1047 3191 1225 3031 
Q 1400 2872 2139 2705 
Q 2878 2538 3153 2413 
Q 3553 2228 3743 1945 
Q 3934 1663 3934 1294 
Q 3934 928 3725 604 
Q 3516 281 3123 101 
Q 2731 -78 2241 -78 
Q 1619 -78 1198 103 
Q 778 284 539 648 
Q 300 1013 288 1472 
z
" transform="scale(0.015625)"/>
       <path id="ArialMT-28" d="M 1497 -1347 
Q 1031 -759 709 28 
Q 388 816 388 1659 
Q 388 2403 628 3084 
Q 909 3875 1497 4659 
L 1900 4659 
Q 1522 4009 1400 3731 
Q 1209 3300 1100 2831 
Q 966 2247 966 1656 
Q 966 153 1900 -1347 
L 1497 -1347 
z
" transform="scale(0.015625)"/>
       <path id="ArialMT-24" d="M 1594 -659 
L 1594 -97 
Q 1172 -44 908 92 
Q 644 228 451 531 
Q 259 834 228 1272 
L 794 1378 
Q 859 925 1025 713 
Q 1263 413 1594 378 
L 1594 2169 
Q 1247 2234 884 2438 
Q 616 2588 470 2853 
Q 325 3119 325 3456 
Q 325 4056 750 4428 
Q 1034 4678 1594 4734 
L 1594 5003 
L 1925 5003 
L 1925 4734 
Q 2416 4688 2703 4447 
Q 3072 4141 3147 3606 
L 2566 3519 
Q 2516 3850 2358 4026 
Q 2200 4203 1925 4259 
L 1925 2638 
Q 2350 2531 2488 2472 
Q 2750 2356 2915 2190 
Q 3081 2025 3170 1797 
Q 3259 1569 3259 1303 
Q 3259 719 2887 328 
Q 2516 -63 1925 -91 
L 1925 -659 
L 1594 -659 
z
M 1594 4266 
Q 1266 4216 1077 4003 
Q 888 3791 888 3500 
Q 888 3213 1048 3019 
Q 1209 2825 1594 2709 
L 1594 4266 
z
M 1925 378 
Q 2253 419 2467 662 
Q 2681 906 2681 1266 
Q 2681 1572 2529 1758 
Q 2378 1944 1925 2091 
L 1925 378 
z
" transform="scale(0.015625)"/>
       <path id="ArialMT-29" d="M 791 -1347 
L 388 -1347 
Q 1322 153 1322 1656 
Q 1322 2244 1188 2822 
Q 1081 3291 891 3722 
Q 769 4003 388 4659 
L 791 4659 
Q 1378 3875 1659 3084 
Q 1900 2403 1900 1659 
Q 1900 816 1576 28 
Q 1253 -759 791 -1347 
z
" transform="scale(0.015625)"/>
      </defs>
      <use xlink:href="#ArialMT-50"/>
      <use xlink:href="#ArialMT-6f" x="66.699219"/>
      <use xlink:href="#ArialMT-74" x="122.314453"/>
      <use xlink:href="#ArialMT-65" x="150.097656"/>
      <use xlink:href="#ArialMT-6e" x="205.712891"/>
      <use xlink:href="#ArialMT-74" x="261.328125"/>
      <use xlink:href="#ArialMT-69" x="289.111328"/>
      <use xlink:href="#ArialMT-61" x="311.328125"/>
      <use xlink:href="#ArialMT-6c" x="366.943359"/>
      <use xlink:href="#ArialMT-20" x="389.160156"/>
      <use xlink:href="#ArialMT-49" x="416.943359"/>
      <use xlink:href="#ArialMT-4e" x="444.726562"/>
      <use xlink:href="#ArialMT-45" x="516.943359"/>
      <use xlink:href="#ArialMT-58" x="583.642578"/>
      <use xlink:href="#ArialMT-55" x="650.341797"/>
      <use xlink:href="#ArialMT-53" x="722.558594"/>
      <use xlink:href="#ArialMT-20" x="789.257812"/>
      <use xlink:href="#ArialMT-28" x="817.041016"/>
      <use xlink:href="#ArialMT-24" x="850.341797"/>
      <use xlink:href="#ArialMT-29" x="905.957031"/>
     </g>
    </g>
   </g>
   <g id="matplotlib.axis_2">
    <g id="ytick_1">
     <g id="line2d_8">
      <path d="M 103.482813 768.24 
L 1219.482812 768.24 
" clip-path="url(#pfa2c53cec7)" style="fill: none; stroke: #cccccc; stroke-width: 1.5; stroke-linecap: round"/>
     </g>
     <g id="text_9">
      <!-- 0.0% -->
      <g style="fill: #262626" transform="translate(40.84 776.113594)scale(0.22 -0.22)">
       <defs>
        <path id="ArialMT-2e" d="M 581 0 
L 581 641 
L 1222 641 
L 1222 0 
L 581 0 
z
" transform="scale(0.015625)"/>
        <path id="ArialMT-25" d="M 372 3481 
Q 372 3972 619 4315 
Q 866 4659 1334 4659 
Q 1766 4659 2048 4351 
Q 2331 4044 2331 3447 
Q 2331 2866 2045 2552 
Q 1759 2238 1341 2238 
Q 925 2238 648 2547 
Q 372 2856 372 3481 
z
M 1350 4272 
Q 1141 4272 1002 4090 
Q 863 3909 863 3425 
Q 863 2984 1003 2804 
Q 1144 2625 1350 2625 
Q 1563 2625 1702 2806 
Q 1841 2988 1841 3469 
Q 1841 3913 1700 4092 
Q 1559 4272 1350 4272 
z
M 1353 -169 
L 3859 4659 
L 4316 4659 
L 1819 -169 
L 1353 -169 
z
M 3334 1075 
Q 3334 1569 3581 1911 
Q 3828 2253 4300 2253 
Q 4731 2253 5014 1945 
Q 5297 1638 5297 1041 
Q 5297 459 5011 145 
Q 4725 -169 4303 -169 
Q 3888 -169 3611 142 
Q 3334 453 3334 1075 
z
M 4316 1866 
Q 4103 1866 3964 1684 
Q 3825 1503 3825 1019 
Q 3825 581 3965 400 
Q 4106 219 4313 219 
Q 4528 219 4667 400 
Q 4806 581 4806 1063 
Q 4806 1506 4665 1686 
Q 4525 1866 4316 1866 
z
" transform="scale(0.015625)"/>
       </defs>
       <use xlink:href="#ArialMT-30"/>
       <use xlink:href="#ArialMT-2e" x="55.615234"/>
       <use xlink:href="#ArialMT-30" x="83.398438"/>
       <use xlink:href="#ArialMT-25" x="139.013672"/>
      </g>
     </g>
    </g>
    <g id="ytick_2">
     <g id="line2d_9">
      <path d="M 103.482813 657.469362 
L 1219.482812 657.469362 
" clip-path="url(#pfa2c53cec7)" style="fill: none; stroke: #cccccc; stroke-width: 1.5; stroke-linecap: round"/>
     </g>
     <g id="text_10">
      <!-- 0.5% -->
      <g style="fill: #262626" transform="translate(40.84 665.342956)scale(0.22 -0.22)">
       <defs>
        <path id="ArialMT-35" d="M 266 1200 
L 856 1250 
Q 922 819 1161 601 
Q 1400 384 1738 384 
Q 2144 384 2425 690 
Q 2706 997 2706 1503 
Q 2706 1984 2436 2262 
Q 2166 2541 1728 2541 
Q 1456 2541 1237 2417 
Q 1019 2294 894 2097 
L 366 2166 
L 809 4519 
L 3088 4519 
L 3088 3981 
L 1259 3981 
L 1013 2750 
Q 1425 3038 1878 3038 
Q 2478 3038 2890 2622 
Q 3303 2206 3303 1553 
Q 3303 931 2941 478 
Q 2500 -78 1738 -78 
Q 1113 -78 717 272 
Q 322 622 266 1200 
z
" transform="scale(0.015625)"/>
       </defs>
       <use xlink:href="#ArialMT-30"/>
       <use xlink:href="#ArialMT-2e" x="55.615234"/>
       <use xlink:href="#ArialMT-35" x="83.398438"/>
       <use xlink:href="#ArialMT-25" x="139.013672"/>
      </g>
     </g>
    </g>
    <g id="ytick_3">
     <g id="line2d_10">
      <path d="M 103.482813 546.698724 
L 1219.482812 546.698724 
" clip-path="url(#pfa2c53cec7)" style="fill: none; stroke: #cccccc; stroke-width: 1.5; stroke-linecap: round"/>
     </g>
     <g id="text_11">
      <!-- 1.0% -->
      <g style="fill: #262626" transform="translate(40.84 554.572317)scale(0.22 -0.22)">
       <defs>
        <path id="ArialMT-31" d="M 2384 0 
L 1822 0 
L 1822 3584 
Q 1619 3391 1289 3197 
Q 959 3003 697 2906 
L 697 3450 
Q 1169 3672 1522 3987 
Q 1875 4303 2022 4600 
L 2384 4600 
L 2384 0 
z
" transform="scale(0.015625)"/>
       </defs>
       <use xlink:href="#ArialMT-31"/>
       <use xlink:href="#ArialMT-2e" x="55.615234"/>
       <use xlink:href="#ArialMT-30" x="83.398438"/>
       <use xlink:href="#ArialMT-25" x="139.013672"/>
      </g>
     </g>
    </g>
    <g id="ytick_4">
     <g id="line2d_11">
      <path d="M 103.482813 435.928085 
L 1219.482812 435.928085 
" clip-path="url(#pfa2c53cec7)" style="fill: none; stroke: #cccccc; stroke-width: 1.5; stroke-linecap: round"/>
     </g>
     <g id="text_12">
      <!-- 1.5% -->
      <g style="fill: #262626" transform="translate(40.84 443.801679)scale(0.22 -0.22)">
       <use xlink:href="#ArialMT-31"/>
       <use xlink:href="#ArialMT-2e" x="55.615234"/>
       <use xlink:href="#ArialMT-35" x="83.398438"/>
       <use xlink:href="#ArialMT-25" x="139.013672"/>
      </g>
     </g>
    </g>
    <g id="ytick_5">
     <g id="line2d_12">
      <path d="M 103.482813 325.157447 
L 1219.482812 325.157447 
" clip-path="url(#pfa2c53cec7)" style="fill: none; stroke: #cccccc; stroke-width: 1.5; stroke-linecap: round"/>
     </g>
     <g id="text_13">
      <!-- 2.0% -->
      <g style="fill: #262626" transform="translate(40.84 333.031041)scale(0.22 -0.22)">
       <use xlink:href="#ArialMT-32"/>
       <use xlink:href="#ArialMT-2e" x="55.615234"/>
       <use xlink:href="#ArialMT-30" x="83.398438"/>
       <use xlink:href="#ArialMT-25" x="139.013672"/>
      </g>
     </g>
    </g>
    <g id="ytick_6">
     <g id="line2d_13">
      <path d="M 103.482813 214.386809 
L 1219.482812 214.386809 
" clip-path="url(#pfa2c53cec7)" style="fill: none; stroke: #cccccc; stroke-width: 1.5; stroke-linecap: round"/>
     </g>
     <g id="text_14">
      <!-- 2.5% -->
      <g style="fill: #262626" transform="translate(40.84 222.260403)scale(0.22 -0.22)">
       <use xlink:href="#ArialMT-32"/>
       <use xlink:href="#ArialMT-2e" x="55.615234"/>
       <use xlink:href="#ArialMT-35" x="83.398438"/>
       <use xlink:href="#ArialMT-25" x="139.013672"/>
      </g>
     </g>
    </g>
    <g id="ytick_7">
     <g id="line2d_14">
      <path d="M 103.482813 103.616171 
L 1219.482812 103.616171 
" clip-path="url(#pfa2c53cec7)" style="fill: none; stroke: #cccccc; stroke-width: 1.5; stroke-linecap: round"/>
     </g>
     <g id="text_15">
      <!-- 3.0% -->
      <g style="fill: #262626" transform="translate(40.84 111.489764)scale(0.22 -0.22)">
       <defs>
        <path id="ArialMT-33" d="M 269 1209 
L 831 1284 
Q 928 806 1161 595 
Q 1394 384 1728 384 
Q 2125 384 2398 659 
Q 2672 934 2672 1341 
Q 2672 1728 2419 1979 
Q 2166 2231 1775 2231 
Q 1616 2231 1378 2169 
L 1441 2663 
Q 1497 2656 1531 2656 
Q 1891 2656 2178 2843 
Q 2466 3031 2466 3422 
Q 2466 3731 2256 3934 
Q 2047 4138 1716 4138 
Q 1388 4138 1169 3931 
Q 950 3725 888 3313 
L 325 3413 
Q 428 3978 793 4289 
Q 1159 4600 1703 4600 
Q 2078 4600 2393 4439 
Q 2709 4278 2876 4000 
Q 3044 3722 3044 3409 
Q 3044 3113 2884 2869 
Q 2725 2625 2413 2481 
Q 2819 2388 3044 2092 
Q 3269 1797 3269 1353 
Q 3269 753 2831 336 
Q 2394 -81 1725 -81 
Q 1122 -81 723 278 
Q 325 638 269 1209 
z
" transform="scale(0.015625)"/>
       </defs>
       <use xlink:href="#ArialMT-33"/>
       <use xlink:href="#ArialMT-2e" x="55.615234"/>
       <use xlink:href="#ArialMT-30" x="83.398438"/>
       <use xlink:href="#ArialMT-25" x="139.013672"/>
      </g>
     </g>
    </g>
    <g id="text_16">
     <!-- Density -->
     <g style="fill: #262626" transform="translate(30.105 441.07)rotate(-90)scale(0.32 -0.32)">
      <defs>
       <path id="ArialMT-44" d="M 494 0 
L 494 4581 
L 2072 4581 
Q 2606 4581 2888 4516 
Q 3281 4425 3559 4188 
Q 3922 3881 4101 3404 
Q 4281 2928 4281 2316 
Q 4281 1794 4159 1391 
Q 4038 988 3847 723 
Q 3656 459 3429 307 
Q 3203 156 2883 78 
Q 2563 0 2147 0 
L 494 0 
z
M 1100 541 
L 2078 541 
Q 2531 541 2789 625 
Q 3047 709 3200 863 
Q 3416 1078 3536 1442 
Q 3656 1806 3656 2325 
Q 3656 3044 3420 3430 
Q 3184 3816 2847 3947 
Q 2603 4041 2063 4041 
L 1100 4041 
L 1100 541 
z
" transform="scale(0.015625)"/>
       <path id="ArialMT-73" d="M 197 991 
L 753 1078 
Q 800 744 1014 566 
Q 1228 388 1613 388 
Q 2000 388 2187 545 
Q 2375 703 2375 916 
Q 2375 1106 2209 1216 
Q 2094 1291 1634 1406 
Q 1016 1563 777 1677 
Q 538 1791 414 1992 
Q 291 2194 291 2438 
Q 291 2659 392 2848 
Q 494 3038 669 3163 
Q 800 3259 1026 3326 
Q 1253 3394 1513 3394 
Q 1903 3394 2198 3281 
Q 2494 3169 2634 2976 
Q 2775 2784 2828 2463 
L 2278 2388 
Q 2241 2644 2061 2787 
Q 1881 2931 1553 2931 
Q 1166 2931 1000 2803 
Q 834 2675 834 2503 
Q 834 2394 903 2306 
Q 972 2216 1119 2156 
Q 1203 2125 1616 2013 
Q 2213 1853 2448 1751 
Q 2684 1650 2818 1456 
Q 2953 1263 2953 975 
Q 2953 694 2789 445 
Q 2625 197 2315 61 
Q 2006 -75 1616 -75 
Q 969 -75 630 194 
Q 291 463 197 991 
z
" transform="scale(0.015625)"/>
       <path id="ArialMT-79" d="M 397 -1278 
L 334 -750 
Q 519 -800 656 -800 
Q 844 -800 956 -737 
Q 1069 -675 1141 -563 
Q 1194 -478 1313 -144 
Q 1328 -97 1363 -6 
L 103 3319 
L 709 3319 
L 1400 1397 
Q 1534 1031 1641 628 
Q 1738 1016 1872 1384 
L 2581 3319 
L 3144 3319 
L 1881 -56 
Q 1678 -603 1566 -809 
Q 1416 -1088 1222 -1217 
Q 1028 -1347 759 -1347 
Q 597 -1347 397 -1278 
z
" transform="scale(0.015625)"/>
      </defs>
      <use xlink:href="#ArialMT-44"/>
      <use xlink:href="#ArialMT-65" x="72.216797"/>
      <use xlink:href="#ArialMT-6e" x="127.832031"/>
      <use xlink:href="#ArialMT-73" x="183.447266"/>
      <use xlink:href="#ArialMT-69" x="233.447266"/>
      <use xlink:href="#ArialMT-74" x="255.664062"/>
      <use xlink:href="#ArialMT-79" x="283.447266"/>
     </g>
    </g>
   </g>
   <g id="PolyCollection_1">
    <defs>
     <path id="m3a3565980b" d="M 154.210085 -75.873338 
L 154.210085 -75.569688 
L 159.308304 -75.569688 
L 164.406522 -75.569688 
L 169.50474 -75.569688 
L 174.602959 -75.569688 
L 179.701177 -75.569688 
L 184.799395 -75.569688 
L 189.897614 -75.569688 
L 194.995832 -75.569688 
L 200.094051 -75.569688 
L 205.192269 -75.569688 
L 210.290487 -75.569688 
L 215.388706 -75.569688 
L 220.486924 -75.569688 
L 225.585142 -75.569688 
L 230.683361 -75.569688 
L 235.781579 -75.569688 
L 240.879797 -75.569688 
L 245.978016 -75.569688 
L 251.076234 -75.569688 
L 256.174453 -75.569688 
L 261.272671 -75.569688 
L 266.370889 -75.569688 
L 271.469108 -75.569688 
L 276.567326 -75.569688 
L 281.665544 -75.569688 
L 286.763763 -75.569688 
L 291.861981 -75.569688 
L 296.960199 -75.569688 
L 302.058418 -75.569688 
L 307.156636 -75.569688 
L 312.254855 -75.569688 
L 317.353073 -75.569688 
L 322.451291 -75.569688 
L 327.54951 -75.569688 
L 332.647728 -75.569688 
L 337.745946 -75.569688 
L 342.844165 -75.569688 
L 347.942383 -75.569688 
L 353.040601 -75.569688 
L 358.13882 -75.569688 
L 363.237038 -75.569688 
L 368.335257 -75.569688 
L 373.433475 -75.569688 
L 378.531693 -75.569688 
L 383.629912 -75.569688 
L 388.72813 -75.569688 
L 393.826348 -75.569688 
L 398.924567 -75.569688 
L 404.022785 -75.569688 
L 409.121003 -75.569688 
L 414.219222 -75.569688 
L 419.31744 -75.569688 
L 424.415659 -75.569688 
L 429.513877 -75.569688 
L 434.612095 -75.569688 
L 439.710314 -75.569688 
L 444.808532 -75.569688 
L 449.90675 -75.569688 
L 455.004969 -75.569688 
L 460.103187 -75.569688 
L 465.201405 -75.569688 
L 470.299624 -75.569688 
L 475.397842 -75.569688 
L 480.496061 -75.569688 
L 485.594279 -75.569688 
L 490.692497 -75.569688 
L 495.790716 -75.569688 
L 500.888934 -75.569688 
L 505.987152 -75.569688 
L 511.085371 -75.569688 
L 516.183589 -75.569688 
L 521.281807 -75.569688 
L 526.380026 -75.569688 
L 531.478244 -75.569688 
L 536.576463 -75.569688 
L 541.674681 -75.569688 
L 546.772899 -75.569688 
L 551.871118 -75.569688 
L 556.969336 -75.569688 
L 562.067554 -75.569688 
L 567.165773 -75.569688 
L 572.263991 -75.569688 
L 577.362209 -75.569688 
L 582.460428 -75.569688 
L 587.558646 -75.569688 
L 592.656865 -75.569688 
L 597.755083 -75.569688 
L 602.853301 -75.569688 
L 607.95152 -75.569688 
L 613.049738 -75.569688 
L 618.147956 -75.569688 
L 623.246175 -75.569688 
L 628.344393 -75.569688 
L 633.442611 -75.569688 
L 638.54083 -75.569688 
L 643.639048 -75.569688 
L 648.737267 -75.569688 
L 653.835485 -75.569688 
L 658.933703 -75.569688 
L 664.031922 -75.569688 
L 669.13014 -75.569688 
L 674.228358 -75.569688 
L 679.326577 -75.569688 
L 684.424795 -75.569688 
L 689.523014 -75.569688 
L 694.621232 -75.569688 
L 699.71945 -75.569688 
L 704.817669 -75.569688 
L 709.915887 -75.569688 
L 715.014105 -75.569688 
L 720.112324 -75.569688 
L 725.210542 -75.569688 
L 730.30876 -75.569688 
L 735.406979 -75.569688 
L 740.505197 -75.569688 
L 745.603416 -75.569688 
L 750.701634 -75.569688 
L 755.799852 -75.569688 
L 760.898071 -75.569688 
L 765.996289 -75.569688 
L 771.094507 -75.569688 
L 776.192726 -75.569688 
L 781.290944 -75.569688 
L 786.389162 -75.569688 
L 791.487381 -75.569688 
L 796.585599 -75.569688 
L 801.683818 -75.569688 
L 806.782036 -75.569688 
L 811.880254 -75.569688 
L 816.978473 -75.569688 
L 822.076691 -75.569688 
L 827.174909 -75.569688 
L 832.273128 -75.569688 
L 837.371346 -75.569688 
L 842.469564 -75.569688 
L 847.567783 -75.569688 
L 852.666001 -75.569688 
L 857.76422 -75.569688 
L 862.862438 -75.569688 
L 867.960656 -75.569688 
L 873.058875 -75.569688 
L 878.157093 -75.569688 
L 883.255311 -75.569688 
L 888.35353 -75.569688 
L 893.451748 -75.569688 
L 898.549966 -75.569688 
L 903.648185 -75.569688 
L 908.746403 -75.569688 
L 913.844622 -75.569688 
L 918.94284 -75.569688 
L 924.041058 -75.569688 
L 929.139277 -75.569688 
L 934.237495 -75.569688 
L 939.335713 -75.569688 
L 944.433932 -75.569688 
L 949.53215 -75.569688 
L 954.630368 -75.569688 
L 959.728587 -75.569688 
L 964.826805 -75.569688 
L 969.925024 -75.569688 
L 975.023242 -75.569688 
L 980.12146 -75.569688 
L 985.219679 -75.569688 
L 990.317897 -75.569688 
L 995.416115 -75.569688 
L 1000.514334 -75.569688 
L 1005.612552 -75.569688 
L 1010.71077 -75.569688 
L 1015.808989 -75.569688 
L 1020.907207 -75.569688 
L 1026.005426 -75.569688 
L 1031.103644 -75.569688 
L 1036.201862 -75.569688 
L 1041.300081 -75.569688 
L 1046.398299 -75.569688 
L 1051.496517 -75.569688 
L 1056.594736 -75.569688 
L 1061.692954 -75.569688 
L 1066.791172 -75.569688 
L 1071.889391 -75.569688 
L 1076.987609 -75.569688 
L 1082.085828 -75.569688 
L 1087.184046 -75.569688 
L 1092.282264 -75.569688 
L 1097.380483 -75.569688 
L 1102.478701 -75.569688 
L 1107.576919 -75.569688 
L 1112.675138 -75.569688 
L 1117.773356 -75.569688 
L 1122.871574 -75.569688 
L 1127.969793 -75.569688 
L 1133.068011 -75.569688 
L 1138.16623 -75.569688 
L 1143.264448 -75.569688 
L 1148.362666 -75.569688 
L 1153.460885 -75.569688 
L 1158.559103 -75.569688 
L 1163.657321 -75.569688 
L 1168.75554 -75.569688 
L 1168.75554 -75.575314 
L 1168.75554 -75.575314 
L 1163.657321 -75.576637 
L 1158.559103 -75.57825 
L 1153.460885 -75.58021 
L 1148.362666 -75.582586 
L 1143.264448 -75.58546 
L 1138.16623 -75.588927 
L 1133.068011 -75.593097 
L 1127.969793 -75.598103 
L 1122.871574 -75.604094 
L 1117.773356 -75.611247 
L 1112.675138 -75.619767 
L 1107.576919 -75.629888 
L 1102.478701 -75.641883 
L 1097.380483 -75.656063 
L 1092.282264 -75.672785 
L 1087.184046 -75.692458 
L 1082.085828 -75.715544 
L 1076.987609 -75.742574 
L 1071.889391 -75.774145 
L 1066.791172 -75.810934 
L 1061.692954 -75.853704 
L 1056.594736 -75.903313 
L 1051.496517 -75.960725 
L 1046.398299 -76.027018 
L 1041.300081 -76.103397 
L 1036.201862 -76.191205 
L 1031.103644 -76.291935 
L 1026.005426 -76.407245 
L 1020.907207 -76.538971 
L 1015.808989 -76.689143 
L 1010.71077 -76.860002 
L 1005.612552 -77.054015 
L 1000.514334 -77.273897 
L 995.416115 -77.522626 
L 990.317897 -77.803471 
L 985.219679 -78.120007 
L 980.12146 -78.476144 
L 975.023242 -78.87615 
L 969.925024 -79.324677 
L 964.826805 -79.826792 
L 959.728587 -80.388005 
L 954.630368 -81.0143 
L 949.53215 -81.712171 
L 944.433932 -82.48865 
L 939.335713 -83.351348 
L 934.237495 -84.308489 
L 929.139277 -85.368943 
L 924.041058 -86.54227 
L 918.94284 -87.838746 
L 913.844622 -89.269404 
L 908.746403 -90.846065 
L 903.648185 -92.581364 
L 898.549966 -94.488776 
L 893.451748 -96.582637 
L 888.35353 -98.87815 
L 883.255311 -101.391395 
L 878.157093 -104.139318 
L 873.058875 -107.139709 
L 867.960656 -110.411178 
L 862.862438 -113.973099 
L 857.76422 -117.845544 
L 852.666001 -122.049205 
L 847.567783 -126.605279 
L 842.469564 -131.535347 
L 837.371346 -136.861217 
L 832.273128 -142.604753 
L 827.174909 -148.787666 
L 822.076691 -155.431293 
L 816.978473 -162.556343 
L 811.880254 -170.18262 
L 806.782036 -178.328722 
L 801.683818 -187.011725 
L 796.585599 -196.246841 
L 791.487381 -206.047067 
L 786.389162 -216.422818 
L 781.290944 -227.38156 
L 776.192726 -238.92744 
L 771.094507 -251.060914 
L 765.996289 -263.778399 
L 760.898071 -277.071936 
L 755.799852 -290.928875 
L 750.701634 -305.331596 
L 745.603416 -320.257273 
L 740.505197 -335.67768 
L 735.406979 -351.559046 
L 730.30876 -367.861978 
L 725.210542 -384.541444 
L 720.112324 -401.546823 
L 715.014105 -418.822037 
L 709.915887 -436.305746 
L 704.817669 -453.931631 
L 699.71945 -471.628753 
L 694.621232 -489.321982 
L 689.523014 -506.932502 
L 684.424795 -524.378392 
L 679.326577 -541.57526 
L 674.228358 -558.436941 
L 669.13014 -574.876238 
L 664.031922 -590.805707 
L 658.933703 -606.138467 
L 653.835485 -620.789031 
L 648.737267 -634.674135 
L 643.639048 -647.713571 
L 638.54083 -659.83099 
L 633.442611 -670.954687 
L 628.344393 -681.018329 
L 623.246175 -689.961641 
L 618.147956 -697.73102 
L 613.049738 -704.280082 
L 607.95152 -709.570123 
L 602.853301 -713.570492 
L 597.755083 -716.258877 
L 592.656865 -717.621486 
L 587.558646 -717.653137 
L 582.460428 -716.357245 
L 577.362209 -713.745717 
L 572.263991 -709.83875 
L 567.165773 -704.664537 
L 562.067554 -698.258901 
L 556.969336 -690.664841 
L 551.871118 -681.932021 
L 546.772899 -672.11619 
L 541.674681 -661.278564 
L 536.576463 -649.485161 
L 531.478244 -636.806114 
L 526.380026 -623.314961 
L 521.281807 -609.08793 
L 516.183589 -594.203221 
L 511.085371 -578.740309 
L 505.987152 -562.779251 
L 500.888934 -546.400033 
L 495.790716 -529.681944 
L 490.692497 -512.702986 
L 485.594279 -495.539339 
L 480.496061 -478.264859 
L 475.397842 -460.950636 
L 470.299624 -443.664604 
L 465.201405 -426.471199 
L 460.103187 -409.431074 
L 455.004969 -392.600865 
L 449.90675 -376.033008 
L 444.808532 -359.775608 
L 439.710314 -343.872352 
L 434.612095 -328.362467 
L 429.513877 -313.28072 
L 424.415659 -298.657455 
L 419.31744 -284.518665 
L 414.219222 -270.886096 
L 409.121003 -257.777378 
L 404.022785 -245.206179 
L 398.924567 -233.182383 
L 393.826348 -221.712281 
L 388.72813 -210.798781 
L 383.629912 -200.441628 
L 378.531693 -190.637632 
L 373.433475 -181.380905 
L 368.335257 -172.663095 
L 363.237038 -164.473632 
L 358.13882 -156.799963 
L 353.040601 -149.627792 
L 347.942383 -142.941311 
L 342.844165 -136.723428 
L 337.745946 -130.955987 
L 332.647728 -125.619977 
L 327.54951 -120.695734 
L 322.451291 -116.163132 
L 317.353073 -112.00176 
L 312.254855 -108.19109 
L 307.156636 -104.71063 
L 302.058418 -101.540062 
L 296.960199 -98.65937 
L 291.861981 -96.048953 
L 286.763763 -93.689723 
L 281.665544 -91.563194 
L 276.567326 -89.651548 
L 271.469108 -87.937704 
L 266.370889 -86.405354 
L 261.272671 -85.039012 
L 256.174453 -83.824027 
L 251.076234 -82.746607 
L 245.978016 -81.793819 
L 240.879797 -80.953588 
L 235.781579 -80.214689 
L 230.683361 -79.566724 
L 225.585142 -79.000105 
L 220.486924 -78.506024 
L 215.388706 -78.07642 
L 210.290487 -77.703948 
L 205.192269 -77.381936 
L 200.094051 -77.10435 
L 194.995832 -76.865753 
L 189.897614 -76.661265 
L 184.799395 -76.48652 
L 179.701177 -76.337628 
L 174.602959 -76.211137 
L 169.50474 -76.103992 
L 164.406522 -76.013504 
L 159.308304 -75.937308 
L 154.210085 -75.873338 
z
" style="stroke: #d73027; stroke-width: 5"/>
    </defs>
    <g clip-path="url(#pfa2c53cec7)">
     <use xlink:href="#m3a3565980b" x="0" y="843.809687" style="fill: #d73027; fill-opacity: 0.05; stroke: #d73027; stroke-width: 5"/>
    </g>
   </g>
   <g id="PolyCollection_2">
    <defs>
     <path id="ma3bd8ba404" d="M 178.174173 -75.648928 
L 178.174173 -75.569688 
L 183.03293 -75.569688 
L 187.891687 -75.569688 
L 192.750444 -75.569688 
L 197.6092 -75.569688 
L 202.467957 -75.569688 
L 207.326714 -75.569688 
L 212.185471 -75.569688 
L 217.044228 -75.569688 
L 221.902984 -75.569688 
L 226.761741 -75.569688 
L 231.620498 -75.569688 
L 236.479255 -75.569688 
L 241.338011 -75.569688 
L 246.196768 -75.569688 
L 251.055525 -75.569688 
L 255.914282 -75.569688 
L 260.773038 -75.569688 
L 265.631795 -75.569688 
L 270.490552 -75.569688 
L 275.349309 -75.569688 
L 280.208065 -75.569688 
L 285.066822 -75.569688 
L 289.925579 -75.569688 
L 294.784336 -75.569688 
L 299.643093 -75.569688 
L 304.501849 -75.569688 
L 309.360606 -75.569688 
L 314.219363 -75.569688 
L 319.07812 -75.569688 
L 323.936876 -75.569688 
L 328.795633 -75.569688 
L 333.65439 -75.569688 
L 338.513147 -75.569688 
L 343.371903 -75.569688 
L 348.23066 -75.569688 
L 353.089417 -75.569688 
L 357.948174 -75.569688 
L 362.80693 -75.569688 
L 367.665687 -75.569688 
L 372.524444 -75.569688 
L 377.383201 -75.569688 
L 382.241958 -75.569688 
L 387.100714 -75.569688 
L 391.959471 -75.569688 
L 396.818228 -75.569688 
L 401.676985 -75.569688 
L 406.535741 -75.569688 
L 411.394498 -75.569688 
L 416.253255 -75.569688 
L 421.112012 -75.569688 
L 425.970768 -75.569688 
L 430.829525 -75.569688 
L 435.688282 -75.569688 
L 440.547039 -75.569688 
L 445.405795 -75.569688 
L 450.264552 -75.569688 
L 455.123309 -75.569688 
L 459.982066 -75.569688 
L 464.840823 -75.569688 
L 469.699579 -75.569688 
L 474.558336 -75.569688 
L 479.417093 -75.569688 
L 484.27585 -75.569688 
L 489.134606 -75.569688 
L 493.993363 -75.569688 
L 498.85212 -75.569688 
L 503.710877 -75.569688 
L 508.569633 -75.569688 
L 513.42839 -75.569688 
L 518.287147 -75.569688 
L 523.145904 -75.569688 
L 528.00466 -75.569688 
L 532.863417 -75.569688 
L 537.722174 -75.569688 
L 542.580931 -75.569688 
L 547.439688 -75.569688 
L 552.298444 -75.569688 
L 557.157201 -75.569688 
L 562.015958 -75.569688 
L 566.874715 -75.569688 
L 571.733471 -75.569688 
L 576.592228 -75.569688 
L 581.450985 -75.569688 
L 586.309742 -75.569688 
L 591.168498 -75.569688 
L 596.027255 -75.569688 
L 600.886012 -75.569688 
L 605.744769 -75.569688 
L 610.603525 -75.569688 
L 615.462282 -75.569688 
L 620.321039 -75.569688 
L 625.179796 -75.569688 
L 630.038552 -75.569688 
L 634.897309 -75.569688 
L 639.756066 -75.569688 
L 644.614823 -75.569688 
L 649.47358 -75.569688 
L 654.332336 -75.569688 
L 659.191093 -75.569688 
L 664.04985 -75.569688 
L 668.908607 -75.569688 
L 673.767363 -75.569688 
L 678.62612 -75.569688 
L 683.484877 -75.569688 
L 688.343634 -75.569688 
L 693.20239 -75.569688 
L 698.061147 -75.569688 
L 702.919904 -75.569688 
L 707.778661 -75.569688 
L 712.637417 -75.569688 
L 717.496174 -75.569688 
L 722.354931 -75.569688 
L 727.213688 -75.569688 
L 732.072445 -75.569688 
L 736.931201 -75.569688 
L 741.789958 -75.569688 
L 746.648715 -75.569688 
L 751.507472 -75.569688 
L 756.366228 -75.569688 
L 761.224985 -75.569688 
L 766.083742 -75.569688 
L 770.942499 -75.569688 
L 775.801255 -75.569688 
L 780.660012 -75.569688 
L 785.518769 -75.569688 
L 790.377526 -75.569688 
L 795.236282 -75.569688 
L 800.095039 -75.569688 
L 804.953796 -75.569688 
L 809.812553 -75.569688 
L 814.67131 -75.569688 
L 819.530066 -75.569688 
L 824.388823 -75.569688 
L 829.24758 -75.569688 
L 834.106337 -75.569688 
L 838.965093 -75.569688 
L 843.82385 -75.569688 
L 848.682607 -75.569688 
L 853.541364 -75.569688 
L 858.40012 -75.569688 
L 863.258877 -75.569688 
L 868.117634 -75.569688 
L 872.976391 -75.569688 
L 877.835147 -75.569688 
L 882.693904 -75.569688 
L 887.552661 -75.569688 
L 892.411418 -75.569688 
L 897.270175 -75.569688 
L 902.128931 -75.569688 
L 906.987688 -75.569688 
L 911.846445 -75.569688 
L 916.705202 -75.569688 
L 921.563958 -75.569688 
L 926.422715 -75.569688 
L 931.281472 -75.569688 
L 936.140229 -75.569688 
L 940.998985 -75.569688 
L 945.857742 -75.569688 
L 950.716499 -75.569688 
L 955.575256 -75.569688 
L 960.434012 -75.569688 
L 965.292769 -75.569688 
L 970.151526 -75.569688 
L 975.010283 -75.569688 
L 979.869039 -75.569688 
L 984.727796 -75.569688 
L 989.586553 -75.569688 
L 994.44531 -75.569688 
L 999.304067 -75.569688 
L 1004.162823 -75.569688 
L 1009.02158 -75.569688 
L 1013.880337 -75.569688 
L 1018.739094 -75.569688 
L 1023.59785 -75.569688 
L 1028.456607 -75.569688 
L 1033.315364 -75.569688 
L 1038.174121 -75.569688 
L 1043.032877 -75.569688 
L 1047.891634 -75.569688 
L 1052.750391 -75.569688 
L 1057.609148 -75.569688 
L 1062.467904 -75.569688 
L 1067.326661 -75.569688 
L 1072.185418 -75.569688 
L 1077.044175 -75.569688 
L 1081.902932 -75.569688 
L 1086.761688 -75.569688 
L 1091.620445 -75.569688 
L 1096.479202 -75.569688 
L 1101.337959 -75.569688 
L 1106.196715 -75.569688 
L 1111.055472 -75.569688 
L 1115.914229 -75.569688 
L 1120.772986 -75.569688 
L 1125.631742 -75.569688 
L 1130.490499 -75.569688 
L 1135.349256 -75.569688 
L 1140.208013 -75.569688 
L 1145.066769 -75.569688 
L 1145.066769 -75.583517 
L 1145.066769 -75.583517 
L 1140.208013 -75.586859 
L 1135.349256 -75.590949 
L 1130.490499 -75.595941 
L 1125.631742 -75.602015 
L 1120.772986 -75.609386 
L 1115.914229 -75.618305 
L 1111.055472 -75.629067 
L 1106.196715 -75.642017 
L 1101.337959 -75.657558 
L 1096.479202 -75.676156 
L 1091.620445 -75.698353 
L 1086.761688 -75.724775 
L 1081.902932 -75.756144 
L 1077.044175 -75.793288 
L 1072.185418 -75.837157 
L 1067.326661 -75.888837 
L 1062.467904 -75.949564 
L 1057.609148 -76.020747 
L 1052.750391 -76.103981 
L 1047.891634 -76.201071 
L 1043.032877 -76.314055 
L 1038.174121 -76.445228 
L 1033.315364 -76.597169 
L 1028.456607 -76.772768 
L 1023.59785 -76.975259 
L 1018.739094 -77.208252 
L 1013.880337 -77.47577 
L 1009.02158 -77.782286 
L 1004.162823 -78.132763 
L 999.304067 -78.532701 
L 994.44531 -78.988181 
L 989.586553 -79.505912 
L 984.727796 -80.09329 
L 979.869039 -80.758443 
L 975.010283 -81.510296 
L 970.151526 -82.358626 
L 965.292769 -83.314124 
L 960.434012 -84.388457 
L 955.575256 -85.594332 
L 950.716499 -86.945556 
L 945.857742 -88.457096 
L 940.998985 -90.145141 
L 936.140229 -92.027152 
L 931.281472 -94.121913 
L 926.422715 -96.449563 
L 921.563958 -99.031632 
L 916.705202 -101.891049 
L 911.846445 -105.052145 
L 906.987688 -108.540627 
L 902.128931 -112.383535 
L 897.270175 -116.609171 
L 892.411418 -121.246998 
L 887.552661 -126.3275 
L 882.693904 -131.882016 
L 877.835147 -137.942522 
L 872.976391 -144.541376 
L 868.117634 -151.711019 
L 863.258877 -159.483622 
L 858.40012 -167.890692 
L 853.541364 -176.962627 
L 848.682607 -186.728226 
L 843.82385 -197.214152 
L 838.965093 -208.444362 
L 834.106337 -220.439492 
L 829.24758 -233.216229 
L 824.388823 -246.786647 
L 819.530066 -261.15755 
L 814.67131 -276.329808 
L 809.812553 -292.297711 
L 804.953796 -309.048356 
L 800.095039 -326.561071 
L 795.236282 -344.806906 
L 790.377526 -363.748199 
L 785.518769 -383.338229 
L 780.660012 -403.52098 
L 775.801255 -424.231022 
L 770.942499 -445.393532 
L 766.083742 -466.924454 
L 761.224985 -488.73081 
L 756.366228 -510.711177 
L 751.507472 -532.756321 
L 746.648715 -554.74999 
L 741.789958 -576.569866 
L 736.931201 -598.088665 
L 732.072445 -619.175371 
L 727.213688 -639.696595 
L 722.354931 -659.518029 
L 717.496174 -678.505985 
L 712.637417 -696.528989 
L 707.778661 -713.459395 
L 702.919904 -729.175004 
L 698.061147 -743.560652 
L 693.20239 -756.509731 
L 688.343634 -767.925622 
L 683.484877 -777.72301 
L 678.62612 -785.82905 
L 673.767363 -792.184363 
L 668.908607 -796.743848 
L 664.04985 -799.477278 
L 659.191093 -800.369687 
L 654.332336 -799.421527 
L 649.47358 -796.648593 
L 644.614823 -792.081726 
L 639.756066 -785.7663 
L 634.897309 -777.761493 
L 630.038552 -768.13937 
L 625.179796 -756.983803 
L 620.321039 -744.389225 
L 615.462282 -730.459278 
L 610.603525 -715.305357 
L 605.744769 -699.04509 
L 600.886012 -681.800781 
L 596.027255 -663.697846 
L 591.168498 -644.863265 
L 586.309742 -625.424092 
L 581.450985 -605.50602 
L 576.592228 -585.232055 
L 571.733471 -564.721291 
L 566.874715 -544.087816 
L 562.015958 -523.439757 
L 557.157201 -502.87847 
L 552.298444 -482.497886 
L 547.439688 -462.383999 
L 542.580931 -442.614522 
L 537.722174 -423.258672 
L 532.863417 -404.377099 
L 528.00466 -386.02195 
L 523.145904 -368.237036 
L 518.287147 -351.058112 
L 513.42839 -334.513243 
L 508.569633 -318.623242 
L 503.710877 -303.402171 
L 498.85212 -288.857882 
L 493.993363 -274.992595 
L 489.134606 -261.803487 
L 484.27585 -249.283289 
L 479.417093 -237.420875 
L 474.558336 -226.201838 
L 469.699579 -215.60904 
L 464.840823 -205.623128 
L 459.982066 -196.223022 
L 455.123309 -187.386353 
L 450.264552 -179.089866 
L 445.405795 -171.309771 
L 440.547039 -164.022059 
L 435.688282 -157.202764 
L 430.829525 -150.828192 
L 425.970768 -144.875102 
L 421.112012 -139.320855 
L 416.253255 -134.14353 
L 411.394498 -129.322002 
L 406.535741 -124.836002 
L 401.676985 -120.666147 
L 396.818228 -116.793956 
L 391.959471 -113.201844 
L 387.100714 -109.873107 
L 382.241958 -106.791898 
L 377.383201 -103.943188 
L 372.524444 -101.312737 
L 367.665687 -98.887044 
L 362.80693 -96.65331 
L 357.948174 -94.599397 
L 353.089417 -92.713785 
L 348.23066 -90.985537 
L 343.371903 -89.404263 
L 338.513147 -87.96009 
L 333.65439 -86.643633 
L 328.795633 -85.445969 
L 323.936876 -84.358619 
L 319.07812 -83.373526 
L 314.219363 -82.483041 
L 309.360606 -81.67991 
L 304.501849 -80.957263 
L 299.643093 -80.308599 
L 294.784336 -79.727783 
L 289.925579 -79.209033 
L 285.066822 -78.746915 
L 280.208065 -78.336331 
L 275.349309 -77.972515 
L 270.490552 -77.65102 
L 265.631795 -77.367713 
L 260.773038 -77.118761 
L 255.914282 -76.900624 
L 251.055525 -76.710039 
L 246.196768 -76.544016 
L 241.338011 -76.399816 
L 236.479255 -76.274945 
L 231.620498 -76.167139 
L 226.761741 -76.074349 
L 221.902984 -75.994728 
L 217.044228 -75.926619 
L 212.185471 -75.868539 
L 207.326714 -75.819166 
L 202.467957 -75.777328 
L 197.6092 -75.741986 
L 192.750444 -75.712228 
L 187.891687 -75.687251 
L 183.03293 -75.666354 
L 178.174173 -75.648928 
z
" style="stroke: #1a9850; stroke-width: 5"/>
    </defs>
    <g clip-path="url(#pfa2c53cec7)">
     <use xlink:href="#ma3bd8ba404" x="0" y="843.809687" style="fill: #1a9850; fill-opacity: 0.05; stroke: #1a9850; stroke-width: 5"/>
    </g>
   </g>
   <g id="patch_3">
    <path d="M 103.482813 768.24 
L 103.482813 7.2 
" style="fill: none; stroke: #cccccc; stroke-width: 1.875; stroke-linejoin: miter; stroke-linecap: square"/>
   </g>
   <g id="patch_4">
    <path d="M 1219.482812 768.24 
L 1219.482812 7.2 
" style="fill: none; stroke: #cccccc; stroke-width: 1.875; stroke-linejoin: miter; stroke-linecap: square"/>
   </g>
   <g id="patch_5">
    <path d="M 103.482813 768.24 
L 1219.482812 768.24 
" style="fill: none; stroke: #cccccc; stroke-width: 1.875; stroke-linejoin: miter; stroke-linecap: square"/>
   </g>
   <g id="patch_6">
    <path d="M 103.482813 7.2 
L 1219.482812 7.2 
" style="fill: none; stroke: #cccccc; stroke-width: 1.875; stroke-linejoin: miter; stroke-linecap: square"/>
   </g>
   <g id="legend_1">
    <g id="patch_7">
     <path d="M 752.38125 131.400937 
L 1195.682813 131.400937 
Q 1202.482813 131.400937 1202.482813 124.600937 
L 1202.482813 31 
Q 1202.482813 24.2 1195.682813 24.2 
L 752.38125 24.2 
Q 745.58125 24.2 745.58125 31 
L 745.58125 124.600937 
Q 745.58125 131.400937 752.38125 131.400937 
z
" style="fill: #ffffff; opacity: 0.8; stroke: #cccccc; stroke-width: 1.5; stroke-linejoin: miter"/>
    </g>
    <g id="patch_8">
     <path d="M 759.18125 62.550937 
L 827.18125 62.550937 
L 827.18125 38.750937 
L 759.18125 38.750937 
z
" style="fill: #d73027; fill-opacity: 0.05; stroke: #d73027; stroke-width: 5; stroke-linejoin: miter"/>
    </g>
    <g id="text_17">
     <!-- 10% longest distance -->
     <g style="fill: #262626" transform="translate(854.38125 62.550937)scale(0.34 -0.34)">
      <defs>
       <path id="ArialMT-67" d="M 319 -275 
L 866 -356 
Q 900 -609 1056 -725 
Q 1266 -881 1628 -881 
Q 2019 -881 2231 -725 
Q 2444 -569 2519 -288 
Q 2563 -116 2559 434 
Q 2191 0 1641 0 
Q 956 0 581 494 
Q 206 988 206 1678 
Q 206 2153 378 2554 
Q 550 2956 876 3175 
Q 1203 3394 1644 3394 
Q 2231 3394 2613 2919 
L 2613 3319 
L 3131 3319 
L 3131 450 
Q 3131 -325 2973 -648 
Q 2816 -972 2473 -1159 
Q 2131 -1347 1631 -1347 
Q 1038 -1347 672 -1080 
Q 306 -813 319 -275 
z
M 784 1719 
Q 784 1066 1043 766 
Q 1303 466 1694 466 
Q 2081 466 2343 764 
Q 2606 1063 2606 1700 
Q 2606 2309 2336 2618 
Q 2066 2928 1684 2928 
Q 1309 2928 1046 2623 
Q 784 2319 784 1719 
z
" transform="scale(0.015625)"/>
       <path id="ArialMT-64" d="M 2575 0 
L 2575 419 
Q 2259 -75 1647 -75 
Q 1250 -75 917 144 
Q 584 363 401 755 
Q 219 1147 219 1656 
Q 219 2153 384 2558 
Q 550 2963 881 3178 
Q 1213 3394 1622 3394 
Q 1922 3394 2156 3267 
Q 2391 3141 2538 2938 
L 2538 4581 
L 3097 4581 
L 3097 0 
L 2575 0 
z
M 797 1656 
Q 797 1019 1065 703 
Q 1334 388 1700 388 
Q 2069 388 2326 689 
Q 2584 991 2584 1609 
Q 2584 2291 2321 2609 
Q 2059 2928 1675 2928 
Q 1300 2928 1048 2622 
Q 797 2316 797 1656 
z
" transform="scale(0.015625)"/>
       <path id="ArialMT-63" d="M 2588 1216 
L 3141 1144 
Q 3050 572 2676 248 
Q 2303 -75 1759 -75 
Q 1078 -75 664 370 
Q 250 816 250 1647 
Q 250 2184 428 2587 
Q 606 2991 970 3192 
Q 1334 3394 1763 3394 
Q 2303 3394 2647 3120 
Q 2991 2847 3088 2344 
L 2541 2259 
Q 2463 2594 2264 2762 
Q 2066 2931 1784 2931 
Q 1359 2931 1093 2626 
Q 828 2322 828 1663 
Q 828 994 1084 691 
Q 1341 388 1753 388 
Q 2084 388 2306 591 
Q 2528 794 2588 1216 
z
" transform="scale(0.015625)"/>
      </defs>
      <use xlink:href="#ArialMT-31"/>
      <use xlink:href="#ArialMT-30" x="55.615234"/>
      <use xlink:href="#ArialMT-25" x="111.230469"/>
      <use xlink:href="#ArialMT-20" x="200.146484"/>
      <use xlink:href="#ArialMT-6c" x="227.929688"/>
      <use xlink:href="#ArialMT-6f" x="250.146484"/>
      <use xlink:href="#ArialMT-6e" x="305.761719"/>
      <use xlink:href="#ArialMT-67" x="361.376953"/>
      <use xlink:href="#ArialMT-65" x="416.992188"/>
      <use xlink:href="#ArialMT-73" x="472.607422"/>
      <use xlink:href="#ArialMT-74" x="522.607422"/>
      <use xlink:href="#ArialMT-20" x="550.390625"/>
      <use xlink:href="#ArialMT-64" x="578.173828"/>
      <use xlink:href="#ArialMT-69" x="633.789062"/>
      <use xlink:href="#ArialMT-73" x="656.005859"/>
      <use xlink:href="#ArialMT-74" x="706.005859"/>
      <use xlink:href="#ArialMT-61" x="733.789062"/>
      <use xlink:href="#ArialMT-6e" x="789.404297"/>
      <use xlink:href="#ArialMT-63" x="845.019531"/>
      <use xlink:href="#ArialMT-65" x="895.019531"/>
     </g>
    </g>
    <g id="patch_9">
     <path d="M 759.18125 111.043437 
L 827.18125 111.043437 
L 827.18125 87.243437 
L 759.18125 87.243437 
z
" style="fill: #1a9850; fill-opacity: 0.05; stroke: #1a9850; stroke-width: 5; stroke-linejoin: miter"/>
    </g>
    <g id="text_18">
     <!-- 10% shortest distance -->
     <g style="fill: #262626" transform="translate(854.38125 111.043437)scale(0.34 -0.34)">
      <defs>
       <path id="ArialMT-68" d="M 422 0 
L 422 4581 
L 984 4581 
L 984 2938 
Q 1378 3394 1978 3394 
Q 2347 3394 2619 3248 
Q 2891 3103 3008 2847 
Q 3125 2591 3125 2103 
L 3125 0 
L 2563 0 
L 2563 2103 
Q 2563 2525 2380 2717 
Q 2197 2909 1863 2909 
Q 1613 2909 1392 2779 
Q 1172 2650 1078 2428 
Q 984 2206 984 1816 
L 984 0 
L 422 0 
z
" transform="scale(0.015625)"/>
       <path id="ArialMT-72" d="M 416 0 
L 416 3319 
L 922 3319 
L 922 2816 
Q 1116 3169 1280 3281 
Q 1444 3394 1641 3394 
Q 1925 3394 2219 3213 
L 2025 2691 
Q 1819 2813 1613 2813 
Q 1428 2813 1281 2702 
Q 1134 2591 1072 2394 
Q 978 2094 978 1738 
L 978 0 
L 416 0 
z
" transform="scale(0.015625)"/>
      </defs>
      <use xlink:href="#ArialMT-31"/>
      <use xlink:href="#ArialMT-30" x="55.615234"/>
      <use xlink:href="#ArialMT-25" x="111.230469"/>
      <use xlink:href="#ArialMT-20" x="200.146484"/>
      <use xlink:href="#ArialMT-73" x="227.929688"/>
      <use xlink:href="#ArialMT-68" x="277.929688"/>
      <use xlink:href="#ArialMT-6f" x="333.544922"/>
      <use xlink:href="#ArialMT-72" x="389.160156"/>
      <use xlink:href="#ArialMT-74" x="422.460938"/>
      <use xlink:href="#ArialMT-65" x="450.244141"/>
      <use xlink:href="#ArialMT-73" x="505.859375"/>
      <use xlink:href="#ArialMT-74" x="555.859375"/>
      <use xlink:href="#ArialMT-20" x="583.642578"/>
      <use xlink:href="#ArialMT-64" x="611.425781"/>
      <use xlink:href="#ArialMT-69" x="667.041016"/>
      <use xlink:href="#ArialMT-73" x="689.257812"/>
      <use xlink:href="#ArialMT-74" x="739.257812"/>
      <use xlink:href="#ArialMT-61" x="767.041016"/>
      <use xlink:href="#ArialMT-6e" x="822.65625"/>
      <use xlink:href="#ArialMT-63" x="878.271484"/>
      <use xlink:href="#ArialMT-65" x="928.271484"/>
     </g>
    </g>
   </g>
  </g>
 </g>
 <defs>
  <clipPath id="pfa2c53cec7">
   <rect x="103.482813" y="7.2" width="1116" height="761.04"/>
  </clipPath>
 </defs>
</svg>
