<?xml version="1.0" encoding="utf-8" standalone="no"?>
<!DOCTYPE svg PUBLIC "-//W3C//DTD SVG 1.1//EN"
  "http://www.w3.org/Graphics/SVG/1.1/DTD/svg11.dtd">
<svg xmlns:xlink="http://www.w3.org/1999/xlink" width="1256.05625pt" height="841.324687pt" viewBox="0 0 1256.05625 841.324687" xmlns="http://www.w3.org/2000/svg" version="1.1">
 <metadata>
  <rdf:RDF xmlns:dc="http://purl.org/dc/elements/1.1/" xmlns:cc="http://creativecommons.org/ns#" xmlns:rdf="http://www.w3.org/1999/02/22-rdf-syntax-ns#">
   <cc:Work>
    <dc:type rdf:resource="http://purl.org/dc/dcmitype/StillImage"/>
    <dc:date>2023-04-20T06:51:27.377147</dc:date>
    <dc:format>image/svg+xml</dc:format>
    <dc:creator>
     <cc:Agent>
      <dc:title>Matplotlib v3.5.1, https://matplotlib.org/</dc:title>
     </cc:Agent>
    </dc:creator>
   </cc:Work>
  </rdf:RDF>
 </metadata>
 <defs>
  <style type="text/css">*{stroke-linejoin: round; stroke-linecap: butt}</style>
 </defs>
 <g id="figure_1">
  <g id="patch_1">
   <path d="M 0 841.324687 
L 1256.05625 841.324687 
L 1256.05625 0 
L 0 0 
z
" style="fill: #ffffff"/>
  </g>
  <g id="axes_1">
   <g id="patch_2">
    <path d="M 132.85625 768.24 
L 1248.85625 768.24 
L 1248.85625 7.2 
L 132.85625 7.2 
z
" style="fill: #ffffff"/>
   </g>
   <g id="matplotlib.axis_1">
    <g id="xtick_1">
     <g id="line2d_1">
      <path d="M 234.366599 768.24 
L 234.366599 7.2 
" clip-path="url(#p93600f6c1a)" style="fill: none; stroke: #cccccc; stroke-width: 1.5; stroke-linecap: round"/>
     </g>
     <g id="text_1">
      <!-- −1000 -->
      <g style="fill: #262626" transform="translate(203.473787 796.487187)scale(0.22 -0.22)">
       <defs>
        <path id="ArialMT-2212" d="M 3381 1997 
L 356 1997 
L 356 2522 
L 3381 2522 
L 3381 1997 
z
" transform="scale(0.015625)"/>
        <path id="ArialMT-31" d="M 2384 0 
L 1822 0 
L 1822 3584 
Q 1619 3391 1289 3197 
Q 959 3003 697 2906 
L 697 3450 
Q 1169 3672 1522 3987 
Q 1875 4303 2022 4600 
L 2384 4600 
L 2384 0 
z
" transform="scale(0.015625)"/>
        <path id="ArialMT-30" d="M 266 2259 
Q 266 3072 433 3567 
Q 600 4063 929 4331 
Q 1259 4600 1759 4600 
Q 2128 4600 2406 4451 
Q 2684 4303 2865 4023 
Q 3047 3744 3150 3342 
Q 3253 2941 3253 2259 
Q 3253 1453 3087 958 
Q 2922 463 2592 192 
Q 2263 -78 1759 -78 
Q 1097 -78 719 397 
Q 266 969 266 2259 
z
M 844 2259 
Q 844 1131 1108 757 
Q 1372 384 1759 384 
Q 2147 384 2411 759 
Q 2675 1134 2675 2259 
Q 2675 3391 2411 3762 
Q 2147 4134 1753 4134 
Q 1366 4134 1134 3806 
Q 844 3388 844 2259 
z
" transform="scale(0.015625)"/>
       </defs>
       <use xlink:href="#ArialMT-2212"/>
       <use xlink:href="#ArialMT-31" x="58.398438"/>
       <use xlink:href="#ArialMT-30" x="114.013672"/>
       <use xlink:href="#ArialMT-30" x="169.628906"/>
       <use xlink:href="#ArialMT-30" x="225.244141"/>
      </g>
     </g>
    </g>
    <g id="xtick_2">
     <g id="line2d_2">
      <path d="M 368.62842 768.24 
L 368.62842 7.2 
" clip-path="url(#p93600f6c1a)" style="fill: none; stroke: #cccccc; stroke-width: 1.5; stroke-linecap: round"/>
     </g>
     <g id="text_2">
      <!-- −750 -->
      <g style="fill: #262626" transform="translate(343.852639 796.487187)scale(0.22 -0.22)">
       <defs>
        <path id="ArialMT-37" d="M 303 3981 
L 303 4522 
L 3269 4522 
L 3269 4084 
Q 2831 3619 2401 2847 
Q 1972 2075 1738 1259 
Q 1569 684 1522 0 
L 944 0 
Q 953 541 1156 1306 
Q 1359 2072 1739 2783 
Q 2119 3494 2547 3981 
L 303 3981 
z
" transform="scale(0.015625)"/>
        <path id="ArialMT-35" d="M 266 1200 
L 856 1250 
Q 922 819 1161 601 
Q 1400 384 1738 384 
Q 2144 384 2425 690 
Q 2706 997 2706 1503 
Q 2706 1984 2436 2262 
Q 2166 2541 1728 2541 
Q 1456 2541 1237 2417 
Q 1019 2294 894 2097 
L 366 2166 
L 809 4519 
L 3088 4519 
L 3088 3981 
L 1259 3981 
L 1013 2750 
Q 1425 3038 1878 3038 
Q 2478 3038 2890 2622 
Q 3303 2206 3303 1553 
Q 3303 931 2941 478 
Q 2500 -78 1738 -78 
Q 1113 -78 717 272 
Q 322 622 266 1200 
z
" transform="scale(0.015625)"/>
       </defs>
       <use xlink:href="#ArialMT-2212"/>
       <use xlink:href="#ArialMT-37" x="58.398438"/>
       <use xlink:href="#ArialMT-35" x="114.013672"/>
       <use xlink:href="#ArialMT-30" x="169.628906"/>
      </g>
     </g>
    </g>
    <g id="xtick_3">
     <g id="line2d_3">
      <path d="M 502.890241 768.24 
L 502.890241 7.2 
" clip-path="url(#p93600f6c1a)" style="fill: none; stroke: #cccccc; stroke-width: 1.5; stroke-linecap: round"/>
     </g>
     <g id="text_3">
      <!-- −500 -->
      <g style="fill: #262626" transform="translate(478.11446 796.487187)scale(0.22 -0.22)">
       <use xlink:href="#ArialMT-2212"/>
       <use xlink:href="#ArialMT-35" x="58.398438"/>
       <use xlink:href="#ArialMT-30" x="114.013672"/>
       <use xlink:href="#ArialMT-30" x="169.628906"/>
      </g>
     </g>
    </g>
    <g id="xtick_4">
     <g id="line2d_4">
      <path d="M 637.152062 768.24 
L 637.152062 7.2 
" clip-path="url(#p93600f6c1a)" style="fill: none; stroke: #cccccc; stroke-width: 1.5; stroke-linecap: round"/>
     </g>
     <g id="text_4">
      <!-- −250 -->
      <g style="fill: #262626" transform="translate(612.376281 796.487187)scale(0.22 -0.22)">
       <defs>
        <path id="ArialMT-32" d="M 3222 541 
L 3222 0 
L 194 0 
Q 188 203 259 391 
Q 375 700 629 1000 
Q 884 1300 1366 1694 
Q 2113 2306 2375 2664 
Q 2638 3022 2638 3341 
Q 2638 3675 2398 3904 
Q 2159 4134 1775 4134 
Q 1369 4134 1125 3890 
Q 881 3647 878 3216 
L 300 3275 
Q 359 3922 746 4261 
Q 1134 4600 1788 4600 
Q 2447 4600 2831 4234 
Q 3216 3869 3216 3328 
Q 3216 3053 3103 2787 
Q 2991 2522 2730 2228 
Q 2469 1934 1863 1422 
Q 1356 997 1212 845 
Q 1069 694 975 541 
L 3222 541 
z
" transform="scale(0.015625)"/>
       </defs>
       <use xlink:href="#ArialMT-2212"/>
       <use xlink:href="#ArialMT-32" x="58.398438"/>
       <use xlink:href="#ArialMT-35" x="114.013672"/>
       <use xlink:href="#ArialMT-30" x="169.628906"/>
      </g>
     </g>
    </g>
    <g id="xtick_5">
     <g id="line2d_5">
      <path d="M 771.413883 768.24 
L 771.413883 7.2 
" clip-path="url(#p93600f6c1a)" style="fill: none; stroke: #cccccc; stroke-width: 1.5; stroke-linecap: round"/>
     </g>
     <g id="text_5">
      <!-- 0 -->
      <g style="fill: #262626" transform="translate(765.296852 796.487187)scale(0.22 -0.22)">
       <use xlink:href="#ArialMT-30"/>
      </g>
     </g>
    </g>
    <g id="xtick_6">
     <g id="line2d_6">
      <path d="M 905.675704 768.24 
L 905.675704 7.2 
" clip-path="url(#p93600f6c1a)" style="fill: none; stroke: #cccccc; stroke-width: 1.5; stroke-linecap: round"/>
     </g>
     <g id="text_6">
      <!-- 250 -->
      <g style="fill: #262626" transform="translate(887.324611 796.487187)scale(0.22 -0.22)">
       <use xlink:href="#ArialMT-32"/>
       <use xlink:href="#ArialMT-35" x="55.615234"/>
       <use xlink:href="#ArialMT-30" x="111.230469"/>
      </g>
     </g>
    </g>
    <g id="xtick_7">
     <g id="line2d_7">
      <path d="M 1039.937525 768.24 
L 1039.937525 7.2 
" clip-path="url(#p93600f6c1a)" style="fill: none; stroke: #cccccc; stroke-width: 1.5; stroke-linecap: round"/>
     </g>
     <g id="text_7">
      <!-- 500 -->
      <g style="fill: #262626" transform="translate(1021.586432 796.487187)scale(0.22 -0.22)">
       <use xlink:href="#ArialMT-35"/>
       <use xlink:href="#ArialMT-30" x="55.615234"/>
       <use xlink:href="#ArialMT-30" x="111.230469"/>
      </g>
     </g>
    </g>
    <g id="xtick_8">
     <g id="line2d_8">
      <path d="M 1174.199346 768.24 
L 1174.199346 7.2 
" clip-path="url(#p93600f6c1a)" style="fill: none; stroke: #cccccc; stroke-width: 1.5; stroke-linecap: round"/>
     </g>
     <g id="text_8">
      <!-- 750 -->
      <g style="fill: #262626" transform="translate(1155.848253 796.487187)scale(0.22 -0.22)">
       <use xlink:href="#ArialMT-37"/>
       <use xlink:href="#ArialMT-35" x="55.615234"/>
       <use xlink:href="#ArialMT-30" x="111.230469"/>
      </g>
     </g>
    </g>
    <g id="text_9">
     <!-- Potential INEXUS in dollar -->
     <g style="fill: #262626" transform="translate(504.10375 827.764687)scale(0.32 -0.32)">
      <defs>
       <path id="ArialMT-50" d="M 494 0 
L 494 4581 
L 2222 4581 
Q 2678 4581 2919 4538 
Q 3256 4481 3484 4323 
Q 3713 4166 3852 3881 
Q 3991 3597 3991 3256 
Q 3991 2672 3619 2267 
Q 3247 1863 2275 1863 
L 1100 1863 
L 1100 0 
L 494 0 
z
M 1100 2403 
L 2284 2403 
Q 2872 2403 3119 2622 
Q 3366 2841 3366 3238 
Q 3366 3525 3220 3729 
Q 3075 3934 2838 4000 
Q 2684 4041 2272 4041 
L 1100 4041 
L 1100 2403 
z
" transform="scale(0.015625)"/>
       <path id="ArialMT-6f" d="M 213 1659 
Q 213 2581 725 3025 
Q 1153 3394 1769 3394 
Q 2453 3394 2887 2945 
Q 3322 2497 3322 1706 
Q 3322 1066 3130 698 
Q 2938 331 2570 128 
Q 2203 -75 1769 -75 
Q 1072 -75 642 372 
Q 213 819 213 1659 
z
M 791 1659 
Q 791 1022 1069 705 
Q 1347 388 1769 388 
Q 2188 388 2466 706 
Q 2744 1025 2744 1678 
Q 2744 2294 2464 2611 
Q 2184 2928 1769 2928 
Q 1347 2928 1069 2612 
Q 791 2297 791 1659 
z
" transform="scale(0.015625)"/>
       <path id="ArialMT-74" d="M 1650 503 
L 1731 6 
Q 1494 -44 1306 -44 
Q 1000 -44 831 53 
Q 663 150 594 308 
Q 525 466 525 972 
L 525 2881 
L 113 2881 
L 113 3319 
L 525 3319 
L 525 4141 
L 1084 4478 
L 1084 3319 
L 1650 3319 
L 1650 2881 
L 1084 2881 
L 1084 941 
Q 1084 700 1114 631 
Q 1144 563 1211 522 
Q 1278 481 1403 481 
Q 1497 481 1650 503 
z
" transform="scale(0.015625)"/>
       <path id="ArialMT-65" d="M 2694 1069 
L 3275 997 
Q 3138 488 2766 206 
Q 2394 -75 1816 -75 
Q 1088 -75 661 373 
Q 234 822 234 1631 
Q 234 2469 665 2931 
Q 1097 3394 1784 3394 
Q 2450 3394 2872 2941 
Q 3294 2488 3294 1666 
Q 3294 1616 3291 1516 
L 816 1516 
Q 847 969 1125 678 
Q 1403 388 1819 388 
Q 2128 388 2347 550 
Q 2566 713 2694 1069 
z
M 847 1978 
L 2700 1978 
Q 2663 2397 2488 2606 
Q 2219 2931 1791 2931 
Q 1403 2931 1139 2672 
Q 875 2413 847 1978 
z
" transform="scale(0.015625)"/>
       <path id="ArialMT-6e" d="M 422 0 
L 422 3319 
L 928 3319 
L 928 2847 
Q 1294 3394 1984 3394 
Q 2284 3394 2536 3286 
Q 2788 3178 2913 3003 
Q 3038 2828 3088 2588 
Q 3119 2431 3119 2041 
L 3119 0 
L 2556 0 
L 2556 2019 
Q 2556 2363 2490 2533 
Q 2425 2703 2258 2804 
Q 2091 2906 1866 2906 
Q 1506 2906 1245 2678 
Q 984 2450 984 1813 
L 984 0 
L 422 0 
z
" transform="scale(0.015625)"/>
       <path id="ArialMT-69" d="M 425 3934 
L 425 4581 
L 988 4581 
L 988 3934 
L 425 3934 
z
M 425 0 
L 425 3319 
L 988 3319 
L 988 0 
L 425 0 
z
" transform="scale(0.015625)"/>
       <path id="ArialMT-61" d="M 2588 409 
Q 2275 144 1986 34 
Q 1697 -75 1366 -75 
Q 819 -75 525 192 
Q 231 459 231 875 
Q 231 1119 342 1320 
Q 453 1522 633 1644 
Q 813 1766 1038 1828 
Q 1203 1872 1538 1913 
Q 2219 1994 2541 2106 
Q 2544 2222 2544 2253 
Q 2544 2597 2384 2738 
Q 2169 2928 1744 2928 
Q 1347 2928 1158 2789 
Q 969 2650 878 2297 
L 328 2372 
Q 403 2725 575 2942 
Q 747 3159 1072 3276 
Q 1397 3394 1825 3394 
Q 2250 3394 2515 3294 
Q 2781 3194 2906 3042 
Q 3031 2891 3081 2659 
Q 3109 2516 3109 2141 
L 3109 1391 
Q 3109 606 3145 398 
Q 3181 191 3288 0 
L 2700 0 
Q 2613 175 2588 409 
z
M 2541 1666 
Q 2234 1541 1622 1453 
Q 1275 1403 1131 1340 
Q 988 1278 909 1158 
Q 831 1038 831 891 
Q 831 666 1001 516 
Q 1172 366 1500 366 
Q 1825 366 2078 508 
Q 2331 650 2450 897 
Q 2541 1088 2541 1459 
L 2541 1666 
z
" transform="scale(0.015625)"/>
       <path id="ArialMT-6c" d="M 409 0 
L 409 4581 
L 972 4581 
L 972 0 
L 409 0 
z
" transform="scale(0.015625)"/>
       <path id="ArialMT-20" transform="scale(0.015625)"/>
       <path id="ArialMT-49" d="M 597 0 
L 597 4581 
L 1203 4581 
L 1203 0 
L 597 0 
z
" transform="scale(0.015625)"/>
       <path id="ArialMT-4e" d="M 488 0 
L 488 4581 
L 1109 4581 
L 3516 984 
L 3516 4581 
L 4097 4581 
L 4097 0 
L 3475 0 
L 1069 3600 
L 1069 0 
L 488 0 
z
" transform="scale(0.015625)"/>
       <path id="ArialMT-45" d="M 506 0 
L 506 4581 
L 3819 4581 
L 3819 4041 
L 1113 4041 
L 1113 2638 
L 3647 2638 
L 3647 2100 
L 1113 2100 
L 1113 541 
L 3925 541 
L 3925 0 
L 506 0 
z
" transform="scale(0.015625)"/>
       <path id="ArialMT-58" d="M 28 0 
L 1800 2388 
L 238 4581 
L 959 4581 
L 1791 3406 
Q 2050 3041 2159 2844 
Q 2313 3094 2522 3366 
L 3444 4581 
L 4103 4581 
L 2494 2422 
L 4228 0 
L 3478 0 
L 2325 1634 
Q 2228 1775 2125 1941 
Q 1972 1691 1906 1597 
L 756 0 
L 28 0 
z
" transform="scale(0.015625)"/>
       <path id="ArialMT-55" d="M 3500 4581 
L 4106 4581 
L 4106 1934 
Q 4106 1244 3950 837 
Q 3794 431 3386 176 
Q 2978 -78 2316 -78 
Q 1672 -78 1262 144 
Q 853 366 678 786 
Q 503 1206 503 1934 
L 503 4581 
L 1109 4581 
L 1109 1938 
Q 1109 1341 1220 1058 
Q 1331 775 1601 622 
Q 1872 469 2263 469 
Q 2931 469 3215 772 
Q 3500 1075 3500 1938 
L 3500 4581 
z
" transform="scale(0.015625)"/>
       <path id="ArialMT-53" d="M 288 1472 
L 859 1522 
Q 900 1178 1048 958 
Q 1197 738 1509 602 
Q 1822 466 2213 466 
Q 2559 466 2825 569 
Q 3091 672 3220 851 
Q 3350 1031 3350 1244 
Q 3350 1459 3225 1620 
Q 3100 1781 2813 1891 
Q 2628 1963 1997 2114 
Q 1366 2266 1113 2400 
Q 784 2572 623 2826 
Q 463 3081 463 3397 
Q 463 3744 659 4045 
Q 856 4347 1234 4503 
Q 1613 4659 2075 4659 
Q 2584 4659 2973 4495 
Q 3363 4331 3572 4012 
Q 3781 3694 3797 3291 
L 3216 3247 
Q 3169 3681 2898 3903 
Q 2628 4125 2100 4125 
Q 1550 4125 1298 3923 
Q 1047 3722 1047 3438 
Q 1047 3191 1225 3031 
Q 1400 2872 2139 2705 
Q 2878 2538 3153 2413 
Q 3553 2228 3743 1945 
Q 3934 1663 3934 1294 
Q 3934 928 3725 604 
Q 3516 281 3123 101 
Q 2731 -78 2241 -78 
Q 1619 -78 1198 103 
Q 778 284 539 648 
Q 300 1013 288 1472 
z
" transform="scale(0.015625)"/>
       <path id="ArialMT-64" d="M 2575 0 
L 2575 419 
Q 2259 -75 1647 -75 
Q 1250 -75 917 144 
Q 584 363 401 755 
Q 219 1147 219 1656 
Q 219 2153 384 2558 
Q 550 2963 881 3178 
Q 1213 3394 1622 3394 
Q 1922 3394 2156 3267 
Q 2391 3141 2538 2938 
L 2538 4581 
L 3097 4581 
L 3097 0 
L 2575 0 
z
M 797 1656 
Q 797 1019 1065 703 
Q 1334 388 1700 388 
Q 2069 388 2326 689 
Q 2584 991 2584 1609 
Q 2584 2291 2321 2609 
Q 2059 2928 1675 2928 
Q 1300 2928 1048 2622 
Q 797 2316 797 1656 
z
" transform="scale(0.015625)"/>
       <path id="ArialMT-72" d="M 416 0 
L 416 3319 
L 922 3319 
L 922 2816 
Q 1116 3169 1280 3281 
Q 1444 3394 1641 3394 
Q 1925 3394 2219 3213 
L 2025 2691 
Q 1819 2813 1613 2813 
Q 1428 2813 1281 2702 
Q 1134 2591 1072 2394 
Q 978 2094 978 1738 
L 978 0 
L 416 0 
z
" transform="scale(0.015625)"/>
      </defs>
      <use xlink:href="#ArialMT-50"/>
      <use xlink:href="#ArialMT-6f" x="66.699219"/>
      <use xlink:href="#ArialMT-74" x="122.314453"/>
      <use xlink:href="#ArialMT-65" x="150.097656"/>
      <use xlink:href="#ArialMT-6e" x="205.712891"/>
      <use xlink:href="#ArialMT-74" x="261.328125"/>
      <use xlink:href="#ArialMT-69" x="289.111328"/>
      <use xlink:href="#ArialMT-61" x="311.328125"/>
      <use xlink:href="#ArialMT-6c" x="366.943359"/>
      <use xlink:href="#ArialMT-20" x="389.160156"/>
      <use xlink:href="#ArialMT-49" x="416.943359"/>
      <use xlink:href="#ArialMT-4e" x="444.726562"/>
      <use xlink:href="#ArialMT-45" x="516.943359"/>
      <use xlink:href="#ArialMT-58" x="583.642578"/>
      <use xlink:href="#ArialMT-55" x="650.341797"/>
      <use xlink:href="#ArialMT-53" x="722.558594"/>
      <use xlink:href="#ArialMT-20" x="789.257812"/>
      <use xlink:href="#ArialMT-69" x="817.041016"/>
      <use xlink:href="#ArialMT-6e" x="839.257812"/>
      <use xlink:href="#ArialMT-20" x="894.873047"/>
      <use xlink:href="#ArialMT-64" x="922.65625"/>
      <use xlink:href="#ArialMT-6f" x="978.271484"/>
      <use xlink:href="#ArialMT-6c" x="1033.886719"/>
      <use xlink:href="#ArialMT-6c" x="1056.103516"/>
      <use xlink:href="#ArialMT-61" x="1078.320312"/>
      <use xlink:href="#ArialMT-72" x="1133.935547"/>
     </g>
    </g>
   </g>
   <g id="matplotlib.axis_2">
    <g id="ytick_1">
     <g id="line2d_9">
      <path d="M 132.85625 768.24 
L 1248.85625 768.24 
" clip-path="url(#p93600f6c1a)" style="fill: none; stroke: #cccccc; stroke-width: 1.5; stroke-linecap: round"/>
     </g>
     <g id="text_10">
      <!-- 0.00000 -->
      <g style="fill: #262626" transform="translate(40.84 776.113594)scale(0.22 -0.22)">
       <defs>
        <path id="ArialMT-2e" d="M 581 0 
L 581 641 
L 1222 641 
L 1222 0 
L 581 0 
z
" transform="scale(0.015625)"/>
       </defs>
       <use xlink:href="#ArialMT-30"/>
       <use xlink:href="#ArialMT-2e" x="55.615234"/>
       <use xlink:href="#ArialMT-30" x="83.398438"/>
       <use xlink:href="#ArialMT-30" x="139.013672"/>
       <use xlink:href="#ArialMT-30" x="194.628906"/>
       <use xlink:href="#ArialMT-30" x="250.244141"/>
       <use xlink:href="#ArialMT-30" x="305.859375"/>
      </g>
     </g>
    </g>
    <g id="ytick_2">
     <g id="line2d_10">
      <path d="M 132.85625 666.090021 
L 1248.85625 666.090021 
" clip-path="url(#p93600f6c1a)" style="fill: none; stroke: #cccccc; stroke-width: 1.5; stroke-linecap: round"/>
     </g>
     <g id="text_11">
      <!-- 0.00025 -->
      <g style="fill: #262626" transform="translate(40.84 673.963615)scale(0.22 -0.22)">
       <use xlink:href="#ArialMT-30"/>
       <use xlink:href="#ArialMT-2e" x="55.615234"/>
       <use xlink:href="#ArialMT-30" x="83.398438"/>
       <use xlink:href="#ArialMT-30" x="139.013672"/>
       <use xlink:href="#ArialMT-30" x="194.628906"/>
       <use xlink:href="#ArialMT-32" x="250.244141"/>
       <use xlink:href="#ArialMT-35" x="305.859375"/>
      </g>
     </g>
    </g>
    <g id="ytick_3">
     <g id="line2d_11">
      <path d="M 132.85625 563.940042 
L 1248.85625 563.940042 
" clip-path="url(#p93600f6c1a)" style="fill: none; stroke: #cccccc; stroke-width: 1.5; stroke-linecap: round"/>
     </g>
     <g id="text_12">
      <!-- 0.00050 -->
      <g style="fill: #262626" transform="translate(40.84 571.813635)scale(0.22 -0.22)">
       <use xlink:href="#ArialMT-30"/>
       <use xlink:href="#ArialMT-2e" x="55.615234"/>
       <use xlink:href="#ArialMT-30" x="83.398438"/>
       <use xlink:href="#ArialMT-30" x="139.013672"/>
       <use xlink:href="#ArialMT-30" x="194.628906"/>
       <use xlink:href="#ArialMT-35" x="250.244141"/>
       <use xlink:href="#ArialMT-30" x="305.859375"/>
      </g>
     </g>
    </g>
    <g id="ytick_4">
     <g id="line2d_12">
      <path d="M 132.85625 461.790063 
L 1248.85625 461.790063 
" clip-path="url(#p93600f6c1a)" style="fill: none; stroke: #cccccc; stroke-width: 1.5; stroke-linecap: round"/>
     </g>
     <g id="text_13">
      <!-- 0.00075 -->
      <g style="fill: #262626" transform="translate(40.84 469.663656)scale(0.22 -0.22)">
       <use xlink:href="#ArialMT-30"/>
       <use xlink:href="#ArialMT-2e" x="55.615234"/>
       <use xlink:href="#ArialMT-30" x="83.398438"/>
       <use xlink:href="#ArialMT-30" x="139.013672"/>
       <use xlink:href="#ArialMT-30" x="194.628906"/>
       <use xlink:href="#ArialMT-37" x="250.244141"/>
       <use xlink:href="#ArialMT-35" x="305.859375"/>
      </g>
     </g>
    </g>
    <g id="ytick_5">
     <g id="line2d_13">
      <path d="M 132.85625 359.640083 
L 1248.85625 359.640083 
" clip-path="url(#p93600f6c1a)" style="fill: none; stroke: #cccccc; stroke-width: 1.5; stroke-linecap: round"/>
     </g>
     <g id="text_14">
      <!-- 0.00100 -->
      <g style="fill: #262626" transform="translate(40.84 367.513677)scale(0.22 -0.22)">
       <use xlink:href="#ArialMT-30"/>
       <use xlink:href="#ArialMT-2e" x="55.615234"/>
       <use xlink:href="#ArialMT-30" x="83.398438"/>
       <use xlink:href="#ArialMT-30" x="139.013672"/>
       <use xlink:href="#ArialMT-31" x="194.628906"/>
       <use xlink:href="#ArialMT-30" x="250.244141"/>
       <use xlink:href="#ArialMT-30" x="305.859375"/>
      </g>
     </g>
    </g>
    <g id="ytick_6">
     <g id="line2d_14">
      <path d="M 132.85625 257.490104 
L 1248.85625 257.490104 
" clip-path="url(#p93600f6c1a)" style="fill: none; stroke: #cccccc; stroke-width: 1.5; stroke-linecap: round"/>
     </g>
     <g id="text_15">
      <!-- 0.00125 -->
      <g style="fill: #262626" transform="translate(40.84 265.363698)scale(0.22 -0.22)">
       <use xlink:href="#ArialMT-30"/>
       <use xlink:href="#ArialMT-2e" x="55.615234"/>
       <use xlink:href="#ArialMT-30" x="83.398438"/>
       <use xlink:href="#ArialMT-30" x="139.013672"/>
       <use xlink:href="#ArialMT-31" x="194.628906"/>
       <use xlink:href="#ArialMT-32" x="250.244141"/>
       <use xlink:href="#ArialMT-35" x="305.859375"/>
      </g>
     </g>
    </g>
    <g id="ytick_7">
     <g id="line2d_15">
      <path d="M 132.85625 155.340125 
L 1248.85625 155.340125 
" clip-path="url(#p93600f6c1a)" style="fill: none; stroke: #cccccc; stroke-width: 1.5; stroke-linecap: round"/>
     </g>
     <g id="text_16">
      <!-- 0.00150 -->
      <g style="fill: #262626" transform="translate(40.84 163.213719)scale(0.22 -0.22)">
       <use xlink:href="#ArialMT-30"/>
       <use xlink:href="#ArialMT-2e" x="55.615234"/>
       <use xlink:href="#ArialMT-30" x="83.398438"/>
       <use xlink:href="#ArialMT-30" x="139.013672"/>
       <use xlink:href="#ArialMT-31" x="194.628906"/>
       <use xlink:href="#ArialMT-35" x="250.244141"/>
       <use xlink:href="#ArialMT-30" x="305.859375"/>
      </g>
     </g>
    </g>
    <g id="ytick_8">
     <g id="line2d_16">
      <path d="M 132.85625 53.190146 
L 1248.85625 53.190146 
" clip-path="url(#p93600f6c1a)" style="fill: none; stroke: #cccccc; stroke-width: 1.5; stroke-linecap: round"/>
     </g>
     <g id="text_17">
      <!-- 0.00175 -->
      <g style="fill: #262626" transform="translate(40.84 61.06374)scale(0.22 -0.22)">
       <use xlink:href="#ArialMT-30"/>
       <use xlink:href="#ArialMT-2e" x="55.615234"/>
       <use xlink:href="#ArialMT-30" x="83.398438"/>
       <use xlink:href="#ArialMT-30" x="139.013672"/>
       <use xlink:href="#ArialMT-31" x="194.628906"/>
       <use xlink:href="#ArialMT-37" x="250.244141"/>
       <use xlink:href="#ArialMT-35" x="305.859375"/>
      </g>
     </g>
    </g>
    <g id="text_18">
     <!-- Frequency Density -->
     <g style="fill: #262626" transform="translate(30.105 521.1025)rotate(-90)scale(0.32 -0.32)">
      <defs>
       <path id="ArialMT-46" d="M 525 0 
L 525 4581 
L 3616 4581 
L 3616 4041 
L 1131 4041 
L 1131 2622 
L 3281 2622 
L 3281 2081 
L 1131 2081 
L 1131 0 
L 525 0 
z
" transform="scale(0.015625)"/>
       <path id="ArialMT-71" d="M 2538 -1272 
L 2538 353 
Q 2406 169 2170 47 
Q 1934 -75 1669 -75 
Q 1078 -75 651 397 
Q 225 869 225 1691 
Q 225 2191 398 2587 
Q 572 2984 901 3189 
Q 1231 3394 1625 3394 
Q 2241 3394 2594 2875 
L 2594 3319 
L 3100 3319 
L 3100 -1272 
L 2538 -1272 
z
M 803 1669 
Q 803 1028 1072 708 
Q 1341 388 1716 388 
Q 2075 388 2334 692 
Q 2594 997 2594 1619 
Q 2594 2281 2320 2615 
Q 2047 2950 1678 2950 
Q 1313 2950 1058 2639 
Q 803 2328 803 1669 
z
" transform="scale(0.015625)"/>
       <path id="ArialMT-75" d="M 2597 0 
L 2597 488 
Q 2209 -75 1544 -75 
Q 1250 -75 995 37 
Q 741 150 617 320 
Q 494 491 444 738 
Q 409 903 409 1263 
L 409 3319 
L 972 3319 
L 972 1478 
Q 972 1038 1006 884 
Q 1059 663 1231 536 
Q 1403 409 1656 409 
Q 1909 409 2131 539 
Q 2353 669 2445 892 
Q 2538 1116 2538 1541 
L 2538 3319 
L 3100 3319 
L 3100 0 
L 2597 0 
z
" transform="scale(0.015625)"/>
       <path id="ArialMT-63" d="M 2588 1216 
L 3141 1144 
Q 3050 572 2676 248 
Q 2303 -75 1759 -75 
Q 1078 -75 664 370 
Q 250 816 250 1647 
Q 250 2184 428 2587 
Q 606 2991 970 3192 
Q 1334 3394 1763 3394 
Q 2303 3394 2647 3120 
Q 2991 2847 3088 2344 
L 2541 2259 
Q 2463 2594 2264 2762 
Q 2066 2931 1784 2931 
Q 1359 2931 1093 2626 
Q 828 2322 828 1663 
Q 828 994 1084 691 
Q 1341 388 1753 388 
Q 2084 388 2306 591 
Q 2528 794 2588 1216 
z
" transform="scale(0.015625)"/>
       <path id="ArialMT-79" d="M 397 -1278 
L 334 -750 
Q 519 -800 656 -800 
Q 844 -800 956 -737 
Q 1069 -675 1141 -563 
Q 1194 -478 1313 -144 
Q 1328 -97 1363 -6 
L 103 3319 
L 709 3319 
L 1400 1397 
Q 1534 1031 1641 628 
Q 1738 1016 1872 1384 
L 2581 3319 
L 3144 3319 
L 1881 -56 
Q 1678 -603 1566 -809 
Q 1416 -1088 1222 -1217 
Q 1028 -1347 759 -1347 
Q 597 -1347 397 -1278 
z
" transform="scale(0.015625)"/>
       <path id="ArialMT-44" d="M 494 0 
L 494 4581 
L 2072 4581 
Q 2606 4581 2888 4516 
Q 3281 4425 3559 4188 
Q 3922 3881 4101 3404 
Q 4281 2928 4281 2316 
Q 4281 1794 4159 1391 
Q 4038 988 3847 723 
Q 3656 459 3429 307 
Q 3203 156 2883 78 
Q 2563 0 2147 0 
L 494 0 
z
M 1100 541 
L 2078 541 
Q 2531 541 2789 625 
Q 3047 709 3200 863 
Q 3416 1078 3536 1442 
Q 3656 1806 3656 2325 
Q 3656 3044 3420 3430 
Q 3184 3816 2847 3947 
Q 2603 4041 2063 4041 
L 1100 4041 
L 1100 541 
z
" transform="scale(0.015625)"/>
       <path id="ArialMT-73" d="M 197 991 
L 753 1078 
Q 800 744 1014 566 
Q 1228 388 1613 388 
Q 2000 388 2187 545 
Q 2375 703 2375 916 
Q 2375 1106 2209 1216 
Q 2094 1291 1634 1406 
Q 1016 1563 777 1677 
Q 538 1791 414 1992 
Q 291 2194 291 2438 
Q 291 2659 392 2848 
Q 494 3038 669 3163 
Q 800 3259 1026 3326 
Q 1253 3394 1513 3394 
Q 1903 3394 2198 3281 
Q 2494 3169 2634 2976 
Q 2775 2784 2828 2463 
L 2278 2388 
Q 2241 2644 2061 2787 
Q 1881 2931 1553 2931 
Q 1166 2931 1000 2803 
Q 834 2675 834 2503 
Q 834 2394 903 2306 
Q 972 2216 1119 2156 
Q 1203 2125 1616 2013 
Q 2213 1853 2448 1751 
Q 2684 1650 2818 1456 
Q 2953 1263 2953 975 
Q 2953 694 2789 445 
Q 2625 197 2315 61 
Q 2006 -75 1616 -75 
Q 969 -75 630 194 
Q 291 463 197 991 
z
" transform="scale(0.015625)"/>
      </defs>
      <use xlink:href="#ArialMT-46"/>
      <use xlink:href="#ArialMT-72" x="61.083984"/>
      <use xlink:href="#ArialMT-65" x="94.384766"/>
      <use xlink:href="#ArialMT-71" x="150"/>
      <use xlink:href="#ArialMT-75" x="205.615234"/>
      <use xlink:href="#ArialMT-65" x="261.230469"/>
      <use xlink:href="#ArialMT-6e" x="316.845703"/>
      <use xlink:href="#ArialMT-63" x="372.460938"/>
      <use xlink:href="#ArialMT-79" x="422.460938"/>
      <use xlink:href="#ArialMT-20" x="472.460938"/>
      <use xlink:href="#ArialMT-44" x="500.244141"/>
      <use xlink:href="#ArialMT-65" x="572.460938"/>
      <use xlink:href="#ArialMT-6e" x="628.076172"/>
      <use xlink:href="#ArialMT-73" x="683.691406"/>
      <use xlink:href="#ArialMT-69" x="733.691406"/>
      <use xlink:href="#ArialMT-74" x="755.908203"/>
      <use xlink:href="#ArialMT-79" x="783.691406"/>
     </g>
    </g>
   </g>
   <g id="PolyCollection_1">
    <defs>
     <path id="me7eb8a9677" d="M 183.583523 -73.602374 
L 183.583523 -73.084688 
L 188.681741 -73.084688 
L 193.779959 -73.084688 
L 198.878178 -73.084688 
L 203.976396 -73.084688 
L 209.074615 -73.084688 
L 214.172833 -73.084688 
L 219.271051 -73.084688 
L 224.36927 -73.084688 
L 229.467488 -73.084688 
L 234.565706 -73.084688 
L 239.663925 -73.084688 
L 244.762143 -73.084688 
L 249.860361 -73.084688 
L 254.95858 -73.084688 
L 260.056798 -73.084688 
L 265.155017 -73.084688 
L 270.253235 -73.084688 
L 275.351453 -73.084688 
L 280.449672 -73.084688 
L 285.54789 -73.084688 
L 290.646108 -73.084688 
L 295.744327 -73.084688 
L 300.842545 -73.084688 
L 305.940763 -73.084688 
L 311.038982 -73.084688 
L 316.1372 -73.084688 
L 321.235419 -73.084688 
L 326.333637 -73.084688 
L 331.431855 -73.084688 
L 336.530074 -73.084688 
L 341.628292 -73.084688 
L 346.72651 -73.084688 
L 351.824729 -73.084688 
L 356.922947 -73.084688 
L 362.021165 -73.084688 
L 367.119384 -73.084688 
L 372.217602 -73.084688 
L 377.315821 -73.084688 
L 382.414039 -73.084688 
L 387.512257 -73.084688 
L 392.610476 -73.084688 
L 397.708694 -73.084688 
L 402.806912 -73.084688 
L 407.905131 -73.084688 
L 413.003349 -73.084688 
L 418.101567 -73.084688 
L 423.199786 -73.084688 
L 428.298004 -73.084688 
L 433.396223 -73.084688 
L 438.494441 -73.084688 
L 443.592659 -73.084688 
L 448.690878 -73.084688 
L 453.789096 -73.084688 
L 458.887314 -73.084688 
L 463.985533 -73.084688 
L 469.083751 -73.084688 
L 474.18197 -73.084688 
L 479.280188 -73.084688 
L 484.378406 -73.084688 
L 489.476625 -73.084688 
L 494.574843 -73.084688 
L 499.673061 -73.084688 
L 504.77128 -73.084688 
L 509.869498 -73.084688 
L 514.967716 -73.084688 
L 520.065935 -73.084688 
L 525.164153 -73.084688 
L 530.262372 -73.084688 
L 535.36059 -73.084688 
L 540.458808 -73.084688 
L 545.557027 -73.084688 
L 550.655245 -73.084688 
L 555.753463 -73.084688 
L 560.851682 -73.084688 
L 565.9499 -73.084688 
L 571.048118 -73.084688 
L 576.146337 -73.084688 
L 581.244555 -73.084688 
L 586.342774 -73.084688 
L 591.440992 -73.084688 
L 596.53921 -73.084688 
L 601.637429 -73.084688 
L 606.735647 -73.084688 
L 611.833865 -73.084688 
L 616.932084 -73.084688 
L 622.030302 -73.084688 
L 627.12852 -73.084688 
L 632.226739 -73.084688 
L 637.324957 -73.084688 
L 642.423176 -73.084688 
L 647.521394 -73.084688 
L 652.619612 -73.084688 
L 657.717831 -73.084688 
L 662.816049 -73.084688 
L 667.914267 -73.084688 
L 673.012486 -73.084688 
L 678.110704 -73.084688 
L 683.208922 -73.084688 
L 688.307141 -73.084688 
L 693.405359 -73.084688 
L 698.503578 -73.084688 
L 703.601796 -73.084688 
L 708.700014 -73.084688 
L 713.798233 -73.084688 
L 718.896451 -73.084688 
L 723.994669 -73.084688 
L 729.092888 -73.084688 
L 734.191106 -73.084688 
L 739.289324 -73.084688 
L 744.387543 -73.084688 
L 749.485761 -73.084688 
L 754.58398 -73.084688 
L 759.682198 -73.084688 
L 764.780416 -73.084688 
L 769.878635 -73.084688 
L 774.976853 -73.084688 
L 780.075071 -73.084688 
L 785.17329 -73.084688 
L 790.271508 -73.084688 
L 795.369726 -73.084688 
L 800.467945 -73.084688 
L 805.566163 -73.084688 
L 810.664382 -73.084688 
L 815.7626 -73.084688 
L 820.860818 -73.084688 
L 825.959037 -73.084688 
L 831.057255 -73.084688 
L 836.155473 -73.084688 
L 841.253692 -73.084688 
L 846.35191 -73.084688 
L 851.450128 -73.084688 
L 856.548347 -73.084688 
L 861.646565 -73.084688 
L 866.744784 -73.084688 
L 871.843002 -73.084688 
L 876.94122 -73.084688 
L 882.039439 -73.084688 
L 887.137657 -73.084688 
L 892.235875 -73.084688 
L 897.334094 -73.084688 
L 902.432312 -73.084688 
L 907.53053 -73.084688 
L 912.628749 -73.084688 
L 917.726967 -73.084688 
L 922.825186 -73.084688 
L 927.923404 -73.084688 
L 933.021622 -73.084688 
L 938.119841 -73.084688 
L 943.218059 -73.084688 
L 948.316277 -73.084688 
L 953.414496 -73.084688 
L 958.512714 -73.084688 
L 963.610933 -73.084688 
L 968.709151 -73.084688 
L 973.807369 -73.084688 
L 978.905588 -73.084688 
L 984.003806 -73.084688 
L 989.102024 -73.084688 
L 994.200243 -73.084688 
L 999.298461 -73.084688 
L 1004.396679 -73.084688 
L 1009.494898 -73.084688 
L 1014.593116 -73.084688 
L 1019.691335 -73.084688 
L 1024.789553 -73.084688 
L 1029.887771 -73.084688 
L 1034.98599 -73.084688 
L 1040.084208 -73.084688 
L 1045.182426 -73.084688 
L 1050.280645 -73.084688 
L 1055.378863 -73.084688 
L 1060.477081 -73.084688 
L 1065.5753 -73.084688 
L 1070.673518 -73.084688 
L 1075.771737 -73.084688 
L 1080.869955 -73.084688 
L 1085.968173 -73.084688 
L 1091.066392 -73.084688 
L 1096.16461 -73.084688 
L 1101.262828 -73.084688 
L 1106.361047 -73.084688 
L 1111.459265 -73.084688 
L 1116.557483 -73.084688 
L 1121.655702 -73.084688 
L 1126.75392 -73.084688 
L 1131.852139 -73.084688 
L 1136.950357 -73.084688 
L 1142.048575 -73.084688 
L 1147.146794 -73.084688 
L 1152.245012 -73.084688 
L 1157.34323 -73.084688 
L 1162.441449 -73.084688 
L 1167.539667 -73.084688 
L 1172.637885 -73.084688 
L 1177.736104 -73.084688 
L 1182.834322 -73.084688 
L 1187.932541 -73.084688 
L 1193.030759 -73.084688 
L 1198.128977 -73.084688 
L 1198.128977 -73.605494 
L 1198.128977 -73.605494 
L 1193.030759 -73.695269 
L 1187.932541 -73.799043 
L 1182.834322 -73.918736 
L 1177.736104 -74.056486 
L 1172.637885 -74.21467 
L 1167.539667 -74.395922 
L 1162.441449 -74.603153 
L 1157.34323 -74.839569 
L 1152.245012 -75.108692 
L 1147.146794 -75.414382 
L 1142.048575 -75.760853 
L 1136.950357 -76.152694 
L 1131.852139 -76.594887 
L 1126.75392 -77.092825 
L 1121.655702 -77.652328 
L 1116.557483 -78.279652 
L 1111.459265 -78.98151 
L 1106.361047 -79.765072 
L 1101.262828 -80.637979 
L 1096.16461 -81.608342 
L 1091.066392 -82.684741 
L 1085.968173 -83.876226 
L 1080.869955 -85.192301 
L 1075.771737 -86.642916 
L 1070.673518 -88.238445 
L 1065.5753 -89.989664 
L 1060.477081 -91.907721 
L 1055.378863 -94.004097 
L 1050.280645 -96.29057 
L 1045.182426 -98.779163 
L 1040.084208 -101.48209 
L 1034.98599 -104.411696 
L 1029.887771 -107.580394 
L 1024.789553 -111.000585 
L 1019.691335 -114.684588 
L 1014.593116 -118.644549 
L 1009.494898 -122.892358 
L 1004.396679 -127.439552 
L 999.298461 -132.297218 
L 994.200243 -137.475896 
L 989.102024 -142.985471 
L 984.003806 -148.83507 
L 978.905588 -155.032956 
L 973.807369 -161.586422 
L 968.709151 -168.501687 
L 963.610933 -175.783786 
L 958.512714 -183.436479 
L 953.414496 -191.462145 
L 948.316277 -199.861696 
L 943.218059 -208.634489 
L 938.119841 -217.778243 
L 933.021622 -227.288974 
L 927.923404 -237.160926 
L 922.825186 -247.386522 
L 917.726967 -257.956319 
L 912.628749 -268.858976 
L 907.53053 -280.081236 
L 902.432312 -291.607914 
L 897.334094 -303.42191 
L 892.235875 -315.504217 
L 887.137657 -327.833962 
L 882.039439 -340.388446 
L 876.94122 -353.143203 
L 871.843002 -366.072074 
L 866.744784 -379.14729 
L 861.646565 -392.339572 
L 856.548347 -405.618239 
L 851.450128 -418.951333 
L 846.35191 -432.305749 
L 841.253692 -445.64738 
L 836.155473 -458.941267 
L 831.057255 -472.151764 
L 825.959037 -485.242702 
L 820.860818 -498.177563 
L 815.7626 -510.91966 
L 810.664382 -523.432316 
L 805.566163 -535.679051 
L 800.467945 -547.623763 
L 795.369726 -559.230913 
L 790.271508 -570.465706 
L 785.17329 -581.294268 
L 780.075071 -591.683817 
L 774.976853 -601.602833 
L 769.878635 -611.02121 
L 764.780416 -619.910412 
L 759.682198 -628.24361 
L 754.58398 -635.995807 
L 749.485761 -643.14396 
L 744.387543 -649.667081 
L 739.289324 -655.546328 
L 734.191106 -660.765081 
L 729.092888 -665.309005 
L 723.994669 -669.166098 
L 718.896451 -672.326725 
L 713.798233 -674.783634 
L 708.700014 -676.531967 
L 703.601796 -677.569242 
L 698.503578 -677.89534 
L 693.405359 -677.512464 
L 688.307141 -676.425092 
L 683.208922 -674.639924 
L 678.110704 -672.165806 
L 673.012486 -669.013661 
L 667.914267 -665.196395 
L 662.816049 -660.728809 
L 657.717831 -655.6275 
L 652.619612 -649.910754 
L 647.521394 -643.598439 
L 642.423176 -636.711893 
L 637.324957 -629.273813 
L 632.226739 -621.308136 
L 627.12852 -612.839927 
L 622.030302 -603.895262 
L 616.932084 -594.501112 
L 611.833865 -584.685234 
L 606.735647 -574.476052 
L 601.637429 -563.902557 
L 596.53921 -552.994188 
L 591.440992 -541.780737 
L 586.342774 -530.292239 
L 581.244555 -518.558876 
L 576.146337 -506.610876 
L 571.048118 -494.478419 
L 565.9499 -482.191546 
L 560.851682 -469.780063 
L 555.753463 -457.273456 
L 550.655245 -444.700805 
L 545.557027 -432.090695 
L 540.458808 -419.471142 
L 535.36059 -406.869502 
L 530.262372 -394.312403 
L 525.164153 -381.825663 
L 520.065935 -369.434221 
L 514.967716 -357.162065 
L 509.869498 -345.032167 
L 504.77128 -333.066419 
L 499.673061 -321.285571 
L 494.574843 -309.709183 
L 489.476625 -298.35557 
L 484.378406 -287.241756 
L 479.280188 -276.383442 
L 474.18197 -265.794965 
L 469.083751 -255.489278 
L 463.985533 -245.477928 
L 458.887314 -235.771042 
L 453.789096 -226.377327 
L 448.690878 -217.304069 
L 443.592659 -208.557144 
L 438.494441 -200.141038 
L 433.396223 -192.058871 
L 428.298004 -184.312432 
L 423.199786 -176.902216 
L 418.101567 -169.827476 
L 413.003349 -163.086271 
L 407.905131 -156.675533 
L 402.806912 -150.591123 
L 397.708694 -144.827907 
L 392.610476 -139.379827 
L 387.512257 -134.239977 
L 382.414039 -129.400686 
L 377.315821 -124.853593 
L 372.217602 -120.589735 
L 367.119384 -116.599624 
L 362.021165 -112.873334 
L 356.922947 -109.400577 
L 351.824729 -106.170786 
L 346.72651 -103.173187 
L 341.628292 -100.396875 
L 336.530074 -97.830881 
L 331.431855 -95.464242 
L 326.333637 -93.286057 
L 321.235419 -91.285548 
L 316.1372 -89.452107 
L 311.038982 -87.775348 
L 305.940763 -86.245145 
L 300.842545 -84.851668 
L 295.744327 -83.585415 
L 290.646108 -82.43724 
L 285.54789 -81.39837 
L 280.449672 -80.460428 
L 275.351453 -79.615437 
L 270.253235 -78.855834 
L 265.155017 -78.174473 
L 260.056798 -77.564624 
L 254.95858 -77.01997 
L 249.860361 -76.534605 
L 244.762143 -76.103019 
L 239.663925 -75.720096 
L 234.565706 -75.381093 
L 229.467488 -75.081633 
L 224.36927 -74.817686 
L 219.271051 -74.585552 
L 214.172833 -74.38185 
L 209.074615 -74.20349 
L 203.976396 -74.047667 
L 198.878178 -73.911834 
L 193.779959 -73.793689 
L 188.681741 -73.691158 
L 183.583523 -73.602374 
z
" style="stroke: #841e5a; stroke-width: 5"/>
    </defs>
    <g clip-path="url(#p93600f6c1a)">
     <use xlink:href="#me7eb8a9677" x="0" y="841.324687" style="fill: #841e5a; fill-opacity: 0.1; stroke: #841e5a; stroke-width: 5"/>
    </g>
   </g>
   <g id="PolyCollection_2">
    <defs>
     <path id="ma20b85e4e4" d="M 238.43896 -73.37345 
L 238.43896 -73.084688 
L 242.985867 -73.084688 
L 247.532773 -73.084688 
L 252.07968 -73.084688 
L 256.626586 -73.084688 
L 261.173493 -73.084688 
L 265.720399 -73.084688 
L 270.267306 -73.084688 
L 274.814213 -73.084688 
L 279.361119 -73.084688 
L 283.908026 -73.084688 
L 288.454932 -73.084688 
L 293.001839 -73.084688 
L 297.548745 -73.084688 
L 302.095652 -73.084688 
L 306.642558 -73.084688 
L 311.189465 -73.084688 
L 315.736371 -73.084688 
L 320.283278 -73.084688 
L 324.830184 -73.084688 
L 329.377091 -73.084688 
L 333.923997 -73.084688 
L 338.470904 -73.084688 
L 343.01781 -73.084688 
L 347.564717 -73.084688 
L 352.111623 -73.084688 
L 356.65853 -73.084688 
L 361.205436 -73.084688 
L 365.752343 -73.084688 
L 370.299249 -73.084688 
L 374.846156 -73.084688 
L 379.393062 -73.084688 
L 383.939969 -73.084688 
L 388.486875 -73.084688 
L 393.033782 -73.084688 
L 397.580688 -73.084688 
L 402.127595 -73.084688 
L 406.674501 -73.084688 
L 411.221408 -73.084688 
L 415.768314 -73.084688 
L 420.315221 -73.084688 
L 424.862127 -73.084688 
L 429.409034 -73.084688 
L 433.95594 -73.084688 
L 438.502847 -73.084688 
L 443.049753 -73.084688 
L 447.59666 -73.084688 
L 452.143566 -73.084688 
L 456.690473 -73.084688 
L 461.237379 -73.084688 
L 465.784286 -73.084688 
L 470.331193 -73.084688 
L 474.878099 -73.084688 
L 479.425006 -73.084688 
L 483.971912 -73.084688 
L 488.518819 -73.084688 
L 493.065725 -73.084688 
L 497.612632 -73.084688 
L 502.159538 -73.084688 
L 506.706445 -73.084688 
L 511.253351 -73.084688 
L 515.800258 -73.084688 
L 520.347164 -73.084688 
L 524.894071 -73.084688 
L 529.440977 -73.084688 
L 533.987884 -73.084688 
L 538.53479 -73.084688 
L 543.081697 -73.084688 
L 547.628603 -73.084688 
L 552.17551 -73.084688 
L 556.722416 -73.084688 
L 561.269323 -73.084688 
L 565.816229 -73.084688 
L 570.363136 -73.084688 
L 574.910042 -73.084688 
L 579.456949 -73.084688 
L 584.003855 -73.084688 
L 588.550762 -73.084688 
L 593.097668 -73.084688 
L 597.644575 -73.084688 
L 602.191481 -73.084688 
L 606.738388 -73.084688 
L 611.285294 -73.084688 
L 615.832201 -73.084688 
L 620.379107 -73.084688 
L 624.926014 -73.084688 
L 629.47292 -73.084688 
L 634.019827 -73.084688 
L 638.566733 -73.084688 
L 643.11364 -73.084688 
L 647.660546 -73.084688 
L 652.207453 -73.084688 
L 656.75436 -73.084688 
L 661.301266 -73.084688 
L 665.848173 -73.084688 
L 670.395079 -73.084688 
L 674.941986 -73.084688 
L 679.488892 -73.084688 
L 684.035799 -73.084688 
L 688.582705 -73.084688 
L 693.129612 -73.084688 
L 697.676518 -73.084688 
L 702.223425 -73.084688 
L 706.770331 -73.084688 
L 711.317238 -73.084688 
L 715.864144 -73.084688 
L 720.411051 -73.084688 
L 724.957957 -73.084688 
L 729.504864 -73.084688 
L 734.05177 -73.084688 
L 738.598677 -73.084688 
L 743.145583 -73.084688 
L 747.69249 -73.084688 
L 752.239396 -73.084688 
L 756.786303 -73.084688 
L 761.333209 -73.084688 
L 765.880116 -73.084688 
L 770.427022 -73.084688 
L 774.973929 -73.084688 
L 779.520835 -73.084688 
L 784.067742 -73.084688 
L 788.614648 -73.084688 
L 793.161555 -73.084688 
L 797.708461 -73.084688 
L 802.255368 -73.084688 
L 806.802274 -73.084688 
L 811.349181 -73.084688 
L 815.896087 -73.084688 
L 820.442994 -73.084688 
L 824.9899 -73.084688 
L 829.536807 -73.084688 
L 834.083713 -73.084688 
L 838.63062 -73.084688 
L 843.177526 -73.084688 
L 847.724433 -73.084688 
L 852.27134 -73.084688 
L 856.818246 -73.084688 
L 861.365153 -73.084688 
L 865.912059 -73.084688 
L 870.458966 -73.084688 
L 875.005872 -73.084688 
L 879.552779 -73.084688 
L 884.099685 -73.084688 
L 888.646592 -73.084688 
L 893.193498 -73.084688 
L 897.740405 -73.084688 
L 902.287311 -73.084688 
L 906.834218 -73.084688 
L 911.381124 -73.084688 
L 915.928031 -73.084688 
L 920.474937 -73.084688 
L 925.021844 -73.084688 
L 929.56875 -73.084688 
L 934.115657 -73.084688 
L 938.662563 -73.084688 
L 943.20947 -73.084688 
L 947.756376 -73.084688 
L 952.303283 -73.084688 
L 956.850189 -73.084688 
L 961.397096 -73.084688 
L 965.944002 -73.084688 
L 970.490909 -73.084688 
L 975.037815 -73.084688 
L 979.584722 -73.084688 
L 984.131628 -73.084688 
L 988.678535 -73.084688 
L 993.225441 -73.084688 
L 997.772348 -73.084688 
L 1002.319254 -73.084688 
L 1006.866161 -73.084688 
L 1011.413067 -73.084688 
L 1015.959974 -73.084688 
L 1020.50688 -73.084688 
L 1025.053787 -73.084688 
L 1029.600693 -73.084688 
L 1034.1476 -73.084688 
L 1038.694506 -73.084688 
L 1043.241413 -73.084688 
L 1047.78832 -73.084688 
L 1052.335226 -73.084688 
L 1056.882133 -73.084688 
L 1061.429039 -73.084688 
L 1065.975946 -73.084688 
L 1070.522852 -73.084688 
L 1075.069759 -73.084688 
L 1079.616665 -73.084688 
L 1084.163572 -73.084688 
L 1088.710478 -73.084688 
L 1093.257385 -73.084688 
L 1097.804291 -73.084688 
L 1102.351198 -73.084688 
L 1106.898104 -73.084688 
L 1111.445011 -73.084688 
L 1115.991917 -73.084688 
L 1120.538824 -73.084688 
L 1125.08573 -73.084688 
L 1129.632637 -73.084688 
L 1134.179543 -73.084688 
L 1138.72645 -73.084688 
L 1143.273356 -73.084688 
L 1143.273356 -73.545074 
L 1143.273356 -73.545074 
L 1138.72645 -73.632104 
L 1134.179543 -73.73406 
L 1129.632637 -73.853203 
L 1125.08573 -73.992085 
L 1120.538824 -74.153576 
L 1115.991917 -74.340893 
L 1111.445011 -74.55763 
L 1106.898104 -74.807792 
L 1102.351198 -75.095825 
L 1097.804291 -75.426652 
L 1093.257385 -75.805704 
L 1088.710478 -76.238954 
L 1084.163572 -76.732949 
L 1079.616665 -77.294843 
L 1075.069759 -77.932428 
L 1070.522852 -78.654157 
L 1065.975946 -79.469176 
L 1061.429039 -80.387341 
L 1056.882133 -81.419239 
L 1052.335226 -82.576198 
L 1047.78832 -83.8703 
L 1043.241413 -85.314379 
L 1038.694506 -86.922016 
L 1034.1476 -88.707532 
L 1029.600693 -90.685958 
L 1025.053787 -92.873015 
L 1020.50688 -95.285069 
L 1015.959974 -97.939085 
L 1011.413067 -100.852568 
L 1006.866161 -104.043488 
L 1002.319254 -107.530208 
L 997.772348 -111.331379 
L 993.225441 -115.465848 
L 988.678535 -119.952533 
L 984.131628 -124.8103 
L 979.584722 -130.057827 
L 975.037815 -135.713452 
L 970.490909 -141.795017 
L 965.944002 -148.319701 
L 961.397096 -155.303843 
L 956.850189 -162.762764 
L 952.303283 -170.710573 
L 947.756376 -179.159981 
L 943.20947 -188.1221 
L 938.662563 -197.606252 
L 934.115657 -207.619771 
L 929.56875 -218.167808 
L 925.021844 -229.253149 
L 920.474937 -240.876026 
L 915.928031 -253.033951 
L 911.381124 -265.721552 
L 906.834218 -278.930424 
L 902.287311 -292.648999 
L 897.740405 -306.862432 
L 893.193498 -321.552506 
L 888.646592 -336.697562 
L 884.099685 -352.272451 
L 879.552779 -368.248512 
L 875.005872 -384.593583 
L 870.458966 -401.272034 
L 865.912059 -418.244835 
L 861.365153 -435.469656 
L 856.818246 -452.900999 
L 852.27134 -470.490361 
L 847.724433 -488.186431 
L 843.177526 -505.93532 
L 838.63062 -523.680824 
L 834.083713 -541.364712 
L 829.536807 -558.92705 
L 824.9899 -576.306546 
L 820.442994 -593.440921 
L 815.896087 -610.267306 
L 811.349181 -626.722646 
L 806.802274 -642.744131 
L 802.255368 -658.269627 
L 797.708461 -673.238119 
L 793.161555 -687.590156 
L 788.614648 -701.268283 
L 784.067742 -714.21748 
L 779.520835 -726.385574 
L 774.973929 -737.723639 
L 770.427022 -748.186373 
L 765.880116 -757.732447 
L 761.333209 -766.324822 
L 756.786303 -773.931027 
L 752.239396 -780.523403 
L 747.69249 -786.079298 
L 743.145583 -790.581225 
L 738.598677 -794.016961 
L 734.05177 -796.379611 
L 729.504864 -797.667611 
L 724.957957 -797.884687 
L 720.411051 -797.039769 
L 715.864144 -795.146846 
L 711.317238 -792.224791 
L 706.770331 -788.297134 
L 702.223425 -783.391794 
L 697.676518 -777.540786 
L 693.129612 -770.779885 
L 688.582705 -763.148274 
L 684.035799 -754.68816 
L 679.488892 -745.444384 
L 674.941986 -735.464014 
L 670.395079 -724.795929 
L 665.848173 -713.490416 
L 661.301266 -701.59875 
L 656.75436 -689.172808 
L 652.207453 -676.264675 
L 647.660546 -662.926285 
L 643.11364 -649.209069 
L 638.566733 -635.163643 
L 634.019827 -620.839509 
L 629.47292 -606.284797 
L 624.926014 -591.546036 
L 620.379107 -576.667947 
L 615.832201 -561.693285 
L 611.285294 -546.662703 
L 606.738388 -531.614648 
L 602.191481 -516.585294 
L 597.644575 -501.608496 
L 593.097668 -486.715778 
L 588.550762 -471.936342 
L 584.003855 -457.297105 
L 579.456949 -442.822743 
L 574.910042 -428.535771 
L 570.363136 -414.456617 
L 565.816229 -400.603723 
L 561.269323 -386.993648 
L 556.722416 -373.641174 
L 552.17551 -360.559418 
L 547.628603 -347.759947 
L 543.081697 -335.252889 
L 538.53479 -323.047038 
L 533.987884 -311.149961 
L 529.440977 -299.568093 
L 524.894071 -288.306826 
L 520.347164 -277.370591 
L 515.800258 -266.762933 
L 511.253351 -256.486575 
L 506.706445 -246.543473 
L 502.159538 -236.934869 
L 497.612632 -227.661323 
L 493.065725 -218.722757 
L 488.518819 -210.118473 
L 483.971912 -201.847181 
L 479.425006 -193.907015 
L 474.878099 -186.295546 
L 470.331193 -179.009794 
L 465.784286 -172.046242 
L 461.237379 -165.400839 
L 456.690473 -159.069017 
L 452.143566 -153.045698 
L 447.59666 -147.32531 
L 443.049753 -141.901799 
L 438.502847 -136.768651 
L 433.95594 -131.918909 
L 429.409034 -127.345203 
L 424.862127 -123.039772 
L 420.315221 -118.994497 
L 415.768314 -115.200939 
L 411.221408 -111.650367 
L 406.674501 -108.333807 
L 402.127595 -105.242075 
L 397.580688 -102.365825 
L 393.033782 -99.695589 
L 388.486875 -97.221825 
L 383.939969 -94.934959 
L 379.393062 -92.825429 
L 374.846156 -90.883725 
L 370.299249 -89.100437 
L 365.752343 -87.466287 
L 361.205436 -85.97217 
L 356.65853 -84.609184 
L 352.111623 -83.368665 
L 347.564717 -82.242213 
L 343.01781 -81.221717 
L 338.470904 -80.299373 
L 333.923997 -79.467704 
L 329.377091 -78.719574 
L 324.830184 -78.048196 
L 320.283278 -77.44714 
L 315.736371 -76.910338 
L 311.189465 -76.432082 
L 306.642558 -76.007023 
L 302.095652 -75.630168 
L 297.548745 -75.296869 
L 293.001839 -75.002819 
L 288.454932 -74.744037 
L 283.908026 -74.516858 
L 279.361119 -74.31792 
L 274.814213 -74.144146 
L 270.267306 -73.992733 
L 265.720399 -73.861136 
L 261.173493 -73.747048 
L 256.626586 -73.64839 
L 252.07968 -73.563291 
L 247.532773 -73.490073 
L 242.985867 -73.427238 
L 238.43896 -73.37345 
z
" style="stroke: #f06043; stroke-width: 5"/>
    </defs>
    <g clip-path="url(#p93600f6c1a)">
     <use xlink:href="#ma20b85e4e4" x="0" y="841.324687" style="fill: #f06043; fill-opacity: 0.1; stroke: #f06043; stroke-width: 5"/>
    </g>
   </g>
   <g id="patch_3">
    <path d="M 132.85625 768.24 
L 132.85625 7.2 
" style="fill: none; stroke: #cccccc; stroke-width: 1.875; stroke-linejoin: miter; stroke-linecap: square"/>
   </g>
   <g id="patch_4">
    <path d="M 1248.85625 768.24 
L 1248.85625 7.2 
" style="fill: none; stroke: #cccccc; stroke-width: 1.875; stroke-linejoin: miter; stroke-linecap: square"/>
   </g>
   <g id="patch_5">
    <path d="M 132.85625 768.24 
L 1248.85625 768.24 
" style="fill: none; stroke: #cccccc; stroke-width: 1.875; stroke-linejoin: miter; stroke-linecap: square"/>
   </g>
   <g id="patch_6">
    <path d="M 132.85625 7.2 
L 1248.85625 7.2 
" style="fill: none; stroke: #cccccc; stroke-width: 1.875; stroke-linejoin: miter; stroke-linecap: square"/>
   </g>
   <g id="legend_1">
    <g id="patch_7">
     <path d="M 802.553125 131.400937 
L 1225.05625 131.400937 
Q 1231.85625 131.400937 1231.85625 124.600937 
L 1231.85625 31 
Q 1231.85625 24.2 1225.05625 24.2 
L 802.553125 24.2 
Q 795.753125 24.2 795.753125 31 
L 795.753125 124.600937 
Q 795.753125 131.400937 802.553125 131.400937 
z
" style="fill: #ffffff; opacity: 0.8; stroke: #cccccc; stroke-width: 1.5; stroke-linejoin: miter"/>
    </g>
    <g id="patch_8">
     <path d="M 809.353125 62.550937 
L 877.353125 62.550937 
L 877.353125 38.750937 
L 809.353125 38.750937 
z
" style="fill: #841e5a; fill-opacity: 0.1; stroke: #841e5a; stroke-width: 5; stroke-linejoin: miter"/>
    </g>
    <g id="text_19">
     <!-- Highest 10% Income -->
     <g style="fill: #262626" transform="translate(904.553125 62.550937)scale(0.34 -0.34)">
      <defs>
       <path id="ArialMT-48" d="M 513 0 
L 513 4581 
L 1119 4581 
L 1119 2700 
L 3500 2700 
L 3500 4581 
L 4106 4581 
L 4106 0 
L 3500 0 
L 3500 2159 
L 1119 2159 
L 1119 0 
L 513 0 
z
" transform="scale(0.015625)"/>
       <path id="ArialMT-67" d="M 319 -275 
L 866 -356 
Q 900 -609 1056 -725 
Q 1266 -881 1628 -881 
Q 2019 -881 2231 -725 
Q 2444 -569 2519 -288 
Q 2563 -116 2559 434 
Q 2191 0 1641 0 
Q 956 0 581 494 
Q 206 988 206 1678 
Q 206 2153 378 2554 
Q 550 2956 876 3175 
Q 1203 3394 1644 3394 
Q 2231 3394 2613 2919 
L 2613 3319 
L 3131 3319 
L 3131 450 
Q 3131 -325 2973 -648 
Q 2816 -972 2473 -1159 
Q 2131 -1347 1631 -1347 
Q 1038 -1347 672 -1080 
Q 306 -813 319 -275 
z
M 784 1719 
Q 784 1066 1043 766 
Q 1303 466 1694 466 
Q 2081 466 2343 764 
Q 2606 1063 2606 1700 
Q 2606 2309 2336 2618 
Q 2066 2928 1684 2928 
Q 1309 2928 1046 2623 
Q 784 2319 784 1719 
z
" transform="scale(0.015625)"/>
       <path id="ArialMT-68" d="M 422 0 
L 422 4581 
L 984 4581 
L 984 2938 
Q 1378 3394 1978 3394 
Q 2347 3394 2619 3248 
Q 2891 3103 3008 2847 
Q 3125 2591 3125 2103 
L 3125 0 
L 2563 0 
L 2563 2103 
Q 2563 2525 2380 2717 
Q 2197 2909 1863 2909 
Q 1613 2909 1392 2779 
Q 1172 2650 1078 2428 
Q 984 2206 984 1816 
L 984 0 
L 422 0 
z
" transform="scale(0.015625)"/>
       <path id="ArialMT-25" d="M 372 3481 
Q 372 3972 619 4315 
Q 866 4659 1334 4659 
Q 1766 4659 2048 4351 
Q 2331 4044 2331 3447 
Q 2331 2866 2045 2552 
Q 1759 2238 1341 2238 
Q 925 2238 648 2547 
Q 372 2856 372 3481 
z
M 1350 4272 
Q 1141 4272 1002 4090 
Q 863 3909 863 3425 
Q 863 2984 1003 2804 
Q 1144 2625 1350 2625 
Q 1563 2625 1702 2806 
Q 1841 2988 1841 3469 
Q 1841 3913 1700 4092 
Q 1559 4272 1350 4272 
z
M 1353 -169 
L 3859 4659 
L 4316 4659 
L 1819 -169 
L 1353 -169 
z
M 3334 1075 
Q 3334 1569 3581 1911 
Q 3828 2253 4300 2253 
Q 4731 2253 5014 1945 
Q 5297 1638 5297 1041 
Q 5297 459 5011 145 
Q 4725 -169 4303 -169 
Q 3888 -169 3611 142 
Q 3334 453 3334 1075 
z
M 4316 1866 
Q 4103 1866 3964 1684 
Q 3825 1503 3825 1019 
Q 3825 581 3965 400 
Q 4106 219 4313 219 
Q 4528 219 4667 400 
Q 4806 581 4806 1063 
Q 4806 1506 4665 1686 
Q 4525 1866 4316 1866 
z
" transform="scale(0.015625)"/>
       <path id="ArialMT-6d" d="M 422 0 
L 422 3319 
L 925 3319 
L 925 2853 
Q 1081 3097 1340 3245 
Q 1600 3394 1931 3394 
Q 2300 3394 2536 3241 
Q 2772 3088 2869 2813 
Q 3263 3394 3894 3394 
Q 4388 3394 4653 3120 
Q 4919 2847 4919 2278 
L 4919 0 
L 4359 0 
L 4359 2091 
Q 4359 2428 4304 2576 
Q 4250 2725 4106 2815 
Q 3963 2906 3769 2906 
Q 3419 2906 3187 2673 
Q 2956 2441 2956 1928 
L 2956 0 
L 2394 0 
L 2394 2156 
Q 2394 2531 2256 2718 
Q 2119 2906 1806 2906 
Q 1569 2906 1367 2781 
Q 1166 2656 1075 2415 
Q 984 2175 984 1722 
L 984 0 
L 422 0 
z
" transform="scale(0.015625)"/>
      </defs>
      <use xlink:href="#ArialMT-48"/>
      <use xlink:href="#ArialMT-69" x="72.216797"/>
      <use xlink:href="#ArialMT-67" x="94.433594"/>
      <use xlink:href="#ArialMT-68" x="150.048828"/>
      <use xlink:href="#ArialMT-65" x="205.664062"/>
      <use xlink:href="#ArialMT-73" x="261.279297"/>
      <use xlink:href="#ArialMT-74" x="311.279297"/>
      <use xlink:href="#ArialMT-20" x="339.0625"/>
      <use xlink:href="#ArialMT-31" x="366.845703"/>
      <use xlink:href="#ArialMT-30" x="422.460938"/>
      <use xlink:href="#ArialMT-25" x="478.076172"/>
      <use xlink:href="#ArialMT-20" x="566.992188"/>
      <use xlink:href="#ArialMT-49" x="594.775391"/>
      <use xlink:href="#ArialMT-6e" x="622.558594"/>
      <use xlink:href="#ArialMT-63" x="678.173828"/>
      <use xlink:href="#ArialMT-6f" x="728.173828"/>
      <use xlink:href="#ArialMT-6d" x="783.789062"/>
      <use xlink:href="#ArialMT-65" x="867.089844"/>
     </g>
    </g>
    <g id="patch_9">
     <path d="M 809.353125 111.043437 
L 877.353125 111.043437 
L 877.353125 87.243437 
L 809.353125 87.243437 
z
" style="fill: #f06043; fill-opacity: 0.1; stroke: #f06043; stroke-width: 5; stroke-linejoin: miter"/>
    </g>
    <g id="text_20">
     <!-- Lowest 10% Income -->
     <g style="fill: #262626" transform="translate(904.553125 111.043437)scale(0.34 -0.34)">
      <defs>
       <path id="ArialMT-4c" d="M 469 0 
L 469 4581 
L 1075 4581 
L 1075 541 
L 3331 541 
L 3331 0 
L 469 0 
z
" transform="scale(0.015625)"/>
       <path id="ArialMT-77" d="M 1034 0 
L 19 3319 
L 600 3319 
L 1128 1403 
L 1325 691 
Q 1338 744 1497 1375 
L 2025 3319 
L 2603 3319 
L 3100 1394 
L 3266 759 
L 3456 1400 
L 4025 3319 
L 4572 3319 
L 3534 0 
L 2950 0 
L 2422 1988 
L 2294 2553 
L 1622 0 
L 1034 0 
z
" transform="scale(0.015625)"/>
      </defs>
      <use xlink:href="#ArialMT-4c"/>
      <use xlink:href="#ArialMT-6f" x="55.615234"/>
      <use xlink:href="#ArialMT-77" x="111.230469"/>
      <use xlink:href="#ArialMT-65" x="183.447266"/>
      <use xlink:href="#ArialMT-73" x="239.0625"/>
      <use xlink:href="#ArialMT-74" x="289.0625"/>
      <use xlink:href="#ArialMT-20" x="316.845703"/>
      <use xlink:href="#ArialMT-31" x="344.628906"/>
      <use xlink:href="#ArialMT-30" x="400.244141"/>
      <use xlink:href="#ArialMT-25" x="455.859375"/>
      <use xlink:href="#ArialMT-20" x="544.775391"/>
      <use xlink:href="#ArialMT-49" x="572.558594"/>
      <use xlink:href="#ArialMT-6e" x="600.341797"/>
      <use xlink:href="#ArialMT-63" x="655.957031"/>
      <use xlink:href="#ArialMT-6f" x="705.957031"/>
      <use xlink:href="#ArialMT-6d" x="761.572266"/>
      <use xlink:href="#ArialMT-65" x="844.873047"/>
     </g>
    </g>
   </g>
  </g>
 </g>
 <defs>
  <clipPath id="p93600f6c1a">
   <rect x="132.85625" y="7.2" width="1116" height="761.04"/>
  </clipPath>
 </defs>
</svg>
