<?xml version="1.0" encoding="utf-8" standalone="no"?>
<!DOCTYPE svg PUBLIC "-//W3C//DTD SVG 1.1//EN"
  "http://www.w3.org/Graphics/SVG/1.1/DTD/svg11.dtd">
<svg xmlns:xlink="http://www.w3.org/1999/xlink" width="1256.05625pt" height="841.324687pt" viewBox="0 0 1256.05625 841.324687" xmlns="http://www.w3.org/2000/svg" version="1.1">
 <metadata>
  <rdf:RDF xmlns:dc="http://purl.org/dc/elements/1.1/" xmlns:cc="http://creativecommons.org/ns#" xmlns:rdf="http://www.w3.org/1999/02/22-rdf-syntax-ns#">
   <cc:Work>
    <dc:type rdf:resource="http://purl.org/dc/dcmitype/StillImage"/>
    <dc:date>2023-05-03T18:59:44.625863</dc:date>
    <dc:format>image/svg+xml</dc:format>
    <dc:creator>
     <cc:Agent>
      <dc:title>Matplotlib v3.5.1, https://matplotlib.org/</dc:title>
     </cc:Agent>
    </dc:creator>
   </cc:Work>
  </rdf:RDF>
 </metadata>
 <defs>
  <style type="text/css">*{stroke-linejoin: round; stroke-linecap: butt}</style>
 </defs>
 <g id="figure_1">
  <g id="patch_1">
   <path d="M 0 841.324687 
L 1256.05625 841.324687 
L 1256.05625 0 
L 0 0 
z
" style="fill: #ffffff"/>
  </g>
  <g id="axes_1">
   <g id="patch_2">
    <path d="M 132.85625 768.24 
L 1248.85625 768.24 
L 1248.85625 7.2 
L 132.85625 7.2 
z
" style="fill: #ffffff"/>
   </g>
   <g id="matplotlib.axis_1">
    <g id="xtick_1">
     <g id="line2d_1">
      <path d="M 205.67062 768.24 
L 205.67062 7.2 
" clip-path="url(#pf993171a9a)" style="fill: none; stroke: #cccccc; stroke-width: 1.5; stroke-linecap: round"/>
     </g>
     <g id="text_1">
      <!-- −1000 -->
      <g style="fill: #262626" transform="translate(174.777807 796.487187)scale(0.22 -0.22)">
       <defs>
        <path id="ArialMT-2212" d="M 3381 1997 
L 356 1997 
L 356 2522 
L 3381 2522 
L 3381 1997 
z
" transform="scale(0.015625)"/>
        <path id="ArialMT-31" d="M 2384 0 
L 1822 0 
L 1822 3584 
Q 1619 3391 1289 3197 
Q 959 3003 697 2906 
L 697 3450 
Q 1169 3672 1522 3987 
Q 1875 4303 2022 4600 
L 2384 4600 
L 2384 0 
z
" transform="scale(0.015625)"/>
        <path id="ArialMT-30" d="M 266 2259 
Q 266 3072 433 3567 
Q 600 4063 929 4331 
Q 1259 4600 1759 4600 
Q 2128 4600 2406 4451 
Q 2684 4303 2865 4023 
Q 3047 3744 3150 3342 
Q 3253 2941 3253 2259 
Q 3253 1453 3087 958 
Q 2922 463 2592 192 
Q 2263 -78 1759 -78 
Q 1097 -78 719 397 
Q 266 969 266 2259 
z
M 844 2259 
Q 844 1131 1108 757 
Q 1372 384 1759 384 
Q 2147 384 2411 759 
Q 2675 1134 2675 2259 
Q 2675 3391 2411 3762 
Q 2147 4134 1753 4134 
Q 1366 4134 1134 3806 
Q 844 3388 844 2259 
z
" transform="scale(0.015625)"/>
       </defs>
       <use xlink:href="#ArialMT-2212"/>
       <use xlink:href="#ArialMT-31" x="58.398438"/>
       <use xlink:href="#ArialMT-30" x="114.013672"/>
       <use xlink:href="#ArialMT-30" x="169.628906"/>
       <use xlink:href="#ArialMT-30" x="225.244141"/>
      </g>
     </g>
    </g>
    <g id="xtick_2">
     <g id="line2d_2">
      <path d="M 357.291354 768.24 
L 357.291354 7.2 
" clip-path="url(#pf993171a9a)" style="fill: none; stroke: #cccccc; stroke-width: 1.5; stroke-linecap: round"/>
     </g>
     <g id="text_2">
      <!-- −750 -->
      <g style="fill: #262626" transform="translate(332.515573 796.487187)scale(0.22 -0.22)">
       <defs>
        <path id="ArialMT-37" d="M 303 3981 
L 303 4522 
L 3269 4522 
L 3269 4084 
Q 2831 3619 2401 2847 
Q 1972 2075 1738 1259 
Q 1569 684 1522 0 
L 944 0 
Q 953 541 1156 1306 
Q 1359 2072 1739 2783 
Q 2119 3494 2547 3981 
L 303 3981 
z
" transform="scale(0.015625)"/>
        <path id="ArialMT-35" d="M 266 1200 
L 856 1250 
Q 922 819 1161 601 
Q 1400 384 1738 384 
Q 2144 384 2425 690 
Q 2706 997 2706 1503 
Q 2706 1984 2436 2262 
Q 2166 2541 1728 2541 
Q 1456 2541 1237 2417 
Q 1019 2294 894 2097 
L 366 2166 
L 809 4519 
L 3088 4519 
L 3088 3981 
L 1259 3981 
L 1013 2750 
Q 1425 3038 1878 3038 
Q 2478 3038 2890 2622 
Q 3303 2206 3303 1553 
Q 3303 931 2941 478 
Q 2500 -78 1738 -78 
Q 1113 -78 717 272 
Q 322 622 266 1200 
z
" transform="scale(0.015625)"/>
       </defs>
       <use xlink:href="#ArialMT-2212"/>
       <use xlink:href="#ArialMT-37" x="58.398438"/>
       <use xlink:href="#ArialMT-35" x="114.013672"/>
       <use xlink:href="#ArialMT-30" x="169.628906"/>
      </g>
     </g>
    </g>
    <g id="xtick_3">
     <g id="line2d_3">
      <path d="M 508.912089 768.24 
L 508.912089 7.2 
" clip-path="url(#pf993171a9a)" style="fill: none; stroke: #cccccc; stroke-width: 1.5; stroke-linecap: round"/>
     </g>
     <g id="text_3">
      <!-- −500 -->
      <g style="fill: #262626" transform="translate(484.136307 796.487187)scale(0.22 -0.22)">
       <use xlink:href="#ArialMT-2212"/>
       <use xlink:href="#ArialMT-35" x="58.398438"/>
       <use xlink:href="#ArialMT-30" x="114.013672"/>
       <use xlink:href="#ArialMT-30" x="169.628906"/>
      </g>
     </g>
    </g>
    <g id="xtick_4">
     <g id="line2d_4">
      <path d="M 660.532823 768.24 
L 660.532823 7.2 
" clip-path="url(#pf993171a9a)" style="fill: none; stroke: #cccccc; stroke-width: 1.5; stroke-linecap: round"/>
     </g>
     <g id="text_4">
      <!-- −250 -->
      <g style="fill: #262626" transform="translate(635.757042 796.487187)scale(0.22 -0.22)">
       <defs>
        <path id="ArialMT-32" d="M 3222 541 
L 3222 0 
L 194 0 
Q 188 203 259 391 
Q 375 700 629 1000 
Q 884 1300 1366 1694 
Q 2113 2306 2375 2664 
Q 2638 3022 2638 3341 
Q 2638 3675 2398 3904 
Q 2159 4134 1775 4134 
Q 1369 4134 1125 3890 
Q 881 3647 878 3216 
L 300 3275 
Q 359 3922 746 4261 
Q 1134 4600 1788 4600 
Q 2447 4600 2831 4234 
Q 3216 3869 3216 3328 
Q 3216 3053 3103 2787 
Q 2991 2522 2730 2228 
Q 2469 1934 1863 1422 
Q 1356 997 1212 845 
Q 1069 694 975 541 
L 3222 541 
z
" transform="scale(0.015625)"/>
       </defs>
       <use xlink:href="#ArialMT-2212"/>
       <use xlink:href="#ArialMT-32" x="58.398438"/>
       <use xlink:href="#ArialMT-35" x="114.013672"/>
       <use xlink:href="#ArialMT-30" x="169.628906"/>
      </g>
     </g>
    </g>
    <g id="xtick_5">
     <g id="line2d_5">
      <path d="M 812.153557 768.24 
L 812.153557 7.2 
" clip-path="url(#pf993171a9a)" style="fill: none; stroke: #cccccc; stroke-width: 1.5; stroke-linecap: round"/>
     </g>
     <g id="text_5">
      <!-- 0 -->
      <g style="fill: #262626" transform="translate(806.036526 796.487187)scale(0.22 -0.22)">
       <use xlink:href="#ArialMT-30"/>
      </g>
     </g>
    </g>
    <g id="xtick_6">
     <g id="line2d_6">
      <path d="M 963.774292 768.24 
L 963.774292 7.2 
" clip-path="url(#pf993171a9a)" style="fill: none; stroke: #cccccc; stroke-width: 1.5; stroke-linecap: round"/>
     </g>
     <g id="text_6">
      <!-- 250 -->
      <g style="fill: #262626" transform="translate(945.423198 796.487187)scale(0.22 -0.22)">
       <use xlink:href="#ArialMT-32"/>
       <use xlink:href="#ArialMT-35" x="55.615234"/>
       <use xlink:href="#ArialMT-30" x="111.230469"/>
      </g>
     </g>
    </g>
    <g id="xtick_7">
     <g id="line2d_7">
      <path d="M 1115.395026 768.24 
L 1115.395026 7.2 
" clip-path="url(#pf993171a9a)" style="fill: none; stroke: #cccccc; stroke-width: 1.5; stroke-linecap: round"/>
     </g>
     <g id="text_7">
      <!-- 500 -->
      <g style="fill: #262626" transform="translate(1097.043932 796.487187)scale(0.22 -0.22)">
       <use xlink:href="#ArialMT-35"/>
       <use xlink:href="#ArialMT-30" x="55.615234"/>
       <use xlink:href="#ArialMT-30" x="111.230469"/>
      </g>
     </g>
    </g>
    <g id="text_8">
     <!-- Potential INEXUS in dollar -->
     <g style="fill: #262626" transform="translate(504.10375 827.764687)scale(0.32 -0.32)">
      <defs>
       <path id="ArialMT-50" d="M 494 0 
L 494 4581 
L 2222 4581 
Q 2678 4581 2919 4538 
Q 3256 4481 3484 4323 
Q 3713 4166 3852 3881 
Q 3991 3597 3991 3256 
Q 3991 2672 3619 2267 
Q 3247 1863 2275 1863 
L 1100 1863 
L 1100 0 
L 494 0 
z
M 1100 2403 
L 2284 2403 
Q 2872 2403 3119 2622 
Q 3366 2841 3366 3238 
Q 3366 3525 3220 3729 
Q 3075 3934 2838 4000 
Q 2684 4041 2272 4041 
L 1100 4041 
L 1100 2403 
z
" transform="scale(0.015625)"/>
       <path id="ArialMT-6f" d="M 213 1659 
Q 213 2581 725 3025 
Q 1153 3394 1769 3394 
Q 2453 3394 2887 2945 
Q 3322 2497 3322 1706 
Q 3322 1066 3130 698 
Q 2938 331 2570 128 
Q 2203 -75 1769 -75 
Q 1072 -75 642 372 
Q 213 819 213 1659 
z
M 791 1659 
Q 791 1022 1069 705 
Q 1347 388 1769 388 
Q 2188 388 2466 706 
Q 2744 1025 2744 1678 
Q 2744 2294 2464 2611 
Q 2184 2928 1769 2928 
Q 1347 2928 1069 2612 
Q 791 2297 791 1659 
z
" transform="scale(0.015625)"/>
       <path id="ArialMT-74" d="M 1650 503 
L 1731 6 
Q 1494 -44 1306 -44 
Q 1000 -44 831 53 
Q 663 150 594 308 
Q 525 466 525 972 
L 525 2881 
L 113 2881 
L 113 3319 
L 525 3319 
L 525 4141 
L 1084 4478 
L 1084 3319 
L 1650 3319 
L 1650 2881 
L 1084 2881 
L 1084 941 
Q 1084 700 1114 631 
Q 1144 563 1211 522 
Q 1278 481 1403 481 
Q 1497 481 1650 503 
z
" transform="scale(0.015625)"/>
       <path id="ArialMT-65" d="M 2694 1069 
L 3275 997 
Q 3138 488 2766 206 
Q 2394 -75 1816 -75 
Q 1088 -75 661 373 
Q 234 822 234 1631 
Q 234 2469 665 2931 
Q 1097 3394 1784 3394 
Q 2450 3394 2872 2941 
Q 3294 2488 3294 1666 
Q 3294 1616 3291 1516 
L 816 1516 
Q 847 969 1125 678 
Q 1403 388 1819 388 
Q 2128 388 2347 550 
Q 2566 713 2694 1069 
z
M 847 1978 
L 2700 1978 
Q 2663 2397 2488 2606 
Q 2219 2931 1791 2931 
Q 1403 2931 1139 2672 
Q 875 2413 847 1978 
z
" transform="scale(0.015625)"/>
       <path id="ArialMT-6e" d="M 422 0 
L 422 3319 
L 928 3319 
L 928 2847 
Q 1294 3394 1984 3394 
Q 2284 3394 2536 3286 
Q 2788 3178 2913 3003 
Q 3038 2828 3088 2588 
Q 3119 2431 3119 2041 
L 3119 0 
L 2556 0 
L 2556 2019 
Q 2556 2363 2490 2533 
Q 2425 2703 2258 2804 
Q 2091 2906 1866 2906 
Q 1506 2906 1245 2678 
Q 984 2450 984 1813 
L 984 0 
L 422 0 
z
" transform="scale(0.015625)"/>
       <path id="ArialMT-69" d="M 425 3934 
L 425 4581 
L 988 4581 
L 988 3934 
L 425 3934 
z
M 425 0 
L 425 3319 
L 988 3319 
L 988 0 
L 425 0 
z
" transform="scale(0.015625)"/>
       <path id="ArialMT-61" d="M 2588 409 
Q 2275 144 1986 34 
Q 1697 -75 1366 -75 
Q 819 -75 525 192 
Q 231 459 231 875 
Q 231 1119 342 1320 
Q 453 1522 633 1644 
Q 813 1766 1038 1828 
Q 1203 1872 1538 1913 
Q 2219 1994 2541 2106 
Q 2544 2222 2544 2253 
Q 2544 2597 2384 2738 
Q 2169 2928 1744 2928 
Q 1347 2928 1158 2789 
Q 969 2650 878 2297 
L 328 2372 
Q 403 2725 575 2942 
Q 747 3159 1072 3276 
Q 1397 3394 1825 3394 
Q 2250 3394 2515 3294 
Q 2781 3194 2906 3042 
Q 3031 2891 3081 2659 
Q 3109 2516 3109 2141 
L 3109 1391 
Q 3109 606 3145 398 
Q 3181 191 3288 0 
L 2700 0 
Q 2613 175 2588 409 
z
M 2541 1666 
Q 2234 1541 1622 1453 
Q 1275 1403 1131 1340 
Q 988 1278 909 1158 
Q 831 1038 831 891 
Q 831 666 1001 516 
Q 1172 366 1500 366 
Q 1825 366 2078 508 
Q 2331 650 2450 897 
Q 2541 1088 2541 1459 
L 2541 1666 
z
" transform="scale(0.015625)"/>
       <path id="ArialMT-6c" d="M 409 0 
L 409 4581 
L 972 4581 
L 972 0 
L 409 0 
z
" transform="scale(0.015625)"/>
       <path id="ArialMT-20" transform="scale(0.015625)"/>
       <path id="ArialMT-49" d="M 597 0 
L 597 4581 
L 1203 4581 
L 1203 0 
L 597 0 
z
" transform="scale(0.015625)"/>
       <path id="ArialMT-4e" d="M 488 0 
L 488 4581 
L 1109 4581 
L 3516 984 
L 3516 4581 
L 4097 4581 
L 4097 0 
L 3475 0 
L 1069 3600 
L 1069 0 
L 488 0 
z
" transform="scale(0.015625)"/>
       <path id="ArialMT-45" d="M 506 0 
L 506 4581 
L 3819 4581 
L 3819 4041 
L 1113 4041 
L 1113 2638 
L 3647 2638 
L 3647 2100 
L 1113 2100 
L 1113 541 
L 3925 541 
L 3925 0 
L 506 0 
z
" transform="scale(0.015625)"/>
       <path id="ArialMT-58" d="M 28 0 
L 1800 2388 
L 238 4581 
L 959 4581 
L 1791 3406 
Q 2050 3041 2159 2844 
Q 2313 3094 2522 3366 
L 3444 4581 
L 4103 4581 
L 2494 2422 
L 4228 0 
L 3478 0 
L 2325 1634 
Q 2228 1775 2125 1941 
Q 1972 1691 1906 1597 
L 756 0 
L 28 0 
z
" transform="scale(0.015625)"/>
       <path id="ArialMT-55" d="M 3500 4581 
L 4106 4581 
L 4106 1934 
Q 4106 1244 3950 837 
Q 3794 431 3386 176 
Q 2978 -78 2316 -78 
Q 1672 -78 1262 144 
Q 853 366 678 786 
Q 503 1206 503 1934 
L 503 4581 
L 1109 4581 
L 1109 1938 
Q 1109 1341 1220 1058 
Q 1331 775 1601 622 
Q 1872 469 2263 469 
Q 2931 469 3215 772 
Q 3500 1075 3500 1938 
L 3500 4581 
z
" transform="scale(0.015625)"/>
       <path id="ArialMT-53" d="M 288 1472 
L 859 1522 
Q 900 1178 1048 958 
Q 1197 738 1509 602 
Q 1822 466 2213 466 
Q 2559 466 2825 569 
Q 3091 672 3220 851 
Q 3350 1031 3350 1244 
Q 3350 1459 3225 1620 
Q 3100 1781 2813 1891 
Q 2628 1963 1997 2114 
Q 1366 2266 1113 2400 
Q 784 2572 623 2826 
Q 463 3081 463 3397 
Q 463 3744 659 4045 
Q 856 4347 1234 4503 
Q 1613 4659 2075 4659 
Q 2584 4659 2973 4495 
Q 3363 4331 3572 4012 
Q 3781 3694 3797 3291 
L 3216 3247 
Q 3169 3681 2898 3903 
Q 2628 4125 2100 4125 
Q 1550 4125 1298 3923 
Q 1047 3722 1047 3438 
Q 1047 3191 1225 3031 
Q 1400 2872 2139 2705 
Q 2878 2538 3153 2413 
Q 3553 2228 3743 1945 
Q 3934 1663 3934 1294 
Q 3934 928 3725 604 
Q 3516 281 3123 101 
Q 2731 -78 2241 -78 
Q 1619 -78 1198 103 
Q 778 284 539 648 
Q 300 1013 288 1472 
z
" transform="scale(0.015625)"/>
       <path id="ArialMT-64" d="M 2575 0 
L 2575 419 
Q 2259 -75 1647 -75 
Q 1250 -75 917 144 
Q 584 363 401 755 
Q 219 1147 219 1656 
Q 219 2153 384 2558 
Q 550 2963 881 3178 
Q 1213 3394 1622 3394 
Q 1922 3394 2156 3267 
Q 2391 3141 2538 2938 
L 2538 4581 
L 3097 4581 
L 3097 0 
L 2575 0 
z
M 797 1656 
Q 797 1019 1065 703 
Q 1334 388 1700 388 
Q 2069 388 2326 689 
Q 2584 991 2584 1609 
Q 2584 2291 2321 2609 
Q 2059 2928 1675 2928 
Q 1300 2928 1048 2622 
Q 797 2316 797 1656 
z
" transform="scale(0.015625)"/>
       <path id="ArialMT-72" d="M 416 0 
L 416 3319 
L 922 3319 
L 922 2816 
Q 1116 3169 1280 3281 
Q 1444 3394 1641 3394 
Q 1925 3394 2219 3213 
L 2025 2691 
Q 1819 2813 1613 2813 
Q 1428 2813 1281 2702 
Q 1134 2591 1072 2394 
Q 978 2094 978 1738 
L 978 0 
L 416 0 
z
" transform="scale(0.015625)"/>
      </defs>
      <use xlink:href="#ArialMT-50"/>
      <use xlink:href="#ArialMT-6f" x="66.699219"/>
      <use xlink:href="#ArialMT-74" x="122.314453"/>
      <use xlink:href="#ArialMT-65" x="150.097656"/>
      <use xlink:href="#ArialMT-6e" x="205.712891"/>
      <use xlink:href="#ArialMT-74" x="261.328125"/>
      <use xlink:href="#ArialMT-69" x="289.111328"/>
      <use xlink:href="#ArialMT-61" x="311.328125"/>
      <use xlink:href="#ArialMT-6c" x="366.943359"/>
      <use xlink:href="#ArialMT-20" x="389.160156"/>
      <use xlink:href="#ArialMT-49" x="416.943359"/>
      <use xlink:href="#ArialMT-4e" x="444.726562"/>
      <use xlink:href="#ArialMT-45" x="516.943359"/>
      <use xlink:href="#ArialMT-58" x="583.642578"/>
      <use xlink:href="#ArialMT-55" x="650.341797"/>
      <use xlink:href="#ArialMT-53" x="722.558594"/>
      <use xlink:href="#ArialMT-20" x="789.257812"/>
      <use xlink:href="#ArialMT-69" x="817.041016"/>
      <use xlink:href="#ArialMT-6e" x="839.257812"/>
      <use xlink:href="#ArialMT-20" x="894.873047"/>
      <use xlink:href="#ArialMT-64" x="922.65625"/>
      <use xlink:href="#ArialMT-6f" x="978.271484"/>
      <use xlink:href="#ArialMT-6c" x="1033.886719"/>
      <use xlink:href="#ArialMT-6c" x="1056.103516"/>
      <use xlink:href="#ArialMT-61" x="1078.320312"/>
      <use xlink:href="#ArialMT-72" x="1133.935547"/>
     </g>
    </g>
   </g>
   <g id="matplotlib.axis_2">
    <g id="ytick_1">
     <g id="line2d_8">
      <path d="M 132.85625 768.24 
L 1248.85625 768.24 
" clip-path="url(#pf993171a9a)" style="fill: none; stroke: #cccccc; stroke-width: 1.5; stroke-linecap: round"/>
     </g>
     <g id="text_9">
      <!-- 0.00000 -->
      <g style="fill: #262626" transform="translate(40.84 776.113594)scale(0.22 -0.22)">
       <defs>
        <path id="ArialMT-2e" d="M 581 0 
L 581 641 
L 1222 641 
L 1222 0 
L 581 0 
z
" transform="scale(0.015625)"/>
       </defs>
       <use xlink:href="#ArialMT-30"/>
       <use xlink:href="#ArialMT-2e" x="55.615234"/>
       <use xlink:href="#ArialMT-30" x="83.398438"/>
       <use xlink:href="#ArialMT-30" x="139.013672"/>
       <use xlink:href="#ArialMT-30" x="194.628906"/>
       <use xlink:href="#ArialMT-30" x="250.244141"/>
       <use xlink:href="#ArialMT-30" x="305.859375"/>
      </g>
     </g>
    </g>
    <g id="ytick_2">
     <g id="line2d_9">
      <path d="M 132.85625 675.026389 
L 1248.85625 675.026389 
" clip-path="url(#pf993171a9a)" style="fill: none; stroke: #cccccc; stroke-width: 1.5; stroke-linecap: round"/>
     </g>
     <g id="text_10">
      <!-- 0.00025 -->
      <g style="fill: #262626" transform="translate(40.84 682.899983)scale(0.22 -0.22)">
       <use xlink:href="#ArialMT-30"/>
       <use xlink:href="#ArialMT-2e" x="55.615234"/>
       <use xlink:href="#ArialMT-30" x="83.398438"/>
       <use xlink:href="#ArialMT-30" x="139.013672"/>
       <use xlink:href="#ArialMT-30" x="194.628906"/>
       <use xlink:href="#ArialMT-32" x="250.244141"/>
       <use xlink:href="#ArialMT-35" x="305.859375"/>
      </g>
     </g>
    </g>
    <g id="ytick_3">
     <g id="line2d_10">
      <path d="M 132.85625 581.812778 
L 1248.85625 581.812778 
" clip-path="url(#pf993171a9a)" style="fill: none; stroke: #cccccc; stroke-width: 1.5; stroke-linecap: round"/>
     </g>
     <g id="text_11">
      <!-- 0.00050 -->
      <g style="fill: #262626" transform="translate(40.84 589.686371)scale(0.22 -0.22)">
       <use xlink:href="#ArialMT-30"/>
       <use xlink:href="#ArialMT-2e" x="55.615234"/>
       <use xlink:href="#ArialMT-30" x="83.398438"/>
       <use xlink:href="#ArialMT-30" x="139.013672"/>
       <use xlink:href="#ArialMT-30" x="194.628906"/>
       <use xlink:href="#ArialMT-35" x="250.244141"/>
       <use xlink:href="#ArialMT-30" x="305.859375"/>
      </g>
     </g>
    </g>
    <g id="ytick_4">
     <g id="line2d_11">
      <path d="M 132.85625 488.599167 
L 1248.85625 488.599167 
" clip-path="url(#pf993171a9a)" style="fill: none; stroke: #cccccc; stroke-width: 1.5; stroke-linecap: round"/>
     </g>
     <g id="text_12">
      <!-- 0.00075 -->
      <g style="fill: #262626" transform="translate(40.84 496.47276)scale(0.22 -0.22)">
       <use xlink:href="#ArialMT-30"/>
       <use xlink:href="#ArialMT-2e" x="55.615234"/>
       <use xlink:href="#ArialMT-30" x="83.398438"/>
       <use xlink:href="#ArialMT-30" x="139.013672"/>
       <use xlink:href="#ArialMT-30" x="194.628906"/>
       <use xlink:href="#ArialMT-37" x="250.244141"/>
       <use xlink:href="#ArialMT-35" x="305.859375"/>
      </g>
     </g>
    </g>
    <g id="ytick_5">
     <g id="line2d_12">
      <path d="M 132.85625 395.385555 
L 1248.85625 395.385555 
" clip-path="url(#pf993171a9a)" style="fill: none; stroke: #cccccc; stroke-width: 1.5; stroke-linecap: round"/>
     </g>
     <g id="text_13">
      <!-- 0.00100 -->
      <g style="fill: #262626" transform="translate(40.84 403.259149)scale(0.22 -0.22)">
       <use xlink:href="#ArialMT-30"/>
       <use xlink:href="#ArialMT-2e" x="55.615234"/>
       <use xlink:href="#ArialMT-30" x="83.398438"/>
       <use xlink:href="#ArialMT-30" x="139.013672"/>
       <use xlink:href="#ArialMT-31" x="194.628906"/>
       <use xlink:href="#ArialMT-30" x="250.244141"/>
       <use xlink:href="#ArialMT-30" x="305.859375"/>
      </g>
     </g>
    </g>
    <g id="ytick_6">
     <g id="line2d_13">
      <path d="M 132.85625 302.171944 
L 1248.85625 302.171944 
" clip-path="url(#pf993171a9a)" style="fill: none; stroke: #cccccc; stroke-width: 1.5; stroke-linecap: round"/>
     </g>
     <g id="text_14">
      <!-- 0.00125 -->
      <g style="fill: #262626" transform="translate(40.84 310.045538)scale(0.22 -0.22)">
       <use xlink:href="#ArialMT-30"/>
       <use xlink:href="#ArialMT-2e" x="55.615234"/>
       <use xlink:href="#ArialMT-30" x="83.398438"/>
       <use xlink:href="#ArialMT-30" x="139.013672"/>
       <use xlink:href="#ArialMT-31" x="194.628906"/>
       <use xlink:href="#ArialMT-32" x="250.244141"/>
       <use xlink:href="#ArialMT-35" x="305.859375"/>
      </g>
     </g>
    </g>
    <g id="ytick_7">
     <g id="line2d_14">
      <path d="M 132.85625 208.958333 
L 1248.85625 208.958333 
" clip-path="url(#pf993171a9a)" style="fill: none; stroke: #cccccc; stroke-width: 1.5; stroke-linecap: round"/>
     </g>
     <g id="text_15">
      <!-- 0.00150 -->
      <g style="fill: #262626" transform="translate(40.84 216.831927)scale(0.22 -0.22)">
       <use xlink:href="#ArialMT-30"/>
       <use xlink:href="#ArialMT-2e" x="55.615234"/>
       <use xlink:href="#ArialMT-30" x="83.398438"/>
       <use xlink:href="#ArialMT-30" x="139.013672"/>
       <use xlink:href="#ArialMT-31" x="194.628906"/>
       <use xlink:href="#ArialMT-35" x="250.244141"/>
       <use xlink:href="#ArialMT-30" x="305.859375"/>
      </g>
     </g>
    </g>
    <g id="ytick_8">
     <g id="line2d_15">
      <path d="M 132.85625 115.744722 
L 1248.85625 115.744722 
" clip-path="url(#pf993171a9a)" style="fill: none; stroke: #cccccc; stroke-width: 1.5; stroke-linecap: round"/>
     </g>
     <g id="text_16">
      <!-- 0.00175 -->
      <g style="fill: #262626" transform="translate(40.84 123.618316)scale(0.22 -0.22)">
       <use xlink:href="#ArialMT-30"/>
       <use xlink:href="#ArialMT-2e" x="55.615234"/>
       <use xlink:href="#ArialMT-30" x="83.398438"/>
       <use xlink:href="#ArialMT-30" x="139.013672"/>
       <use xlink:href="#ArialMT-31" x="194.628906"/>
       <use xlink:href="#ArialMT-37" x="250.244141"/>
       <use xlink:href="#ArialMT-35" x="305.859375"/>
      </g>
     </g>
    </g>
    <g id="ytick_9">
     <g id="line2d_16">
      <path d="M 132.85625 22.531111 
L 1248.85625 22.531111 
" clip-path="url(#pf993171a9a)" style="fill: none; stroke: #cccccc; stroke-width: 1.5; stroke-linecap: round"/>
     </g>
     <g id="text_17">
      <!-- 0.00200 -->
      <g style="fill: #262626" transform="translate(40.84 30.404705)scale(0.22 -0.22)">
       <use xlink:href="#ArialMT-30"/>
       <use xlink:href="#ArialMT-2e" x="55.615234"/>
       <use xlink:href="#ArialMT-30" x="83.398438"/>
       <use xlink:href="#ArialMT-30" x="139.013672"/>
       <use xlink:href="#ArialMT-32" x="194.628906"/>
       <use xlink:href="#ArialMT-30" x="250.244141"/>
       <use xlink:href="#ArialMT-30" x="305.859375"/>
      </g>
     </g>
    </g>
    <g id="text_18">
     <!-- Frequency Density -->
     <g style="fill: #262626" transform="translate(30.105 521.1025)rotate(-90)scale(0.32 -0.32)">
      <defs>
       <path id="ArialMT-46" d="M 525 0 
L 525 4581 
L 3616 4581 
L 3616 4041 
L 1131 4041 
L 1131 2622 
L 3281 2622 
L 3281 2081 
L 1131 2081 
L 1131 0 
L 525 0 
z
" transform="scale(0.015625)"/>
       <path id="ArialMT-71" d="M 2538 -1272 
L 2538 353 
Q 2406 169 2170 47 
Q 1934 -75 1669 -75 
Q 1078 -75 651 397 
Q 225 869 225 1691 
Q 225 2191 398 2587 
Q 572 2984 901 3189 
Q 1231 3394 1625 3394 
Q 2241 3394 2594 2875 
L 2594 3319 
L 3100 3319 
L 3100 -1272 
L 2538 -1272 
z
M 803 1669 
Q 803 1028 1072 708 
Q 1341 388 1716 388 
Q 2075 388 2334 692 
Q 2594 997 2594 1619 
Q 2594 2281 2320 2615 
Q 2047 2950 1678 2950 
Q 1313 2950 1058 2639 
Q 803 2328 803 1669 
z
" transform="scale(0.015625)"/>
       <path id="ArialMT-75" d="M 2597 0 
L 2597 488 
Q 2209 -75 1544 -75 
Q 1250 -75 995 37 
Q 741 150 617 320 
Q 494 491 444 738 
Q 409 903 409 1263 
L 409 3319 
L 972 3319 
L 972 1478 
Q 972 1038 1006 884 
Q 1059 663 1231 536 
Q 1403 409 1656 409 
Q 1909 409 2131 539 
Q 2353 669 2445 892 
Q 2538 1116 2538 1541 
L 2538 3319 
L 3100 3319 
L 3100 0 
L 2597 0 
z
" transform="scale(0.015625)"/>
       <path id="ArialMT-63" d="M 2588 1216 
L 3141 1144 
Q 3050 572 2676 248 
Q 2303 -75 1759 -75 
Q 1078 -75 664 370 
Q 250 816 250 1647 
Q 250 2184 428 2587 
Q 606 2991 970 3192 
Q 1334 3394 1763 3394 
Q 2303 3394 2647 3120 
Q 2991 2847 3088 2344 
L 2541 2259 
Q 2463 2594 2264 2762 
Q 2066 2931 1784 2931 
Q 1359 2931 1093 2626 
Q 828 2322 828 1663 
Q 828 994 1084 691 
Q 1341 388 1753 388 
Q 2084 388 2306 591 
Q 2528 794 2588 1216 
z
" transform="scale(0.015625)"/>
       <path id="ArialMT-79" d="M 397 -1278 
L 334 -750 
Q 519 -800 656 -800 
Q 844 -800 956 -737 
Q 1069 -675 1141 -563 
Q 1194 -478 1313 -144 
Q 1328 -97 1363 -6 
L 103 3319 
L 709 3319 
L 1400 1397 
Q 1534 1031 1641 628 
Q 1738 1016 1872 1384 
L 2581 3319 
L 3144 3319 
L 1881 -56 
Q 1678 -603 1566 -809 
Q 1416 -1088 1222 -1217 
Q 1028 -1347 759 -1347 
Q 597 -1347 397 -1278 
z
" transform="scale(0.015625)"/>
       <path id="ArialMT-44" d="M 494 0 
L 494 4581 
L 2072 4581 
Q 2606 4581 2888 4516 
Q 3281 4425 3559 4188 
Q 3922 3881 4101 3404 
Q 4281 2928 4281 2316 
Q 4281 1794 4159 1391 
Q 4038 988 3847 723 
Q 3656 459 3429 307 
Q 3203 156 2883 78 
Q 2563 0 2147 0 
L 494 0 
z
M 1100 541 
L 2078 541 
Q 2531 541 2789 625 
Q 3047 709 3200 863 
Q 3416 1078 3536 1442 
Q 3656 1806 3656 2325 
Q 3656 3044 3420 3430 
Q 3184 3816 2847 3947 
Q 2603 4041 2063 4041 
L 1100 4041 
L 1100 541 
z
" transform="scale(0.015625)"/>
       <path id="ArialMT-73" d="M 197 991 
L 753 1078 
Q 800 744 1014 566 
Q 1228 388 1613 388 
Q 2000 388 2187 545 
Q 2375 703 2375 916 
Q 2375 1106 2209 1216 
Q 2094 1291 1634 1406 
Q 1016 1563 777 1677 
Q 538 1791 414 1992 
Q 291 2194 291 2438 
Q 291 2659 392 2848 
Q 494 3038 669 3163 
Q 800 3259 1026 3326 
Q 1253 3394 1513 3394 
Q 1903 3394 2198 3281 
Q 2494 3169 2634 2976 
Q 2775 2784 2828 2463 
L 2278 2388 
Q 2241 2644 2061 2787 
Q 1881 2931 1553 2931 
Q 1166 2931 1000 2803 
Q 834 2675 834 2503 
Q 834 2394 903 2306 
Q 972 2216 1119 2156 
Q 1203 2125 1616 2013 
Q 2213 1853 2448 1751 
Q 2684 1650 2818 1456 
Q 2953 1263 2953 975 
Q 2953 694 2789 445 
Q 2625 197 2315 61 
Q 2006 -75 1616 -75 
Q 969 -75 630 194 
Q 291 463 197 991 
z
" transform="scale(0.015625)"/>
      </defs>
      <use xlink:href="#ArialMT-46"/>
      <use xlink:href="#ArialMT-72" x="61.083984"/>
      <use xlink:href="#ArialMT-65" x="94.384766"/>
      <use xlink:href="#ArialMT-71" x="150"/>
      <use xlink:href="#ArialMT-75" x="205.615234"/>
      <use xlink:href="#ArialMT-65" x="261.230469"/>
      <use xlink:href="#ArialMT-6e" x="316.845703"/>
      <use xlink:href="#ArialMT-63" x="372.460938"/>
      <use xlink:href="#ArialMT-79" x="422.460938"/>
      <use xlink:href="#ArialMT-20" x="472.460938"/>
      <use xlink:href="#ArialMT-44" x="500.244141"/>
      <use xlink:href="#ArialMT-65" x="572.460938"/>
      <use xlink:href="#ArialMT-6e" x="628.076172"/>
      <use xlink:href="#ArialMT-73" x="683.691406"/>
      <use xlink:href="#ArialMT-69" x="733.691406"/>
      <use xlink:href="#ArialMT-74" x="755.908203"/>
      <use xlink:href="#ArialMT-79" x="783.691406"/>
     </g>
    </g>
   </g>
   <g id="PolyCollection_1">
    <defs>
     <path id="m74c07192c3" d="M 183.583523 -73.597674 
L 183.583523 -73.084688 
L 188.681741 -73.084688 
L 193.779959 -73.084688 
L 198.878178 -73.084688 
L 203.976396 -73.084688 
L 209.074615 -73.084688 
L 214.172833 -73.084688 
L 219.271051 -73.084688 
L 224.36927 -73.084688 
L 229.467488 -73.084688 
L 234.565706 -73.084688 
L 239.663925 -73.084688 
L 244.762143 -73.084688 
L 249.860361 -73.084688 
L 254.95858 -73.084688 
L 260.056798 -73.084688 
L 265.155017 -73.084688 
L 270.253235 -73.084688 
L 275.351453 -73.084688 
L 280.449672 -73.084688 
L 285.54789 -73.084688 
L 290.646108 -73.084688 
L 295.744327 -73.084688 
L 300.842545 -73.084688 
L 305.940763 -73.084688 
L 311.038982 -73.084688 
L 316.1372 -73.084688 
L 321.235419 -73.084688 
L 326.333637 -73.084688 
L 331.431855 -73.084688 
L 336.530074 -73.084688 
L 341.628292 -73.084688 
L 346.72651 -73.084688 
L 351.824729 -73.084688 
L 356.922947 -73.084688 
L 362.021165 -73.084688 
L 367.119384 -73.084688 
L 372.217602 -73.084688 
L 377.315821 -73.084688 
L 382.414039 -73.084688 
L 387.512257 -73.084688 
L 392.610476 -73.084688 
L 397.708694 -73.084688 
L 402.806912 -73.084688 
L 407.905131 -73.084688 
L 413.003349 -73.084688 
L 418.101567 -73.084688 
L 423.199786 -73.084688 
L 428.298004 -73.084688 
L 433.396223 -73.084688 
L 438.494441 -73.084688 
L 443.592659 -73.084688 
L 448.690878 -73.084688 
L 453.789096 -73.084688 
L 458.887314 -73.084688 
L 463.985533 -73.084688 
L 469.083751 -73.084688 
L 474.18197 -73.084688 
L 479.280188 -73.084688 
L 484.378406 -73.084688 
L 489.476625 -73.084688 
L 494.574843 -73.084688 
L 499.673061 -73.084688 
L 504.77128 -73.084688 
L 509.869498 -73.084688 
L 514.967716 -73.084688 
L 520.065935 -73.084688 
L 525.164153 -73.084688 
L 530.262372 -73.084688 
L 535.36059 -73.084688 
L 540.458808 -73.084688 
L 545.557027 -73.084688 
L 550.655245 -73.084688 
L 555.753463 -73.084688 
L 560.851682 -73.084688 
L 565.9499 -73.084688 
L 571.048118 -73.084688 
L 576.146337 -73.084688 
L 581.244555 -73.084688 
L 586.342774 -73.084688 
L 591.440992 -73.084688 
L 596.53921 -73.084688 
L 601.637429 -73.084688 
L 606.735647 -73.084688 
L 611.833865 -73.084688 
L 616.932084 -73.084688 
L 622.030302 -73.084688 
L 627.12852 -73.084688 
L 632.226739 -73.084688 
L 637.324957 -73.084688 
L 642.423176 -73.084688 
L 647.521394 -73.084688 
L 652.619612 -73.084688 
L 657.717831 -73.084688 
L 662.816049 -73.084688 
L 667.914267 -73.084688 
L 673.012486 -73.084688 
L 678.110704 -73.084688 
L 683.208922 -73.084688 
L 688.307141 -73.084688 
L 693.405359 -73.084688 
L 698.503578 -73.084688 
L 703.601796 -73.084688 
L 708.700014 -73.084688 
L 713.798233 -73.084688 
L 718.896451 -73.084688 
L 723.994669 -73.084688 
L 729.092888 -73.084688 
L 734.191106 -73.084688 
L 739.289324 -73.084688 
L 744.387543 -73.084688 
L 749.485761 -73.084688 
L 754.58398 -73.084688 
L 759.682198 -73.084688 
L 764.780416 -73.084688 
L 769.878635 -73.084688 
L 774.976853 -73.084688 
L 780.075071 -73.084688 
L 785.17329 -73.084688 
L 790.271508 -73.084688 
L 795.369726 -73.084688 
L 800.467945 -73.084688 
L 805.566163 -73.084688 
L 810.664382 -73.084688 
L 815.7626 -73.084688 
L 820.860818 -73.084688 
L 825.959037 -73.084688 
L 831.057255 -73.084688 
L 836.155473 -73.084688 
L 841.253692 -73.084688 
L 846.35191 -73.084688 
L 851.450128 -73.084688 
L 856.548347 -73.084688 
L 861.646565 -73.084688 
L 866.744784 -73.084688 
L 871.843002 -73.084688 
L 876.94122 -73.084688 
L 882.039439 -73.084688 
L 887.137657 -73.084688 
L 892.235875 -73.084688 
L 897.334094 -73.084688 
L 902.432312 -73.084688 
L 907.53053 -73.084688 
L 912.628749 -73.084688 
L 917.726967 -73.084688 
L 922.825186 -73.084688 
L 927.923404 -73.084688 
L 933.021622 -73.084688 
L 938.119841 -73.084688 
L 943.218059 -73.084688 
L 948.316277 -73.084688 
L 953.414496 -73.084688 
L 958.512714 -73.084688 
L 963.610933 -73.084688 
L 968.709151 -73.084688 
L 973.807369 -73.084688 
L 978.905588 -73.084688 
L 984.003806 -73.084688 
L 989.102024 -73.084688 
L 994.200243 -73.084688 
L 999.298461 -73.084688 
L 1004.396679 -73.084688 
L 1009.494898 -73.084688 
L 1014.593116 -73.084688 
L 1019.691335 -73.084688 
L 1024.789553 -73.084688 
L 1029.887771 -73.084688 
L 1034.98599 -73.084688 
L 1040.084208 -73.084688 
L 1045.182426 -73.084688 
L 1050.280645 -73.084688 
L 1055.378863 -73.084688 
L 1060.477081 -73.084688 
L 1065.5753 -73.084688 
L 1070.673518 -73.084688 
L 1075.771737 -73.084688 
L 1080.869955 -73.084688 
L 1085.968173 -73.084688 
L 1091.066392 -73.084688 
L 1096.16461 -73.084688 
L 1101.262828 -73.084688 
L 1106.361047 -73.084688 
L 1111.459265 -73.084688 
L 1116.557483 -73.084688 
L 1121.655702 -73.084688 
L 1126.75392 -73.084688 
L 1131.852139 -73.084688 
L 1136.950357 -73.084688 
L 1142.048575 -73.084688 
L 1147.146794 -73.084688 
L 1152.245012 -73.084688 
L 1157.34323 -73.084688 
L 1162.441449 -73.084688 
L 1167.539667 -73.084688 
L 1172.637885 -73.084688 
L 1177.736104 -73.084688 
L 1182.834322 -73.084688 
L 1187.932541 -73.084688 
L 1193.030759 -73.084688 
L 1198.128977 -73.084688 
L 1198.128977 -73.806142 
L 1198.128977 -73.806142 
L 1193.030759 -73.928004 
L 1187.932541 -74.068475 
L 1182.834322 -74.230051 
L 1177.736104 -74.415502 
L 1172.637885 -74.627902 
L 1167.539667 -74.870646 
L 1162.441449 -75.147474 
L 1157.34323 -75.462496 
L 1152.245012 -75.820217 
L 1147.146794 -76.225555 
L 1142.048575 -76.683868 
L 1136.950357 -77.20097 
L 1131.852139 -77.783158 
L 1126.75392 -78.437226 
L 1121.655702 -79.170478 
L 1116.557483 -79.990748 
L 1111.459265 -80.906407 
L 1106.361047 -81.926366 
L 1101.262828 -83.060084 
L 1096.16461 -84.317564 
L 1091.066392 -85.709342 
L 1085.968173 -87.246479 
L 1080.869955 -88.940538 
L 1075.771737 -90.80356 
L 1070.673518 -92.84803 
L 1065.5753 -95.086836 
L 1060.477081 -97.533224 
L 1055.378863 -100.200737 
L 1050.280645 -103.103157 
L 1045.182426 -106.254427 
L 1040.084208 -109.668573 
L 1034.98599 -113.359618 
L 1029.887771 -117.34148 
L 1024.789553 -121.627872 
L 1019.691335 -126.232193 
L 1014.593116 -131.167406 
L 1009.494898 -136.445917 
L 1004.396679 -142.079453 
L 999.298461 -148.07892 
L 994.200243 -154.454281 
L 989.102024 -161.21441 
L 984.003806 -168.366964 
L 978.905588 -175.918245 
L 973.807369 -183.873069 
L 968.709151 -192.23464 
L 963.610933 -201.004424 
L 958.512714 -210.182041 
L 953.414496 -219.765154 
L 948.316277 -229.749379 
L 943.218059 -240.128196 
L 938.119841 -250.892886 
L 933.021622 -262.032472 
L 927.923404 -273.53368 
L 922.825186 -285.380921 
L 917.726967 -297.556282 
L 912.628749 -310.039546 
L 907.53053 -322.808219 
L 902.432312 -335.837593 
L 897.334094 -349.100809 
L 892.235875 -362.568956 
L 887.137657 -376.21118 
L 882.039439 -389.994817 
L 876.94122 -403.885536 
L 871.843002 -417.847508 
L 866.744784 -431.84358 
L 861.646565 -445.835477 
L 856.548347 -459.783998 
L 851.450128 -473.649241 
L 846.35191 -487.390817 
L 841.253692 -500.968093 
L 836.155473 -514.340413 
L 831.057255 -527.467346 
L 825.959037 -540.308914 
L 820.860818 -552.825826 
L 815.7626 -564.97971 
L 810.664382 -576.733329 
L 805.566163 -588.050792 
L 800.467945 -598.897757 
L 795.369726 -609.241617 
L 790.271508 -619.051669 
L 785.17329 -628.299272 
L 780.075071 -636.957984 
L 774.976853 -645.003683 
L 769.878635 -652.414668 
L 764.780416 -659.171734 
L 759.682198 -665.258241 
L 754.58398 -670.66015 
L 749.485761 -675.366041 
L 744.387543 -679.367121 
L 739.289324 -682.657202 
L 734.191106 -685.232669 
L 729.092888 -687.092425 
L 723.994669 -688.237827 
L 718.896451 -688.672606 
L 713.798233 -688.402767 
L 708.700014 -687.436495 
L 703.601796 -685.784031 
L 698.503578 -683.457559 
L 693.405359 -680.471074 
L 688.307141 -676.840254 
L 683.208922 -672.582325 
L 678.110704 -667.715926 
L 673.012486 -662.260977 
L 667.914267 -656.238545 
L 662.816049 -649.670715 
L 657.717831 -642.580465 
L 652.619612 -634.991547 
L 647.521394 -626.928369 
L 642.423176 -618.41589 
L 637.324957 -609.479519 
L 632.226739 -600.145016 
L 627.12852 -590.438407 
L 622.030302 -580.385904 
L 616.932084 -570.013826 
L 611.833865 -559.348538 
L 606.735647 -548.416379 
L 601.637429 -537.243616 
L 596.53921 -525.856383 
L 591.440992 -514.280634 
L 586.342774 -502.542105 
L 581.244555 -490.666261 
L 576.146337 -478.678265 
L 571.048118 -466.602935 
L 565.9499 -454.464705 
L 560.851682 -442.287589 
L 555.753463 -430.095146 
L 550.655245 -417.910436 
L 545.557027 -405.755983 
L 540.458808 -393.653737 
L 535.36059 -381.625031 
L 530.262372 -369.690537 
L 525.164153 -357.870229 
L 520.065935 -346.183333 
L 514.967716 -334.648287 
L 509.869498 -323.282695 
L 504.77128 -312.103288 
L 499.673061 -301.125877 
L 494.574843 -290.365316 
L 489.476625 -279.835463 
L 484.378406 -269.549147 
L 479.280188 -259.518132 
L 474.18197 -249.753093 
L 469.083751 -240.263593 
L 463.985533 -231.058062 
L 458.887314 -222.143788 
L 453.789096 -213.526907 
L 448.690878 -205.212406 
L 443.592659 -197.204125 
L 438.494441 -189.504772 
L 433.396223 -182.11594 
L 428.298004 -175.038133 
L 423.199786 -168.270795 
L 418.101567 -161.812352 
L 413.003349 -155.660247 
L 407.905131 -149.810996 
L 402.806912 -144.260236 
L 397.708694 -139.002782 
L 392.610476 -134.032689 
L 387.512257 -129.343317 
L 382.414039 -124.92739 
L 377.315821 -120.777075 
L 372.217602 -116.884039 
L 367.119384 -113.239526 
L 362.021165 -109.834421 
L 356.922947 -106.659323 
L 351.824729 -103.704604 
L 346.72651 -100.960481 
L 341.628292 -98.417073 
L 336.530074 -96.064462 
L 331.431855 -93.892748 
L 326.333637 -91.892101 
L 321.235419 -90.052809 
L 316.1372 -88.365323 
L 311.038982 -86.820294 
L 305.940763 -85.408612 
L 300.842545 -84.121433 
L 295.744327 -82.950208 
L 290.646108 -81.886707 
L 285.54789 -80.923031 
L 280.449672 -80.051635 
L 275.351453 -79.265329 
L 270.253235 -78.557293 
L 265.155017 -77.921075 
L 260.056798 -77.350593 
L 254.95858 -76.840135 
L 249.860361 -76.384349 
L 244.762143 -75.978242 
L 239.663925 -75.617166 
L 234.565706 -75.296808 
L 229.467488 -75.013182 
L 224.36927 -74.76261 
L 219.271051 -74.541713 
L 214.172833 -74.347391 
L 209.074615 -74.176813 
L 203.976396 -74.027398 
L 198.878178 -73.896801 
L 193.779959 -73.782896 
L 188.681741 -73.683764 
L 183.583523 -73.597674 
z
" style="stroke: #841e5a; stroke-width: 5"/>
    </defs>
    <g clip-path="url(#pf993171a9a)">
     <use xlink:href="#m74c07192c3" x="0" y="841.324687" style="fill: #841e5a; fill-opacity: 0.1; stroke: #841e5a; stroke-width: 5"/>
    </g>
   </g>
   <g id="PolyCollection_2">
    <defs>
     <path id="m72e466bdba" d="M 232.9874 -73.36845 
L 232.9874 -73.084688 
L 237.589072 -73.084688 
L 242.190743 -73.084688 
L 246.792414 -73.084688 
L 251.394085 -73.084688 
L 255.995756 -73.084688 
L 260.597427 -73.084688 
L 265.199098 -73.084688 
L 269.80077 -73.084688 
L 274.402441 -73.084688 
L 279.004112 -73.084688 
L 283.605783 -73.084688 
L 288.207454 -73.084688 
L 292.809125 -73.084688 
L 297.410797 -73.084688 
L 302.012468 -73.084688 
L 306.614139 -73.084688 
L 311.21581 -73.084688 
L 315.817481 -73.084688 
L 320.419152 -73.084688 
L 325.020823 -73.084688 
L 329.622495 -73.084688 
L 334.224166 -73.084688 
L 338.825837 -73.084688 
L 343.427508 -73.084688 
L 348.029179 -73.084688 
L 352.63085 -73.084688 
L 357.232521 -73.084688 
L 361.834193 -73.084688 
L 366.435864 -73.084688 
L 371.037535 -73.084688 
L 375.639206 -73.084688 
L 380.240877 -73.084688 
L 384.842548 -73.084688 
L 389.444219 -73.084688 
L 394.045891 -73.084688 
L 398.647562 -73.084688 
L 403.249233 -73.084688 
L 407.850904 -73.084688 
L 412.452575 -73.084688 
L 417.054246 -73.084688 
L 421.655917 -73.084688 
L 426.257589 -73.084688 
L 430.85926 -73.084688 
L 435.460931 -73.084688 
L 440.062602 -73.084688 
L 444.664273 -73.084688 
L 449.265944 -73.084688 
L 453.867616 -73.084688 
L 458.469287 -73.084688 
L 463.070958 -73.084688 
L 467.672629 -73.084688 
L 472.2743 -73.084688 
L 476.875971 -73.084688 
L 481.477642 -73.084688 
L 486.079314 -73.084688 
L 490.680985 -73.084688 
L 495.282656 -73.084688 
L 499.884327 -73.084688 
L 504.485998 -73.084688 
L 509.087669 -73.084688 
L 513.68934 -73.084688 
L 518.291012 -73.084688 
L 522.892683 -73.084688 
L 527.494354 -73.084688 
L 532.096025 -73.084688 
L 536.697696 -73.084688 
L 541.299367 -73.084688 
L 545.901038 -73.084688 
L 550.50271 -73.084688 
L 555.104381 -73.084688 
L 559.706052 -73.084688 
L 564.307723 -73.084688 
L 568.909394 -73.084688 
L 573.511065 -73.084688 
L 578.112736 -73.084688 
L 582.714408 -73.084688 
L 587.316079 -73.084688 
L 591.91775 -73.084688 
L 596.519421 -73.084688 
L 601.121092 -73.084688 
L 605.722763 -73.084688 
L 610.324435 -73.084688 
L 614.926106 -73.084688 
L 619.527777 -73.084688 
L 624.129448 -73.084688 
L 628.731119 -73.084688 
L 633.33279 -73.084688 
L 637.934461 -73.084688 
L 642.536133 -73.084688 
L 647.137804 -73.084688 
L 651.739475 -73.084688 
L 656.341146 -73.084688 
L 660.942817 -73.084688 
L 665.544488 -73.084688 
L 670.146159 -73.084688 
L 674.747831 -73.084688 
L 679.349502 -73.084688 
L 683.951173 -73.084688 
L 688.552844 -73.084688 
L 693.154515 -73.084688 
L 697.756186 -73.084688 
L 702.357857 -73.084688 
L 706.959529 -73.084688 
L 711.5612 -73.084688 
L 716.162871 -73.084688 
L 720.764542 -73.084688 
L 725.366213 -73.084688 
L 729.967884 -73.084688 
L 734.569555 -73.084688 
L 739.171227 -73.084688 
L 743.772898 -73.084688 
L 748.374569 -73.084688 
L 752.97624 -73.084688 
L 757.577911 -73.084688 
L 762.179582 -73.084688 
L 766.781254 -73.084688 
L 771.382925 -73.084688 
L 775.984596 -73.084688 
L 780.586267 -73.084688 
L 785.187938 -73.084688 
L 789.789609 -73.084688 
L 794.39128 -73.084688 
L 798.992952 -73.084688 
L 803.594623 -73.084688 
L 808.196294 -73.084688 
L 812.797965 -73.084688 
L 817.399636 -73.084688 
L 822.001307 -73.084688 
L 826.602978 -73.084688 
L 831.20465 -73.084688 
L 835.806321 -73.084688 
L 840.407992 -73.084688 
L 845.009663 -73.084688 
L 849.611334 -73.084688 
L 854.213005 -73.084688 
L 858.814676 -73.084688 
L 863.416348 -73.084688 
L 868.018019 -73.084688 
L 872.61969 -73.084688 
L 877.221361 -73.084688 
L 881.823032 -73.084688 
L 886.424703 -73.084688 
L 891.026374 -73.084688 
L 895.628046 -73.084688 
L 900.229717 -73.084688 
L 904.831388 -73.084688 
L 909.433059 -73.084688 
L 914.03473 -73.084688 
L 918.636401 -73.084688 
L 923.238073 -73.084688 
L 927.839744 -73.084688 
L 932.441415 -73.084688 
L 937.043086 -73.084688 
L 941.644757 -73.084688 
L 946.246428 -73.084688 
L 950.848099 -73.084688 
L 955.449771 -73.084688 
L 960.051442 -73.084688 
L 964.653113 -73.084688 
L 969.254784 -73.084688 
L 973.856455 -73.084688 
L 978.458126 -73.084688 
L 983.059797 -73.084688 
L 987.661469 -73.084688 
L 992.26314 -73.084688 
L 996.864811 -73.084688 
L 1001.466482 -73.084688 
L 1006.068153 -73.084688 
L 1010.669824 -73.084688 
L 1015.271495 -73.084688 
L 1019.873167 -73.084688 
L 1024.474838 -73.084688 
L 1029.076509 -73.084688 
L 1033.67818 -73.084688 
L 1038.279851 -73.084688 
L 1042.881522 -73.084688 
L 1047.483193 -73.084688 
L 1052.084865 -73.084688 
L 1056.686536 -73.084688 
L 1061.288207 -73.084688 
L 1065.889878 -73.084688 
L 1070.491549 -73.084688 
L 1075.09322 -73.084688 
L 1079.694892 -73.084688 
L 1084.296563 -73.084688 
L 1088.898234 -73.084688 
L 1093.499905 -73.084688 
L 1098.101576 -73.084688 
L 1102.703247 -73.084688 
L 1107.304918 -73.084688 
L 1111.90659 -73.084688 
L 1116.508261 -73.084688 
L 1121.109932 -73.084688 
L 1125.711603 -73.084688 
L 1130.313274 -73.084688 
L 1134.914945 -73.084688 
L 1139.516616 -73.084688 
L 1144.118288 -73.084688 
L 1148.719959 -73.084688 
L 1148.719959 -73.935414 
L 1148.719959 -73.935414 
L 1144.118288 -74.089976 
L 1139.516616 -74.269935 
L 1134.914945 -74.478958 
L 1130.313274 -74.721153 
L 1125.711603 -75.001107 
L 1121.109932 -75.323923 
L 1116.508261 -75.695268 
L 1111.90659 -76.121405 
L 1107.304918 -76.609239 
L 1102.703247 -77.166358 
L 1098.101576 -77.801066 
L 1093.499905 -78.522427 
L 1088.898234 -79.340296 
L 1084.296563 -80.265348 
L 1079.694892 -81.309109 
L 1075.09322 -82.483975 
L 1070.491549 -83.803226 
L 1065.889878 -85.281034 
L 1061.288207 -86.932465 
L 1056.686536 -88.773465 
L 1052.084865 -90.820843 
L 1047.483193 -93.092237 
L 1042.881522 -95.606069 
L 1038.279851 -98.381489 
L 1033.67818 -101.438303 
L 1029.076509 -104.796886 
L 1024.474838 -108.478077 
L 1019.873167 -112.503067 
L 1015.271495 -116.893261 
L 1010.669824 -121.67013 
L 1006.068153 -126.855044 
L 1001.466482 -132.469095 
L 996.864811 -138.532896 
L 992.26314 -145.066381 
L 987.661469 -152.088575 
L 983.059797 -159.617373 
L 978.458126 -167.669292 
L 973.856455 -176.259231 
L 969.254784 -185.400217 
L 964.653113 -195.103158 
L 960.051442 -205.37659 
L 955.449771 -216.226436 
L 950.848099 -227.655764 
L 946.246428 -239.664569 
L 941.644757 -252.249554 
L 937.043086 -265.403944 
L 932.441415 -279.117315 
L 927.839744 -293.375443 
L 923.238073 -308.160193 
L 918.636401 -323.449428 
L 914.03473 -339.216959 
L 909.433059 -355.432527 
L 904.831388 -372.061827 
L 900.229717 -389.066567 
L 895.628046 -406.404573 
L 891.026374 -424.02993 
L 886.424703 -441.893172 
L 881.823032 -459.941506 
L 877.221361 -478.119078 
L 872.61969 -496.367282 
L 868.018019 -514.625096 
L 863.416348 -532.829461 
L 858.814676 -550.915686 
L 854.213005 -568.817874 
L 849.611334 -586.469382 
L 845.009663 -603.803287 
L 840.407992 -620.75287 
L 835.806321 -637.252107 
L 831.20465 -653.236158 
L 826.602978 -668.64186 
L 822.001307 -683.408201 
L 817.399636 -697.476783 
L 812.797965 -710.792271 
L 808.196294 -723.302803 
L 803.594623 -734.960383 
L 798.992952 -745.721232 
L 794.39128 -755.546099 
L 789.789609 -764.400536 
L 785.187938 -772.255119 
L 780.586267 -779.085633 
L 775.984596 -784.873193 
L 771.382925 -789.604326 
L 766.781254 -793.271001 
L 762.179582 -795.870598 
L 757.577911 -797.405845 
L 752.97624 -797.884687 
L 748.374569 -797.320131 
L 743.772898 -795.730027 
L 739.171227 -793.136825 
L 734.569555 -789.56729 
L 729.967884 -785.052182 
L 725.366213 -779.625921 
L 720.764542 -773.326213 
L 716.162871 -766.193674 
L 711.5612 -758.271431 
L 706.959529 -749.60472 
L 702.357857 -740.240481 
L 697.756186 -730.226956 
L 693.154515 -719.613294 
L 688.552844 -708.449161 
L 683.951173 -696.784376 
L 679.349502 -684.668558 
L 674.747831 -672.150794 
L 670.146159 -659.27934 
L 665.544488 -646.10134 
L 660.942817 -632.662577 
L 656.341146 -619.007257 
L 651.739475 -605.177818 
L 647.137804 -591.214777 
L 642.536133 -577.156598 
L 637.934461 -563.039605 
L 633.33279 -548.897909 
L 628.731119 -534.763373 
L 624.129448 -520.665603 
L 619.527777 -506.631955 
L 614.926106 -492.687577 
L 610.324435 -478.855461 
L 605.722763 -465.156517 
L 601.121092 -451.609657 
L 596.519421 -438.231902 
L 591.91775 -425.038484 
L 587.316079 -412.042968 
L 582.714408 -399.257369 
L 578.112736 -386.692278 
L 573.511065 -374.356983 
L 568.909394 -362.259591 
L 564.307723 -350.407145 
L 559.706052 -338.805734 
L 555.104381 -327.460601 
L 550.50271 -316.376237 
L 545.901038 -305.55647 
L 541.299367 -295.004544 
L 536.697696 -284.723186 
L 532.096025 -274.714667 
L 527.494354 -264.98085 
L 522.892683 -255.523229 
L 518.291012 -246.342961 
L 513.68934 -237.440885 
L 509.087669 -228.817539 
L 504.485998 -220.473163 
L 499.884327 -212.407704 
L 495.282656 -204.620809 
L 490.680985 -197.111821 
L 486.079314 -189.87976 
L 481.477642 -182.923319 
L 476.875971 -176.240845 
L 472.2743 -169.830323 
L 467.672629 -163.68937 
L 463.070958 -157.815216 
L 458.469287 -152.204699 
L 453.867616 -146.854256 
L 449.265944 -141.759923 
L 444.664273 -136.917331 
L 440.062602 -132.321715 
L 435.460931 -127.967922 
L 430.85926 -123.85042 
L 426.257589 -119.963319 
L 421.655917 -116.300387 
L 417.054246 -112.855082 
L 412.452575 -109.62057 
L 407.850904 -106.589761 
L 403.249233 -103.755343 
L 398.647562 -101.109811 
L 394.045891 -98.645508 
L 389.444219 -96.354663 
L 384.842548 -94.229425 
L 380.240877 -92.261902 
L 375.639206 -90.4442 
L 371.037535 -88.768457 
L 366.435864 -87.22688 
L 361.834193 -85.811778 
L 357.232521 -84.515589 
L 352.63085 -83.330915 
L 348.029179 -82.250546 
L 343.427508 -81.267479 
L 338.825837 -80.374945 
L 334.224166 -79.566425 
L 329.622495 -78.835662 
L 325.020823 -78.176676 
L 320.419152 -77.583769 
L 315.817481 -77.051538 
L 311.21581 -76.574872 
L 306.614139 -76.148954 
L 302.012468 -75.769264 
L 297.410797 -75.431572 
L 292.809125 -75.131933 
L 288.207454 -74.866682 
L 283.605783 -74.632424 
L 279.004112 -74.426025 
L 274.402441 -74.244601 
L 269.80077 -74.085508 
L 265.199098 -73.946328 
L 260.597427 -73.824859 
L 255.995756 -73.7191 
L 251.394085 -73.627239 
L 246.792414 -73.54764 
L 242.190743 -73.478832 
L 237.589072 -73.419496 
L 232.9874 -73.36845 
z
" style="stroke: #f06043; stroke-width: 5"/>
    </defs>
    <g clip-path="url(#pf993171a9a)">
     <use xlink:href="#m72e466bdba" x="0" y="841.324687" style="fill: #f06043; fill-opacity: 0.1; stroke: #f06043; stroke-width: 5"/>
    </g>
   </g>
   <g id="patch_3">
    <path d="M 132.85625 768.24 
L 132.85625 7.2 
" style="fill: none; stroke: #cccccc; stroke-width: 1.875; stroke-linejoin: miter; stroke-linecap: square"/>
   </g>
   <g id="patch_4">
    <path d="M 1248.85625 768.24 
L 1248.85625 7.2 
" style="fill: none; stroke: #cccccc; stroke-width: 1.875; stroke-linejoin: miter; stroke-linecap: square"/>
   </g>
   <g id="patch_5">
    <path d="M 132.85625 768.24 
L 1248.85625 768.24 
" style="fill: none; stroke: #cccccc; stroke-width: 1.875; stroke-linejoin: miter; stroke-linecap: square"/>
   </g>
   <g id="patch_6">
    <path d="M 132.85625 7.2 
L 1248.85625 7.2 
" style="fill: none; stroke: #cccccc; stroke-width: 1.875; stroke-linejoin: miter; stroke-linecap: square"/>
   </g>
   <g id="legend_1">
    <g id="patch_7">
     <path d="M 881.3125 109.483125 
L 1229.25625 109.483125 
Q 1234.85625 109.483125 1234.85625 103.883125 
L 1234.85625 26.8 
Q 1234.85625 21.2 1229.25625 21.2 
L 881.3125 21.2 
Q 875.7125 21.2 875.7125 26.8 
L 875.7125 103.883125 
Q 875.7125 109.483125 881.3125 109.483125 
z
" style="fill: #ffffff; opacity: 0.8; stroke: #cccccc; stroke-width: 1.5; stroke-linejoin: miter"/>
    </g>
    <g id="patch_8">
     <path d="M 886.9125 52.783125 
L 942.9125 52.783125 
L 942.9125 33.183125 
L 886.9125 33.183125 
z
" style="fill: #841e5a; fill-opacity: 0.1; stroke: #841e5a; stroke-width: 5; stroke-linejoin: miter"/>
    </g>
    <g id="text_19">
     <!-- Highest 10% Income -->
     <g style="fill: #262626" transform="translate(965.3125 52.783125)scale(0.28 -0.28)">
      <defs>
       <path id="ArialMT-48" d="M 513 0 
L 513 4581 
L 1119 4581 
L 1119 2700 
L 3500 2700 
L 3500 4581 
L 4106 4581 
L 4106 0 
L 3500 0 
L 3500 2159 
L 1119 2159 
L 1119 0 
L 513 0 
z
" transform="scale(0.015625)"/>
       <path id="ArialMT-67" d="M 319 -275 
L 866 -356 
Q 900 -609 1056 -725 
Q 1266 -881 1628 -881 
Q 2019 -881 2231 -725 
Q 2444 -569 2519 -288 
Q 2563 -116 2559 434 
Q 2191 0 1641 0 
Q 956 0 581 494 
Q 206 988 206 1678 
Q 206 2153 378 2554 
Q 550 2956 876 3175 
Q 1203 3394 1644 3394 
Q 2231 3394 2613 2919 
L 2613 3319 
L 3131 3319 
L 3131 450 
Q 3131 -325 2973 -648 
Q 2816 -972 2473 -1159 
Q 2131 -1347 1631 -1347 
Q 1038 -1347 672 -1080 
Q 306 -813 319 -275 
z
M 784 1719 
Q 784 1066 1043 766 
Q 1303 466 1694 466 
Q 2081 466 2343 764 
Q 2606 1063 2606 1700 
Q 2606 2309 2336 2618 
Q 2066 2928 1684 2928 
Q 1309 2928 1046 2623 
Q 784 2319 784 1719 
z
" transform="scale(0.015625)"/>
       <path id="ArialMT-68" d="M 422 0 
L 422 4581 
L 984 4581 
L 984 2938 
Q 1378 3394 1978 3394 
Q 2347 3394 2619 3248 
Q 2891 3103 3008 2847 
Q 3125 2591 3125 2103 
L 3125 0 
L 2563 0 
L 2563 2103 
Q 2563 2525 2380 2717 
Q 2197 2909 1863 2909 
Q 1613 2909 1392 2779 
Q 1172 2650 1078 2428 
Q 984 2206 984 1816 
L 984 0 
L 422 0 
z
" transform="scale(0.015625)"/>
       <path id="ArialMT-25" d="M 372 3481 
Q 372 3972 619 4315 
Q 866 4659 1334 4659 
Q 1766 4659 2048 4351 
Q 2331 4044 2331 3447 
Q 2331 2866 2045 2552 
Q 1759 2238 1341 2238 
Q 925 2238 648 2547 
Q 372 2856 372 3481 
z
M 1350 4272 
Q 1141 4272 1002 4090 
Q 863 3909 863 3425 
Q 863 2984 1003 2804 
Q 1144 2625 1350 2625 
Q 1563 2625 1702 2806 
Q 1841 2988 1841 3469 
Q 1841 3913 1700 4092 
Q 1559 4272 1350 4272 
z
M 1353 -169 
L 3859 4659 
L 4316 4659 
L 1819 -169 
L 1353 -169 
z
M 3334 1075 
Q 3334 1569 3581 1911 
Q 3828 2253 4300 2253 
Q 4731 2253 5014 1945 
Q 5297 1638 5297 1041 
Q 5297 459 5011 145 
Q 4725 -169 4303 -169 
Q 3888 -169 3611 142 
Q 3334 453 3334 1075 
z
M 4316 1866 
Q 4103 1866 3964 1684 
Q 3825 1503 3825 1019 
Q 3825 581 3965 400 
Q 4106 219 4313 219 
Q 4528 219 4667 400 
Q 4806 581 4806 1063 
Q 4806 1506 4665 1686 
Q 4525 1866 4316 1866 
z
" transform="scale(0.015625)"/>
       <path id="ArialMT-6d" d="M 422 0 
L 422 3319 
L 925 3319 
L 925 2853 
Q 1081 3097 1340 3245 
Q 1600 3394 1931 3394 
Q 2300 3394 2536 3241 
Q 2772 3088 2869 2813 
Q 3263 3394 3894 3394 
Q 4388 3394 4653 3120 
Q 4919 2847 4919 2278 
L 4919 0 
L 4359 0 
L 4359 2091 
Q 4359 2428 4304 2576 
Q 4250 2725 4106 2815 
Q 3963 2906 3769 2906 
Q 3419 2906 3187 2673 
Q 2956 2441 2956 1928 
L 2956 0 
L 2394 0 
L 2394 2156 
Q 2394 2531 2256 2718 
Q 2119 2906 1806 2906 
Q 1569 2906 1367 2781 
Q 1166 2656 1075 2415 
Q 984 2175 984 1722 
L 984 0 
L 422 0 
z
" transform="scale(0.015625)"/>
      </defs>
      <use xlink:href="#ArialMT-48"/>
      <use xlink:href="#ArialMT-69" x="72.216797"/>
      <use xlink:href="#ArialMT-67" x="94.433594"/>
      <use xlink:href="#ArialMT-68" x="150.048828"/>
      <use xlink:href="#ArialMT-65" x="205.664062"/>
      <use xlink:href="#ArialMT-73" x="261.279297"/>
      <use xlink:href="#ArialMT-74" x="311.279297"/>
      <use xlink:href="#ArialMT-20" x="339.0625"/>
      <use xlink:href="#ArialMT-31" x="366.845703"/>
      <use xlink:href="#ArialMT-30" x="422.460938"/>
      <use xlink:href="#ArialMT-25" x="478.076172"/>
      <use xlink:href="#ArialMT-20" x="566.992188"/>
      <use xlink:href="#ArialMT-49" x="594.775391"/>
      <use xlink:href="#ArialMT-6e" x="622.558594"/>
      <use xlink:href="#ArialMT-63" x="678.173828"/>
      <use xlink:href="#ArialMT-6f" x="728.173828"/>
      <use xlink:href="#ArialMT-6d" x="783.789062"/>
      <use xlink:href="#ArialMT-65" x="867.089844"/>
     </g>
    </g>
    <g id="patch_9">
     <path d="M 886.9125 92.718125 
L 942.9125 92.718125 
L 942.9125 73.118125 
L 886.9125 73.118125 
z
" style="fill: #f06043; fill-opacity: 0.1; stroke: #f06043; stroke-width: 5; stroke-linejoin: miter"/>
    </g>
    <g id="text_20">
     <!-- Lowest 10% Income -->
     <g style="fill: #262626" transform="translate(965.3125 92.718125)scale(0.28 -0.28)">
      <defs>
       <path id="ArialMT-4c" d="M 469 0 
L 469 4581 
L 1075 4581 
L 1075 541 
L 3331 541 
L 3331 0 
L 469 0 
z
" transform="scale(0.015625)"/>
       <path id="ArialMT-77" d="M 1034 0 
L 19 3319 
L 600 3319 
L 1128 1403 
L 1325 691 
Q 1338 744 1497 1375 
L 2025 3319 
L 2603 3319 
L 3100 1394 
L 3266 759 
L 3456 1400 
L 4025 3319 
L 4572 3319 
L 3534 0 
L 2950 0 
L 2422 1988 
L 2294 2553 
L 1622 0 
L 1034 0 
z
" transform="scale(0.015625)"/>
      </defs>
      <use xlink:href="#ArialMT-4c"/>
      <use xlink:href="#ArialMT-6f" x="55.615234"/>
      <use xlink:href="#ArialMT-77" x="111.230469"/>
      <use xlink:href="#ArialMT-65" x="183.447266"/>
      <use xlink:href="#ArialMT-73" x="239.0625"/>
      <use xlink:href="#ArialMT-74" x="289.0625"/>
      <use xlink:href="#ArialMT-20" x="316.845703"/>
      <use xlink:href="#ArialMT-31" x="344.628906"/>
      <use xlink:href="#ArialMT-30" x="400.244141"/>
      <use xlink:href="#ArialMT-25" x="455.859375"/>
      <use xlink:href="#ArialMT-20" x="544.775391"/>
      <use xlink:href="#ArialMT-49" x="572.558594"/>
      <use xlink:href="#ArialMT-6e" x="600.341797"/>
      <use xlink:href="#ArialMT-63" x="655.957031"/>
      <use xlink:href="#ArialMT-6f" x="705.957031"/>
      <use xlink:href="#ArialMT-6d" x="761.572266"/>
      <use xlink:href="#ArialMT-65" x="844.873047"/>
     </g>
    </g>
   </g>
  </g>
 </g>
 <defs>
  <clipPath id="pf993171a9a">
   <rect x="132.85625" y="7.2" width="1116" height="761.04"/>
  </clipPath>
 </defs>
</svg>
