<?xml version="1.0" encoding="utf-8" standalone="no"?>
<!DOCTYPE svg PUBLIC "-//W3C//DTD SVG 1.1//EN"
  "http://www.w3.org/Graphics/SVG/1.1/DTD/svg11.dtd">
<svg xmlns:xlink="http://www.w3.org/1999/xlink" width="1226.682813pt" height="843.809687pt" viewBox="0 0 1226.682813 843.809687" xmlns="http://www.w3.org/2000/svg" version="1.1">
 <metadata>
  <rdf:RDF xmlns:dc="http://purl.org/dc/elements/1.1/" xmlns:cc="http://creativecommons.org/ns#" xmlns:rdf="http://www.w3.org/1999/02/22-rdf-syntax-ns#">
   <cc:Work>
    <dc:type rdf:resource="http://purl.org/dc/dcmitype/StillImage"/>
    <dc:date>2023-05-11T04:40:36.212758</dc:date>
    <dc:format>image/svg+xml</dc:format>
    <dc:creator>
     <cc:Agent>
      <dc:title>Matplotlib v3.5.1, https://matplotlib.org/</dc:title>
     </cc:Agent>
    </dc:creator>
   </cc:Work>
  </rdf:RDF>
 </metadata>
 <defs>
  <style type="text/css">*{stroke-linejoin: round; stroke-linecap: butt}</style>
 </defs>
 <g id="figure_1">
  <g id="patch_1">
   <path d="M 0 843.809687 
L 1226.682813 843.809687 
L 1226.682813 0 
L 0 0 
z
" style="fill: #ffffff"/>
  </g>
  <g id="axes_1">
   <g id="patch_2">
    <path d="M 103.482813 768.24 
L 1219.482812 768.24 
L 1219.482812 7.2 
L 103.482813 7.2 
z
" style="fill: #ffffff"/>
   </g>
   <g id="matplotlib.axis_1">
    <g id="xtick_1">
     <g id="line2d_1">
      <path d="M 286.937717 768.24 
L 286.937717 7.2 
" clip-path="url(#p8539857604)" style="fill: none; stroke: #cccccc; stroke-width: 1.5; stroke-linecap: round"/>
     </g>
     <g id="text_1">
      <!-- −40 -->
      <g style="fill: #262626" transform="translate(268.278967 796.487187)scale(0.22 -0.22)">
       <defs>
        <path id="ArialMT-2212" d="M 3381 1997 
L 356 1997 
L 356 2522 
L 3381 2522 
L 3381 1997 
z
" transform="scale(0.015625)"/>
        <path id="ArialMT-34" d="M 2069 0 
L 2069 1097 
L 81 1097 
L 81 1613 
L 2172 4581 
L 2631 4581 
L 2631 1613 
L 3250 1613 
L 3250 1097 
L 2631 1097 
L 2631 0 
L 2069 0 
z
M 2069 1613 
L 2069 3678 
L 634 1613 
L 2069 1613 
z
" transform="scale(0.015625)"/>
        <path id="ArialMT-30" d="M 266 2259 
Q 266 3072 433 3567 
Q 600 4063 929 4331 
Q 1259 4600 1759 4600 
Q 2128 4600 2406 4451 
Q 2684 4303 2865 4023 
Q 3047 3744 3150 3342 
Q 3253 2941 3253 2259 
Q 3253 1453 3087 958 
Q 2922 463 2592 192 
Q 2263 -78 1759 -78 
Q 1097 -78 719 397 
Q 266 969 266 2259 
z
M 844 2259 
Q 844 1131 1108 757 
Q 1372 384 1759 384 
Q 2147 384 2411 759 
Q 2675 1134 2675 2259 
Q 2675 3391 2411 3762 
Q 2147 4134 1753 4134 
Q 1366 4134 1134 3806 
Q 844 3388 844 2259 
z
" transform="scale(0.015625)"/>
       </defs>
       <use xlink:href="#ArialMT-2212"/>
       <use xlink:href="#ArialMT-34" x="58.398438"/>
       <use xlink:href="#ArialMT-30" x="114.013672"/>
      </g>
     </g>
    </g>
    <g id="xtick_2">
     <g id="line2d_2">
      <path d="M 481.491713 768.24 
L 481.491713 7.2 
" clip-path="url(#p8539857604)" style="fill: none; stroke: #cccccc; stroke-width: 1.5; stroke-linecap: round"/>
     </g>
     <g id="text_2">
      <!-- −20 -->
      <g style="fill: #262626" transform="translate(462.832963 796.487187)scale(0.22 -0.22)">
       <defs>
        <path id="ArialMT-32" d="M 3222 541 
L 3222 0 
L 194 0 
Q 188 203 259 391 
Q 375 700 629 1000 
Q 884 1300 1366 1694 
Q 2113 2306 2375 2664 
Q 2638 3022 2638 3341 
Q 2638 3675 2398 3904 
Q 2159 4134 1775 4134 
Q 1369 4134 1125 3890 
Q 881 3647 878 3216 
L 300 3275 
Q 359 3922 746 4261 
Q 1134 4600 1788 4600 
Q 2447 4600 2831 4234 
Q 3216 3869 3216 3328 
Q 3216 3053 3103 2787 
Q 2991 2522 2730 2228 
Q 2469 1934 1863 1422 
Q 1356 997 1212 845 
Q 1069 694 975 541 
L 3222 541 
z
" transform="scale(0.015625)"/>
       </defs>
       <use xlink:href="#ArialMT-2212"/>
       <use xlink:href="#ArialMT-32" x="58.398438"/>
       <use xlink:href="#ArialMT-30" x="114.013672"/>
      </g>
     </g>
    </g>
    <g id="xtick_3">
     <g id="line2d_3">
      <path d="M 676.04571 768.24 
L 676.04571 7.2 
" clip-path="url(#p8539857604)" style="fill: none; stroke: #cccccc; stroke-width: 1.5; stroke-linecap: round"/>
     </g>
     <g id="text_3">
      <!-- 0 -->
      <g style="fill: #262626" transform="translate(669.928678 796.487187)scale(0.22 -0.22)">
       <use xlink:href="#ArialMT-30"/>
      </g>
     </g>
    </g>
    <g id="xtick_4">
     <g id="line2d_4">
      <path d="M 870.599706 768.24 
L 870.599706 7.2 
" clip-path="url(#p8539857604)" style="fill: none; stroke: #cccccc; stroke-width: 1.5; stroke-linecap: round"/>
     </g>
     <g id="text_4">
      <!-- 20 -->
      <g style="fill: #262626" transform="translate(858.365644 796.487187)scale(0.22 -0.22)">
       <use xlink:href="#ArialMT-32"/>
       <use xlink:href="#ArialMT-30" x="55.615234"/>
      </g>
     </g>
    </g>
    <g id="xtick_5">
     <g id="line2d_5">
      <path d="M 1065.153702 768.24 
L 1065.153702 7.2 
" clip-path="url(#p8539857604)" style="fill: none; stroke: #cccccc; stroke-width: 1.5; stroke-linecap: round"/>
     </g>
     <g id="text_5">
      <!-- 40 -->
      <g style="fill: #262626" transform="translate(1052.91964 796.487187)scale(0.22 -0.22)">
       <use xlink:href="#ArialMT-34"/>
       <use xlink:href="#ArialMT-30" x="55.615234"/>
      </g>
     </g>
    </g>
    <g id="text_6">
     <!-- Potential INEXUS ($) -->
     <g style="fill: #262626" transform="translate(511.205312 829.874687)scale(0.32 -0.32)">
      <defs>
       <path id="ArialMT-50" d="M 494 0 
L 494 4581 
L 2222 4581 
Q 2678 4581 2919 4538 
Q 3256 4481 3484 4323 
Q 3713 4166 3852 3881 
Q 3991 3597 3991 3256 
Q 3991 2672 3619 2267 
Q 3247 1863 2275 1863 
L 1100 1863 
L 1100 0 
L 494 0 
z
M 1100 2403 
L 2284 2403 
Q 2872 2403 3119 2622 
Q 3366 2841 3366 3238 
Q 3366 3525 3220 3729 
Q 3075 3934 2838 4000 
Q 2684 4041 2272 4041 
L 1100 4041 
L 1100 2403 
z
" transform="scale(0.015625)"/>
       <path id="ArialMT-6f" d="M 213 1659 
Q 213 2581 725 3025 
Q 1153 3394 1769 3394 
Q 2453 3394 2887 2945 
Q 3322 2497 3322 1706 
Q 3322 1066 3130 698 
Q 2938 331 2570 128 
Q 2203 -75 1769 -75 
Q 1072 -75 642 372 
Q 213 819 213 1659 
z
M 791 1659 
Q 791 1022 1069 705 
Q 1347 388 1769 388 
Q 2188 388 2466 706 
Q 2744 1025 2744 1678 
Q 2744 2294 2464 2611 
Q 2184 2928 1769 2928 
Q 1347 2928 1069 2612 
Q 791 2297 791 1659 
z
" transform="scale(0.015625)"/>
       <path id="ArialMT-74" d="M 1650 503 
L 1731 6 
Q 1494 -44 1306 -44 
Q 1000 -44 831 53 
Q 663 150 594 308 
Q 525 466 525 972 
L 525 2881 
L 113 2881 
L 113 3319 
L 525 3319 
L 525 4141 
L 1084 4478 
L 1084 3319 
L 1650 3319 
L 1650 2881 
L 1084 2881 
L 1084 941 
Q 1084 700 1114 631 
Q 1144 563 1211 522 
Q 1278 481 1403 481 
Q 1497 481 1650 503 
z
" transform="scale(0.015625)"/>
       <path id="ArialMT-65" d="M 2694 1069 
L 3275 997 
Q 3138 488 2766 206 
Q 2394 -75 1816 -75 
Q 1088 -75 661 373 
Q 234 822 234 1631 
Q 234 2469 665 2931 
Q 1097 3394 1784 3394 
Q 2450 3394 2872 2941 
Q 3294 2488 3294 1666 
Q 3294 1616 3291 1516 
L 816 1516 
Q 847 969 1125 678 
Q 1403 388 1819 388 
Q 2128 388 2347 550 
Q 2566 713 2694 1069 
z
M 847 1978 
L 2700 1978 
Q 2663 2397 2488 2606 
Q 2219 2931 1791 2931 
Q 1403 2931 1139 2672 
Q 875 2413 847 1978 
z
" transform="scale(0.015625)"/>
       <path id="ArialMT-6e" d="M 422 0 
L 422 3319 
L 928 3319 
L 928 2847 
Q 1294 3394 1984 3394 
Q 2284 3394 2536 3286 
Q 2788 3178 2913 3003 
Q 3038 2828 3088 2588 
Q 3119 2431 3119 2041 
L 3119 0 
L 2556 0 
L 2556 2019 
Q 2556 2363 2490 2533 
Q 2425 2703 2258 2804 
Q 2091 2906 1866 2906 
Q 1506 2906 1245 2678 
Q 984 2450 984 1813 
L 984 0 
L 422 0 
z
" transform="scale(0.015625)"/>
       <path id="ArialMT-69" d="M 425 3934 
L 425 4581 
L 988 4581 
L 988 3934 
L 425 3934 
z
M 425 0 
L 425 3319 
L 988 3319 
L 988 0 
L 425 0 
z
" transform="scale(0.015625)"/>
       <path id="ArialMT-61" d="M 2588 409 
Q 2275 144 1986 34 
Q 1697 -75 1366 -75 
Q 819 -75 525 192 
Q 231 459 231 875 
Q 231 1119 342 1320 
Q 453 1522 633 1644 
Q 813 1766 1038 1828 
Q 1203 1872 1538 1913 
Q 2219 1994 2541 2106 
Q 2544 2222 2544 2253 
Q 2544 2597 2384 2738 
Q 2169 2928 1744 2928 
Q 1347 2928 1158 2789 
Q 969 2650 878 2297 
L 328 2372 
Q 403 2725 575 2942 
Q 747 3159 1072 3276 
Q 1397 3394 1825 3394 
Q 2250 3394 2515 3294 
Q 2781 3194 2906 3042 
Q 3031 2891 3081 2659 
Q 3109 2516 3109 2141 
L 3109 1391 
Q 3109 606 3145 398 
Q 3181 191 3288 0 
L 2700 0 
Q 2613 175 2588 409 
z
M 2541 1666 
Q 2234 1541 1622 1453 
Q 1275 1403 1131 1340 
Q 988 1278 909 1158 
Q 831 1038 831 891 
Q 831 666 1001 516 
Q 1172 366 1500 366 
Q 1825 366 2078 508 
Q 2331 650 2450 897 
Q 2541 1088 2541 1459 
L 2541 1666 
z
" transform="scale(0.015625)"/>
       <path id="ArialMT-6c" d="M 409 0 
L 409 4581 
L 972 4581 
L 972 0 
L 409 0 
z
" transform="scale(0.015625)"/>
       <path id="ArialMT-20" transform="scale(0.015625)"/>
       <path id="ArialMT-49" d="M 597 0 
L 597 4581 
L 1203 4581 
L 1203 0 
L 597 0 
z
" transform="scale(0.015625)"/>
       <path id="ArialMT-4e" d="M 488 0 
L 488 4581 
L 1109 4581 
L 3516 984 
L 3516 4581 
L 4097 4581 
L 4097 0 
L 3475 0 
L 1069 3600 
L 1069 0 
L 488 0 
z
" transform="scale(0.015625)"/>
       <path id="ArialMT-45" d="M 506 0 
L 506 4581 
L 3819 4581 
L 3819 4041 
L 1113 4041 
L 1113 2638 
L 3647 2638 
L 3647 2100 
L 1113 2100 
L 1113 541 
L 3925 541 
L 3925 0 
L 506 0 
z
" transform="scale(0.015625)"/>
       <path id="ArialMT-58" d="M 28 0 
L 1800 2388 
L 238 4581 
L 959 4581 
L 1791 3406 
Q 2050 3041 2159 2844 
Q 2313 3094 2522 3366 
L 3444 4581 
L 4103 4581 
L 2494 2422 
L 4228 0 
L 3478 0 
L 2325 1634 
Q 2228 1775 2125 1941 
Q 1972 1691 1906 1597 
L 756 0 
L 28 0 
z
" transform="scale(0.015625)"/>
       <path id="ArialMT-55" d="M 3500 4581 
L 4106 4581 
L 4106 1934 
Q 4106 1244 3950 837 
Q 3794 431 3386 176 
Q 2978 -78 2316 -78 
Q 1672 -78 1262 144 
Q 853 366 678 786 
Q 503 1206 503 1934 
L 503 4581 
L 1109 4581 
L 1109 1938 
Q 1109 1341 1220 1058 
Q 1331 775 1601 622 
Q 1872 469 2263 469 
Q 2931 469 3215 772 
Q 3500 1075 3500 1938 
L 3500 4581 
z
" transform="scale(0.015625)"/>
       <path id="ArialMT-53" d="M 288 1472 
L 859 1522 
Q 900 1178 1048 958 
Q 1197 738 1509 602 
Q 1822 466 2213 466 
Q 2559 466 2825 569 
Q 3091 672 3220 851 
Q 3350 1031 3350 1244 
Q 3350 1459 3225 1620 
Q 3100 1781 2813 1891 
Q 2628 1963 1997 2114 
Q 1366 2266 1113 2400 
Q 784 2572 623 2826 
Q 463 3081 463 3397 
Q 463 3744 659 4045 
Q 856 4347 1234 4503 
Q 1613 4659 2075 4659 
Q 2584 4659 2973 4495 
Q 3363 4331 3572 4012 
Q 3781 3694 3797 3291 
L 3216 3247 
Q 3169 3681 2898 3903 
Q 2628 4125 2100 4125 
Q 1550 4125 1298 3923 
Q 1047 3722 1047 3438 
Q 1047 3191 1225 3031 
Q 1400 2872 2139 2705 
Q 2878 2538 3153 2413 
Q 3553 2228 3743 1945 
Q 3934 1663 3934 1294 
Q 3934 928 3725 604 
Q 3516 281 3123 101 
Q 2731 -78 2241 -78 
Q 1619 -78 1198 103 
Q 778 284 539 648 
Q 300 1013 288 1472 
z
" transform="scale(0.015625)"/>
       <path id="ArialMT-28" d="M 1497 -1347 
Q 1031 -759 709 28 
Q 388 816 388 1659 
Q 388 2403 628 3084 
Q 909 3875 1497 4659 
L 1900 4659 
Q 1522 4009 1400 3731 
Q 1209 3300 1100 2831 
Q 966 2247 966 1656 
Q 966 153 1900 -1347 
L 1497 -1347 
z
" transform="scale(0.015625)"/>
       <path id="ArialMT-24" d="M 1594 -659 
L 1594 -97 
Q 1172 -44 908 92 
Q 644 228 451 531 
Q 259 834 228 1272 
L 794 1378 
Q 859 925 1025 713 
Q 1263 413 1594 378 
L 1594 2169 
Q 1247 2234 884 2438 
Q 616 2588 470 2853 
Q 325 3119 325 3456 
Q 325 4056 750 4428 
Q 1034 4678 1594 4734 
L 1594 5003 
L 1925 5003 
L 1925 4734 
Q 2416 4688 2703 4447 
Q 3072 4141 3147 3606 
L 2566 3519 
Q 2516 3850 2358 4026 
Q 2200 4203 1925 4259 
L 1925 2638 
Q 2350 2531 2488 2472 
Q 2750 2356 2915 2190 
Q 3081 2025 3170 1797 
Q 3259 1569 3259 1303 
Q 3259 719 2887 328 
Q 2516 -63 1925 -91 
L 1925 -659 
L 1594 -659 
z
M 1594 4266 
Q 1266 4216 1077 4003 
Q 888 3791 888 3500 
Q 888 3213 1048 3019 
Q 1209 2825 1594 2709 
L 1594 4266 
z
M 1925 378 
Q 2253 419 2467 662 
Q 2681 906 2681 1266 
Q 2681 1572 2529 1758 
Q 2378 1944 1925 2091 
L 1925 378 
z
" transform="scale(0.015625)"/>
       <path id="ArialMT-29" d="M 791 -1347 
L 388 -1347 
Q 1322 153 1322 1656 
Q 1322 2244 1188 2822 
Q 1081 3291 891 3722 
Q 769 4003 388 4659 
L 791 4659 
Q 1378 3875 1659 3084 
Q 1900 2403 1900 1659 
Q 1900 816 1576 28 
Q 1253 -759 791 -1347 
z
" transform="scale(0.015625)"/>
      </defs>
      <use xlink:href="#ArialMT-50"/>
      <use xlink:href="#ArialMT-6f" x="66.699219"/>
      <use xlink:href="#ArialMT-74" x="122.314453"/>
      <use xlink:href="#ArialMT-65" x="150.097656"/>
      <use xlink:href="#ArialMT-6e" x="205.712891"/>
      <use xlink:href="#ArialMT-74" x="261.328125"/>
      <use xlink:href="#ArialMT-69" x="289.111328"/>
      <use xlink:href="#ArialMT-61" x="311.328125"/>
      <use xlink:href="#ArialMT-6c" x="366.943359"/>
      <use xlink:href="#ArialMT-20" x="389.160156"/>
      <use xlink:href="#ArialMT-49" x="416.943359"/>
      <use xlink:href="#ArialMT-4e" x="444.726562"/>
      <use xlink:href="#ArialMT-45" x="516.943359"/>
      <use xlink:href="#ArialMT-58" x="583.642578"/>
      <use xlink:href="#ArialMT-55" x="650.341797"/>
      <use xlink:href="#ArialMT-53" x="722.558594"/>
      <use xlink:href="#ArialMT-20" x="789.257812"/>
      <use xlink:href="#ArialMT-28" x="817.041016"/>
      <use xlink:href="#ArialMT-24" x="850.341797"/>
      <use xlink:href="#ArialMT-29" x="905.957031"/>
     </g>
    </g>
   </g>
   <g id="matplotlib.axis_2">
    <g id="ytick_1">
     <g id="line2d_6">
      <path d="M 103.482813 768.24 
L 1219.482812 768.24 
" clip-path="url(#p8539857604)" style="fill: none; stroke: #cccccc; stroke-width: 1.5; stroke-linecap: round"/>
     </g>
     <g id="text_7">
      <!-- 0.0% -->
      <g style="fill: #262626" transform="translate(40.84 776.113594)scale(0.22 -0.22)">
       <defs>
        <path id="ArialMT-2e" d="M 581 0 
L 581 641 
L 1222 641 
L 1222 0 
L 581 0 
z
" transform="scale(0.015625)"/>
        <path id="ArialMT-25" d="M 372 3481 
Q 372 3972 619 4315 
Q 866 4659 1334 4659 
Q 1766 4659 2048 4351 
Q 2331 4044 2331 3447 
Q 2331 2866 2045 2552 
Q 1759 2238 1341 2238 
Q 925 2238 648 2547 
Q 372 2856 372 3481 
z
M 1350 4272 
Q 1141 4272 1002 4090 
Q 863 3909 863 3425 
Q 863 2984 1003 2804 
Q 1144 2625 1350 2625 
Q 1563 2625 1702 2806 
Q 1841 2988 1841 3469 
Q 1841 3913 1700 4092 
Q 1559 4272 1350 4272 
z
M 1353 -169 
L 3859 4659 
L 4316 4659 
L 1819 -169 
L 1353 -169 
z
M 3334 1075 
Q 3334 1569 3581 1911 
Q 3828 2253 4300 2253 
Q 4731 2253 5014 1945 
Q 5297 1638 5297 1041 
Q 5297 459 5011 145 
Q 4725 -169 4303 -169 
Q 3888 -169 3611 142 
Q 3334 453 3334 1075 
z
M 4316 1866 
Q 4103 1866 3964 1684 
Q 3825 1503 3825 1019 
Q 3825 581 3965 400 
Q 4106 219 4313 219 
Q 4528 219 4667 400 
Q 4806 581 4806 1063 
Q 4806 1506 4665 1686 
Q 4525 1866 4316 1866 
z
" transform="scale(0.015625)"/>
       </defs>
       <use xlink:href="#ArialMT-30"/>
       <use xlink:href="#ArialMT-2e" x="55.615234"/>
       <use xlink:href="#ArialMT-30" x="83.398438"/>
       <use xlink:href="#ArialMT-25" x="139.013672"/>
      </g>
     </g>
    </g>
    <g id="ytick_2">
     <g id="line2d_7">
      <path d="M 103.482813 602.71471 
L 1219.482812 602.71471 
" clip-path="url(#p8539857604)" style="fill: none; stroke: #cccccc; stroke-width: 1.5; stroke-linecap: round"/>
     </g>
     <g id="text_8">
      <!-- 1.0% -->
      <g style="fill: #262626" transform="translate(40.84 610.588304)scale(0.22 -0.22)">
       <defs>
        <path id="ArialMT-31" d="M 2384 0 
L 1822 0 
L 1822 3584 
Q 1619 3391 1289 3197 
Q 959 3003 697 2906 
L 697 3450 
Q 1169 3672 1522 3987 
Q 1875 4303 2022 4600 
L 2384 4600 
L 2384 0 
z
" transform="scale(0.015625)"/>
       </defs>
       <use xlink:href="#ArialMT-31"/>
       <use xlink:href="#ArialMT-2e" x="55.615234"/>
       <use xlink:href="#ArialMT-30" x="83.398438"/>
       <use xlink:href="#ArialMT-25" x="139.013672"/>
      </g>
     </g>
    </g>
    <g id="ytick_3">
     <g id="line2d_8">
      <path d="M 103.482813 437.189421 
L 1219.482812 437.189421 
" clip-path="url(#p8539857604)" style="fill: none; stroke: #cccccc; stroke-width: 1.5; stroke-linecap: round"/>
     </g>
     <g id="text_9">
      <!-- 2.0% -->
      <g style="fill: #262626" transform="translate(40.84 445.063014)scale(0.22 -0.22)">
       <use xlink:href="#ArialMT-32"/>
       <use xlink:href="#ArialMT-2e" x="55.615234"/>
       <use xlink:href="#ArialMT-30" x="83.398438"/>
       <use xlink:href="#ArialMT-25" x="139.013672"/>
      </g>
     </g>
    </g>
    <g id="ytick_4">
     <g id="line2d_9">
      <path d="M 103.482813 271.664131 
L 1219.482812 271.664131 
" clip-path="url(#p8539857604)" style="fill: none; stroke: #cccccc; stroke-width: 1.5; stroke-linecap: round"/>
     </g>
     <g id="text_10">
      <!-- 3.0% -->
      <g style="fill: #262626" transform="translate(40.84 279.537725)scale(0.22 -0.22)">
       <defs>
        <path id="ArialMT-33" d="M 269 1209 
L 831 1284 
Q 928 806 1161 595 
Q 1394 384 1728 384 
Q 2125 384 2398 659 
Q 2672 934 2672 1341 
Q 2672 1728 2419 1979 
Q 2166 2231 1775 2231 
Q 1616 2231 1378 2169 
L 1441 2663 
Q 1497 2656 1531 2656 
Q 1891 2656 2178 2843 
Q 2466 3031 2466 3422 
Q 2466 3731 2256 3934 
Q 2047 4138 1716 4138 
Q 1388 4138 1169 3931 
Q 950 3725 888 3313 
L 325 3413 
Q 428 3978 793 4289 
Q 1159 4600 1703 4600 
Q 2078 4600 2393 4439 
Q 2709 4278 2876 4000 
Q 3044 3722 3044 3409 
Q 3044 3113 2884 2869 
Q 2725 2625 2413 2481 
Q 2819 2388 3044 2092 
Q 3269 1797 3269 1353 
Q 3269 753 2831 336 
Q 2394 -81 1725 -81 
Q 1122 -81 723 278 
Q 325 638 269 1209 
z
" transform="scale(0.015625)"/>
       </defs>
       <use xlink:href="#ArialMT-33"/>
       <use xlink:href="#ArialMT-2e" x="55.615234"/>
       <use xlink:href="#ArialMT-30" x="83.398438"/>
       <use xlink:href="#ArialMT-25" x="139.013672"/>
      </g>
     </g>
    </g>
    <g id="ytick_5">
     <g id="line2d_10">
      <path d="M 103.482813 106.138841 
L 1219.482812 106.138841 
" clip-path="url(#p8539857604)" style="fill: none; stroke: #cccccc; stroke-width: 1.5; stroke-linecap: round"/>
     </g>
     <g id="text_11">
      <!-- 4.0% -->
      <g style="fill: #262626" transform="translate(40.84 114.012435)scale(0.22 -0.22)">
       <use xlink:href="#ArialMT-34"/>
       <use xlink:href="#ArialMT-2e" x="55.615234"/>
       <use xlink:href="#ArialMT-30" x="83.398438"/>
       <use xlink:href="#ArialMT-25" x="139.013672"/>
      </g>
     </g>
    </g>
    <g id="text_12">
     <!-- Density -->
     <g style="fill: #262626" transform="translate(30.105 441.07)rotate(-90)scale(0.32 -0.32)">
      <defs>
       <path id="ArialMT-44" d="M 494 0 
L 494 4581 
L 2072 4581 
Q 2606 4581 2888 4516 
Q 3281 4425 3559 4188 
Q 3922 3881 4101 3404 
Q 4281 2928 4281 2316 
Q 4281 1794 4159 1391 
Q 4038 988 3847 723 
Q 3656 459 3429 307 
Q 3203 156 2883 78 
Q 2563 0 2147 0 
L 494 0 
z
M 1100 541 
L 2078 541 
Q 2531 541 2789 625 
Q 3047 709 3200 863 
Q 3416 1078 3536 1442 
Q 3656 1806 3656 2325 
Q 3656 3044 3420 3430 
Q 3184 3816 2847 3947 
Q 2603 4041 2063 4041 
L 1100 4041 
L 1100 541 
z
" transform="scale(0.015625)"/>
       <path id="ArialMT-73" d="M 197 991 
L 753 1078 
Q 800 744 1014 566 
Q 1228 388 1613 388 
Q 2000 388 2187 545 
Q 2375 703 2375 916 
Q 2375 1106 2209 1216 
Q 2094 1291 1634 1406 
Q 1016 1563 777 1677 
Q 538 1791 414 1992 
Q 291 2194 291 2438 
Q 291 2659 392 2848 
Q 494 3038 669 3163 
Q 800 3259 1026 3326 
Q 1253 3394 1513 3394 
Q 1903 3394 2198 3281 
Q 2494 3169 2634 2976 
Q 2775 2784 2828 2463 
L 2278 2388 
Q 2241 2644 2061 2787 
Q 1881 2931 1553 2931 
Q 1166 2931 1000 2803 
Q 834 2675 834 2503 
Q 834 2394 903 2306 
Q 972 2216 1119 2156 
Q 1203 2125 1616 2013 
Q 2213 1853 2448 1751 
Q 2684 1650 2818 1456 
Q 2953 1263 2953 975 
Q 2953 694 2789 445 
Q 2625 197 2315 61 
Q 2006 -75 1616 -75 
Q 969 -75 630 194 
Q 291 463 197 991 
z
" transform="scale(0.015625)"/>
       <path id="ArialMT-79" d="M 397 -1278 
L 334 -750 
Q 519 -800 656 -800 
Q 844 -800 956 -737 
Q 1069 -675 1141 -563 
Q 1194 -478 1313 -144 
Q 1328 -97 1363 -6 
L 103 3319 
L 709 3319 
L 1400 1397 
Q 1534 1031 1641 628 
Q 1738 1016 1872 1384 
L 2581 3319 
L 3144 3319 
L 1881 -56 
Q 1678 -603 1566 -809 
Q 1416 -1088 1222 -1217 
Q 1028 -1347 759 -1347 
Q 597 -1347 397 -1278 
z
" transform="scale(0.015625)"/>
      </defs>
      <use xlink:href="#ArialMT-44"/>
      <use xlink:href="#ArialMT-65" x="72.216797"/>
      <use xlink:href="#ArialMT-6e" x="127.832031"/>
      <use xlink:href="#ArialMT-73" x="183.447266"/>
      <use xlink:href="#ArialMT-69" x="233.447266"/>
      <use xlink:href="#ArialMT-74" x="255.664062"/>
      <use xlink:href="#ArialMT-79" x="283.447266"/>
     </g>
    </g>
   </g>
   <g id="PolyCollection_1">
    <defs>
     <path id="m0f694c21c9" d="M 154.210085 -75.683431 
L 154.210085 -75.569688 
L 159.308304 -75.569688 
L 164.406522 -75.569688 
L 169.50474 -75.569688 
L 174.602959 -75.569688 
L 179.701177 -75.569688 
L 184.799395 -75.569688 
L 189.897614 -75.569688 
L 194.995832 -75.569688 
L 200.094051 -75.569688 
L 205.192269 -75.569688 
L 210.290487 -75.569688 
L 215.388706 -75.569688 
L 220.486924 -75.569688 
L 225.585142 -75.569688 
L 230.683361 -75.569688 
L 235.781579 -75.569688 
L 240.879797 -75.569688 
L 245.978016 -75.569688 
L 251.076234 -75.569688 
L 256.174453 -75.569688 
L 261.272671 -75.569688 
L 266.370889 -75.569688 
L 271.469108 -75.569688 
L 276.567326 -75.569688 
L 281.665544 -75.569688 
L 286.763763 -75.569688 
L 291.861981 -75.569688 
L 296.960199 -75.569688 
L 302.058418 -75.569688 
L 307.156636 -75.569688 
L 312.254855 -75.569688 
L 317.353073 -75.569688 
L 322.451291 -75.569688 
L 327.54951 -75.569688 
L 332.647728 -75.569688 
L 337.745946 -75.569688 
L 342.844165 -75.569688 
L 347.942383 -75.569688 
L 353.040601 -75.569688 
L 358.13882 -75.569688 
L 363.237038 -75.569688 
L 368.335257 -75.569688 
L 373.433475 -75.569688 
L 378.531693 -75.569688 
L 383.629912 -75.569688 
L 388.72813 -75.569688 
L 393.826348 -75.569688 
L 398.924567 -75.569688 
L 404.022785 -75.569688 
L 409.121003 -75.569688 
L 414.219222 -75.569688 
L 419.31744 -75.569688 
L 424.415659 -75.569688 
L 429.513877 -75.569688 
L 434.612095 -75.569688 
L 439.710314 -75.569688 
L 444.808532 -75.569688 
L 449.90675 -75.569688 
L 455.004969 -75.569688 
L 460.103187 -75.569688 
L 465.201405 -75.569688 
L 470.299624 -75.569688 
L 475.397842 -75.569688 
L 480.496061 -75.569688 
L 485.594279 -75.569688 
L 490.692497 -75.569688 
L 495.790716 -75.569688 
L 500.888934 -75.569688 
L 505.987152 -75.569688 
L 511.085371 -75.569688 
L 516.183589 -75.569688 
L 521.281807 -75.569688 
L 526.380026 -75.569688 
L 531.478244 -75.569688 
L 536.576463 -75.569688 
L 541.674681 -75.569688 
L 546.772899 -75.569688 
L 551.871118 -75.569688 
L 556.969336 -75.569688 
L 562.067554 -75.569688 
L 567.165773 -75.569688 
L 572.263991 -75.569688 
L 577.362209 -75.569688 
L 582.460428 -75.569688 
L 587.558646 -75.569688 
L 592.656865 -75.569688 
L 597.755083 -75.569688 
L 602.853301 -75.569688 
L 607.95152 -75.569688 
L 613.049738 -75.569688 
L 618.147956 -75.569688 
L 623.246175 -75.569688 
L 628.344393 -75.569688 
L 633.442611 -75.569688 
L 638.54083 -75.569688 
L 643.639048 -75.569688 
L 648.737267 -75.569688 
L 653.835485 -75.569688 
L 658.933703 -75.569688 
L 664.031922 -75.569688 
L 669.13014 -75.569688 
L 674.228358 -75.569688 
L 679.326577 -75.569688 
L 684.424795 -75.569688 
L 689.523014 -75.569688 
L 694.621232 -75.569688 
L 699.71945 -75.569688 
L 704.817669 -75.569688 
L 709.915887 -75.569688 
L 715.014105 -75.569688 
L 720.112324 -75.569688 
L 725.210542 -75.569688 
L 730.30876 -75.569688 
L 735.406979 -75.569688 
L 740.505197 -75.569688 
L 745.603416 -75.569688 
L 750.701634 -75.569688 
L 755.799852 -75.569688 
L 760.898071 -75.569688 
L 765.996289 -75.569688 
L 771.094507 -75.569688 
L 776.192726 -75.569688 
L 781.290944 -75.569688 
L 786.389162 -75.569688 
L 791.487381 -75.569688 
L 796.585599 -75.569688 
L 801.683818 -75.569688 
L 806.782036 -75.569688 
L 811.880254 -75.569688 
L 816.978473 -75.569688 
L 822.076691 -75.569688 
L 827.174909 -75.569688 
L 832.273128 -75.569688 
L 837.371346 -75.569688 
L 842.469564 -75.569688 
L 847.567783 -75.569688 
L 852.666001 -75.569688 
L 857.76422 -75.569688 
L 862.862438 -75.569688 
L 867.960656 -75.569688 
L 873.058875 -75.569688 
L 878.157093 -75.569688 
L 883.255311 -75.569688 
L 888.35353 -75.569688 
L 893.451748 -75.569688 
L 898.549966 -75.569688 
L 903.648185 -75.569688 
L 908.746403 -75.569688 
L 913.844622 -75.569688 
L 918.94284 -75.569688 
L 924.041058 -75.569688 
L 929.139277 -75.569688 
L 934.237495 -75.569688 
L 939.335713 -75.569688 
L 944.433932 -75.569688 
L 949.53215 -75.569688 
L 954.630368 -75.569688 
L 959.728587 -75.569688 
L 964.826805 -75.569688 
L 969.925024 -75.569688 
L 975.023242 -75.569688 
L 980.12146 -75.569688 
L 985.219679 -75.569688 
L 990.317897 -75.569688 
L 995.416115 -75.569688 
L 1000.514334 -75.569688 
L 1005.612552 -75.569688 
L 1010.71077 -75.569688 
L 1015.808989 -75.569688 
L 1020.907207 -75.569688 
L 1026.005426 -75.569688 
L 1031.103644 -75.569688 
L 1036.201862 -75.569688 
L 1041.300081 -75.569688 
L 1046.398299 -75.569688 
L 1051.496517 -75.569688 
L 1056.594736 -75.569688 
L 1061.692954 -75.569688 
L 1066.791172 -75.569688 
L 1071.889391 -75.569688 
L 1076.987609 -75.569688 
L 1082.085828 -75.569688 
L 1087.184046 -75.569688 
L 1092.282264 -75.569688 
L 1097.380483 -75.569688 
L 1102.478701 -75.569688 
L 1107.576919 -75.569688 
L 1112.675138 -75.569688 
L 1117.773356 -75.569688 
L 1122.871574 -75.569688 
L 1127.969793 -75.569688 
L 1133.068011 -75.569688 
L 1138.16623 -75.569688 
L 1143.264448 -75.569688 
L 1148.362666 -75.569688 
L 1153.460885 -75.569688 
L 1158.559103 -75.569688 
L 1163.657321 -75.569688 
L 1168.75554 -75.569688 
L 1168.75554 -75.570795 
L 1168.75554 -75.570795 
L 1163.657321 -75.571102 
L 1158.559103 -75.571488 
L 1153.460885 -75.571971 
L 1148.362666 -75.572573 
L 1143.264448 -75.57332 
L 1138.16623 -75.574245 
L 1133.068011 -75.575384 
L 1127.969793 -75.576784 
L 1122.871574 -75.578497 
L 1117.773356 -75.580585 
L 1112.675138 -75.583123 
L 1107.576919 -75.586196 
L 1102.478701 -75.589905 
L 1097.380483 -75.594366 
L 1092.282264 -75.599714 
L 1087.184046 -75.606103 
L 1082.085828 -75.613714 
L 1076.987609 -75.62275 
L 1071.889391 -75.633446 
L 1066.791172 -75.646069 
L 1061.692954 -75.660922 
L 1056.594736 -75.678351 
L 1051.496517 -75.698744 
L 1046.398299 -75.722544 
L 1041.300081 -75.750247 
L 1036.201862 -75.782414 
L 1031.103644 -75.819678 
L 1026.005426 -75.862749 
L 1020.907207 -75.912425 
L 1015.808989 -75.969607 
L 1010.71077 -76.035304 
L 1005.612552 -76.110657 
L 1000.514334 -76.196945 
L 995.416115 -76.295616 
L 990.317897 -76.408299 
L 985.219679 -76.53684 
L 980.12146 -76.683325 
L 975.023242 -76.85012 
L 969.925024 -77.039907 
L 964.826805 -77.255737 
L 959.728587 -77.501079 
L 954.630368 -77.77988 
L 949.53215 -78.09664 
L 944.433932 -78.456481 
L 939.335713 -78.865241 
L 934.237495 -79.329566 
L 929.139277 -79.857017 
L 924.041058 -80.456183 
L 918.94284 -81.136809 
L 913.844622 -81.909923 
L 908.746403 -82.787975 
L 903.648185 -83.784983 
L 898.549966 -84.916676 
L 893.451748 -86.200638 
L 888.35353 -87.656445 
L 883.255311 -89.305801 
L 878.157093 -91.172643 
L 873.058875 -93.283244 
L 867.960656 -95.666267 
L 862.862438 -98.352802 
L 857.76422 -101.376347 
L 852.666001 -104.772743 
L 847.567783 -108.580045 
L 842.469564 -112.838325 
L 837.371346 -117.589404 
L 832.273128 -122.876494 
L 827.174909 -128.743758 
L 822.076691 -135.235769 
L 816.978473 -142.396891 
L 811.880254 -150.270551 
L 806.782036 -158.898431 
L 801.683818 -168.319575 
L 796.585599 -178.569428 
L 791.487381 -189.678808 
L 786.389162 -201.672847 
L 781.290944 -214.569903 
L 776.192726 -228.380482 
L 771.094507 -243.106186 
L 765.996289 -258.73872 
L 760.898071 -275.25899 
L 755.799852 -292.636319 
L 750.701634 -310.827812 
L 745.603416 -329.777907 
L 740.505197 -349.418126 
L 735.406979 -369.667058 
L 730.30876 -390.43059 
L 725.210542 -411.602404 
L 720.112324 -433.064736 
L 715.014105 -454.68941 
L 709.915887 -476.339126 
L 704.817669 -497.869003 
L 699.71945 -519.128333 
L 694.621232 -539.962534 
L 689.523014 -560.215258 
L 684.424795 -579.730611 
L 679.326577 -598.355434 
L 674.228358 -615.941604 
L 669.13014 -632.348294 
L 664.031922 -647.444141 
L 658.933703 -661.109279 
L 653.835485 -673.237176 
L 648.737267 -683.736239 
L 643.639048 -692.531154 
L 638.54083 -699.563919 
L 633.442611 -704.794563 
L 628.344393 -708.201522 
L 623.246175 -709.781679 
L 618.147956 -709.550072 
L 613.049738 -707.539276 
L 607.95152 -703.798489 
L 602.853301 -698.392344 
L 597.755083 -691.399492 
L 592.656865 -682.910982 
L 587.558646 -673.028491 
L 582.460428 -661.862453 
L 577.362209 -649.530115 
L 572.263991 -636.153592 
L 567.165773 -621.857935 
L 562.067554 -606.769277 
L 556.969336 -591.013075 
L 551.871118 -574.712492 
L 546.772899 -557.986928 
L 541.674681 -540.950738 
L 536.576463 -523.71214 
L 531.478244 -506.372316 
L 526.380026 -489.02472 
L 521.281807 -471.754581 
L 516.183589 -454.638603 
L 511.085371 -437.744828 
L 505.987152 -421.132684 
L 500.888934 -404.853161 
L 495.790716 -388.949126 
L 490.692497 -373.45574 
L 485.594279 -358.400963 
L 480.496061 -343.806124 
L 475.397842 -329.686539 
L 470.299624 -316.052158 
L 465.201405 -302.908214 
L 460.103187 -290.255878 
L 455.004969 -278.092891 
L 449.90675 -266.41416 
L 444.808532 -255.212324 
L 439.710314 -244.478266 
L 434.612095 -234.201578 
L 429.513877 -224.370964 
L 424.415659 -214.974594 
L 419.31744 -206.000392 
L 414.219222 -197.436271 
L 409.121003 -189.270321 
L 404.022785 -181.490933 
L 398.924567 -174.086894 
L 393.826348 -167.047425 
L 388.72813 -160.362199 
L 383.629912 -154.021318 
L 378.531693 -148.015273 
L 373.433475 -142.334886 
L 368.335257 -136.971235 
L 363.237038 -131.915579 
L 358.13882 -127.159276 
L 353.040601 -122.693703 
L 347.942383 -118.510185 
L 342.844165 -114.599931 
L 337.745946 -110.953978 
L 332.647728 -107.563154 
L 327.54951 -104.418049 
L 322.451291 -101.509002 
L 317.353073 -98.826106 
L 312.254855 -96.35922 
L 307.156636 -94.097995 
L 302.058418 -92.031915 
L 296.960199 -90.150342 
L 291.861981 -88.442569 
L 286.763763 -86.897883 
L 281.665544 -85.505622 
L 276.567326 -84.255242 
L 271.469108 -83.136379 
L 266.370889 -82.138909 
L 261.272671 -81.253004 
L 256.174453 -80.469182 
L 251.076234 -79.778355 
L 245.978016 -79.171863 
L 240.879797 -78.641511 
L 235.781579 -78.179583 
L 230.683361 -77.778866 
L 225.585142 -77.432657 
L 220.486924 -77.134759 
L 215.388706 -76.879483 
L 210.290487 -76.661635 
L 205.192269 -76.4765 
L 200.094051 -76.319822 
L 194.995832 -76.187785 
L 189.897614 -76.076982 
L 184.799395 -75.984392 
L 179.701177 -75.907352 
L 174.602959 -75.843523 
L 169.50474 -75.790866 
L 164.406522 -75.747614 
L 159.308304 -75.712238 
L 154.210085 -75.683431 
z
" style="stroke: #38aaac; stroke-width: 5"/>
    </defs>
    <g clip-path="url(#p8539857604)">
     <use xlink:href="#m0f694c21c9" x="0" y="843.809687" style="fill: #38aaac; fill-opacity: 0.1; stroke: #38aaac; stroke-width: 5"/>
    </g>
   </g>
   <g id="PolyCollection_2">
    <defs>
     <path id="m0d43d35c7a" d="M 188.916101 -75.602338 
L 188.916101 -75.569688 
L 193.657853 -75.569688 
L 198.399604 -75.569688 
L 203.141355 -75.569688 
L 207.883106 -75.569688 
L 212.624857 -75.569688 
L 217.366608 -75.569688 
L 222.108359 -75.569688 
L 226.85011 -75.569688 
L 231.591861 -75.569688 
L 236.333613 -75.569688 
L 241.075364 -75.569688 
L 245.817115 -75.569688 
L 250.558866 -75.569688 
L 255.300617 -75.569688 
L 260.042368 -75.569688 
L 264.784119 -75.569688 
L 269.52587 -75.569688 
L 274.267621 -75.569688 
L 279.009373 -75.569688 
L 283.751124 -75.569688 
L 288.492875 -75.569688 
L 293.234626 -75.569688 
L 297.976377 -75.569688 
L 302.718128 -75.569688 
L 307.459879 -75.569688 
L 312.20163 -75.569688 
L 316.943381 -75.569688 
L 321.685133 -75.569688 
L 326.426884 -75.569688 
L 331.168635 -75.569688 
L 335.910386 -75.569688 
L 340.652137 -75.569688 
L 345.393888 -75.569688 
L 350.135639 -75.569688 
L 354.87739 -75.569688 
L 359.619142 -75.569688 
L 364.360893 -75.569688 
L 369.102644 -75.569688 
L 373.844395 -75.569688 
L 378.586146 -75.569688 
L 383.327897 -75.569688 
L 388.069648 -75.569688 
L 392.811399 -75.569688 
L 397.55315 -75.569688 
L 402.294902 -75.569688 
L 407.036653 -75.569688 
L 411.778404 -75.569688 
L 416.520155 -75.569688 
L 421.261906 -75.569688 
L 426.003657 -75.569688 
L 430.745408 -75.569688 
L 435.487159 -75.569688 
L 440.22891 -75.569688 
L 444.970662 -75.569688 
L 449.712413 -75.569688 
L 454.454164 -75.569688 
L 459.195915 -75.569688 
L 463.937666 -75.569688 
L 468.679417 -75.569688 
L 473.421168 -75.569688 
L 478.162919 -75.569688 
L 482.90467 -75.569688 
L 487.646422 -75.569688 
L 492.388173 -75.569688 
L 497.129924 -75.569688 
L 501.871675 -75.569688 
L 506.613426 -75.569688 
L 511.355177 -75.569688 
L 516.096928 -75.569688 
L 520.838679 -75.569688 
L 525.58043 -75.569688 
L 530.322182 -75.569688 
L 535.063933 -75.569688 
L 539.805684 -75.569688 
L 544.547435 -75.569688 
L 549.289186 -75.569688 
L 554.030937 -75.569688 
L 558.772688 -75.569688 
L 563.514439 -75.569688 
L 568.25619 -75.569688 
L 572.997942 -75.569688 
L 577.739693 -75.569688 
L 582.481444 -75.569688 
L 587.223195 -75.569688 
L 591.964946 -75.569688 
L 596.706697 -75.569688 
L 601.448448 -75.569688 
L 606.190199 -75.569688 
L 610.93195 -75.569688 
L 615.673702 -75.569688 
L 620.415453 -75.569688 
L 625.157204 -75.569688 
L 629.898955 -75.569688 
L 634.640706 -75.569688 
L 639.382457 -75.569688 
L 644.124208 -75.569688 
L 648.865959 -75.569688 
L 653.60771 -75.569688 
L 658.349462 -75.569688 
L 663.091213 -75.569688 
L 667.832964 -75.569688 
L 672.574715 -75.569688 
L 677.316466 -75.569688 
L 682.058217 -75.569688 
L 686.799968 -75.569688 
L 691.541719 -75.569688 
L 696.28347 -75.569688 
L 701.025222 -75.569688 
L 705.766973 -75.569688 
L 710.508724 -75.569688 
L 715.250475 -75.569688 
L 719.992226 -75.569688 
L 724.733977 -75.569688 
L 729.475728 -75.569688 
L 734.217479 -75.569688 
L 738.95923 -75.569688 
L 743.700982 -75.569688 
L 748.442733 -75.569688 
L 753.184484 -75.569688 
L 757.926235 -75.569688 
L 762.667986 -75.569688 
L 767.409737 -75.569688 
L 772.151488 -75.569688 
L 776.893239 -75.569688 
L 781.63499 -75.569688 
L 786.376742 -75.569688 
L 791.118493 -75.569688 
L 795.860244 -75.569688 
L 800.601995 -75.569688 
L 805.343746 -75.569688 
L 810.085497 -75.569688 
L 814.827248 -75.569688 
L 819.568999 -75.569688 
L 824.31075 -75.569688 
L 829.052502 -75.569688 
L 833.794253 -75.569688 
L 838.536004 -75.569688 
L 843.277755 -75.569688 
L 848.019506 -75.569688 
L 852.761257 -75.569688 
L 857.503008 -75.569688 
L 862.244759 -75.569688 
L 866.98651 -75.569688 
L 871.728262 -75.569688 
L 876.470013 -75.569688 
L 881.211764 -75.569688 
L 885.953515 -75.569688 
L 890.695266 -75.569688 
L 895.437017 -75.569688 
L 900.178768 -75.569688 
L 904.920519 -75.569688 
L 909.662271 -75.569688 
L 914.404022 -75.569688 
L 919.145773 -75.569688 
L 923.887524 -75.569688 
L 928.629275 -75.569688 
L 933.371026 -75.569688 
L 938.112777 -75.569688 
L 942.854528 -75.569688 
L 947.596279 -75.569688 
L 952.338031 -75.569688 
L 957.079782 -75.569688 
L 961.821533 -75.569688 
L 966.563284 -75.569688 
L 971.305035 -75.569688 
L 976.046786 -75.569688 
L 980.788537 -75.569688 
L 985.530288 -75.569688 
L 990.272039 -75.569688 
L 995.013791 -75.569688 
L 999.755542 -75.569688 
L 1004.497293 -75.569688 
L 1009.239044 -75.569688 
L 1013.980795 -75.569688 
L 1018.722546 -75.569688 
L 1023.464297 -75.569688 
L 1028.206048 -75.569688 
L 1032.947799 -75.569688 
L 1037.689551 -75.569688 
L 1042.431302 -75.569688 
L 1047.173053 -75.569688 
L 1051.914804 -75.569688 
L 1056.656555 -75.569688 
L 1061.398306 -75.569688 
L 1066.140057 -75.569688 
L 1070.881808 -75.569688 
L 1075.623559 -75.569688 
L 1080.365311 -75.569688 
L 1085.107062 -75.569688 
L 1089.848813 -75.569688 
L 1094.590564 -75.569688 
L 1099.332315 -75.569688 
L 1104.074066 -75.569688 
L 1108.815817 -75.569688 
L 1113.557568 -75.569688 
L 1118.299319 -75.569688 
L 1123.041071 -75.569688 
L 1127.782822 -75.569688 
L 1132.524573 -75.569688 
L 1132.524573 -75.575756 
L 1132.524573 -75.575756 
L 1127.782822 -75.577609 
L 1123.041071 -75.579982 
L 1118.299319 -75.583007 
L 1113.557568 -75.586847 
L 1108.815817 -75.591699 
L 1104.074066 -75.597801 
L 1099.332315 -75.605444 
L 1094.590564 -75.614974 
L 1089.848813 -75.626805 
L 1085.107062 -75.641431 
L 1080.365311 -75.659434 
L 1075.623559 -75.681503 
L 1070.881808 -75.708443 
L 1066.140057 -75.741192 
L 1061.398306 -75.780843 
L 1056.656555 -75.828656 
L 1051.914804 -75.88608 
L 1047.173053 -75.954777 
L 1042.431302 -76.036638 
L 1037.689551 -76.13381 
L 1032.947799 -76.248716 
L 1028.206048 -76.384081 
L 1023.464297 -76.542953 
L 1018.722546 -76.728728 
L 1013.980795 -76.945173 
L 1009.239044 -77.196446 
L 1004.497293 -77.487119 
L 999.755542 -77.822197 
L 995.013791 -78.207135 
L 990.272039 -78.647853 
L 985.530288 -79.150755 
L 980.788537 -79.722732 
L 976.046786 -80.371181 
L 971.305035 -81.104008 
L 966.563284 -81.929635 
L 961.821533 -82.857007 
L 957.079782 -83.895599 
L 952.338031 -85.05542 
L 947.596279 -86.34702 
L 942.854528 -87.781506 
L 938.112777 -89.370554 
L 933.371026 -91.12643 
L 928.629275 -93.062021 
L 923.887524 -95.190871 
L 919.145773 -97.527227 
L 914.404022 -100.086097 
L 909.662271 -102.883323 
L 904.920519 -105.935657 
L 900.178768 -109.260856 
L 895.437017 -112.877783 
L 890.695266 -116.806517 
L 885.953515 -121.068467 
L 881.211764 -125.686483 
L 876.470013 -130.684963 
L 871.728262 -136.089947 
L 866.98651 -141.929189 
L 862.244759 -148.232193 
L 857.503008 -155.030211 
L 852.761257 -162.356183 
L 848.019506 -170.244611 
L 843.277755 -178.731352 
L 838.536004 -187.853316 
L 833.794253 -197.648065 
L 829.052502 -208.153287 
L 824.31075 -219.406152 
L 819.568999 -231.44254 
L 814.827248 -244.296132 
L 810.085497 -257.997378 
L 805.343746 -272.572339 
L 800.601995 -288.041426 
L 795.860244 -304.41805 
L 791.118493 -321.707207 
L 786.376742 -339.904037 
L 781.63499 -358.992395 
L 776.893239 -378.943467 
L 772.151488 -399.7145 
L 767.409737 -421.247672 
L 762.667986 -443.469184 
L 757.926235 -466.288605 
L 753.184484 -489.598531 
L 748.442733 -513.274602 
L 743.700982 -537.175924 
L 738.95923 -561.14591 
L 734.217479 -585.013578 
L 729.475728 -608.595292 
L 724.733977 -631.696957 
L 719.992226 -654.116622 
L 715.250475 -675.64747 
L 710.508724 -696.081115 
L 705.766973 -715.21116 
L 701.025222 -732.836911 
L 696.28347 -748.76716 
L 691.541719 -762.823939 
L 686.799968 -774.846124 
L 682.058217 -784.692805 
L 677.316466 -792.246302 
L 672.574715 -797.414739 
L 667.832964 -800.134099 
L 663.091213 -800.369687 
L 658.349462 -798.116959 
L 653.60771 -793.40168 
L 648.865959 -786.279424 
L 644.124208 -776.834399 
L 639.382457 -765.177675 
L 634.640706 -751.44483 
L 629.898955 -735.793117 
L 625.157204 -718.398224 
L 620.415453 -699.450733 
L 615.673702 -679.152375 
L 610.93195 -657.712198 
L 606.190199 -635.342743 
L 601.448448 -612.25634 
L 596.706697 -588.661604 
L 591.964946 -564.760222 
L 587.223195 -540.744092 
L 582.481444 -516.792863 
L 577.739693 -493.071919 
L 572.997942 -469.730815 
L 568.25619 -446.902179 
L 563.514439 -424.701059 
L 558.772688 -403.224694 
L 554.030937 -382.552687 
L 549.289186 -362.747507 
L 544.547435 -343.855302 
L 539.805684 -325.906954 
L 535.063933 -308.919321 
L 530.322182 -292.89662 
L 525.58043 -277.831894 
L 520.838679 -263.70852 
L 516.096928 -250.501708 
L 511.355177 -238.179967 
L 506.613426 -226.706501 
L 501.871675 -216.040509 
L 497.129924 -206.138376 
L 492.388173 -196.954747 
L 487.646422 -188.443464 
L 482.90467 -180.558387 
L 478.162919 -173.254076 
L 473.421168 -166.486359 
L 468.679417 -160.212785 
L 463.937666 -154.392974 
L 459.195915 -148.98887 
L 454.454164 -143.964916 
L 449.712413 -139.288153 
L 444.970662 -134.928261 
L 440.22891 -130.857548 
L 435.487159 -127.050895 
L 430.745408 -123.485669 
L 426.003657 -120.141606 
L 421.261906 -117.000675 
L 416.520155 -114.04693 
L 411.778404 -111.266344 
L 407.036653 -108.646643 
L 402.294902 -106.177136 
L 397.55315 -103.84854 
L 392.811399 -101.65281 
L 388.069648 -99.582979 
L 383.327897 -97.632993 
L 378.586146 -95.797566 
L 373.844395 -94.072036 
L 369.102644 -92.452234 
L 364.360893 -90.934369 
L 359.619142 -89.51492 
L 354.87739 -88.190545 
L 350.135639 -86.958 
L 345.393888 -85.814078 
L 340.652137 -84.755554 
L 335.910386 -83.779148 
L 331.168635 -82.881499 
L 326.426884 -82.05915 
L 321.685133 -81.308545 
L 316.943381 -80.626031 
L 312.20163 -80.007876 
L 307.459879 -79.45028 
L 302.718128 -78.949408 
L 297.976377 -78.501408 
L 293.234626 -78.102445 
L 288.492875 -77.748732 
L 283.751124 -77.436554 
L 279.009373 -77.162299 
L 274.267621 -76.922482 
L 269.52587 -76.713768 
L 264.784119 -76.53299 
L 260.042368 -76.377164 
L 255.300617 -76.243499 
L 250.558866 -76.129407 
L 245.817115 -76.032504 
L 241.075364 -75.950609 
L 236.333613 -75.881747 
L 231.591861 -75.824135 
L 226.85011 -75.776179 
L 222.108359 -75.736466 
L 217.366608 -75.703746 
L 212.624857 -75.676928 
L 207.883106 -75.655059 
L 203.141355 -75.63732 
L 198.399604 -75.623005 
L 193.657853 -75.611514 
L 188.916101 -75.602338 
z
" style="stroke: #40498e; stroke-width: 5"/>
    </defs>
    <g clip-path="url(#p8539857604)">
     <use xlink:href="#m0d43d35c7a" x="0" y="843.809687" style="fill: #40498e; fill-opacity: 0.1; stroke: #40498e; stroke-width: 5"/>
    </g>
   </g>
   <g id="patch_3">
    <path d="M 103.482813 768.24 
L 103.482813 7.2 
" style="fill: none; stroke: #cccccc; stroke-width: 1.875; stroke-linejoin: miter; stroke-linecap: square"/>
   </g>
   <g id="patch_4">
    <path d="M 1219.482812 768.24 
L 1219.482812 7.2 
" style="fill: none; stroke: #cccccc; stroke-width: 1.875; stroke-linejoin: miter; stroke-linecap: square"/>
   </g>
   <g id="patch_5">
    <path d="M 103.482813 768.24 
L 1219.482812 768.24 
" style="fill: none; stroke: #cccccc; stroke-width: 1.875; stroke-linejoin: miter; stroke-linecap: square"/>
   </g>
   <g id="patch_6">
    <path d="M 103.482813 7.2 
L 1219.482812 7.2 
" style="fill: none; stroke: #cccccc; stroke-width: 1.875; stroke-linejoin: miter; stroke-linecap: square"/>
   </g>
   <g id="legend_1">
    <g id="patch_7">
     <path d="M 856.646563 109.47 
L 1199.882812 109.47 
Q 1205.482812 109.47 1205.482812 103.87 
L 1205.482812 26.8 
Q 1205.482812 21.2 1199.882812 21.2 
L 856.646563 21.2 
Q 851.046563 21.2 851.046563 26.8 
L 851.046563 103.87 
Q 851.046563 109.47 856.646563 109.47 
z
" style="fill: #ffffff; opacity: 0.8; stroke: #cccccc; stroke-width: 1.5; stroke-linejoin: miter"/>
    </g>
    <g id="patch_8">
     <path d="M 862.246563 52.441875 
L 918.246563 52.441875 
L 918.246563 32.841875 
L 862.246563 32.841875 
z
" style="fill: #38aaac; fill-opacity: 0.1; stroke: #38aaac; stroke-width: 5; stroke-linejoin: miter"/>
    </g>
    <g id="text_13">
     <!-- Mandatory trips -->
     <g style="fill: #262626" transform="translate(940.646563 52.441875)scale(0.28 -0.28)">
      <defs>
       <path id="ArialMT-4d" d="M 475 0 
L 475 4581 
L 1388 4581 
L 2472 1338 
Q 2622 884 2691 659 
Q 2769 909 2934 1394 
L 4031 4581 
L 4847 4581 
L 4847 0 
L 4263 0 
L 4263 3834 
L 2931 0 
L 2384 0 
L 1059 3900 
L 1059 0 
L 475 0 
z
" transform="scale(0.015625)"/>
       <path id="ArialMT-64" d="M 2575 0 
L 2575 419 
Q 2259 -75 1647 -75 
Q 1250 -75 917 144 
Q 584 363 401 755 
Q 219 1147 219 1656 
Q 219 2153 384 2558 
Q 550 2963 881 3178 
Q 1213 3394 1622 3394 
Q 1922 3394 2156 3267 
Q 2391 3141 2538 2938 
L 2538 4581 
L 3097 4581 
L 3097 0 
L 2575 0 
z
M 797 1656 
Q 797 1019 1065 703 
Q 1334 388 1700 388 
Q 2069 388 2326 689 
Q 2584 991 2584 1609 
Q 2584 2291 2321 2609 
Q 2059 2928 1675 2928 
Q 1300 2928 1048 2622 
Q 797 2316 797 1656 
z
" transform="scale(0.015625)"/>
       <path id="ArialMT-72" d="M 416 0 
L 416 3319 
L 922 3319 
L 922 2816 
Q 1116 3169 1280 3281 
Q 1444 3394 1641 3394 
Q 1925 3394 2219 3213 
L 2025 2691 
Q 1819 2813 1613 2813 
Q 1428 2813 1281 2702 
Q 1134 2591 1072 2394 
Q 978 2094 978 1738 
L 978 0 
L 416 0 
z
" transform="scale(0.015625)"/>
       <path id="ArialMT-70" d="M 422 -1272 
L 422 3319 
L 934 3319 
L 934 2888 
Q 1116 3141 1344 3267 
Q 1572 3394 1897 3394 
Q 2322 3394 2647 3175 
Q 2972 2956 3137 2557 
Q 3303 2159 3303 1684 
Q 3303 1175 3120 767 
Q 2938 359 2589 142 
Q 2241 -75 1856 -75 
Q 1575 -75 1351 44 
Q 1128 163 984 344 
L 984 -1272 
L 422 -1272 
z
M 931 1641 
Q 931 1000 1190 694 
Q 1450 388 1819 388 
Q 2194 388 2461 705 
Q 2728 1022 2728 1688 
Q 2728 2322 2467 2637 
Q 2206 2953 1844 2953 
Q 1484 2953 1207 2617 
Q 931 2281 931 1641 
z
" transform="scale(0.015625)"/>
      </defs>
      <use xlink:href="#ArialMT-4d"/>
      <use xlink:href="#ArialMT-61" x="83.300781"/>
      <use xlink:href="#ArialMT-6e" x="138.916016"/>
      <use xlink:href="#ArialMT-64" x="194.53125"/>
      <use xlink:href="#ArialMT-61" x="250.146484"/>
      <use xlink:href="#ArialMT-74" x="305.761719"/>
      <use xlink:href="#ArialMT-6f" x="333.544922"/>
      <use xlink:href="#ArialMT-72" x="389.160156"/>
      <use xlink:href="#ArialMT-79" x="422.460938"/>
      <use xlink:href="#ArialMT-20" x="472.460938"/>
      <use xlink:href="#ArialMT-74" x="500.244141"/>
      <use xlink:href="#ArialMT-72" x="528.027344"/>
      <use xlink:href="#ArialMT-69" x="561.328125"/>
      <use xlink:href="#ArialMT-70" x="583.544922"/>
      <use xlink:href="#ArialMT-73" x="639.160156"/>
     </g>
    </g>
    <g id="patch_9">
     <path d="M 862.246563 92.376875 
L 918.246563 92.376875 
L 918.246563 72.776875 
L 862.246563 72.776875 
z
" style="fill: #40498e; fill-opacity: 0.1; stroke: #40498e; stroke-width: 5; stroke-linejoin: miter"/>
    </g>
    <g id="text_14">
     <!-- Non-mandatory trips -->
     <g style="fill: #262626" transform="translate(940.646563 92.376875)scale(0.28 -0.28)">
      <defs>
       <path id="ArialMT-2d" d="M 203 1375 
L 203 1941 
L 1931 1941 
L 1931 1375 
L 203 1375 
z
" transform="scale(0.015625)"/>
       <path id="ArialMT-6d" d="M 422 0 
L 422 3319 
L 925 3319 
L 925 2853 
Q 1081 3097 1340 3245 
Q 1600 3394 1931 3394 
Q 2300 3394 2536 3241 
Q 2772 3088 2869 2813 
Q 3263 3394 3894 3394 
Q 4388 3394 4653 3120 
Q 4919 2847 4919 2278 
L 4919 0 
L 4359 0 
L 4359 2091 
Q 4359 2428 4304 2576 
Q 4250 2725 4106 2815 
Q 3963 2906 3769 2906 
Q 3419 2906 3187 2673 
Q 2956 2441 2956 1928 
L 2956 0 
L 2394 0 
L 2394 2156 
Q 2394 2531 2256 2718 
Q 2119 2906 1806 2906 
Q 1569 2906 1367 2781 
Q 1166 2656 1075 2415 
Q 984 2175 984 1722 
L 984 0 
L 422 0 
z
" transform="scale(0.015625)"/>
      </defs>
      <use xlink:href="#ArialMT-4e"/>
      <use xlink:href="#ArialMT-6f" x="72.216797"/>
      <use xlink:href="#ArialMT-6e" x="127.832031"/>
      <use xlink:href="#ArialMT-2d" x="183.447266"/>
      <use xlink:href="#ArialMT-6d" x="216.748047"/>
      <use xlink:href="#ArialMT-61" x="300.048828"/>
      <use xlink:href="#ArialMT-6e" x="355.664062"/>
      <use xlink:href="#ArialMT-64" x="411.279297"/>
      <use xlink:href="#ArialMT-61" x="466.894531"/>
      <use xlink:href="#ArialMT-74" x="522.509766"/>
      <use xlink:href="#ArialMT-6f" x="550.292969"/>
      <use xlink:href="#ArialMT-72" x="605.908203"/>
      <use xlink:href="#ArialMT-79" x="639.208984"/>
      <use xlink:href="#ArialMT-20" x="689.208984"/>
      <use xlink:href="#ArialMT-74" x="716.992188"/>
      <use xlink:href="#ArialMT-72" x="744.775391"/>
      <use xlink:href="#ArialMT-69" x="778.076172"/>
      <use xlink:href="#ArialMT-70" x="800.292969"/>
      <use xlink:href="#ArialMT-73" x="855.908203"/>
     </g>
    </g>
   </g>
  </g>
 </g>
 <defs>
  <clipPath id="p8539857604">
   <rect x="103.482813" y="7.2" width="1116" height="761.04"/>
  </clipPath>
 </defs>
</svg>
