<?xml version="1.0" encoding="utf-8" standalone="no"?>
<!DOCTYPE svg PUBLIC "-//W3C//DTD SVG 1.1//EN"
  "http://www.w3.org/Graphics/SVG/1.1/DTD/svg11.dtd">
<svg xmlns:xlink="http://www.w3.org/1999/xlink" width="1226.682813pt" height="843.809687pt" viewBox="0 0 1226.682813 843.809687" xmlns="http://www.w3.org/2000/svg" version="1.1">
 <metadata>
  <rdf:RDF xmlns:dc="http://purl.org/dc/elements/1.1/" xmlns:cc="http://creativecommons.org/ns#" xmlns:rdf="http://www.w3.org/1999/02/22-rdf-syntax-ns#">
   <cc:Work>
    <dc:type rdf:resource="http://purl.org/dc/dcmitype/StillImage"/>
    <dc:date>2023-05-11T21:19:21.916449</dc:date>
    <dc:format>image/svg+xml</dc:format>
    <dc:creator>
     <cc:Agent>
      <dc:title>Matplotlib v3.5.1, https://matplotlib.org/</dc:title>
     </cc:Agent>
    </dc:creator>
   </cc:Work>
  </rdf:RDF>
 </metadata>
 <defs>
  <style type="text/css">*{stroke-linejoin: round; stroke-linecap: butt}</style>
 </defs>
 <g id="figure_1">
  <g id="patch_1">
   <path d="M 0 843.809687 
L 1226.682813 843.809687 
L 1226.682813 0 
L 0 0 
z
" style="fill: #ffffff"/>
  </g>
  <g id="axes_1">
   <g id="patch_2">
    <path d="M 103.482813 768.24 
L 1219.482812 768.24 
L 1219.482812 7.2 
L 103.482813 7.2 
z
" style="fill: #ffffff"/>
   </g>
   <g id="matplotlib.axis_1">
    <g id="xtick_1">
     <g id="line2d_1">
      <path d="M 144.843966 768.24 
L 144.843966 7.2 
" clip-path="url(#pc603998acb)" style="fill: none; stroke: #cccccc; stroke-width: 1.5; stroke-linecap: round"/>
     </g>
     <g id="text_1">
      <!-- −100 -->
      <g style="fill: #262626" transform="translate(120.068185 796.487187)scale(0.22 -0.22)">
       <defs>
        <path id="ArialMT-2212" d="M 3381 1997 
L 356 1997 
L 356 2522 
L 3381 2522 
L 3381 1997 
z
" transform="scale(0.015625)"/>
        <path id="ArialMT-31" d="M 2384 0 
L 1822 0 
L 1822 3584 
Q 1619 3391 1289 3197 
Q 959 3003 697 2906 
L 697 3450 
Q 1169 3672 1522 3987 
Q 1875 4303 2022 4600 
L 2384 4600 
L 2384 0 
z
" transform="scale(0.015625)"/>
        <path id="ArialMT-30" d="M 266 2259 
Q 266 3072 433 3567 
Q 600 4063 929 4331 
Q 1259 4600 1759 4600 
Q 2128 4600 2406 4451 
Q 2684 4303 2865 4023 
Q 3047 3744 3150 3342 
Q 3253 2941 3253 2259 
Q 3253 1453 3087 958 
Q 2922 463 2592 192 
Q 2263 -78 1759 -78 
Q 1097 -78 719 397 
Q 266 969 266 2259 
z
M 844 2259 
Q 844 1131 1108 757 
Q 1372 384 1759 384 
Q 2147 384 2411 759 
Q 2675 1134 2675 2259 
Q 2675 3391 2411 3762 
Q 2147 4134 1753 4134 
Q 1366 4134 1134 3806 
Q 844 3388 844 2259 
z
" transform="scale(0.015625)"/>
       </defs>
       <use xlink:href="#ArialMT-2212"/>
       <use xlink:href="#ArialMT-31" x="58.398438"/>
       <use xlink:href="#ArialMT-30" x="114.013672"/>
       <use xlink:href="#ArialMT-30" x="169.628906"/>
      </g>
     </g>
    </g>
    <g id="xtick_2">
     <g id="line2d_2">
      <path d="M 271.801896 768.24 
L 271.801896 7.2 
" clip-path="url(#pc603998acb)" style="fill: none; stroke: #cccccc; stroke-width: 1.5; stroke-linecap: round"/>
     </g>
     <g id="text_2">
      <!-- −75 -->
      <g style="fill: #262626" transform="translate(253.143146 796.487187)scale(0.22 -0.22)">
       <defs>
        <path id="ArialMT-37" d="M 303 3981 
L 303 4522 
L 3269 4522 
L 3269 4084 
Q 2831 3619 2401 2847 
Q 1972 2075 1738 1259 
Q 1569 684 1522 0 
L 944 0 
Q 953 541 1156 1306 
Q 1359 2072 1739 2783 
Q 2119 3494 2547 3981 
L 303 3981 
z
" transform="scale(0.015625)"/>
        <path id="ArialMT-35" d="M 266 1200 
L 856 1250 
Q 922 819 1161 601 
Q 1400 384 1738 384 
Q 2144 384 2425 690 
Q 2706 997 2706 1503 
Q 2706 1984 2436 2262 
Q 2166 2541 1728 2541 
Q 1456 2541 1237 2417 
Q 1019 2294 894 2097 
L 366 2166 
L 809 4519 
L 3088 4519 
L 3088 3981 
L 1259 3981 
L 1013 2750 
Q 1425 3038 1878 3038 
Q 2478 3038 2890 2622 
Q 3303 2206 3303 1553 
Q 3303 931 2941 478 
Q 2500 -78 1738 -78 
Q 1113 -78 717 272 
Q 322 622 266 1200 
z
" transform="scale(0.015625)"/>
       </defs>
       <use xlink:href="#ArialMT-2212"/>
       <use xlink:href="#ArialMT-37" x="58.398438"/>
       <use xlink:href="#ArialMT-35" x="114.013672"/>
      </g>
     </g>
    </g>
    <g id="xtick_3">
     <g id="line2d_3">
      <path d="M 398.759825 768.24 
L 398.759825 7.2 
" clip-path="url(#pc603998acb)" style="fill: none; stroke: #cccccc; stroke-width: 1.5; stroke-linecap: round"/>
     </g>
     <g id="text_3">
      <!-- −50 -->
      <g style="fill: #262626" transform="translate(380.101075 796.487187)scale(0.22 -0.22)">
       <use xlink:href="#ArialMT-2212"/>
       <use xlink:href="#ArialMT-35" x="58.398438"/>
       <use xlink:href="#ArialMT-30" x="114.013672"/>
      </g>
     </g>
    </g>
    <g id="xtick_4">
     <g id="line2d_4">
      <path d="M 525.717754 768.24 
L 525.717754 7.2 
" clip-path="url(#pc603998acb)" style="fill: none; stroke: #cccccc; stroke-width: 1.5; stroke-linecap: round"/>
     </g>
     <g id="text_4">
      <!-- −25 -->
      <g style="fill: #262626" transform="translate(507.059004 796.487187)scale(0.22 -0.22)">
       <defs>
        <path id="ArialMT-32" d="M 3222 541 
L 3222 0 
L 194 0 
Q 188 203 259 391 
Q 375 700 629 1000 
Q 884 1300 1366 1694 
Q 2113 2306 2375 2664 
Q 2638 3022 2638 3341 
Q 2638 3675 2398 3904 
Q 2159 4134 1775 4134 
Q 1369 4134 1125 3890 
Q 881 3647 878 3216 
L 300 3275 
Q 359 3922 746 4261 
Q 1134 4600 1788 4600 
Q 2447 4600 2831 4234 
Q 3216 3869 3216 3328 
Q 3216 3053 3103 2787 
Q 2991 2522 2730 2228 
Q 2469 1934 1863 1422 
Q 1356 997 1212 845 
Q 1069 694 975 541 
L 3222 541 
z
" transform="scale(0.015625)"/>
       </defs>
       <use xlink:href="#ArialMT-2212"/>
       <use xlink:href="#ArialMT-32" x="58.398438"/>
       <use xlink:href="#ArialMT-35" x="114.013672"/>
      </g>
     </g>
    </g>
    <g id="xtick_5">
     <g id="line2d_5">
      <path d="M 652.675684 768.24 
L 652.675684 7.2 
" clip-path="url(#pc603998acb)" style="fill: none; stroke: #cccccc; stroke-width: 1.5; stroke-linecap: round"/>
     </g>
     <g id="text_5">
      <!-- 0 -->
      <g style="fill: #262626" transform="translate(646.558652 796.487187)scale(0.22 -0.22)">
       <use xlink:href="#ArialMT-30"/>
      </g>
     </g>
    </g>
    <g id="xtick_6">
     <g id="line2d_6">
      <path d="M 779.633613 768.24 
L 779.633613 7.2 
" clip-path="url(#pc603998acb)" style="fill: none; stroke: #cccccc; stroke-width: 1.5; stroke-linecap: round"/>
     </g>
     <g id="text_6">
      <!-- 25 -->
      <g style="fill: #262626" transform="translate(767.39955 796.487187)scale(0.22 -0.22)">
       <use xlink:href="#ArialMT-32"/>
       <use xlink:href="#ArialMT-35" x="55.615234"/>
      </g>
     </g>
    </g>
    <g id="xtick_7">
     <g id="line2d_7">
      <path d="M 906.591542 768.24 
L 906.591542 7.2 
" clip-path="url(#pc603998acb)" style="fill: none; stroke: #cccccc; stroke-width: 1.5; stroke-linecap: round"/>
     </g>
     <g id="text_7">
      <!-- 50 -->
      <g style="fill: #262626" transform="translate(894.35748 796.487187)scale(0.22 -0.22)">
       <use xlink:href="#ArialMT-35"/>
       <use xlink:href="#ArialMT-30" x="55.615234"/>
      </g>
     </g>
    </g>
    <g id="xtick_8">
     <g id="line2d_8">
      <path d="M 1033.549472 768.24 
L 1033.549472 7.2 
" clip-path="url(#pc603998acb)" style="fill: none; stroke: #cccccc; stroke-width: 1.5; stroke-linecap: round"/>
     </g>
     <g id="text_8">
      <!-- 75 -->
      <g style="fill: #262626" transform="translate(1021.315409 796.487187)scale(0.22 -0.22)">
       <use xlink:href="#ArialMT-37"/>
       <use xlink:href="#ArialMT-35" x="55.615234"/>
      </g>
     </g>
    </g>
    <g id="xtick_9">
     <g id="line2d_9">
      <path d="M 1160.507401 768.24 
L 1160.507401 7.2 
" clip-path="url(#pc603998acb)" style="fill: none; stroke: #cccccc; stroke-width: 1.5; stroke-linecap: round"/>
     </g>
     <g id="text_9">
      <!-- 100 -->
      <g style="fill: #262626" transform="translate(1142.156307 796.487187)scale(0.22 -0.22)">
       <use xlink:href="#ArialMT-31"/>
       <use xlink:href="#ArialMT-30" x="55.615234"/>
       <use xlink:href="#ArialMT-30" x="111.230469"/>
      </g>
     </g>
    </g>
    <g id="text_10">
     <!-- Potential INEXUS ($) -->
     <g style="fill: #262626" transform="translate(511.205312 829.874687)scale(0.32 -0.32)">
      <defs>
       <path id="ArialMT-50" d="M 494 0 
L 494 4581 
L 2222 4581 
Q 2678 4581 2919 4538 
Q 3256 4481 3484 4323 
Q 3713 4166 3852 3881 
Q 3991 3597 3991 3256 
Q 3991 2672 3619 2267 
Q 3247 1863 2275 1863 
L 1100 1863 
L 1100 0 
L 494 0 
z
M 1100 2403 
L 2284 2403 
Q 2872 2403 3119 2622 
Q 3366 2841 3366 3238 
Q 3366 3525 3220 3729 
Q 3075 3934 2838 4000 
Q 2684 4041 2272 4041 
L 1100 4041 
L 1100 2403 
z
" transform="scale(0.015625)"/>
       <path id="ArialMT-6f" d="M 213 1659 
Q 213 2581 725 3025 
Q 1153 3394 1769 3394 
Q 2453 3394 2887 2945 
Q 3322 2497 3322 1706 
Q 3322 1066 3130 698 
Q 2938 331 2570 128 
Q 2203 -75 1769 -75 
Q 1072 -75 642 372 
Q 213 819 213 1659 
z
M 791 1659 
Q 791 1022 1069 705 
Q 1347 388 1769 388 
Q 2188 388 2466 706 
Q 2744 1025 2744 1678 
Q 2744 2294 2464 2611 
Q 2184 2928 1769 2928 
Q 1347 2928 1069 2612 
Q 791 2297 791 1659 
z
" transform="scale(0.015625)"/>
       <path id="ArialMT-74" d="M 1650 503 
L 1731 6 
Q 1494 -44 1306 -44 
Q 1000 -44 831 53 
Q 663 150 594 308 
Q 525 466 525 972 
L 525 2881 
L 113 2881 
L 113 3319 
L 525 3319 
L 525 4141 
L 1084 4478 
L 1084 3319 
L 1650 3319 
L 1650 2881 
L 1084 2881 
L 1084 941 
Q 1084 700 1114 631 
Q 1144 563 1211 522 
Q 1278 481 1403 481 
Q 1497 481 1650 503 
z
" transform="scale(0.015625)"/>
       <path id="ArialMT-65" d="M 2694 1069 
L 3275 997 
Q 3138 488 2766 206 
Q 2394 -75 1816 -75 
Q 1088 -75 661 373 
Q 234 822 234 1631 
Q 234 2469 665 2931 
Q 1097 3394 1784 3394 
Q 2450 3394 2872 2941 
Q 3294 2488 3294 1666 
Q 3294 1616 3291 1516 
L 816 1516 
Q 847 969 1125 678 
Q 1403 388 1819 388 
Q 2128 388 2347 550 
Q 2566 713 2694 1069 
z
M 847 1978 
L 2700 1978 
Q 2663 2397 2488 2606 
Q 2219 2931 1791 2931 
Q 1403 2931 1139 2672 
Q 875 2413 847 1978 
z
" transform="scale(0.015625)"/>
       <path id="ArialMT-6e" d="M 422 0 
L 422 3319 
L 928 3319 
L 928 2847 
Q 1294 3394 1984 3394 
Q 2284 3394 2536 3286 
Q 2788 3178 2913 3003 
Q 3038 2828 3088 2588 
Q 3119 2431 3119 2041 
L 3119 0 
L 2556 0 
L 2556 2019 
Q 2556 2363 2490 2533 
Q 2425 2703 2258 2804 
Q 2091 2906 1866 2906 
Q 1506 2906 1245 2678 
Q 984 2450 984 1813 
L 984 0 
L 422 0 
z
" transform="scale(0.015625)"/>
       <path id="ArialMT-69" d="M 425 3934 
L 425 4581 
L 988 4581 
L 988 3934 
L 425 3934 
z
M 425 0 
L 425 3319 
L 988 3319 
L 988 0 
L 425 0 
z
" transform="scale(0.015625)"/>
       <path id="ArialMT-61" d="M 2588 409 
Q 2275 144 1986 34 
Q 1697 -75 1366 -75 
Q 819 -75 525 192 
Q 231 459 231 875 
Q 231 1119 342 1320 
Q 453 1522 633 1644 
Q 813 1766 1038 1828 
Q 1203 1872 1538 1913 
Q 2219 1994 2541 2106 
Q 2544 2222 2544 2253 
Q 2544 2597 2384 2738 
Q 2169 2928 1744 2928 
Q 1347 2928 1158 2789 
Q 969 2650 878 2297 
L 328 2372 
Q 403 2725 575 2942 
Q 747 3159 1072 3276 
Q 1397 3394 1825 3394 
Q 2250 3394 2515 3294 
Q 2781 3194 2906 3042 
Q 3031 2891 3081 2659 
Q 3109 2516 3109 2141 
L 3109 1391 
Q 3109 606 3145 398 
Q 3181 191 3288 0 
L 2700 0 
Q 2613 175 2588 409 
z
M 2541 1666 
Q 2234 1541 1622 1453 
Q 1275 1403 1131 1340 
Q 988 1278 909 1158 
Q 831 1038 831 891 
Q 831 666 1001 516 
Q 1172 366 1500 366 
Q 1825 366 2078 508 
Q 2331 650 2450 897 
Q 2541 1088 2541 1459 
L 2541 1666 
z
" transform="scale(0.015625)"/>
       <path id="ArialMT-6c" d="M 409 0 
L 409 4581 
L 972 4581 
L 972 0 
L 409 0 
z
" transform="scale(0.015625)"/>
       <path id="ArialMT-20" transform="scale(0.015625)"/>
       <path id="ArialMT-49" d="M 597 0 
L 597 4581 
L 1203 4581 
L 1203 0 
L 597 0 
z
" transform="scale(0.015625)"/>
       <path id="ArialMT-4e" d="M 488 0 
L 488 4581 
L 1109 4581 
L 3516 984 
L 3516 4581 
L 4097 4581 
L 4097 0 
L 3475 0 
L 1069 3600 
L 1069 0 
L 488 0 
z
" transform="scale(0.015625)"/>
       <path id="ArialMT-45" d="M 506 0 
L 506 4581 
L 3819 4581 
L 3819 4041 
L 1113 4041 
L 1113 2638 
L 3647 2638 
L 3647 2100 
L 1113 2100 
L 1113 541 
L 3925 541 
L 3925 0 
L 506 0 
z
" transform="scale(0.015625)"/>
       <path id="ArialMT-58" d="M 28 0 
L 1800 2388 
L 238 4581 
L 959 4581 
L 1791 3406 
Q 2050 3041 2159 2844 
Q 2313 3094 2522 3366 
L 3444 4581 
L 4103 4581 
L 2494 2422 
L 4228 0 
L 3478 0 
L 2325 1634 
Q 2228 1775 2125 1941 
Q 1972 1691 1906 1597 
L 756 0 
L 28 0 
z
" transform="scale(0.015625)"/>
       <path id="ArialMT-55" d="M 3500 4581 
L 4106 4581 
L 4106 1934 
Q 4106 1244 3950 837 
Q 3794 431 3386 176 
Q 2978 -78 2316 -78 
Q 1672 -78 1262 144 
Q 853 366 678 786 
Q 503 1206 503 1934 
L 503 4581 
L 1109 4581 
L 1109 1938 
Q 1109 1341 1220 1058 
Q 1331 775 1601 622 
Q 1872 469 2263 469 
Q 2931 469 3215 772 
Q 3500 1075 3500 1938 
L 3500 4581 
z
" transform="scale(0.015625)"/>
       <path id="ArialMT-53" d="M 288 1472 
L 859 1522 
Q 900 1178 1048 958 
Q 1197 738 1509 602 
Q 1822 466 2213 466 
Q 2559 466 2825 569 
Q 3091 672 3220 851 
Q 3350 1031 3350 1244 
Q 3350 1459 3225 1620 
Q 3100 1781 2813 1891 
Q 2628 1963 1997 2114 
Q 1366 2266 1113 2400 
Q 784 2572 623 2826 
Q 463 3081 463 3397 
Q 463 3744 659 4045 
Q 856 4347 1234 4503 
Q 1613 4659 2075 4659 
Q 2584 4659 2973 4495 
Q 3363 4331 3572 4012 
Q 3781 3694 3797 3291 
L 3216 3247 
Q 3169 3681 2898 3903 
Q 2628 4125 2100 4125 
Q 1550 4125 1298 3923 
Q 1047 3722 1047 3438 
Q 1047 3191 1225 3031 
Q 1400 2872 2139 2705 
Q 2878 2538 3153 2413 
Q 3553 2228 3743 1945 
Q 3934 1663 3934 1294 
Q 3934 928 3725 604 
Q 3516 281 3123 101 
Q 2731 -78 2241 -78 
Q 1619 -78 1198 103 
Q 778 284 539 648 
Q 300 1013 288 1472 
z
" transform="scale(0.015625)"/>
       <path id="ArialMT-28" d="M 1497 -1347 
Q 1031 -759 709 28 
Q 388 816 388 1659 
Q 388 2403 628 3084 
Q 909 3875 1497 4659 
L 1900 4659 
Q 1522 4009 1400 3731 
Q 1209 3300 1100 2831 
Q 966 2247 966 1656 
Q 966 153 1900 -1347 
L 1497 -1347 
z
" transform="scale(0.015625)"/>
       <path id="ArialMT-24" d="M 1594 -659 
L 1594 -97 
Q 1172 -44 908 92 
Q 644 228 451 531 
Q 259 834 228 1272 
L 794 1378 
Q 859 925 1025 713 
Q 1263 413 1594 378 
L 1594 2169 
Q 1247 2234 884 2438 
Q 616 2588 470 2853 
Q 325 3119 325 3456 
Q 325 4056 750 4428 
Q 1034 4678 1594 4734 
L 1594 5003 
L 1925 5003 
L 1925 4734 
Q 2416 4688 2703 4447 
Q 3072 4141 3147 3606 
L 2566 3519 
Q 2516 3850 2358 4026 
Q 2200 4203 1925 4259 
L 1925 2638 
Q 2350 2531 2488 2472 
Q 2750 2356 2915 2190 
Q 3081 2025 3170 1797 
Q 3259 1569 3259 1303 
Q 3259 719 2887 328 
Q 2516 -63 1925 -91 
L 1925 -659 
L 1594 -659 
z
M 1594 4266 
Q 1266 4216 1077 4003 
Q 888 3791 888 3500 
Q 888 3213 1048 3019 
Q 1209 2825 1594 2709 
L 1594 4266 
z
M 1925 378 
Q 2253 419 2467 662 
Q 2681 906 2681 1266 
Q 2681 1572 2529 1758 
Q 2378 1944 1925 2091 
L 1925 378 
z
" transform="scale(0.015625)"/>
       <path id="ArialMT-29" d="M 791 -1347 
L 388 -1347 
Q 1322 153 1322 1656 
Q 1322 2244 1188 2822 
Q 1081 3291 891 3722 
Q 769 4003 388 4659 
L 791 4659 
Q 1378 3875 1659 3084 
Q 1900 2403 1900 1659 
Q 1900 816 1576 28 
Q 1253 -759 791 -1347 
z
" transform="scale(0.015625)"/>
      </defs>
      <use xlink:href="#ArialMT-50"/>
      <use xlink:href="#ArialMT-6f" x="66.699219"/>
      <use xlink:href="#ArialMT-74" x="122.314453"/>
      <use xlink:href="#ArialMT-65" x="150.097656"/>
      <use xlink:href="#ArialMT-6e" x="205.712891"/>
      <use xlink:href="#ArialMT-74" x="261.328125"/>
      <use xlink:href="#ArialMT-69" x="289.111328"/>
      <use xlink:href="#ArialMT-61" x="311.328125"/>
      <use xlink:href="#ArialMT-6c" x="366.943359"/>
      <use xlink:href="#ArialMT-20" x="389.160156"/>
      <use xlink:href="#ArialMT-49" x="416.943359"/>
      <use xlink:href="#ArialMT-4e" x="444.726562"/>
      <use xlink:href="#ArialMT-45" x="516.943359"/>
      <use xlink:href="#ArialMT-58" x="583.642578"/>
      <use xlink:href="#ArialMT-55" x="650.341797"/>
      <use xlink:href="#ArialMT-53" x="722.558594"/>
      <use xlink:href="#ArialMT-20" x="789.257812"/>
      <use xlink:href="#ArialMT-28" x="817.041016"/>
      <use xlink:href="#ArialMT-24" x="850.341797"/>
      <use xlink:href="#ArialMT-29" x="905.957031"/>
     </g>
    </g>
   </g>
   <g id="matplotlib.axis_2">
    <g id="ytick_1">
     <g id="line2d_10">
      <path d="M 103.482813 768.24 
L 1219.482812 768.24 
" clip-path="url(#pc603998acb)" style="fill: none; stroke: #cccccc; stroke-width: 1.5; stroke-linecap: round"/>
     </g>
     <g id="text_11">
      <!-- 0.0% -->
      <g style="fill: #262626" transform="translate(40.84 776.113594)scale(0.22 -0.22)">
       <defs>
        <path id="ArialMT-2e" d="M 581 0 
L 581 641 
L 1222 641 
L 1222 0 
L 581 0 
z
" transform="scale(0.015625)"/>
        <path id="ArialMT-25" d="M 372 3481 
Q 372 3972 619 4315 
Q 866 4659 1334 4659 
Q 1766 4659 2048 4351 
Q 2331 4044 2331 3447 
Q 2331 2866 2045 2552 
Q 1759 2238 1341 2238 
Q 925 2238 648 2547 
Q 372 2856 372 3481 
z
M 1350 4272 
Q 1141 4272 1002 4090 
Q 863 3909 863 3425 
Q 863 2984 1003 2804 
Q 1144 2625 1350 2625 
Q 1563 2625 1702 2806 
Q 1841 2988 1841 3469 
Q 1841 3913 1700 4092 
Q 1559 4272 1350 4272 
z
M 1353 -169 
L 3859 4659 
L 4316 4659 
L 1819 -169 
L 1353 -169 
z
M 3334 1075 
Q 3334 1569 3581 1911 
Q 3828 2253 4300 2253 
Q 4731 2253 5014 1945 
Q 5297 1638 5297 1041 
Q 5297 459 5011 145 
Q 4725 -169 4303 -169 
Q 3888 -169 3611 142 
Q 3334 453 3334 1075 
z
M 4316 1866 
Q 4103 1866 3964 1684 
Q 3825 1503 3825 1019 
Q 3825 581 3965 400 
Q 4106 219 4313 219 
Q 4528 219 4667 400 
Q 4806 581 4806 1063 
Q 4806 1506 4665 1686 
Q 4525 1866 4316 1866 
z
" transform="scale(0.015625)"/>
       </defs>
       <use xlink:href="#ArialMT-30"/>
       <use xlink:href="#ArialMT-2e" x="55.615234"/>
       <use xlink:href="#ArialMT-30" x="83.398438"/>
       <use xlink:href="#ArialMT-25" x="139.013672"/>
      </g>
     </g>
    </g>
    <g id="ytick_2">
     <g id="line2d_11">
      <path d="M 103.482813 671.666956 
L 1219.482812 671.666956 
" clip-path="url(#pc603998acb)" style="fill: none; stroke: #cccccc; stroke-width: 1.5; stroke-linecap: round"/>
     </g>
     <g id="text_12">
      <!-- 0.5% -->
      <g style="fill: #262626" transform="translate(40.84 679.54055)scale(0.22 -0.22)">
       <use xlink:href="#ArialMT-30"/>
       <use xlink:href="#ArialMT-2e" x="55.615234"/>
       <use xlink:href="#ArialMT-35" x="83.398438"/>
       <use xlink:href="#ArialMT-25" x="139.013672"/>
      </g>
     </g>
    </g>
    <g id="ytick_3">
     <g id="line2d_12">
      <path d="M 103.482813 575.093912 
L 1219.482812 575.093912 
" clip-path="url(#pc603998acb)" style="fill: none; stroke: #cccccc; stroke-width: 1.5; stroke-linecap: round"/>
     </g>
     <g id="text_13">
      <!-- 1.0% -->
      <g style="fill: #262626" transform="translate(40.84 582.967506)scale(0.22 -0.22)">
       <use xlink:href="#ArialMT-31"/>
       <use xlink:href="#ArialMT-2e" x="55.615234"/>
       <use xlink:href="#ArialMT-30" x="83.398438"/>
       <use xlink:href="#ArialMT-25" x="139.013672"/>
      </g>
     </g>
    </g>
    <g id="ytick_4">
     <g id="line2d_13">
      <path d="M 103.482813 478.520868 
L 1219.482812 478.520868 
" clip-path="url(#pc603998acb)" style="fill: none; stroke: #cccccc; stroke-width: 1.5; stroke-linecap: round"/>
     </g>
     <g id="text_14">
      <!-- 1.5% -->
      <g style="fill: #262626" transform="translate(40.84 486.394462)scale(0.22 -0.22)">
       <use xlink:href="#ArialMT-31"/>
       <use xlink:href="#ArialMT-2e" x="55.615234"/>
       <use xlink:href="#ArialMT-35" x="83.398438"/>
       <use xlink:href="#ArialMT-25" x="139.013672"/>
      </g>
     </g>
    </g>
    <g id="ytick_5">
     <g id="line2d_14">
      <path d="M 103.482813 381.947824 
L 1219.482812 381.947824 
" clip-path="url(#pc603998acb)" style="fill: none; stroke: #cccccc; stroke-width: 1.5; stroke-linecap: round"/>
     </g>
     <g id="text_15">
      <!-- 2.0% -->
      <g style="fill: #262626" transform="translate(40.84 389.821418)scale(0.22 -0.22)">
       <use xlink:href="#ArialMT-32"/>
       <use xlink:href="#ArialMT-2e" x="55.615234"/>
       <use xlink:href="#ArialMT-30" x="83.398438"/>
       <use xlink:href="#ArialMT-25" x="139.013672"/>
      </g>
     </g>
    </g>
    <g id="ytick_6">
     <g id="line2d_15">
      <path d="M 103.482813 285.374781 
L 1219.482812 285.374781 
" clip-path="url(#pc603998acb)" style="fill: none; stroke: #cccccc; stroke-width: 1.5; stroke-linecap: round"/>
     </g>
     <g id="text_16">
      <!-- 2.5% -->
      <g style="fill: #262626" transform="translate(40.84 293.248374)scale(0.22 -0.22)">
       <use xlink:href="#ArialMT-32"/>
       <use xlink:href="#ArialMT-2e" x="55.615234"/>
       <use xlink:href="#ArialMT-35" x="83.398438"/>
       <use xlink:href="#ArialMT-25" x="139.013672"/>
      </g>
     </g>
    </g>
    <g id="ytick_7">
     <g id="line2d_16">
      <path d="M 103.482813 188.801737 
L 1219.482812 188.801737 
" clip-path="url(#pc603998acb)" style="fill: none; stroke: #cccccc; stroke-width: 1.5; stroke-linecap: round"/>
     </g>
     <g id="text_17">
      <!-- 3.0% -->
      <g style="fill: #262626" transform="translate(40.84 196.67533)scale(0.22 -0.22)">
       <defs>
        <path id="ArialMT-33" d="M 269 1209 
L 831 1284 
Q 928 806 1161 595 
Q 1394 384 1728 384 
Q 2125 384 2398 659 
Q 2672 934 2672 1341 
Q 2672 1728 2419 1979 
Q 2166 2231 1775 2231 
Q 1616 2231 1378 2169 
L 1441 2663 
Q 1497 2656 1531 2656 
Q 1891 2656 2178 2843 
Q 2466 3031 2466 3422 
Q 2466 3731 2256 3934 
Q 2047 4138 1716 4138 
Q 1388 4138 1169 3931 
Q 950 3725 888 3313 
L 325 3413 
Q 428 3978 793 4289 
Q 1159 4600 1703 4600 
Q 2078 4600 2393 4439 
Q 2709 4278 2876 4000 
Q 3044 3722 3044 3409 
Q 3044 3113 2884 2869 
Q 2725 2625 2413 2481 
Q 2819 2388 3044 2092 
Q 3269 1797 3269 1353 
Q 3269 753 2831 336 
Q 2394 -81 1725 -81 
Q 1122 -81 723 278 
Q 325 638 269 1209 
z
" transform="scale(0.015625)"/>
       </defs>
       <use xlink:href="#ArialMT-33"/>
       <use xlink:href="#ArialMT-2e" x="55.615234"/>
       <use xlink:href="#ArialMT-30" x="83.398438"/>
       <use xlink:href="#ArialMT-25" x="139.013672"/>
      </g>
     </g>
    </g>
    <g id="ytick_8">
     <g id="line2d_17">
      <path d="M 103.482813 92.228693 
L 1219.482812 92.228693 
" clip-path="url(#pc603998acb)" style="fill: none; stroke: #cccccc; stroke-width: 1.5; stroke-linecap: round"/>
     </g>
     <g id="text_18">
      <!-- 3.5% -->
      <g style="fill: #262626" transform="translate(40.84 100.102286)scale(0.22 -0.22)">
       <use xlink:href="#ArialMT-33"/>
       <use xlink:href="#ArialMT-2e" x="55.615234"/>
       <use xlink:href="#ArialMT-35" x="83.398438"/>
       <use xlink:href="#ArialMT-25" x="139.013672"/>
      </g>
     </g>
    </g>
    <g id="text_19">
     <!-- Density -->
     <g style="fill: #262626" transform="translate(30.105 441.07)rotate(-90)scale(0.32 -0.32)">
      <defs>
       <path id="ArialMT-44" d="M 494 0 
L 494 4581 
L 2072 4581 
Q 2606 4581 2888 4516 
Q 3281 4425 3559 4188 
Q 3922 3881 4101 3404 
Q 4281 2928 4281 2316 
Q 4281 1794 4159 1391 
Q 4038 988 3847 723 
Q 3656 459 3429 307 
Q 3203 156 2883 78 
Q 2563 0 2147 0 
L 494 0 
z
M 1100 541 
L 2078 541 
Q 2531 541 2789 625 
Q 3047 709 3200 863 
Q 3416 1078 3536 1442 
Q 3656 1806 3656 2325 
Q 3656 3044 3420 3430 
Q 3184 3816 2847 3947 
Q 2603 4041 2063 4041 
L 1100 4041 
L 1100 541 
z
" transform="scale(0.015625)"/>
       <path id="ArialMT-73" d="M 197 991 
L 753 1078 
Q 800 744 1014 566 
Q 1228 388 1613 388 
Q 2000 388 2187 545 
Q 2375 703 2375 916 
Q 2375 1106 2209 1216 
Q 2094 1291 1634 1406 
Q 1016 1563 777 1677 
Q 538 1791 414 1992 
Q 291 2194 291 2438 
Q 291 2659 392 2848 
Q 494 3038 669 3163 
Q 800 3259 1026 3326 
Q 1253 3394 1513 3394 
Q 1903 3394 2198 3281 
Q 2494 3169 2634 2976 
Q 2775 2784 2828 2463 
L 2278 2388 
Q 2241 2644 2061 2787 
Q 1881 2931 1553 2931 
Q 1166 2931 1000 2803 
Q 834 2675 834 2503 
Q 834 2394 903 2306 
Q 972 2216 1119 2156 
Q 1203 2125 1616 2013 
Q 2213 1853 2448 1751 
Q 2684 1650 2818 1456 
Q 2953 1263 2953 975 
Q 2953 694 2789 445 
Q 2625 197 2315 61 
Q 2006 -75 1616 -75 
Q 969 -75 630 194 
Q 291 463 197 991 
z
" transform="scale(0.015625)"/>
       <path id="ArialMT-79" d="M 397 -1278 
L 334 -750 
Q 519 -800 656 -800 
Q 844 -800 956 -737 
Q 1069 -675 1141 -563 
Q 1194 -478 1313 -144 
Q 1328 -97 1363 -6 
L 103 3319 
L 709 3319 
L 1400 1397 
Q 1534 1031 1641 628 
Q 1738 1016 1872 1384 
L 2581 3319 
L 3144 3319 
L 1881 -56 
Q 1678 -603 1566 -809 
Q 1416 -1088 1222 -1217 
Q 1028 -1347 759 -1347 
Q 597 -1347 397 -1278 
z
" transform="scale(0.015625)"/>
      </defs>
      <use xlink:href="#ArialMT-44"/>
      <use xlink:href="#ArialMT-65" x="72.216797"/>
      <use xlink:href="#ArialMT-6e" x="127.832031"/>
      <use xlink:href="#ArialMT-73" x="183.447266"/>
      <use xlink:href="#ArialMT-69" x="233.447266"/>
      <use xlink:href="#ArialMT-74" x="255.664062"/>
      <use xlink:href="#ArialMT-79" x="283.447266"/>
     </g>
    </g>
   </g>
   <g id="PolyCollection_1">
    <defs>
     <path id="m8938ae0692" d="M 154.210085 -75.614066 
L 154.210085 -75.569688 
L 159.308304 -75.569688 
L 164.406522 -75.569688 
L 169.50474 -75.569688 
L 174.602959 -75.569688 
L 179.701177 -75.569688 
L 184.799395 -75.569688 
L 189.897614 -75.569688 
L 194.995832 -75.569688 
L 200.094051 -75.569688 
L 205.192269 -75.569688 
L 210.290487 -75.569688 
L 215.388706 -75.569688 
L 220.486924 -75.569688 
L 225.585142 -75.569688 
L 230.683361 -75.569688 
L 235.781579 -75.569688 
L 240.879797 -75.569688 
L 245.978016 -75.569688 
L 251.076234 -75.569688 
L 256.174453 -75.569688 
L 261.272671 -75.569688 
L 266.370889 -75.569688 
L 271.469108 -75.569688 
L 276.567326 -75.569688 
L 281.665544 -75.569688 
L 286.763763 -75.569688 
L 291.861981 -75.569688 
L 296.960199 -75.569688 
L 302.058418 -75.569688 
L 307.156636 -75.569688 
L 312.254855 -75.569688 
L 317.353073 -75.569688 
L 322.451291 -75.569688 
L 327.54951 -75.569688 
L 332.647728 -75.569688 
L 337.745946 -75.569688 
L 342.844165 -75.569688 
L 347.942383 -75.569688 
L 353.040601 -75.569688 
L 358.13882 -75.569688 
L 363.237038 -75.569688 
L 368.335257 -75.569688 
L 373.433475 -75.569688 
L 378.531693 -75.569688 
L 383.629912 -75.569688 
L 388.72813 -75.569688 
L 393.826348 -75.569688 
L 398.924567 -75.569688 
L 404.022785 -75.569688 
L 409.121003 -75.569688 
L 414.219222 -75.569688 
L 419.31744 -75.569688 
L 424.415659 -75.569688 
L 429.513877 -75.569688 
L 434.612095 -75.569688 
L 439.710314 -75.569688 
L 444.808532 -75.569688 
L 449.90675 -75.569688 
L 455.004969 -75.569688 
L 460.103187 -75.569688 
L 465.201405 -75.569688 
L 470.299624 -75.569688 
L 475.397842 -75.569688 
L 480.496061 -75.569688 
L 485.594279 -75.569688 
L 490.692497 -75.569688 
L 495.790716 -75.569688 
L 500.888934 -75.569688 
L 505.987152 -75.569688 
L 511.085371 -75.569688 
L 516.183589 -75.569688 
L 521.281807 -75.569688 
L 526.380026 -75.569688 
L 531.478244 -75.569688 
L 536.576463 -75.569688 
L 541.674681 -75.569688 
L 546.772899 -75.569688 
L 551.871118 -75.569688 
L 556.969336 -75.569688 
L 562.067554 -75.569688 
L 567.165773 -75.569688 
L 572.263991 -75.569688 
L 577.362209 -75.569688 
L 582.460428 -75.569688 
L 587.558646 -75.569688 
L 592.656865 -75.569688 
L 597.755083 -75.569688 
L 602.853301 -75.569688 
L 607.95152 -75.569688 
L 613.049738 -75.569688 
L 618.147956 -75.569688 
L 623.246175 -75.569688 
L 628.344393 -75.569688 
L 633.442611 -75.569688 
L 638.54083 -75.569688 
L 643.639048 -75.569688 
L 648.737267 -75.569688 
L 653.835485 -75.569688 
L 658.933703 -75.569688 
L 664.031922 -75.569688 
L 669.13014 -75.569688 
L 674.228358 -75.569688 
L 679.326577 -75.569688 
L 684.424795 -75.569688 
L 689.523014 -75.569688 
L 694.621232 -75.569688 
L 699.71945 -75.569688 
L 704.817669 -75.569688 
L 709.915887 -75.569688 
L 715.014105 -75.569688 
L 720.112324 -75.569688 
L 725.210542 -75.569688 
L 730.30876 -75.569688 
L 735.406979 -75.569688 
L 740.505197 -75.569688 
L 745.603416 -75.569688 
L 750.701634 -75.569688 
L 755.799852 -75.569688 
L 760.898071 -75.569688 
L 765.996289 -75.569688 
L 771.094507 -75.569688 
L 776.192726 -75.569688 
L 781.290944 -75.569688 
L 786.389162 -75.569688 
L 791.487381 -75.569688 
L 796.585599 -75.569688 
L 801.683818 -75.569688 
L 806.782036 -75.569688 
L 811.880254 -75.569688 
L 816.978473 -75.569688 
L 822.076691 -75.569688 
L 827.174909 -75.569688 
L 832.273128 -75.569688 
L 837.371346 -75.569688 
L 842.469564 -75.569688 
L 847.567783 -75.569688 
L 852.666001 -75.569688 
L 857.76422 -75.569688 
L 862.862438 -75.569688 
L 867.960656 -75.569688 
L 873.058875 -75.569688 
L 878.157093 -75.569688 
L 883.255311 -75.569688 
L 888.35353 -75.569688 
L 893.451748 -75.569688 
L 898.549966 -75.569688 
L 903.648185 -75.569688 
L 908.746403 -75.569688 
L 913.844622 -75.569688 
L 918.94284 -75.569688 
L 924.041058 -75.569688 
L 929.139277 -75.569688 
L 934.237495 -75.569688 
L 939.335713 -75.569688 
L 944.433932 -75.569688 
L 949.53215 -75.569688 
L 954.630368 -75.569688 
L 959.728587 -75.569688 
L 964.826805 -75.569688 
L 969.925024 -75.569688 
L 975.023242 -75.569688 
L 980.12146 -75.569688 
L 985.219679 -75.569688 
L 990.317897 -75.569688 
L 995.416115 -75.569688 
L 1000.514334 -75.569688 
L 1005.612552 -75.569688 
L 1010.71077 -75.569688 
L 1015.808989 -75.569688 
L 1020.907207 -75.569688 
L 1026.005426 -75.569688 
L 1031.103644 -75.569688 
L 1036.201862 -75.569688 
L 1041.300081 -75.569688 
L 1046.398299 -75.569688 
L 1051.496517 -75.569688 
L 1056.594736 -75.569688 
L 1061.692954 -75.569688 
L 1066.791172 -75.569688 
L 1071.889391 -75.569688 
L 1076.987609 -75.569688 
L 1082.085828 -75.569688 
L 1087.184046 -75.569688 
L 1092.282264 -75.569688 
L 1097.380483 -75.569688 
L 1102.478701 -75.569688 
L 1107.576919 -75.569688 
L 1112.675138 -75.569688 
L 1117.773356 -75.569688 
L 1122.871574 -75.569688 
L 1127.969793 -75.569688 
L 1133.068011 -75.569688 
L 1138.16623 -75.569688 
L 1143.264448 -75.569688 
L 1148.362666 -75.569688 
L 1153.460885 -75.569688 
L 1158.559103 -75.569688 
L 1163.657321 -75.569688 
L 1168.75554 -75.569688 
L 1168.75554 -75.576581 
L 1168.75554 -75.576581 
L 1163.657321 -75.578104 
L 1158.559103 -75.579944 
L 1153.460885 -75.58216 
L 1148.362666 -75.584826 
L 1143.264448 -75.588024 
L 1138.16623 -75.591856 
L 1133.068011 -75.596436 
L 1127.969793 -75.601899 
L 1122.871574 -75.608405 
L 1117.773356 -75.616136 
L 1112.675138 -75.625305 
L 1107.576919 -75.63616 
L 1102.478701 -75.648985 
L 1097.380483 -75.66411 
L 1092.282264 -75.681913 
L 1087.184046 -75.702828 
L 1082.085828 -75.727356 
L 1076.987609 -75.756065 
L 1071.889391 -75.789608 
L 1066.791172 -75.828726 
L 1061.692954 -75.874262 
L 1056.594736 -75.927173 
L 1051.496517 -75.988541 
L 1046.398299 -76.05959 
L 1041.300081 -76.141699 
L 1036.201862 -76.236418 
L 1031.103644 -76.345487 
L 1026.005426 -76.470855 
L 1020.907207 -76.614697 
L 1015.808989 -76.779439 
L 1010.71077 -76.967778 
L 1005.612552 -77.182705 
L 1000.514334 -77.427529 
L 995.416115 -77.705902 
L 990.317897 -78.021844 
L 985.219679 -78.379768 
L 980.12146 -78.784505 
L 975.023242 -79.241328 
L 969.925024 -79.755978 
L 964.826805 -80.334684 
L 959.728587 -80.984184 
L 954.630368 -81.711746 
L 949.53215 -82.525177 
L 944.433932 -83.432841 
L 939.335713 -84.443658 
L 934.237495 -85.567114 
L 929.139277 -86.813247 
L 924.041058 -88.192639 
L 918.94284 -89.716397 
L 913.844622 -91.39612 
L 908.746403 -93.243862 
L 903.648185 -95.272082 
L 898.549966 -97.493582 
L 893.451748 -99.921435 
L 888.35353 -102.568896 
L 883.255311 -105.449307 
L 878.157093 -108.57598 
L 873.058875 -111.962073 
L 867.960656 -115.620448 
L 862.862438 -119.563521 
L 857.76422 -123.803096 
L 852.666001 -128.350183 
L 847.567783 -133.214818 
L 842.469564 -138.405863 
L 837.371346 -143.930803 
L 832.273128 -149.795538 
L 827.174909 -156.004176 
L 822.076691 -162.558822 
L 816.978473 -169.459373 
L 811.880254 -176.703318 
L 806.782036 -184.285556 
L 801.683818 -192.198216 
L 796.585599 -200.430508 
L 791.487381 -208.968587 
L 786.389162 -217.795447 
L 781.290944 -226.890845 
L 776.192726 -236.231252 
L 771.094507 -245.789849 
L 765.996289 -255.536554 
L 760.898071 -265.438095 
L 755.799852 -275.458121 
L 750.701634 -285.557362 
L 745.603416 -295.693831 
L 740.505197 -305.823067 
L 735.406979 -315.898426 
L 730.30876 -325.871412 
L 725.210542 -335.692041 
L 720.112324 -345.309248 
L 715.014105 -354.671321 
L 709.915887 -363.726356 
L 704.817669 -372.422742 
L 699.71945 -380.709653 
L 694.621232 -388.53755 
L 689.523014 -395.858681 
L 684.424795 -402.627579 
L 679.326577 -408.80154 
L 674.228358 -414.341086 
L 669.13014 -419.210394 
L 664.031922 -423.377694 
L 658.933703 -426.815625 
L 653.835485 -429.501537 
L 648.737267 -431.417754 
L 643.639048 -432.551772 
L 638.54083 -432.896394 
L 633.442611 -432.449816 
L 628.344393 -431.215637 
L 623.246175 -429.202813 
L 618.147956 -426.425548 
L 613.049738 -422.903123 
L 607.95152 -418.659668 
L 602.853301 -413.723882 
L 597.755083 -408.128701 
L 592.656865 -401.910925 
L 587.558646 -395.110806 
L 582.460428 -387.771609 
L 577.362209 -379.939139 
L 572.263991 -371.661264 
L 567.165773 -362.987421 
L 562.067554 -353.968117 
L 556.969336 -344.65444 
L 551.871118 -335.09758 
L 546.772899 -325.348366 
L 541.674681 -315.456825 
L 536.576463 -305.471769 
L 531.478244 -295.440419 
L 526.380026 -285.408061 
L 521.281807 -275.417741 
L 516.183589 -265.51 
L 511.085371 -255.722657 
L 505.987152 -246.090631 
L 500.888934 -236.645803 
L 495.790716 -227.416927 
L 490.692497 -218.429575 
L 485.594279 -209.706125 
L 480.496061 -201.265783 
L 475.397842 -193.124641 
L 470.299624 -185.295756 
L 465.201405 -177.789272 
L 460.103187 -170.612548 
L 455.004969 -163.770314 
L 449.90675 -157.264845 
L 444.808532 -151.09614 
L 439.710314 -145.262117 
L 434.612095 -139.758805 
L 429.513877 -134.580549 
L 424.415659 -129.720202 
L 419.31744 -125.169329 
L 414.219222 -120.918389 
L 409.121003 -116.956926 
L 404.022785 -113.273737 
L 398.924567 -109.857043 
L 393.826348 -106.694638 
L 388.72813 -103.774031 
L 383.629912 -101.08258 
L 378.531693 -98.607601 
L 373.433475 -96.336481 
L 368.335257 -94.256763 
L 363.237038 -92.356228 
L 358.13882 -90.622966 
L 353.040601 -89.045428 
L 347.942383 -87.612478 
L 342.844165 -86.313426 
L 337.745946 -85.138058 
L 332.647728 -84.076656 
L 327.54951 -83.120012 
L 322.451291 -82.259433 
L 317.353073 -81.486742 
L 312.254855 -80.794274 
L 307.156636 -80.174868 
L 302.058418 -79.621855 
L 296.960199 -79.129043 
L 291.861981 -78.6907 
L 286.763763 -78.301533 
L 281.665544 -77.956671 
L 276.567326 -77.651642 
L 271.469108 -77.382351 
L 266.370889 -77.145056 
L 261.272671 -76.936351 
L 256.174453 -76.753137 
L 251.076234 -76.592606 
L 245.978016 -76.452218 
L 240.879797 -76.329682 
L 235.781579 -76.222933 
L 230.683361 -76.130117 
L 225.585142 -76.049574 
L 220.486924 -75.979819 
L 215.388706 -75.919525 
L 210.290487 -75.867513 
L 205.192269 -75.822736 
L 200.094051 -75.784266 
L 194.995832 -75.751281 
L 189.897614 -75.723058 
L 184.799395 -75.698958 
L 179.701177 -75.678423 
L 174.602959 -75.660962 
L 169.50474 -75.646145 
L 164.406522 -75.633601 
L 159.308304 -75.623002 
L 154.210085 -75.614066 
z
" style="stroke: #f4a582; stroke-width: 5"/>
    </defs>
    <g clip-path="url(#pc603998acb)">
     <use xlink:href="#m8938ae0692" x="0" y="843.809687" style="fill: #f4a582; fill-opacity: 0.1; stroke: #f4a582; stroke-width: 5"/>
    </g>
   </g>
   <g id="PolyCollection_2">
    <defs>
     <path id="me8bbc50b99" d="M 284.815564 -75.580211 
L 284.815564 -75.569688 
L 288.431746 -75.569688 
L 292.047929 -75.569688 
L 295.664112 -75.569688 
L 299.280295 -75.569688 
L 302.896477 -75.569688 
L 306.51266 -75.569688 
L 310.128843 -75.569688 
L 313.745025 -75.569688 
L 317.361208 -75.569688 
L 320.977391 -75.569688 
L 324.593574 -75.569688 
L 328.209756 -75.569688 
L 331.825939 -75.569688 
L 335.442122 -75.569688 
L 339.058304 -75.569688 
L 342.674487 -75.569688 
L 346.29067 -75.569688 
L 349.906853 -75.569688 
L 353.523035 -75.569688 
L 357.139218 -75.569688 
L 360.755401 -75.569688 
L 364.371583 -75.569688 
L 367.987766 -75.569688 
L 371.603949 -75.569688 
L 375.220132 -75.569688 
L 378.836314 -75.569688 
L 382.452497 -75.569688 
L 386.06868 -75.569688 
L 389.684862 -75.569688 
L 393.301045 -75.569688 
L 396.917228 -75.569688 
L 400.533411 -75.569688 
L 404.149593 -75.569688 
L 407.765776 -75.569688 
L 411.381959 -75.569688 
L 414.998142 -75.569688 
L 418.614324 -75.569688 
L 422.230507 -75.569688 
L 425.84669 -75.569688 
L 429.462872 -75.569688 
L 433.079055 -75.569688 
L 436.695238 -75.569688 
L 440.311421 -75.569688 
L 443.927603 -75.569688 
L 447.543786 -75.569688 
L 451.159969 -75.569688 
L 454.776151 -75.569688 
L 458.392334 -75.569688 
L 462.008517 -75.569688 
L 465.6247 -75.569688 
L 469.240882 -75.569688 
L 472.857065 -75.569688 
L 476.473248 -75.569688 
L 480.08943 -75.569688 
L 483.705613 -75.569688 
L 487.321796 -75.569688 
L 490.937979 -75.569688 
L 494.554161 -75.569688 
L 498.170344 -75.569688 
L 501.786527 -75.569688 
L 505.402709 -75.569688 
L 509.018892 -75.569688 
L 512.635075 -75.569688 
L 516.251258 -75.569688 
L 519.86744 -75.569688 
L 523.483623 -75.569688 
L 527.099806 -75.569688 
L 530.715988 -75.569688 
L 534.332171 -75.569688 
L 537.948354 -75.569688 
L 541.564537 -75.569688 
L 545.180719 -75.569688 
L 548.796902 -75.569688 
L 552.413085 -75.569688 
L 556.029268 -75.569688 
L 559.64545 -75.569688 
L 563.261633 -75.569688 
L 566.877816 -75.569688 
L 570.493998 -75.569688 
L 574.110181 -75.569688 
L 577.726364 -75.569688 
L 581.342547 -75.569688 
L 584.958729 -75.569688 
L 588.574912 -75.569688 
L 592.191095 -75.569688 
L 595.807277 -75.569688 
L 599.42346 -75.569688 
L 603.039643 -75.569688 
L 606.655826 -75.569688 
L 610.272008 -75.569688 
L 613.888191 -75.569688 
L 617.504374 -75.569688 
L 621.120556 -75.569688 
L 624.736739 -75.569688 
L 628.352922 -75.569688 
L 631.969105 -75.569688 
L 635.585287 -75.569688 
L 639.20147 -75.569688 
L 642.817653 -75.569688 
L 646.433835 -75.569688 
L 650.050018 -75.569688 
L 653.666201 -75.569688 
L 657.282384 -75.569688 
L 660.898566 -75.569688 
L 664.514749 -75.569688 
L 668.130932 -75.569688 
L 671.747114 -75.569688 
L 675.363297 -75.569688 
L 678.97948 -75.569688 
L 682.595663 -75.569688 
L 686.211845 -75.569688 
L 689.828028 -75.569688 
L 693.444211 -75.569688 
L 697.060394 -75.569688 
L 700.676576 -75.569688 
L 704.292759 -75.569688 
L 707.908942 -75.569688 
L 711.525124 -75.569688 
L 715.141307 -75.569688 
L 718.75749 -75.569688 
L 722.373673 -75.569688 
L 725.989855 -75.569688 
L 729.606038 -75.569688 
L 733.222221 -75.569688 
L 736.838403 -75.569688 
L 740.454586 -75.569688 
L 744.070769 -75.569688 
L 747.686952 -75.569688 
L 751.303134 -75.569688 
L 754.919317 -75.569688 
L 758.5355 -75.569688 
L 762.151682 -75.569688 
L 765.767865 -75.569688 
L 769.384048 -75.569688 
L 773.000231 -75.569688 
L 776.616413 -75.569688 
L 780.232596 -75.569688 
L 783.848779 -75.569688 
L 787.464961 -75.569688 
L 791.081144 -75.569688 
L 794.697327 -75.569688 
L 798.31351 -75.569688 
L 801.929692 -75.569688 
L 805.545875 -75.569688 
L 809.162058 -75.569688 
L 812.77824 -75.569688 
L 816.394423 -75.569688 
L 820.010606 -75.569688 
L 823.626789 -75.569688 
L 827.242971 -75.569688 
L 830.859154 -75.569688 
L 834.475337 -75.569688 
L 838.091519 -75.569688 
L 841.707702 -75.569688 
L 845.323885 -75.569688 
L 848.940068 -75.569688 
L 852.55625 -75.569688 
L 856.172433 -75.569688 
L 859.788616 -75.569688 
L 863.404799 -75.569688 
L 867.020981 -75.569688 
L 870.637164 -75.569688 
L 874.253347 -75.569688 
L 877.869529 -75.569688 
L 881.485712 -75.569688 
L 885.101895 -75.569688 
L 888.718078 -75.569688 
L 892.33426 -75.569688 
L 895.950443 -75.569688 
L 899.566626 -75.569688 
L 903.182808 -75.569688 
L 906.798991 -75.569688 
L 910.415174 -75.569688 
L 914.031357 -75.569688 
L 917.647539 -75.569688 
L 921.263722 -75.569688 
L 924.879905 -75.569688 
L 928.496087 -75.569688 
L 932.11227 -75.569688 
L 935.728453 -75.569688 
L 939.344636 -75.569688 
L 942.960818 -75.569688 
L 946.577001 -75.569688 
L 950.193184 -75.569688 
L 953.809366 -75.569688 
L 957.425549 -75.569688 
L 961.041732 -75.569688 
L 964.657915 -75.569688 
L 968.274097 -75.569688 
L 971.89028 -75.569688 
L 975.506463 -75.569688 
L 979.122645 -75.569688 
L 982.738828 -75.569688 
L 986.355011 -75.569688 
L 989.971194 -75.569688 
L 993.587376 -75.569688 
L 997.203559 -75.569688 
L 1000.819742 -75.569688 
L 1004.435925 -75.569688 
L 1004.435925 -75.570534 
L 1004.435925 -75.570534 
L 1000.819742 -75.57077 
L 997.203559 -75.571067 
L 993.587376 -75.57144 
L 989.971194 -75.571905 
L 986.355011 -75.572484 
L 982.738828 -75.573201 
L 979.122645 -75.574086 
L 975.506463 -75.575175 
L 971.89028 -75.576509 
L 968.274097 -75.578138 
L 964.657915 -75.58012 
L 961.041732 -75.582522 
L 957.425549 -75.585423 
L 953.809366 -75.588915 
L 950.193184 -75.593104 
L 946.577001 -75.598111 
L 942.960818 -75.604075 
L 939.344636 -75.611157 
L 935.728453 -75.619539 
L 932.11227 -75.629427 
L 928.496087 -75.641056 
L 924.879905 -75.654692 
L 921.263722 -75.670634 
L 917.647539 -75.68922 
L 914.031357 -75.710832 
L 910.415174 -75.735897 
L 906.798991 -75.764898 
L 903.182808 -75.798376 
L 899.566626 -75.836943 
L 895.950443 -75.881288 
L 892.33426 -75.93219 
L 888.718078 -75.99053 
L 885.101895 -76.057309 
L 881.485712 -76.133668 
L 877.869529 -76.220909 
L 874.253347 -76.320523 
L 870.637164 -76.434224 
L 867.020981 -76.563985 
L 863.404799 -76.712088 
L 859.788616 -76.88117 
L 856.172433 -77.074292 
L 852.55625 -77.295002 
L 848.940068 -77.547422 
L 845.323885 -77.836336 
L 841.707702 -78.167295 
L 838.091519 -78.546729 
L 834.475337 -78.982077 
L 830.859154 -79.481922 
L 827.242971 -80.056142 
L 823.626789 -80.716068 
L 820.010606 -81.47465 
L 816.394423 -82.346627 
L 812.77824 -83.348705 
L 809.162058 -84.499721 
L 805.545875 -85.82081 
L 801.929692 -87.335556 
L 798.31351 -89.070121 
L 794.697327 -91.053344 
L 791.081144 -93.316808 
L 787.464961 -95.894859 
L 783.848779 -98.824571 
L 780.232596 -102.145642 
L 776.616413 -105.900219 
L 773.000231 -110.132637 
L 769.384048 -114.889067 
L 765.767865 -120.217062 
L 762.151682 -126.165 
L 758.5355 -132.781417 
L 754.919317 -140.114234 
L 751.303134 -148.209877 
L 747.686952 -157.112298 
L 744.070769 -166.861907 
L 740.454586 -177.494432 
L 736.838403 -189.039716 
L 733.222221 -201.520493 
L 729.606038 -214.951142 
L 725.989855 -229.33648 
L 722.373673 -244.670596 
L 718.75749 -260.93579 
L 715.141307 -278.101627 
L 711.525124 -296.124165 
L 707.908942 -314.945372 
L 704.292759 -334.492781 
L 700.676576 -354.6794 
L 697.060394 -375.403913 
L 693.444211 -396.551171 
L 689.828028 -417.99301 
L 686.211845 -439.589372 
L 682.595663 -461.189739 
L 678.97948 -482.634858 
L 675.363297 -503.758738 
L 671.747114 -524.390878 
L 668.130932 -544.358683 
L 664.514749 -563.490033 
L 660.898566 -581.615934 
L 657.282384 -598.573193 
L 653.666201 -614.207069 
L 650.050018 -628.373817 
L 646.433835 -640.943077 
L 642.817653 -651.800043 
L 639.20147 -660.847365 
L 635.585287 -668.006724 
L 631.969105 -673.220054 
L 628.352922 -676.450385 
L 624.736739 -677.682272 
L 621.120556 -676.921821 
L 617.504374 -674.196305 
L 613.888191 -669.553399 
L 610.272008 -663.060032 
L 606.655826 -654.800932 
L 603.039643 -644.876863 
L 599.42346 -633.402639 
L 595.807277 -620.504943 
L 592.191095 -606.32003 
L 588.574912 -590.991346 
L 584.958729 -574.667147 
L 581.342547 -557.498151 
L 577.726364 -539.635284 
L 574.110181 -521.227558 
L 570.493998 -502.420134 
L 566.877816 -483.352572 
L 563.261633 -464.157331 
L 559.64545 -444.958494 
L 556.029268 -425.870763 
L 552.413085 -406.998694 
L 548.796902 -388.436188 
L 545.180719 -370.266215 
L 541.564537 -352.560757 
L 537.948354 -335.380955 
L 534.332171 -318.777419 
L 530.715988 -302.790698 
L 527.099806 -287.451864 
L 523.483623 -272.783196 
L 519.86744 -258.798929 
L 516.251258 -245.506042 
L 512.635075 -232.905081 
L 509.018892 -220.990962 
L 505.402709 -209.753771 
L 501.786527 -199.179527 
L 498.170344 -189.250899 
L 494.554161 -179.947866 
L 490.937979 -171.248331 
L 487.321796 -163.128651 
L 483.705613 -155.564122 
L 480.08943 -148.529389 
L 476.473248 -141.998794 
L 472.857065 -135.946672 
L 469.240882 -130.347589 
L 465.6247 -125.176531 
L 462.008517 -120.409053 
L 458.392334 -116.021391 
L 454.776151 -111.990539 
L 451.159969 -108.294306 
L 447.543786 -104.911345 
L 443.927603 -101.821174 
L 440.311421 -99.004177 
L 436.695238 -96.441598 
L 433.079055 -94.115538 
L 429.462872 -92.008932 
L 425.84669 -90.105535 
L 422.230507 -88.389908 
L 418.614324 -86.847397 
L 414.998142 -85.464117 
L 411.381959 -84.226933 
L 407.765776 -83.123451 
L 404.149593 -82.141993 
L 400.533411 -81.27159 
L 396.917228 -80.501962 
L 393.301045 -79.823502 
L 389.684862 -79.227263 
L 386.06868 -78.704932 
L 382.452497 -78.24882 
L 378.836314 -77.851832 
L 375.220132 -77.507453 
L 371.603949 -77.209718 
L 367.987766 -76.953187 
L 364.371583 -76.732924 
L 360.755401 -76.544462 
L 357.139218 -76.38378 
L 353.523035 -76.247273 
L 349.906853 -76.131722 
L 346.29067 -76.034265 
L 342.674487 -75.952371 
L 339.058304 -75.883807 
L 335.442122 -75.826619 
L 331.825939 -75.779095 
L 328.209756 -75.739753 
L 324.593574 -75.707306 
L 320.977391 -75.680648 
L 317.361208 -75.658829 
L 313.745025 -75.641039 
L 310.128843 -75.626591 
L 306.51266 -75.614902 
L 302.896477 -75.605481 
L 299.280295 -75.597918 
L 295.664112 -75.591871 
L 292.047929 -75.587054 
L 288.431746 -75.583232 
L 284.815564 -75.580211 
z
" style="stroke: #009988; stroke-width: 5"/>
    </defs>
    <g clip-path="url(#pc603998acb)">
     <use xlink:href="#me8bbc50b99" x="0" y="843.809687" style="fill: #009988; fill-opacity: 0.1; stroke: #009988; stroke-width: 5"/>
    </g>
   </g>
   <g id="PolyCollection_3">
    <defs>
     <path id="m53b4952b05" d="M 278.079316 -75.594322 
L 278.079316 -75.569688 
L 281.632803 -75.569688 
L 285.186291 -75.569688 
L 288.739778 -75.569688 
L 292.293265 -75.569688 
L 295.846752 -75.569688 
L 299.400239 -75.569688 
L 302.953726 -75.569688 
L 306.507213 -75.569688 
L 310.0607 -75.569688 
L 313.614187 -75.569688 
L 317.167674 -75.569688 
L 320.721161 -75.569688 
L 324.274648 -75.569688 
L 327.828135 -75.569688 
L 331.381622 -75.569688 
L 334.935109 -75.569688 
L 338.488596 -75.569688 
L 342.042083 -75.569688 
L 345.59557 -75.569688 
L 349.149057 -75.569688 
L 352.702544 -75.569688 
L 356.256032 -75.569688 
L 359.809519 -75.569688 
L 363.363006 -75.569688 
L 366.916493 -75.569688 
L 370.46998 -75.569688 
L 374.023467 -75.569688 
L 377.576954 -75.569688 
L 381.130441 -75.569688 
L 384.683928 -75.569688 
L 388.237415 -75.569688 
L 391.790902 -75.569688 
L 395.344389 -75.569688 
L 398.897876 -75.569688 
L 402.451363 -75.569688 
L 406.00485 -75.569688 
L 409.558337 -75.569688 
L 413.111824 -75.569688 
L 416.665311 -75.569688 
L 420.218798 -75.569688 
L 423.772285 -75.569688 
L 427.325773 -75.569688 
L 430.87926 -75.569688 
L 434.432747 -75.569688 
L 437.986234 -75.569688 
L 441.539721 -75.569688 
L 445.093208 -75.569688 
L 448.646695 -75.569688 
L 452.200182 -75.569688 
L 455.753669 -75.569688 
L 459.307156 -75.569688 
L 462.860643 -75.569688 
L 466.41413 -75.569688 
L 469.967617 -75.569688 
L 473.521104 -75.569688 
L 477.074591 -75.569688 
L 480.628078 -75.569688 
L 484.181565 -75.569688 
L 487.735052 -75.569688 
L 491.288539 -75.569688 
L 494.842026 -75.569688 
L 498.395514 -75.569688 
L 501.949001 -75.569688 
L 505.502488 -75.569688 
L 509.055975 -75.569688 
L 512.609462 -75.569688 
L 516.162949 -75.569688 
L 519.716436 -75.569688 
L 523.269923 -75.569688 
L 526.82341 -75.569688 
L 530.376897 -75.569688 
L 533.930384 -75.569688 
L 537.483871 -75.569688 
L 541.037358 -75.569688 
L 544.590845 -75.569688 
L 548.144332 -75.569688 
L 551.697819 -75.569688 
L 555.251306 -75.569688 
L 558.804793 -75.569688 
L 562.35828 -75.569688 
L 565.911767 -75.569688 
L 569.465255 -75.569688 
L 573.018742 -75.569688 
L 576.572229 -75.569688 
L 580.125716 -75.569688 
L 583.679203 -75.569688 
L 587.23269 -75.569688 
L 590.786177 -75.569688 
L 594.339664 -75.569688 
L 597.893151 -75.569688 
L 601.446638 -75.569688 
L 605.000125 -75.569688 
L 608.553612 -75.569688 
L 612.107099 -75.569688 
L 615.660586 -75.569688 
L 619.214073 -75.569688 
L 622.76756 -75.569688 
L 626.321047 -75.569688 
L 629.874534 -75.569688 
L 633.428021 -75.569688 
L 636.981508 -75.569688 
L 640.534996 -75.569688 
L 644.088483 -75.569688 
L 647.64197 -75.569688 
L 651.195457 -75.569688 
L 654.748944 -75.569688 
L 658.302431 -75.569688 
L 661.855918 -75.569688 
L 665.409405 -75.569688 
L 668.962892 -75.569688 
L 672.516379 -75.569688 
L 676.069866 -75.569688 
L 679.623353 -75.569688 
L 683.17684 -75.569688 
L 686.730327 -75.569688 
L 690.283814 -75.569688 
L 693.837301 -75.569688 
L 697.390788 -75.569688 
L 700.944275 -75.569688 
L 704.497762 -75.569688 
L 708.051249 -75.569688 
L 711.604737 -75.569688 
L 715.158224 -75.569688 
L 718.711711 -75.569688 
L 722.265198 -75.569688 
L 725.818685 -75.569688 
L 729.372172 -75.569688 
L 732.925659 -75.569688 
L 736.479146 -75.569688 
L 740.032633 -75.569688 
L 743.58612 -75.569688 
L 747.139607 -75.569688 
L 750.693094 -75.569688 
L 754.246581 -75.569688 
L 757.800068 -75.569688 
L 761.353555 -75.569688 
L 764.907042 -75.569688 
L 768.460529 -75.569688 
L 772.014016 -75.569688 
L 775.567503 -75.569688 
L 779.120991 -75.569688 
L 782.674478 -75.569688 
L 786.227965 -75.569688 
L 789.781452 -75.569688 
L 793.334939 -75.569688 
L 796.888426 -75.569688 
L 800.441913 -75.569688 
L 803.9954 -75.569688 
L 807.548887 -75.569688 
L 811.102374 -75.569688 
L 814.655861 -75.569688 
L 818.209348 -75.569688 
L 821.762835 -75.569688 
L 825.316322 -75.569688 
L 828.869809 -75.569688 
L 832.423296 -75.569688 
L 835.976783 -75.569688 
L 839.53027 -75.569688 
L 843.083757 -75.569688 
L 846.637244 -75.569688 
L 850.190732 -75.569688 
L 853.744219 -75.569688 
L 857.297706 -75.569688 
L 860.851193 -75.569688 
L 864.40468 -75.569688 
L 867.958167 -75.569688 
L 871.511654 -75.569688 
L 875.065141 -75.569688 
L 878.618628 -75.569688 
L 882.172115 -75.569688 
L 885.725602 -75.569688 
L 889.279089 -75.569688 
L 892.832576 -75.569688 
L 896.386063 -75.569688 
L 899.93955 -75.569688 
L 903.493037 -75.569688 
L 907.046524 -75.569688 
L 910.600011 -75.569688 
L 914.153498 -75.569688 
L 917.706985 -75.569688 
L 921.260473 -75.569688 
L 924.81396 -75.569688 
L 928.367447 -75.569688 
L 931.920934 -75.569688 
L 935.474421 -75.569688 
L 939.027908 -75.569688 
L 942.581395 -75.569688 
L 946.134882 -75.569688 
L 949.688369 -75.569688 
L 953.241856 -75.569688 
L 956.795343 -75.569688 
L 960.34883 -75.569688 
L 963.902317 -75.569688 
L 967.455804 -75.569688 
L 971.009291 -75.569688 
L 974.562778 -75.569688 
L 978.116265 -75.569688 
L 981.669752 -75.569688 
L 985.223239 -75.569688 
L 985.223239 -75.571049 
L 985.223239 -75.571049 
L 981.669752 -75.571392 
L 978.116265 -75.571814 
L 974.562778 -75.572333 
L 971.009291 -75.572969 
L 967.455804 -75.573746 
L 963.902317 -75.574691 
L 960.34883 -75.575839 
L 956.795343 -75.577229 
L 953.241856 -75.578906 
L 949.688369 -75.580926 
L 946.134882 -75.583352 
L 942.581395 -75.586258 
L 939.027908 -75.589731 
L 935.474421 -75.593873 
L 931.920934 -75.5988 
L 928.367447 -75.604651 
L 924.81396 -75.611586 
L 921.260473 -75.61979 
L 917.706985 -75.629481 
L 914.153498 -75.64091 
L 910.600011 -75.654373 
L 907.046524 -75.670212 
L 903.493037 -75.688828 
L 899.93955 -75.71069 
L 896.386063 -75.736344 
L 892.832576 -75.766431 
L 889.279089 -75.801701 
L 885.725602 -75.843035 
L 882.172115 -75.891463 
L 878.618628 -75.948196 
L 875.065141 -76.01465 
L 871.511654 -76.092491 
L 867.958167 -76.183667 
L 864.40468 -76.29046 
L 860.851193 -76.415541 
L 857.297706 -76.562024 
L 853.744219 -76.733543 
L 850.190732 -76.934322 
L 846.637244 -77.169264 
L 843.083757 -77.44404 
L 839.53027 -77.765195 
L 835.976783 -78.140253 
L 832.423296 -78.577838 
L 828.869809 -79.087793 
L 825.316322 -79.681313 
L 821.762835 -80.37107 
L 818.209348 -81.171351 
L 814.655861 -82.098182 
L 811.102374 -83.169455 
L 807.548887 -84.40504 
L 803.9954 -85.826886 
L 800.441913 -87.459095 
L 796.888426 -89.32798 
L 793.334939 -91.462084 
L 789.781452 -93.892165 
L 786.227965 -96.65113 
L 782.674478 -99.773922 
L 779.120991 -103.297353 
L 775.567503 -107.259859 
L 772.014016 -111.701203 
L 768.460529 -116.662088 
L 764.907042 -122.183709 
L 761.353555 -128.307214 
L 757.800068 -135.073097 
L 754.246581 -142.520509 
L 750.693094 -150.68651 
L 747.139607 -159.605243 
L 743.58612 -169.307077 
L 740.032633 -179.817692 
L 736.479146 -191.157151 
L 732.925659 -203.338969 
L 729.372172 -216.369188 
L 725.818685 -230.245496 
L 722.265198 -244.956408 
L 718.711711 -260.480524 
L 715.158224 -276.785907 
L 711.604737 -293.829584 
L 708.051249 -311.557212 
L 704.497762 -329.902916 
L 700.944275 -348.789323 
L 697.390788 -368.127806 
L 693.837301 -387.818944 
L 690.283814 -407.753204 
L 686.730327 -427.811857 
L 683.17684 -447.868095 
L 679.623353 -467.788364 
L 676.069866 -487.433881 
L 672.516379 -506.662312 
L 668.962892 -525.329589 
L 665.409405 -543.291827 
L 661.855918 -560.407303 
L 658.302431 -576.53846 
L 654.748944 -591.553898 
L 651.195457 -605.330302 
L 647.64197 -617.754266 
L 644.088483 -628.723979 
L 640.534996 -638.150734 
L 636.981508 -645.960219 
L 633.428021 -652.093571 
L 629.874534 -656.508171 
L 626.321047 -659.178157 
L 622.76756 -660.094649 
L 619.214073 -659.265688 
L 615.660586 -656.715893 
L 612.107099 -652.485837 
L 608.553612 -646.631184 
L 605.000125 -639.221583 
L 601.446638 -630.339372 
L 597.893151 -620.078105 
L 594.339664 -608.540956 
L 590.786177 -595.839024 
L 587.23269 -582.089579 
L 583.679203 -567.4143 
L 580.125716 -551.937517 
L 576.572229 -535.784515 
L 573.018742 -519.079918 
L 569.465255 -501.946178 
L 565.911767 -484.502209 
L 562.35828 -466.862155 
L 558.804793 -449.134334 
L 555.251306 -431.42035 
L 551.697819 -413.81438 
L 548.144332 -396.402639 
L 544.590845 -379.263013 
L 541.037358 -362.46486 
L 537.483871 -346.068951 
L 533.930384 -330.127561 
L 530.376897 -314.684676 
L 526.82341 -299.776307 
L 523.269923 -285.430886 
L 519.716436 -271.669749 
L 516.162949 -258.50765 
L 512.609462 -245.953333 
L 509.055975 -234.010112 
L 505.502488 -222.676465 
L 501.949001 -211.946625 
L 498.395514 -201.811155 
L 494.842026 -192.257496 
L 491.288539 -183.27049 
L 487.735052 -174.832865 
L 484.181565 -166.92568 
L 480.628078 -159.528728 
L 477.074591 -152.6209 
L 473.521104 -146.180499 
L 469.967617 -140.18552 
L 466.41413 -134.613885 
L 462.860643 -129.443645 
L 459.307156 -124.653143 
L 455.753669 -120.221154 
L 452.200182 -116.126984 
L 448.646695 -112.350559 
L 445.093208 -108.872484 
L 441.539721 -105.674088 
L 437.986234 -102.737447 
L 434.432747 -100.045405 
L 430.87926 -97.581581 
L 427.325773 -95.33036 
L 423.772285 -93.27689 
L 420.218798 -91.407067 
L 416.665311 -89.70752 
L 413.111824 -88.16559 
L 409.558337 -86.769312 
L 406.00485 -85.507391 
L 402.451363 -84.369185 
L 398.897876 -83.344676 
L 395.344389 -82.424456 
L 391.790902 -81.599701 
L 388.237415 -80.862147 
L 384.683928 -80.204076 
L 381.130441 -79.618288 
L 377.576954 -79.098083 
L 374.023467 -78.637241 
L 370.46998 -78.229999 
L 366.916493 -77.871032 
L 363.363006 -77.555431 
L 359.809519 -77.278683 
L 356.256032 -77.036651 
L 352.702544 -76.825553 
L 349.149057 -76.641941 
L 345.59557 -76.48268 
L 342.042083 -76.344931 
L 338.488596 -76.22613 
L 334.935109 -76.123968 
L 331.381622 -76.03637 
L 327.828135 -75.961485 
L 324.274648 -75.89766 
L 320.721161 -75.843425 
L 317.167674 -75.797481 
L 313.614187 -75.758681 
L 310.0607 -75.726017 
L 306.507213 -75.698604 
L 302.953726 -75.675672 
L 299.400239 -75.65655 
L 295.846752 -75.640656 
L 292.293265 -75.627488 
L 288.739778 -75.616614 
L 285.186291 -75.607665 
L 281.632803 -75.600324 
L 278.079316 -75.594322 
z
" style="stroke: #bbcc33; stroke-width: 5"/>
    </defs>
    <g clip-path="url(#pc603998acb)">
     <use xlink:href="#m53b4952b05" x="0" y="843.809687" style="fill: #bbcc33; fill-opacity: 0.1; stroke: #bbcc33; stroke-width: 5"/>
    </g>
   </g>
   <g id="PolyCollection_4">
    <defs>
     <path id="m820081cf0d" d="M 331.166057 -75.587754 
L 331.166057 -75.569688 
L 334.493159 -75.569688 
L 337.820261 -75.569688 
L 341.147363 -75.569688 
L 344.474465 -75.569688 
L 347.801567 -75.569688 
L 351.128669 -75.569688 
L 354.455771 -75.569688 
L 357.782873 -75.569688 
L 361.109975 -75.569688 
L 364.437077 -75.569688 
L 367.764179 -75.569688 
L 371.091281 -75.569688 
L 374.418383 -75.569688 
L 377.745485 -75.569688 
L 381.072587 -75.569688 
L 384.399689 -75.569688 
L 387.726791 -75.569688 
L 391.053893 -75.569688 
L 394.380995 -75.569688 
L 397.708097 -75.569688 
L 401.035199 -75.569688 
L 404.362301 -75.569688 
L 407.689403 -75.569688 
L 411.016505 -75.569688 
L 414.343607 -75.569688 
L 417.670709 -75.569688 
L 420.997811 -75.569688 
L 424.324913 -75.569688 
L 427.652015 -75.569688 
L 430.979117 -75.569688 
L 434.306219 -75.569688 
L 437.633321 -75.569688 
L 440.960423 -75.569688 
L 444.287525 -75.569688 
L 447.614627 -75.569688 
L 450.941729 -75.569688 
L 454.268831 -75.569688 
L 457.595933 -75.569688 
L 460.923035 -75.569688 
L 464.250137 -75.569688 
L 467.577239 -75.569688 
L 470.904341 -75.569688 
L 474.231443 -75.569688 
L 477.558545 -75.569688 
L 480.885647 -75.569688 
L 484.212749 -75.569688 
L 487.539851 -75.569688 
L 490.866953 -75.569688 
L 494.194055 -75.569688 
L 497.521157 -75.569688 
L 500.848259 -75.569688 
L 504.175361 -75.569688 
L 507.502463 -75.569688 
L 510.829565 -75.569688 
L 514.156667 -75.569688 
L 517.483769 -75.569688 
L 520.810871 -75.569688 
L 524.137973 -75.569688 
L 527.465075 -75.569688 
L 530.792177 -75.569688 
L 534.119279 -75.569688 
L 537.446381 -75.569688 
L 540.773483 -75.569688 
L 544.100585 -75.569688 
L 547.427687 -75.569688 
L 550.754789 -75.569688 
L 554.081891 -75.569688 
L 557.408993 -75.569688 
L 560.736095 -75.569688 
L 564.063197 -75.569688 
L 567.390299 -75.569688 
L 570.717401 -75.569688 
L 574.044503 -75.569688 
L 577.371605 -75.569688 
L 580.698707 -75.569688 
L 584.025809 -75.569688 
L 587.352911 -75.569688 
L 590.680013 -75.569688 
L 594.007115 -75.569688 
L 597.334217 -75.569688 
L 600.661319 -75.569688 
L 603.988421 -75.569688 
L 607.315523 -75.569688 
L 610.642625 -75.569688 
L 613.969727 -75.569688 
L 617.296829 -75.569688 
L 620.623931 -75.569688 
L 623.951033 -75.569688 
L 627.278135 -75.569688 
L 630.605237 -75.569688 
L 633.932339 -75.569688 
L 637.259441 -75.569688 
L 640.586543 -75.569688 
L 643.913645 -75.569688 
L 647.240747 -75.569688 
L 650.567849 -75.569688 
L 653.894951 -75.569688 
L 657.222053 -75.569688 
L 660.549155 -75.569688 
L 663.876257 -75.569688 
L 667.203359 -75.569688 
L 670.530461 -75.569688 
L 673.857563 -75.569688 
L 677.184665 -75.569688 
L 680.511767 -75.569688 
L 683.838869 -75.569688 
L 687.165971 -75.569688 
L 690.493073 -75.569688 
L 693.820175 -75.569688 
L 697.147277 -75.569688 
L 700.474379 -75.569688 
L 703.801481 -75.569688 
L 707.128583 -75.569688 
L 710.455685 -75.569688 
L 713.782787 -75.569688 
L 717.109889 -75.569688 
L 720.436991 -75.569688 
L 723.764093 -75.569688 
L 727.091195 -75.569688 
L 730.418297 -75.569688 
L 733.745399 -75.569688 
L 737.072501 -75.569688 
L 740.399603 -75.569688 
L 743.726705 -75.569688 
L 747.053807 -75.569688 
L 750.380909 -75.569688 
L 753.708011 -75.569688 
L 757.035113 -75.569688 
L 760.362215 -75.569688 
L 763.689317 -75.569688 
L 767.016419 -75.569688 
L 770.343521 -75.569688 
L 773.670623 -75.569688 
L 776.997725 -75.569688 
L 780.324827 -75.569688 
L 783.651929 -75.569688 
L 786.979031 -75.569688 
L 790.306133 -75.569688 
L 793.633235 -75.569688 
L 796.960337 -75.569688 
L 800.287439 -75.569688 
L 803.614541 -75.569688 
L 806.941643 -75.569688 
L 810.268745 -75.569688 
L 813.595847 -75.569688 
L 816.922949 -75.569688 
L 820.250051 -75.569688 
L 823.577153 -75.569688 
L 826.904255 -75.569688 
L 830.231357 -75.569688 
L 833.558459 -75.569688 
L 836.885561 -75.569688 
L 840.212663 -75.569688 
L 843.539765 -75.569688 
L 846.866867 -75.569688 
L 850.193969 -75.569688 
L 853.521071 -75.569688 
L 856.848173 -75.569688 
L 860.175275 -75.569688 
L 863.502377 -75.569688 
L 866.829479 -75.569688 
L 870.156581 -75.569688 
L 873.483683 -75.569688 
L 876.810785 -75.569688 
L 880.137887 -75.569688 
L 883.464989 -75.569688 
L 886.792091 -75.569688 
L 890.119193 -75.569688 
L 893.446295 -75.569688 
L 896.773397 -75.569688 
L 900.100499 -75.569688 
L 903.427601 -75.569688 
L 906.754703 -75.569688 
L 910.081805 -75.569688 
L 913.408907 -75.569688 
L 916.736009 -75.569688 
L 920.063111 -75.569688 
L 923.390213 -75.569688 
L 926.717315 -75.569688 
L 930.044417 -75.569688 
L 933.371519 -75.569688 
L 936.698621 -75.569688 
L 940.025723 -75.569688 
L 943.352825 -75.569688 
L 946.679927 -75.569688 
L 950.007029 -75.569688 
L 953.334131 -75.569688 
L 956.661233 -75.569688 
L 959.988335 -75.569688 
L 963.315437 -75.569688 
L 966.642539 -75.569688 
L 969.969641 -75.569688 
L 973.296743 -75.569688 
L 976.623845 -75.569688 
L 979.950947 -75.569688 
L 983.278049 -75.569688 
L 986.605151 -75.569688 
L 989.932253 -75.569688 
L 993.259355 -75.569688 
L 993.259355 -75.570077 
L 993.259355 -75.570077 
L 989.932253 -75.570218 
L 986.605151 -75.570407 
L 983.278049 -75.570659 
L 979.950947 -75.570992 
L 976.623845 -75.57143 
L 973.296743 -75.572004 
L 969.969641 -75.572753 
L 966.642539 -75.573725 
L 963.315437 -75.57498 
L 959.988335 -75.576594 
L 956.661233 -75.578659 
L 953.334131 -75.581291 
L 950.007029 -75.584629 
L 946.679927 -75.588846 
L 943.352825 -75.594149 
L 940.025723 -75.600788 
L 936.698621 -75.609067 
L 933.371519 -75.619344 
L 930.044417 -75.632049 
L 926.717315 -75.647687 
L 923.390213 -75.666855 
L 920.063111 -75.690249 
L 916.736009 -75.718679 
L 913.408907 -75.75308 
L 910.081805 -75.79453 
L 906.754703 -75.844255 
L 903.427601 -75.903651 
L 900.100499 -75.974291 
L 896.773397 -76.057938 
L 893.446295 -76.156555 
L 890.119193 -76.272315 
L 886.792091 -76.407606 
L 883.464989 -76.565035 
L 880.137887 -76.747432 
L 876.810785 -76.957845 
L 873.483683 -77.19954 
L 870.156581 -77.475993 
L 866.829479 -77.790883 
L 863.502377 -78.148079 
L 860.175275 -78.551634 
L 856.848173 -79.005772 
L 853.521071 -79.514878 
L 850.193969 -80.083497 
L 846.866867 -80.716333 
L 843.539765 -81.41825 
L 840.212663 -82.194297 
L 836.885561 -83.049728 
L 833.558459 -83.990046 
L 830.231357 -85.021057 
L 826.904255 -86.148951 
L 823.577153 -87.38039 
L 820.250051 -88.722631 
L 816.922949 -90.183667 
L 813.595847 -91.772396 
L 810.268745 -93.498817 
L 806.941643 -95.374251 
L 803.614541 -97.411594 
L 800.287439 -99.625597 
L 796.960337 -102.033165 
L 793.633235 -104.653689 
L 790.306133 -107.509385 
L 786.979031 -110.625657 
L 783.651929 -114.03145 
L 780.324827 -117.759606 
L 776.997725 -121.847196 
L 773.670623 -126.33581 
L 770.343521 -131.271795 
L 767.016419 -136.706406 
L 763.689317 -142.695846 
L 760.362215 -149.301172 
L 757.035113 -156.588022 
L 753.708011 -164.626141 
L 750.380909 -173.48866 
L 747.053807 -183.251113 
L 743.726705 -193.990146 
L 740.399603 -205.781911 
L 737.072501 -218.700129 
L 733.745399 -232.813824 
L 730.418297 -248.184742 
L 727.091195 -264.8645 
L 723.764093 -282.891503 
L 720.436991 -302.287723 
L 717.109889 -323.055417 
L 713.782787 -345.173923 
L 710.455685 -368.596641 
L 707.128583 -393.248368 
L 703.801481 -419.023126 
L 700.474379 -445.782649 
L 697.147277 -473.355658 
L 693.820175 -501.538075 
L 690.493073 -530.094266 
L 687.165971 -558.759382 
L 683.838869 -587.242839 
L 680.511767 -615.232905 
L 677.184665 -642.402334 
L 673.857563 -668.414909 
L 670.530461 -692.932735 
L 667.203359 -715.624059 
L 663.876257 -736.171343 
L 660.549155 -754.27933 
L 657.222053 -769.68279 
L 653.894951 -782.153644 
L 650.567849 -791.507198 
L 647.240747 -797.607224 
L 643.913645 -800.369687 
L 640.586543 -799.764964 
L 637.259441 -795.818459 
L 633.932339 -788.609614 
L 630.605237 -778.269343 
L 627.278135 -764.976014 
L 623.951033 -748.950165 
L 620.623931 -730.448153 
L 617.296829 -709.755024 
L 613.969727 -687.176875 
L 610.642625 -663.032997 
L 607.315523 -637.648102 
L 603.988421 -611.344884 
L 600.661319 -584.437155 
L 597.334217 -557.223754 
L 594.007115 -529.983372 
L 590.680013 -502.970391 
L 587.352911 -476.411789 
L 584.025809 -450.505102 
L 580.698707 -425.417412 
L 577.371605 -401.285271 
L 574.044503 -378.215459 
L 570.717401 -356.286444 
L 567.390299 -335.550415 
L 564.063197 -316.03573 
L 560.736095 -297.749652 
L 557.408993 -280.681237 
L 554.081891 -264.804258 
L 550.754789 -250.080067 
L 547.427687 -236.460317 
L 544.100585 -223.889469 
L 540.773483 -212.307064 
L 537.446381 -201.64971 
L 534.119279 -191.852789 
L 530.792177 -182.851882 
L 527.465075 -174.583917 
L 524.137973 -166.988075 
L 520.810871 -160.006456 
L 517.483769 -153.584558 
L 514.156667 -147.671579 
L 510.829565 -142.220573 
L 507.502463 -137.188501 
L 504.175361 -132.536177 
L 500.848259 -128.228151 
L 497.521157 -124.232545 
L 494.194055 -120.520841 
L 490.866953 -117.067657 
L 487.539851 -113.850501 
L 484.212749 -110.849528 
L 480.885647 -108.047292 
L 477.558545 -105.4285 
L 474.231443 -102.979782 
L 470.904341 -100.689463 
L 467.577239 -98.54735 
L 464.250137 -96.544531 
L 460.923035 -94.673186 
L 457.595933 -92.92641 
L 454.268831 -91.298053 
L 450.941729 -89.782576 
L 447.614627 -88.374914 
L 444.287525 -87.070361 
L 440.960423 -85.864468 
L 437.633321 -84.752959 
L 434.306219 -83.731656 
L 430.979117 -82.796423 
L 427.652015 -81.943131 
L 424.324913 -81.167622 
L 420.997811 -80.465697 
L 417.670709 -79.833115 
L 414.343607 -79.265596 
L 411.016505 -78.758838 
L 407.689403 -78.308536 
L 404.362301 -77.910413 
L 401.035199 -77.560243 
L 397.708097 -77.253887 
L 394.380995 -76.987322 
L 391.053893 -76.756672 
L 387.726791 -76.558229 
L 384.399689 -76.388485 
L 381.072587 -76.244143 
L 377.745485 -76.122133 
L 374.418383 -76.019626 
L 371.091281 -75.934032 
L 367.764179 -75.863004 
L 364.437077 -75.804434 
L 361.109975 -75.756442 
L 357.782873 -75.717369 
L 354.455771 -75.685763 
L 351.128669 -75.660363 
L 347.801567 -75.640085 
L 344.474465 -75.624002 
L 341.147363 -75.611331 
L 337.820261 -75.601414 
L 334.493159 -75.593706 
L 331.166057 -75.587754 
z
" style="stroke: #cc3311; stroke-width: 5"/>
    </defs>
    <g clip-path="url(#pc603998acb)">
     <use xlink:href="#m820081cf0d" x="0" y="843.809687" style="fill: #cc3311; fill-opacity: 0.1; stroke: #cc3311; stroke-width: 5"/>
    </g>
   </g>
   <g id="patch_3">
    <path d="M 103.482813 768.24 
L 103.482813 7.2 
" style="fill: none; stroke: #cccccc; stroke-width: 1.875; stroke-linejoin: miter; stroke-linecap: square"/>
   </g>
   <g id="patch_4">
    <path d="M 1219.482812 768.24 
L 1219.482812 7.2 
" style="fill: none; stroke: #cccccc; stroke-width: 1.875; stroke-linejoin: miter; stroke-linecap: square"/>
   </g>
   <g id="patch_5">
    <path d="M 103.482813 768.24 
L 1219.482812 768.24 
" style="fill: none; stroke: #cccccc; stroke-width: 1.875; stroke-linejoin: miter; stroke-linecap: square"/>
   </g>
   <g id="patch_6">
    <path d="M 103.482813 7.2 
L 1219.482812 7.2 
" style="fill: none; stroke: #cccccc; stroke-width: 1.875; stroke-linejoin: miter; stroke-linecap: square"/>
   </g>
   <g id="legend_1">
    <g id="patch_7">
     <path d="M 937.017187 226.77625 
L 1195.682812 226.77625 
Q 1202.482812 226.77625 1202.482812 219.97625 
L 1202.482812 31 
Q 1202.482812 24.2 1195.682812 24.2 
L 937.017187 24.2 
Q 930.217188 24.2 930.217188 31 
L 930.217188 219.97625 
Q 930.217188 226.77625 937.017187 226.77625 
z
" style="fill: #ffffff; opacity: 0.8; stroke: #cccccc; stroke-width: 1.5; stroke-linejoin: miter"/>
    </g>
    <g id="patch_8">
     <path d="M 943.817188 62.136562 
L 1011.817188 62.136562 
L 1011.817188 38.336562 
L 943.817188 38.336562 
z
" style="fill: #f4a582; fill-opacity: 0.1; stroke: #f4a582; stroke-width: 5; stroke-linejoin: miter"/>
    </g>
    <g id="text_20">
     <!-- Ridehail -->
     <g style="fill: #262626" transform="translate(1039.017188 62.136562)scale(0.34 -0.34)">
      <defs>
       <path id="ArialMT-52" d="M 503 0 
L 503 4581 
L 2534 4581 
Q 3147 4581 3465 4457 
Q 3784 4334 3975 4021 
Q 4166 3709 4166 3331 
Q 4166 2844 3850 2509 
Q 3534 2175 2875 2084 
Q 3116 1969 3241 1856 
Q 3506 1613 3744 1247 
L 4541 0 
L 3778 0 
L 3172 953 
Q 2906 1366 2734 1584 
Q 2563 1803 2427 1890 
Q 2291 1978 2150 2013 
Q 2047 2034 1813 2034 
L 1109 2034 
L 1109 0 
L 503 0 
z
M 1109 2559 
L 2413 2559 
Q 2828 2559 3062 2645 
Q 3297 2731 3419 2920 
Q 3541 3109 3541 3331 
Q 3541 3656 3305 3865 
Q 3069 4075 2559 4075 
L 1109 4075 
L 1109 2559 
z
" transform="scale(0.015625)"/>
       <path id="ArialMT-64" d="M 2575 0 
L 2575 419 
Q 2259 -75 1647 -75 
Q 1250 -75 917 144 
Q 584 363 401 755 
Q 219 1147 219 1656 
Q 219 2153 384 2558 
Q 550 2963 881 3178 
Q 1213 3394 1622 3394 
Q 1922 3394 2156 3267 
Q 2391 3141 2538 2938 
L 2538 4581 
L 3097 4581 
L 3097 0 
L 2575 0 
z
M 797 1656 
Q 797 1019 1065 703 
Q 1334 388 1700 388 
Q 2069 388 2326 689 
Q 2584 991 2584 1609 
Q 2584 2291 2321 2609 
Q 2059 2928 1675 2928 
Q 1300 2928 1048 2622 
Q 797 2316 797 1656 
z
" transform="scale(0.015625)"/>
       <path id="ArialMT-68" d="M 422 0 
L 422 4581 
L 984 4581 
L 984 2938 
Q 1378 3394 1978 3394 
Q 2347 3394 2619 3248 
Q 2891 3103 3008 2847 
Q 3125 2591 3125 2103 
L 3125 0 
L 2563 0 
L 2563 2103 
Q 2563 2525 2380 2717 
Q 2197 2909 1863 2909 
Q 1613 2909 1392 2779 
Q 1172 2650 1078 2428 
Q 984 2206 984 1816 
L 984 0 
L 422 0 
z
" transform="scale(0.015625)"/>
      </defs>
      <use xlink:href="#ArialMT-52"/>
      <use xlink:href="#ArialMT-69" x="72.216797"/>
      <use xlink:href="#ArialMT-64" x="94.433594"/>
      <use xlink:href="#ArialMT-65" x="150.048828"/>
      <use xlink:href="#ArialMT-68" x="205.664062"/>
      <use xlink:href="#ArialMT-61" x="261.279297"/>
      <use xlink:href="#ArialMT-69" x="316.894531"/>
      <use xlink:href="#ArialMT-6c" x="339.111328"/>
     </g>
    </g>
    <g id="patch_9">
     <path d="M 943.817188 110.230625 
L 1011.817188 110.230625 
L 1011.817188 86.430625 
L 943.817188 86.430625 
z
" style="fill: #009988; fill-opacity: 0.1; stroke: #009988; stroke-width: 5; stroke-linejoin: miter"/>
    </g>
    <g id="text_21">
     <!-- Transit -->
     <g style="fill: #262626" transform="translate(1039.017188 110.230625)scale(0.34 -0.34)">
      <defs>
       <path id="ArialMT-54" d="M 1659 0 
L 1659 4041 
L 150 4041 
L 150 4581 
L 3781 4581 
L 3781 4041 
L 2266 4041 
L 2266 0 
L 1659 0 
z
" transform="scale(0.015625)"/>
       <path id="ArialMT-72" d="M 416 0 
L 416 3319 
L 922 3319 
L 922 2816 
Q 1116 3169 1280 3281 
Q 1444 3394 1641 3394 
Q 1925 3394 2219 3213 
L 2025 2691 
Q 1819 2813 1613 2813 
Q 1428 2813 1281 2702 
Q 1134 2591 1072 2394 
Q 978 2094 978 1738 
L 978 0 
L 416 0 
z
" transform="scale(0.015625)"/>
      </defs>
      <use xlink:href="#ArialMT-54"/>
      <use xlink:href="#ArialMT-72" x="57.333984"/>
      <use xlink:href="#ArialMT-61" x="90.634766"/>
      <use xlink:href="#ArialMT-6e" x="146.25"/>
      <use xlink:href="#ArialMT-73" x="201.865234"/>
      <use xlink:href="#ArialMT-69" x="251.865234"/>
      <use xlink:href="#ArialMT-74" x="274.082031"/>
     </g>
    </g>
    <g id="patch_10">
     <path d="M 943.817188 158.324687 
L 1011.817188 158.324687 
L 1011.817188 134.524687 
L 943.817188 134.524687 
z
" style="fill: #bbcc33; fill-opacity: 0.1; stroke: #bbcc33; stroke-width: 5; stroke-linejoin: miter"/>
    </g>
    <g id="text_22">
     <!-- Walk/Bike -->
     <g style="fill: #262626" transform="translate(1039.017188 158.324687)scale(0.34 -0.34)">
      <defs>
       <path id="ArialMT-57" d="M 1294 0 
L 78 4581 
L 700 4581 
L 1397 1578 
Q 1509 1106 1591 641 
Q 1766 1375 1797 1488 
L 2669 4581 
L 3400 4581 
L 4056 2263 
Q 4303 1400 4413 641 
Q 4500 1075 4641 1638 
L 5359 4581 
L 5969 4581 
L 4713 0 
L 4128 0 
L 3163 3491 
Q 3041 3928 3019 4028 
Q 2947 3713 2884 3491 
L 1913 0 
L 1294 0 
z
" transform="scale(0.015625)"/>
       <path id="ArialMT-6b" d="M 425 0 
L 425 4581 
L 988 4581 
L 988 1969 
L 2319 3319 
L 3047 3319 
L 1778 2088 
L 3175 0 
L 2481 0 
L 1384 1697 
L 988 1316 
L 988 0 
L 425 0 
z
" transform="scale(0.015625)"/>
       <path id="ArialMT-2f" d="M 0 -78 
L 1328 4659 
L 1778 4659 
L 453 -78 
L 0 -78 
z
" transform="scale(0.015625)"/>
       <path id="ArialMT-42" d="M 469 0 
L 469 4581 
L 2188 4581 
Q 2713 4581 3030 4442 
Q 3347 4303 3526 4014 
Q 3706 3725 3706 3409 
Q 3706 3116 3547 2856 
Q 3388 2597 3066 2438 
Q 3481 2316 3704 2022 
Q 3928 1728 3928 1328 
Q 3928 1006 3792 729 
Q 3656 453 3456 303 
Q 3256 153 2954 76 
Q 2653 0 2216 0 
L 469 0 
z
M 1075 2656 
L 2066 2656 
Q 2469 2656 2644 2709 
Q 2875 2778 2992 2937 
Q 3109 3097 3109 3338 
Q 3109 3566 3000 3739 
Q 2891 3913 2687 3977 
Q 2484 4041 1991 4041 
L 1075 4041 
L 1075 2656 
z
M 1075 541 
L 2216 541 
Q 2509 541 2628 563 
Q 2838 600 2978 687 
Q 3119 775 3209 942 
Q 3300 1109 3300 1328 
Q 3300 1584 3169 1773 
Q 3038 1963 2805 2039 
Q 2572 2116 2134 2116 
L 1075 2116 
L 1075 541 
z
" transform="scale(0.015625)"/>
      </defs>
      <use xlink:href="#ArialMT-57"/>
      <use xlink:href="#ArialMT-61" x="90.634766"/>
      <use xlink:href="#ArialMT-6c" x="146.25"/>
      <use xlink:href="#ArialMT-6b" x="168.466797"/>
      <use xlink:href="#ArialMT-2f" x="218.466797"/>
      <use xlink:href="#ArialMT-42" x="246.25"/>
      <use xlink:href="#ArialMT-69" x="312.949219"/>
      <use xlink:href="#ArialMT-6b" x="335.166016"/>
      <use xlink:href="#ArialMT-65" x="385.166016"/>
     </g>
    </g>
    <g id="patch_11">
     <path d="M 943.817188 206.41875 
L 1011.817188 206.41875 
L 1011.817188 182.61875 
L 943.817188 182.61875 
z
" style="fill: #cc3311; fill-opacity: 0.1; stroke: #cc3311; stroke-width: 5; stroke-linejoin: miter"/>
    </g>
    <g id="text_23">
     <!-- Car -->
     <g style="fill: #262626" transform="translate(1039.017188 206.41875)scale(0.34 -0.34)">
      <defs>
       <path id="ArialMT-43" d="M 3763 1606 
L 4369 1453 
Q 4178 706 3683 314 
Q 3188 -78 2472 -78 
Q 1731 -78 1267 223 
Q 803 525 561 1097 
Q 319 1669 319 2325 
Q 319 3041 592 3573 
Q 866 4106 1370 4382 
Q 1875 4659 2481 4659 
Q 3169 4659 3637 4309 
Q 4106 3959 4291 3325 
L 3694 3184 
Q 3534 3684 3231 3912 
Q 2928 4141 2469 4141 
Q 1941 4141 1586 3887 
Q 1231 3634 1087 3207 
Q 944 2781 944 2328 
Q 944 1744 1114 1308 
Q 1284 872 1643 656 
Q 2003 441 2422 441 
Q 2931 441 3284 734 
Q 3638 1028 3763 1606 
z
" transform="scale(0.015625)"/>
      </defs>
      <use xlink:href="#ArialMT-43"/>
      <use xlink:href="#ArialMT-61" x="72.216797"/>
      <use xlink:href="#ArialMT-72" x="127.832031"/>
     </g>
    </g>
   </g>
  </g>
 </g>
 <defs>
  <clipPath id="pc603998acb">
   <rect x="103.482813" y="7.2" width="1116" height="761.04"/>
  </clipPath>
 </defs>
</svg>
