<?xml version="1.0" encoding="utf-8" standalone="no"?>
<!DOCTYPE svg PUBLIC "-//W3C//DTD SVG 1.1//EN"
  "http://www.w3.org/Graphics/SVG/1.1/DTD/svg11.dtd">
<svg xmlns:xlink="http://www.w3.org/1999/xlink" width="1440pt" height="1008pt" viewBox="0 0 1440 1008" xmlns="http://www.w3.org/2000/svg" version="1.1">
 <metadata>
  <rdf:RDF xmlns:dc="http://purl.org/dc/elements/1.1/" xmlns:cc="http://creativecommons.org/ns#" xmlns:rdf="http://www.w3.org/1999/02/22-rdf-syntax-ns#">
   <cc:Work>
    <dc:type rdf:resource="http://purl.org/dc/dcmitype/StillImage"/>
    <dc:date>2023-02-02T23:06:19.889472</dc:date>
    <dc:format>image/svg+xml</dc:format>
    <dc:creator>
     <cc:Agent>
      <dc:title>Matplotlib v3.5.1, https://matplotlib.org/</dc:title>
     </cc:Agent>
    </dc:creator>
   </cc:Work>
  </rdf:RDF>
 </metadata>
 <defs>
  <style type="text/css">*{stroke-linejoin: round; stroke-linecap: butt}</style>
 </defs>
 <g id="figure_1">
  <g id="patch_1">
   <path d="M 0 1008 
L 1440 1008 
L 1440 0 
L 0 0 
z
" style="fill: #ffffff"/>
  </g>
  <g id="axes_1">
   <g id="patch_2">
    <path d="M 180 882 
L 1296 882 
L 1296 120.96 
L 180 120.96 
z
" style="fill: #ffffff"/>
   </g>
   <g id="matplotlib.axis_1">
    <g id="xtick_1">
     <g id="line2d_1">
      <path d="M 230.727273 882 
L 230.727273 120.96 
" clip-path="url(#p36e17c0e12)" style="fill: none; stroke: #cccccc; stroke-linecap: round"/>
     </g>
     <g id="text_1">
      <!-- 0.0 -->
      <g style="fill: #262626" transform="translate(212.657273 910.110312)scale(0.26 -0.26)">
       <defs>
        <path id="ArialMT-30" d="M 266 2259 
Q 266 3072 433 3567 
Q 600 4063 929 4331 
Q 1259 4600 1759 4600 
Q 2128 4600 2406 4451 
Q 2684 4303 2865 4023 
Q 3047 3744 3150 3342 
Q 3253 2941 3253 2259 
Q 3253 1453 3087 958 
Q 2922 463 2592 192 
Q 2263 -78 1759 -78 
Q 1097 -78 719 397 
Q 266 969 266 2259 
z
M 844 2259 
Q 844 1131 1108 757 
Q 1372 384 1759 384 
Q 2147 384 2411 759 
Q 2675 1134 2675 2259 
Q 2675 3391 2411 3762 
Q 2147 4134 1753 4134 
Q 1366 4134 1134 3806 
Q 844 3388 844 2259 
z
" transform="scale(0.015625)"/>
        <path id="ArialMT-2e" d="M 581 0 
L 581 641 
L 1222 641 
L 1222 0 
L 581 0 
z
" transform="scale(0.015625)"/>
       </defs>
       <use xlink:href="#ArialMT-30"/>
       <use xlink:href="#ArialMT-2e" x="55.615234"/>
       <use xlink:href="#ArialMT-30" x="83.398438"/>
      </g>
     </g>
    </g>
    <g id="xtick_2">
     <g id="line2d_2">
      <path d="M 357.545455 882 
L 357.545455 120.96 
" clip-path="url(#p36e17c0e12)" style="fill: none; stroke: #cccccc; stroke-linecap: round"/>
     </g>
     <g id="text_2">
      <!-- 2.5 -->
      <g style="fill: #262626" transform="translate(339.475455 910.110312)scale(0.26 -0.26)">
       <defs>
        <path id="ArialMT-32" d="M 3222 541 
L 3222 0 
L 194 0 
Q 188 203 259 391 
Q 375 700 629 1000 
Q 884 1300 1366 1694 
Q 2113 2306 2375 2664 
Q 2638 3022 2638 3341 
Q 2638 3675 2398 3904 
Q 2159 4134 1775 4134 
Q 1369 4134 1125 3890 
Q 881 3647 878 3216 
L 300 3275 
Q 359 3922 746 4261 
Q 1134 4600 1788 4600 
Q 2447 4600 2831 4234 
Q 3216 3869 3216 3328 
Q 3216 3053 3103 2787 
Q 2991 2522 2730 2228 
Q 2469 1934 1863 1422 
Q 1356 997 1212 845 
Q 1069 694 975 541 
L 3222 541 
z
" transform="scale(0.015625)"/>
        <path id="ArialMT-35" d="M 266 1200 
L 856 1250 
Q 922 819 1161 601 
Q 1400 384 1738 384 
Q 2144 384 2425 690 
Q 2706 997 2706 1503 
Q 2706 1984 2436 2262 
Q 2166 2541 1728 2541 
Q 1456 2541 1237 2417 
Q 1019 2294 894 2097 
L 366 2166 
L 809 4519 
L 3088 4519 
L 3088 3981 
L 1259 3981 
L 1013 2750 
Q 1425 3038 1878 3038 
Q 2478 3038 2890 2622 
Q 3303 2206 3303 1553 
Q 3303 931 2941 478 
Q 2500 -78 1738 -78 
Q 1113 -78 717 272 
Q 322 622 266 1200 
z
" transform="scale(0.015625)"/>
       </defs>
       <use xlink:href="#ArialMT-32"/>
       <use xlink:href="#ArialMT-2e" x="55.615234"/>
       <use xlink:href="#ArialMT-35" x="83.398438"/>
      </g>
     </g>
    </g>
    <g id="xtick_3">
     <g id="line2d_3">
      <path d="M 484.363636 882 
L 484.363636 120.96 
" clip-path="url(#p36e17c0e12)" style="fill: none; stroke: #cccccc; stroke-linecap: round"/>
     </g>
     <g id="text_3">
      <!-- 5.0 -->
      <g style="fill: #262626" transform="translate(466.293636 910.110312)scale(0.26 -0.26)">
       <use xlink:href="#ArialMT-35"/>
       <use xlink:href="#ArialMT-2e" x="55.615234"/>
       <use xlink:href="#ArialMT-30" x="83.398438"/>
      </g>
     </g>
    </g>
    <g id="xtick_4">
     <g id="line2d_4">
      <path d="M 611.181818 882 
L 611.181818 120.96 
" clip-path="url(#p36e17c0e12)" style="fill: none; stroke: #cccccc; stroke-linecap: round"/>
     </g>
     <g id="text_4">
      <!-- 7.5 -->
      <g style="fill: #262626" transform="translate(593.111818 910.110312)scale(0.26 -0.26)">
       <defs>
        <path id="ArialMT-37" d="M 303 3981 
L 303 4522 
L 3269 4522 
L 3269 4084 
Q 2831 3619 2401 2847 
Q 1972 2075 1738 1259 
Q 1569 684 1522 0 
L 944 0 
Q 953 541 1156 1306 
Q 1359 2072 1739 2783 
Q 2119 3494 2547 3981 
L 303 3981 
z
" transform="scale(0.015625)"/>
       </defs>
       <use xlink:href="#ArialMT-37"/>
       <use xlink:href="#ArialMT-2e" x="55.615234"/>
       <use xlink:href="#ArialMT-35" x="83.398438"/>
      </g>
     </g>
    </g>
    <g id="xtick_5">
     <g id="line2d_5">
      <path d="M 738 882 
L 738 120.96 
" clip-path="url(#p36e17c0e12)" style="fill: none; stroke: #cccccc; stroke-linecap: round"/>
     </g>
     <g id="text_5">
      <!-- 10.0 -->
      <g style="fill: #262626" transform="translate(712.700781 910.110312)scale(0.26 -0.26)">
       <defs>
        <path id="ArialMT-31" d="M 2384 0 
L 1822 0 
L 1822 3584 
Q 1619 3391 1289 3197 
Q 959 3003 697 2906 
L 697 3450 
Q 1169 3672 1522 3987 
Q 1875 4303 2022 4600 
L 2384 4600 
L 2384 0 
z
" transform="scale(0.015625)"/>
       </defs>
       <use xlink:href="#ArialMT-31"/>
       <use xlink:href="#ArialMT-30" x="55.615234"/>
       <use xlink:href="#ArialMT-2e" x="111.230469"/>
       <use xlink:href="#ArialMT-30" x="139.013672"/>
      </g>
     </g>
    </g>
    <g id="xtick_6">
     <g id="line2d_6">
      <path d="M 864.818182 882 
L 864.818182 120.96 
" clip-path="url(#p36e17c0e12)" style="fill: none; stroke: #cccccc; stroke-linecap: round"/>
     </g>
     <g id="text_6">
      <!-- 12.5 -->
      <g style="fill: #262626" transform="translate(839.518963 910.110312)scale(0.26 -0.26)">
       <use xlink:href="#ArialMT-31"/>
       <use xlink:href="#ArialMT-32" x="55.615234"/>
       <use xlink:href="#ArialMT-2e" x="111.230469"/>
       <use xlink:href="#ArialMT-35" x="139.013672"/>
      </g>
     </g>
    </g>
    <g id="xtick_7">
     <g id="line2d_7">
      <path d="M 991.636364 882 
L 991.636364 120.96 
" clip-path="url(#p36e17c0e12)" style="fill: none; stroke: #cccccc; stroke-linecap: round"/>
     </g>
     <g id="text_7">
      <!-- 15.0 -->
      <g style="fill: #262626" transform="translate(966.337145 910.110312)scale(0.26 -0.26)">
       <use xlink:href="#ArialMT-31"/>
       <use xlink:href="#ArialMT-35" x="55.615234"/>
       <use xlink:href="#ArialMT-2e" x="111.230469"/>
       <use xlink:href="#ArialMT-30" x="139.013672"/>
      </g>
     </g>
    </g>
    <g id="xtick_8">
     <g id="line2d_8">
      <path d="M 1118.454545 882 
L 1118.454545 120.96 
" clip-path="url(#p36e17c0e12)" style="fill: none; stroke: #cccccc; stroke-linecap: round"/>
     </g>
     <g id="text_8">
      <!-- 17.5 -->
      <g style="fill: #262626" transform="translate(1093.155327 910.110312)scale(0.26 -0.26)">
       <use xlink:href="#ArialMT-31"/>
       <use xlink:href="#ArialMT-37" x="55.615234"/>
       <use xlink:href="#ArialMT-2e" x="111.230469"/>
       <use xlink:href="#ArialMT-35" x="139.013672"/>
      </g>
     </g>
    </g>
    <g id="xtick_9">
     <g id="line2d_9">
      <path d="M 1245.272727 882 
L 1245.272727 120.96 
" clip-path="url(#p36e17c0e12)" style="fill: none; stroke: #cccccc; stroke-linecap: round"/>
     </g>
     <g id="text_9">
      <!-- 20.0 -->
      <g style="fill: #262626" transform="translate(1219.973509 910.110312)scale(0.26 -0.26)">
       <use xlink:href="#ArialMT-32"/>
       <use xlink:href="#ArialMT-30" x="55.615234"/>
       <use xlink:href="#ArialMT-2e" x="111.230469"/>
       <use xlink:href="#ArialMT-30" x="139.013672"/>
      </g>
     </g>
    </g>
    <g id="text_10">
     <!-- Income Rank (Percentiles of Income) -->
     <g style="fill: #262626" transform="translate(408.996875 948.396562)scale(0.4 -0.4)">
      <defs>
       <path id="ArialMT-49" d="M 597 0 
L 597 4581 
L 1203 4581 
L 1203 0 
L 597 0 
z
" transform="scale(0.015625)"/>
       <path id="ArialMT-6e" d="M 422 0 
L 422 3319 
L 928 3319 
L 928 2847 
Q 1294 3394 1984 3394 
Q 2284 3394 2536 3286 
Q 2788 3178 2913 3003 
Q 3038 2828 3088 2588 
Q 3119 2431 3119 2041 
L 3119 0 
L 2556 0 
L 2556 2019 
Q 2556 2363 2490 2533 
Q 2425 2703 2258 2804 
Q 2091 2906 1866 2906 
Q 1506 2906 1245 2678 
Q 984 2450 984 1813 
L 984 0 
L 422 0 
z
" transform="scale(0.015625)"/>
       <path id="ArialMT-63" d="M 2588 1216 
L 3141 1144 
Q 3050 572 2676 248 
Q 2303 -75 1759 -75 
Q 1078 -75 664 370 
Q 250 816 250 1647 
Q 250 2184 428 2587 
Q 606 2991 970 3192 
Q 1334 3394 1763 3394 
Q 2303 3394 2647 3120 
Q 2991 2847 3088 2344 
L 2541 2259 
Q 2463 2594 2264 2762 
Q 2066 2931 1784 2931 
Q 1359 2931 1093 2626 
Q 828 2322 828 1663 
Q 828 994 1084 691 
Q 1341 388 1753 388 
Q 2084 388 2306 591 
Q 2528 794 2588 1216 
z
" transform="scale(0.015625)"/>
       <path id="ArialMT-6f" d="M 213 1659 
Q 213 2581 725 3025 
Q 1153 3394 1769 3394 
Q 2453 3394 2887 2945 
Q 3322 2497 3322 1706 
Q 3322 1066 3130 698 
Q 2938 331 2570 128 
Q 2203 -75 1769 -75 
Q 1072 -75 642 372 
Q 213 819 213 1659 
z
M 791 1659 
Q 791 1022 1069 705 
Q 1347 388 1769 388 
Q 2188 388 2466 706 
Q 2744 1025 2744 1678 
Q 2744 2294 2464 2611 
Q 2184 2928 1769 2928 
Q 1347 2928 1069 2612 
Q 791 2297 791 1659 
z
" transform="scale(0.015625)"/>
       <path id="ArialMT-6d" d="M 422 0 
L 422 3319 
L 925 3319 
L 925 2853 
Q 1081 3097 1340 3245 
Q 1600 3394 1931 3394 
Q 2300 3394 2536 3241 
Q 2772 3088 2869 2813 
Q 3263 3394 3894 3394 
Q 4388 3394 4653 3120 
Q 4919 2847 4919 2278 
L 4919 0 
L 4359 0 
L 4359 2091 
Q 4359 2428 4304 2576 
Q 4250 2725 4106 2815 
Q 3963 2906 3769 2906 
Q 3419 2906 3187 2673 
Q 2956 2441 2956 1928 
L 2956 0 
L 2394 0 
L 2394 2156 
Q 2394 2531 2256 2718 
Q 2119 2906 1806 2906 
Q 1569 2906 1367 2781 
Q 1166 2656 1075 2415 
Q 984 2175 984 1722 
L 984 0 
L 422 0 
z
" transform="scale(0.015625)"/>
       <path id="ArialMT-65" d="M 2694 1069 
L 3275 997 
Q 3138 488 2766 206 
Q 2394 -75 1816 -75 
Q 1088 -75 661 373 
Q 234 822 234 1631 
Q 234 2469 665 2931 
Q 1097 3394 1784 3394 
Q 2450 3394 2872 2941 
Q 3294 2488 3294 1666 
Q 3294 1616 3291 1516 
L 816 1516 
Q 847 969 1125 678 
Q 1403 388 1819 388 
Q 2128 388 2347 550 
Q 2566 713 2694 1069 
z
M 847 1978 
L 2700 1978 
Q 2663 2397 2488 2606 
Q 2219 2931 1791 2931 
Q 1403 2931 1139 2672 
Q 875 2413 847 1978 
z
" transform="scale(0.015625)"/>
       <path id="ArialMT-20" transform="scale(0.015625)"/>
       <path id="ArialMT-52" d="M 503 0 
L 503 4581 
L 2534 4581 
Q 3147 4581 3465 4457 
Q 3784 4334 3975 4021 
Q 4166 3709 4166 3331 
Q 4166 2844 3850 2509 
Q 3534 2175 2875 2084 
Q 3116 1969 3241 1856 
Q 3506 1613 3744 1247 
L 4541 0 
L 3778 0 
L 3172 953 
Q 2906 1366 2734 1584 
Q 2563 1803 2427 1890 
Q 2291 1978 2150 2013 
Q 2047 2034 1813 2034 
L 1109 2034 
L 1109 0 
L 503 0 
z
M 1109 2559 
L 2413 2559 
Q 2828 2559 3062 2645 
Q 3297 2731 3419 2920 
Q 3541 3109 3541 3331 
Q 3541 3656 3305 3865 
Q 3069 4075 2559 4075 
L 1109 4075 
L 1109 2559 
z
" transform="scale(0.015625)"/>
       <path id="ArialMT-61" d="M 2588 409 
Q 2275 144 1986 34 
Q 1697 -75 1366 -75 
Q 819 -75 525 192 
Q 231 459 231 875 
Q 231 1119 342 1320 
Q 453 1522 633 1644 
Q 813 1766 1038 1828 
Q 1203 1872 1538 1913 
Q 2219 1994 2541 2106 
Q 2544 2222 2544 2253 
Q 2544 2597 2384 2738 
Q 2169 2928 1744 2928 
Q 1347 2928 1158 2789 
Q 969 2650 878 2297 
L 328 2372 
Q 403 2725 575 2942 
Q 747 3159 1072 3276 
Q 1397 3394 1825 3394 
Q 2250 3394 2515 3294 
Q 2781 3194 2906 3042 
Q 3031 2891 3081 2659 
Q 3109 2516 3109 2141 
L 3109 1391 
Q 3109 606 3145 398 
Q 3181 191 3288 0 
L 2700 0 
Q 2613 175 2588 409 
z
M 2541 1666 
Q 2234 1541 1622 1453 
Q 1275 1403 1131 1340 
Q 988 1278 909 1158 
Q 831 1038 831 891 
Q 831 666 1001 516 
Q 1172 366 1500 366 
Q 1825 366 2078 508 
Q 2331 650 2450 897 
Q 2541 1088 2541 1459 
L 2541 1666 
z
" transform="scale(0.015625)"/>
       <path id="ArialMT-6b" d="M 425 0 
L 425 4581 
L 988 4581 
L 988 1969 
L 2319 3319 
L 3047 3319 
L 1778 2088 
L 3175 0 
L 2481 0 
L 1384 1697 
L 988 1316 
L 988 0 
L 425 0 
z
" transform="scale(0.015625)"/>
       <path id="ArialMT-28" d="M 1497 -1347 
Q 1031 -759 709 28 
Q 388 816 388 1659 
Q 388 2403 628 3084 
Q 909 3875 1497 4659 
L 1900 4659 
Q 1522 4009 1400 3731 
Q 1209 3300 1100 2831 
Q 966 2247 966 1656 
Q 966 153 1900 -1347 
L 1497 -1347 
z
" transform="scale(0.015625)"/>
       <path id="ArialMT-50" d="M 494 0 
L 494 4581 
L 2222 4581 
Q 2678 4581 2919 4538 
Q 3256 4481 3484 4323 
Q 3713 4166 3852 3881 
Q 3991 3597 3991 3256 
Q 3991 2672 3619 2267 
Q 3247 1863 2275 1863 
L 1100 1863 
L 1100 0 
L 494 0 
z
M 1100 2403 
L 2284 2403 
Q 2872 2403 3119 2622 
Q 3366 2841 3366 3238 
Q 3366 3525 3220 3729 
Q 3075 3934 2838 4000 
Q 2684 4041 2272 4041 
L 1100 4041 
L 1100 2403 
z
" transform="scale(0.015625)"/>
       <path id="ArialMT-72" d="M 416 0 
L 416 3319 
L 922 3319 
L 922 2816 
Q 1116 3169 1280 3281 
Q 1444 3394 1641 3394 
Q 1925 3394 2219 3213 
L 2025 2691 
Q 1819 2813 1613 2813 
Q 1428 2813 1281 2702 
Q 1134 2591 1072 2394 
Q 978 2094 978 1738 
L 978 0 
L 416 0 
z
" transform="scale(0.015625)"/>
       <path id="ArialMT-74" d="M 1650 503 
L 1731 6 
Q 1494 -44 1306 -44 
Q 1000 -44 831 53 
Q 663 150 594 308 
Q 525 466 525 972 
L 525 2881 
L 113 2881 
L 113 3319 
L 525 3319 
L 525 4141 
L 1084 4478 
L 1084 3319 
L 1650 3319 
L 1650 2881 
L 1084 2881 
L 1084 941 
Q 1084 700 1114 631 
Q 1144 563 1211 522 
Q 1278 481 1403 481 
Q 1497 481 1650 503 
z
" transform="scale(0.015625)"/>
       <path id="ArialMT-69" d="M 425 3934 
L 425 4581 
L 988 4581 
L 988 3934 
L 425 3934 
z
M 425 0 
L 425 3319 
L 988 3319 
L 988 0 
L 425 0 
z
" transform="scale(0.015625)"/>
       <path id="ArialMT-6c" d="M 409 0 
L 409 4581 
L 972 4581 
L 972 0 
L 409 0 
z
" transform="scale(0.015625)"/>
       <path id="ArialMT-73" d="M 197 991 
L 753 1078 
Q 800 744 1014 566 
Q 1228 388 1613 388 
Q 2000 388 2187 545 
Q 2375 703 2375 916 
Q 2375 1106 2209 1216 
Q 2094 1291 1634 1406 
Q 1016 1563 777 1677 
Q 538 1791 414 1992 
Q 291 2194 291 2438 
Q 291 2659 392 2848 
Q 494 3038 669 3163 
Q 800 3259 1026 3326 
Q 1253 3394 1513 3394 
Q 1903 3394 2198 3281 
Q 2494 3169 2634 2976 
Q 2775 2784 2828 2463 
L 2278 2388 
Q 2241 2644 2061 2787 
Q 1881 2931 1553 2931 
Q 1166 2931 1000 2803 
Q 834 2675 834 2503 
Q 834 2394 903 2306 
Q 972 2216 1119 2156 
Q 1203 2125 1616 2013 
Q 2213 1853 2448 1751 
Q 2684 1650 2818 1456 
Q 2953 1263 2953 975 
Q 2953 694 2789 445 
Q 2625 197 2315 61 
Q 2006 -75 1616 -75 
Q 969 -75 630 194 
Q 291 463 197 991 
z
" transform="scale(0.015625)"/>
       <path id="ArialMT-66" d="M 556 0 
L 556 2881 
L 59 2881 
L 59 3319 
L 556 3319 
L 556 3672 
Q 556 4006 616 4169 
Q 697 4388 901 4523 
Q 1106 4659 1475 4659 
Q 1713 4659 2000 4603 
L 1916 4113 
Q 1741 4144 1584 4144 
Q 1328 4144 1222 4034 
Q 1116 3925 1116 3625 
L 1116 3319 
L 1763 3319 
L 1763 2881 
L 1116 2881 
L 1116 0 
L 556 0 
z
" transform="scale(0.015625)"/>
       <path id="ArialMT-29" d="M 791 -1347 
L 388 -1347 
Q 1322 153 1322 1656 
Q 1322 2244 1188 2822 
Q 1081 3291 891 3722 
Q 769 4003 388 4659 
L 791 4659 
Q 1378 3875 1659 3084 
Q 1900 2403 1900 1659 
Q 1900 816 1576 28 
Q 1253 -759 791 -1347 
z
" transform="scale(0.015625)"/>
      </defs>
      <use xlink:href="#ArialMT-49"/>
      <use xlink:href="#ArialMT-6e" x="27.783203"/>
      <use xlink:href="#ArialMT-63" x="83.398438"/>
      <use xlink:href="#ArialMT-6f" x="133.398438"/>
      <use xlink:href="#ArialMT-6d" x="189.013672"/>
      <use xlink:href="#ArialMT-65" x="272.314453"/>
      <use xlink:href="#ArialMT-20" x="327.929688"/>
      <use xlink:href="#ArialMT-52" x="355.712891"/>
      <use xlink:href="#ArialMT-61" x="427.929688"/>
      <use xlink:href="#ArialMT-6e" x="483.544922"/>
      <use xlink:href="#ArialMT-6b" x="539.160156"/>
      <use xlink:href="#ArialMT-20" x="589.160156"/>
      <use xlink:href="#ArialMT-28" x="616.943359"/>
      <use xlink:href="#ArialMT-50" x="650.244141"/>
      <use xlink:href="#ArialMT-65" x="716.943359"/>
      <use xlink:href="#ArialMT-72" x="772.558594"/>
      <use xlink:href="#ArialMT-63" x="805.859375"/>
      <use xlink:href="#ArialMT-65" x="855.859375"/>
      <use xlink:href="#ArialMT-6e" x="911.474609"/>
      <use xlink:href="#ArialMT-74" x="967.089844"/>
      <use xlink:href="#ArialMT-69" x="994.873047"/>
      <use xlink:href="#ArialMT-6c" x="1017.089844"/>
      <use xlink:href="#ArialMT-65" x="1039.306641"/>
      <use xlink:href="#ArialMT-73" x="1094.921875"/>
      <use xlink:href="#ArialMT-20" x="1144.921875"/>
      <use xlink:href="#ArialMT-6f" x="1172.705078"/>
      <use xlink:href="#ArialMT-66" x="1228.320312"/>
      <use xlink:href="#ArialMT-20" x="1256.103516"/>
      <use xlink:href="#ArialMT-49" x="1283.886719"/>
      <use xlink:href="#ArialMT-6e" x="1311.669922"/>
      <use xlink:href="#ArialMT-63" x="1367.285156"/>
      <use xlink:href="#ArialMT-6f" x="1417.285156"/>
      <use xlink:href="#ArialMT-6d" x="1472.900391"/>
      <use xlink:href="#ArialMT-65" x="1556.201172"/>
      <use xlink:href="#ArialMT-29" x="1611.816406"/>
     </g>
    </g>
   </g>
   <g id="matplotlib.axis_2">
    <g id="ytick_1">
     <g id="line2d_10">
      <path d="M 180 849.424931 
L 1296 849.424931 
" clip-path="url(#p36e17c0e12)" style="fill: none; stroke: #cccccc; stroke-linecap: round"/>
     </g>
     <g id="text_11">
      <!-- −0.02 -->
      <g style="fill: #262626" transform="translate(104.715937 858.730087)scale(0.26 -0.26)">
       <defs>
        <path id="ArialMT-2212" d="M 3381 1997 
L 356 1997 
L 356 2522 
L 3381 2522 
L 3381 1997 
z
" transform="scale(0.015625)"/>
       </defs>
       <use xlink:href="#ArialMT-2212"/>
       <use xlink:href="#ArialMT-30" x="58.398438"/>
       <use xlink:href="#ArialMT-2e" x="114.013672"/>
       <use xlink:href="#ArialMT-30" x="141.796875"/>
       <use xlink:href="#ArialMT-32" x="197.412109"/>
      </g>
     </g>
    </g>
    <g id="ytick_2">
     <g id="line2d_11">
      <path d="M 180 754.758198 
L 1296 754.758198 
" clip-path="url(#p36e17c0e12)" style="fill: none; stroke: #cccccc; stroke-linecap: round"/>
     </g>
     <g id="text_12">
      <!-- 0.00 -->
      <g style="fill: #262626" transform="translate(119.901562 764.063354)scale(0.26 -0.26)">
       <use xlink:href="#ArialMT-30"/>
       <use xlink:href="#ArialMT-2e" x="55.615234"/>
       <use xlink:href="#ArialMT-30" x="83.398438"/>
       <use xlink:href="#ArialMT-30" x="139.013672"/>
      </g>
     </g>
    </g>
    <g id="ytick_3">
     <g id="line2d_12">
      <path d="M 180 660.091465 
L 1296 660.091465 
" clip-path="url(#p36e17c0e12)" style="fill: none; stroke: #cccccc; stroke-linecap: round"/>
     </g>
     <g id="text_13">
      <!-- 0.02 -->
      <g style="fill: #262626" transform="translate(119.901562 669.396621)scale(0.26 -0.26)">
       <use xlink:href="#ArialMT-30"/>
       <use xlink:href="#ArialMT-2e" x="55.615234"/>
       <use xlink:href="#ArialMT-30" x="83.398438"/>
       <use xlink:href="#ArialMT-32" x="139.013672"/>
      </g>
     </g>
    </g>
    <g id="ytick_4">
     <g id="line2d_13">
      <path d="M 180 565.424732 
L 1296 565.424732 
" clip-path="url(#p36e17c0e12)" style="fill: none; stroke: #cccccc; stroke-linecap: round"/>
     </g>
     <g id="text_14">
      <!-- 0.04 -->
      <g style="fill: #262626" transform="translate(119.901562 574.729888)scale(0.26 -0.26)">
       <defs>
        <path id="ArialMT-34" d="M 2069 0 
L 2069 1097 
L 81 1097 
L 81 1613 
L 2172 4581 
L 2631 4581 
L 2631 1613 
L 3250 1613 
L 3250 1097 
L 2631 1097 
L 2631 0 
L 2069 0 
z
M 2069 1613 
L 2069 3678 
L 634 1613 
L 2069 1613 
z
" transform="scale(0.015625)"/>
       </defs>
       <use xlink:href="#ArialMT-30"/>
       <use xlink:href="#ArialMT-2e" x="55.615234"/>
       <use xlink:href="#ArialMT-30" x="83.398438"/>
       <use xlink:href="#ArialMT-34" x="139.013672"/>
      </g>
     </g>
    </g>
    <g id="ytick_5">
     <g id="line2d_14">
      <path d="M 180 470.757999 
L 1296 470.757999 
" clip-path="url(#p36e17c0e12)" style="fill: none; stroke: #cccccc; stroke-linecap: round"/>
     </g>
     <g id="text_15">
      <!-- 0.06 -->
      <g style="fill: #262626" transform="translate(119.901562 480.063155)scale(0.26 -0.26)">
       <defs>
        <path id="ArialMT-36" d="M 3184 3459 
L 2625 3416 
Q 2550 3747 2413 3897 
Q 2184 4138 1850 4138 
Q 1581 4138 1378 3988 
Q 1113 3794 959 3422 
Q 806 3050 800 2363 
Q 1003 2672 1297 2822 
Q 1591 2972 1913 2972 
Q 2475 2972 2870 2558 
Q 3266 2144 3266 1488 
Q 3266 1056 3080 686 
Q 2894 316 2569 119 
Q 2244 -78 1831 -78 
Q 1128 -78 684 439 
Q 241 956 241 2144 
Q 241 3472 731 4075 
Q 1159 4600 1884 4600 
Q 2425 4600 2770 4297 
Q 3116 3994 3184 3459 
z
M 888 1484 
Q 888 1194 1011 928 
Q 1134 663 1356 523 
Q 1578 384 1822 384 
Q 2178 384 2434 671 
Q 2691 959 2691 1453 
Q 2691 1928 2437 2201 
Q 2184 2475 1800 2475 
Q 1419 2475 1153 2201 
Q 888 1928 888 1484 
z
" transform="scale(0.015625)"/>
       </defs>
       <use xlink:href="#ArialMT-30"/>
       <use xlink:href="#ArialMT-2e" x="55.615234"/>
       <use xlink:href="#ArialMT-30" x="83.398438"/>
       <use xlink:href="#ArialMT-36" x="139.013672"/>
      </g>
     </g>
    </g>
    <g id="ytick_6">
     <g id="line2d_15">
      <path d="M 180 376.091266 
L 1296 376.091266 
" clip-path="url(#p36e17c0e12)" style="fill: none; stroke: #cccccc; stroke-linecap: round"/>
     </g>
     <g id="text_16">
      <!-- 0.08 -->
      <g style="fill: #262626" transform="translate(119.901562 385.396422)scale(0.26 -0.26)">
       <defs>
        <path id="ArialMT-38" d="M 1131 2484 
Q 781 2613 612 2850 
Q 444 3088 444 3419 
Q 444 3919 803 4259 
Q 1163 4600 1759 4600 
Q 2359 4600 2725 4251 
Q 3091 3903 3091 3403 
Q 3091 3084 2923 2848 
Q 2756 2613 2416 2484 
Q 2838 2347 3058 2040 
Q 3278 1734 3278 1309 
Q 3278 722 2862 322 
Q 2447 -78 1769 -78 
Q 1091 -78 675 323 
Q 259 725 259 1325 
Q 259 1772 486 2073 
Q 713 2375 1131 2484 
z
M 1019 3438 
Q 1019 3113 1228 2906 
Q 1438 2700 1772 2700 
Q 2097 2700 2305 2904 
Q 2513 3109 2513 3406 
Q 2513 3716 2298 3927 
Q 2084 4138 1766 4138 
Q 1444 4138 1231 3931 
Q 1019 3725 1019 3438 
z
M 838 1322 
Q 838 1081 952 856 
Q 1066 631 1291 507 
Q 1516 384 1775 384 
Q 2178 384 2440 643 
Q 2703 903 2703 1303 
Q 2703 1709 2433 1975 
Q 2163 2241 1756 2241 
Q 1359 2241 1098 1978 
Q 838 1716 838 1322 
z
" transform="scale(0.015625)"/>
       </defs>
       <use xlink:href="#ArialMT-30"/>
       <use xlink:href="#ArialMT-2e" x="55.615234"/>
       <use xlink:href="#ArialMT-30" x="83.398438"/>
       <use xlink:href="#ArialMT-38" x="139.013672"/>
      </g>
     </g>
    </g>
    <g id="ytick_7">
     <g id="line2d_16">
      <path d="M 180 281.424533 
L 1296 281.424533 
" clip-path="url(#p36e17c0e12)" style="fill: none; stroke: #cccccc; stroke-linecap: round"/>
     </g>
     <g id="text_17">
      <!-- 0.10 -->
      <g style="fill: #262626" transform="translate(119.901562 290.72969)scale(0.26 -0.26)">
       <use xlink:href="#ArialMT-30"/>
       <use xlink:href="#ArialMT-2e" x="55.615234"/>
       <use xlink:href="#ArialMT-31" x="83.398438"/>
       <use xlink:href="#ArialMT-30" x="139.013672"/>
      </g>
     </g>
    </g>
    <g id="ytick_8">
     <g id="line2d_17">
      <path d="M 180 186.7578 
L 1296 186.7578 
" clip-path="url(#p36e17c0e12)" style="fill: none; stroke: #cccccc; stroke-linecap: round"/>
     </g>
     <g id="text_18">
      <!-- 0.12 -->
      <g style="fill: #262626" transform="translate(119.901562 196.062957)scale(0.26 -0.26)">
       <use xlink:href="#ArialMT-30"/>
       <use xlink:href="#ArialMT-2e" x="55.615234"/>
       <use xlink:href="#ArialMT-31" x="83.398438"/>
       <use xlink:href="#ArialMT-32" x="139.013672"/>
      </g>
     </g>
    </g>
    <g id="text_19">
     <!-- Potential INEXUS relative to Baseline -->
     <g style="fill: #262626" transform="translate(92.765937 833.86125)rotate(-90)scale(0.4 -0.4)">
      <defs>
       <path id="ArialMT-4e" d="M 488 0 
L 488 4581 
L 1109 4581 
L 3516 984 
L 3516 4581 
L 4097 4581 
L 4097 0 
L 3475 0 
L 1069 3600 
L 1069 0 
L 488 0 
z
" transform="scale(0.015625)"/>
       <path id="ArialMT-45" d="M 506 0 
L 506 4581 
L 3819 4581 
L 3819 4041 
L 1113 4041 
L 1113 2638 
L 3647 2638 
L 3647 2100 
L 1113 2100 
L 1113 541 
L 3925 541 
L 3925 0 
L 506 0 
z
" transform="scale(0.015625)"/>
       <path id="ArialMT-58" d="M 28 0 
L 1800 2388 
L 238 4581 
L 959 4581 
L 1791 3406 
Q 2050 3041 2159 2844 
Q 2313 3094 2522 3366 
L 3444 4581 
L 4103 4581 
L 2494 2422 
L 4228 0 
L 3478 0 
L 2325 1634 
Q 2228 1775 2125 1941 
Q 1972 1691 1906 1597 
L 756 0 
L 28 0 
z
" transform="scale(0.015625)"/>
       <path id="ArialMT-55" d="M 3500 4581 
L 4106 4581 
L 4106 1934 
Q 4106 1244 3950 837 
Q 3794 431 3386 176 
Q 2978 -78 2316 -78 
Q 1672 -78 1262 144 
Q 853 366 678 786 
Q 503 1206 503 1934 
L 503 4581 
L 1109 4581 
L 1109 1938 
Q 1109 1341 1220 1058 
Q 1331 775 1601 622 
Q 1872 469 2263 469 
Q 2931 469 3215 772 
Q 3500 1075 3500 1938 
L 3500 4581 
z
" transform="scale(0.015625)"/>
       <path id="ArialMT-53" d="M 288 1472 
L 859 1522 
Q 900 1178 1048 958 
Q 1197 738 1509 602 
Q 1822 466 2213 466 
Q 2559 466 2825 569 
Q 3091 672 3220 851 
Q 3350 1031 3350 1244 
Q 3350 1459 3225 1620 
Q 3100 1781 2813 1891 
Q 2628 1963 1997 2114 
Q 1366 2266 1113 2400 
Q 784 2572 623 2826 
Q 463 3081 463 3397 
Q 463 3744 659 4045 
Q 856 4347 1234 4503 
Q 1613 4659 2075 4659 
Q 2584 4659 2973 4495 
Q 3363 4331 3572 4012 
Q 3781 3694 3797 3291 
L 3216 3247 
Q 3169 3681 2898 3903 
Q 2628 4125 2100 4125 
Q 1550 4125 1298 3923 
Q 1047 3722 1047 3438 
Q 1047 3191 1225 3031 
Q 1400 2872 2139 2705 
Q 2878 2538 3153 2413 
Q 3553 2228 3743 1945 
Q 3934 1663 3934 1294 
Q 3934 928 3725 604 
Q 3516 281 3123 101 
Q 2731 -78 2241 -78 
Q 1619 -78 1198 103 
Q 778 284 539 648 
Q 300 1013 288 1472 
z
" transform="scale(0.015625)"/>
       <path id="ArialMT-76" d="M 1344 0 
L 81 3319 
L 675 3319 
L 1388 1331 
Q 1503 1009 1600 663 
Q 1675 925 1809 1294 
L 2547 3319 
L 3125 3319 
L 1869 0 
L 1344 0 
z
" transform="scale(0.015625)"/>
       <path id="ArialMT-42" d="M 469 0 
L 469 4581 
L 2188 4581 
Q 2713 4581 3030 4442 
Q 3347 4303 3526 4014 
Q 3706 3725 3706 3409 
Q 3706 3116 3547 2856 
Q 3388 2597 3066 2438 
Q 3481 2316 3704 2022 
Q 3928 1728 3928 1328 
Q 3928 1006 3792 729 
Q 3656 453 3456 303 
Q 3256 153 2954 76 
Q 2653 0 2216 0 
L 469 0 
z
M 1075 2656 
L 2066 2656 
Q 2469 2656 2644 2709 
Q 2875 2778 2992 2937 
Q 3109 3097 3109 3338 
Q 3109 3566 3000 3739 
Q 2891 3913 2687 3977 
Q 2484 4041 1991 4041 
L 1075 4041 
L 1075 2656 
z
M 1075 541 
L 2216 541 
Q 2509 541 2628 563 
Q 2838 600 2978 687 
Q 3119 775 3209 942 
Q 3300 1109 3300 1328 
Q 3300 1584 3169 1773 
Q 3038 1963 2805 2039 
Q 2572 2116 2134 2116 
L 1075 2116 
L 1075 541 
z
" transform="scale(0.015625)"/>
      </defs>
      <use xlink:href="#ArialMT-50"/>
      <use xlink:href="#ArialMT-6f" x="66.699219"/>
      <use xlink:href="#ArialMT-74" x="122.314453"/>
      <use xlink:href="#ArialMT-65" x="150.097656"/>
      <use xlink:href="#ArialMT-6e" x="205.712891"/>
      <use xlink:href="#ArialMT-74" x="261.328125"/>
      <use xlink:href="#ArialMT-69" x="289.111328"/>
      <use xlink:href="#ArialMT-61" x="311.328125"/>
      <use xlink:href="#ArialMT-6c" x="366.943359"/>
      <use xlink:href="#ArialMT-20" x="389.160156"/>
      <use xlink:href="#ArialMT-49" x="416.943359"/>
      <use xlink:href="#ArialMT-4e" x="444.726562"/>
      <use xlink:href="#ArialMT-45" x="516.943359"/>
      <use xlink:href="#ArialMT-58" x="583.642578"/>
      <use xlink:href="#ArialMT-55" x="650.341797"/>
      <use xlink:href="#ArialMT-53" x="722.558594"/>
      <use xlink:href="#ArialMT-20" x="789.257812"/>
      <use xlink:href="#ArialMT-72" x="817.041016"/>
      <use xlink:href="#ArialMT-65" x="850.341797"/>
      <use xlink:href="#ArialMT-6c" x="905.957031"/>
      <use xlink:href="#ArialMT-61" x="928.173828"/>
      <use xlink:href="#ArialMT-74" x="983.789062"/>
      <use xlink:href="#ArialMT-69" x="1011.572266"/>
      <use xlink:href="#ArialMT-76" x="1033.789062"/>
      <use xlink:href="#ArialMT-65" x="1083.789062"/>
      <use xlink:href="#ArialMT-20" x="1139.404297"/>
      <use xlink:href="#ArialMT-74" x="1167.1875"/>
      <use xlink:href="#ArialMT-6f" x="1194.970703"/>
      <use xlink:href="#ArialMT-20" x="1250.585938"/>
      <use xlink:href="#ArialMT-42" x="1278.369141"/>
      <use xlink:href="#ArialMT-61" x="1345.068359"/>
      <use xlink:href="#ArialMT-73" x="1400.683594"/>
      <use xlink:href="#ArialMT-65" x="1450.683594"/>
      <use xlink:href="#ArialMT-6c" x="1506.298828"/>
      <use xlink:href="#ArialMT-69" x="1528.515625"/>
      <use xlink:href="#ArialMT-6e" x="1550.732422"/>
      <use xlink:href="#ArialMT-65" x="1606.347656"/>
     </g>
    </g>
   </g>
   <g id="line2d_18">
    <path d="M 230.727273 155.552727 
L 281.454545 186.408874 
L 332.181818 182.002569 
L 382.909091 376.42196 
L 433.636364 364.800214 
L 484.363636 404.213967 
L 535.090909 378.914743 
L 585.818182 450.330197 
L 636.545455 480.304319 
L 687.272727 469.501618 
L 738 459.777486 
L 788.727273 525.563 
L 839.454545 564.791748 
L 890.181818 592.543902 
L 940.909091 564.964085 
L 991.636364 516.649861 
L 1042.363636 571.313438 
L 1093.090909 575.59021 
L 1143.818182 541.842796 
L 1194.545455 604.773158 
L 1245.272727 549.694853 
" clip-path="url(#p36e17c0e12)" style="fill: none; stroke: #fde725; stroke-width: 6; stroke-linecap: round"/>
   </g>
   <g id="line2d_19">
    <path d="M 230.727273 483.735511 
L 281.454545 499.061892 
L 332.181818 533.135252 
L 382.909091 557.01839 
L 433.636364 550.499821 
L 484.363636 593.973741 
L 535.090909 607.01701 
L 585.818182 608.554207 
L 636.545455 628.27565 
L 687.272727 614.180559 
L 738 656.260913 
L 788.727273 668.613262 
L 839.454545 676.128253 
L 890.181818 718.202689 
L 940.909091 704.43651 
L 991.636364 660.593517 
L 1042.363636 693.18759 
L 1093.090909 722.73746 
L 1143.818182 683.013831 
L 1194.545455 733.567183 
L 1245.272727 689.275273 
" clip-path="url(#p36e17c0e12)" style="fill: none; stroke: #f4e61e; stroke-width: 6; stroke-linecap: round"/>
   </g>
   <g id="line2d_20">
    <path d="M 230.727273 559.931775 
L 281.454545 562.698477 
L 332.181818 593.070565 
L 382.909091 630.013173 
L 433.636364 585.374752 
L 484.363636 632.989984 
L 535.090909 618.900649 
L 585.818182 612.553446 
L 636.545455 641.572957 
L 687.272727 637.060634 
L 738 651.040597 
L 788.727273 698.058511 
L 839.454545 687.575273 
L 890.181818 717.930256 
L 940.909091 710.697306 
L 991.636364 707.518064 
L 1042.363636 717.506174 
L 1093.090909 720.436265 
L 1143.818182 673.83055 
L 1194.545455 741.584858 
L 1245.272727 691.64154 
" clip-path="url(#p36e17c0e12)" style="fill: none; stroke: #eae51a; stroke-width: 6; stroke-linecap: round"/>
   </g>
   <g id="line2d_21">
    <path d="M 230.727273 661.998443 
L 281.454545 633.72884 
L 332.181818 699.630084 
L 382.909091 645.83034 
L 433.636364 673.956782 
L 484.363636 661.219035 
L 535.090909 667.502738 
L 585.818182 708.133366 
L 636.545455 701.533277 
L 687.272727 696.312776 
L 738 702.194654 
L 788.727273 748.907476 
L 839.454545 716.701277 
L 890.181818 781.189814 
L 940.909091 732.493878 
L 991.636364 726.359322 
L 1042.363636 733.560439 
L 1093.090909 734.53779 
L 1143.818182 689.230151 
L 1194.545455 777.565195 
L 1245.272727 753.673319 
" clip-path="url(#p36e17c0e12)" style="fill: none; stroke: #d5e21a; stroke-width: 6; stroke-linecap: round"/>
   </g>
   <g id="line2d_22">
    <path d="M 230.727273 754.758198 
L 281.454545 754.758198 
L 332.181818 754.758198 
L 382.909091 754.758198 
L 433.636364 754.758198 
L 484.363636 754.758198 
L 535.090909 754.758198 
L 585.818182 754.758198 
L 636.545455 754.758198 
L 687.272727 754.758198 
L 738 754.758198 
L 788.727273 754.758198 
L 839.454545 754.758198 
L 890.181818 754.758198 
L 940.909091 754.758198 
L 991.636364 754.758198 
L 1042.363636 754.758198 
L 1093.090909 754.758198 
L 1143.818182 754.758198 
L 1194.545455 754.758198 
L 1245.272727 754.758198 
" clip-path="url(#p36e17c0e12)" style="fill: none; stroke: #aadc32; stroke-width: 6; stroke-linecap: round"/>
   </g>
   <g id="line2d_23">
    <path d="M 230.727273 798.705133 
L 281.454545 765.515582 
L 332.181818 797.456653 
L 382.909091 767.655605 
L 433.636364 788.418161 
L 484.363636 761.277702 
L 535.090909 761.627744 
L 585.818182 773.209142 
L 636.545455 798.376253 
L 687.272727 764.236348 
L 738 786.491753 
L 788.727273 805.150046 
L 839.454545 812.964449 
L 890.181818 847.407273 
L 940.909091 787.789145 
L 991.636364 773.042108 
L 1042.363636 754.851854 
L 1093.090909 807.691198 
L 1143.818182 758.607017 
L 1194.545455 791.977647 
L 1245.272727 809.312828 
" clip-path="url(#p36e17c0e12)" style="fill: none; stroke: #6ece58; stroke-width: 6; stroke-linecap: round"/>
   </g>
   <g id="line2d_24">
    <path d="M 230.727273 761.719719 
L 281.454545 732.096516 
L 332.181818 794.717697 
L 382.909091 797.270536 
L 433.636364 758.922255 
L 484.363636 771.048708 
L 535.090909 759.763972 
L 585.818182 759.093888 
L 636.545455 779.070839 
L 687.272727 794.772225 
L 738 809.165738 
L 788.727273 800.69339 
L 839.454545 819.107445 
L 890.181818 824.853355 
L 940.909091 821.271448 
L 991.636364 787.085573 
L 1042.363636 772.598375 
L 1093.090909 797.620458 
L 1143.818182 769.918604 
L 1194.545455 802.197636 
L 1245.272727 794.827804 
" clip-path="url(#p36e17c0e12)" style="fill: none; stroke: #27ad81; stroke-width: 6; stroke-linecap: round"/>
   </g>
   <g id="line2d_25">
    <path d="M 230.727273 747.505171 
L 281.454545 777.165907 
L 332.181818 747.184475 
L 382.909091 785.429334 
L 433.636364 755.946927 
L 484.363636 766.173964 
L 535.090909 739.036968 
L 585.818182 783.847456 
L 636.545455 796.013784 
L 687.272727 799.053209 
L 738 786.124207 
L 788.727273 791.774228 
L 839.454545 771.072184 
L 890.181818 842.571732 
L 940.909091 824.308621 
L 991.636364 753.31151 
L 1042.363636 799.53571 
L 1093.090909 766.980775 
L 1143.818182 792.691886 
L 1194.545455 825.161628 
L 1245.272727 771.668477 
" clip-path="url(#p36e17c0e12)" style="fill: none; stroke: #2c718e; stroke-width: 6; stroke-linecap: round"/>
   </g>
   <g id="line2d_26">
    <path d="M 230.727273 744.703499 
L 281.454545 755.41269 
L 332.181818 747.046025 
L 382.909091 751.916664 
L 433.636364 794.656761 
L 484.363636 741.011976 
L 535.090909 767.516163 
L 585.818182 769.178777 
L 636.545455 756.826932 
L 687.272727 781.095359 
L 738 801.976946 
L 788.727273 825.803242 
L 839.454545 818.869869 
L 890.181818 840.187657 
L 940.909091 792.114148 
L 991.636364 788.93679 
L 1042.363636 796.123632 
L 1093.090909 804.125275 
L 1143.818182 799.133203 
L 1194.545455 821.688679 
L 1245.272727 810.985687 
" clip-path="url(#p36e17c0e12)" style="fill: none; stroke: #440154; stroke-width: 6; stroke-linecap: round"/>
   </g>
   <g id="line2d_27"/>
   <g id="line2d_28"/>
   <g id="line2d_29"/>
   <g id="line2d_30"/>
   <g id="line2d_31"/>
   <g id="line2d_32"/>
   <g id="patch_3">
    <path d="M 180 882 
L 180 120.96 
" style="fill: none; stroke: #cccccc; stroke-width: 1.25; stroke-linejoin: miter; stroke-linecap: square"/>
   </g>
   <g id="patch_4">
    <path d="M 1296 882 
L 1296 120.96 
" style="fill: none; stroke: #cccccc; stroke-width: 1.25; stroke-linejoin: miter; stroke-linecap: square"/>
   </g>
   <g id="patch_5">
    <path d="M 180 882 
L 1296 882 
" style="fill: none; stroke: #cccccc; stroke-width: 1.25; stroke-linejoin: miter; stroke-linecap: square"/>
   </g>
   <g id="patch_6">
    <path d="M 180 120.96 
L 1296 120.96 
" style="fill: none; stroke: #cccccc; stroke-width: 1.25; stroke-linejoin: miter; stroke-linecap: square"/>
   </g>
   <g id="legend_1">
    <g id="patch_7">
     <path d="M 1309 624.968312 
L 1542.776562 624.968312 
L 1542.776562 286.168 
L 1309 286.168 
z
" style="fill: #ffffff; opacity: 0.8; stroke: #cccccc; stroke-linejoin: miter"/>
    </g>
    <g id="line2d_33">
     <path d="M 1319.4 306.078313 
L 1345.4 306.078313 
L 1371.4 306.078313 
" style="fill: none; stroke: #fde725; stroke-width: 6; stroke-linecap: round"/>
    </g>
    <g id="text_20">
     <!-- 0% Price -->
     <g style="fill: #262626" transform="translate(1392.2 315.178313)scale(0.26 -0.26)">
      <defs>
       <path id="ArialMT-25" d="M 372 3481 
Q 372 3972 619 4315 
Q 866 4659 1334 4659 
Q 1766 4659 2048 4351 
Q 2331 4044 2331 3447 
Q 2331 2866 2045 2552 
Q 1759 2238 1341 2238 
Q 925 2238 648 2547 
Q 372 2856 372 3481 
z
M 1350 4272 
Q 1141 4272 1002 4090 
Q 863 3909 863 3425 
Q 863 2984 1003 2804 
Q 1144 2625 1350 2625 
Q 1563 2625 1702 2806 
Q 1841 2988 1841 3469 
Q 1841 3913 1700 4092 
Q 1559 4272 1350 4272 
z
M 1353 -169 
L 3859 4659 
L 4316 4659 
L 1819 -169 
L 1353 -169 
z
M 3334 1075 
Q 3334 1569 3581 1911 
Q 3828 2253 4300 2253 
Q 4731 2253 5014 1945 
Q 5297 1638 5297 1041 
Q 5297 459 5011 145 
Q 4725 -169 4303 -169 
Q 3888 -169 3611 142 
Q 3334 453 3334 1075 
z
M 4316 1866 
Q 4103 1866 3964 1684 
Q 3825 1503 3825 1019 
Q 3825 581 3965 400 
Q 4106 219 4313 219 
Q 4528 219 4667 400 
Q 4806 581 4806 1063 
Q 4806 1506 4665 1686 
Q 4525 1866 4316 1866 
z
" transform="scale(0.015625)"/>
      </defs>
      <use xlink:href="#ArialMT-30"/>
      <use xlink:href="#ArialMT-25" x="55.615234"/>
      <use xlink:href="#ArialMT-20" x="144.53125"/>
      <use xlink:href="#ArialMT-50" x="172.314453"/>
      <use xlink:href="#ArialMT-72" x="239.013672"/>
      <use xlink:href="#ArialMT-69" x="272.314453"/>
      <use xlink:href="#ArialMT-63" x="294.53125"/>
      <use xlink:href="#ArialMT-65" x="344.53125"/>
     </g>
    </g>
    <g id="line2d_34">
     <path d="M 1319.4 342.856125 
L 1345.4 342.856125 
L 1371.4 342.856125 
" style="fill: none; stroke: #f4e61e; stroke-width: 6; stroke-linecap: round"/>
    </g>
    <g id="text_21">
     <!-- 12.5% Price -->
     <g style="fill: #262626" transform="translate(1392.2 351.956125)scale(0.26 -0.26)">
      <use xlink:href="#ArialMT-31"/>
      <use xlink:href="#ArialMT-32" x="55.615234"/>
      <use xlink:href="#ArialMT-2e" x="111.230469"/>
      <use xlink:href="#ArialMT-35" x="139.013672"/>
      <use xlink:href="#ArialMT-25" x="194.628906"/>
      <use xlink:href="#ArialMT-20" x="283.544922"/>
      <use xlink:href="#ArialMT-50" x="311.328125"/>
      <use xlink:href="#ArialMT-72" x="378.027344"/>
      <use xlink:href="#ArialMT-69" x="411.328125"/>
      <use xlink:href="#ArialMT-63" x="433.544922"/>
      <use xlink:href="#ArialMT-65" x="483.544922"/>
     </g>
    </g>
    <g id="line2d_35">
     <path d="M 1319.4 379.633938 
L 1345.4 379.633938 
L 1371.4 379.633938 
" style="fill: none; stroke: #eae51a; stroke-width: 6; stroke-linecap: round"/>
    </g>
    <g id="text_22">
     <!-- 25% Price -->
     <g style="fill: #262626" transform="translate(1392.2 388.733938)scale(0.26 -0.26)">
      <use xlink:href="#ArialMT-32"/>
      <use xlink:href="#ArialMT-35" x="55.615234"/>
      <use xlink:href="#ArialMT-25" x="111.230469"/>
      <use xlink:href="#ArialMT-20" x="200.146484"/>
      <use xlink:href="#ArialMT-50" x="227.929688"/>
      <use xlink:href="#ArialMT-72" x="294.628906"/>
      <use xlink:href="#ArialMT-69" x="327.929688"/>
      <use xlink:href="#ArialMT-63" x="350.146484"/>
      <use xlink:href="#ArialMT-65" x="400.146484"/>
     </g>
    </g>
    <g id="line2d_36">
     <path d="M 1319.4 416.41175 
L 1345.4 416.41175 
L 1371.4 416.41175 
" style="fill: none; stroke: #d5e21a; stroke-width: 6; stroke-linecap: round"/>
    </g>
    <g id="text_23">
     <!-- 50% Price -->
     <g style="fill: #262626" transform="translate(1392.2 425.51175)scale(0.26 -0.26)">
      <use xlink:href="#ArialMT-35"/>
      <use xlink:href="#ArialMT-30" x="55.615234"/>
      <use xlink:href="#ArialMT-25" x="111.230469"/>
      <use xlink:href="#ArialMT-20" x="200.146484"/>
      <use xlink:href="#ArialMT-50" x="227.929688"/>
      <use xlink:href="#ArialMT-72" x="294.628906"/>
      <use xlink:href="#ArialMT-69" x="327.929688"/>
      <use xlink:href="#ArialMT-63" x="350.146484"/>
      <use xlink:href="#ArialMT-65" x="400.146484"/>
     </g>
    </g>
    <g id="line2d_37">
     <path d="M 1319.4 453.189562 
L 1345.4 453.189562 
L 1371.4 453.189562 
" style="fill: none; stroke: #aadc32; stroke-width: 6; stroke-linecap: round"/>
    </g>
    <g id="text_24">
     <!-- Baseline -->
     <g style="fill: #262626" transform="translate(1392.2 462.289562)scale(0.26 -0.26)">
      <use xlink:href="#ArialMT-42"/>
      <use xlink:href="#ArialMT-61" x="66.699219"/>
      <use xlink:href="#ArialMT-73" x="122.314453"/>
      <use xlink:href="#ArialMT-65" x="172.314453"/>
      <use xlink:href="#ArialMT-6c" x="227.929688"/>
      <use xlink:href="#ArialMT-69" x="250.146484"/>
      <use xlink:href="#ArialMT-6e" x="272.363281"/>
      <use xlink:href="#ArialMT-65" x="327.978516"/>
     </g>
    </g>
    <g id="line2d_38">
     <path d="M 1319.4 489.967375 
L 1345.4 489.967375 
L 1371.4 489.967375 
" style="fill: none; stroke: #6ece58; stroke-width: 6; stroke-linecap: round"/>
    </g>
    <g id="text_25">
     <!-- 175% Price -->
     <g style="fill: #262626" transform="translate(1392.2 499.067375)scale(0.26 -0.26)">
      <use xlink:href="#ArialMT-31"/>
      <use xlink:href="#ArialMT-37" x="55.615234"/>
      <use xlink:href="#ArialMT-35" x="111.230469"/>
      <use xlink:href="#ArialMT-25" x="166.845703"/>
      <use xlink:href="#ArialMT-20" x="255.761719"/>
      <use xlink:href="#ArialMT-50" x="283.544922"/>
      <use xlink:href="#ArialMT-72" x="350.244141"/>
      <use xlink:href="#ArialMT-69" x="383.544922"/>
      <use xlink:href="#ArialMT-63" x="405.761719"/>
      <use xlink:href="#ArialMT-65" x="455.761719"/>
     </g>
    </g>
    <g id="line2d_39">
     <path d="M 1319.4 526.745187 
L 1345.4 526.745187 
L 1371.4 526.745187 
" style="fill: none; stroke: #27ad81; stroke-width: 6; stroke-linecap: round"/>
    </g>
    <g id="text_26">
     <!-- 300% Price -->
     <g style="fill: #262626" transform="translate(1392.2 535.845187)scale(0.26 -0.26)">
      <defs>
       <path id="ArialMT-33" d="M 269 1209 
L 831 1284 
Q 928 806 1161 595 
Q 1394 384 1728 384 
Q 2125 384 2398 659 
Q 2672 934 2672 1341 
Q 2672 1728 2419 1979 
Q 2166 2231 1775 2231 
Q 1616 2231 1378 2169 
L 1441 2663 
Q 1497 2656 1531 2656 
Q 1891 2656 2178 2843 
Q 2466 3031 2466 3422 
Q 2466 3731 2256 3934 
Q 2047 4138 1716 4138 
Q 1388 4138 1169 3931 
Q 950 3725 888 3313 
L 325 3413 
Q 428 3978 793 4289 
Q 1159 4600 1703 4600 
Q 2078 4600 2393 4439 
Q 2709 4278 2876 4000 
Q 3044 3722 3044 3409 
Q 3044 3113 2884 2869 
Q 2725 2625 2413 2481 
Q 2819 2388 3044 2092 
Q 3269 1797 3269 1353 
Q 3269 753 2831 336 
Q 2394 -81 1725 -81 
Q 1122 -81 723 278 
Q 325 638 269 1209 
z
" transform="scale(0.015625)"/>
      </defs>
      <use xlink:href="#ArialMT-33"/>
      <use xlink:href="#ArialMT-30" x="55.615234"/>
      <use xlink:href="#ArialMT-30" x="111.230469"/>
      <use xlink:href="#ArialMT-25" x="166.845703"/>
      <use xlink:href="#ArialMT-20" x="255.761719"/>
      <use xlink:href="#ArialMT-50" x="283.544922"/>
      <use xlink:href="#ArialMT-72" x="350.244141"/>
      <use xlink:href="#ArialMT-69" x="383.544922"/>
      <use xlink:href="#ArialMT-63" x="405.761719"/>
      <use xlink:href="#ArialMT-65" x="455.761719"/>
     </g>
    </g>
    <g id="line2d_40">
     <path d="M 1319.4 563.523 
L 1345.4 563.523 
L 1371.4 563.523 
" style="fill: none; stroke: #2c718e; stroke-width: 6; stroke-linecap: round"/>
    </g>
    <g id="text_27">
     <!-- 500% Price -->
     <g style="fill: #262626" transform="translate(1392.2 572.623)scale(0.26 -0.26)">
      <use xlink:href="#ArialMT-35"/>
      <use xlink:href="#ArialMT-30" x="55.615234"/>
      <use xlink:href="#ArialMT-30" x="111.230469"/>
      <use xlink:href="#ArialMT-25" x="166.845703"/>
      <use xlink:href="#ArialMT-20" x="255.761719"/>
      <use xlink:href="#ArialMT-50" x="283.544922"/>
      <use xlink:href="#ArialMT-72" x="350.244141"/>
      <use xlink:href="#ArialMT-69" x="383.544922"/>
      <use xlink:href="#ArialMT-63" x="405.761719"/>
      <use xlink:href="#ArialMT-65" x="455.761719"/>
     </g>
    </g>
    <g id="line2d_41">
     <path d="M 1319.4 600.300813 
L 1345.4 600.300813 
L 1371.4 600.300813 
" style="fill: none; stroke: #440154; stroke-width: 6; stroke-linecap: round"/>
    </g>
    <g id="text_28">
     <!-- 800% Price -->
     <g style="fill: #262626" transform="translate(1392.2 609.400813)scale(0.26 -0.26)">
      <use xlink:href="#ArialMT-38"/>
      <use xlink:href="#ArialMT-30" x="55.615234"/>
      <use xlink:href="#ArialMT-30" x="111.230469"/>
      <use xlink:href="#ArialMT-25" x="166.845703"/>
      <use xlink:href="#ArialMT-20" x="255.761719"/>
      <use xlink:href="#ArialMT-50" x="283.544922"/>
      <use xlink:href="#ArialMT-72" x="350.244141"/>
      <use xlink:href="#ArialMT-69" x="383.544922"/>
      <use xlink:href="#ArialMT-63" x="405.761719"/>
      <use xlink:href="#ArialMT-65" x="455.761719"/>
     </g>
    </g>
   </g>
  </g>
 </g>
 <defs>
  <clipPath id="p36e17c0e12">
   <rect x="180" y="120.96" width="1116" height="761.04"/>
  </clipPath>
 </defs>
</svg>
