<?xml version="1.0" encoding="utf-8" standalone="no"?>
<!DOCTYPE svg PUBLIC "-//W3C//DTD SVG 1.1//EN"
  "http://www.w3.org/Graphics/SVG/1.1/DTD/svg11.dtd">
<svg xmlns:xlink="http://www.w3.org/1999/xlink" width="701.063297pt" height="660.129766pt" viewBox="0 0 701.063297 660.129766" xmlns="http://www.w3.org/2000/svg" version="1.1">
 <metadata>
  <rdf:RDF xmlns:dc="http://purl.org/dc/elements/1.1/" xmlns:cc="http://creativecommons.org/ns#" xmlns:rdf="http://www.w3.org/1999/02/22-rdf-syntax-ns#">
   <cc:Work>
    <dc:type rdf:resource="http://purl.org/dc/dcmitype/StillImage"/>
    <dc:date>2023-01-30T08:56:59.750694</dc:date>
    <dc:format>image/svg+xml</dc:format>
    <dc:creator>
     <cc:Agent>
      <dc:title>Matplotlib v3.5.1, https://matplotlib.org/</dc:title>
     </cc:Agent>
    </dc:creator>
   </cc:Work>
  </rdf:RDF>
 </metadata>
 <defs>
  <style type="text/css">*{stroke-linejoin: round; stroke-linecap: butt}</style>
 </defs>
 <g id="figure_1">
  <g id="patch_1">
   <path d="M 0 660.129766 
L 701.063297 660.129766 
L 701.063297 0 
L 0 0 
z
" style="fill: #ffffff"/>
  </g>
  <g id="axes_1">
   <g id="patch_2">
    <path d="M 72.483047 292.551178 
L 507.228047 292.551178 
L 507.228047 26.084063 
L 72.483047 26.084063 
z
" style="fill: #ffffff"/>
   </g>
   <g id="matplotlib.axis_1">
    <g id="xtick_1">
     <g id="line2d_1">
      <path d="M 72.483047 292.551178 
L 72.483047 26.084063 
" clip-path="url(#p31b583dd1f)" style="fill: none; stroke: #cccccc; stroke-width: 1.5; stroke-linecap: round"/>
     </g>
    </g>
    <g id="xtick_2">
     <g id="line2d_2">
      <path d="M 159.432047 292.551178 
L 159.432047 26.084063 
" clip-path="url(#p31b583dd1f)" style="fill: none; stroke: #cccccc; stroke-width: 1.5; stroke-linecap: round"/>
     </g>
    </g>
    <g id="xtick_3">
     <g id="line2d_3">
      <path d="M 246.381047 292.551178 
L 246.381047 26.084063 
" clip-path="url(#p31b583dd1f)" style="fill: none; stroke: #cccccc; stroke-width: 1.5; stroke-linecap: round"/>
     </g>
    </g>
    <g id="xtick_4">
     <g id="line2d_4">
      <path d="M 333.330047 292.551178 
L 333.330047 26.084063 
" clip-path="url(#p31b583dd1f)" style="fill: none; stroke: #cccccc; stroke-width: 1.5; stroke-linecap: round"/>
     </g>
    </g>
    <g id="xtick_5">
     <g id="line2d_5">
      <path d="M 420.279047 292.551178 
L 420.279047 26.084063 
" clip-path="url(#p31b583dd1f)" style="fill: none; stroke: #cccccc; stroke-width: 1.5; stroke-linecap: round"/>
     </g>
    </g>
    <g id="xtick_6">
     <g id="line2d_6">
      <path d="M 507.228047 292.551178 
L 507.228047 26.084063 
" clip-path="url(#p31b583dd1f)" style="fill: none; stroke: #cccccc; stroke-width: 1.5; stroke-linecap: round"/>
     </g>
    </g>
   </g>
   <g id="matplotlib.axis_2">
    <g id="ytick_1">
     <g id="line2d_7">
      <path d="M 72.483047 292.551178 
L 507.228047 292.551178 
" clip-path="url(#p31b583dd1f)" style="fill: none; stroke: #cccccc; stroke-width: 1.5; stroke-linecap: round"/>
     </g>
     <g id="text_1">
      <!-- 0.00 -->
      <g style="fill: #262626" transform="translate(27.8725 298.456373)scale(0.165 -0.165)">
       <defs>
        <path id="ArialMT-30" d="M 266 2259 
Q 266 3072 433 3567 
Q 600 4063 929 4331 
Q 1259 4600 1759 4600 
Q 2128 4600 2406 4451 
Q 2684 4303 2865 4023 
Q 3047 3744 3150 3342 
Q 3253 2941 3253 2259 
Q 3253 1453 3087 958 
Q 2922 463 2592 192 
Q 2263 -78 1759 -78 
Q 1097 -78 719 397 
Q 266 969 266 2259 
z
M 844 2259 
Q 844 1131 1108 757 
Q 1372 384 1759 384 
Q 2147 384 2411 759 
Q 2675 1134 2675 2259 
Q 2675 3391 2411 3762 
Q 2147 4134 1753 4134 
Q 1366 4134 1134 3806 
Q 844 3388 844 2259 
z
" transform="scale(0.015625)"/>
        <path id="ArialMT-2e" d="M 581 0 
L 581 641 
L 1222 641 
L 1222 0 
L 581 0 
z
" transform="scale(0.015625)"/>
       </defs>
       <use xlink:href="#ArialMT-30"/>
       <use xlink:href="#ArialMT-2e" x="55.615234"/>
       <use xlink:href="#ArialMT-30" x="83.398438"/>
       <use xlink:href="#ArialMT-30" x="139.013672"/>
      </g>
     </g>
    </g>
    <g id="ytick_2">
     <g id="line2d_8">
      <path d="M 72.483047 236.66932 
L 507.228047 236.66932 
" clip-path="url(#p31b583dd1f)" style="fill: none; stroke: #cccccc; stroke-width: 1.5; stroke-linecap: round"/>
     </g>
     <g id="text_2">
      <!-- 0.01 -->
      <g style="fill: #262626" transform="translate(27.8725 242.574516)scale(0.165 -0.165)">
       <defs>
        <path id="ArialMT-31" d="M 2384 0 
L 1822 0 
L 1822 3584 
Q 1619 3391 1289 3197 
Q 959 3003 697 2906 
L 697 3450 
Q 1169 3672 1522 3987 
Q 1875 4303 2022 4600 
L 2384 4600 
L 2384 0 
z
" transform="scale(0.015625)"/>
       </defs>
       <use xlink:href="#ArialMT-30"/>
       <use xlink:href="#ArialMT-2e" x="55.615234"/>
       <use xlink:href="#ArialMT-30" x="83.398438"/>
       <use xlink:href="#ArialMT-31" x="139.013672"/>
      </g>
     </g>
    </g>
    <g id="ytick_3">
     <g id="line2d_9">
      <path d="M 72.483047 180.787463 
L 507.228047 180.787463 
" clip-path="url(#p31b583dd1f)" style="fill: none; stroke: #cccccc; stroke-width: 1.5; stroke-linecap: round"/>
     </g>
     <g id="text_3">
      <!-- 0.02 -->
      <g style="fill: #262626" transform="translate(27.8725 186.692658)scale(0.165 -0.165)">
       <defs>
        <path id="ArialMT-32" d="M 3222 541 
L 3222 0 
L 194 0 
Q 188 203 259 391 
Q 375 700 629 1000 
Q 884 1300 1366 1694 
Q 2113 2306 2375 2664 
Q 2638 3022 2638 3341 
Q 2638 3675 2398 3904 
Q 2159 4134 1775 4134 
Q 1369 4134 1125 3890 
Q 881 3647 878 3216 
L 300 3275 
Q 359 3922 746 4261 
Q 1134 4600 1788 4600 
Q 2447 4600 2831 4234 
Q 3216 3869 3216 3328 
Q 3216 3053 3103 2787 
Q 2991 2522 2730 2228 
Q 2469 1934 1863 1422 
Q 1356 997 1212 845 
Q 1069 694 975 541 
L 3222 541 
z
" transform="scale(0.015625)"/>
       </defs>
       <use xlink:href="#ArialMT-30"/>
       <use xlink:href="#ArialMT-2e" x="55.615234"/>
       <use xlink:href="#ArialMT-30" x="83.398438"/>
       <use xlink:href="#ArialMT-32" x="139.013672"/>
      </g>
     </g>
    </g>
    <g id="ytick_4">
     <g id="line2d_10">
      <path d="M 72.483047 124.905605 
L 507.228047 124.905605 
" clip-path="url(#p31b583dd1f)" style="fill: none; stroke: #cccccc; stroke-width: 1.5; stroke-linecap: round"/>
     </g>
     <g id="text_4">
      <!-- 0.03 -->
      <g style="fill: #262626" transform="translate(27.8725 130.810801)scale(0.165 -0.165)">
       <defs>
        <path id="ArialMT-33" d="M 269 1209 
L 831 1284 
Q 928 806 1161 595 
Q 1394 384 1728 384 
Q 2125 384 2398 659 
Q 2672 934 2672 1341 
Q 2672 1728 2419 1979 
Q 2166 2231 1775 2231 
Q 1616 2231 1378 2169 
L 1441 2663 
Q 1497 2656 1531 2656 
Q 1891 2656 2178 2843 
Q 2466 3031 2466 3422 
Q 2466 3731 2256 3934 
Q 2047 4138 1716 4138 
Q 1388 4138 1169 3931 
Q 950 3725 888 3313 
L 325 3413 
Q 428 3978 793 4289 
Q 1159 4600 1703 4600 
Q 2078 4600 2393 4439 
Q 2709 4278 2876 4000 
Q 3044 3722 3044 3409 
Q 3044 3113 2884 2869 
Q 2725 2625 2413 2481 
Q 2819 2388 3044 2092 
Q 3269 1797 3269 1353 
Q 3269 753 2831 336 
Q 2394 -81 1725 -81 
Q 1122 -81 723 278 
Q 325 638 269 1209 
z
" transform="scale(0.015625)"/>
       </defs>
       <use xlink:href="#ArialMT-30"/>
       <use xlink:href="#ArialMT-2e" x="55.615234"/>
       <use xlink:href="#ArialMT-30" x="83.398438"/>
       <use xlink:href="#ArialMT-33" x="139.013672"/>
      </g>
     </g>
    </g>
    <g id="ytick_5">
     <g id="line2d_11">
      <path d="M 72.483047 69.023748 
L 507.228047 69.023748 
" clip-path="url(#p31b583dd1f)" style="fill: none; stroke: #cccccc; stroke-width: 1.5; stroke-linecap: round"/>
     </g>
     <g id="text_5">
      <!-- 0.04 -->
      <g style="fill: #262626" transform="translate(27.8725 74.928943)scale(0.165 -0.165)">
       <defs>
        <path id="ArialMT-34" d="M 2069 0 
L 2069 1097 
L 81 1097 
L 81 1613 
L 2172 4581 
L 2631 4581 
L 2631 1613 
L 3250 1613 
L 3250 1097 
L 2631 1097 
L 2631 0 
L 2069 0 
z
M 2069 1613 
L 2069 3678 
L 634 1613 
L 2069 1613 
z
" transform="scale(0.015625)"/>
       </defs>
       <use xlink:href="#ArialMT-30"/>
       <use xlink:href="#ArialMT-2e" x="55.615234"/>
       <use xlink:href="#ArialMT-30" x="83.398438"/>
       <use xlink:href="#ArialMT-34" x="139.013672"/>
      </g>
     </g>
    </g>
    <g id="text_6">
     <!-- Frequency Density -->
     <g style="fill: #262626" transform="translate(20.084063 234.345277)rotate(-90)scale(0.18 -0.18)">
      <defs>
       <path id="ArialMT-46" d="M 525 0 
L 525 4581 
L 3616 4581 
L 3616 4041 
L 1131 4041 
L 1131 2622 
L 3281 2622 
L 3281 2081 
L 1131 2081 
L 1131 0 
L 525 0 
z
" transform="scale(0.015625)"/>
       <path id="ArialMT-72" d="M 416 0 
L 416 3319 
L 922 3319 
L 922 2816 
Q 1116 3169 1280 3281 
Q 1444 3394 1641 3394 
Q 1925 3394 2219 3213 
L 2025 2691 
Q 1819 2813 1613 2813 
Q 1428 2813 1281 2702 
Q 1134 2591 1072 2394 
Q 978 2094 978 1738 
L 978 0 
L 416 0 
z
" transform="scale(0.015625)"/>
       <path id="ArialMT-65" d="M 2694 1069 
L 3275 997 
Q 3138 488 2766 206 
Q 2394 -75 1816 -75 
Q 1088 -75 661 373 
Q 234 822 234 1631 
Q 234 2469 665 2931 
Q 1097 3394 1784 3394 
Q 2450 3394 2872 2941 
Q 3294 2488 3294 1666 
Q 3294 1616 3291 1516 
L 816 1516 
Q 847 969 1125 678 
Q 1403 388 1819 388 
Q 2128 388 2347 550 
Q 2566 713 2694 1069 
z
M 847 1978 
L 2700 1978 
Q 2663 2397 2488 2606 
Q 2219 2931 1791 2931 
Q 1403 2931 1139 2672 
Q 875 2413 847 1978 
z
" transform="scale(0.015625)"/>
       <path id="ArialMT-71" d="M 2538 -1272 
L 2538 353 
Q 2406 169 2170 47 
Q 1934 -75 1669 -75 
Q 1078 -75 651 397 
Q 225 869 225 1691 
Q 225 2191 398 2587 
Q 572 2984 901 3189 
Q 1231 3394 1625 3394 
Q 2241 3394 2594 2875 
L 2594 3319 
L 3100 3319 
L 3100 -1272 
L 2538 -1272 
z
M 803 1669 
Q 803 1028 1072 708 
Q 1341 388 1716 388 
Q 2075 388 2334 692 
Q 2594 997 2594 1619 
Q 2594 2281 2320 2615 
Q 2047 2950 1678 2950 
Q 1313 2950 1058 2639 
Q 803 2328 803 1669 
z
" transform="scale(0.015625)"/>
       <path id="ArialMT-75" d="M 2597 0 
L 2597 488 
Q 2209 -75 1544 -75 
Q 1250 -75 995 37 
Q 741 150 617 320 
Q 494 491 444 738 
Q 409 903 409 1263 
L 409 3319 
L 972 3319 
L 972 1478 
Q 972 1038 1006 884 
Q 1059 663 1231 536 
Q 1403 409 1656 409 
Q 1909 409 2131 539 
Q 2353 669 2445 892 
Q 2538 1116 2538 1541 
L 2538 3319 
L 3100 3319 
L 3100 0 
L 2597 0 
z
" transform="scale(0.015625)"/>
       <path id="ArialMT-6e" d="M 422 0 
L 422 3319 
L 928 3319 
L 928 2847 
Q 1294 3394 1984 3394 
Q 2284 3394 2536 3286 
Q 2788 3178 2913 3003 
Q 3038 2828 3088 2588 
Q 3119 2431 3119 2041 
L 3119 0 
L 2556 0 
L 2556 2019 
Q 2556 2363 2490 2533 
Q 2425 2703 2258 2804 
Q 2091 2906 1866 2906 
Q 1506 2906 1245 2678 
Q 984 2450 984 1813 
L 984 0 
L 422 0 
z
" transform="scale(0.015625)"/>
       <path id="ArialMT-63" d="M 2588 1216 
L 3141 1144 
Q 3050 572 2676 248 
Q 2303 -75 1759 -75 
Q 1078 -75 664 370 
Q 250 816 250 1647 
Q 250 2184 428 2587 
Q 606 2991 970 3192 
Q 1334 3394 1763 3394 
Q 2303 3394 2647 3120 
Q 2991 2847 3088 2344 
L 2541 2259 
Q 2463 2594 2264 2762 
Q 2066 2931 1784 2931 
Q 1359 2931 1093 2626 
Q 828 2322 828 1663 
Q 828 994 1084 691 
Q 1341 388 1753 388 
Q 2084 388 2306 591 
Q 2528 794 2588 1216 
z
" transform="scale(0.015625)"/>
       <path id="ArialMT-79" d="M 397 -1278 
L 334 -750 
Q 519 -800 656 -800 
Q 844 -800 956 -737 
Q 1069 -675 1141 -563 
Q 1194 -478 1313 -144 
Q 1328 -97 1363 -6 
L 103 3319 
L 709 3319 
L 1400 1397 
Q 1534 1031 1641 628 
Q 1738 1016 1872 1384 
L 2581 3319 
L 3144 3319 
L 1881 -56 
Q 1678 -603 1566 -809 
Q 1416 -1088 1222 -1217 
Q 1028 -1347 759 -1347 
Q 597 -1347 397 -1278 
z
" transform="scale(0.015625)"/>
       <path id="ArialMT-20" transform="scale(0.015625)"/>
       <path id="ArialMT-44" d="M 494 0 
L 494 4581 
L 2072 4581 
Q 2606 4581 2888 4516 
Q 3281 4425 3559 4188 
Q 3922 3881 4101 3404 
Q 4281 2928 4281 2316 
Q 4281 1794 4159 1391 
Q 4038 988 3847 723 
Q 3656 459 3429 307 
Q 3203 156 2883 78 
Q 2563 0 2147 0 
L 494 0 
z
M 1100 541 
L 2078 541 
Q 2531 541 2789 625 
Q 3047 709 3200 863 
Q 3416 1078 3536 1442 
Q 3656 1806 3656 2325 
Q 3656 3044 3420 3430 
Q 3184 3816 2847 3947 
Q 2603 4041 2063 4041 
L 1100 4041 
L 1100 541 
z
" transform="scale(0.015625)"/>
       <path id="ArialMT-73" d="M 197 991 
L 753 1078 
Q 800 744 1014 566 
Q 1228 388 1613 388 
Q 2000 388 2187 545 
Q 2375 703 2375 916 
Q 2375 1106 2209 1216 
Q 2094 1291 1634 1406 
Q 1016 1563 777 1677 
Q 538 1791 414 1992 
Q 291 2194 291 2438 
Q 291 2659 392 2848 
Q 494 3038 669 3163 
Q 800 3259 1026 3326 
Q 1253 3394 1513 3394 
Q 1903 3394 2198 3281 
Q 2494 3169 2634 2976 
Q 2775 2784 2828 2463 
L 2278 2388 
Q 2241 2644 2061 2787 
Q 1881 2931 1553 2931 
Q 1166 2931 1000 2803 
Q 834 2675 834 2503 
Q 834 2394 903 2306 
Q 972 2216 1119 2156 
Q 1203 2125 1616 2013 
Q 2213 1853 2448 1751 
Q 2684 1650 2818 1456 
Q 2953 1263 2953 975 
Q 2953 694 2789 445 
Q 2625 197 2315 61 
Q 2006 -75 1616 -75 
Q 969 -75 630 194 
Q 291 463 197 991 
z
" transform="scale(0.015625)"/>
       <path id="ArialMT-69" d="M 425 3934 
L 425 4581 
L 988 4581 
L 988 3934 
L 425 3934 
z
M 425 0 
L 425 3319 
L 988 3319 
L 988 0 
L 425 0 
z
" transform="scale(0.015625)"/>
       <path id="ArialMT-74" d="M 1650 503 
L 1731 6 
Q 1494 -44 1306 -44 
Q 1000 -44 831 53 
Q 663 150 594 308 
Q 525 466 525 972 
L 525 2881 
L 113 2881 
L 113 3319 
L 525 3319 
L 525 4141 
L 1084 4478 
L 1084 3319 
L 1650 3319 
L 1650 2881 
L 1084 2881 
L 1084 941 
Q 1084 700 1114 631 
Q 1144 563 1211 522 
Q 1278 481 1403 481 
Q 1497 481 1650 503 
z
" transform="scale(0.015625)"/>
      </defs>
      <use xlink:href="#ArialMT-46"/>
      <use xlink:href="#ArialMT-72" x="61.083984"/>
      <use xlink:href="#ArialMT-65" x="94.384766"/>
      <use xlink:href="#ArialMT-71" x="150"/>
      <use xlink:href="#ArialMT-75" x="205.615234"/>
      <use xlink:href="#ArialMT-65" x="261.230469"/>
      <use xlink:href="#ArialMT-6e" x="316.845703"/>
      <use xlink:href="#ArialMT-63" x="372.460938"/>
      <use xlink:href="#ArialMT-79" x="422.460938"/>
      <use xlink:href="#ArialMT-20" x="472.460938"/>
      <use xlink:href="#ArialMT-44" x="500.244141"/>
      <use xlink:href="#ArialMT-65" x="572.460938"/>
      <use xlink:href="#ArialMT-6e" x="628.076172"/>
      <use xlink:href="#ArialMT-73" x="683.691406"/>
      <use xlink:href="#ArialMT-69" x="733.691406"/>
      <use xlink:href="#ArialMT-74" x="755.908203"/>
      <use xlink:href="#ArialMT-79" x="783.691406"/>
     </g>
    </g>
   </g>
   <g id="line2d_12">
    <path d="M -1 291.708346 
L 6.915363 291.626229 
L 38.562012 291.523222 
L 54.385336 291.11385 
L 78.120322 290.464762 
L 93.943647 290.036139 
L 109.766971 289.435832 
L 125.590295 288.543793 
L 141.41362 287.26805 
L 149.325282 286.425113 
L 157.236944 285.317895 
L 165.148606 283.877391 
L 173.060268 282.038756 
L 180.97193 279.65074 
L 188.883593 276.517028 
L 196.795255 272.426681 
L 204.706917 267.075418 
L 212.618579 260.095777 
L 220.530241 251.245981 
L 228.441903 240.719408 
L 236.353565 229.437512 
L 244.265228 218.785099 
L 252.17689 209.638599 
L 260.088552 201.508287 
L 268.000214 192.637938 
L 275.911876 180.994985 
L 283.823538 165.004364 
L 291.735201 143.532582 
L 299.646863 116.344925 
L 307.558525 86.214555 
L 315.470187 61.007184 
L 323.381849 51.071767 
L 331.293511 61.196557 
L 339.205173 85.756651 
L 347.116836 114.765567 
L 378.763484 227.975809 
L 386.675146 252.066503 
L 394.586808 269.984223 
L 402.498471 281.168657 
L 410.410133 286.912092 
L 418.321795 289.314344 
L 426.233457 290.254192 
L 449.968444 291.9589 
L 457.880106 292.307154 
L 473.70343 292.533817 
L 489.526754 292.550847 
L 489.526754 292.550847 
" clip-path="url(#p31b583dd1f)" style="fill: none; stroke: #f6c19f; stroke-width: 2.25; stroke-linecap: round"/>
   </g>
   <g id="line2d_13">
    <path d="M -1 291.761082 
L 27.015043 291.602708 
L 44.81834 291.436492 
L 62.621637 291.108544 
L 80.424934 290.60777 
L 98.228231 289.943856 
L 116.031528 289.126345 
L 133.834825 288.061158 
L 151.638122 286.237158 
L 169.441419 282.986164 
L 187.244716 277.20169 
L 205.048013 266.634964 
L 222.85131 248.271751 
L 240.654607 223.650949 
L 258.457904 202.718093 
L 276.261201 179.914803 
L 294.064498 135.234706 
L 311.867795 71.91146 
L 329.671092 58.709925 
L 347.474389 116.165953 
L 365.277686 179.438969 
L 383.080983 241.659653 
L 400.88428 279.389456 
L 418.687577 289.309157 
L 436.490874 290.973735 
L 454.294171 292.174194 
L 472.097468 292.525996 
L 489.900765 292.550817 
L 489.900765 292.550817 
" clip-path="url(#p31b583dd1f)" style="fill: none; stroke: #f5946b; stroke-width: 2.25; stroke-linecap: round"/>
   </g>
   <g id="line2d_14">
    <path d="M -1 291.794112 
L 17.4384 291.508358 
L 52.896312 291.289665 
L 97.218702 290.132869 
L 114.947658 289.441783 
L 123.812135 288.954764 
L 132.676613 288.324156 
L 141.541091 287.464068 
L 150.405569 286.301352 
L 159.270047 284.790883 
L 168.134525 282.896017 
L 176.999003 280.552473 
L 185.863481 277.518402 
L 194.727959 273.366882 
L 203.592437 267.617101 
L 212.456915 259.857618 
L 221.321393 249.969913 
L 230.185871 238.29218 
L 239.050349 225.786921 
L 247.914827 214.201935 
L 265.643783 195.035642 
L 274.508261 182.130162 
L 283.372739 164.121309 
L 292.237217 140.189213 
L 301.101695 109.855846 
L 309.966173 77.376033 
L 318.830651 54.975033 
L 327.695129 55.147986 
L 336.559607 77.287006 
L 354.288563 140.709486 
L 363.153041 172.55412 
L 372.017519 205.052904 
L 380.881997 235.720543 
L 389.746474 260.548371 
L 398.610952 276.934686 
L 407.47543 285.479472 
L 416.339908 288.946934 
L 425.204386 290.176549 
L 442.933342 291.561835 
L 451.79782 292.107631 
L 460.662298 292.409238 
L 478.391254 292.546677 
L 487.255732 292.550757 
L 487.255732 292.550757 
" clip-path="url(#p31b583dd1f)" style="fill: none; stroke: #f06043; stroke-width: 2.25; stroke-linecap: round"/>
   </g>
   <g id="line2d_15">
    <path d="M -1 291.80725 
L 19.515066 291.524388 
L 43.287096 291.274831 
L 82.907146 290.504 
L 98.755166 289.95154 
L 122.527196 288.694312 
L 130.451206 288.190511 
L 138.375216 287.574126 
L 146.299226 286.755852 
L 154.223236 285.636915 
L 162.147246 284.201235 
L 170.071256 282.457138 
L 177.995266 280.258359 
L 185.919276 277.336665 
L 193.843286 273.487941 
L 201.767296 268.541039 
L 209.691306 262.226737 
L 217.615316 254.275177 
L 225.539326 244.697589 
L 241.387346 223.641516 
L 249.311356 214.416273 
L 257.235366 206.252859 
L 265.159376 197.397175 
L 273.083386 185.531979 
L 281.007396 169.338057 
L 288.931406 148.67517 
L 296.855416 123.677549 
L 304.779426 95.514558 
L 312.703436 69.270584 
L 320.627446 54.19189 
L 328.551456 57.457697 
L 336.475466 77.209578 
L 344.399476 104.687412 
L 360.247496 161.552868 
L 376.095516 219.359558 
L 384.019526 245.177264 
L 391.943536 265.288557 
L 399.867546 278.508092 
L 407.791556 285.663123 
L 415.715566 288.767485 
L 423.639576 289.926729 
L 447.411606 291.816182 
L 455.335616 292.238492 
L 463.259626 292.45038 
L 479.107646 292.547032 
L 487.031656 292.550672 
L 487.031656 292.550672 
" clip-path="url(#p31b583dd1f)" style="fill: none; stroke: #dd2c45; stroke-width: 2.25; stroke-linecap: round"/>
   </g>
   <g id="line2d_16">
    <path d="M -1 291.712231 
L 55.012079 291.175173 
L 95.037033 290.239762 
L 101.707858 289.990873 
L 115.04951 289.161271 
L 148.403638 286.460816 
L 155.074464 285.692996 
L 161.745289 284.700162 
L 168.416115 283.375807 
L 175.086941 281.610633 
L 181.757766 279.345912 
L 188.428592 276.555747 
L 195.099418 273.141765 
L 201.770243 268.891349 
L 208.441069 263.588518 
L 215.111895 257.131376 
L 221.78272 249.531902 
L 228.453546 240.9308 
L 241.795197 222.683032 
L 248.466023 214.503171 
L 255.136848 207.389825 
L 261.807674 200.626469 
L 268.4785 192.823555 
L 275.149325 182.645925 
L 281.820151 169.341596 
L 288.490977 152.616709 
L 295.161802 132.37141 
L 301.832628 109.157875 
L 308.503454 85.323293 
L 315.174279 65.553206 
L 321.845105 55.390736 
L 328.515931 58.037305 
L 335.186756 72.109547 
L 341.857582 92.904736 
L 348.528408 116.075604 
L 355.199233 139.8887 
L 361.870059 164.424787 
L 375.21171 214.700122 
L 381.882536 237.731866 
L 388.553362 256.977747 
L 395.224187 271.318015 
L 401.895013 280.719616 
L 408.565838 286.069588 
L 415.236664 288.682798 
L 421.90749 289.824405 
L 435.249141 290.889103 
L 448.590792 291.85358 
L 455.261618 292.197506 
L 468.603269 292.50041 
L 488.615746 292.550669 
L 488.615746 292.550669 
" clip-path="url(#p31b583dd1f)" style="fill: none; stroke: #b41658; stroke-width: 2.25; stroke-linecap: round"/>
   </g>
   <g id="line2d_17">
    <path d="M -1 291.815336 
L 20.620837 291.599126 
L 70.943043 290.947562 
L 104.49118 289.856382 
L 112.878214 289.492142 
L 121.265248 289.014631 
L 138.039317 287.703262 
L 146.426351 286.902292 
L 154.813385 285.912908 
L 163.200419 284.578553 
L 171.587454 282.728295 
L 179.974488 280.224616 
L 188.361522 276.922726 
L 196.748556 272.578121 
L 205.135591 266.830425 
L 213.522625 259.252888 
L 221.909659 249.59064 
L 230.296693 238.276883 
L 238.683728 226.629001 
L 247.070762 216.18532 
L 263.844831 198.622046 
L 272.231865 187.374075 
L 280.618899 171.785117 
L 289.005933 151.007647 
L 297.392968 124.851136 
L 305.780002 95.253301 
L 314.167036 68.773154 
L 322.55407 55.43477 
L 330.941105 61.38774 
L 339.328139 82.896197 
L 347.715173 111.292121 
L 356.102207 141.772335 
L 372.876276 205.73004 
L 381.26331 235.573515 
L 389.650344 259.690811 
L 398.037379 275.892968 
L 406.424413 284.680802 
L 414.811447 288.449434 
L 423.198481 289.807258 
L 448.359584 291.806454 
L 456.746618 292.242176 
L 465.133653 292.456079 
L 481.907721 292.54793 
L 490.294756 292.550837 
L 490.294756 292.550837 
" clip-path="url(#p31b583dd1f)" style="fill: none; stroke: #841e5a; stroke-width: 2.25; stroke-linecap: round"/>
   </g>
   <g id="line2d_18">
    <path d="M -1 291.666323 
L 38.469627 291.466531 
L 59.973115 291.081885 
L 81.476603 290.585728 
L 113.731835 289.539071 
L 124.483578 289.050053 
L 135.235322 288.269883 
L 145.987066 287.170264 
L 156.73881 285.736364 
L 167.490554 283.866732 
L 178.242298 281.128351 
L 188.994042 277.048261 
L 199.745786 271.277785 
L 210.497529 262.84931 
L 221.249273 250.956844 
L 242.752761 222.112836 
L 253.504505 210.19972 
L 264.256249 198.547798 
L 275.007993 182.766552 
L 285.759737 160.225662 
L 296.51148 129.164235 
L 307.263224 91.625436 
L 318.014968 61.596129 
L 328.766712 58.093232 
L 339.518456 81.295753 
L 350.2702 116.651655 
L 361.021944 157.43668 
L 371.773688 200.454348 
L 382.525431 239.286561 
L 393.277175 267.465441 
L 404.028919 282.711032 
L 414.780663 288.49707 
L 425.532407 290.142964 
L 447.035895 291.768588 
L 457.787639 292.301407 
L 468.539382 292.504288 
L 490.04287 292.550911 
L 490.04287 292.550911 
" clip-path="url(#p31b583dd1f)" style="fill: none; stroke: #541e4e; stroke-width: 2.25; stroke-linecap: round"/>
   </g>
   <g id="line2d_19">
    <path d="M -1 291.837812 
L 15.713277 291.777531 
L 79.761822 290.661321 
L 98.061406 290.017872 
L 116.36099 289.164509 
L 125.510782 288.65509 
L 134.660575 287.984113 
L 143.810367 287.102659 
L 152.960159 285.973413 
L 162.109951 284.568373 
L 171.259743 282.779414 
L 180.409535 280.232482 
L 189.559327 276.509938 
L 198.709119 271.351193 
L 207.858911 264.405639 
L 217.008703 255.29247 
L 226.158495 244.115503 
L 235.308287 231.859278 
L 244.45808 220.221981 
L 253.607872 210.367094 
L 262.757664 201.205361 
L 271.907456 189.625346 
L 281.057248 172.965 
L 290.20704 149.943342 
L 299.356832 120.336089 
L 308.506624 87.873447 
L 317.656416 63.159878 
L 326.806208 57.567369 
L 335.956 72.114996 
L 345.105792 98.484559 
L 354.255584 130.517842 
L 363.405377 166.315016 
L 372.555169 202.978892 
L 381.704961 236.158465 
L 390.854753 261.803426 
L 400.004545 277.98062 
L 409.154337 286.033318 
L 418.304129 289.144454 
L 427.453921 290.243256 
L 445.753505 291.628621 
L 454.903297 292.156662 
L 464.053089 292.43221 
L 482.352674 292.547892 
L 491.502466 292.550891 
L 491.502466 292.550891 
" clip-path="url(#p31b583dd1f)" style="fill: none; stroke: #2a1636; stroke-width: 2.25; stroke-linecap: round"/>
   </g>
   <g id="patch_3">
    <path d="M 72.483047 292.551178 
L 72.483047 26.084063 
" style="fill: none; stroke: #cccccc; stroke-width: 1.875; stroke-linejoin: miter; stroke-linecap: square"/>
   </g>
   <g id="patch_4">
    <path d="M 72.483047 292.551178 
L 507.228047 292.551178 
" style="fill: none; stroke: #cccccc; stroke-width: 1.875; stroke-linejoin: miter; stroke-linecap: square"/>
   </g>
   <g id="text_7">
    <!-- Lowest 10% Income -->
    <g style="fill: #262626" transform="translate(208.816172 20.084063)scale(0.18 -0.18)">
     <defs>
      <path id="ArialMT-4c" d="M 469 0 
L 469 4581 
L 1075 4581 
L 1075 541 
L 3331 541 
L 3331 0 
L 469 0 
z
" transform="scale(0.015625)"/>
      <path id="ArialMT-6f" d="M 213 1659 
Q 213 2581 725 3025 
Q 1153 3394 1769 3394 
Q 2453 3394 2887 2945 
Q 3322 2497 3322 1706 
Q 3322 1066 3130 698 
Q 2938 331 2570 128 
Q 2203 -75 1769 -75 
Q 1072 -75 642 372 
Q 213 819 213 1659 
z
M 791 1659 
Q 791 1022 1069 705 
Q 1347 388 1769 388 
Q 2188 388 2466 706 
Q 2744 1025 2744 1678 
Q 2744 2294 2464 2611 
Q 2184 2928 1769 2928 
Q 1347 2928 1069 2612 
Q 791 2297 791 1659 
z
" transform="scale(0.015625)"/>
      <path id="ArialMT-77" d="M 1034 0 
L 19 3319 
L 600 3319 
L 1128 1403 
L 1325 691 
Q 1338 744 1497 1375 
L 2025 3319 
L 2603 3319 
L 3100 1394 
L 3266 759 
L 3456 1400 
L 4025 3319 
L 4572 3319 
L 3534 0 
L 2950 0 
L 2422 1988 
L 2294 2553 
L 1622 0 
L 1034 0 
z
" transform="scale(0.015625)"/>
      <path id="ArialMT-25" d="M 372 3481 
Q 372 3972 619 4315 
Q 866 4659 1334 4659 
Q 1766 4659 2048 4351 
Q 2331 4044 2331 3447 
Q 2331 2866 2045 2552 
Q 1759 2238 1341 2238 
Q 925 2238 648 2547 
Q 372 2856 372 3481 
z
M 1350 4272 
Q 1141 4272 1002 4090 
Q 863 3909 863 3425 
Q 863 2984 1003 2804 
Q 1144 2625 1350 2625 
Q 1563 2625 1702 2806 
Q 1841 2988 1841 3469 
Q 1841 3913 1700 4092 
Q 1559 4272 1350 4272 
z
M 1353 -169 
L 3859 4659 
L 4316 4659 
L 1819 -169 
L 1353 -169 
z
M 3334 1075 
Q 3334 1569 3581 1911 
Q 3828 2253 4300 2253 
Q 4731 2253 5014 1945 
Q 5297 1638 5297 1041 
Q 5297 459 5011 145 
Q 4725 -169 4303 -169 
Q 3888 -169 3611 142 
Q 3334 453 3334 1075 
z
M 4316 1866 
Q 4103 1866 3964 1684 
Q 3825 1503 3825 1019 
Q 3825 581 3965 400 
Q 4106 219 4313 219 
Q 4528 219 4667 400 
Q 4806 581 4806 1063 
Q 4806 1506 4665 1686 
Q 4525 1866 4316 1866 
z
" transform="scale(0.015625)"/>
      <path id="ArialMT-49" d="M 597 0 
L 597 4581 
L 1203 4581 
L 1203 0 
L 597 0 
z
" transform="scale(0.015625)"/>
      <path id="ArialMT-6d" d="M 422 0 
L 422 3319 
L 925 3319 
L 925 2853 
Q 1081 3097 1340 3245 
Q 1600 3394 1931 3394 
Q 2300 3394 2536 3241 
Q 2772 3088 2869 2813 
Q 3263 3394 3894 3394 
Q 4388 3394 4653 3120 
Q 4919 2847 4919 2278 
L 4919 0 
L 4359 0 
L 4359 2091 
Q 4359 2428 4304 2576 
Q 4250 2725 4106 2815 
Q 3963 2906 3769 2906 
Q 3419 2906 3187 2673 
Q 2956 2441 2956 1928 
L 2956 0 
L 2394 0 
L 2394 2156 
Q 2394 2531 2256 2718 
Q 2119 2906 1806 2906 
Q 1569 2906 1367 2781 
Q 1166 2656 1075 2415 
Q 984 2175 984 1722 
L 984 0 
L 422 0 
z
" transform="scale(0.015625)"/>
     </defs>
     <use xlink:href="#ArialMT-4c"/>
     <use xlink:href="#ArialMT-6f" x="55.615234"/>
     <use xlink:href="#ArialMT-77" x="111.230469"/>
     <use xlink:href="#ArialMT-65" x="183.447266"/>
     <use xlink:href="#ArialMT-73" x="239.0625"/>
     <use xlink:href="#ArialMT-74" x="289.0625"/>
     <use xlink:href="#ArialMT-20" x="316.845703"/>
     <use xlink:href="#ArialMT-31" x="344.628906"/>
     <use xlink:href="#ArialMT-30" x="400.244141"/>
     <use xlink:href="#ArialMT-25" x="455.859375"/>
     <use xlink:href="#ArialMT-20" x="544.775391"/>
     <use xlink:href="#ArialMT-49" x="572.558594"/>
     <use xlink:href="#ArialMT-6e" x="600.341797"/>
     <use xlink:href="#ArialMT-63" x="655.957031"/>
     <use xlink:href="#ArialMT-6f" x="705.957031"/>
     <use xlink:href="#ArialMT-6d" x="761.572266"/>
     <use xlink:href="#ArialMT-65" x="844.873047"/>
    </g>
   </g>
  </g>
  <g id="axes_2">
   <g id="patch_5">
    <path d="M 72.483047 604.878438 
L 507.228047 604.878438 
L 507.228047 338.411322 
L 72.483047 338.411322 
z
" style="fill: #ffffff"/>
   </g>
   <g id="matplotlib.axis_3">
    <g id="xtick_7">
     <g id="line2d_20">
      <path d="M 72.483047 604.878438 
L 72.483047 338.411322 
" clip-path="url(#pda303aa4a0)" style="fill: none; stroke: #cccccc; stroke-width: 1.5; stroke-linecap: round"/>
     </g>
     <g id="text_8">
      <!-- −60 -->
      <g style="fill: #262626" transform="translate(58.488984 629.188828)scale(0.165 -0.165)">
       <defs>
        <path id="ArialMT-2212" d="M 3381 1997 
L 356 1997 
L 356 2522 
L 3381 2522 
L 3381 1997 
z
" transform="scale(0.015625)"/>
        <path id="ArialMT-36" d="M 3184 3459 
L 2625 3416 
Q 2550 3747 2413 3897 
Q 2184 4138 1850 4138 
Q 1581 4138 1378 3988 
Q 1113 3794 959 3422 
Q 806 3050 800 2363 
Q 1003 2672 1297 2822 
Q 1591 2972 1913 2972 
Q 2475 2972 2870 2558 
Q 3266 2144 3266 1488 
Q 3266 1056 3080 686 
Q 2894 316 2569 119 
Q 2244 -78 1831 -78 
Q 1128 -78 684 439 
Q 241 956 241 2144 
Q 241 3472 731 4075 
Q 1159 4600 1884 4600 
Q 2425 4600 2770 4297 
Q 3116 3994 3184 3459 
z
M 888 1484 
Q 888 1194 1011 928 
Q 1134 663 1356 523 
Q 1578 384 1822 384 
Q 2178 384 2434 671 
Q 2691 959 2691 1453 
Q 2691 1928 2437 2201 
Q 2184 2475 1800 2475 
Q 1419 2475 1153 2201 
Q 888 1928 888 1484 
z
" transform="scale(0.015625)"/>
       </defs>
       <use xlink:href="#ArialMT-2212"/>
       <use xlink:href="#ArialMT-36" x="58.398438"/>
       <use xlink:href="#ArialMT-30" x="114.013672"/>
      </g>
     </g>
    </g>
    <g id="xtick_8">
     <g id="line2d_21">
      <path d="M 159.432047 604.878438 
L 159.432047 338.411322 
" clip-path="url(#pda303aa4a0)" style="fill: none; stroke: #cccccc; stroke-width: 1.5; stroke-linecap: round"/>
     </g>
     <g id="text_9">
      <!-- −40 -->
      <g style="fill: #262626" transform="translate(145.437984 629.188828)scale(0.165 -0.165)">
       <use xlink:href="#ArialMT-2212"/>
       <use xlink:href="#ArialMT-34" x="58.398438"/>
       <use xlink:href="#ArialMT-30" x="114.013672"/>
      </g>
     </g>
    </g>
    <g id="xtick_9">
     <g id="line2d_22">
      <path d="M 246.381047 604.878438 
L 246.381047 338.411322 
" clip-path="url(#pda303aa4a0)" style="fill: none; stroke: #cccccc; stroke-width: 1.5; stroke-linecap: round"/>
     </g>
     <g id="text_10">
      <!-- −20 -->
      <g style="fill: #262626" transform="translate(232.386984 629.188828)scale(0.165 -0.165)">
       <use xlink:href="#ArialMT-2212"/>
       <use xlink:href="#ArialMT-32" x="58.398438"/>
       <use xlink:href="#ArialMT-30" x="114.013672"/>
      </g>
     </g>
    </g>
    <g id="xtick_10">
     <g id="line2d_23">
      <path d="M 333.330047 604.878438 
L 333.330047 338.411322 
" clip-path="url(#pda303aa4a0)" style="fill: none; stroke: #cccccc; stroke-width: 1.5; stroke-linecap: round"/>
     </g>
     <g id="text_11">
      <!-- 0 -->
      <g style="fill: #262626" transform="translate(328.742273 629.188828)scale(0.165 -0.165)">
       <use xlink:href="#ArialMT-30"/>
      </g>
     </g>
    </g>
    <g id="xtick_11">
     <g id="line2d_24">
      <path d="M 420.279047 604.878438 
L 420.279047 338.411322 
" clip-path="url(#pda303aa4a0)" style="fill: none; stroke: #cccccc; stroke-width: 1.5; stroke-linecap: round"/>
     </g>
     <g id="text_12">
      <!-- 20 -->
      <g style="fill: #262626" transform="translate(411.1035 629.188828)scale(0.165 -0.165)">
       <use xlink:href="#ArialMT-32"/>
       <use xlink:href="#ArialMT-30" x="55.615234"/>
      </g>
     </g>
    </g>
    <g id="xtick_12">
     <g id="line2d_25">
      <path d="M 507.228047 604.878438 
L 507.228047 338.411322 
" clip-path="url(#pda303aa4a0)" style="fill: none; stroke: #cccccc; stroke-width: 1.5; stroke-linecap: round"/>
     </g>
     <g id="text_13">
      <!-- 40 -->
      <g style="fill: #262626" transform="translate(498.0525 629.188828)scale(0.165 -0.165)">
       <use xlink:href="#ArialMT-34"/>
       <use xlink:href="#ArialMT-30" x="55.615234"/>
      </g>
     </g>
    </g>
    <g id="text_14">
     <!-- Potential INEXUS in dollar -->
     <g style="fill: #262626" transform="translate(184.807266 649.352266)scale(0.18 -0.18)">
      <defs>
       <path id="ArialMT-50" d="M 494 0 
L 494 4581 
L 2222 4581 
Q 2678 4581 2919 4538 
Q 3256 4481 3484 4323 
Q 3713 4166 3852 3881 
Q 3991 3597 3991 3256 
Q 3991 2672 3619 2267 
Q 3247 1863 2275 1863 
L 1100 1863 
L 1100 0 
L 494 0 
z
M 1100 2403 
L 2284 2403 
Q 2872 2403 3119 2622 
Q 3366 2841 3366 3238 
Q 3366 3525 3220 3729 
Q 3075 3934 2838 4000 
Q 2684 4041 2272 4041 
L 1100 4041 
L 1100 2403 
z
" transform="scale(0.015625)"/>
       <path id="ArialMT-61" d="M 2588 409 
Q 2275 144 1986 34 
Q 1697 -75 1366 -75 
Q 819 -75 525 192 
Q 231 459 231 875 
Q 231 1119 342 1320 
Q 453 1522 633 1644 
Q 813 1766 1038 1828 
Q 1203 1872 1538 1913 
Q 2219 1994 2541 2106 
Q 2544 2222 2544 2253 
Q 2544 2597 2384 2738 
Q 2169 2928 1744 2928 
Q 1347 2928 1158 2789 
Q 969 2650 878 2297 
L 328 2372 
Q 403 2725 575 2942 
Q 747 3159 1072 3276 
Q 1397 3394 1825 3394 
Q 2250 3394 2515 3294 
Q 2781 3194 2906 3042 
Q 3031 2891 3081 2659 
Q 3109 2516 3109 2141 
L 3109 1391 
Q 3109 606 3145 398 
Q 3181 191 3288 0 
L 2700 0 
Q 2613 175 2588 409 
z
M 2541 1666 
Q 2234 1541 1622 1453 
Q 1275 1403 1131 1340 
Q 988 1278 909 1158 
Q 831 1038 831 891 
Q 831 666 1001 516 
Q 1172 366 1500 366 
Q 1825 366 2078 508 
Q 2331 650 2450 897 
Q 2541 1088 2541 1459 
L 2541 1666 
z
" transform="scale(0.015625)"/>
       <path id="ArialMT-6c" d="M 409 0 
L 409 4581 
L 972 4581 
L 972 0 
L 409 0 
z
" transform="scale(0.015625)"/>
       <path id="ArialMT-4e" d="M 488 0 
L 488 4581 
L 1109 4581 
L 3516 984 
L 3516 4581 
L 4097 4581 
L 4097 0 
L 3475 0 
L 1069 3600 
L 1069 0 
L 488 0 
z
" transform="scale(0.015625)"/>
       <path id="ArialMT-45" d="M 506 0 
L 506 4581 
L 3819 4581 
L 3819 4041 
L 1113 4041 
L 1113 2638 
L 3647 2638 
L 3647 2100 
L 1113 2100 
L 1113 541 
L 3925 541 
L 3925 0 
L 506 0 
z
" transform="scale(0.015625)"/>
       <path id="ArialMT-58" d="M 28 0 
L 1800 2388 
L 238 4581 
L 959 4581 
L 1791 3406 
Q 2050 3041 2159 2844 
Q 2313 3094 2522 3366 
L 3444 4581 
L 4103 4581 
L 2494 2422 
L 4228 0 
L 3478 0 
L 2325 1634 
Q 2228 1775 2125 1941 
Q 1972 1691 1906 1597 
L 756 0 
L 28 0 
z
" transform="scale(0.015625)"/>
       <path id="ArialMT-55" d="M 3500 4581 
L 4106 4581 
L 4106 1934 
Q 4106 1244 3950 837 
Q 3794 431 3386 176 
Q 2978 -78 2316 -78 
Q 1672 -78 1262 144 
Q 853 366 678 786 
Q 503 1206 503 1934 
L 503 4581 
L 1109 4581 
L 1109 1938 
Q 1109 1341 1220 1058 
Q 1331 775 1601 622 
Q 1872 469 2263 469 
Q 2931 469 3215 772 
Q 3500 1075 3500 1938 
L 3500 4581 
z
" transform="scale(0.015625)"/>
       <path id="ArialMT-53" d="M 288 1472 
L 859 1522 
Q 900 1178 1048 958 
Q 1197 738 1509 602 
Q 1822 466 2213 466 
Q 2559 466 2825 569 
Q 3091 672 3220 851 
Q 3350 1031 3350 1244 
Q 3350 1459 3225 1620 
Q 3100 1781 2813 1891 
Q 2628 1963 1997 2114 
Q 1366 2266 1113 2400 
Q 784 2572 623 2826 
Q 463 3081 463 3397 
Q 463 3744 659 4045 
Q 856 4347 1234 4503 
Q 1613 4659 2075 4659 
Q 2584 4659 2973 4495 
Q 3363 4331 3572 4012 
Q 3781 3694 3797 3291 
L 3216 3247 
Q 3169 3681 2898 3903 
Q 2628 4125 2100 4125 
Q 1550 4125 1298 3923 
Q 1047 3722 1047 3438 
Q 1047 3191 1225 3031 
Q 1400 2872 2139 2705 
Q 2878 2538 3153 2413 
Q 3553 2228 3743 1945 
Q 3934 1663 3934 1294 
Q 3934 928 3725 604 
Q 3516 281 3123 101 
Q 2731 -78 2241 -78 
Q 1619 -78 1198 103 
Q 778 284 539 648 
Q 300 1013 288 1472 
z
" transform="scale(0.015625)"/>
       <path id="ArialMT-64" d="M 2575 0 
L 2575 419 
Q 2259 -75 1647 -75 
Q 1250 -75 917 144 
Q 584 363 401 755 
Q 219 1147 219 1656 
Q 219 2153 384 2558 
Q 550 2963 881 3178 
Q 1213 3394 1622 3394 
Q 1922 3394 2156 3267 
Q 2391 3141 2538 2938 
L 2538 4581 
L 3097 4581 
L 3097 0 
L 2575 0 
z
M 797 1656 
Q 797 1019 1065 703 
Q 1334 388 1700 388 
Q 2069 388 2326 689 
Q 2584 991 2584 1609 
Q 2584 2291 2321 2609 
Q 2059 2928 1675 2928 
Q 1300 2928 1048 2622 
Q 797 2316 797 1656 
z
" transform="scale(0.015625)"/>
      </defs>
      <use xlink:href="#ArialMT-50"/>
      <use xlink:href="#ArialMT-6f" x="66.699219"/>
      <use xlink:href="#ArialMT-74" x="122.314453"/>
      <use xlink:href="#ArialMT-65" x="150.097656"/>
      <use xlink:href="#ArialMT-6e" x="205.712891"/>
      <use xlink:href="#ArialMT-74" x="261.328125"/>
      <use xlink:href="#ArialMT-69" x="289.111328"/>
      <use xlink:href="#ArialMT-61" x="311.328125"/>
      <use xlink:href="#ArialMT-6c" x="366.943359"/>
      <use xlink:href="#ArialMT-20" x="389.160156"/>
      <use xlink:href="#ArialMT-49" x="416.943359"/>
      <use xlink:href="#ArialMT-4e" x="444.726562"/>
      <use xlink:href="#ArialMT-45" x="516.943359"/>
      <use xlink:href="#ArialMT-58" x="583.642578"/>
      <use xlink:href="#ArialMT-55" x="650.341797"/>
      <use xlink:href="#ArialMT-53" x="722.558594"/>
      <use xlink:href="#ArialMT-20" x="789.257812"/>
      <use xlink:href="#ArialMT-69" x="817.041016"/>
      <use xlink:href="#ArialMT-6e" x="839.257812"/>
      <use xlink:href="#ArialMT-20" x="894.873047"/>
      <use xlink:href="#ArialMT-64" x="922.65625"/>
      <use xlink:href="#ArialMT-6f" x="978.271484"/>
      <use xlink:href="#ArialMT-6c" x="1033.886719"/>
      <use xlink:href="#ArialMT-6c" x="1056.103516"/>
      <use xlink:href="#ArialMT-61" x="1078.320312"/>
      <use xlink:href="#ArialMT-72" x="1133.935547"/>
     </g>
    </g>
   </g>
   <g id="matplotlib.axis_4">
    <g id="ytick_6">
     <g id="line2d_26">
      <path d="M 72.483047 604.878438 
L 507.228047 604.878438 
" clip-path="url(#pda303aa4a0)" style="fill: none; stroke: #cccccc; stroke-width: 1.5; stroke-linecap: round"/>
     </g>
     <g id="text_15">
      <!-- 0.00 -->
      <g style="fill: #262626" transform="translate(27.8725 610.783633)scale(0.165 -0.165)">
       <use xlink:href="#ArialMT-30"/>
       <use xlink:href="#ArialMT-2e" x="55.615234"/>
       <use xlink:href="#ArialMT-30" x="83.398438"/>
       <use xlink:href="#ArialMT-30" x="139.013672"/>
      </g>
     </g>
    </g>
    <g id="ytick_7">
     <g id="line2d_27">
      <path d="M 72.483047 548.99658 
L 507.228047 548.99658 
" clip-path="url(#pda303aa4a0)" style="fill: none; stroke: #cccccc; stroke-width: 1.5; stroke-linecap: round"/>
     </g>
     <g id="text_16">
      <!-- 0.01 -->
      <g style="fill: #262626" transform="translate(27.8725 554.901775)scale(0.165 -0.165)">
       <use xlink:href="#ArialMT-30"/>
       <use xlink:href="#ArialMT-2e" x="55.615234"/>
       <use xlink:href="#ArialMT-30" x="83.398438"/>
       <use xlink:href="#ArialMT-31" x="139.013672"/>
      </g>
     </g>
    </g>
    <g id="ytick_8">
     <g id="line2d_28">
      <path d="M 72.483047 493.114722 
L 507.228047 493.114722 
" clip-path="url(#pda303aa4a0)" style="fill: none; stroke: #cccccc; stroke-width: 1.5; stroke-linecap: round"/>
     </g>
     <g id="text_17">
      <!-- 0.02 -->
      <g style="fill: #262626" transform="translate(27.8725 499.019918)scale(0.165 -0.165)">
       <use xlink:href="#ArialMT-30"/>
       <use xlink:href="#ArialMT-2e" x="55.615234"/>
       <use xlink:href="#ArialMT-30" x="83.398438"/>
       <use xlink:href="#ArialMT-32" x="139.013672"/>
      </g>
     </g>
    </g>
    <g id="ytick_9">
     <g id="line2d_29">
      <path d="M 72.483047 437.232865 
L 507.228047 437.232865 
" clip-path="url(#pda303aa4a0)" style="fill: none; stroke: #cccccc; stroke-width: 1.5; stroke-linecap: round"/>
     </g>
     <g id="text_18">
      <!-- 0.03 -->
      <g style="fill: #262626" transform="translate(27.8725 443.13806)scale(0.165 -0.165)">
       <use xlink:href="#ArialMT-30"/>
       <use xlink:href="#ArialMT-2e" x="55.615234"/>
       <use xlink:href="#ArialMT-30" x="83.398438"/>
       <use xlink:href="#ArialMT-33" x="139.013672"/>
      </g>
     </g>
    </g>
    <g id="ytick_10">
     <g id="line2d_30">
      <path d="M 72.483047 381.351007 
L 507.228047 381.351007 
" clip-path="url(#pda303aa4a0)" style="fill: none; stroke: #cccccc; stroke-width: 1.5; stroke-linecap: round"/>
     </g>
     <g id="text_19">
      <!-- 0.04 -->
      <g style="fill: #262626" transform="translate(27.8725 387.256202)scale(0.165 -0.165)">
       <use xlink:href="#ArialMT-30"/>
       <use xlink:href="#ArialMT-2e" x="55.615234"/>
       <use xlink:href="#ArialMT-30" x="83.398438"/>
       <use xlink:href="#ArialMT-34" x="139.013672"/>
      </g>
     </g>
    </g>
    <g id="text_20">
     <!-- Frequency Density -->
     <g style="fill: #262626" transform="translate(20.084063 546.672536)rotate(-90)scale(0.18 -0.18)">
      <use xlink:href="#ArialMT-46"/>
      <use xlink:href="#ArialMT-72" x="61.083984"/>
      <use xlink:href="#ArialMT-65" x="94.384766"/>
      <use xlink:href="#ArialMT-71" x="150"/>
      <use xlink:href="#ArialMT-75" x="205.615234"/>
      <use xlink:href="#ArialMT-65" x="261.230469"/>
      <use xlink:href="#ArialMT-6e" x="316.845703"/>
      <use xlink:href="#ArialMT-63" x="372.460938"/>
      <use xlink:href="#ArialMT-79" x="422.460938"/>
      <use xlink:href="#ArialMT-20" x="472.460938"/>
      <use xlink:href="#ArialMT-44" x="500.244141"/>
      <use xlink:href="#ArialMT-65" x="572.460938"/>
      <use xlink:href="#ArialMT-6e" x="628.076172"/>
      <use xlink:href="#ArialMT-73" x="683.691406"/>
      <use xlink:href="#ArialMT-69" x="733.691406"/>
      <use xlink:href="#ArialMT-74" x="755.908203"/>
      <use xlink:href="#ArialMT-79" x="783.691406"/>
     </g>
    </g>
   </g>
   <g id="line2d_31">
    <path d="M -1 604.37253 
L 33.866344 604.214134 
L 53.367614 603.832492 
L 72.868884 603.411947 
L 92.370153 603.115015 
L 111.871423 602.427437 
L 121.622058 601.901652 
L 131.372693 601.244615 
L 141.123328 600.459014 
L 150.873963 599.50751 
L 160.624598 598.264393 
L 170.375233 596.521167 
L 180.125868 594.05103 
L 189.876503 590.394765 
L 199.627138 584.756768 
L 209.377773 576.343071 
L 219.128408 564.626698 
L 228.879043 549.97976 
L 238.629678 535.042448 
L 248.380313 524.028374 
L 258.130948 518.374193 
L 267.881583 513.478946 
L 277.632218 502.288861 
L 287.382853 480.753706 
L 297.133488 447.013169 
L 306.884123 402.446208 
L 316.634758 361.854234 
L 326.385393 352.521484 
L 336.136028 382.986083 
L 345.886663 428.654904 
L 355.637298 467.519774 
L 365.387933 499.264777 
L 375.138568 528.576889 
L 384.889203 555.510425 
L 394.639838 576.604334 
L 404.390473 588.570937 
L 414.141108 592.079644 
L 423.891743 592.101955 
L 433.642378 593.722582 
L 453.143648 601.726624 
L 462.894283 603.951015 
L 472.644918 604.70363 
L 482.395553 604.858123 
L 492.146188 604.877031 
L 492.146188 604.877031 
" clip-path="url(#pda303aa4a0)" style="fill: none; stroke: #f6c19f; stroke-width: 2.25; stroke-linecap: round"/>
   </g>
   <g id="line2d_32">
    <path d="M -1 604.3831 
L 10.623939 604.324463 
L 43.505744 603.982123 
L 63.234826 603.900692 
L 82.963909 603.504807 
L 102.692992 602.929216 
L 115.845713 602.347864 
L 135.574796 601.200261 
L 142.151157 600.680521 
L 148.727518 600.031909 
L 155.303879 599.22028 
L 161.88024 598.190711 
L 168.456601 596.876931 
L 175.032962 595.223446 
L 181.609323 593.152071 
L 188.185683 590.512345 
L 194.762044 587.101167 
L 201.338405 582.71251 
L 207.914766 577.138882 
L 214.491127 570.162093 
L 221.067488 561.650657 
L 227.643849 551.82121 
L 234.22021 541.513253 
L 240.796571 532.118074 
L 247.372932 524.955598 
L 253.949292 520.414524 
L 260.525653 517.477602 
L 267.102014 514.037072 
L 273.678375 507.848276 
L 280.254736 497.382489 
L 286.831097 481.897496 
L 293.407458 460.969827 
L 299.983819 434.528524 
L 306.56018 404.150145 
L 313.136541 374.931109 
L 319.712901 355.437429 
L 326.289262 353.534505 
L 332.865623 370.372971 
L 339.441984 398.944623 
L 346.018345 429.629964 
L 352.594706 456.738727 
L 359.171067 479.741095 
L 365.747428 500.3707 
L 372.323789 520.067289 
L 378.90015 539.133435 
L 385.47651 556.765201 
L 392.052871 571.579291 
L 398.629232 582.409615 
L 405.205593 588.874145 
L 411.781954 591.569422 
L 418.358315 591.972 
L 424.934676 591.941455 
L 431.511037 592.901655 
L 438.087398 595.219725 
L 444.663759 598.271242 
L 451.24012 601.100291 
L 457.81648 603.092408 
L 464.392841 604.187453 
L 470.969202 604.661719 
L 477.545563 604.823823 
L 490.698285 604.876697 
L 490.698285 604.876697 
" clip-path="url(#pda303aa4a0)" style="fill: none; stroke: #f5946b; stroke-width: 2.25; stroke-linecap: round"/>
   </g>
   <g id="line2d_33">
    <path d="M -1 604.334343 
L 33.730622 604.122549 
L 60.129882 603.938778 
L 77.729388 603.506774 
L 104.128647 602.716149 
L 121.728154 601.91535 
L 130.527907 601.378107 
L 139.32766 600.68067 
L 148.127413 599.738904 
L 156.927166 598.50904 
L 165.726919 596.976274 
L 174.526672 595.045728 
L 183.326425 592.401697 
L 192.126178 588.595738 
L 200.925931 583.184832 
L 209.725685 575.55142 
L 218.525438 565.052523 
L 227.325191 551.966875 
L 236.124944 538.293984 
L 244.924697 527.15419 
L 253.72445 520.592108 
L 262.524203 517.013553 
L 271.323956 511.18961 
L 280.123709 498.187089 
L 288.923462 475.991142 
L 297.723216 443.9447 
L 306.522969 403.697421 
L 315.322722 366.001532 
L 324.122475 351.100232 
L 332.922228 370.098109 
L 350.521734 448.587997 
L 359.321487 480.328613 
L 368.12124 507.984847 
L 376.920994 534.049337 
L 385.720747 557.850521 
L 394.5205 576.631884 
L 403.320253 587.979162 
L 412.120006 592.068294 
L 420.919759 592.200978 
L 429.719512 592.703467 
L 438.519265 595.558704 
L 447.319018 599.55352 
L 456.118771 602.668123 
L 464.918525 604.227811 
L 473.718278 604.746415 
L 491.317784 604.876853 
L 491.317784 604.876853 
" clip-path="url(#pda303aa4a0)" style="fill: none; stroke: #f06043; stroke-width: 2.25; stroke-linecap: round"/>
   </g>
   <g id="line2d_34">
    <path d="M -1 604.303571 
L 21.879447 604.047004 
L 66.925128 603.839399 
L 102.961673 603.080725 
L 111.97081 602.718298 
L 120.979946 602.210753 
L 129.989082 601.542304 
L 138.998218 600.739164 
L 148.007355 599.810456 
L 157.016491 598.677334 
L 166.025627 597.194512 
L 175.034764 595.155435 
L 184.0439 592.288762 
L 193.053036 588.218539 
L 202.062172 582.439285 
L 211.071309 574.271658 
L 220.080445 563.045731 
L 238.098717 535.293432 
L 247.107854 524.891004 
L 256.11699 519.504505 
L 265.126126 516.013077 
L 274.135263 508.306029 
L 283.144399 492.074952 
L 292.153535 465.703775 
L 301.162671 428.661253 
L 310.171808 386.071485 
L 319.180944 355.420241 
L 328.19008 356.732229 
L 337.199216 388.655686 
L 346.208353 429.522666 
L 355.217489 464.913701 
L 364.226625 495.030381 
L 373.235762 522.836775 
L 382.244898 548.79052 
L 391.254034 570.612471 
L 400.26317 585.091445 
L 409.272307 591.293393 
L 418.281443 591.985023 
L 427.290579 591.994364 
L 436.299715 594.437306 
L 445.308852 598.645311 
L 454.317988 602.236545 
L 463.327124 604.104827 
L 472.33626 604.726357 
L 481.345397 604.858942 
L 490.354533 604.876851 
L 490.354533 604.876851 
" clip-path="url(#pda303aa4a0)" style="fill: none; stroke: #dd2c45; stroke-width: 2.25; stroke-linecap: round"/>
   </g>
   <g id="line2d_35">
    <path d="M -1 604.436787 
L 39.501732 604.136835 
L 60.503662 603.866556 
L 102.507522 603.0589 
L 113.008487 602.637896 
L 123.509452 602.036507 
L 134.010417 601.232274 
L 144.511382 600.273305 
L 155.012347 599.147133 
L 165.513312 597.529302 
L 176.014277 595.032452 
L 186.515242 591.386881 
L 197.016207 586.003341 
L 207.517172 577.829424 
L 218.018137 565.88523 
L 228.519102 550.450696 
L 239.020068 534.63593 
L 249.521033 523.411723 
L 260.021998 518.018181 
L 270.522963 511.832316 
L 281.023928 496.398563 
L 291.524893 468.122119 
L 302.025858 426.20922 
L 312.526823 378.648382 
L 323.027788 353.074992 
L 333.528753 371.730773 
L 344.029718 416.852913 
L 354.530683 460.220339 
L 365.031648 496.561246 
L 375.532613 529.604553 
L 386.033578 559.01463 
L 396.534543 580.37783 
L 407.035508 590.530327 
L 417.536473 592.13231 
L 428.037438 592.284036 
L 438.538403 595.507639 
L 449.039368 600.234656 
L 459.540333 603.420021 
L 470.041298 604.602726 
L 480.542263 604.848705 
L 491.043228 604.876691 
L 491.043228 604.876691 
" clip-path="url(#pda303aa4a0)" style="fill: none; stroke: #b41658; stroke-width: 2.25; stroke-linecap: round"/>
   </g>
   <g id="line2d_36">
    <path d="M -1 604.267691 
L 26.428369 604.125131 
L 46.155763 603.835478 
L 75.746854 603.653018 
L 95.474247 603.151389 
L 105.337944 602.781393 
L 125.065338 601.717357 
L 134.929035 601.145948 
L 144.792732 600.444484 
L 154.656428 599.340939 
L 164.520125 597.68144 
L 174.383822 595.319441 
L 184.247519 592.003339 
L 194.111216 587.387856 
L 203.974913 580.799891 
L 213.83861 571.205556 
L 223.702306 558.099505 
L 233.566003 543.06258 
L 243.4297 529.877205 
L 253.293397 521.723965 
L 263.157094 517.299112 
L 273.020791 510.040164 
L 282.884488 493.491293 
L 292.748184 465.034431 
L 302.611881 424.82807 
L 312.475578 380.955536 
L 322.339275 355.902363 
L 332.202972 368.235655 
L 342.066669 406.345777 
L 351.930365 446.82232 
L 361.794062 482.709372 
L 371.657759 515.964569 
L 381.521456 546.406099 
L 391.385153 570.976253 
L 401.24885 586.217538 
L 411.112547 591.928701 
L 420.976243 592.313299 
L 430.83994 593.036368 
L 440.703637 596.460605 
L 450.567334 600.736653 
L 460.431031 603.53145 
L 470.294728 604.601409 
L 480.158425 604.843903 
L 490.022121 604.875919 
L 490.022121 604.875919 
" clip-path="url(#pda303aa4a0)" style="fill: none; stroke: #841e5a; stroke-width: 2.25; stroke-linecap: round"/>
   </g>
   <g id="line2d_37">
    <path d="M -1 604.386979 
L 54.45518 604.019935 
L 71.963886 603.760398 
L 89.472593 603.319642 
L 115.735653 602.53536 
L 124.490007 602.139178 
L 133.24436 601.595241 
L 141.998714 600.850576 
L 150.753067 599.867187 
L 159.50742 598.642585 
L 168.261774 597.077629 
L 177.016127 594.926227 
L 185.770481 591.883595 
L 194.524834 587.634019 
L 203.279187 581.753623 
L 212.033541 573.5885 
L 220.787894 562.599217 
L 238.296601 536.147123 
L 247.050954 526.019111 
L 255.805308 520.444203 
L 264.559661 517.029156 
L 273.314015 510.357507 
L 282.068368 496.199044 
L 290.822721 473.011336 
L 299.577075 440.250239 
L 308.331428 400.636122 
L 317.085781 366.369904 
L 325.840135 355.82228 
L 334.594488 374.792485 
L 343.348842 409.157882 
L 352.103195 444.115025 
L 360.857548 476.560597 
L 369.611902 507.454418 
L 378.366255 536.221823 
L 387.120609 560.905502 
L 395.874962 578.913535 
L 404.629315 588.881986 
L 413.383669 592.07715 
L 422.138022 592.173881 
L 430.892376 593.046937 
L 439.646729 596.068895 
L 448.401082 599.930387 
L 457.155436 602.851459 
L 465.909789 604.292276 
L 474.664143 604.762502 
L 492.172849 604.877129 
L 492.172849 604.877129 
" clip-path="url(#pda303aa4a0)" style="fill: none; stroke: #541e4e; stroke-width: 2.25; stroke-linecap: round"/>
   </g>
   <g id="line2d_38">
    <path d="M -1 604.280873 
L 39.940848 604.040279 
L 83.828962 603.484441 
L 98.458334 603.042181 
L 113.087705 602.464509 
L 127.717077 601.699975 
L 135.031762 601.209344 
L 142.346448 600.602859 
L 149.661134 599.844434 
L 156.97582 598.928139 
L 164.290505 597.831788 
L 171.605191 596.435828 
L 178.919877 594.543795 
L 186.234563 591.960253 
L 193.549248 588.481098 
L 200.863934 583.833381 
L 208.17862 577.666394 
L 215.493306 569.633362 
L 222.807991 559.664467 
L 237.437363 537.316751 
L 244.752049 528.310912 
L 252.066734 522.550259 
L 266.696106 516.23324 
L 274.010792 509.798723 
L 281.325477 497.96077 
L 288.640163 479.953665 
L 295.954849 455.479822 
L 303.269535 425.017609 
L 310.58422 392.366627 
L 317.898906 366.502282 
L 325.213592 357.850505 
L 332.528278 369.757245 
L 339.842963 395.136515 
L 347.157649 423.968093 
L 354.472335 451.604312 
L 361.787021 478.19758 
L 369.101706 504.194482 
L 376.416392 528.883202 
L 383.731078 551.018233 
L 391.045764 569.170531 
L 398.360449 582.077066 
L 405.675135 589.320572 
L 412.989821 591.888443 
L 420.304506 592.052694 
L 427.619192 592.334183 
L 434.933878 594.146813 
L 449.563249 600.471404 
L 456.877935 602.836624 
L 464.192621 604.131112 
L 471.507307 604.665788 
L 478.821992 604.83213 
L 493.451364 604.877505 
L 493.451364 604.877505 
" clip-path="url(#pda303aa4a0)" style="fill: none; stroke: #2a1636; stroke-width: 2.25; stroke-linecap: round"/>
   </g>
   <g id="patch_6">
    <path d="M 72.483047 604.878438 
L 72.483047 338.411322 
" style="fill: none; stroke: #cccccc; stroke-width: 1.875; stroke-linejoin: miter; stroke-linecap: square"/>
   </g>
   <g id="patch_7">
    <path d="M 72.483047 604.878438 
L 507.228047 604.878438 
" style="fill: none; stroke: #cccccc; stroke-width: 1.875; stroke-linejoin: miter; stroke-linecap: square"/>
   </g>
   <g id="text_21">
    <!-- Highest 10% Income -->
    <g style="fill: #262626" transform="translate(206.816484 332.411322)scale(0.18 -0.18)">
     <defs>
      <path id="ArialMT-48" d="M 513 0 
L 513 4581 
L 1119 4581 
L 1119 2700 
L 3500 2700 
L 3500 4581 
L 4106 4581 
L 4106 0 
L 3500 0 
L 3500 2159 
L 1119 2159 
L 1119 0 
L 513 0 
z
" transform="scale(0.015625)"/>
      <path id="ArialMT-67" d="M 319 -275 
L 866 -356 
Q 900 -609 1056 -725 
Q 1266 -881 1628 -881 
Q 2019 -881 2231 -725 
Q 2444 -569 2519 -288 
Q 2563 -116 2559 434 
Q 2191 0 1641 0 
Q 956 0 581 494 
Q 206 988 206 1678 
Q 206 2153 378 2554 
Q 550 2956 876 3175 
Q 1203 3394 1644 3394 
Q 2231 3394 2613 2919 
L 2613 3319 
L 3131 3319 
L 3131 450 
Q 3131 -325 2973 -648 
Q 2816 -972 2473 -1159 
Q 2131 -1347 1631 -1347 
Q 1038 -1347 672 -1080 
Q 306 -813 319 -275 
z
M 784 1719 
Q 784 1066 1043 766 
Q 1303 466 1694 466 
Q 2081 466 2343 764 
Q 2606 1063 2606 1700 
Q 2606 2309 2336 2618 
Q 2066 2928 1684 2928 
Q 1309 2928 1046 2623 
Q 784 2319 784 1719 
z
" transform="scale(0.015625)"/>
      <path id="ArialMT-68" d="M 422 0 
L 422 4581 
L 984 4581 
L 984 2938 
Q 1378 3394 1978 3394 
Q 2347 3394 2619 3248 
Q 2891 3103 3008 2847 
Q 3125 2591 3125 2103 
L 3125 0 
L 2563 0 
L 2563 2103 
Q 2563 2525 2380 2717 
Q 2197 2909 1863 2909 
Q 1613 2909 1392 2779 
Q 1172 2650 1078 2428 
Q 984 2206 984 1816 
L 984 0 
L 422 0 
z
" transform="scale(0.015625)"/>
     </defs>
     <use xlink:href="#ArialMT-48"/>
     <use xlink:href="#ArialMT-69" x="72.216797"/>
     <use xlink:href="#ArialMT-67" x="94.433594"/>
     <use xlink:href="#ArialMT-68" x="150.048828"/>
     <use xlink:href="#ArialMT-65" x="205.664062"/>
     <use xlink:href="#ArialMT-73" x="261.279297"/>
     <use xlink:href="#ArialMT-74" x="311.279297"/>
     <use xlink:href="#ArialMT-20" x="339.0625"/>
     <use xlink:href="#ArialMT-31" x="366.845703"/>
     <use xlink:href="#ArialMT-30" x="422.460938"/>
     <use xlink:href="#ArialMT-25" x="478.076172"/>
     <use xlink:href="#ArialMT-20" x="566.992188"/>
     <use xlink:href="#ArialMT-49" x="594.775391"/>
     <use xlink:href="#ArialMT-6e" x="622.558594"/>
     <use xlink:href="#ArialMT-63" x="678.173828"/>
     <use xlink:href="#ArialMT-6f" x="728.173828"/>
     <use xlink:href="#ArialMT-6d" x="783.789062"/>
     <use xlink:href="#ArialMT-65" x="867.089844"/>
    </g>
   </g>
   <g id="legend_1">
    <g id="patch_8">
     <path d="M 491.588297 576.19113 
L 690.263297 576.19113 
Q 693.863297 576.19113 693.863297 572.59113 
L 693.863297 370.69863 
Q 693.863297 367.09863 690.263297 367.09863 
L 491.588297 367.09863 
Q 487.988297 367.09863 487.988297 370.69863 
L 487.988297 572.59113 
Q 487.988297 576.19113 491.588297 576.19113 
z
" style="fill: #ffffff; opacity: 0.8; stroke: #cccccc; stroke-width: 1.5; stroke-linejoin: miter"/>
    </g>
    <g id="line2d_39">
     <path d="M 495.188297 380.882692 
L 513.188297 380.882692 
L 531.188297 380.882692 
" style="fill: none; stroke: #f6c19f; stroke-width: 2.25; stroke-linecap: round"/>
    </g>
    <g id="text_22">
     <!-- 12.5% Fleet Size -->
     <g style="fill: #262626" transform="translate(545.588297 387.182692)scale(0.18 -0.18)">
      <defs>
       <path id="ArialMT-35" d="M 266 1200 
L 856 1250 
Q 922 819 1161 601 
Q 1400 384 1738 384 
Q 2144 384 2425 690 
Q 2706 997 2706 1503 
Q 2706 1984 2436 2262 
Q 2166 2541 1728 2541 
Q 1456 2541 1237 2417 
Q 1019 2294 894 2097 
L 366 2166 
L 809 4519 
L 3088 4519 
L 3088 3981 
L 1259 3981 
L 1013 2750 
Q 1425 3038 1878 3038 
Q 2478 3038 2890 2622 
Q 3303 2206 3303 1553 
Q 3303 931 2941 478 
Q 2500 -78 1738 -78 
Q 1113 -78 717 272 
Q 322 622 266 1200 
z
" transform="scale(0.015625)"/>
       <path id="ArialMT-7a" d="M 125 0 
L 125 456 
L 2238 2881 
Q 1878 2863 1603 2863 
L 250 2863 
L 250 3319 
L 2963 3319 
L 2963 2947 
L 1166 841 
L 819 456 
Q 1197 484 1528 484 
L 3063 484 
L 3063 0 
L 125 0 
z
" transform="scale(0.015625)"/>
      </defs>
      <use xlink:href="#ArialMT-31"/>
      <use xlink:href="#ArialMT-32" x="55.615234"/>
      <use xlink:href="#ArialMT-2e" x="111.230469"/>
      <use xlink:href="#ArialMT-35" x="139.013672"/>
      <use xlink:href="#ArialMT-25" x="194.628906"/>
      <use xlink:href="#ArialMT-20" x="283.544922"/>
      <use xlink:href="#ArialMT-46" x="311.328125"/>
      <use xlink:href="#ArialMT-6c" x="372.412109"/>
      <use xlink:href="#ArialMT-65" x="394.628906"/>
      <use xlink:href="#ArialMT-65" x="450.244141"/>
      <use xlink:href="#ArialMT-74" x="505.859375"/>
      <use xlink:href="#ArialMT-20" x="533.642578"/>
      <use xlink:href="#ArialMT-53" x="561.425781"/>
      <use xlink:href="#ArialMT-69" x="628.125"/>
      <use xlink:href="#ArialMT-7a" x="650.341797"/>
      <use xlink:href="#ArialMT-65" x="700.341797"/>
     </g>
    </g>
    <g id="line2d_40">
     <path d="M 495.188297 406.344255 
L 513.188297 406.344255 
L 531.188297 406.344255 
" style="fill: none; stroke: #f5946b; stroke-width: 2.25; stroke-linecap: round"/>
    </g>
    <g id="text_23">
     <!-- 25% Fleet Size -->
     <g style="fill: #262626" transform="translate(545.588297 412.644255)scale(0.18 -0.18)">
      <use xlink:href="#ArialMT-32"/>
      <use xlink:href="#ArialMT-35" x="55.615234"/>
      <use xlink:href="#ArialMT-25" x="111.230469"/>
      <use xlink:href="#ArialMT-20" x="200.146484"/>
      <use xlink:href="#ArialMT-46" x="227.929688"/>
      <use xlink:href="#ArialMT-6c" x="289.013672"/>
      <use xlink:href="#ArialMT-65" x="311.230469"/>
      <use xlink:href="#ArialMT-65" x="366.845703"/>
      <use xlink:href="#ArialMT-74" x="422.460938"/>
      <use xlink:href="#ArialMT-20" x="450.244141"/>
      <use xlink:href="#ArialMT-53" x="478.027344"/>
      <use xlink:href="#ArialMT-69" x="544.726562"/>
      <use xlink:href="#ArialMT-7a" x="566.943359"/>
      <use xlink:href="#ArialMT-65" x="616.943359"/>
     </g>
    </g>
    <g id="line2d_41">
     <path d="M 495.188297 431.805817 
L 513.188297 431.805817 
L 531.188297 431.805817 
" style="fill: none; stroke: #f06043; stroke-width: 2.25; stroke-linecap: round"/>
    </g>
    <g id="text_24">
     <!-- 50% Fleet Size -->
     <g style="fill: #262626" transform="translate(545.588297 438.105817)scale(0.18 -0.18)">
      <use xlink:href="#ArialMT-35"/>
      <use xlink:href="#ArialMT-30" x="55.615234"/>
      <use xlink:href="#ArialMT-25" x="111.230469"/>
      <use xlink:href="#ArialMT-20" x="200.146484"/>
      <use xlink:href="#ArialMT-46" x="227.929688"/>
      <use xlink:href="#ArialMT-6c" x="289.013672"/>
      <use xlink:href="#ArialMT-65" x="311.230469"/>
      <use xlink:href="#ArialMT-65" x="366.845703"/>
      <use xlink:href="#ArialMT-74" x="422.460938"/>
      <use xlink:href="#ArialMT-20" x="450.244141"/>
      <use xlink:href="#ArialMT-53" x="478.027344"/>
      <use xlink:href="#ArialMT-69" x="544.726562"/>
      <use xlink:href="#ArialMT-7a" x="566.943359"/>
      <use xlink:href="#ArialMT-65" x="616.943359"/>
     </g>
    </g>
    <g id="line2d_42">
     <path d="M 495.188297 457.26738 
L 513.188297 457.26738 
L 531.188297 457.26738 
" style="fill: none; stroke: #dd2c45; stroke-width: 2.25; stroke-linecap: round"/>
    </g>
    <g id="text_25">
     <!-- Baseline -->
     <g style="fill: #262626" transform="translate(545.588297 463.56738)scale(0.18 -0.18)">
      <defs>
       <path id="ArialMT-42" d="M 469 0 
L 469 4581 
L 2188 4581 
Q 2713 4581 3030 4442 
Q 3347 4303 3526 4014 
Q 3706 3725 3706 3409 
Q 3706 3116 3547 2856 
Q 3388 2597 3066 2438 
Q 3481 2316 3704 2022 
Q 3928 1728 3928 1328 
Q 3928 1006 3792 729 
Q 3656 453 3456 303 
Q 3256 153 2954 76 
Q 2653 0 2216 0 
L 469 0 
z
M 1075 2656 
L 2066 2656 
Q 2469 2656 2644 2709 
Q 2875 2778 2992 2937 
Q 3109 3097 3109 3338 
Q 3109 3566 3000 3739 
Q 2891 3913 2687 3977 
Q 2484 4041 1991 4041 
L 1075 4041 
L 1075 2656 
z
M 1075 541 
L 2216 541 
Q 2509 541 2628 563 
Q 2838 600 2978 687 
Q 3119 775 3209 942 
Q 3300 1109 3300 1328 
Q 3300 1584 3169 1773 
Q 3038 1963 2805 2039 
Q 2572 2116 2134 2116 
L 1075 2116 
L 1075 541 
z
" transform="scale(0.015625)"/>
      </defs>
      <use xlink:href="#ArialMT-42"/>
      <use xlink:href="#ArialMT-61" x="66.699219"/>
      <use xlink:href="#ArialMT-73" x="122.314453"/>
      <use xlink:href="#ArialMT-65" x="172.314453"/>
      <use xlink:href="#ArialMT-6c" x="227.929688"/>
      <use xlink:href="#ArialMT-69" x="250.146484"/>
      <use xlink:href="#ArialMT-6e" x="272.363281"/>
      <use xlink:href="#ArialMT-65" x="327.978516"/>
     </g>
    </g>
    <g id="line2d_43">
     <path d="M 495.188297 482.728942 
L 513.188297 482.728942 
L 531.188297 482.728942 
" style="fill: none; stroke: #b41658; stroke-width: 2.25; stroke-linecap: round"/>
    </g>
    <g id="text_26">
     <!-- 200% Fleet Size -->
     <g style="fill: #262626" transform="translate(545.588297 489.028942)scale(0.18 -0.18)">
      <use xlink:href="#ArialMT-32"/>
      <use xlink:href="#ArialMT-30" x="55.615234"/>
      <use xlink:href="#ArialMT-30" x="111.230469"/>
      <use xlink:href="#ArialMT-25" x="166.845703"/>
      <use xlink:href="#ArialMT-20" x="255.761719"/>
      <use xlink:href="#ArialMT-46" x="283.544922"/>
      <use xlink:href="#ArialMT-6c" x="344.628906"/>
      <use xlink:href="#ArialMT-65" x="366.845703"/>
      <use xlink:href="#ArialMT-65" x="422.460938"/>
      <use xlink:href="#ArialMT-74" x="478.076172"/>
      <use xlink:href="#ArialMT-20" x="505.859375"/>
      <use xlink:href="#ArialMT-53" x="533.642578"/>
      <use xlink:href="#ArialMT-69" x="600.341797"/>
      <use xlink:href="#ArialMT-7a" x="622.558594"/>
      <use xlink:href="#ArialMT-65" x="672.558594"/>
     </g>
    </g>
    <g id="line2d_44">
     <path d="M 495.188297 508.190505 
L 513.188297 508.190505 
L 531.188297 508.190505 
" style="fill: none; stroke: #841e5a; stroke-width: 2.25; stroke-linecap: round"/>
    </g>
    <g id="text_27">
     <!-- 400% Fleet Size -->
     <g style="fill: #262626" transform="translate(545.588297 514.490505)scale(0.18 -0.18)">
      <use xlink:href="#ArialMT-34"/>
      <use xlink:href="#ArialMT-30" x="55.615234"/>
      <use xlink:href="#ArialMT-30" x="111.230469"/>
      <use xlink:href="#ArialMT-25" x="166.845703"/>
      <use xlink:href="#ArialMT-20" x="255.761719"/>
      <use xlink:href="#ArialMT-46" x="283.544922"/>
      <use xlink:href="#ArialMT-6c" x="344.628906"/>
      <use xlink:href="#ArialMT-65" x="366.845703"/>
      <use xlink:href="#ArialMT-65" x="422.460938"/>
      <use xlink:href="#ArialMT-74" x="478.076172"/>
      <use xlink:href="#ArialMT-20" x="505.859375"/>
      <use xlink:href="#ArialMT-53" x="533.642578"/>
      <use xlink:href="#ArialMT-69" x="600.341797"/>
      <use xlink:href="#ArialMT-7a" x="622.558594"/>
      <use xlink:href="#ArialMT-65" x="672.558594"/>
     </g>
    </g>
    <g id="line2d_45">
     <path d="M 495.188297 533.652067 
L 513.188297 533.652067 
L 531.188297 533.652067 
" style="fill: none; stroke: #541e4e; stroke-width: 2.25; stroke-linecap: round"/>
    </g>
    <g id="text_28">
     <!-- 1000% Fleet Size -->
     <g style="fill: #262626" transform="translate(545.588297 539.952067)scale(0.18 -0.18)">
      <use xlink:href="#ArialMT-31"/>
      <use xlink:href="#ArialMT-30" x="55.615234"/>
      <use xlink:href="#ArialMT-30" x="111.230469"/>
      <use xlink:href="#ArialMT-30" x="166.845703"/>
      <use xlink:href="#ArialMT-25" x="222.460938"/>
      <use xlink:href="#ArialMT-20" x="311.376953"/>
      <use xlink:href="#ArialMT-46" x="339.160156"/>
      <use xlink:href="#ArialMT-6c" x="400.244141"/>
      <use xlink:href="#ArialMT-65" x="422.460938"/>
      <use xlink:href="#ArialMT-65" x="478.076172"/>
      <use xlink:href="#ArialMT-74" x="533.691406"/>
      <use xlink:href="#ArialMT-20" x="561.474609"/>
      <use xlink:href="#ArialMT-53" x="589.257812"/>
      <use xlink:href="#ArialMT-69" x="655.957031"/>
      <use xlink:href="#ArialMT-7a" x="678.173828"/>
      <use xlink:href="#ArialMT-65" x="728.173828"/>
     </g>
    </g>
    <g id="line2d_46">
     <path d="M 495.188297 559.11363 
L 513.188297 559.11363 
L 531.188297 559.11363 
" style="fill: none; stroke: #2a1636; stroke-width: 2.25; stroke-linecap: round"/>
    </g>
    <g id="text_29">
     <!-- 2750% Fleet Size -->
     <g style="fill: #262626" transform="translate(545.588297 565.41363)scale(0.18 -0.18)">
      <defs>
       <path id="ArialMT-37" d="M 303 3981 
L 303 4522 
L 3269 4522 
L 3269 4084 
Q 2831 3619 2401 2847 
Q 1972 2075 1738 1259 
Q 1569 684 1522 0 
L 944 0 
Q 953 541 1156 1306 
Q 1359 2072 1739 2783 
Q 2119 3494 2547 3981 
L 303 3981 
z
" transform="scale(0.015625)"/>
      </defs>
      <use xlink:href="#ArialMT-32"/>
      <use xlink:href="#ArialMT-37" x="55.615234"/>
      <use xlink:href="#ArialMT-35" x="111.230469"/>
      <use xlink:href="#ArialMT-30" x="166.845703"/>
      <use xlink:href="#ArialMT-25" x="222.460938"/>
      <use xlink:href="#ArialMT-20" x="311.376953"/>
      <use xlink:href="#ArialMT-46" x="339.160156"/>
      <use xlink:href="#ArialMT-6c" x="400.244141"/>
      <use xlink:href="#ArialMT-65" x="422.460938"/>
      <use xlink:href="#ArialMT-65" x="478.076172"/>
      <use xlink:href="#ArialMT-74" x="533.691406"/>
      <use xlink:href="#ArialMT-20" x="561.474609"/>
      <use xlink:href="#ArialMT-53" x="589.257812"/>
      <use xlink:href="#ArialMT-69" x="655.957031"/>
      <use xlink:href="#ArialMT-7a" x="678.173828"/>
      <use xlink:href="#ArialMT-65" x="728.173828"/>
     </g>
    </g>
   </g>
  </g>
 </g>
 <defs>
  <clipPath id="p31b583dd1f">
   <rect x="72.483047" y="26.084063" width="434.745" height="266.467116"/>
  </clipPath>
  <clipPath id="pda303aa4a0">
   <rect x="72.483047" y="338.411322" width="434.745" height="266.467116"/>
  </clipPath>
 </defs>
</svg>
