<?xml version="1.0" encoding="utf-8" standalone="no"?>
<!DOCTYPE svg PUBLIC "-//W3C//DTD SVG 1.1//EN"
  "http://www.w3.org/Graphics/SVG/1.1/DTD/svg11.dtd">
<svg xmlns:xlink="http://www.w3.org/1999/xlink" width="701.063297pt" height="660.183203pt" viewBox="0 0 701.063297 660.183203" xmlns="http://www.w3.org/2000/svg" version="1.1">
 <metadata>
  <rdf:RDF xmlns:dc="http://purl.org/dc/elements/1.1/" xmlns:cc="http://creativecommons.org/ns#" xmlns:rdf="http://www.w3.org/1999/02/22-rdf-syntax-ns#">
   <cc:Work>
    <dc:type rdf:resource="http://purl.org/dc/dcmitype/StillImage"/>
    <dc:date>2023-01-01T22:25:47.955159</dc:date>
    <dc:format>image/svg+xml</dc:format>
    <dc:creator>
     <cc:Agent>
      <dc:title>Matplotlib v3.5.1, https://matplotlib.org/</dc:title>
     </cc:Agent>
    </dc:creator>
   </cc:Work>
  </rdf:RDF>
 </metadata>
 <defs>
  <style type="text/css">*{stroke-linejoin: round; stroke-linecap: butt}</style>
 </defs>
 <g id="figure_1">
  <g id="patch_1">
   <path d="M 0 660.183203 
L 701.063297 660.183203 
L 701.063297 0 
L 0 0 
z
" style="fill: #ffffff"/>
  </g>
  <g id="axes_1">
   <g id="patch_2">
    <path d="M 72.483047 292.604616 
L 507.228047 292.604616 
L 507.228047 26.1375 
L 72.483047 26.1375 
z
" style="fill: #ffffff"/>
   </g>
   <g id="matplotlib.axis_1">
    <g id="xtick_1">
     <g id="line2d_1">
      <path d="M 72.483047 292.604616 
L 72.483047 26.1375 
" clip-path="url(#p6ae2e47a47)" style="fill: none; stroke: #cccccc; stroke-width: 1.5; stroke-linecap: round"/>
     </g>
    </g>
    <g id="xtick_2">
     <g id="line2d_2">
      <path d="M 159.432047 292.604616 
L 159.432047 26.1375 
" clip-path="url(#p6ae2e47a47)" style="fill: none; stroke: #cccccc; stroke-width: 1.5; stroke-linecap: round"/>
     </g>
    </g>
    <g id="xtick_3">
     <g id="line2d_3">
      <path d="M 246.381047 292.604616 
L 246.381047 26.1375 
" clip-path="url(#p6ae2e47a47)" style="fill: none; stroke: #cccccc; stroke-width: 1.5; stroke-linecap: round"/>
     </g>
    </g>
    <g id="xtick_4">
     <g id="line2d_4">
      <path d="M 333.330047 292.604616 
L 333.330047 26.1375 
" clip-path="url(#p6ae2e47a47)" style="fill: none; stroke: #cccccc; stroke-width: 1.5; stroke-linecap: round"/>
     </g>
    </g>
    <g id="xtick_5">
     <g id="line2d_5">
      <path d="M 420.279047 292.604616 
L 420.279047 26.1375 
" clip-path="url(#p6ae2e47a47)" style="fill: none; stroke: #cccccc; stroke-width: 1.5; stroke-linecap: round"/>
     </g>
    </g>
    <g id="xtick_6">
     <g id="line2d_6">
      <path d="M 507.228047 292.604616 
L 507.228047 26.1375 
" clip-path="url(#p6ae2e47a47)" style="fill: none; stroke: #cccccc; stroke-width: 1.5; stroke-linecap: round"/>
     </g>
    </g>
   </g>
   <g id="matplotlib.axis_2">
    <g id="ytick_1">
     <g id="line2d_7">
      <path d="M 72.483047 292.604616 
L 507.228047 292.604616 
" clip-path="url(#p6ae2e47a47)" style="fill: none; stroke: #cccccc; stroke-width: 1.5; stroke-linecap: round"/>
     </g>
     <g id="text_1">
      <!-- 0.00 -->
      <g style="fill: #262626" transform="translate(27.8725 298.509811)scale(0.165 -0.165)">
       <defs>
        <path id="ArialMT-30" d="M 266 2259 
Q 266 3072 433 3567 
Q 600 4063 929 4331 
Q 1259 4600 1759 4600 
Q 2128 4600 2406 4451 
Q 2684 4303 2865 4023 
Q 3047 3744 3150 3342 
Q 3253 2941 3253 2259 
Q 3253 1453 3087 958 
Q 2922 463 2592 192 
Q 2263 -78 1759 -78 
Q 1097 -78 719 397 
Q 266 969 266 2259 
z
M 844 2259 
Q 844 1131 1108 757 
Q 1372 384 1759 384 
Q 2147 384 2411 759 
Q 2675 1134 2675 2259 
Q 2675 3391 2411 3762 
Q 2147 4134 1753 4134 
Q 1366 4134 1134 3806 
Q 844 3388 844 2259 
z
" transform="scale(0.015625)"/>
        <path id="ArialMT-2e" d="M 581 0 
L 581 641 
L 1222 641 
L 1222 0 
L 581 0 
z
" transform="scale(0.015625)"/>
       </defs>
       <use xlink:href="#ArialMT-30"/>
       <use xlink:href="#ArialMT-2e" x="55.615234"/>
       <use xlink:href="#ArialMT-30" x="83.398438"/>
       <use xlink:href="#ArialMT-30" x="139.013672"/>
      </g>
     </g>
    </g>
    <g id="ytick_2">
     <g id="line2d_8">
      <path d="M 72.483047 236.008408 
L 507.228047 236.008408 
" clip-path="url(#p6ae2e47a47)" style="fill: none; stroke: #cccccc; stroke-width: 1.5; stroke-linecap: round"/>
     </g>
     <g id="text_2">
      <!-- 0.01 -->
      <g style="fill: #262626" transform="translate(27.8725 241.913603)scale(0.165 -0.165)">
       <defs>
        <path id="ArialMT-31" d="M 2384 0 
L 1822 0 
L 1822 3584 
Q 1619 3391 1289 3197 
Q 959 3003 697 2906 
L 697 3450 
Q 1169 3672 1522 3987 
Q 1875 4303 2022 4600 
L 2384 4600 
L 2384 0 
z
" transform="scale(0.015625)"/>
       </defs>
       <use xlink:href="#ArialMT-30"/>
       <use xlink:href="#ArialMT-2e" x="55.615234"/>
       <use xlink:href="#ArialMT-30" x="83.398438"/>
       <use xlink:href="#ArialMT-31" x="139.013672"/>
      </g>
     </g>
    </g>
    <g id="ytick_3">
     <g id="line2d_9">
      <path d="M 72.483047 179.4122 
L 507.228047 179.4122 
" clip-path="url(#p6ae2e47a47)" style="fill: none; stroke: #cccccc; stroke-width: 1.5; stroke-linecap: round"/>
     </g>
     <g id="text_3">
      <!-- 0.02 -->
      <g style="fill: #262626" transform="translate(27.8725 185.317396)scale(0.165 -0.165)">
       <defs>
        <path id="ArialMT-32" d="M 3222 541 
L 3222 0 
L 194 0 
Q 188 203 259 391 
Q 375 700 629 1000 
Q 884 1300 1366 1694 
Q 2113 2306 2375 2664 
Q 2638 3022 2638 3341 
Q 2638 3675 2398 3904 
Q 2159 4134 1775 4134 
Q 1369 4134 1125 3890 
Q 881 3647 878 3216 
L 300 3275 
Q 359 3922 746 4261 
Q 1134 4600 1788 4600 
Q 2447 4600 2831 4234 
Q 3216 3869 3216 3328 
Q 3216 3053 3103 2787 
Q 2991 2522 2730 2228 
Q 2469 1934 1863 1422 
Q 1356 997 1212 845 
Q 1069 694 975 541 
L 3222 541 
z
" transform="scale(0.015625)"/>
       </defs>
       <use xlink:href="#ArialMT-30"/>
       <use xlink:href="#ArialMT-2e" x="55.615234"/>
       <use xlink:href="#ArialMT-30" x="83.398438"/>
       <use xlink:href="#ArialMT-32" x="139.013672"/>
      </g>
     </g>
    </g>
    <g id="ytick_4">
     <g id="line2d_10">
      <path d="M 72.483047 122.815993 
L 507.228047 122.815993 
" clip-path="url(#p6ae2e47a47)" style="fill: none; stroke: #cccccc; stroke-width: 1.5; stroke-linecap: round"/>
     </g>
     <g id="text_4">
      <!-- 0.03 -->
      <g style="fill: #262626" transform="translate(27.8725 128.721188)scale(0.165 -0.165)">
       <defs>
        <path id="ArialMT-33" d="M 269 1209 
L 831 1284 
Q 928 806 1161 595 
Q 1394 384 1728 384 
Q 2125 384 2398 659 
Q 2672 934 2672 1341 
Q 2672 1728 2419 1979 
Q 2166 2231 1775 2231 
Q 1616 2231 1378 2169 
L 1441 2663 
Q 1497 2656 1531 2656 
Q 1891 2656 2178 2843 
Q 2466 3031 2466 3422 
Q 2466 3731 2256 3934 
Q 2047 4138 1716 4138 
Q 1388 4138 1169 3931 
Q 950 3725 888 3313 
L 325 3413 
Q 428 3978 793 4289 
Q 1159 4600 1703 4600 
Q 2078 4600 2393 4439 
Q 2709 4278 2876 4000 
Q 3044 3722 3044 3409 
Q 3044 3113 2884 2869 
Q 2725 2625 2413 2481 
Q 2819 2388 3044 2092 
Q 3269 1797 3269 1353 
Q 3269 753 2831 336 
Q 2394 -81 1725 -81 
Q 1122 -81 723 278 
Q 325 638 269 1209 
z
" transform="scale(0.015625)"/>
       </defs>
       <use xlink:href="#ArialMT-30"/>
       <use xlink:href="#ArialMT-2e" x="55.615234"/>
       <use xlink:href="#ArialMT-30" x="83.398438"/>
       <use xlink:href="#ArialMT-33" x="139.013672"/>
      </g>
     </g>
    </g>
    <g id="ytick_5">
     <g id="line2d_11">
      <path d="M 72.483047 66.219785 
L 507.228047 66.219785 
" clip-path="url(#p6ae2e47a47)" style="fill: none; stroke: #cccccc; stroke-width: 1.5; stroke-linecap: round"/>
     </g>
     <g id="text_5">
      <!-- 0.04 -->
      <g style="fill: #262626" transform="translate(27.8725 72.124981)scale(0.165 -0.165)">
       <defs>
        <path id="ArialMT-34" d="M 2069 0 
L 2069 1097 
L 81 1097 
L 81 1613 
L 2172 4581 
L 2631 4581 
L 2631 1613 
L 3250 1613 
L 3250 1097 
L 2631 1097 
L 2631 0 
L 2069 0 
z
M 2069 1613 
L 2069 3678 
L 634 1613 
L 2069 1613 
z
" transform="scale(0.015625)"/>
       </defs>
       <use xlink:href="#ArialMT-30"/>
       <use xlink:href="#ArialMT-2e" x="55.615234"/>
       <use xlink:href="#ArialMT-30" x="83.398438"/>
       <use xlink:href="#ArialMT-34" x="139.013672"/>
      </g>
     </g>
    </g>
    <g id="text_6">
     <!-- Frequency Density -->
     <g style="fill: #262626" transform="translate(20.084063 234.398714)rotate(-90)scale(0.18 -0.18)">
      <defs>
       <path id="ArialMT-46" d="M 525 0 
L 525 4581 
L 3616 4581 
L 3616 4041 
L 1131 4041 
L 1131 2622 
L 3281 2622 
L 3281 2081 
L 1131 2081 
L 1131 0 
L 525 0 
z
" transform="scale(0.015625)"/>
       <path id="ArialMT-72" d="M 416 0 
L 416 3319 
L 922 3319 
L 922 2816 
Q 1116 3169 1280 3281 
Q 1444 3394 1641 3394 
Q 1925 3394 2219 3213 
L 2025 2691 
Q 1819 2813 1613 2813 
Q 1428 2813 1281 2702 
Q 1134 2591 1072 2394 
Q 978 2094 978 1738 
L 978 0 
L 416 0 
z
" transform="scale(0.015625)"/>
       <path id="ArialMT-65" d="M 2694 1069 
L 3275 997 
Q 3138 488 2766 206 
Q 2394 -75 1816 -75 
Q 1088 -75 661 373 
Q 234 822 234 1631 
Q 234 2469 665 2931 
Q 1097 3394 1784 3394 
Q 2450 3394 2872 2941 
Q 3294 2488 3294 1666 
Q 3294 1616 3291 1516 
L 816 1516 
Q 847 969 1125 678 
Q 1403 388 1819 388 
Q 2128 388 2347 550 
Q 2566 713 2694 1069 
z
M 847 1978 
L 2700 1978 
Q 2663 2397 2488 2606 
Q 2219 2931 1791 2931 
Q 1403 2931 1139 2672 
Q 875 2413 847 1978 
z
" transform="scale(0.015625)"/>
       <path id="ArialMT-71" d="M 2538 -1272 
L 2538 353 
Q 2406 169 2170 47 
Q 1934 -75 1669 -75 
Q 1078 -75 651 397 
Q 225 869 225 1691 
Q 225 2191 398 2587 
Q 572 2984 901 3189 
Q 1231 3394 1625 3394 
Q 2241 3394 2594 2875 
L 2594 3319 
L 3100 3319 
L 3100 -1272 
L 2538 -1272 
z
M 803 1669 
Q 803 1028 1072 708 
Q 1341 388 1716 388 
Q 2075 388 2334 692 
Q 2594 997 2594 1619 
Q 2594 2281 2320 2615 
Q 2047 2950 1678 2950 
Q 1313 2950 1058 2639 
Q 803 2328 803 1669 
z
" transform="scale(0.015625)"/>
       <path id="ArialMT-75" d="M 2597 0 
L 2597 488 
Q 2209 -75 1544 -75 
Q 1250 -75 995 37 
Q 741 150 617 320 
Q 494 491 444 738 
Q 409 903 409 1263 
L 409 3319 
L 972 3319 
L 972 1478 
Q 972 1038 1006 884 
Q 1059 663 1231 536 
Q 1403 409 1656 409 
Q 1909 409 2131 539 
Q 2353 669 2445 892 
Q 2538 1116 2538 1541 
L 2538 3319 
L 3100 3319 
L 3100 0 
L 2597 0 
z
" transform="scale(0.015625)"/>
       <path id="ArialMT-6e" d="M 422 0 
L 422 3319 
L 928 3319 
L 928 2847 
Q 1294 3394 1984 3394 
Q 2284 3394 2536 3286 
Q 2788 3178 2913 3003 
Q 3038 2828 3088 2588 
Q 3119 2431 3119 2041 
L 3119 0 
L 2556 0 
L 2556 2019 
Q 2556 2363 2490 2533 
Q 2425 2703 2258 2804 
Q 2091 2906 1866 2906 
Q 1506 2906 1245 2678 
Q 984 2450 984 1813 
L 984 0 
L 422 0 
z
" transform="scale(0.015625)"/>
       <path id="ArialMT-63" d="M 2588 1216 
L 3141 1144 
Q 3050 572 2676 248 
Q 2303 -75 1759 -75 
Q 1078 -75 664 370 
Q 250 816 250 1647 
Q 250 2184 428 2587 
Q 606 2991 970 3192 
Q 1334 3394 1763 3394 
Q 2303 3394 2647 3120 
Q 2991 2847 3088 2344 
L 2541 2259 
Q 2463 2594 2264 2762 
Q 2066 2931 1784 2931 
Q 1359 2931 1093 2626 
Q 828 2322 828 1663 
Q 828 994 1084 691 
Q 1341 388 1753 388 
Q 2084 388 2306 591 
Q 2528 794 2588 1216 
z
" transform="scale(0.015625)"/>
       <path id="ArialMT-79" d="M 397 -1278 
L 334 -750 
Q 519 -800 656 -800 
Q 844 -800 956 -737 
Q 1069 -675 1141 -563 
Q 1194 -478 1313 -144 
Q 1328 -97 1363 -6 
L 103 3319 
L 709 3319 
L 1400 1397 
Q 1534 1031 1641 628 
Q 1738 1016 1872 1384 
L 2581 3319 
L 3144 3319 
L 1881 -56 
Q 1678 -603 1566 -809 
Q 1416 -1088 1222 -1217 
Q 1028 -1347 759 -1347 
Q 597 -1347 397 -1278 
z
" transform="scale(0.015625)"/>
       <path id="ArialMT-20" transform="scale(0.015625)"/>
       <path id="ArialMT-44" d="M 494 0 
L 494 4581 
L 2072 4581 
Q 2606 4581 2888 4516 
Q 3281 4425 3559 4188 
Q 3922 3881 4101 3404 
Q 4281 2928 4281 2316 
Q 4281 1794 4159 1391 
Q 4038 988 3847 723 
Q 3656 459 3429 307 
Q 3203 156 2883 78 
Q 2563 0 2147 0 
L 494 0 
z
M 1100 541 
L 2078 541 
Q 2531 541 2789 625 
Q 3047 709 3200 863 
Q 3416 1078 3536 1442 
Q 3656 1806 3656 2325 
Q 3656 3044 3420 3430 
Q 3184 3816 2847 3947 
Q 2603 4041 2063 4041 
L 1100 4041 
L 1100 541 
z
" transform="scale(0.015625)"/>
       <path id="ArialMT-73" d="M 197 991 
L 753 1078 
Q 800 744 1014 566 
Q 1228 388 1613 388 
Q 2000 388 2187 545 
Q 2375 703 2375 916 
Q 2375 1106 2209 1216 
Q 2094 1291 1634 1406 
Q 1016 1563 777 1677 
Q 538 1791 414 1992 
Q 291 2194 291 2438 
Q 291 2659 392 2848 
Q 494 3038 669 3163 
Q 800 3259 1026 3326 
Q 1253 3394 1513 3394 
Q 1903 3394 2198 3281 
Q 2494 3169 2634 2976 
Q 2775 2784 2828 2463 
L 2278 2388 
Q 2241 2644 2061 2787 
Q 1881 2931 1553 2931 
Q 1166 2931 1000 2803 
Q 834 2675 834 2503 
Q 834 2394 903 2306 
Q 972 2216 1119 2156 
Q 1203 2125 1616 2013 
Q 2213 1853 2448 1751 
Q 2684 1650 2818 1456 
Q 2953 1263 2953 975 
Q 2953 694 2789 445 
Q 2625 197 2315 61 
Q 2006 -75 1616 -75 
Q 969 -75 630 194 
Q 291 463 197 991 
z
" transform="scale(0.015625)"/>
       <path id="ArialMT-69" d="M 425 3934 
L 425 4581 
L 988 4581 
L 988 3934 
L 425 3934 
z
M 425 0 
L 425 3319 
L 988 3319 
L 988 0 
L 425 0 
z
" transform="scale(0.015625)"/>
       <path id="ArialMT-74" d="M 1650 503 
L 1731 6 
Q 1494 -44 1306 -44 
Q 1000 -44 831 53 
Q 663 150 594 308 
Q 525 466 525 972 
L 525 2881 
L 113 2881 
L 113 3319 
L 525 3319 
L 525 4141 
L 1084 4478 
L 1084 3319 
L 1650 3319 
L 1650 2881 
L 1084 2881 
L 1084 941 
Q 1084 700 1114 631 
Q 1144 563 1211 522 
Q 1278 481 1403 481 
Q 1497 481 1650 503 
z
" transform="scale(0.015625)"/>
      </defs>
      <use xlink:href="#ArialMT-46"/>
      <use xlink:href="#ArialMT-72" x="61.083984"/>
      <use xlink:href="#ArialMT-65" x="94.384766"/>
      <use xlink:href="#ArialMT-71" x="150"/>
      <use xlink:href="#ArialMT-75" x="205.615234"/>
      <use xlink:href="#ArialMT-65" x="261.230469"/>
      <use xlink:href="#ArialMT-6e" x="316.845703"/>
      <use xlink:href="#ArialMT-63" x="372.460938"/>
      <use xlink:href="#ArialMT-79" x="422.460938"/>
      <use xlink:href="#ArialMT-20" x="472.460938"/>
      <use xlink:href="#ArialMT-44" x="500.244141"/>
      <use xlink:href="#ArialMT-65" x="572.460938"/>
      <use xlink:href="#ArialMT-6e" x="628.076172"/>
      <use xlink:href="#ArialMT-73" x="683.691406"/>
      <use xlink:href="#ArialMT-69" x="733.691406"/>
      <use xlink:href="#ArialMT-74" x="755.908203"/>
      <use xlink:href="#ArialMT-79" x="783.691406"/>
     </g>
    </g>
   </g>
   <g id="line2d_12">
    <path d="M -1 291.501133 
L 44.304002 291.416527 
L 56.052988 291.387808 
L 73.676466 291.057885 
L 91.299944 290.471581 
L 132.421394 288.738881 
L 138.295886 288.310334 
L 144.170379 287.76419 
L 150.044872 287.083809 
L 155.919365 286.253903 
L 161.793857 285.26953 
L 167.66835 284.128044 
L 173.542843 282.812042 
L 179.417336 281.276835 
L 185.291828 279.437524 
L 191.166321 277.162555 
L 197.040814 274.294474 
L 202.915306 270.691127 
L 208.789799 266.254595 
L 214.664292 260.937878 
L 220.538785 254.75652 
L 226.413277 247.824462 
L 244.036756 225.668255 
L 249.911248 219.185563 
L 261.660234 207.684719 
L 267.534727 201.253796 
L 273.409219 193.335712 
L 279.283712 183.520436 
L 285.158205 171.613143 
L 291.032698 157.405292 
L 296.90719 140.616094 
L 302.781683 121.160205 
L 314.530669 78.112505 
L 320.405161 59.519845 
L 326.279654 47.41452 
L 332.154147 44.324695 
L 338.02864 50.805155 
L 343.903132 65.581092 
L 349.777625 86.581223 
L 355.652118 111.846584 
L 361.526611 139.715959 
L 367.401103 168.566075 
L 373.275596 196.668944 
L 379.150089 222.334938 
L 385.024582 244.157619 
L 390.899074 261.243556 
L 396.773567 273.398498 
L 402.64806 281.149942 
L 408.522552 285.528574 
L 414.397045 287.721133 
L 420.271538 288.767425 
L 449.644002 291.80406 
L 455.518494 292.196078 
L 461.392987 292.427902 
L 473.141973 292.585594 
L 484.890958 292.603711 
L 484.890958 292.603711 
" clip-path="url(#p6ae2e47a47)" style="fill: none; stroke: #f7c6a6; stroke-width: 2.25; stroke-linecap: round"/>
   </g>
   <g id="line2d_13">
    <path d="M -1 291.569196 
L 26.550213 291.398945 
L 47.206479 291.08616 
L 88.519011 290.007444 
L 119.503411 288.544099 
L 129.831544 287.972342 
L 140.159677 287.101777 
L 150.48781 285.892222 
L 160.815943 284.31612 
L 171.144076 282.198051 
L 181.47221 279.194789 
L 191.800343 275.005976 
L 202.128476 269.101251 
L 212.456609 260.622998 
L 222.784742 249.301755 
L 243.441008 222.862385 
L 253.769141 211.204873 
L 264.097275 199.798725 
L 274.425408 185.237496 
L 284.753541 165.589872 
L 295.081674 139.63107 
L 305.409807 106.408889 
L 315.73794 71.891987 
L 326.066073 51.866653 
L 336.394206 58.872436 
L 346.72234 89.895745 
L 357.050473 133.776088 
L 367.378606 180.707824 
L 377.706739 223.259428 
L 388.034872 255.969173 
L 398.363005 276.160518 
L 408.691138 285.529474 
L 419.019271 288.654694 
L 439.675538 290.682138 
L 450.003671 291.689117 
L 460.331804 292.319349 
L 470.659937 292.5496 
L 491.316203 292.604209 
L 491.316203 292.604209 
" clip-path="url(#p6ae2e47a47)" style="fill: none; stroke: #f69c73; stroke-width: 2.25; stroke-linecap: round"/>
   </g>
   <g id="line2d_14">
    <path d="M -1 291.759909 
L 16.98008 291.601826 
L 44.379667 291.040532 
L 62.646059 290.687095 
L 80.91245 290.544779 
L 90.045646 290.332917 
L 99.178842 289.982876 
L 108.312038 289.520516 
L 126.578429 288.260798 
L 135.711625 287.491601 
L 144.844821 286.583644 
L 153.978016 285.430228 
L 163.111212 283.892396 
L 172.244408 281.791441 
L 181.377604 278.920042 
L 190.5108 275.084663 
L 199.643995 269.971679 
L 208.777191 263.101102 
L 217.910387 254.150314 
L 227.043583 243.212638 
L 236.176778 231.10905 
L 245.309974 219.348568 
L 263.576366 198.244534 
L 272.709561 185.408326 
L 281.842757 168.333875 
L 290.975953 146.220062 
L 300.109149 118.871412 
L 309.242345 88.60548 
L 318.37554 63.49543 
L 327.508736 54.450944 
L 336.641932 66.309863 
L 345.775128 94.376498 
L 354.908323 130.753577 
L 364.041519 169.659517 
L 373.174715 207.04944 
L 382.307911 239.465459 
L 391.441106 263.818672 
L 400.574302 278.758114 
L 409.707498 285.871542 
L 418.840694 288.469931 
L 437.107085 290.427379 
L 446.240281 291.393966 
L 455.373477 292.110544 
L 464.506673 292.463328 
L 482.773064 292.601095 
L 491.90626 292.604321 
L 491.90626 292.604321 
" clip-path="url(#p6ae2e47a47)" style="fill: none; stroke: #f3714d; stroke-width: 2.25; stroke-linecap: round"/>
   </g>
   <g id="line2d_15">
    <path d="M -1 291.796588 
L 40.197229 291.402961 
L 78.987183 290.525612 
L 91.917168 290.0918 
L 104.847153 289.535465 
L 117.777138 288.797431 
L 130.707122 287.88464 
L 143.637107 286.673156 
L 156.567092 284.918367 
L 169.497077 282.414851 
L 182.427062 278.712682 
L 195.357046 272.975271 
L 208.287031 263.946291 
L 221.217016 250.322795 
L 234.147001 232.716044 
L 247.076985 215.700741 
L 260.00697 201.26937 
L 272.936955 183.402084 
L 285.86694 156.547181 
L 298.796924 119.327366 
L 311.726909 77.052097 
L 324.656894 54.947881 
L 337.586879 74.271838 
L 350.516863 119.964287 
L 363.446848 170.866562 
L 376.376833 219.485882 
L 389.306818 258.177296 
L 402.236802 279.848908 
L 415.166787 287.569081 
L 428.096772 289.572779 
L 441.026757 290.822337 
L 453.956742 291.952043 
L 466.886726 292.478371 
L 492.746696 292.60411 
L 492.746696 292.60411 
" clip-path="url(#p6ae2e47a47)" style="fill: none; stroke: #e83f3f; stroke-width: 2.25; stroke-linecap: round"/>
   </g>
   <g id="line2d_16">
    <path d="M -1 291.736467 
L 24.06458 291.411438 
L 49.55795 291.093057 
L 83.54911 290.333386 
L 100.544691 289.678801 
L 126.038061 288.196021 
L 134.535851 287.573007 
L 143.033641 286.7833 
L 151.531431 285.713228 
L 160.029221 284.29139 
L 168.527011 282.483465 
L 177.024801 280.144547 
L 185.522591 277.001857 
L 194.020381 272.801745 
L 202.518171 267.316907 
L 211.015961 260.255906 
L 219.513752 251.385294 
L 228.011542 240.895121 
L 236.509332 229.694703 
L 245.007122 219.057484 
L 262.002702 199.804891 
L 270.500492 187.66521 
L 278.998282 171.156556 
L 287.496072 149.660495 
L 295.993862 123.36207 
L 304.491652 94.015005 
L 312.989442 67.747843 
L 321.487232 54.658765 
L 329.985023 61.41077 
L 338.482813 84.51613 
L 346.980603 114.472093 
L 372.473973 206.46038 
L 380.971763 234.928018 
L 389.469553 258.195604 
L 397.967343 274.238159 
L 406.465133 283.282838 
L 414.962923 287.345114 
L 423.460713 288.915165 
L 448.954084 291.574946 
L 457.451874 292.170649 
L 465.949664 292.466835 
L 482.945244 292.599227 
L 491.443034 292.603981 
L 491.443034 292.603981 
" clip-path="url(#p6ae2e47a47)" style="fill: none; stroke: #ca1a50; stroke-width: 2.25; stroke-linecap: round"/>
   </g>
   <g id="line2d_17">
    <path d="M -1 291.620782 
L 42.453284 291.257691 
L 93.034909 290.108627 
L 143.616534 286.49423 
L 194.19816 272.444553 
L 244.779785 219.337333 
L 295.36141 123.014314 
L 345.943035 114.315444 
L 396.52466 267.76274 
L 447.106285 291.208099 
L 497.68791 292.603149 
L 497.68791 292.603149 
" clip-path="url(#p6ae2e47a47)" style="fill: none; stroke: #a11a5b; stroke-width: 2.25; stroke-linecap: round"/>
   </g>
   <g id="line2d_18">
    <path d="M -1 291.694081 
L 6.113377 291.601002 
L 30.484838 291.436056 
L 54.8563 290.981704 
L 79.227762 290.414042 
L 103.599223 289.470519 
L 127.970685 288.084822 
L 152.342147 285.608639 
L 176.713608 280.572373 
L 201.08507 268.770512 
L 225.456532 243.814545 
L 249.827993 211.89881 
L 274.199455 179.503738 
L 298.570917 114.356127 
L 322.942379 57.496818 
L 347.31384 117.644969 
L 371.685302 203.324481 
L 396.056764 269.814269 
L 420.428225 288.249068 
L 444.799687 291.107376 
L 469.171149 292.489224 
L 493.54261 292.603713 
L 493.54261 292.603713 
" clip-path="url(#p6ae2e47a47)" style="fill: none; stroke: #751f58; stroke-width: 2.25; stroke-linecap: round"/>
   </g>
   <g id="line2d_19">
    <path d="M -1 291.818344 
L 65.438283 290.877716 
L 89.32601 290.172602 
L 113.213737 289.165564 
L 137.101464 287.241847 
L 160.989191 283.783655 
L 184.876918 277.333305 
L 208.764644 263.164626 
L 232.652371 235.333608 
L 256.540098 204.376814 
L 280.427825 165.543003 
L 304.315552 94.212697 
L 328.203279 62.223582 
L 352.091006 134.520979 
L 375.978733 217.944012 
L 399.866459 275.307039 
L 423.754186 288.912021 
L 447.641913 291.41691 
L 471.52964 292.525058 
L 495.417367 292.604025 
L 495.417367 292.604025 
" clip-path="url(#p6ae2e47a47)" style="fill: none; stroke: #4c1d4b; stroke-width: 2.25; stroke-linecap: round"/>
   </g>
   <g id="line2d_20">
    <path d="M -1 291.671257 
L 24.710256 291.444091 
L 64.642688 290.801364 
L 104.575121 289.481816 
L 144.507554 286.54535 
L 184.439987 276.692742 
L 224.37242 244.70161 
L 264.304852 194.021059 
L 304.237285 98.227593 
L 344.169718 108.509481 
L 384.102151 238.553948 
L 424.034584 287.972568 
L 463.967016 292.235805 
L 503.899449 292.603672 
L 503.899449 292.603672 
" clip-path="url(#p6ae2e47a47)" style="fill: none; stroke: #251433; stroke-width: 2.25; stroke-linecap: round"/>
   </g>
   <g id="patch_3">
    <path d="M 72.483047 292.604616 
L 72.483047 26.1375 
" style="fill: none; stroke: #cccccc; stroke-width: 1.875; stroke-linejoin: miter; stroke-linecap: square"/>
   </g>
   <g id="patch_4">
    <path d="M 72.483047 292.604616 
L 507.228047 292.604616 
" style="fill: none; stroke: #cccccc; stroke-width: 1.875; stroke-linejoin: miter; stroke-linecap: square"/>
   </g>
   <g id="text_7">
    <!-- income_deciles = 1stD -->
    <g style="fill: #262626" transform="translate(199.063828 20.1375)scale(0.18 -0.18)">
     <defs>
      <path id="ArialMT-6f" d="M 213 1659 
Q 213 2581 725 3025 
Q 1153 3394 1769 3394 
Q 2453 3394 2887 2945 
Q 3322 2497 3322 1706 
Q 3322 1066 3130 698 
Q 2938 331 2570 128 
Q 2203 -75 1769 -75 
Q 1072 -75 642 372 
Q 213 819 213 1659 
z
M 791 1659 
Q 791 1022 1069 705 
Q 1347 388 1769 388 
Q 2188 388 2466 706 
Q 2744 1025 2744 1678 
Q 2744 2294 2464 2611 
Q 2184 2928 1769 2928 
Q 1347 2928 1069 2612 
Q 791 2297 791 1659 
z
" transform="scale(0.015625)"/>
      <path id="ArialMT-6d" d="M 422 0 
L 422 3319 
L 925 3319 
L 925 2853 
Q 1081 3097 1340 3245 
Q 1600 3394 1931 3394 
Q 2300 3394 2536 3241 
Q 2772 3088 2869 2813 
Q 3263 3394 3894 3394 
Q 4388 3394 4653 3120 
Q 4919 2847 4919 2278 
L 4919 0 
L 4359 0 
L 4359 2091 
Q 4359 2428 4304 2576 
Q 4250 2725 4106 2815 
Q 3963 2906 3769 2906 
Q 3419 2906 3187 2673 
Q 2956 2441 2956 1928 
L 2956 0 
L 2394 0 
L 2394 2156 
Q 2394 2531 2256 2718 
Q 2119 2906 1806 2906 
Q 1569 2906 1367 2781 
Q 1166 2656 1075 2415 
Q 984 2175 984 1722 
L 984 0 
L 422 0 
z
" transform="scale(0.015625)"/>
      <path id="ArialMT-5f" d="M -97 -1272 
L -97 -866 
L 3631 -866 
L 3631 -1272 
L -97 -1272 
z
" transform="scale(0.015625)"/>
      <path id="ArialMT-64" d="M 2575 0 
L 2575 419 
Q 2259 -75 1647 -75 
Q 1250 -75 917 144 
Q 584 363 401 755 
Q 219 1147 219 1656 
Q 219 2153 384 2558 
Q 550 2963 881 3178 
Q 1213 3394 1622 3394 
Q 1922 3394 2156 3267 
Q 2391 3141 2538 2938 
L 2538 4581 
L 3097 4581 
L 3097 0 
L 2575 0 
z
M 797 1656 
Q 797 1019 1065 703 
Q 1334 388 1700 388 
Q 2069 388 2326 689 
Q 2584 991 2584 1609 
Q 2584 2291 2321 2609 
Q 2059 2928 1675 2928 
Q 1300 2928 1048 2622 
Q 797 2316 797 1656 
z
" transform="scale(0.015625)"/>
      <path id="ArialMT-6c" d="M 409 0 
L 409 4581 
L 972 4581 
L 972 0 
L 409 0 
z
" transform="scale(0.015625)"/>
      <path id="ArialMT-3d" d="M 3381 2694 
L 356 2694 
L 356 3219 
L 3381 3219 
L 3381 2694 
z
M 3381 1303 
L 356 1303 
L 356 1828 
L 3381 1828 
L 3381 1303 
z
" transform="scale(0.015625)"/>
     </defs>
     <use xlink:href="#ArialMT-69"/>
     <use xlink:href="#ArialMT-6e" x="22.216797"/>
     <use xlink:href="#ArialMT-63" x="77.832031"/>
     <use xlink:href="#ArialMT-6f" x="127.832031"/>
     <use xlink:href="#ArialMT-6d" x="183.447266"/>
     <use xlink:href="#ArialMT-65" x="266.748047"/>
     <use xlink:href="#ArialMT-5f" x="322.363281"/>
     <use xlink:href="#ArialMT-64" x="377.978516"/>
     <use xlink:href="#ArialMT-65" x="433.59375"/>
     <use xlink:href="#ArialMT-63" x="489.208984"/>
     <use xlink:href="#ArialMT-69" x="539.208984"/>
     <use xlink:href="#ArialMT-6c" x="561.425781"/>
     <use xlink:href="#ArialMT-65" x="583.642578"/>
     <use xlink:href="#ArialMT-73" x="639.257812"/>
     <use xlink:href="#ArialMT-20" x="689.257812"/>
     <use xlink:href="#ArialMT-3d" x="717.041016"/>
     <use xlink:href="#ArialMT-20" x="775.439453"/>
     <use xlink:href="#ArialMT-31" x="803.222656"/>
     <use xlink:href="#ArialMT-73" x="858.837891"/>
     <use xlink:href="#ArialMT-74" x="908.837891"/>
     <use xlink:href="#ArialMT-44" x="936.621094"/>
    </g>
   </g>
  </g>
  <g id="axes_2">
   <g id="patch_5">
    <path d="M 72.483047 604.931875 
L 507.228047 604.931875 
L 507.228047 338.464759 
L 72.483047 338.464759 
z
" style="fill: #ffffff"/>
   </g>
   <g id="matplotlib.axis_3">
    <g id="xtick_7">
     <g id="line2d_21">
      <path d="M 72.483047 604.931875 
L 72.483047 338.464759 
" clip-path="url(#pf8fd36298f)" style="fill: none; stroke: #cccccc; stroke-width: 1.5; stroke-linecap: round"/>
     </g>
     <g id="text_8">
      <!-- −60 -->
      <g style="fill: #262626" transform="translate(58.488984 629.242266)scale(0.165 -0.165)">
       <defs>
        <path id="ArialMT-2212" d="M 3381 1997 
L 356 1997 
L 356 2522 
L 3381 2522 
L 3381 1997 
z
" transform="scale(0.015625)"/>
        <path id="ArialMT-36" d="M 3184 3459 
L 2625 3416 
Q 2550 3747 2413 3897 
Q 2184 4138 1850 4138 
Q 1581 4138 1378 3988 
Q 1113 3794 959 3422 
Q 806 3050 800 2363 
Q 1003 2672 1297 2822 
Q 1591 2972 1913 2972 
Q 2475 2972 2870 2558 
Q 3266 2144 3266 1488 
Q 3266 1056 3080 686 
Q 2894 316 2569 119 
Q 2244 -78 1831 -78 
Q 1128 -78 684 439 
Q 241 956 241 2144 
Q 241 3472 731 4075 
Q 1159 4600 1884 4600 
Q 2425 4600 2770 4297 
Q 3116 3994 3184 3459 
z
M 888 1484 
Q 888 1194 1011 928 
Q 1134 663 1356 523 
Q 1578 384 1822 384 
Q 2178 384 2434 671 
Q 2691 959 2691 1453 
Q 2691 1928 2437 2201 
Q 2184 2475 1800 2475 
Q 1419 2475 1153 2201 
Q 888 1928 888 1484 
z
" transform="scale(0.015625)"/>
       </defs>
       <use xlink:href="#ArialMT-2212"/>
       <use xlink:href="#ArialMT-36" x="58.398438"/>
       <use xlink:href="#ArialMT-30" x="114.013672"/>
      </g>
     </g>
    </g>
    <g id="xtick_8">
     <g id="line2d_22">
      <path d="M 159.432047 604.931875 
L 159.432047 338.464759 
" clip-path="url(#pf8fd36298f)" style="fill: none; stroke: #cccccc; stroke-width: 1.5; stroke-linecap: round"/>
     </g>
     <g id="text_9">
      <!-- −40 -->
      <g style="fill: #262626" transform="translate(145.437984 629.242266)scale(0.165 -0.165)">
       <use xlink:href="#ArialMT-2212"/>
       <use xlink:href="#ArialMT-34" x="58.398438"/>
       <use xlink:href="#ArialMT-30" x="114.013672"/>
      </g>
     </g>
    </g>
    <g id="xtick_9">
     <g id="line2d_23">
      <path d="M 246.381047 604.931875 
L 246.381047 338.464759 
" clip-path="url(#pf8fd36298f)" style="fill: none; stroke: #cccccc; stroke-width: 1.5; stroke-linecap: round"/>
     </g>
     <g id="text_10">
      <!-- −20 -->
      <g style="fill: #262626" transform="translate(232.386984 629.242266)scale(0.165 -0.165)">
       <use xlink:href="#ArialMT-2212"/>
       <use xlink:href="#ArialMT-32" x="58.398438"/>
       <use xlink:href="#ArialMT-30" x="114.013672"/>
      </g>
     </g>
    </g>
    <g id="xtick_10">
     <g id="line2d_24">
      <path d="M 333.330047 604.931875 
L 333.330047 338.464759 
" clip-path="url(#pf8fd36298f)" style="fill: none; stroke: #cccccc; stroke-width: 1.5; stroke-linecap: round"/>
     </g>
     <g id="text_11">
      <!-- 0 -->
      <g style="fill: #262626" transform="translate(328.742273 629.242266)scale(0.165 -0.165)">
       <use xlink:href="#ArialMT-30"/>
      </g>
     </g>
    </g>
    <g id="xtick_11">
     <g id="line2d_25">
      <path d="M 420.279047 604.931875 
L 420.279047 338.464759 
" clip-path="url(#pf8fd36298f)" style="fill: none; stroke: #cccccc; stroke-width: 1.5; stroke-linecap: round"/>
     </g>
     <g id="text_12">
      <!-- 20 -->
      <g style="fill: #262626" transform="translate(411.1035 629.242266)scale(0.165 -0.165)">
       <use xlink:href="#ArialMT-32"/>
       <use xlink:href="#ArialMT-30" x="55.615234"/>
      </g>
     </g>
    </g>
    <g id="xtick_12">
     <g id="line2d_26">
      <path d="M 507.228047 604.931875 
L 507.228047 338.464759 
" clip-path="url(#pf8fd36298f)" style="fill: none; stroke: #cccccc; stroke-width: 1.5; stroke-linecap: round"/>
     </g>
     <g id="text_13">
      <!-- 40 -->
      <g style="fill: #262626" transform="translate(498.0525 629.242266)scale(0.165 -0.165)">
       <use xlink:href="#ArialMT-34"/>
       <use xlink:href="#ArialMT-30" x="55.615234"/>
      </g>
     </g>
    </g>
    <g id="text_14">
     <!-- Potential INEXUS in dollar -->
     <g style="fill: #262626" transform="translate(184.807266 649.405703)scale(0.18 -0.18)">
      <defs>
       <path id="ArialMT-50" d="M 494 0 
L 494 4581 
L 2222 4581 
Q 2678 4581 2919 4538 
Q 3256 4481 3484 4323 
Q 3713 4166 3852 3881 
Q 3991 3597 3991 3256 
Q 3991 2672 3619 2267 
Q 3247 1863 2275 1863 
L 1100 1863 
L 1100 0 
L 494 0 
z
M 1100 2403 
L 2284 2403 
Q 2872 2403 3119 2622 
Q 3366 2841 3366 3238 
Q 3366 3525 3220 3729 
Q 3075 3934 2838 4000 
Q 2684 4041 2272 4041 
L 1100 4041 
L 1100 2403 
z
" transform="scale(0.015625)"/>
       <path id="ArialMT-61" d="M 2588 409 
Q 2275 144 1986 34 
Q 1697 -75 1366 -75 
Q 819 -75 525 192 
Q 231 459 231 875 
Q 231 1119 342 1320 
Q 453 1522 633 1644 
Q 813 1766 1038 1828 
Q 1203 1872 1538 1913 
Q 2219 1994 2541 2106 
Q 2544 2222 2544 2253 
Q 2544 2597 2384 2738 
Q 2169 2928 1744 2928 
Q 1347 2928 1158 2789 
Q 969 2650 878 2297 
L 328 2372 
Q 403 2725 575 2942 
Q 747 3159 1072 3276 
Q 1397 3394 1825 3394 
Q 2250 3394 2515 3294 
Q 2781 3194 2906 3042 
Q 3031 2891 3081 2659 
Q 3109 2516 3109 2141 
L 3109 1391 
Q 3109 606 3145 398 
Q 3181 191 3288 0 
L 2700 0 
Q 2613 175 2588 409 
z
M 2541 1666 
Q 2234 1541 1622 1453 
Q 1275 1403 1131 1340 
Q 988 1278 909 1158 
Q 831 1038 831 891 
Q 831 666 1001 516 
Q 1172 366 1500 366 
Q 1825 366 2078 508 
Q 2331 650 2450 897 
Q 2541 1088 2541 1459 
L 2541 1666 
z
" transform="scale(0.015625)"/>
       <path id="ArialMT-49" d="M 597 0 
L 597 4581 
L 1203 4581 
L 1203 0 
L 597 0 
z
" transform="scale(0.015625)"/>
       <path id="ArialMT-4e" d="M 488 0 
L 488 4581 
L 1109 4581 
L 3516 984 
L 3516 4581 
L 4097 4581 
L 4097 0 
L 3475 0 
L 1069 3600 
L 1069 0 
L 488 0 
z
" transform="scale(0.015625)"/>
       <path id="ArialMT-45" d="M 506 0 
L 506 4581 
L 3819 4581 
L 3819 4041 
L 1113 4041 
L 1113 2638 
L 3647 2638 
L 3647 2100 
L 1113 2100 
L 1113 541 
L 3925 541 
L 3925 0 
L 506 0 
z
" transform="scale(0.015625)"/>
       <path id="ArialMT-58" d="M 28 0 
L 1800 2388 
L 238 4581 
L 959 4581 
L 1791 3406 
Q 2050 3041 2159 2844 
Q 2313 3094 2522 3366 
L 3444 4581 
L 4103 4581 
L 2494 2422 
L 4228 0 
L 3478 0 
L 2325 1634 
Q 2228 1775 2125 1941 
Q 1972 1691 1906 1597 
L 756 0 
L 28 0 
z
" transform="scale(0.015625)"/>
       <path id="ArialMT-55" d="M 3500 4581 
L 4106 4581 
L 4106 1934 
Q 4106 1244 3950 837 
Q 3794 431 3386 176 
Q 2978 -78 2316 -78 
Q 1672 -78 1262 144 
Q 853 366 678 786 
Q 503 1206 503 1934 
L 503 4581 
L 1109 4581 
L 1109 1938 
Q 1109 1341 1220 1058 
Q 1331 775 1601 622 
Q 1872 469 2263 469 
Q 2931 469 3215 772 
Q 3500 1075 3500 1938 
L 3500 4581 
z
" transform="scale(0.015625)"/>
       <path id="ArialMT-53" d="M 288 1472 
L 859 1522 
Q 900 1178 1048 958 
Q 1197 738 1509 602 
Q 1822 466 2213 466 
Q 2559 466 2825 569 
Q 3091 672 3220 851 
Q 3350 1031 3350 1244 
Q 3350 1459 3225 1620 
Q 3100 1781 2813 1891 
Q 2628 1963 1997 2114 
Q 1366 2266 1113 2400 
Q 784 2572 623 2826 
Q 463 3081 463 3397 
Q 463 3744 659 4045 
Q 856 4347 1234 4503 
Q 1613 4659 2075 4659 
Q 2584 4659 2973 4495 
Q 3363 4331 3572 4012 
Q 3781 3694 3797 3291 
L 3216 3247 
Q 3169 3681 2898 3903 
Q 2628 4125 2100 4125 
Q 1550 4125 1298 3923 
Q 1047 3722 1047 3438 
Q 1047 3191 1225 3031 
Q 1400 2872 2139 2705 
Q 2878 2538 3153 2413 
Q 3553 2228 3743 1945 
Q 3934 1663 3934 1294 
Q 3934 928 3725 604 
Q 3516 281 3123 101 
Q 2731 -78 2241 -78 
Q 1619 -78 1198 103 
Q 778 284 539 648 
Q 300 1013 288 1472 
z
" transform="scale(0.015625)"/>
      </defs>
      <use xlink:href="#ArialMT-50"/>
      <use xlink:href="#ArialMT-6f" x="66.699219"/>
      <use xlink:href="#ArialMT-74" x="122.314453"/>
      <use xlink:href="#ArialMT-65" x="150.097656"/>
      <use xlink:href="#ArialMT-6e" x="205.712891"/>
      <use xlink:href="#ArialMT-74" x="261.328125"/>
      <use xlink:href="#ArialMT-69" x="289.111328"/>
      <use xlink:href="#ArialMT-61" x="311.328125"/>
      <use xlink:href="#ArialMT-6c" x="366.943359"/>
      <use xlink:href="#ArialMT-20" x="389.160156"/>
      <use xlink:href="#ArialMT-49" x="416.943359"/>
      <use xlink:href="#ArialMT-4e" x="444.726562"/>
      <use xlink:href="#ArialMT-45" x="516.943359"/>
      <use xlink:href="#ArialMT-58" x="583.642578"/>
      <use xlink:href="#ArialMT-55" x="650.341797"/>
      <use xlink:href="#ArialMT-53" x="722.558594"/>
      <use xlink:href="#ArialMT-20" x="789.257812"/>
      <use xlink:href="#ArialMT-69" x="817.041016"/>
      <use xlink:href="#ArialMT-6e" x="839.257812"/>
      <use xlink:href="#ArialMT-20" x="894.873047"/>
      <use xlink:href="#ArialMT-64" x="922.65625"/>
      <use xlink:href="#ArialMT-6f" x="978.271484"/>
      <use xlink:href="#ArialMT-6c" x="1033.886719"/>
      <use xlink:href="#ArialMT-6c" x="1056.103516"/>
      <use xlink:href="#ArialMT-61" x="1078.320312"/>
      <use xlink:href="#ArialMT-72" x="1133.935547"/>
     </g>
    </g>
   </g>
   <g id="matplotlib.axis_4">
    <g id="ytick_6">
     <g id="line2d_27">
      <path d="M 72.483047 604.931875 
L 507.228047 604.931875 
" clip-path="url(#pf8fd36298f)" style="fill: none; stroke: #cccccc; stroke-width: 1.5; stroke-linecap: round"/>
     </g>
     <g id="text_15">
      <!-- 0.00 -->
      <g style="fill: #262626" transform="translate(27.8725 610.83707)scale(0.165 -0.165)">
       <use xlink:href="#ArialMT-30"/>
       <use xlink:href="#ArialMT-2e" x="55.615234"/>
       <use xlink:href="#ArialMT-30" x="83.398438"/>
       <use xlink:href="#ArialMT-30" x="139.013672"/>
      </g>
     </g>
    </g>
    <g id="ytick_7">
     <g id="line2d_28">
      <path d="M 72.483047 548.335667 
L 507.228047 548.335667 
" clip-path="url(#pf8fd36298f)" style="fill: none; stroke: #cccccc; stroke-width: 1.5; stroke-linecap: round"/>
     </g>
     <g id="text_16">
      <!-- 0.01 -->
      <g style="fill: #262626" transform="translate(27.8725 554.240863)scale(0.165 -0.165)">
       <use xlink:href="#ArialMT-30"/>
       <use xlink:href="#ArialMT-2e" x="55.615234"/>
       <use xlink:href="#ArialMT-30" x="83.398438"/>
       <use xlink:href="#ArialMT-31" x="139.013672"/>
      </g>
     </g>
    </g>
    <g id="ytick_8">
     <g id="line2d_29">
      <path d="M 72.483047 491.73946 
L 507.228047 491.73946 
" clip-path="url(#pf8fd36298f)" style="fill: none; stroke: #cccccc; stroke-width: 1.5; stroke-linecap: round"/>
     </g>
     <g id="text_17">
      <!-- 0.02 -->
      <g style="fill: #262626" transform="translate(27.8725 497.644655)scale(0.165 -0.165)">
       <use xlink:href="#ArialMT-30"/>
       <use xlink:href="#ArialMT-2e" x="55.615234"/>
       <use xlink:href="#ArialMT-30" x="83.398438"/>
       <use xlink:href="#ArialMT-32" x="139.013672"/>
      </g>
     </g>
    </g>
    <g id="ytick_9">
     <g id="line2d_30">
      <path d="M 72.483047 435.143252 
L 507.228047 435.143252 
" clip-path="url(#pf8fd36298f)" style="fill: none; stroke: #cccccc; stroke-width: 1.5; stroke-linecap: round"/>
     </g>
     <g id="text_18">
      <!-- 0.03 -->
      <g style="fill: #262626" transform="translate(27.8725 441.048448)scale(0.165 -0.165)">
       <use xlink:href="#ArialMT-30"/>
       <use xlink:href="#ArialMT-2e" x="55.615234"/>
       <use xlink:href="#ArialMT-30" x="83.398438"/>
       <use xlink:href="#ArialMT-33" x="139.013672"/>
      </g>
     </g>
    </g>
    <g id="ytick_10">
     <g id="line2d_31">
      <path d="M 72.483047 378.547045 
L 507.228047 378.547045 
" clip-path="url(#pf8fd36298f)" style="fill: none; stroke: #cccccc; stroke-width: 1.5; stroke-linecap: round"/>
     </g>
     <g id="text_19">
      <!-- 0.04 -->
      <g style="fill: #262626" transform="translate(27.8725 384.45224)scale(0.165 -0.165)">
       <use xlink:href="#ArialMT-30"/>
       <use xlink:href="#ArialMT-2e" x="55.615234"/>
       <use xlink:href="#ArialMT-30" x="83.398438"/>
       <use xlink:href="#ArialMT-34" x="139.013672"/>
      </g>
     </g>
    </g>
    <g id="text_20">
     <!-- Frequency Density -->
     <g style="fill: #262626" transform="translate(20.084063 546.725973)rotate(-90)scale(0.18 -0.18)">
      <use xlink:href="#ArialMT-46"/>
      <use xlink:href="#ArialMT-72" x="61.083984"/>
      <use xlink:href="#ArialMT-65" x="94.384766"/>
      <use xlink:href="#ArialMT-71" x="150"/>
      <use xlink:href="#ArialMT-75" x="205.615234"/>
      <use xlink:href="#ArialMT-65" x="261.230469"/>
      <use xlink:href="#ArialMT-6e" x="316.845703"/>
      <use xlink:href="#ArialMT-63" x="372.460938"/>
      <use xlink:href="#ArialMT-79" x="422.460938"/>
      <use xlink:href="#ArialMT-20" x="472.460938"/>
      <use xlink:href="#ArialMT-44" x="500.244141"/>
      <use xlink:href="#ArialMT-65" x="572.460938"/>
      <use xlink:href="#ArialMT-6e" x="628.076172"/>
      <use xlink:href="#ArialMT-73" x="683.691406"/>
      <use xlink:href="#ArialMT-69" x="733.691406"/>
      <use xlink:href="#ArialMT-74" x="755.908203"/>
      <use xlink:href="#ArialMT-79" x="783.691406"/>
     </g>
    </g>
   </g>
   <g id="line2d_32">
    <path d="M -1 604.009619 
L 6.97186 603.970836 
L 46.440953 603.998509 
L 72.753681 603.678756 
L 92.488228 603.281145 
L 112.222774 602.570586 
L 125.379139 601.919305 
L 138.535503 601.071516 
L 145.113685 600.561098 
L 151.691867 599.911294 
L 158.270049 599.031641 
L 164.848231 597.856927 
L 171.426414 596.35793 
L 178.004596 594.529143 
L 184.582778 592.344991 
L 191.16096 589.687082 
L 197.739142 586.314934 
L 204.317324 581.920675 
L 210.895506 576.210144 
L 217.473689 568.981993 
L 224.051871 560.276378 
L 237.208235 540.951365 
L 243.786417 532.616283 
L 250.364599 526.483158 
L 256.942782 522.412958 
L 263.520964 518.962507 
L 270.099146 513.966651 
L 276.677328 505.580505 
L 283.25551 492.763728 
L 289.833692 474.979623 
L 296.411874 451.90098 
L 302.990057 423.889325 
L 309.568239 393.41499 
L 316.146421 366.415323 
L 322.724603 351.15367 
L 329.302785 353.424332 
L 335.880967 371.913446 
L 342.459149 399.304737 
L 349.037332 428.24388 
L 355.615514 455.420435 
L 362.193696 480.743554 
L 368.771878 504.779278 
L 375.35006 527.462671 
L 381.928242 548.012652 
L 388.506424 565.236785 
L 395.084607 578.016248 
L 401.662789 585.81827 
L 408.240971 589.024551 
L 414.819153 589.006732 
L 421.397335 587.853774 
L 427.975517 587.646125 
L 434.5537 589.528903 
L 441.131882 593.234048 
L 447.710064 597.495159 
L 454.288246 601.027506 
L 460.866428 603.259572 
L 467.44461 604.35409 
L 474.022792 604.772468 
L 487.179157 604.925901 
L 493.757339 604.931074 
L 493.757339 604.931074 
" clip-path="url(#pf8fd36298f)" style="fill: none; stroke: #f7c6a6; stroke-width: 2.25; stroke-linecap: round"/>
   </g>
   <g id="line2d_33">
    <path d="M -1 603.967507 
L 13.483553 603.778477 
L 53.818665 603.676051 
L 80.708739 603.250272 
L 94.153776 602.874266 
L 121.04385 601.732521 
L 134.488888 600.915272 
L 141.211406 600.306054 
L 147.933925 599.552151 
L 154.656443 598.670461 
L 161.378962 597.656599 
L 168.10148 596.453036 
L 174.823999 594.937728 
L 181.546518 592.949554 
L 188.269036 590.333728 
L 194.991555 586.947908 
L 201.714073 582.603936 
L 208.436592 577.023761 
L 215.15911 569.927303 
L 221.881629 561.265836 
L 235.326666 541.575614 
L 242.049185 532.896142 
L 248.771703 526.496696 
L 255.494222 522.421054 
L 262.21674 519.319756 
L 268.939259 514.889808 
L 275.661777 506.953801 
L 282.384296 494.249921 
L 289.106815 476.301528 
L 295.829333 452.960456 
L 302.551852 424.798807 
L 309.27437 394.601229 
L 315.996889 368.527176 
L 322.719407 354.5903 
L 329.441926 357.964446 
L 336.164445 376.993673 
L 342.886963 404.647074 
L 349.609482 434.045669 
L 356.332 461.932191 
L 363.054519 487.801675 
L 369.777037 511.795247 
L 376.499556 533.759013 
L 383.222075 553.085297 
L 389.944593 568.808826 
L 396.667112 580.03065 
L 403.38963 586.460615 
L 410.112149 588.756501 
L 416.834667 588.523088 
L 423.557186 587.859684 
L 430.279705 588.520777 
L 437.002223 591.139217 
L 450.44726 599.049874 
L 457.169779 602.040423 
L 463.892297 603.775475 
L 470.614816 604.559707 
L 477.337334 604.836435 
L 490.782372 604.928809 
L 490.782372 604.928809 
" clip-path="url(#pf8fd36298f)" style="fill: none; stroke: #f69c73; stroke-width: 2.25; stroke-linecap: round"/>
   </g>
   <g id="line2d_34">
    <path d="M -1 604.262271 
L 55.248874 603.866706 
L 83.877631 603.259033 
L 98.192009 602.916416 
L 112.506387 602.383252 
L 126.820766 601.645427 
L 133.977955 601.108121 
L 141.135144 600.394621 
L 148.292333 599.526635 
L 155.449522 598.524871 
L 162.606711 597.331937 
L 169.763901 595.844869 
L 176.92109 593.9814 
L 184.078279 591.651007 
L 191.235468 588.675752 
L 198.392657 584.76108 
L 205.549846 579.531209 
L 212.707036 572.6352 
L 219.864225 563.933697 
L 227.021414 553.737899 
L 234.178603 543.009797 
L 241.335792 533.26959 
L 248.492981 525.933136 
L 255.65017 521.245453 
L 262.80736 517.641727 
L 269.964549 512.399881 
L 277.121738 503.158678 
L 284.278927 488.683588 
L 291.436116 468.315858 
L 298.593305 441.607643 
L 312.907684 378.246578 
L 320.064873 356.68693 
L 327.222062 353.954013 
L 334.379251 371.076137 
L 341.53644 400.445166 
L 348.69363 432.697118 
L 355.850819 462.807017 
L 363.008008 489.916362 
L 370.165197 514.511986 
L 377.322386 536.829837 
L 384.479575 556.356515 
L 391.636764 571.93031 
L 398.793954 582.449279 
L 405.951143 587.679491 
L 413.108332 588.714355 
L 420.265521 587.840022 
L 427.42271 587.607784 
L 434.579899 589.540501 
L 441.737089 593.450396 
L 448.894278 597.915804 
L 456.051467 601.487726 
L 463.208656 603.59696 
L 470.365845 604.529507 
L 477.523034 604.838782 
L 491.837413 604.929717 
L 491.837413 604.929717 
" clip-path="url(#pf8fd36298f)" style="fill: none; stroke: #f3714d; stroke-width: 2.25; stroke-linecap: round"/>
   </g>
   <g id="line2d_35">
    <path d="M -1 604.273486 
L 45.789832 603.948184 
L 86.386383 603.229079 
L 106.684658 602.471306 
L 126.982933 601.367601 
L 137.132071 600.615125 
L 147.281208 599.585062 
L 157.430346 598.208707 
L 167.579484 596.348064 
L 177.728621 593.752735 
L 187.877759 590.064752 
L 198.026897 584.781139 
L 208.176034 577.014919 
L 218.325172 565.762519 
L 228.474309 551.321474 
L 238.623447 536.442249 
L 248.772585 525.170159 
L 269.07086 512.26214 
L 279.219997 498.581606 
L 289.369135 473.588638 
L 299.518273 435.664639 
L 309.66741 389.281583 
L 319.816548 355.04859 
L 329.965686 358.641707 
L 340.114823 397.125638 
L 350.263961 443.586615 
L 360.413098 483.306907 
L 370.562236 516.981399 
L 380.711374 546.697276 
L 390.860511 570.621717 
L 401.009649 585.079747 
L 411.158786 589.410973 
L 421.307924 588.232817 
L 431.457062 588.620312 
L 441.606199 593.451964 
L 451.755337 599.534795 
L 461.904475 603.301824 
L 472.053612 604.625566 
L 482.20275 604.897083 
L 492.351887 604.92955 
L 492.351887 604.92955 
" clip-path="url(#pf8fd36298f)" style="fill: none; stroke: #e83f3f; stroke-width: 2.25; stroke-linecap: round"/>
   </g>
   <g id="line2d_36">
    <path d="M -1 604.22645 
L 31.734492 603.951224 
L 58.801251 603.862681 
L 85.86801 603.276649 
L 103.912515 602.753388 
L 112.934768 602.388634 
L 121.957021 601.888448 
L 130.979274 601.220038 
L 140.001527 600.395345 
L 149.023779 599.42666 
L 158.046032 598.264649 
L 167.068285 596.7468 
L 176.090538 594.61736 
L 185.112791 591.609505 
L 194.135044 587.385741 
L 203.157297 581.457698 
L 212.179549 573.193158 
L 221.201802 562.084051 
L 239.246308 535.550001 
L 248.268561 525.652247 
L 257.290814 519.854555 
L 266.313067 514.783499 
L 275.335319 504.982188 
L 284.357572 486.653125 
L 293.379825 457.898549 
L 302.402078 418.852258 
L 311.424331 377.186068 
L 320.446584 351.658363 
L 329.468836 359.174391 
L 338.491089 394.48057 
L 347.513342 436.255892 
L 356.535595 472.008053 
L 365.557848 502.12045 
L 374.580101 529.186873 
L 383.602354 553.511355 
L 392.624606 572.952434 
L 401.646859 584.780473 
L 410.669112 588.609255 
L 419.691365 587.744823 
L 428.713618 587.430664 
L 437.735871 590.751647 
L 446.758123 596.434519 
L 455.780376 601.300815 
L 464.802629 603.85787 
L 473.824882 604.717986 
L 482.847135 604.903886 
L 491.869388 604.929517 
L 491.869388 604.929517 
" clip-path="url(#pf8fd36298f)" style="fill: none; stroke: #ca1a50; stroke-width: 2.25; stroke-linecap: round"/>
   </g>
   <g id="line2d_37">
    <path d="M -1 604.182062 
L 66.018331 603.701599 
L 84.664966 603.285498 
L 121.958238 601.930702 
L 140.604873 600.600034 
L 159.251509 598.181343 
L 177.898145 594.018688 
L 196.54478 585.836401 
L 215.191416 569.590836 
L 233.838052 544.431118 
L 252.484687 524.134322 
L 271.131323 509.208441 
L 289.777959 466.793346 
L 308.424594 389.02221 
L 327.07123 358.446133 
L 345.717866 429.396369 
L 364.364501 499.147373 
L 383.011137 551.487524 
L 401.657772 583.50592 
L 420.304408 588.234717 
L 438.951044 592.015385 
L 457.597679 601.621806 
L 476.244315 604.720126 
L 494.890951 604.928984 
L 494.890951 604.928984 
" clip-path="url(#pf8fd36298f)" style="fill: none; stroke: #a11a5b; stroke-width: 2.25; stroke-linecap: round"/>
   </g>
   <g id="line2d_38">
    <path d="M -1 604.347288 
L 41.744605 603.995127 
L 84.247792 603.199939 
L 98.415521 602.961801 
L 112.58325 602.452311 
L 126.75098 601.580883 
L 140.918709 600.368313 
L 155.086438 598.714907 
L 169.254167 596.272749 
L 183.421896 592.281122 
L 197.589625 585.248073 
L 211.757354 573.255219 
L 225.925083 555.419303 
L 240.092813 535.579566 
L 254.260542 521.69486 
L 268.428271 510.944597 
L 282.596 487.113649 
L 296.763729 440.289274 
L 310.931458 379.568234 
L 325.099187 355.77794 
L 339.266916 401.155768 
L 353.434646 463.178231 
L 367.602375 510.240008 
L 381.770104 548.690791 
L 395.937833 576.81338 
L 410.105562 587.590746 
L 424.273291 587.657844 
L 438.44102 591.601212 
L 452.608749 599.544248 
L 466.776479 603.921515 
L 480.944208 604.851087 
L 495.111937 604.929309 
L 495.111937 604.929309 
" clip-path="url(#pf8fd36298f)" style="fill: none; stroke: #751f58; stroke-width: 2.25; stroke-linecap: round"/>
   </g>
   <g id="line2d_39">
    <path d="M -1 604.183899 
L -0.363146 604.178547 
L 31.478522 604.142468 
L 63.32019 603.644653 
L 95.161859 602.954169 
L 111.082693 602.360608 
L 127.003527 601.434783 
L 142.924361 600.064271 
L 158.845195 598.17701 
L 174.76603 595.171025 
L 190.686864 589.41521 
L 206.607698 578.562687 
L 222.528532 560.261824 
L 238.449366 537.77267 
L 254.370201 521.759234 
L 270.291035 509.484325 
L 286.211869 478.673041 
L 302.132703 417.55186 
L 318.053537 356.912487 
L 333.974371 376.611903 
L 349.895206 448.180555 
L 365.81604 504.294227 
L 381.736874 548.848634 
L 397.657708 579.835967 
L 413.578542 588.609107 
L 429.499377 588.431769 
L 461.341045 602.91956 
L 477.261879 604.785819 
L 493.182713 604.928687 
L 493.182713 604.928687 
" clip-path="url(#pf8fd36298f)" style="fill: none; stroke: #4c1d4b; stroke-width: 2.25; stroke-linecap: round"/>
   </g>
   <g id="line2d_40">
    <path d="M -1 604.289922 
L 8.077629 604.230801 
L 32.450632 603.889617 
L 56.823635 603.814622 
L 81.196638 603.378283 
L 105.569641 602.634 
L 129.942645 601.227168 
L 154.315648 598.981556 
L 178.688651 593.689978 
L 203.061654 581.07264 
L 227.434657 553.145482 
L 251.807661 523.041717 
L 276.180664 500.316118 
L 300.553667 425.366451 
L 324.92667 356.686282 
L 349.299673 445.530268 
L 373.672677 526.667785 
L 398.04568 579.813911 
L 422.418683 588.058947 
L 446.791686 596.432967 
L 471.164689 604.435518 
L 495.537693 604.92972 
L 495.537693 604.92972 
" clip-path="url(#pf8fd36298f)" style="fill: none; stroke: #251433; stroke-width: 2.25; stroke-linecap: round"/>
   </g>
   <g id="patch_6">
    <path d="M 72.483047 604.931875 
L 72.483047 338.464759 
" style="fill: none; stroke: #cccccc; stroke-width: 1.875; stroke-linejoin: miter; stroke-linecap: square"/>
   </g>
   <g id="patch_7">
    <path d="M 72.483047 604.931875 
L 507.228047 604.931875 
" style="fill: none; stroke: #cccccc; stroke-width: 1.875; stroke-linejoin: miter; stroke-linecap: square"/>
   </g>
   <g id="text_21">
    <!-- income_deciles = 10thD -->
    <g style="fill: #262626" transform="translate(193.554141 332.464759)scale(0.18 -0.18)">
     <defs>
      <path id="ArialMT-68" d="M 422 0 
L 422 4581 
L 984 4581 
L 984 2938 
Q 1378 3394 1978 3394 
Q 2347 3394 2619 3248 
Q 2891 3103 3008 2847 
Q 3125 2591 3125 2103 
L 3125 0 
L 2563 0 
L 2563 2103 
Q 2563 2525 2380 2717 
Q 2197 2909 1863 2909 
Q 1613 2909 1392 2779 
Q 1172 2650 1078 2428 
Q 984 2206 984 1816 
L 984 0 
L 422 0 
z
" transform="scale(0.015625)"/>
     </defs>
     <use xlink:href="#ArialMT-69"/>
     <use xlink:href="#ArialMT-6e" x="22.216797"/>
     <use xlink:href="#ArialMT-63" x="77.832031"/>
     <use xlink:href="#ArialMT-6f" x="127.832031"/>
     <use xlink:href="#ArialMT-6d" x="183.447266"/>
     <use xlink:href="#ArialMT-65" x="266.748047"/>
     <use xlink:href="#ArialMT-5f" x="322.363281"/>
     <use xlink:href="#ArialMT-64" x="377.978516"/>
     <use xlink:href="#ArialMT-65" x="433.59375"/>
     <use xlink:href="#ArialMT-63" x="489.208984"/>
     <use xlink:href="#ArialMT-69" x="539.208984"/>
     <use xlink:href="#ArialMT-6c" x="561.425781"/>
     <use xlink:href="#ArialMT-65" x="583.642578"/>
     <use xlink:href="#ArialMT-73" x="639.257812"/>
     <use xlink:href="#ArialMT-20" x="689.257812"/>
     <use xlink:href="#ArialMT-3d" x="717.041016"/>
     <use xlink:href="#ArialMT-20" x="775.439453"/>
     <use xlink:href="#ArialMT-31" x="803.222656"/>
     <use xlink:href="#ArialMT-30" x="858.837891"/>
     <use xlink:href="#ArialMT-74" x="914.453125"/>
     <use xlink:href="#ArialMT-68" x="942.236328"/>
     <use xlink:href="#ArialMT-44" x="997.851562"/>
    </g>
   </g>
   <g id="legend_1">
    <g id="patch_8">
     <path d="M 529.388297 601.70613 
L 693.863297 601.70613 
L 693.863297 341.690505 
L 529.388297 341.690505 
z
" style="fill: #ffffff; opacity: 0.8; stroke: #cccccc; stroke-width: 1.5; stroke-linejoin: miter"/>
    </g>
    <g id="text_22">
     <!-- Ridehail Scenarios -->
     <g style="fill: #262626" transform="translate(536.588297 361.774567)scale(0.18 -0.18)">
      <defs>
       <path id="ArialMT-52" d="M 503 0 
L 503 4581 
L 2534 4581 
Q 3147 4581 3465 4457 
Q 3784 4334 3975 4021 
Q 4166 3709 4166 3331 
Q 4166 2844 3850 2509 
Q 3534 2175 2875 2084 
Q 3116 1969 3241 1856 
Q 3506 1613 3744 1247 
L 4541 0 
L 3778 0 
L 3172 953 
Q 2906 1366 2734 1584 
Q 2563 1803 2427 1890 
Q 2291 1978 2150 2013 
Q 2047 2034 1813 2034 
L 1109 2034 
L 1109 0 
L 503 0 
z
M 1109 2559 
L 2413 2559 
Q 2828 2559 3062 2645 
Q 3297 2731 3419 2920 
Q 3541 3109 3541 3331 
Q 3541 3656 3305 3865 
Q 3069 4075 2559 4075 
L 1109 4075 
L 1109 2559 
z
" transform="scale(0.015625)"/>
      </defs>
      <use xlink:href="#ArialMT-52"/>
      <use xlink:href="#ArialMT-69" x="72.216797"/>
      <use xlink:href="#ArialMT-64" x="94.433594"/>
      <use xlink:href="#ArialMT-65" x="150.048828"/>
      <use xlink:href="#ArialMT-68" x="205.664062"/>
      <use xlink:href="#ArialMT-61" x="261.279297"/>
      <use xlink:href="#ArialMT-69" x="316.894531"/>
      <use xlink:href="#ArialMT-6c" x="339.111328"/>
      <use xlink:href="#ArialMT-20" x="361.328125"/>
      <use xlink:href="#ArialMT-53" x="389.111328"/>
      <use xlink:href="#ArialMT-63" x="455.810547"/>
      <use xlink:href="#ArialMT-65" x="505.810547"/>
      <use xlink:href="#ArialMT-6e" x="561.425781"/>
      <use xlink:href="#ArialMT-61" x="617.041016"/>
      <use xlink:href="#ArialMT-72" x="672.65625"/>
      <use xlink:href="#ArialMT-69" x="705.957031"/>
      <use xlink:href="#ArialMT-6f" x="728.173828"/>
      <use xlink:href="#ArialMT-73" x="783.789062"/>
     </g>
    </g>
    <g id="line2d_41">
     <path d="M 537.903141 380.93613 
L 555.903141 380.93613 
L 573.903141 380.93613 
" style="fill: none; stroke: #f7c6a6; stroke-width: 2.25; stroke-linecap: round"/>
    </g>
    <g id="text_23">
     <!-- 0% Price -->
     <g style="fill: #262626" transform="translate(588.303141 387.23613)scale(0.18 -0.18)">
      <defs>
       <path id="ArialMT-25" d="M 372 3481 
Q 372 3972 619 4315 
Q 866 4659 1334 4659 
Q 1766 4659 2048 4351 
Q 2331 4044 2331 3447 
Q 2331 2866 2045 2552 
Q 1759 2238 1341 2238 
Q 925 2238 648 2547 
Q 372 2856 372 3481 
z
M 1350 4272 
Q 1141 4272 1002 4090 
Q 863 3909 863 3425 
Q 863 2984 1003 2804 
Q 1144 2625 1350 2625 
Q 1563 2625 1702 2806 
Q 1841 2988 1841 3469 
Q 1841 3913 1700 4092 
Q 1559 4272 1350 4272 
z
M 1353 -169 
L 3859 4659 
L 4316 4659 
L 1819 -169 
L 1353 -169 
z
M 3334 1075 
Q 3334 1569 3581 1911 
Q 3828 2253 4300 2253 
Q 4731 2253 5014 1945 
Q 5297 1638 5297 1041 
Q 5297 459 5011 145 
Q 4725 -169 4303 -169 
Q 3888 -169 3611 142 
Q 3334 453 3334 1075 
z
M 4316 1866 
Q 4103 1866 3964 1684 
Q 3825 1503 3825 1019 
Q 3825 581 3965 400 
Q 4106 219 4313 219 
Q 4528 219 4667 400 
Q 4806 581 4806 1063 
Q 4806 1506 4665 1686 
Q 4525 1866 4316 1866 
z
" transform="scale(0.015625)"/>
      </defs>
      <use xlink:href="#ArialMT-30"/>
      <use xlink:href="#ArialMT-25" x="55.615234"/>
      <use xlink:href="#ArialMT-20" x="144.53125"/>
      <use xlink:href="#ArialMT-50" x="172.314453"/>
      <use xlink:href="#ArialMT-72" x="239.013672"/>
      <use xlink:href="#ArialMT-69" x="272.314453"/>
      <use xlink:href="#ArialMT-63" x="294.53125"/>
      <use xlink:href="#ArialMT-65" x="344.53125"/>
     </g>
    </g>
    <g id="line2d_42">
     <path d="M 537.903141 406.397692 
L 555.903141 406.397692 
L 573.903141 406.397692 
" style="fill: none; stroke: #f69c73; stroke-width: 2.25; stroke-linecap: round"/>
    </g>
    <g id="text_24">
     <!-- 12.5% Price -->
     <g style="fill: #262626" transform="translate(588.303141 412.697692)scale(0.18 -0.18)">
      <defs>
       <path id="ArialMT-35" d="M 266 1200 
L 856 1250 
Q 922 819 1161 601 
Q 1400 384 1738 384 
Q 2144 384 2425 690 
Q 2706 997 2706 1503 
Q 2706 1984 2436 2262 
Q 2166 2541 1728 2541 
Q 1456 2541 1237 2417 
Q 1019 2294 894 2097 
L 366 2166 
L 809 4519 
L 3088 4519 
L 3088 3981 
L 1259 3981 
L 1013 2750 
Q 1425 3038 1878 3038 
Q 2478 3038 2890 2622 
Q 3303 2206 3303 1553 
Q 3303 931 2941 478 
Q 2500 -78 1738 -78 
Q 1113 -78 717 272 
Q 322 622 266 1200 
z
" transform="scale(0.015625)"/>
      </defs>
      <use xlink:href="#ArialMT-31"/>
      <use xlink:href="#ArialMT-32" x="55.615234"/>
      <use xlink:href="#ArialMT-2e" x="111.230469"/>
      <use xlink:href="#ArialMT-35" x="139.013672"/>
      <use xlink:href="#ArialMT-25" x="194.628906"/>
      <use xlink:href="#ArialMT-20" x="283.544922"/>
      <use xlink:href="#ArialMT-50" x="311.328125"/>
      <use xlink:href="#ArialMT-72" x="378.027344"/>
      <use xlink:href="#ArialMT-69" x="411.328125"/>
      <use xlink:href="#ArialMT-63" x="433.544922"/>
      <use xlink:href="#ArialMT-65" x="483.544922"/>
     </g>
    </g>
    <g id="line2d_43">
     <path d="M 537.903141 431.859255 
L 555.903141 431.859255 
L 573.903141 431.859255 
" style="fill: none; stroke: #f3714d; stroke-width: 2.25; stroke-linecap: round"/>
    </g>
    <g id="text_25">
     <!-- 25% Price -->
     <g style="fill: #262626" transform="translate(588.303141 438.159255)scale(0.18 -0.18)">
      <use xlink:href="#ArialMT-32"/>
      <use xlink:href="#ArialMT-35" x="55.615234"/>
      <use xlink:href="#ArialMT-25" x="111.230469"/>
      <use xlink:href="#ArialMT-20" x="200.146484"/>
      <use xlink:href="#ArialMT-50" x="227.929688"/>
      <use xlink:href="#ArialMT-72" x="294.628906"/>
      <use xlink:href="#ArialMT-69" x="327.929688"/>
      <use xlink:href="#ArialMT-63" x="350.146484"/>
      <use xlink:href="#ArialMT-65" x="400.146484"/>
     </g>
    </g>
    <g id="line2d_44">
     <path d="M 537.903141 457.320817 
L 555.903141 457.320817 
L 573.903141 457.320817 
" style="fill: none; stroke: #e83f3f; stroke-width: 2.25; stroke-linecap: round"/>
    </g>
    <g id="text_26">
     <!-- 50% Price -->
     <g style="fill: #262626" transform="translate(588.303141 463.620817)scale(0.18 -0.18)">
      <use xlink:href="#ArialMT-35"/>
      <use xlink:href="#ArialMT-30" x="55.615234"/>
      <use xlink:href="#ArialMT-25" x="111.230469"/>
      <use xlink:href="#ArialMT-20" x="200.146484"/>
      <use xlink:href="#ArialMT-50" x="227.929688"/>
      <use xlink:href="#ArialMT-72" x="294.628906"/>
      <use xlink:href="#ArialMT-69" x="327.929688"/>
      <use xlink:href="#ArialMT-63" x="350.146484"/>
      <use xlink:href="#ArialMT-65" x="400.146484"/>
     </g>
    </g>
    <g id="line2d_45">
     <path d="M 537.903141 482.78238 
L 555.903141 482.78238 
L 573.903141 482.78238 
" style="fill: none; stroke: #ca1a50; stroke-width: 2.25; stroke-linecap: round"/>
    </g>
    <g id="text_27">
     <!-- Baseline -->
     <g style="fill: #262626" transform="translate(588.303141 489.08238)scale(0.18 -0.18)">
      <defs>
       <path id="ArialMT-42" d="M 469 0 
L 469 4581 
L 2188 4581 
Q 2713 4581 3030 4442 
Q 3347 4303 3526 4014 
Q 3706 3725 3706 3409 
Q 3706 3116 3547 2856 
Q 3388 2597 3066 2438 
Q 3481 2316 3704 2022 
Q 3928 1728 3928 1328 
Q 3928 1006 3792 729 
Q 3656 453 3456 303 
Q 3256 153 2954 76 
Q 2653 0 2216 0 
L 469 0 
z
M 1075 2656 
L 2066 2656 
Q 2469 2656 2644 2709 
Q 2875 2778 2992 2937 
Q 3109 3097 3109 3338 
Q 3109 3566 3000 3739 
Q 2891 3913 2687 3977 
Q 2484 4041 1991 4041 
L 1075 4041 
L 1075 2656 
z
M 1075 541 
L 2216 541 
Q 2509 541 2628 563 
Q 2838 600 2978 687 
Q 3119 775 3209 942 
Q 3300 1109 3300 1328 
Q 3300 1584 3169 1773 
Q 3038 1963 2805 2039 
Q 2572 2116 2134 2116 
L 1075 2116 
L 1075 541 
z
" transform="scale(0.015625)"/>
      </defs>
      <use xlink:href="#ArialMT-42"/>
      <use xlink:href="#ArialMT-61" x="66.699219"/>
      <use xlink:href="#ArialMT-73" x="122.314453"/>
      <use xlink:href="#ArialMT-65" x="172.314453"/>
      <use xlink:href="#ArialMT-6c" x="227.929688"/>
      <use xlink:href="#ArialMT-69" x="250.146484"/>
      <use xlink:href="#ArialMT-6e" x="272.363281"/>
      <use xlink:href="#ArialMT-65" x="327.978516"/>
     </g>
    </g>
    <g id="line2d_46">
     <path d="M 537.903141 508.243942 
L 555.903141 508.243942 
L 573.903141 508.243942 
" style="fill: none; stroke: #a11a5b; stroke-width: 2.25; stroke-linecap: round"/>
    </g>
    <g id="text_28">
     <!-- 175% Price -->
     <g style="fill: #262626" transform="translate(588.303141 514.543942)scale(0.18 -0.18)">
      <defs>
       <path id="ArialMT-37" d="M 303 3981 
L 303 4522 
L 3269 4522 
L 3269 4084 
Q 2831 3619 2401 2847 
Q 1972 2075 1738 1259 
Q 1569 684 1522 0 
L 944 0 
Q 953 541 1156 1306 
Q 1359 2072 1739 2783 
Q 2119 3494 2547 3981 
L 303 3981 
z
" transform="scale(0.015625)"/>
      </defs>
      <use xlink:href="#ArialMT-31"/>
      <use xlink:href="#ArialMT-37" x="55.615234"/>
      <use xlink:href="#ArialMT-35" x="111.230469"/>
      <use xlink:href="#ArialMT-25" x="166.845703"/>
      <use xlink:href="#ArialMT-20" x="255.761719"/>
      <use xlink:href="#ArialMT-50" x="283.544922"/>
      <use xlink:href="#ArialMT-72" x="350.244141"/>
      <use xlink:href="#ArialMT-69" x="383.544922"/>
      <use xlink:href="#ArialMT-63" x="405.761719"/>
      <use xlink:href="#ArialMT-65" x="455.761719"/>
     </g>
    </g>
    <g id="line2d_47">
     <path d="M 537.903141 533.705505 
L 555.903141 533.705505 
L 573.903141 533.705505 
" style="fill: none; stroke: #751f58; stroke-width: 2.25; stroke-linecap: round"/>
    </g>
    <g id="text_29">
     <!-- 300% Price -->
     <g style="fill: #262626" transform="translate(588.303141 540.005505)scale(0.18 -0.18)">
      <use xlink:href="#ArialMT-33"/>
      <use xlink:href="#ArialMT-30" x="55.615234"/>
      <use xlink:href="#ArialMT-30" x="111.230469"/>
      <use xlink:href="#ArialMT-25" x="166.845703"/>
      <use xlink:href="#ArialMT-20" x="255.761719"/>
      <use xlink:href="#ArialMT-50" x="283.544922"/>
      <use xlink:href="#ArialMT-72" x="350.244141"/>
      <use xlink:href="#ArialMT-69" x="383.544922"/>
      <use xlink:href="#ArialMT-63" x="405.761719"/>
      <use xlink:href="#ArialMT-65" x="455.761719"/>
     </g>
    </g>
    <g id="line2d_48">
     <path d="M 537.903141 559.167067 
L 555.903141 559.167067 
L 573.903141 559.167067 
" style="fill: none; stroke: #4c1d4b; stroke-width: 2.25; stroke-linecap: round"/>
    </g>
    <g id="text_30">
     <!-- 500% Price -->
     <g style="fill: #262626" transform="translate(588.303141 565.467067)scale(0.18 -0.18)">
      <use xlink:href="#ArialMT-35"/>
      <use xlink:href="#ArialMT-30" x="55.615234"/>
      <use xlink:href="#ArialMT-30" x="111.230469"/>
      <use xlink:href="#ArialMT-25" x="166.845703"/>
      <use xlink:href="#ArialMT-20" x="255.761719"/>
      <use xlink:href="#ArialMT-50" x="283.544922"/>
      <use xlink:href="#ArialMT-72" x="350.244141"/>
      <use xlink:href="#ArialMT-69" x="383.544922"/>
      <use xlink:href="#ArialMT-63" x="405.761719"/>
      <use xlink:href="#ArialMT-65" x="455.761719"/>
     </g>
    </g>
    <g id="line2d_49">
     <path d="M 537.903141 584.62863 
L 555.903141 584.62863 
L 573.903141 584.62863 
" style="fill: none; stroke: #251433; stroke-width: 2.25; stroke-linecap: round"/>
    </g>
    <g id="text_31">
     <!-- 800% Price -->
     <g style="fill: #262626" transform="translate(588.303141 590.92863)scale(0.18 -0.18)">
      <defs>
       <path id="ArialMT-38" d="M 1131 2484 
Q 781 2613 612 2850 
Q 444 3088 444 3419 
Q 444 3919 803 4259 
Q 1163 4600 1759 4600 
Q 2359 4600 2725 4251 
Q 3091 3903 3091 3403 
Q 3091 3084 2923 2848 
Q 2756 2613 2416 2484 
Q 2838 2347 3058 2040 
Q 3278 1734 3278 1309 
Q 3278 722 2862 322 
Q 2447 -78 1769 -78 
Q 1091 -78 675 323 
Q 259 725 259 1325 
Q 259 1772 486 2073 
Q 713 2375 1131 2484 
z
M 1019 3438 
Q 1019 3113 1228 2906 
Q 1438 2700 1772 2700 
Q 2097 2700 2305 2904 
Q 2513 3109 2513 3406 
Q 2513 3716 2298 3927 
Q 2084 4138 1766 4138 
Q 1444 4138 1231 3931 
Q 1019 3725 1019 3438 
z
M 838 1322 
Q 838 1081 952 856 
Q 1066 631 1291 507 
Q 1516 384 1775 384 
Q 2178 384 2440 643 
Q 2703 903 2703 1303 
Q 2703 1709 2433 1975 
Q 2163 2241 1756 2241 
Q 1359 2241 1098 1978 
Q 838 1716 838 1322 
z
" transform="scale(0.015625)"/>
      </defs>
      <use xlink:href="#ArialMT-38"/>
      <use xlink:href="#ArialMT-30" x="55.615234"/>
      <use xlink:href="#ArialMT-30" x="111.230469"/>
      <use xlink:href="#ArialMT-25" x="166.845703"/>
      <use xlink:href="#ArialMT-20" x="255.761719"/>
      <use xlink:href="#ArialMT-50" x="283.544922"/>
      <use xlink:href="#ArialMT-72" x="350.244141"/>
      <use xlink:href="#ArialMT-69" x="383.544922"/>
      <use xlink:href="#ArialMT-63" x="405.761719"/>
      <use xlink:href="#ArialMT-65" x="455.761719"/>
     </g>
    </g>
   </g>
  </g>
 </g>
 <defs>
  <clipPath id="p6ae2e47a47">
   <rect x="72.483047" y="26.1375" width="434.745" height="266.467116"/>
  </clipPath>
  <clipPath id="pf8fd36298f">
   <rect x="72.483047" y="338.464759" width="434.745" height="266.467116"/>
  </clipPath>
 </defs>
</svg>
