<?xml version="1.0" encoding="utf-8" standalone="no"?>
<!DOCTYPE svg PUBLIC "-//W3C//DTD SVG 1.1//EN"
  "http://www.w3.org/Graphics/SVG/1.1/DTD/svg11.dtd">
<svg xmlns:xlink="http://www.w3.org/1999/xlink" width="705.119pt" height="660.129766pt" viewBox="0 0 705.119 660.129766" xmlns="http://www.w3.org/2000/svg" version="1.1">
 <metadata>
  <rdf:RDF xmlns:dc="http://purl.org/dc/elements/1.1/" xmlns:cc="http://creativecommons.org/ns#" xmlns:rdf="http://www.w3.org/1999/02/22-rdf-syntax-ns#">
   <cc:Work>
    <dc:type rdf:resource="http://purl.org/dc/dcmitype/StillImage"/>
    <dc:date>2023-02-01T22:04:41.076978</dc:date>
    <dc:format>image/svg+xml</dc:format>
    <dc:creator>
     <cc:Agent>
      <dc:title>Matplotlib v3.5.1, https://matplotlib.org/</dc:title>
     </cc:Agent>
    </dc:creator>
   </cc:Work>
  </rdf:RDF>
 </metadata>
 <defs>
  <style type="text/css">*{stroke-linejoin: round; stroke-linecap: butt}</style>
 </defs>
 <g id="figure_1">
  <g id="patch_1">
   <path d="M 0 660.129766 
L 705.119 660.129766 
L 705.119 0 
L 0 0 
z
" style="fill: #ffffff"/>
  </g>
  <g id="axes_1">
   <g id="patch_2">
    <path d="M 63.3075 292.551178 
L 507.1775 292.551178 
L 507.1775 26.084063 
L 63.3075 26.084063 
z
" style="fill: #ffffff"/>
   </g>
   <g id="matplotlib.axis_1">
    <g id="xtick_1">
     <g id="line2d_1">
      <path d="M 63.3075 292.551178 
L 63.3075 26.084063 
" clip-path="url(#p62e8be3c77)" style="fill: none; stroke: #cccccc; stroke-width: 1.5; stroke-linecap: round"/>
     </g>
    </g>
    <g id="xtick_2">
     <g id="line2d_2">
      <path d="M 131.595192 292.551178 
L 131.595192 26.084063 
" clip-path="url(#p62e8be3c77)" style="fill: none; stroke: #cccccc; stroke-width: 1.5; stroke-linecap: round"/>
     </g>
    </g>
    <g id="xtick_3">
     <g id="line2d_3">
      <path d="M 199.882885 292.551178 
L 199.882885 26.084063 
" clip-path="url(#p62e8be3c77)" style="fill: none; stroke: #cccccc; stroke-width: 1.5; stroke-linecap: round"/>
     </g>
    </g>
    <g id="xtick_4">
     <g id="line2d_4">
      <path d="M 268.170577 292.551178 
L 268.170577 26.084063 
" clip-path="url(#p62e8be3c77)" style="fill: none; stroke: #cccccc; stroke-width: 1.5; stroke-linecap: round"/>
     </g>
    </g>
    <g id="xtick_5">
     <g id="line2d_5">
      <path d="M 336.458269 292.551178 
L 336.458269 26.084063 
" clip-path="url(#p62e8be3c77)" style="fill: none; stroke: #cccccc; stroke-width: 1.5; stroke-linecap: round"/>
     </g>
    </g>
    <g id="xtick_6">
     <g id="line2d_6">
      <path d="M 404.745962 292.551178 
L 404.745962 26.084063 
" clip-path="url(#p62e8be3c77)" style="fill: none; stroke: #cccccc; stroke-width: 1.5; stroke-linecap: round"/>
     </g>
    </g>
    <g id="xtick_7">
     <g id="line2d_7">
      <path d="M 473.033654 292.551178 
L 473.033654 26.084063 
" clip-path="url(#p62e8be3c77)" style="fill: none; stroke: #cccccc; stroke-width: 1.5; stroke-linecap: round"/>
     </g>
    </g>
   </g>
   <g id="matplotlib.axis_2">
    <g id="ytick_1">
     <g id="line2d_8">
      <path d="M 63.3075 292.551178 
L 507.1775 292.551178 
" clip-path="url(#p62e8be3c77)" style="fill: none; stroke: #cccccc; stroke-width: 1.5; stroke-linecap: round"/>
     </g>
     <g id="text_1">
      <!-- 0.0 -->
      <g style="fill: #262626" transform="translate(27.8725 298.456373)scale(0.165 -0.165)">
       <defs>
        <path id="ArialMT-30" d="M 266 2259 
Q 266 3072 433 3567 
Q 600 4063 929 4331 
Q 1259 4600 1759 4600 
Q 2128 4600 2406 4451 
Q 2684 4303 2865 4023 
Q 3047 3744 3150 3342 
Q 3253 2941 3253 2259 
Q 3253 1453 3087 958 
Q 2922 463 2592 192 
Q 2263 -78 1759 -78 
Q 1097 -78 719 397 
Q 266 969 266 2259 
z
M 844 2259 
Q 844 1131 1108 757 
Q 1372 384 1759 384 
Q 2147 384 2411 759 
Q 2675 1134 2675 2259 
Q 2675 3391 2411 3762 
Q 2147 4134 1753 4134 
Q 1366 4134 1134 3806 
Q 844 3388 844 2259 
z
" transform="scale(0.015625)"/>
        <path id="ArialMT-2e" d="M 581 0 
L 581 641 
L 1222 641 
L 1222 0 
L 581 0 
z
" transform="scale(0.015625)"/>
       </defs>
       <use xlink:href="#ArialMT-30"/>
       <use xlink:href="#ArialMT-2e" x="55.615234"/>
       <use xlink:href="#ArialMT-30" x="83.398438"/>
      </g>
     </g>
    </g>
    <g id="ytick_2">
     <g id="line2d_9">
      <path d="M 63.3075 237.06502 
L 507.1775 237.06502 
" clip-path="url(#p62e8be3c77)" style="fill: none; stroke: #cccccc; stroke-width: 1.5; stroke-linecap: round"/>
     </g>
     <g id="text_2">
      <!-- 0.1 -->
      <g style="fill: #262626" transform="translate(27.8725 242.970215)scale(0.165 -0.165)">
       <defs>
        <path id="ArialMT-31" d="M 2384 0 
L 1822 0 
L 1822 3584 
Q 1619 3391 1289 3197 
Q 959 3003 697 2906 
L 697 3450 
Q 1169 3672 1522 3987 
Q 1875 4303 2022 4600 
L 2384 4600 
L 2384 0 
z
" transform="scale(0.015625)"/>
       </defs>
       <use xlink:href="#ArialMT-30"/>
       <use xlink:href="#ArialMT-2e" x="55.615234"/>
       <use xlink:href="#ArialMT-31" x="83.398438"/>
      </g>
     </g>
    </g>
    <g id="ytick_3">
     <g id="line2d_10">
      <path d="M 63.3075 181.578862 
L 507.1775 181.578862 
" clip-path="url(#p62e8be3c77)" style="fill: none; stroke: #cccccc; stroke-width: 1.5; stroke-linecap: round"/>
     </g>
     <g id="text_3">
      <!-- 0.2 -->
      <g style="fill: #262626" transform="translate(27.8725 187.484057)scale(0.165 -0.165)">
       <defs>
        <path id="ArialMT-32" d="M 3222 541 
L 3222 0 
L 194 0 
Q 188 203 259 391 
Q 375 700 629 1000 
Q 884 1300 1366 1694 
Q 2113 2306 2375 2664 
Q 2638 3022 2638 3341 
Q 2638 3675 2398 3904 
Q 2159 4134 1775 4134 
Q 1369 4134 1125 3890 
Q 881 3647 878 3216 
L 300 3275 
Q 359 3922 746 4261 
Q 1134 4600 1788 4600 
Q 2447 4600 2831 4234 
Q 3216 3869 3216 3328 
Q 3216 3053 3103 2787 
Q 2991 2522 2730 2228 
Q 2469 1934 1863 1422 
Q 1356 997 1212 845 
Q 1069 694 975 541 
L 3222 541 
z
" transform="scale(0.015625)"/>
       </defs>
       <use xlink:href="#ArialMT-30"/>
       <use xlink:href="#ArialMT-2e" x="55.615234"/>
       <use xlink:href="#ArialMT-32" x="83.398438"/>
      </g>
     </g>
    </g>
    <g id="ytick_4">
     <g id="line2d_11">
      <path d="M 63.3075 126.092704 
L 507.1775 126.092704 
" clip-path="url(#p62e8be3c77)" style="fill: none; stroke: #cccccc; stroke-width: 1.5; stroke-linecap: round"/>
     </g>
     <g id="text_4">
      <!-- 0.3 -->
      <g style="fill: #262626" transform="translate(27.8725 131.997899)scale(0.165 -0.165)">
       <defs>
        <path id="ArialMT-33" d="M 269 1209 
L 831 1284 
Q 928 806 1161 595 
Q 1394 384 1728 384 
Q 2125 384 2398 659 
Q 2672 934 2672 1341 
Q 2672 1728 2419 1979 
Q 2166 2231 1775 2231 
Q 1616 2231 1378 2169 
L 1441 2663 
Q 1497 2656 1531 2656 
Q 1891 2656 2178 2843 
Q 2466 3031 2466 3422 
Q 2466 3731 2256 3934 
Q 2047 4138 1716 4138 
Q 1388 4138 1169 3931 
Q 950 3725 888 3313 
L 325 3413 
Q 428 3978 793 4289 
Q 1159 4600 1703 4600 
Q 2078 4600 2393 4439 
Q 2709 4278 2876 4000 
Q 3044 3722 3044 3409 
Q 3044 3113 2884 2869 
Q 2725 2625 2413 2481 
Q 2819 2388 3044 2092 
Q 3269 1797 3269 1353 
Q 3269 753 2831 336 
Q 2394 -81 1725 -81 
Q 1122 -81 723 278 
Q 325 638 269 1209 
z
" transform="scale(0.015625)"/>
       </defs>
       <use xlink:href="#ArialMT-30"/>
       <use xlink:href="#ArialMT-2e" x="55.615234"/>
       <use xlink:href="#ArialMT-33" x="83.398438"/>
      </g>
     </g>
    </g>
    <g id="ytick_5">
     <g id="line2d_12">
      <path d="M 63.3075 70.606546 
L 507.1775 70.606546 
" clip-path="url(#p62e8be3c77)" style="fill: none; stroke: #cccccc; stroke-width: 1.5; stroke-linecap: round"/>
     </g>
     <g id="text_5">
      <!-- 0.4 -->
      <g style="fill: #262626" transform="translate(27.8725 76.511741)scale(0.165 -0.165)">
       <defs>
        <path id="ArialMT-34" d="M 2069 0 
L 2069 1097 
L 81 1097 
L 81 1613 
L 2172 4581 
L 2631 4581 
L 2631 1613 
L 3250 1613 
L 3250 1097 
L 2631 1097 
L 2631 0 
L 2069 0 
z
M 2069 1613 
L 2069 3678 
L 634 1613 
L 2069 1613 
z
" transform="scale(0.015625)"/>
       </defs>
       <use xlink:href="#ArialMT-30"/>
       <use xlink:href="#ArialMT-2e" x="55.615234"/>
       <use xlink:href="#ArialMT-34" x="83.398438"/>
      </g>
     </g>
    </g>
    <g id="text_6">
     <!-- Frequency Density -->
     <g style="fill: #262626" transform="translate(20.084062 234.345277)rotate(-90)scale(0.18 -0.18)">
      <defs>
       <path id="ArialMT-46" d="M 525 0 
L 525 4581 
L 3616 4581 
L 3616 4041 
L 1131 4041 
L 1131 2622 
L 3281 2622 
L 3281 2081 
L 1131 2081 
L 1131 0 
L 525 0 
z
" transform="scale(0.015625)"/>
       <path id="ArialMT-72" d="M 416 0 
L 416 3319 
L 922 3319 
L 922 2816 
Q 1116 3169 1280 3281 
Q 1444 3394 1641 3394 
Q 1925 3394 2219 3213 
L 2025 2691 
Q 1819 2813 1613 2813 
Q 1428 2813 1281 2702 
Q 1134 2591 1072 2394 
Q 978 2094 978 1738 
L 978 0 
L 416 0 
z
" transform="scale(0.015625)"/>
       <path id="ArialMT-65" d="M 2694 1069 
L 3275 997 
Q 3138 488 2766 206 
Q 2394 -75 1816 -75 
Q 1088 -75 661 373 
Q 234 822 234 1631 
Q 234 2469 665 2931 
Q 1097 3394 1784 3394 
Q 2450 3394 2872 2941 
Q 3294 2488 3294 1666 
Q 3294 1616 3291 1516 
L 816 1516 
Q 847 969 1125 678 
Q 1403 388 1819 388 
Q 2128 388 2347 550 
Q 2566 713 2694 1069 
z
M 847 1978 
L 2700 1978 
Q 2663 2397 2488 2606 
Q 2219 2931 1791 2931 
Q 1403 2931 1139 2672 
Q 875 2413 847 1978 
z
" transform="scale(0.015625)"/>
       <path id="ArialMT-71" d="M 2538 -1272 
L 2538 353 
Q 2406 169 2170 47 
Q 1934 -75 1669 -75 
Q 1078 -75 651 397 
Q 225 869 225 1691 
Q 225 2191 398 2587 
Q 572 2984 901 3189 
Q 1231 3394 1625 3394 
Q 2241 3394 2594 2875 
L 2594 3319 
L 3100 3319 
L 3100 -1272 
L 2538 -1272 
z
M 803 1669 
Q 803 1028 1072 708 
Q 1341 388 1716 388 
Q 2075 388 2334 692 
Q 2594 997 2594 1619 
Q 2594 2281 2320 2615 
Q 2047 2950 1678 2950 
Q 1313 2950 1058 2639 
Q 803 2328 803 1669 
z
" transform="scale(0.015625)"/>
       <path id="ArialMT-75" d="M 2597 0 
L 2597 488 
Q 2209 -75 1544 -75 
Q 1250 -75 995 37 
Q 741 150 617 320 
Q 494 491 444 738 
Q 409 903 409 1263 
L 409 3319 
L 972 3319 
L 972 1478 
Q 972 1038 1006 884 
Q 1059 663 1231 536 
Q 1403 409 1656 409 
Q 1909 409 2131 539 
Q 2353 669 2445 892 
Q 2538 1116 2538 1541 
L 2538 3319 
L 3100 3319 
L 3100 0 
L 2597 0 
z
" transform="scale(0.015625)"/>
       <path id="ArialMT-6e" d="M 422 0 
L 422 3319 
L 928 3319 
L 928 2847 
Q 1294 3394 1984 3394 
Q 2284 3394 2536 3286 
Q 2788 3178 2913 3003 
Q 3038 2828 3088 2588 
Q 3119 2431 3119 2041 
L 3119 0 
L 2556 0 
L 2556 2019 
Q 2556 2363 2490 2533 
Q 2425 2703 2258 2804 
Q 2091 2906 1866 2906 
Q 1506 2906 1245 2678 
Q 984 2450 984 1813 
L 984 0 
L 422 0 
z
" transform="scale(0.015625)"/>
       <path id="ArialMT-63" d="M 2588 1216 
L 3141 1144 
Q 3050 572 2676 248 
Q 2303 -75 1759 -75 
Q 1078 -75 664 370 
Q 250 816 250 1647 
Q 250 2184 428 2587 
Q 606 2991 970 3192 
Q 1334 3394 1763 3394 
Q 2303 3394 2647 3120 
Q 2991 2847 3088 2344 
L 2541 2259 
Q 2463 2594 2264 2762 
Q 2066 2931 1784 2931 
Q 1359 2931 1093 2626 
Q 828 2322 828 1663 
Q 828 994 1084 691 
Q 1341 388 1753 388 
Q 2084 388 2306 591 
Q 2528 794 2588 1216 
z
" transform="scale(0.015625)"/>
       <path id="ArialMT-79" d="M 397 -1278 
L 334 -750 
Q 519 -800 656 -800 
Q 844 -800 956 -737 
Q 1069 -675 1141 -563 
Q 1194 -478 1313 -144 
Q 1328 -97 1363 -6 
L 103 3319 
L 709 3319 
L 1400 1397 
Q 1534 1031 1641 628 
Q 1738 1016 1872 1384 
L 2581 3319 
L 3144 3319 
L 1881 -56 
Q 1678 -603 1566 -809 
Q 1416 -1088 1222 -1217 
Q 1028 -1347 759 -1347 
Q 597 -1347 397 -1278 
z
" transform="scale(0.015625)"/>
       <path id="ArialMT-20" transform="scale(0.015625)"/>
       <path id="ArialMT-44" d="M 494 0 
L 494 4581 
L 2072 4581 
Q 2606 4581 2888 4516 
Q 3281 4425 3559 4188 
Q 3922 3881 4101 3404 
Q 4281 2928 4281 2316 
Q 4281 1794 4159 1391 
Q 4038 988 3847 723 
Q 3656 459 3429 307 
Q 3203 156 2883 78 
Q 2563 0 2147 0 
L 494 0 
z
M 1100 541 
L 2078 541 
Q 2531 541 2789 625 
Q 3047 709 3200 863 
Q 3416 1078 3536 1442 
Q 3656 1806 3656 2325 
Q 3656 3044 3420 3430 
Q 3184 3816 2847 3947 
Q 2603 4041 2063 4041 
L 1100 4041 
L 1100 541 
z
" transform="scale(0.015625)"/>
       <path id="ArialMT-73" d="M 197 991 
L 753 1078 
Q 800 744 1014 566 
Q 1228 388 1613 388 
Q 2000 388 2187 545 
Q 2375 703 2375 916 
Q 2375 1106 2209 1216 
Q 2094 1291 1634 1406 
Q 1016 1563 777 1677 
Q 538 1791 414 1992 
Q 291 2194 291 2438 
Q 291 2659 392 2848 
Q 494 3038 669 3163 
Q 800 3259 1026 3326 
Q 1253 3394 1513 3394 
Q 1903 3394 2198 3281 
Q 2494 3169 2634 2976 
Q 2775 2784 2828 2463 
L 2278 2388 
Q 2241 2644 2061 2787 
Q 1881 2931 1553 2931 
Q 1166 2931 1000 2803 
Q 834 2675 834 2503 
Q 834 2394 903 2306 
Q 972 2216 1119 2156 
Q 1203 2125 1616 2013 
Q 2213 1853 2448 1751 
Q 2684 1650 2818 1456 
Q 2953 1263 2953 975 
Q 2953 694 2789 445 
Q 2625 197 2315 61 
Q 2006 -75 1616 -75 
Q 969 -75 630 194 
Q 291 463 197 991 
z
" transform="scale(0.015625)"/>
       <path id="ArialMT-69" d="M 425 3934 
L 425 4581 
L 988 4581 
L 988 3934 
L 425 3934 
z
M 425 0 
L 425 3319 
L 988 3319 
L 988 0 
L 425 0 
z
" transform="scale(0.015625)"/>
       <path id="ArialMT-74" d="M 1650 503 
L 1731 6 
Q 1494 -44 1306 -44 
Q 1000 -44 831 53 
Q 663 150 594 308 
Q 525 466 525 972 
L 525 2881 
L 113 2881 
L 113 3319 
L 525 3319 
L 525 4141 
L 1084 4478 
L 1084 3319 
L 1650 3319 
L 1650 2881 
L 1084 2881 
L 1084 941 
Q 1084 700 1114 631 
Q 1144 563 1211 522 
Q 1278 481 1403 481 
Q 1497 481 1650 503 
z
" transform="scale(0.015625)"/>
      </defs>
      <use xlink:href="#ArialMT-46"/>
      <use xlink:href="#ArialMT-72" x="61.083984"/>
      <use xlink:href="#ArialMT-65" x="94.384766"/>
      <use xlink:href="#ArialMT-71" x="150"/>
      <use xlink:href="#ArialMT-75" x="205.615234"/>
      <use xlink:href="#ArialMT-65" x="261.230469"/>
      <use xlink:href="#ArialMT-6e" x="316.845703"/>
      <use xlink:href="#ArialMT-63" x="372.460938"/>
      <use xlink:href="#ArialMT-79" x="422.460938"/>
      <use xlink:href="#ArialMT-20" x="472.460938"/>
      <use xlink:href="#ArialMT-44" x="500.244141"/>
      <use xlink:href="#ArialMT-65" x="572.460938"/>
      <use xlink:href="#ArialMT-6e" x="628.076172"/>
      <use xlink:href="#ArialMT-73" x="683.691406"/>
      <use xlink:href="#ArialMT-69" x="733.691406"/>
      <use xlink:href="#ArialMT-74" x="755.908203"/>
      <use xlink:href="#ArialMT-79" x="783.691406"/>
     </g>
    </g>
   </g>
   <g id="line2d_13">
    <path d="M -1 292.523637 
L 22.815354 292.419073 
L 53.523452 292.159834 
L 93.005292 291.805017 
L 106.165905 291.670327 
L 123.71339 291.546299 
L 136.874003 291.179013 
L 150.034617 290.586575 
L 167.582101 289.755384 
L 176.355843 289.275389 
L 185.129586 288.479519 
L 189.516457 287.936184 
L 193.903328 287.273014 
L 198.290199 286.479532 
L 202.67707 285.560584 
L 207.063941 284.519232 
L 211.450812 283.334666 
L 215.837684 281.948466 
L 220.224555 280.258588 
L 224.611426 278.129839 
L 228.998297 275.42447 
L 233.385168 272.034614 
L 237.772039 267.89585 
L 242.15891 262.980907 
L 246.545781 257.296817 
L 250.932653 250.910609 
L 255.319524 243.995503 
L 264.093266 229.914649 
L 268.480137 223.586212 
L 272.867008 218.09431 
L 281.640751 208.252541 
L 286.027622 202.360676 
L 290.414493 194.951283 
L 294.801364 185.773004 
L 299.188235 174.690698 
L 303.575106 161.459758 
L 307.961977 145.707399 
L 312.348848 127.200942 
L 316.73572 106.34613 
L 321.122591 84.660377 
L 325.509462 64.865462 
L 329.896333 50.306723 
L 334.283204 43.758435 
L 338.670075 46.319285 
L 343.056946 57.26499 
L 347.443817 74.874239 
L 351.830689 97.359802 
L 356.21756 123.200922 
L 369.378173 205.852163 
L 373.765044 229.866496 
L 378.151915 249.941201 
L 382.538786 265.425527 
L 386.925658 276.30889 
L 391.312529 283.191497 
L 395.6994 287.055836 
L 400.086271 288.971641 
L 404.473142 289.859026 
L 417.633755 291.241435 
L 426.407498 292.045255 
L 435.18124 292.441942 
L 448.341853 292.54838 
L 452.728724 292.550634 
L 452.728724 292.550634 
" clip-path="url(#p62e8be3c77)" style="fill: none; stroke: #f7c6a6; stroke-width: 2.25; stroke-linecap: round"/>
   </g>
   <g id="line2d_14">
    <path d="M -1 292.435613 
L 27.679435 292.270065 
L 71.529038 291.952727 
L 87.97264 291.857684 
L 109.897441 291.470963 
L 148.265844 290.345286 
L 170.190646 289.129399 
L 175.671846 288.814348 
L 181.153047 288.338462 
L 186.634247 287.675343 
L 192.115447 286.863439 
L 197.596648 285.927945 
L 203.077848 284.81597 
L 208.559049 283.400777 
L 214.040249 281.550106 
L 219.521449 279.19853 
L 225.00265 276.298075 
L 230.48385 272.669166 
L 235.965051 267.985419 
L 241.446251 261.963499 
L 246.927451 254.557179 
L 252.408652 246.010218 
L 263.371053 227.708337 
L 268.852253 219.396424 
L 274.333454 212.151195 
L 279.814654 205.277498 
L 285.295854 197.387589 
L 290.777055 187.399744 
L 296.258255 174.98329 
L 301.739456 159.900062 
L 307.220656 141.412467 
L 312.701856 118.90313 
L 318.183057 93.527984 
L 323.664257 69.467642 
L 329.145458 53.031413 
L 334.626658 49.395474 
L 340.107858 59.582661 
L 345.589059 80.772503 
L 351.070259 109.000938 
L 356.55146 140.832146 
L 362.03266 173.418122 
L 367.513861 204.394714 
L 372.995061 231.848781 
L 378.476261 254.198241 
L 383.957462 270.47978 
L 389.438662 280.847814 
L 394.919863 286.498121 
L 400.401063 289.079078 
L 405.882263 290.114887 
L 422.325865 291.641786 
L 427.807065 292.065029 
L 433.288265 292.339779 
L 444.250666 292.531504 
L 455.213067 292.550575 
L 455.213067 292.550575 
" clip-path="url(#p62e8be3c77)" style="fill: none; stroke: #f69c73; stroke-width: 2.25; stroke-linecap: round"/>
   </g>
   <g id="line2d_15">
    <path d="M -1 292.422952 
L 29.77792 292.243974 
L 94.142907 291.744212 
L 108.446238 291.454556 
L 122.749568 291.041458 
L 144.204564 290.76099 
L 158.507895 290.122135 
L 172.811225 289.017551 
L 187.114555 287.568251 
L 194.266221 286.590925 
L 201.417886 285.274861 
L 208.569551 283.449702 
L 215.721216 280.877173 
L 222.872882 277.331945 
L 230.024547 272.563085 
L 237.176212 266.101569 
L 244.327877 257.523479 
L 251.479542 246.785464 
L 265.782873 222.517635 
L 272.934538 212.116709 
L 280.086203 202.683624 
L 287.237869 191.665886 
L 294.389534 176.590429 
L 301.541199 156.418356 
L 308.692864 130.504575 
L 315.84453 99.342022 
L 322.996195 69.389163 
L 330.14786 53.07164 
L 337.299525 58.908504 
L 344.45119 83.850733 
L 351.602856 119.252626 
L 365.906186 197.703698 
L 373.057851 232.639984 
L 380.209517 259.996939 
L 387.361182 277.509678 
L 394.512847 286.172761 
L 401.664512 289.331042 
L 408.816177 290.331875 
L 423.119508 291.696527 
L 430.271173 292.205554 
L 437.422838 292.453674 
L 451.726169 292.548874 
L 458.877834 292.550998 
L 458.877834 292.550998 
" clip-path="url(#p62e8be3c77)" style="fill: none; stroke: #f3714d; stroke-width: 2.25; stroke-linecap: round"/>
   </g>
   <g id="line2d_16">
    <path d="M -1 292.39126 
L 30.977558 292.25749 
L 60.241825 292.130361 
L 71.947533 292.047053 
L 101.2118 291.71093 
L 112.917507 291.502534 
L 148.034628 290.431965 
L 159.740335 289.771363 
L 177.298896 288.503616 
L 183.151749 287.94356 
L 189.004603 287.211614 
L 194.857456 286.266354 
L 200.71031 285.098444 
L 206.563163 283.666614 
L 212.416017 281.893937 
L 218.26887 279.674418 
L 224.121724 276.80629 
L 229.974577 273.001727 
L 235.827431 267.967073 
L 241.680284 261.389005 
L 247.533138 253.020336 
L 253.385991 243.048115 
L 259.238845 232.360223 
L 265.091698 222.265616 
L 270.944552 213.685671 
L 276.797405 206.291645 
L 282.650259 198.441793 
L 288.503112 188.249733 
L 294.355966 174.704313 
L 300.208819 157.629486 
L 306.061673 136.869293 
L 311.914526 112.340124 
L 317.76738 85.926657 
L 323.620233 63.387234 
L 329.473087 52.589815 
L 335.32594 58.021676 
L 341.178794 77.328548 
L 347.031647 104.166796 
L 358.737354 163.293513 
L 364.590208 192.819479 
L 370.443062 221.000363 
L 376.295915 245.866654 
L 382.148769 265.23526 
L 388.001622 278.12879 
L 393.854476 285.34645 
L 399.707329 288.712958 
L 405.560183 290.063633 
L 411.413036 290.679815 
L 428.971597 292.114804 
L 434.82445 292.378444 
L 446.530157 292.539192 
L 458.235864 292.550924 
L 458.235864 292.550924 
" clip-path="url(#p62e8be3c77)" style="fill: none; stroke: #e83f3f; stroke-width: 2.25; stroke-linecap: round"/>
   </g>
   <g id="line2d_17">
    <path d="M -1 292.327373 
L 77.336481 291.825828 
L 89.772116 291.636587 
L 108.425569 291.480817 
L 145.732474 290.517241 
L 158.168109 289.843517 
L 176.821561 288.626021 
L 183.039378 288.097237 
L 189.257196 287.34695 
L 195.475013 286.284485 
L 201.692831 284.902134 
L 207.910648 283.203445 
L 214.128466 281.058959 
L 220.346283 278.225928 
L 226.564101 274.483867 
L 232.781918 269.615253 
L 238.999736 263.334857 
L 245.217553 255.40147 
L 251.435371 245.851606 
L 263.871006 224.813358 
L 270.088823 215.578592 
L 276.306641 207.504327 
L 282.524458 198.948596 
L 288.742276 187.573088 
L 294.960093 171.907567 
L 301.177911 151.671654 
L 307.395728 126.856548 
L 313.613546 98.31312 
L 319.831363 70.801364 
L 326.049181 53.828623 
L 332.266998 55.512734 
L 338.484816 74.697463 
L 344.702633 102.338847 
L 369.573903 217.449858 
L 375.791721 243.704337 
L 382.009538 264.410026 
L 388.227356 278.1737 
L 394.445173 285.666558 
L 400.662991 288.890239 
L 406.880808 290.043476 
L 425.53426 291.857709 
L 431.752078 292.264005 
L 437.969895 292.462271 
L 450.40553 292.547936 
L 456.623348 292.550812 
L 456.623348 292.550812 
" clip-path="url(#p62e8be3c77)" style="fill: none; stroke: #ca1a50; stroke-width: 2.25; stroke-linecap: round"/>
   </g>
   <g id="line2d_18">
    <path d="M -1 292.301823 
L 29.235213 292.185402 
L 48.252992 292.099323 
L 86.288551 291.759111 
L 105.306331 291.523469 
L 133.833 291.112379 
L 143.34189 290.763835 
L 152.85078 290.299691 
L 162.35967 289.715626 
L 171.86856 288.990594 
L 181.377449 288.092736 
L 190.886339 286.96475 
L 200.395229 285.342542 
L 209.904119 282.85994 
L 219.413009 279.025012 
L 228.921898 273.207797 
L 238.430788 264.417001 
L 247.939678 251.661466 
L 266.957458 219.566965 
L 276.466347 206.052467 
L 285.975237 191.896187 
L 295.484127 169.984299 
L 304.993017 136.01388 
L 314.501907 91.737399 
L 324.010796 56.983799 
L 333.519686 60.554447 
L 343.028576 97.654734 
L 352.537466 140.751328 
L 371.555245 225.531162 
L 381.064135 260.569801 
L 390.573025 280.916386 
L 400.081915 288.457318 
L 409.590805 290.321594 
L 428.608584 292.015705 
L 438.117474 292.429574 
L 457.135254 292.550437 
L 457.135254 292.550437 
" clip-path="url(#p62e8be3c77)" style="fill: none; stroke: #a11a5b; stroke-width: 2.25; stroke-linecap: round"/>
   </g>
   <g id="line2d_19">
    <path d="M -1 292.387804 
L 47.666898 292.178637 
L 66.322508 291.928614 
L 84.978118 291.661823 
L 103.633728 291.61628 
L 131.617142 290.968235 
L 140.944947 290.671855 
L 168.928362 289.207711 
L 178.256167 288.363679 
L 187.583972 287.316579 
L 196.911777 286.099815 
L 206.239582 284.180166 
L 215.567387 280.952792 
L 224.895192 276.207825 
L 234.222997 269.057385 
L 243.550802 258.047515 
L 252.878607 243.146529 
L 262.206412 226.605126 
L 271.534217 211.830181 
L 280.862022 199.272734 
L 290.189827 183.607527 
L 299.517632 158.301754 
L 308.845437 120.495385 
L 318.173242 76.539709 
L 327.501047 52.484915 
L 336.828852 69.932049 
L 346.156657 111.20761 
L 364.812267 195.317773 
L 374.140072 236.494739 
L 383.467877 267.764516 
L 392.795682 283.848459 
L 402.123487 289.098894 
L 411.451292 290.488208 
L 420.779097 291.41526 
L 430.106902 292.145236 
L 439.434707 292.46824 
L 458.090317 292.550729 
L 458.090317 292.550729 
" clip-path="url(#p62e8be3c77)" style="fill: none; stroke: #751f58; stroke-width: 2.25; stroke-linecap: round"/>
   </g>
   <g id="line2d_20">
    <path d="M -1 292.315045 
L 34.560238 292.251734 
L 77.891657 291.947382 
L 132.05593 291.056265 
L 153.721639 290.235004 
L 164.554494 289.656398 
L 175.387349 288.789314 
L 186.220203 287.510468 
L 197.053058 285.631172 
L 207.885913 283.041773 
L 218.718767 279.295828 
L 229.551622 273.134028 
L 240.384477 262.903095 
L 251.217331 247.157315 
L 262.050186 227.783858 
L 272.883041 210.619206 
L 283.715895 194.671612 
L 294.54875 171.233587 
L 305.381605 134.466028 
L 316.214459 85.124181 
L 327.047314 53.475247 
L 337.880169 74.53916 
L 359.545878 171.447164 
L 370.378733 220.709619 
L 381.211587 261.409952 
L 392.044442 282.86609 
L 402.877297 289.357015 
L 413.710151 290.781573 
L 424.543006 291.74926 
L 435.375861 292.367735 
L 446.208715 292.533325 
L 457.04157 292.55053 
L 457.04157 292.55053 
" clip-path="url(#p62e8be3c77)" style="fill: none; stroke: #4c1d4b; stroke-width: 2.25; stroke-linecap: round"/>
   </g>
   <g id="line2d_21">
    <path d="M -1 292.353239 
L 58.123001 292.035142 
L 94.511126 291.654165 
L 112.705188 291.438193 
L 130.899251 290.899247 
L 167.287376 289.498165 
L 176.384407 288.871827 
L 185.481439 287.920168 
L 194.57847 286.560772 
L 203.675501 284.658193 
L 212.772533 281.819914 
L 221.869564 277.566211 
L 230.966595 271.313058 
L 240.063626 262.133412 
L 249.160658 249.386483 
L 258.257689 234.118754 
L 267.35472 219.357709 
L 276.451752 206.977144 
L 285.548783 193.403098 
L 294.645814 172.554817 
L 303.742845 141.668091 
L 312.839877 101.398667 
L 321.936908 63.998143 
L 331.033939 55.794009 
L 340.130971 83.455646 
L 358.325033 164.383822 
L 367.422065 206.504594 
L 376.519096 245.371028 
L 385.616127 272.368073 
L 394.713158 285.299443 
L 403.81019 289.40944 
L 412.907221 290.655569 
L 422.004252 291.576916 
L 431.101284 292.233152 
L 440.198315 292.490762 
L 458.392377 292.550842 
L 458.392377 292.550842 
" clip-path="url(#p62e8be3c77)" style="fill: none; stroke: #251433; stroke-width: 2.25; stroke-linecap: round"/>
   </g>
   <g id="patch_3">
    <path d="M 63.3075 292.551178 
L 63.3075 26.084063 
" style="fill: none; stroke: #cccccc; stroke-width: 1.875; stroke-linejoin: miter; stroke-linecap: square"/>
   </g>
   <g id="patch_4">
    <path d="M 63.3075 292.551178 
L 507.1775 292.551178 
" style="fill: none; stroke: #cccccc; stroke-width: 1.875; stroke-linejoin: miter; stroke-linecap: square"/>
   </g>
   <g id="text_7">
    <!-- Lowest 10% Income -->
    <g style="fill: #262626" transform="translate(204.203125 20.084063)scale(0.18 -0.18)">
     <defs>
      <path id="ArialMT-4c" d="M 469 0 
L 469 4581 
L 1075 4581 
L 1075 541 
L 3331 541 
L 3331 0 
L 469 0 
z
" transform="scale(0.015625)"/>
      <path id="ArialMT-6f" d="M 213 1659 
Q 213 2581 725 3025 
Q 1153 3394 1769 3394 
Q 2453 3394 2887 2945 
Q 3322 2497 3322 1706 
Q 3322 1066 3130 698 
Q 2938 331 2570 128 
Q 2203 -75 1769 -75 
Q 1072 -75 642 372 
Q 213 819 213 1659 
z
M 791 1659 
Q 791 1022 1069 705 
Q 1347 388 1769 388 
Q 2188 388 2466 706 
Q 2744 1025 2744 1678 
Q 2744 2294 2464 2611 
Q 2184 2928 1769 2928 
Q 1347 2928 1069 2612 
Q 791 2297 791 1659 
z
" transform="scale(0.015625)"/>
      <path id="ArialMT-77" d="M 1034 0 
L 19 3319 
L 600 3319 
L 1128 1403 
L 1325 691 
Q 1338 744 1497 1375 
L 2025 3319 
L 2603 3319 
L 3100 1394 
L 3266 759 
L 3456 1400 
L 4025 3319 
L 4572 3319 
L 3534 0 
L 2950 0 
L 2422 1988 
L 2294 2553 
L 1622 0 
L 1034 0 
z
" transform="scale(0.015625)"/>
      <path id="ArialMT-25" d="M 372 3481 
Q 372 3972 619 4315 
Q 866 4659 1334 4659 
Q 1766 4659 2048 4351 
Q 2331 4044 2331 3447 
Q 2331 2866 2045 2552 
Q 1759 2238 1341 2238 
Q 925 2238 648 2547 
Q 372 2856 372 3481 
z
M 1350 4272 
Q 1141 4272 1002 4090 
Q 863 3909 863 3425 
Q 863 2984 1003 2804 
Q 1144 2625 1350 2625 
Q 1563 2625 1702 2806 
Q 1841 2988 1841 3469 
Q 1841 3913 1700 4092 
Q 1559 4272 1350 4272 
z
M 1353 -169 
L 3859 4659 
L 4316 4659 
L 1819 -169 
L 1353 -169 
z
M 3334 1075 
Q 3334 1569 3581 1911 
Q 3828 2253 4300 2253 
Q 4731 2253 5014 1945 
Q 5297 1638 5297 1041 
Q 5297 459 5011 145 
Q 4725 -169 4303 -169 
Q 3888 -169 3611 142 
Q 3334 453 3334 1075 
z
M 4316 1866 
Q 4103 1866 3964 1684 
Q 3825 1503 3825 1019 
Q 3825 581 3965 400 
Q 4106 219 4313 219 
Q 4528 219 4667 400 
Q 4806 581 4806 1063 
Q 4806 1506 4665 1686 
Q 4525 1866 4316 1866 
z
" transform="scale(0.015625)"/>
      <path id="ArialMT-49" d="M 597 0 
L 597 4581 
L 1203 4581 
L 1203 0 
L 597 0 
z
" transform="scale(0.015625)"/>
      <path id="ArialMT-6d" d="M 422 0 
L 422 3319 
L 925 3319 
L 925 2853 
Q 1081 3097 1340 3245 
Q 1600 3394 1931 3394 
Q 2300 3394 2536 3241 
Q 2772 3088 2869 2813 
Q 3263 3394 3894 3394 
Q 4388 3394 4653 3120 
Q 4919 2847 4919 2278 
L 4919 0 
L 4359 0 
L 4359 2091 
Q 4359 2428 4304 2576 
Q 4250 2725 4106 2815 
Q 3963 2906 3769 2906 
Q 3419 2906 3187 2673 
Q 2956 2441 2956 1928 
L 2956 0 
L 2394 0 
L 2394 2156 
Q 2394 2531 2256 2718 
Q 2119 2906 1806 2906 
Q 1569 2906 1367 2781 
Q 1166 2656 1075 2415 
Q 984 2175 984 1722 
L 984 0 
L 422 0 
z
" transform="scale(0.015625)"/>
     </defs>
     <use xlink:href="#ArialMT-4c"/>
     <use xlink:href="#ArialMT-6f" x="55.615234"/>
     <use xlink:href="#ArialMT-77" x="111.230469"/>
     <use xlink:href="#ArialMT-65" x="183.447266"/>
     <use xlink:href="#ArialMT-73" x="239.0625"/>
     <use xlink:href="#ArialMT-74" x="289.0625"/>
     <use xlink:href="#ArialMT-20" x="316.845703"/>
     <use xlink:href="#ArialMT-31" x="344.628906"/>
     <use xlink:href="#ArialMT-30" x="400.244141"/>
     <use xlink:href="#ArialMT-25" x="455.859375"/>
     <use xlink:href="#ArialMT-20" x="544.775391"/>
     <use xlink:href="#ArialMT-49" x="572.558594"/>
     <use xlink:href="#ArialMT-6e" x="600.341797"/>
     <use xlink:href="#ArialMT-63" x="655.957031"/>
     <use xlink:href="#ArialMT-6f" x="705.957031"/>
     <use xlink:href="#ArialMT-6d" x="761.572266"/>
     <use xlink:href="#ArialMT-65" x="844.873047"/>
    </g>
   </g>
  </g>
  <g id="axes_2">
   <g id="patch_5">
    <path d="M 63.3075 604.878438 
L 507.1775 604.878438 
L 507.1775 338.411322 
L 63.3075 338.411322 
z
" style="fill: #ffffff"/>
   </g>
   <g id="matplotlib.axis_3">
    <g id="xtick_8">
     <g id="line2d_22">
      <path d="M 63.3075 604.878438 
L 63.3075 338.411322 
" clip-path="url(#p649488d452)" style="fill: none; stroke: #cccccc; stroke-width: 1.5; stroke-linecap: round"/>
     </g>
     <g id="text_8">
      <!-- −8 -->
      <g style="fill: #262626" transform="translate(53.901211 629.188828)scale(0.165 -0.165)">
       <defs>
        <path id="ArialMT-2212" d="M 3381 1997 
L 356 1997 
L 356 2522 
L 3381 2522 
L 3381 1997 
z
" transform="scale(0.015625)"/>
        <path id="ArialMT-38" d="M 1131 2484 
Q 781 2613 612 2850 
Q 444 3088 444 3419 
Q 444 3919 803 4259 
Q 1163 4600 1759 4600 
Q 2359 4600 2725 4251 
Q 3091 3903 3091 3403 
Q 3091 3084 2923 2848 
Q 2756 2613 2416 2484 
Q 2838 2347 3058 2040 
Q 3278 1734 3278 1309 
Q 3278 722 2862 322 
Q 2447 -78 1769 -78 
Q 1091 -78 675 323 
Q 259 725 259 1325 
Q 259 1772 486 2073 
Q 713 2375 1131 2484 
z
M 1019 3438 
Q 1019 3113 1228 2906 
Q 1438 2700 1772 2700 
Q 2097 2700 2305 2904 
Q 2513 3109 2513 3406 
Q 2513 3716 2298 3927 
Q 2084 4138 1766 4138 
Q 1444 4138 1231 3931 
Q 1019 3725 1019 3438 
z
M 838 1322 
Q 838 1081 952 856 
Q 1066 631 1291 507 
Q 1516 384 1775 384 
Q 2178 384 2440 643 
Q 2703 903 2703 1303 
Q 2703 1709 2433 1975 
Q 2163 2241 1756 2241 
Q 1359 2241 1098 1978 
Q 838 1716 838 1322 
z
" transform="scale(0.015625)"/>
       </defs>
       <use xlink:href="#ArialMT-2212"/>
       <use xlink:href="#ArialMT-38" x="58.398438"/>
      </g>
     </g>
    </g>
    <g id="xtick_9">
     <g id="line2d_23">
      <path d="M 131.595192 604.878438 
L 131.595192 338.411322 
" clip-path="url(#p649488d452)" style="fill: none; stroke: #cccccc; stroke-width: 1.5; stroke-linecap: round"/>
     </g>
     <g id="text_9">
      <!-- −6 -->
      <g style="fill: #262626" transform="translate(122.188903 629.188828)scale(0.165 -0.165)">
       <defs>
        <path id="ArialMT-36" d="M 3184 3459 
L 2625 3416 
Q 2550 3747 2413 3897 
Q 2184 4138 1850 4138 
Q 1581 4138 1378 3988 
Q 1113 3794 959 3422 
Q 806 3050 800 2363 
Q 1003 2672 1297 2822 
Q 1591 2972 1913 2972 
Q 2475 2972 2870 2558 
Q 3266 2144 3266 1488 
Q 3266 1056 3080 686 
Q 2894 316 2569 119 
Q 2244 -78 1831 -78 
Q 1128 -78 684 439 
Q 241 956 241 2144 
Q 241 3472 731 4075 
Q 1159 4600 1884 4600 
Q 2425 4600 2770 4297 
Q 3116 3994 3184 3459 
z
M 888 1484 
Q 888 1194 1011 928 
Q 1134 663 1356 523 
Q 1578 384 1822 384 
Q 2178 384 2434 671 
Q 2691 959 2691 1453 
Q 2691 1928 2437 2201 
Q 2184 2475 1800 2475 
Q 1419 2475 1153 2201 
Q 888 1928 888 1484 
z
" transform="scale(0.015625)"/>
       </defs>
       <use xlink:href="#ArialMT-2212"/>
       <use xlink:href="#ArialMT-36" x="58.398438"/>
      </g>
     </g>
    </g>
    <g id="xtick_10">
     <g id="line2d_24">
      <path d="M 199.882885 604.878438 
L 199.882885 338.411322 
" clip-path="url(#p649488d452)" style="fill: none; stroke: #cccccc; stroke-width: 1.5; stroke-linecap: round"/>
     </g>
     <g id="text_10">
      <!-- −4 -->
      <g style="fill: #262626" transform="translate(190.476596 629.188828)scale(0.165 -0.165)">
       <use xlink:href="#ArialMT-2212"/>
       <use xlink:href="#ArialMT-34" x="58.398438"/>
      </g>
     </g>
    </g>
    <g id="xtick_11">
     <g id="line2d_25">
      <path d="M 268.170577 604.878438 
L 268.170577 338.411322 
" clip-path="url(#p649488d452)" style="fill: none; stroke: #cccccc; stroke-width: 1.5; stroke-linecap: round"/>
     </g>
     <g id="text_11">
      <!-- −2 -->
      <g style="fill: #262626" transform="translate(258.764288 629.188828)scale(0.165 -0.165)">
       <use xlink:href="#ArialMT-2212"/>
       <use xlink:href="#ArialMT-32" x="58.398438"/>
      </g>
     </g>
    </g>
    <g id="xtick_12">
     <g id="line2d_26">
      <path d="M 336.458269 604.878438 
L 336.458269 338.411322 
" clip-path="url(#p649488d452)" style="fill: none; stroke: #cccccc; stroke-width: 1.5; stroke-linecap: round"/>
     </g>
     <g id="text_12">
      <!-- 0 -->
      <g style="fill: #262626" transform="translate(331.870496 629.188828)scale(0.165 -0.165)">
       <use xlink:href="#ArialMT-30"/>
      </g>
     </g>
    </g>
    <g id="xtick_13">
     <g id="line2d_27">
      <path d="M 404.745962 604.878438 
L 404.745962 338.411322 
" clip-path="url(#p649488d452)" style="fill: none; stroke: #cccccc; stroke-width: 1.5; stroke-linecap: round"/>
     </g>
     <g id="text_13">
      <!-- 2 -->
      <g style="fill: #262626" transform="translate(400.158188 629.188828)scale(0.165 -0.165)">
       <use xlink:href="#ArialMT-32"/>
      </g>
     </g>
    </g>
    <g id="xtick_14">
     <g id="line2d_28">
      <path d="M 473.033654 604.878438 
L 473.033654 338.411322 
" clip-path="url(#p649488d452)" style="fill: none; stroke: #cccccc; stroke-width: 1.5; stroke-linecap: round"/>
     </g>
     <g id="text_14">
      <!-- 4 -->
      <g style="fill: #262626" transform="translate(468.44588 629.188828)scale(0.165 -0.165)">
       <use xlink:href="#ArialMT-34"/>
      </g>
     </g>
    </g>
    <g id="text_15">
     <!-- Potential INEXUS in dollar -->
     <g style="fill: #262626" transform="translate(180.194219 649.352266)scale(0.18 -0.18)">
      <defs>
       <path id="ArialMT-50" d="M 494 0 
L 494 4581 
L 2222 4581 
Q 2678 4581 2919 4538 
Q 3256 4481 3484 4323 
Q 3713 4166 3852 3881 
Q 3991 3597 3991 3256 
Q 3991 2672 3619 2267 
Q 3247 1863 2275 1863 
L 1100 1863 
L 1100 0 
L 494 0 
z
M 1100 2403 
L 2284 2403 
Q 2872 2403 3119 2622 
Q 3366 2841 3366 3238 
Q 3366 3525 3220 3729 
Q 3075 3934 2838 4000 
Q 2684 4041 2272 4041 
L 1100 4041 
L 1100 2403 
z
" transform="scale(0.015625)"/>
       <path id="ArialMT-61" d="M 2588 409 
Q 2275 144 1986 34 
Q 1697 -75 1366 -75 
Q 819 -75 525 192 
Q 231 459 231 875 
Q 231 1119 342 1320 
Q 453 1522 633 1644 
Q 813 1766 1038 1828 
Q 1203 1872 1538 1913 
Q 2219 1994 2541 2106 
Q 2544 2222 2544 2253 
Q 2544 2597 2384 2738 
Q 2169 2928 1744 2928 
Q 1347 2928 1158 2789 
Q 969 2650 878 2297 
L 328 2372 
Q 403 2725 575 2942 
Q 747 3159 1072 3276 
Q 1397 3394 1825 3394 
Q 2250 3394 2515 3294 
Q 2781 3194 2906 3042 
Q 3031 2891 3081 2659 
Q 3109 2516 3109 2141 
L 3109 1391 
Q 3109 606 3145 398 
Q 3181 191 3288 0 
L 2700 0 
Q 2613 175 2588 409 
z
M 2541 1666 
Q 2234 1541 1622 1453 
Q 1275 1403 1131 1340 
Q 988 1278 909 1158 
Q 831 1038 831 891 
Q 831 666 1001 516 
Q 1172 366 1500 366 
Q 1825 366 2078 508 
Q 2331 650 2450 897 
Q 2541 1088 2541 1459 
L 2541 1666 
z
" transform="scale(0.015625)"/>
       <path id="ArialMT-6c" d="M 409 0 
L 409 4581 
L 972 4581 
L 972 0 
L 409 0 
z
" transform="scale(0.015625)"/>
       <path id="ArialMT-4e" d="M 488 0 
L 488 4581 
L 1109 4581 
L 3516 984 
L 3516 4581 
L 4097 4581 
L 4097 0 
L 3475 0 
L 1069 3600 
L 1069 0 
L 488 0 
z
" transform="scale(0.015625)"/>
       <path id="ArialMT-45" d="M 506 0 
L 506 4581 
L 3819 4581 
L 3819 4041 
L 1113 4041 
L 1113 2638 
L 3647 2638 
L 3647 2100 
L 1113 2100 
L 1113 541 
L 3925 541 
L 3925 0 
L 506 0 
z
" transform="scale(0.015625)"/>
       <path id="ArialMT-58" d="M 28 0 
L 1800 2388 
L 238 4581 
L 959 4581 
L 1791 3406 
Q 2050 3041 2159 2844 
Q 2313 3094 2522 3366 
L 3444 4581 
L 4103 4581 
L 2494 2422 
L 4228 0 
L 3478 0 
L 2325 1634 
Q 2228 1775 2125 1941 
Q 1972 1691 1906 1597 
L 756 0 
L 28 0 
z
" transform="scale(0.015625)"/>
       <path id="ArialMT-55" d="M 3500 4581 
L 4106 4581 
L 4106 1934 
Q 4106 1244 3950 837 
Q 3794 431 3386 176 
Q 2978 -78 2316 -78 
Q 1672 -78 1262 144 
Q 853 366 678 786 
Q 503 1206 503 1934 
L 503 4581 
L 1109 4581 
L 1109 1938 
Q 1109 1341 1220 1058 
Q 1331 775 1601 622 
Q 1872 469 2263 469 
Q 2931 469 3215 772 
Q 3500 1075 3500 1938 
L 3500 4581 
z
" transform="scale(0.015625)"/>
       <path id="ArialMT-53" d="M 288 1472 
L 859 1522 
Q 900 1178 1048 958 
Q 1197 738 1509 602 
Q 1822 466 2213 466 
Q 2559 466 2825 569 
Q 3091 672 3220 851 
Q 3350 1031 3350 1244 
Q 3350 1459 3225 1620 
Q 3100 1781 2813 1891 
Q 2628 1963 1997 2114 
Q 1366 2266 1113 2400 
Q 784 2572 623 2826 
Q 463 3081 463 3397 
Q 463 3744 659 4045 
Q 856 4347 1234 4503 
Q 1613 4659 2075 4659 
Q 2584 4659 2973 4495 
Q 3363 4331 3572 4012 
Q 3781 3694 3797 3291 
L 3216 3247 
Q 3169 3681 2898 3903 
Q 2628 4125 2100 4125 
Q 1550 4125 1298 3923 
Q 1047 3722 1047 3438 
Q 1047 3191 1225 3031 
Q 1400 2872 2139 2705 
Q 2878 2538 3153 2413 
Q 3553 2228 3743 1945 
Q 3934 1663 3934 1294 
Q 3934 928 3725 604 
Q 3516 281 3123 101 
Q 2731 -78 2241 -78 
Q 1619 -78 1198 103 
Q 778 284 539 648 
Q 300 1013 288 1472 
z
" transform="scale(0.015625)"/>
       <path id="ArialMT-64" d="M 2575 0 
L 2575 419 
Q 2259 -75 1647 -75 
Q 1250 -75 917 144 
Q 584 363 401 755 
Q 219 1147 219 1656 
Q 219 2153 384 2558 
Q 550 2963 881 3178 
Q 1213 3394 1622 3394 
Q 1922 3394 2156 3267 
Q 2391 3141 2538 2938 
L 2538 4581 
L 3097 4581 
L 3097 0 
L 2575 0 
z
M 797 1656 
Q 797 1019 1065 703 
Q 1334 388 1700 388 
Q 2069 388 2326 689 
Q 2584 991 2584 1609 
Q 2584 2291 2321 2609 
Q 2059 2928 1675 2928 
Q 1300 2928 1048 2622 
Q 797 2316 797 1656 
z
" transform="scale(0.015625)"/>
      </defs>
      <use xlink:href="#ArialMT-50"/>
      <use xlink:href="#ArialMT-6f" x="66.699219"/>
      <use xlink:href="#ArialMT-74" x="122.314453"/>
      <use xlink:href="#ArialMT-65" x="150.097656"/>
      <use xlink:href="#ArialMT-6e" x="205.712891"/>
      <use xlink:href="#ArialMT-74" x="261.328125"/>
      <use xlink:href="#ArialMT-69" x="289.111328"/>
      <use xlink:href="#ArialMT-61" x="311.328125"/>
      <use xlink:href="#ArialMT-6c" x="366.943359"/>
      <use xlink:href="#ArialMT-20" x="389.160156"/>
      <use xlink:href="#ArialMT-49" x="416.943359"/>
      <use xlink:href="#ArialMT-4e" x="444.726562"/>
      <use xlink:href="#ArialMT-45" x="516.943359"/>
      <use xlink:href="#ArialMT-58" x="583.642578"/>
      <use xlink:href="#ArialMT-55" x="650.341797"/>
      <use xlink:href="#ArialMT-53" x="722.558594"/>
      <use xlink:href="#ArialMT-20" x="789.257812"/>
      <use xlink:href="#ArialMT-69" x="817.041016"/>
      <use xlink:href="#ArialMT-6e" x="839.257812"/>
      <use xlink:href="#ArialMT-20" x="894.873047"/>
      <use xlink:href="#ArialMT-64" x="922.65625"/>
      <use xlink:href="#ArialMT-6f" x="978.271484"/>
      <use xlink:href="#ArialMT-6c" x="1033.886719"/>
      <use xlink:href="#ArialMT-6c" x="1056.103516"/>
      <use xlink:href="#ArialMT-61" x="1078.320312"/>
      <use xlink:href="#ArialMT-72" x="1133.935547"/>
     </g>
    </g>
   </g>
   <g id="matplotlib.axis_4">
    <g id="ytick_6">
     <g id="line2d_29">
      <path d="M 63.3075 604.878438 
L 507.1775 604.878438 
" clip-path="url(#p649488d452)" style="fill: none; stroke: #cccccc; stroke-width: 1.5; stroke-linecap: round"/>
     </g>
     <g id="text_16">
      <!-- 0.0 -->
      <g style="fill: #262626" transform="translate(27.8725 610.783633)scale(0.165 -0.165)">
       <use xlink:href="#ArialMT-30"/>
       <use xlink:href="#ArialMT-2e" x="55.615234"/>
       <use xlink:href="#ArialMT-30" x="83.398438"/>
      </g>
     </g>
    </g>
    <g id="ytick_7">
     <g id="line2d_30">
      <path d="M 63.3075 549.392279 
L 507.1775 549.392279 
" clip-path="url(#p649488d452)" style="fill: none; stroke: #cccccc; stroke-width: 1.5; stroke-linecap: round"/>
     </g>
     <g id="text_17">
      <!-- 0.1 -->
      <g style="fill: #262626" transform="translate(27.8725 555.297475)scale(0.165 -0.165)">
       <use xlink:href="#ArialMT-30"/>
       <use xlink:href="#ArialMT-2e" x="55.615234"/>
       <use xlink:href="#ArialMT-31" x="83.398438"/>
      </g>
     </g>
    </g>
    <g id="ytick_8">
     <g id="line2d_31">
      <path d="M 63.3075 493.906121 
L 507.1775 493.906121 
" clip-path="url(#p649488d452)" style="fill: none; stroke: #cccccc; stroke-width: 1.5; stroke-linecap: round"/>
     </g>
     <g id="text_18">
      <!-- 0.2 -->
      <g style="fill: #262626" transform="translate(27.8725 499.811317)scale(0.165 -0.165)">
       <use xlink:href="#ArialMT-30"/>
       <use xlink:href="#ArialMT-2e" x="55.615234"/>
       <use xlink:href="#ArialMT-32" x="83.398438"/>
      </g>
     </g>
    </g>
    <g id="ytick_9">
     <g id="line2d_32">
      <path d="M 63.3075 438.419963 
L 507.1775 438.419963 
" clip-path="url(#p649488d452)" style="fill: none; stroke: #cccccc; stroke-width: 1.5; stroke-linecap: round"/>
     </g>
     <g id="text_19">
      <!-- 0.3 -->
      <g style="fill: #262626" transform="translate(27.8725 444.325159)scale(0.165 -0.165)">
       <use xlink:href="#ArialMT-30"/>
       <use xlink:href="#ArialMT-2e" x="55.615234"/>
       <use xlink:href="#ArialMT-33" x="83.398438"/>
      </g>
     </g>
    </g>
    <g id="ytick_10">
     <g id="line2d_33">
      <path d="M 63.3075 382.933805 
L 507.1775 382.933805 
" clip-path="url(#p649488d452)" style="fill: none; stroke: #cccccc; stroke-width: 1.5; stroke-linecap: round"/>
     </g>
     <g id="text_20">
      <!-- 0.4 -->
      <g style="fill: #262626" transform="translate(27.8725 388.839001)scale(0.165 -0.165)">
       <use xlink:href="#ArialMT-30"/>
       <use xlink:href="#ArialMT-2e" x="55.615234"/>
       <use xlink:href="#ArialMT-34" x="83.398438"/>
      </g>
     </g>
    </g>
    <g id="text_21">
     <!-- Frequency Density -->
     <g style="fill: #262626" transform="translate(20.084062 546.672536)rotate(-90)scale(0.18 -0.18)">
      <use xlink:href="#ArialMT-46"/>
      <use xlink:href="#ArialMT-72" x="61.083984"/>
      <use xlink:href="#ArialMT-65" x="94.384766"/>
      <use xlink:href="#ArialMT-71" x="150"/>
      <use xlink:href="#ArialMT-75" x="205.615234"/>
      <use xlink:href="#ArialMT-65" x="261.230469"/>
      <use xlink:href="#ArialMT-6e" x="316.845703"/>
      <use xlink:href="#ArialMT-63" x="372.460938"/>
      <use xlink:href="#ArialMT-79" x="422.460938"/>
      <use xlink:href="#ArialMT-20" x="472.460938"/>
      <use xlink:href="#ArialMT-44" x="500.244141"/>
      <use xlink:href="#ArialMT-65" x="572.460938"/>
      <use xlink:href="#ArialMT-6e" x="628.076172"/>
      <use xlink:href="#ArialMT-73" x="683.691406"/>
      <use xlink:href="#ArialMT-69" x="733.691406"/>
      <use xlink:href="#ArialMT-74" x="755.908203"/>
      <use xlink:href="#ArialMT-79" x="783.691406"/>
     </g>
    </g>
   </g>
   <g id="line2d_34">
    <path d="M -1 604.822361 
L 42.31195 604.668983 
L 68.037655 604.468188 
L 83.473078 604.352884 
L 98.908501 604.363268 
L 124.634206 604.016388 
L 145.214771 603.605965 
L 160.650194 603.038545 
L 170.940476 602.475385 
L 181.230758 601.657624 
L 191.52104 600.607846 
L 196.666181 599.867655 
L 201.811322 598.892092 
L 206.956463 597.623741 
L 212.101604 595.998756 
L 217.246745 593.954857 
L 222.391886 591.420607 
L 227.537027 588.25751 
L 232.682168 584.21833 
L 237.827309 578.987417 
L 242.972451 572.278694 
L 248.117592 563.96597 
L 253.262733 554.302042 
L 258.407874 544.142343 
L 263.553015 534.864855 
L 268.698156 527.839827 
L 273.843297 523.625809 
L 278.988438 521.315008 
L 284.133579 518.701145 
L 289.27872 513.435967 
L 294.423861 504.076604 
L 299.569002 490.004086 
L 304.714143 470.769233 
L 309.859284 445.997958 
L 315.004425 416.394742 
L 320.149566 385.628774 
L 325.294707 361.252059 
L 330.439848 351.777253 
L 335.584989 360.60832 
L 340.73013 383.086215 
L 351.020412 437.919308 
L 356.165553 463.335622 
L 361.310695 487.784048 
L 366.455836 511.675373 
L 371.600977 534.455135 
L 376.746118 554.855216 
L 381.891259 571.414014 
L 387.0364 583.100251 
L 392.181541 589.768126 
L 397.326682 592.300539 
L 402.471823 592.429761 
L 407.616964 592.174032 
L 412.762105 593.015906 
L 417.907246 595.307351 
L 423.052387 598.370185 
L 428.197528 601.201675 
L 433.342669 603.17401 
L 438.48781 604.238528 
L 443.632951 604.68653 
L 453.923233 604.8701 
L 459.068374 604.877258 
L 459.068374 604.877258 
" clip-path="url(#p649488d452)" style="fill: none; stroke: #f7c6a6; stroke-width: 2.25; stroke-linecap: round"/>
   </g>
   <g id="line2d_35">
    <path d="M -1 604.771986 
L 63.740278 604.398461 
L 84.803124 604.109138 
L 105.86597 604.114548 
L 132.194528 603.707649 
L 147.991662 603.288612 
L 163.788797 602.554016 
L 174.32022 601.958556 
L 179.585931 601.542586 
L 184.851643 600.995635 
L 195.383066 599.537128 
L 200.648777 598.633514 
L 205.914489 597.528717 
L 211.1802 596.083273 
L 216.445912 594.134572 
L 221.711623 591.529552 
L 226.977335 588.133808 
L 232.243046 583.787165 
L 237.508758 578.22949 
L 242.774469 571.136506 
L 248.040181 562.361394 
L 253.305892 552.268182 
L 258.571604 541.890875 
L 263.837315 532.718987 
L 269.103027 526.11308 
L 274.368738 522.486909 
L 279.63445 520.654953 
L 284.900161 518.066219 
L 290.165873 512.083332 
L 295.431584 501.203411 
L 300.697296 485.050634 
L 305.963007 463.519686 
L 311.228719 436.620244 
L 316.49443 405.935848 
L 321.760142 376.672535 
L 327.025853 357.399474 
L 332.291565 355.399287 
L 337.557276 370.884913 
L 342.822988 396.905819 
L 348.088699 425.551395 
L 353.354411 452.979663 
L 358.620122 478.822236 
L 363.885834 503.42814 
L 369.151545 526.644318 
L 374.417257 547.751393 
L 379.682968 565.595441 
L 384.94868 579.037614 
L 390.214391 587.554275 
L 395.480103 591.592023 
L 400.745814 592.58339 
L 406.011526 592.518974 
L 411.277237 593.111621 
L 416.542949 595.055069 
L 427.074372 600.796322 
L 432.340083 602.913762 
L 437.605795 604.11425 
L 442.871506 604.641181 
L 448.137218 604.820331 
L 458.668641 604.876802 
L 458.668641 604.876802 
" clip-path="url(#p649488d452)" style="fill: none; stroke: #f69c73; stroke-width: 2.25; stroke-linecap: round"/>
   </g>
   <g id="line2d_36">
    <path d="M -1 604.768446 
L 46.788811 604.602975 
L 122.886729 604.042174 
L 153.325896 603.178129 
L 163.472285 602.701889 
L 173.618674 602.087106 
L 178.691869 601.694921 
L 183.765063 601.186227 
L 188.838258 600.553275 
L 193.911452 599.805717 
L 198.984647 598.912919 
L 204.057841 597.794993 
L 209.131036 596.366626 
L 214.20423 594.565726 
L 219.277425 592.335347 
L 224.35062 589.578107 
L 229.423814 586.103341 
L 234.497009 581.606768 
L 239.570203 575.741169 
L 244.643398 568.272489 
L 249.716592 559.26037 
L 259.862981 539.218923 
L 264.936176 530.628053 
L 270.00937 524.586816 
L 275.082565 521.207756 
L 280.155759 519.159897 
L 285.228954 516.151995 
L 290.302149 510.106473 
L 295.375343 499.931016 
L 300.448538 485.214848 
L 305.521732 465.489879 
L 310.594927 440.287978 
L 320.741316 380.871019 
L 325.81451 359.032696 
L 330.887705 352.839282 
L 335.960899 364.39183 
L 341.034094 388.519082 
L 346.107288 417.201189 
L 351.180483 445.049101 
L 356.253678 470.558569 
L 361.326872 494.102609 
L 366.400067 516.181981 
L 371.473261 536.819238 
L 376.546456 555.391083 
L 381.61965 570.818848 
L 386.692845 582.129557 
L 391.766039 588.989531 
L 396.839234 591.973171 
L 401.912428 592.508004 
L 406.985623 592.398471 
L 412.058817 593.076581 
L 417.132012 595.043456 
L 427.278401 600.676885 
L 432.351596 602.794979 
L 437.42479 604.035172 
L 442.497985 604.60345 
L 447.571179 604.807052 
L 457.717568 604.876114 
L 457.717568 604.876114 
" clip-path="url(#p649488d452)" style="fill: none; stroke: #f3714d; stroke-width: 2.25; stroke-linecap: round"/>
   </g>
   <g id="line2d_37">
    <path d="M -1 604.71103 
L 38.178456 604.698808 
L 109.778209 604.236497 
L 141.600321 603.608959 
L 157.511377 602.982509 
L 173.422433 602.088338 
L 181.377961 601.44981 
L 189.333489 600.513639 
L 197.289017 599.201224 
L 205.244545 597.400636 
L 213.200073 594.895415 
L 221.155601 591.35003 
L 229.111129 586.274566 
L 237.066657 578.797699 
L 245.022185 567.709855 
L 252.977713 552.890569 
L 260.933241 537.049489 
L 268.888769 525.036347 
L 276.844297 519.440493 
L 284.799825 515.707547 
L 292.755353 505.20437 
L 300.710881 483.2362 
L 308.666409 448.243582 
L 316.621937 401.498078 
L 324.577465 359.918973 
L 332.532993 354.070478 
L 340.488521 388.507499 
L 348.44405 434.599496 
L 356.399578 474.356584 
L 364.355106 508.704469 
L 372.310634 540.329106 
L 380.266162 567.29318 
L 388.22169 585.121919 
L 396.177218 592.329055 
L 412.088274 593.165383 
L 420.043802 596.671937 
L 427.99933 601.092137 
L 435.954858 603.764782 
L 443.910386 604.674995 
L 451.865914 604.856126 
L 459.821442 604.877033 
L 459.821442 604.877033 
" clip-path="url(#p649488d452)" style="fill: none; stroke: #e83f3f; stroke-width: 2.25; stroke-linecap: round"/>
   </g>
   <g id="line2d_38">
    <path d="M -1 604.714197 
L 41.593488 604.640347 
L 105.203662 604.160024 
L 119.339256 604.107132 
L 140.542647 603.688341 
L 154.678242 603.283104 
L 161.746039 602.965043 
L 168.813836 602.530006 
L 175.881633 601.933777 
L 182.94943 601.154093 
L 190.017227 600.227302 
L 197.085024 599.148472 
L 204.152821 597.77007 
L 211.220618 595.845989 
L 218.288415 593.107518 
L 225.356212 589.204862 
L 232.42401 583.675629 
L 239.491807 575.898465 
L 246.559604 565.103715 
L 253.627401 551.45443 
L 260.695198 537.323031 
L 267.762995 526.417896 
L 274.830792 520.776682 
L 281.898589 517.852979 
L 288.966386 511.482305 
L 296.034183 496.788141 
L 303.101981 471.868207 
L 310.169778 435.924811 
L 317.237575 392.610229 
L 324.305372 357.788198 
L 331.373169 353.367911 
L 338.440966 382.34245 
L 345.508763 423.624031 
L 352.57656 460.063091 
L 359.644357 490.713764 
L 366.712154 518.838773 
L 373.779952 545.282951 
L 380.847749 568.080248 
L 387.915546 583.907511 
L 394.983343 591.315615 
L 402.05114 592.548234 
L 409.118937 592.378815 
L 416.186734 594.386764 
L 423.254531 598.374578 
L 430.322328 602.023078 
L 437.390125 604.017974 
L 444.457923 604.7062 
L 451.52572 604.856265 
L 458.593517 604.876653 
L 458.593517 604.876653 
" clip-path="url(#p649488d452)" style="fill: none; stroke: #ca1a50; stroke-width: 2.25; stroke-linecap: round"/>
   </g>
   <g id="line2d_39">
    <path d="M -1 604.684128 
L 42.439305 604.576492 
L 73.618455 604.345379 
L 135.976756 603.731656 
L 167.155906 602.625652 
L 173.391736 602.295299 
L 179.627566 601.7852 
L 185.863396 601.075385 
L 192.099226 600.179957 
L 198.335056 599.104713 
L 204.570887 597.785375 
L 210.806717 596.070593 
L 217.042547 593.750087 
L 223.278377 590.566431 
L 229.514207 586.219453 
L 235.750037 580.335104 
L 241.985867 572.457848 
L 248.221697 562.329606 
L 260.693357 538.349639 
L 266.929187 528.494582 
L 273.165017 522.527084 
L 279.400847 519.363004 
L 285.636677 515.079884 
L 291.872507 505.536211 
L 298.108337 488.625265 
L 304.344168 463.656551 
L 310.579998 430.553278 
L 316.815828 392.722207 
L 323.051658 361.167654 
L 329.287488 351.100232 
L 335.523318 368.665577 
L 341.759148 403.385687 
L 347.994978 439.391555 
L 354.230808 469.68299 
L 360.466638 495.582574 
L 366.702468 519.602008 
L 372.938298 542.445149 
L 379.174128 562.861642 
L 385.409958 578.627231 
L 391.645788 588.247024 
L 397.881619 592.123826 
L 404.117449 592.648881 
L 410.353279 592.964961 
L 416.589109 594.952369 
L 422.824939 598.288784 
L 429.060769 601.492573 
L 435.296599 603.557663 
L 441.532429 604.494247 
L 447.768259 604.796543 
L 460.239919 604.877067 
L 460.239919 604.877067 
" clip-path="url(#p649488d452)" style="fill: none; stroke: #a11a5b; stroke-width: 2.25; stroke-linecap: round"/>
   </g>
   <g id="line2d_40">
    <path d="M -1 604.771599 
L 71.528629 604.516037 
L 126.993736 603.843534 
L 149.179778 603.379696 
L 160.272799 602.93222 
L 171.365821 602.213347 
L 182.458842 601.295837 
L 193.551863 599.959698 
L 204.644884 597.878933 
L 215.737905 594.433357 
L 226.830927 588.332962 
L 237.923948 577.589891 
L 249.016969 560.393486 
L 260.10999 538.777445 
L 271.203012 523.072575 
L 282.296033 516.514223 
L 293.389054 501.235274 
L 304.482075 463.264226 
L 315.575096 401.403314 
L 326.668118 351.984621 
L 337.761139 380.052639 
L 348.85416 445.211131 
L 359.947181 494.662581 
L 371.040203 536.090656 
L 382.133224 571.03467 
L 393.226245 589.49304 
L 404.319266 592.248737 
L 415.412287 594.20934 
L 426.505309 600.220644 
L 437.59833 603.993853 
L 448.691351 604.813835 
L 459.784372 604.876842 
L 459.784372 604.876842 
" clip-path="url(#p649488d452)" style="fill: none; stroke: #751f58; stroke-width: 2.25; stroke-linecap: round"/>
   </g>
   <g id="line2d_41">
    <path d="M -1 604.745746 
L 47.767083 604.594216 
L 109.579538 604.154329 
L 130.18369 603.817871 
L 150.787841 603.164967 
L 171.391993 602.160935 
L 181.694069 601.34622 
L 191.996144 600.038493 
L 202.29822 598.1771 
L 212.600296 595.493436 
L 222.902372 591.048108 
L 233.204448 583.210857 
L 243.506523 570.124085 
L 253.808599 551.545839 
L 264.110675 532.460169 
L 274.412751 520.93326 
L 284.714827 514.575514 
L 295.016902 497.618122 
L 305.318978 459.748343 
L 315.621054 401.045384 
L 325.92313 353.205067 
L 336.225206 371.191143 
L 346.527281 431.338218 
L 356.829357 481.160819 
L 367.131433 521.361805 
L 377.433509 557.806757 
L 387.735584 583.211586 
L 398.03766 592.275462 
L 408.339736 592.869296 
L 418.641812 596.022238 
L 428.943888 601.377039 
L 439.245963 604.219513 
L 449.548039 604.825168 
L 459.850115 604.876747 
L 459.850115 604.876747 
" clip-path="url(#p649488d452)" style="fill: none; stroke: #4c1d4b; stroke-width: 2.25; stroke-linecap: round"/>
   </g>
   <g id="line2d_42">
    <path d="M -1 604.64006 
L 52.139224 604.571089 
L 126.497045 603.951229 
L 138.890015 603.571485 
L 163.675956 602.599359 
L 176.068926 601.705388 
L 188.461896 600.543867 
L 194.658382 599.75831 
L 200.854867 598.6668 
L 207.051352 597.134693 
L 213.247837 595.087072 
L 219.444322 592.437757 
L 225.640807 588.918984 
L 231.837292 584.09259 
L 238.033777 577.529252 
L 244.230263 568.871932 
L 250.426748 558.011425 
L 256.623233 545.69123 
L 262.819718 533.860109 
L 269.016203 524.877039 
L 275.212688 519.702774 
L 281.409173 516.426694 
L 287.605658 511.032794 
L 293.802143 500.060868 
L 299.998629 481.944945 
L 306.195114 455.965515 
L 312.391599 422.242426 
L 318.588084 385.504725 
L 324.784569 358.29582 
L 330.981054 354.839647 
L 337.177539 377.425373 
L 343.374024 413.154894 
L 349.57051 447.722817 
L 355.766995 476.537474 
L 361.96348 501.543761 
L 368.159965 524.975138 
L 374.35645 547.24207 
L 380.552935 566.779722 
L 386.74942 581.25432 
L 392.945905 589.473565 
L 399.14239 592.356006 
L 405.338876 592.583306 
L 411.535361 593.104751 
L 417.731846 595.357859 
L 423.928331 598.755018 
L 430.124816 601.837155 
L 436.321301 603.737325 
L 442.517786 604.561069 
L 448.714271 604.814056 
L 461.107242 604.877461 
L 461.107242 604.877461 
" clip-path="url(#p649488d452)" style="fill: none; stroke: #251433; stroke-width: 2.25; stroke-linecap: round"/>
   </g>
   <g id="patch_6">
    <path d="M 63.3075 604.878438 
L 63.3075 338.411322 
" style="fill: none; stroke: #cccccc; stroke-width: 1.875; stroke-linejoin: miter; stroke-linecap: square"/>
   </g>
   <g id="patch_7">
    <path d="M 63.3075 604.878438 
L 507.1775 604.878438 
" style="fill: none; stroke: #cccccc; stroke-width: 1.875; stroke-linejoin: miter; stroke-linecap: square"/>
   </g>
   <g id="text_22">
    <!-- Highest 10% Income -->
    <g style="fill: #262626" transform="translate(202.203437 332.411322)scale(0.18 -0.18)">
     <defs>
      <path id="ArialMT-48" d="M 513 0 
L 513 4581 
L 1119 4581 
L 1119 2700 
L 3500 2700 
L 3500 4581 
L 4106 4581 
L 4106 0 
L 3500 0 
L 3500 2159 
L 1119 2159 
L 1119 0 
L 513 0 
z
" transform="scale(0.015625)"/>
      <path id="ArialMT-67" d="M 319 -275 
L 866 -356 
Q 900 -609 1056 -725 
Q 1266 -881 1628 -881 
Q 2019 -881 2231 -725 
Q 2444 -569 2519 -288 
Q 2563 -116 2559 434 
Q 2191 0 1641 0 
Q 956 0 581 494 
Q 206 988 206 1678 
Q 206 2153 378 2554 
Q 550 2956 876 3175 
Q 1203 3394 1644 3394 
Q 2231 3394 2613 2919 
L 2613 3319 
L 3131 3319 
L 3131 450 
Q 3131 -325 2973 -648 
Q 2816 -972 2473 -1159 
Q 2131 -1347 1631 -1347 
Q 1038 -1347 672 -1080 
Q 306 -813 319 -275 
z
M 784 1719 
Q 784 1066 1043 766 
Q 1303 466 1694 466 
Q 2081 466 2343 764 
Q 2606 1063 2606 1700 
Q 2606 2309 2336 2618 
Q 2066 2928 1684 2928 
Q 1309 2928 1046 2623 
Q 784 2319 784 1719 
z
" transform="scale(0.015625)"/>
      <path id="ArialMT-68" d="M 422 0 
L 422 4581 
L 984 4581 
L 984 2938 
Q 1378 3394 1978 3394 
Q 2347 3394 2619 3248 
Q 2891 3103 3008 2847 
Q 3125 2591 3125 2103 
L 3125 0 
L 2563 0 
L 2563 2103 
Q 2563 2525 2380 2717 
Q 2197 2909 1863 2909 
Q 1613 2909 1392 2779 
Q 1172 2650 1078 2428 
Q 984 2206 984 1816 
L 984 0 
L 422 0 
z
" transform="scale(0.015625)"/>
     </defs>
     <use xlink:href="#ArialMT-48"/>
     <use xlink:href="#ArialMT-69" x="72.216797"/>
     <use xlink:href="#ArialMT-67" x="94.433594"/>
     <use xlink:href="#ArialMT-68" x="150.048828"/>
     <use xlink:href="#ArialMT-65" x="205.664062"/>
     <use xlink:href="#ArialMT-73" x="261.279297"/>
     <use xlink:href="#ArialMT-74" x="311.279297"/>
     <use xlink:href="#ArialMT-20" x="339.0625"/>
     <use xlink:href="#ArialMT-31" x="366.845703"/>
     <use xlink:href="#ArialMT-30" x="422.460938"/>
     <use xlink:href="#ArialMT-25" x="478.076172"/>
     <use xlink:href="#ArialMT-20" x="566.992188"/>
     <use xlink:href="#ArialMT-49" x="594.775391"/>
     <use xlink:href="#ArialMT-6e" x="622.558594"/>
     <use xlink:href="#ArialMT-63" x="678.173828"/>
     <use xlink:href="#ArialMT-6f" x="728.173828"/>
     <use xlink:href="#ArialMT-6d" x="783.789062"/>
     <use xlink:href="#ArialMT-65" x="867.089844"/>
    </g>
   </g>
   <g id="legend_1">
    <g id="patch_8">
     <path d="M 539.673687 588.921911 
L 694.319 588.921911 
Q 697.919 588.921911 697.919 585.321911 
L 697.919 357.967848 
Q 697.919 354.367848 694.319 354.367848 
L 539.673687 354.367848 
Q 536.073687 354.367848 536.073687 357.967848 
L 536.073687 585.321911 
Q 536.073687 588.921911 539.673687 588.921911 
z
" style="fill: #ffffff; opacity: 0.8; stroke: #cccccc; stroke-width: 1.5; stroke-linejoin: miter"/>
    </g>
    <g id="line2d_43">
     <path d="M 543.273687 368.151911 
L 561.273687 368.151911 
L 579.273687 368.151911 
" style="fill: none; stroke: #f7c6a6; stroke-width: 2.25; stroke-linecap: round"/>
    </g>
    <g id="text_23">
     <!-- 0% Price -->
     <g style="fill: #262626" transform="translate(593.673687 374.451911)scale(0.18 -0.18)">
      <use xlink:href="#ArialMT-30"/>
      <use xlink:href="#ArialMT-25" x="55.615234"/>
      <use xlink:href="#ArialMT-20" x="144.53125"/>
      <use xlink:href="#ArialMT-50" x="172.314453"/>
      <use xlink:href="#ArialMT-72" x="239.013672"/>
      <use xlink:href="#ArialMT-69" x="272.314453"/>
      <use xlink:href="#ArialMT-63" x="294.53125"/>
      <use xlink:href="#ArialMT-65" x="344.53125"/>
     </g>
    </g>
    <g id="line2d_44">
     <path d="M 543.273687 393.613473 
L 561.273687 393.613473 
L 579.273687 393.613473 
" style="fill: none; stroke: #f69c73; stroke-width: 2.25; stroke-linecap: round"/>
    </g>
    <g id="text_24">
     <!-- 12.5% Price -->
     <g style="fill: #262626" transform="translate(593.673687 399.913473)scale(0.18 -0.18)">
      <defs>
       <path id="ArialMT-35" d="M 266 1200 
L 856 1250 
Q 922 819 1161 601 
Q 1400 384 1738 384 
Q 2144 384 2425 690 
Q 2706 997 2706 1503 
Q 2706 1984 2436 2262 
Q 2166 2541 1728 2541 
Q 1456 2541 1237 2417 
Q 1019 2294 894 2097 
L 366 2166 
L 809 4519 
L 3088 4519 
L 3088 3981 
L 1259 3981 
L 1013 2750 
Q 1425 3038 1878 3038 
Q 2478 3038 2890 2622 
Q 3303 2206 3303 1553 
Q 3303 931 2941 478 
Q 2500 -78 1738 -78 
Q 1113 -78 717 272 
Q 322 622 266 1200 
z
" transform="scale(0.015625)"/>
      </defs>
      <use xlink:href="#ArialMT-31"/>
      <use xlink:href="#ArialMT-32" x="55.615234"/>
      <use xlink:href="#ArialMT-2e" x="111.230469"/>
      <use xlink:href="#ArialMT-35" x="139.013672"/>
      <use xlink:href="#ArialMT-25" x="194.628906"/>
      <use xlink:href="#ArialMT-20" x="283.544922"/>
      <use xlink:href="#ArialMT-50" x="311.328125"/>
      <use xlink:href="#ArialMT-72" x="378.027344"/>
      <use xlink:href="#ArialMT-69" x="411.328125"/>
      <use xlink:href="#ArialMT-63" x="433.544922"/>
      <use xlink:href="#ArialMT-65" x="483.544922"/>
     </g>
    </g>
    <g id="line2d_45">
     <path d="M 543.273687 419.075036 
L 561.273687 419.075036 
L 579.273687 419.075036 
" style="fill: none; stroke: #f3714d; stroke-width: 2.25; stroke-linecap: round"/>
    </g>
    <g id="text_25">
     <!-- 25% Price -->
     <g style="fill: #262626" transform="translate(593.673687 425.375036)scale(0.18 -0.18)">
      <use xlink:href="#ArialMT-32"/>
      <use xlink:href="#ArialMT-35" x="55.615234"/>
      <use xlink:href="#ArialMT-25" x="111.230469"/>
      <use xlink:href="#ArialMT-20" x="200.146484"/>
      <use xlink:href="#ArialMT-50" x="227.929688"/>
      <use xlink:href="#ArialMT-72" x="294.628906"/>
      <use xlink:href="#ArialMT-69" x="327.929688"/>
      <use xlink:href="#ArialMT-63" x="350.146484"/>
      <use xlink:href="#ArialMT-65" x="400.146484"/>
     </g>
    </g>
    <g id="line2d_46">
     <path d="M 543.273687 444.536598 
L 561.273687 444.536598 
L 579.273687 444.536598 
" style="fill: none; stroke: #e83f3f; stroke-width: 2.25; stroke-linecap: round"/>
    </g>
    <g id="text_26">
     <!-- 50% Price -->
     <g style="fill: #262626" transform="translate(593.673687 450.836598)scale(0.18 -0.18)">
      <use xlink:href="#ArialMT-35"/>
      <use xlink:href="#ArialMT-30" x="55.615234"/>
      <use xlink:href="#ArialMT-25" x="111.230469"/>
      <use xlink:href="#ArialMT-20" x="200.146484"/>
      <use xlink:href="#ArialMT-50" x="227.929688"/>
      <use xlink:href="#ArialMT-72" x="294.628906"/>
      <use xlink:href="#ArialMT-69" x="327.929688"/>
      <use xlink:href="#ArialMT-63" x="350.146484"/>
      <use xlink:href="#ArialMT-65" x="400.146484"/>
     </g>
    </g>
    <g id="line2d_47">
     <path d="M 543.273687 469.998161 
L 561.273687 469.998161 
L 579.273687 469.998161 
" style="fill: none; stroke: #ca1a50; stroke-width: 2.25; stroke-linecap: round"/>
    </g>
    <g id="text_27">
     <!-- Baseline -->
     <g style="fill: #262626" transform="translate(593.673687 476.298161)scale(0.18 -0.18)">
      <defs>
       <path id="ArialMT-42" d="M 469 0 
L 469 4581 
L 2188 4581 
Q 2713 4581 3030 4442 
Q 3347 4303 3526 4014 
Q 3706 3725 3706 3409 
Q 3706 3116 3547 2856 
Q 3388 2597 3066 2438 
Q 3481 2316 3704 2022 
Q 3928 1728 3928 1328 
Q 3928 1006 3792 729 
Q 3656 453 3456 303 
Q 3256 153 2954 76 
Q 2653 0 2216 0 
L 469 0 
z
M 1075 2656 
L 2066 2656 
Q 2469 2656 2644 2709 
Q 2875 2778 2992 2937 
Q 3109 3097 3109 3338 
Q 3109 3566 3000 3739 
Q 2891 3913 2687 3977 
Q 2484 4041 1991 4041 
L 1075 4041 
L 1075 2656 
z
M 1075 541 
L 2216 541 
Q 2509 541 2628 563 
Q 2838 600 2978 687 
Q 3119 775 3209 942 
Q 3300 1109 3300 1328 
Q 3300 1584 3169 1773 
Q 3038 1963 2805 2039 
Q 2572 2116 2134 2116 
L 1075 2116 
L 1075 541 
z
" transform="scale(0.015625)"/>
      </defs>
      <use xlink:href="#ArialMT-42"/>
      <use xlink:href="#ArialMT-61" x="66.699219"/>
      <use xlink:href="#ArialMT-73" x="122.314453"/>
      <use xlink:href="#ArialMT-65" x="172.314453"/>
      <use xlink:href="#ArialMT-6c" x="227.929688"/>
      <use xlink:href="#ArialMT-69" x="250.146484"/>
      <use xlink:href="#ArialMT-6e" x="272.363281"/>
      <use xlink:href="#ArialMT-65" x="327.978516"/>
     </g>
    </g>
    <g id="line2d_48">
     <path d="M 543.273687 495.459723 
L 561.273687 495.459723 
L 579.273687 495.459723 
" style="fill: none; stroke: #a11a5b; stroke-width: 2.25; stroke-linecap: round"/>
    </g>
    <g id="text_28">
     <!-- 175% Price -->
     <g style="fill: #262626" transform="translate(593.673687 501.759723)scale(0.18 -0.18)">
      <defs>
       <path id="ArialMT-37" d="M 303 3981 
L 303 4522 
L 3269 4522 
L 3269 4084 
Q 2831 3619 2401 2847 
Q 1972 2075 1738 1259 
Q 1569 684 1522 0 
L 944 0 
Q 953 541 1156 1306 
Q 1359 2072 1739 2783 
Q 2119 3494 2547 3981 
L 303 3981 
z
" transform="scale(0.015625)"/>
      </defs>
      <use xlink:href="#ArialMT-31"/>
      <use xlink:href="#ArialMT-37" x="55.615234"/>
      <use xlink:href="#ArialMT-35" x="111.230469"/>
      <use xlink:href="#ArialMT-25" x="166.845703"/>
      <use xlink:href="#ArialMT-20" x="255.761719"/>
      <use xlink:href="#ArialMT-50" x="283.544922"/>
      <use xlink:href="#ArialMT-72" x="350.244141"/>
      <use xlink:href="#ArialMT-69" x="383.544922"/>
      <use xlink:href="#ArialMT-63" x="405.761719"/>
      <use xlink:href="#ArialMT-65" x="455.761719"/>
     </g>
    </g>
    <g id="line2d_49">
     <path d="M 543.273687 520.921286 
L 561.273687 520.921286 
L 579.273687 520.921286 
" style="fill: none; stroke: #751f58; stroke-width: 2.25; stroke-linecap: round"/>
    </g>
    <g id="text_29">
     <!-- 300% Price -->
     <g style="fill: #262626" transform="translate(593.673687 527.221286)scale(0.18 -0.18)">
      <use xlink:href="#ArialMT-33"/>
      <use xlink:href="#ArialMT-30" x="55.615234"/>
      <use xlink:href="#ArialMT-30" x="111.230469"/>
      <use xlink:href="#ArialMT-25" x="166.845703"/>
      <use xlink:href="#ArialMT-20" x="255.761719"/>
      <use xlink:href="#ArialMT-50" x="283.544922"/>
      <use xlink:href="#ArialMT-72" x="350.244141"/>
      <use xlink:href="#ArialMT-69" x="383.544922"/>
      <use xlink:href="#ArialMT-63" x="405.761719"/>
      <use xlink:href="#ArialMT-65" x="455.761719"/>
     </g>
    </g>
    <g id="line2d_50">
     <path d="M 543.273687 546.382848 
L 561.273687 546.382848 
L 579.273687 546.382848 
" style="fill: none; stroke: #4c1d4b; stroke-width: 2.25; stroke-linecap: round"/>
    </g>
    <g id="text_30">
     <!-- 500% Price -->
     <g style="fill: #262626" transform="translate(593.673687 552.682848)scale(0.18 -0.18)">
      <use xlink:href="#ArialMT-35"/>
      <use xlink:href="#ArialMT-30" x="55.615234"/>
      <use xlink:href="#ArialMT-30" x="111.230469"/>
      <use xlink:href="#ArialMT-25" x="166.845703"/>
      <use xlink:href="#ArialMT-20" x="255.761719"/>
      <use xlink:href="#ArialMT-50" x="283.544922"/>
      <use xlink:href="#ArialMT-72" x="350.244141"/>
      <use xlink:href="#ArialMT-69" x="383.544922"/>
      <use xlink:href="#ArialMT-63" x="405.761719"/>
      <use xlink:href="#ArialMT-65" x="455.761719"/>
     </g>
    </g>
    <g id="line2d_51">
     <path d="M 543.273687 571.844411 
L 561.273687 571.844411 
L 579.273687 571.844411 
" style="fill: none; stroke: #251433; stroke-width: 2.25; stroke-linecap: round"/>
    </g>
    <g id="text_31">
     <!-- 800% Price -->
     <g style="fill: #262626" transform="translate(593.673687 578.144411)scale(0.18 -0.18)">
      <use xlink:href="#ArialMT-38"/>
      <use xlink:href="#ArialMT-30" x="55.615234"/>
      <use xlink:href="#ArialMT-30" x="111.230469"/>
      <use xlink:href="#ArialMT-25" x="166.845703"/>
      <use xlink:href="#ArialMT-20" x="255.761719"/>
      <use xlink:href="#ArialMT-50" x="283.544922"/>
      <use xlink:href="#ArialMT-72" x="350.244141"/>
      <use xlink:href="#ArialMT-69" x="383.544922"/>
      <use xlink:href="#ArialMT-63" x="405.761719"/>
      <use xlink:href="#ArialMT-65" x="455.761719"/>
     </g>
    </g>
   </g>
  </g>
 </g>
 <defs>
  <clipPath id="p62e8be3c77">
   <rect x="63.3075" y="26.084063" width="443.87" height="266.467116"/>
  </clipPath>
  <clipPath id="p649488d452">
   <rect x="63.3075" y="338.411322" width="443.87" height="266.467116"/>
  </clipPath>
 </defs>
</svg>
