<?xml version="1.0" encoding="utf-8" standalone="no"?>
<!DOCTYPE svg PUBLIC "-//W3C//DTD SVG 1.1//EN"
  "http://www.w3.org/Graphics/SVG/1.1/DTD/svg11.dtd">
<svg xmlns:xlink="http://www.w3.org/1999/xlink" width="1727.318594pt" height="770.648547pt" viewBox="0 0 1727.318594 770.648547" xmlns="http://www.w3.org/2000/svg" version="1.1">
 <metadata>
  <rdf:RDF xmlns:dc="http://purl.org/dc/elements/1.1/" xmlns:cc="http://creativecommons.org/ns#" xmlns:rdf="http://www.w3.org/1999/02/22-rdf-syntax-ns#">
   <cc:Work>
    <dc:type rdf:resource="http://purl.org/dc/dcmitype/StillImage"/>
    <dc:date>2023-05-10T18:43:23.383651</dc:date>
    <dc:format>image/svg+xml</dc:format>
    <dc:creator>
     <cc:Agent>
      <dc:title>Matplotlib v3.5.1, https://matplotlib.org/</dc:title>
     </cc:Agent>
    </dc:creator>
   </cc:Work>
  </rdf:RDF>
 </metadata>
 <defs>
  <style type="text/css">*{stroke-linejoin: round; stroke-linecap: butt}</style>
 </defs>
 <g id="figure_1">
  <g id="patch_1">
   <path d="M 0 770.648547 
L 1727.318594 770.648547 
L 1727.318594 0 
L 0 0 
z
" style="fill: #ffffff"/>
  </g>
  <g id="axes_1">
   <g id="patch_2">
    <path d="M 81.658594 401.672147 
L 507.278594 401.672147 
L 507.278594 135.205031 
L 81.658594 135.205031 
z
" style="fill: #ffffff"/>
   </g>
   <g id="matplotlib.axis_1">
    <g id="xtick_1">
     <g id="line2d_1">
      <path d="M 133.225768 401.672147 
L 133.225768 135.205031 
" clip-path="url(#pfc3a3ed2a2)" style="fill: none; stroke: #cccccc; stroke-width: 1.5; stroke-linecap: round"/>
     </g>
    </g>
    <g id="xtick_2">
     <g id="line2d_2">
      <path d="M 190.92754 401.672147 
L 190.92754 135.205031 
" clip-path="url(#pfc3a3ed2a2)" style="fill: none; stroke: #cccccc; stroke-width: 1.5; stroke-linecap: round"/>
     </g>
    </g>
    <g id="xtick_3">
     <g id="line2d_3">
      <path d="M 248.629312 401.672147 
L 248.629312 135.205031 
" clip-path="url(#pfc3a3ed2a2)" style="fill: none; stroke: #cccccc; stroke-width: 1.5; stroke-linecap: round"/>
     </g>
    </g>
    <g id="xtick_4">
     <g id="line2d_4">
      <path d="M 306.331085 401.672147 
L 306.331085 135.205031 
" clip-path="url(#pfc3a3ed2a2)" style="fill: none; stroke: #cccccc; stroke-width: 1.5; stroke-linecap: round"/>
     </g>
    </g>
    <g id="xtick_5">
     <g id="line2d_5">
      <path d="M 364.032857 401.672147 
L 364.032857 135.205031 
" clip-path="url(#pfc3a3ed2a2)" style="fill: none; stroke: #cccccc; stroke-width: 1.5; stroke-linecap: round"/>
     </g>
    </g>
    <g id="xtick_6">
     <g id="line2d_6">
      <path d="M 421.734629 401.672147 
L 421.734629 135.205031 
" clip-path="url(#pfc3a3ed2a2)" style="fill: none; stroke: #cccccc; stroke-width: 1.5; stroke-linecap: round"/>
     </g>
    </g>
    <g id="xtick_7">
     <g id="line2d_7">
      <path d="M 479.436402 401.672147 
L 479.436402 135.205031 
" clip-path="url(#pfc3a3ed2a2)" style="fill: none; stroke: #cccccc; stroke-width: 1.5; stroke-linecap: round"/>
     </g>
    </g>
   </g>
   <g id="matplotlib.axis_2">
    <g id="ytick_1">
     <g id="line2d_8">
      <path d="M 81.658594 401.672147 
L 507.278594 401.672147 
" clip-path="url(#pfc3a3ed2a2)" style="fill: none; stroke: #cccccc; stroke-width: 1.5; stroke-linecap: round"/>
     </g>
     <g id="text_1">
      <!-- 0.000 -->
      <g style="fill: #262626" transform="translate(27.8725 407.577342)scale(0.165 -0.165)">
       <defs>
        <path id="ArialMT-30" d="M 266 2259 
Q 266 3072 433 3567 
Q 600 4063 929 4331 
Q 1259 4600 1759 4600 
Q 2128 4600 2406 4451 
Q 2684 4303 2865 4023 
Q 3047 3744 3150 3342 
Q 3253 2941 3253 2259 
Q 3253 1453 3087 958 
Q 2922 463 2592 192 
Q 2263 -78 1759 -78 
Q 1097 -78 719 397 
Q 266 969 266 2259 
z
M 844 2259 
Q 844 1131 1108 757 
Q 1372 384 1759 384 
Q 2147 384 2411 759 
Q 2675 1134 2675 2259 
Q 2675 3391 2411 3762 
Q 2147 4134 1753 4134 
Q 1366 4134 1134 3806 
Q 844 3388 844 2259 
z
" transform="scale(0.015625)"/>
        <path id="ArialMT-2e" d="M 581 0 
L 581 641 
L 1222 641 
L 1222 0 
L 581 0 
z
" transform="scale(0.015625)"/>
       </defs>
       <use xlink:href="#ArialMT-30"/>
       <use xlink:href="#ArialMT-2e" x="55.615234"/>
       <use xlink:href="#ArialMT-30" x="83.398438"/>
       <use xlink:href="#ArialMT-30" x="139.013672"/>
       <use xlink:href="#ArialMT-30" x="194.628906"/>
      </g>
     </g>
    </g>
    <g id="ytick_2">
     <g id="line2d_9">
      <path d="M 81.658594 366.562637 
L 507.278594 366.562637 
" clip-path="url(#pfc3a3ed2a2)" style="fill: none; stroke: #cccccc; stroke-width: 1.5; stroke-linecap: round"/>
     </g>
     <g id="text_2">
      <!-- 0.005 -->
      <g style="fill: #262626" transform="translate(27.8725 372.467833)scale(0.165 -0.165)">
       <defs>
        <path id="ArialMT-35" d="M 266 1200 
L 856 1250 
Q 922 819 1161 601 
Q 1400 384 1738 384 
Q 2144 384 2425 690 
Q 2706 997 2706 1503 
Q 2706 1984 2436 2262 
Q 2166 2541 1728 2541 
Q 1456 2541 1237 2417 
Q 1019 2294 894 2097 
L 366 2166 
L 809 4519 
L 3088 4519 
L 3088 3981 
L 1259 3981 
L 1013 2750 
Q 1425 3038 1878 3038 
Q 2478 3038 2890 2622 
Q 3303 2206 3303 1553 
Q 3303 931 2941 478 
Q 2500 -78 1738 -78 
Q 1113 -78 717 272 
Q 322 622 266 1200 
z
" transform="scale(0.015625)"/>
       </defs>
       <use xlink:href="#ArialMT-30"/>
       <use xlink:href="#ArialMT-2e" x="55.615234"/>
       <use xlink:href="#ArialMT-30" x="83.398438"/>
       <use xlink:href="#ArialMT-30" x="139.013672"/>
       <use xlink:href="#ArialMT-35" x="194.628906"/>
      </g>
     </g>
    </g>
    <g id="ytick_3">
     <g id="line2d_10">
      <path d="M 81.658594 331.453128 
L 507.278594 331.453128 
" clip-path="url(#pfc3a3ed2a2)" style="fill: none; stroke: #cccccc; stroke-width: 1.5; stroke-linecap: round"/>
     </g>
     <g id="text_3">
      <!-- 0.010 -->
      <g style="fill: #262626" transform="translate(27.8725 337.358323)scale(0.165 -0.165)">
       <defs>
        <path id="ArialMT-31" d="M 2384 0 
L 1822 0 
L 1822 3584 
Q 1619 3391 1289 3197 
Q 959 3003 697 2906 
L 697 3450 
Q 1169 3672 1522 3987 
Q 1875 4303 2022 4600 
L 2384 4600 
L 2384 0 
z
" transform="scale(0.015625)"/>
       </defs>
       <use xlink:href="#ArialMT-30"/>
       <use xlink:href="#ArialMT-2e" x="55.615234"/>
       <use xlink:href="#ArialMT-30" x="83.398438"/>
       <use xlink:href="#ArialMT-31" x="139.013672"/>
       <use xlink:href="#ArialMT-30" x="194.628906"/>
      </g>
     </g>
    </g>
    <g id="ytick_4">
     <g id="line2d_11">
      <path d="M 81.658594 296.343619 
L 507.278594 296.343619 
" clip-path="url(#pfc3a3ed2a2)" style="fill: none; stroke: #cccccc; stroke-width: 1.5; stroke-linecap: round"/>
     </g>
     <g id="text_4">
      <!-- 0.015 -->
      <g style="fill: #262626" transform="translate(27.8725 302.248814)scale(0.165 -0.165)">
       <use xlink:href="#ArialMT-30"/>
       <use xlink:href="#ArialMT-2e" x="55.615234"/>
       <use xlink:href="#ArialMT-30" x="83.398438"/>
       <use xlink:href="#ArialMT-31" x="139.013672"/>
       <use xlink:href="#ArialMT-35" x="194.628906"/>
      </g>
     </g>
    </g>
    <g id="ytick_5">
     <g id="line2d_12">
      <path d="M 81.658594 261.234109 
L 507.278594 261.234109 
" clip-path="url(#pfc3a3ed2a2)" style="fill: none; stroke: #cccccc; stroke-width: 1.5; stroke-linecap: round"/>
     </g>
     <g id="text_5">
      <!-- 0.020 -->
      <g style="fill: #262626" transform="translate(27.8725 267.139304)scale(0.165 -0.165)">
       <defs>
        <path id="ArialMT-32" d="M 3222 541 
L 3222 0 
L 194 0 
Q 188 203 259 391 
Q 375 700 629 1000 
Q 884 1300 1366 1694 
Q 2113 2306 2375 2664 
Q 2638 3022 2638 3341 
Q 2638 3675 2398 3904 
Q 2159 4134 1775 4134 
Q 1369 4134 1125 3890 
Q 881 3647 878 3216 
L 300 3275 
Q 359 3922 746 4261 
Q 1134 4600 1788 4600 
Q 2447 4600 2831 4234 
Q 3216 3869 3216 3328 
Q 3216 3053 3103 2787 
Q 2991 2522 2730 2228 
Q 2469 1934 1863 1422 
Q 1356 997 1212 845 
Q 1069 694 975 541 
L 3222 541 
z
" transform="scale(0.015625)"/>
       </defs>
       <use xlink:href="#ArialMT-30"/>
       <use xlink:href="#ArialMT-2e" x="55.615234"/>
       <use xlink:href="#ArialMT-30" x="83.398438"/>
       <use xlink:href="#ArialMT-32" x="139.013672"/>
       <use xlink:href="#ArialMT-30" x="194.628906"/>
      </g>
     </g>
    </g>
    <g id="ytick_6">
     <g id="line2d_13">
      <path d="M 81.658594 226.1246 
L 507.278594 226.1246 
" clip-path="url(#pfc3a3ed2a2)" style="fill: none; stroke: #cccccc; stroke-width: 1.5; stroke-linecap: round"/>
     </g>
     <g id="text_6">
      <!-- 0.025 -->
      <g style="fill: #262626" transform="translate(27.8725 232.029795)scale(0.165 -0.165)">
       <use xlink:href="#ArialMT-30"/>
       <use xlink:href="#ArialMT-2e" x="55.615234"/>
       <use xlink:href="#ArialMT-30" x="83.398438"/>
       <use xlink:href="#ArialMT-32" x="139.013672"/>
       <use xlink:href="#ArialMT-35" x="194.628906"/>
      </g>
     </g>
    </g>
    <g id="ytick_7">
     <g id="line2d_14">
      <path d="M 81.658594 191.01509 
L 507.278594 191.01509 
" clip-path="url(#pfc3a3ed2a2)" style="fill: none; stroke: #cccccc; stroke-width: 1.5; stroke-linecap: round"/>
     </g>
     <g id="text_7">
      <!-- 0.030 -->
      <g style="fill: #262626" transform="translate(27.8725 196.920286)scale(0.165 -0.165)">
       <defs>
        <path id="ArialMT-33" d="M 269 1209 
L 831 1284 
Q 928 806 1161 595 
Q 1394 384 1728 384 
Q 2125 384 2398 659 
Q 2672 934 2672 1341 
Q 2672 1728 2419 1979 
Q 2166 2231 1775 2231 
Q 1616 2231 1378 2169 
L 1441 2663 
Q 1497 2656 1531 2656 
Q 1891 2656 2178 2843 
Q 2466 3031 2466 3422 
Q 2466 3731 2256 3934 
Q 2047 4138 1716 4138 
Q 1388 4138 1169 3931 
Q 950 3725 888 3313 
L 325 3413 
Q 428 3978 793 4289 
Q 1159 4600 1703 4600 
Q 2078 4600 2393 4439 
Q 2709 4278 2876 4000 
Q 3044 3722 3044 3409 
Q 3044 3113 2884 2869 
Q 2725 2625 2413 2481 
Q 2819 2388 3044 2092 
Q 3269 1797 3269 1353 
Q 3269 753 2831 336 
Q 2394 -81 1725 -81 
Q 1122 -81 723 278 
Q 325 638 269 1209 
z
" transform="scale(0.015625)"/>
       </defs>
       <use xlink:href="#ArialMT-30"/>
       <use xlink:href="#ArialMT-2e" x="55.615234"/>
       <use xlink:href="#ArialMT-30" x="83.398438"/>
       <use xlink:href="#ArialMT-33" x="139.013672"/>
       <use xlink:href="#ArialMT-30" x="194.628906"/>
      </g>
     </g>
    </g>
    <g id="ytick_8">
     <g id="line2d_15">
      <path d="M 81.658594 155.905581 
L 507.278594 155.905581 
" clip-path="url(#pfc3a3ed2a2)" style="fill: none; stroke: #cccccc; stroke-width: 1.5; stroke-linecap: round"/>
     </g>
     <g id="text_8">
      <!-- 0.035 -->
      <g style="fill: #262626" transform="translate(27.8725 161.810776)scale(0.165 -0.165)">
       <use xlink:href="#ArialMT-30"/>
       <use xlink:href="#ArialMT-2e" x="55.615234"/>
       <use xlink:href="#ArialMT-30" x="83.398438"/>
       <use xlink:href="#ArialMT-33" x="139.013672"/>
       <use xlink:href="#ArialMT-35" x="194.628906"/>
      </g>
     </g>
    </g>
    <g id="text_9">
     <!-- Density -->
     <g style="fill: #262626" transform="translate(20.084063 298.447964)rotate(-90)scale(0.18 -0.18)">
      <defs>
       <path id="ArialMT-44" d="M 494 0 
L 494 4581 
L 2072 4581 
Q 2606 4581 2888 4516 
Q 3281 4425 3559 4188 
Q 3922 3881 4101 3404 
Q 4281 2928 4281 2316 
Q 4281 1794 4159 1391 
Q 4038 988 3847 723 
Q 3656 459 3429 307 
Q 3203 156 2883 78 
Q 2563 0 2147 0 
L 494 0 
z
M 1100 541 
L 2078 541 
Q 2531 541 2789 625 
Q 3047 709 3200 863 
Q 3416 1078 3536 1442 
Q 3656 1806 3656 2325 
Q 3656 3044 3420 3430 
Q 3184 3816 2847 3947 
Q 2603 4041 2063 4041 
L 1100 4041 
L 1100 541 
z
" transform="scale(0.015625)"/>
       <path id="ArialMT-65" d="M 2694 1069 
L 3275 997 
Q 3138 488 2766 206 
Q 2394 -75 1816 -75 
Q 1088 -75 661 373 
Q 234 822 234 1631 
Q 234 2469 665 2931 
Q 1097 3394 1784 3394 
Q 2450 3394 2872 2941 
Q 3294 2488 3294 1666 
Q 3294 1616 3291 1516 
L 816 1516 
Q 847 969 1125 678 
Q 1403 388 1819 388 
Q 2128 388 2347 550 
Q 2566 713 2694 1069 
z
M 847 1978 
L 2700 1978 
Q 2663 2397 2488 2606 
Q 2219 2931 1791 2931 
Q 1403 2931 1139 2672 
Q 875 2413 847 1978 
z
" transform="scale(0.015625)"/>
       <path id="ArialMT-6e" d="M 422 0 
L 422 3319 
L 928 3319 
L 928 2847 
Q 1294 3394 1984 3394 
Q 2284 3394 2536 3286 
Q 2788 3178 2913 3003 
Q 3038 2828 3088 2588 
Q 3119 2431 3119 2041 
L 3119 0 
L 2556 0 
L 2556 2019 
Q 2556 2363 2490 2533 
Q 2425 2703 2258 2804 
Q 2091 2906 1866 2906 
Q 1506 2906 1245 2678 
Q 984 2450 984 1813 
L 984 0 
L 422 0 
z
" transform="scale(0.015625)"/>
       <path id="ArialMT-73" d="M 197 991 
L 753 1078 
Q 800 744 1014 566 
Q 1228 388 1613 388 
Q 2000 388 2187 545 
Q 2375 703 2375 916 
Q 2375 1106 2209 1216 
Q 2094 1291 1634 1406 
Q 1016 1563 777 1677 
Q 538 1791 414 1992 
Q 291 2194 291 2438 
Q 291 2659 392 2848 
Q 494 3038 669 3163 
Q 800 3259 1026 3326 
Q 1253 3394 1513 3394 
Q 1903 3394 2198 3281 
Q 2494 3169 2634 2976 
Q 2775 2784 2828 2463 
L 2278 2388 
Q 2241 2644 2061 2787 
Q 1881 2931 1553 2931 
Q 1166 2931 1000 2803 
Q 834 2675 834 2503 
Q 834 2394 903 2306 
Q 972 2216 1119 2156 
Q 1203 2125 1616 2013 
Q 2213 1853 2448 1751 
Q 2684 1650 2818 1456 
Q 2953 1263 2953 975 
Q 2953 694 2789 445 
Q 2625 197 2315 61 
Q 2006 -75 1616 -75 
Q 969 -75 630 194 
Q 291 463 197 991 
z
" transform="scale(0.015625)"/>
       <path id="ArialMT-69" d="M 425 3934 
L 425 4581 
L 988 4581 
L 988 3934 
L 425 3934 
z
M 425 0 
L 425 3319 
L 988 3319 
L 988 0 
L 425 0 
z
" transform="scale(0.015625)"/>
       <path id="ArialMT-74" d="M 1650 503 
L 1731 6 
Q 1494 -44 1306 -44 
Q 1000 -44 831 53 
Q 663 150 594 308 
Q 525 466 525 972 
L 525 2881 
L 113 2881 
L 113 3319 
L 525 3319 
L 525 4141 
L 1084 4478 
L 1084 3319 
L 1650 3319 
L 1650 2881 
L 1084 2881 
L 1084 941 
Q 1084 700 1114 631 
Q 1144 563 1211 522 
Q 1278 481 1403 481 
Q 1497 481 1650 503 
z
" transform="scale(0.015625)"/>
       <path id="ArialMT-79" d="M 397 -1278 
L 334 -750 
Q 519 -800 656 -800 
Q 844 -800 956 -737 
Q 1069 -675 1141 -563 
Q 1194 -478 1313 -144 
Q 1328 -97 1363 -6 
L 103 3319 
L 709 3319 
L 1400 1397 
Q 1534 1031 1641 628 
Q 1738 1016 1872 1384 
L 2581 3319 
L 3144 3319 
L 1881 -56 
Q 1678 -603 1566 -809 
Q 1416 -1088 1222 -1217 
Q 1028 -1347 759 -1347 
Q 597 -1347 397 -1278 
z
" transform="scale(0.015625)"/>
      </defs>
      <use xlink:href="#ArialMT-44"/>
      <use xlink:href="#ArialMT-65" x="72.216797"/>
      <use xlink:href="#ArialMT-6e" x="127.832031"/>
      <use xlink:href="#ArialMT-73" x="183.447266"/>
      <use xlink:href="#ArialMT-69" x="233.447266"/>
      <use xlink:href="#ArialMT-74" x="255.664062"/>
      <use xlink:href="#ArialMT-79" x="283.447266"/>
     </g>
    </g>
   </g>
   <g id="line2d_16">
    <path d="M 136.634144 401.67212 
L 205.180389 401.566389 
L 224.982637 401.344838 
L 238.691886 401.001645 
L 246.308136 400.573803 
L 250.877885 400.119651 
L 253.924385 399.672187 
L 256.970885 399.042287 
L 260.017385 398.130878 
L 261.540634 397.521905 
L 263.063884 396.774226 
L 264.587134 395.851137 
L 266.110384 394.706603 
L 267.633634 393.283601 
L 269.156884 391.51256 
L 270.680134 389.310093 
L 272.203384 386.578316 
L 273.726634 383.205099 
L 275.249883 379.065666 
L 276.773133 374.025938 
L 278.296383 367.948019 
L 279.819633 360.698065 
L 281.342883 352.156607 
L 282.866133 342.231102 
L 284.389383 330.87013 
L 285.912633 318.078277 
L 287.435883 303.930356 
L 290.482382 272.28409 
L 296.575382 205.556507 
L 298.098632 191.06766 
L 299.621882 178.580261 
L 301.145131 168.61144 
L 302.668381 161.595346 
L 304.191631 157.85136 
L 305.714881 157.559735 
L 307.238131 160.747255 
L 308.761381 167.284529 
L 310.284631 176.895244 
L 311.807881 189.17644 
L 313.331131 203.627661 
L 316.37763 236.763465 
L 320.94738 288.58571 
L 322.47063 304.524922 
L 323.99388 319.246398 
L 325.51713 332.562328 
L 327.04038 344.37467 
L 328.563629 354.663995 
L 330.086879 363.475079 
L 331.610129 370.901068 
L 333.133379 377.067832 
L 334.656629 382.119725 
L 336.179879 386.207561 
L 337.703129 389.479221 
L 339.226379 392.072942 
L 340.749629 394.113081 
L 342.272878 395.70798 
L 343.796128 396.949473 
L 345.319378 397.91358 
L 346.842628 398.661941 
L 348.365878 399.243662 
L 351.412378 400.052661 
L 354.458877 400.555048 
L 359.028627 400.992892 
L 365.121627 401.290077 
L 375.784376 401.513587 
L 395.586624 401.633749 
L 439.760871 401.672107 
L 439.760871 401.672107 
" clip-path="url(#pfc3a3ed2a2)" style="fill: none; stroke: #f7c6a6; stroke-width: 1.5; stroke-linecap: round"/>
   </g>
   <g id="line2d_17">
    <path d="M 140.546023 401.672092 
L 209.844196 401.56675 
L 229.863668 401.301731 
L 240.643383 400.957802 
L 246.803221 400.58177 
L 251.423099 400.119948 
L 254.503018 399.663101 
L 257.582937 399.013503 
L 260.662856 398.061894 
L 262.202815 397.420191 
L 263.742774 396.627413 
L 265.282734 395.642652 
L 266.822693 394.414291 
L 268.362653 392.877987 
L 269.902612 390.95475 
L 271.442571 388.549394 
L 272.982531 385.549729 
L 274.52249 381.826969 
L 276.06245 377.237888 
L 277.602409 371.629273 
L 279.142368 364.845137 
L 280.682328 356.737011 
L 282.222287 347.177293 
L 283.762247 336.075265 
L 285.302206 323.394852 
L 286.842165 309.172685 
L 288.382125 293.534551 
L 291.462044 259.028468 
L 296.081922 205.738458 
L 297.621881 189.886302 
L 299.161841 176.064306 
L 300.7018 164.878172 
L 302.241759 156.845799 
L 303.781719 152.357011 
L 305.321678 151.641854 
L 306.861638 154.751094 
L 308.401597 161.551224 
L 309.941556 171.73462 
L 311.481516 184.843731 
L 313.021475 200.306581 
L 316.101394 235.693565 
L 320.721272 290.377783 
L 322.261232 306.940867 
L 323.801191 322.092368 
L 325.34115 335.651994 
L 326.88111 347.541412 
L 328.421069 357.768997 
L 329.961029 366.411339 
L 331.500988 373.59383 
L 333.040947 379.472202 
L 334.580907 384.216405 
L 336.120866 387.997599 
L 337.660826 390.978542 
L 339.200785 393.307237 
L 340.740744 395.113428 
L 342.280704 396.507381 
L 343.820663 397.580329 
L 345.360622 398.406011 
L 346.900582 399.042824 
L 349.980501 399.920981 
L 353.060419 400.463609 
L 357.680298 400.938558 
L 363.840135 401.261847 
L 373.079892 401.472993 
L 393.099364 401.630703 
L 431.598349 401.671582 
L 446.997943 401.672129 
L 446.997943 401.672129 
" clip-path="url(#pfc3a3ed2a2)" style="fill: none; stroke: #f69c73; stroke-width: 1.5; stroke-linecap: round"/>
   </g>
   <g id="line2d_18">
    <path d="M 138.267609 401.672092 
L 209.631556 401.560905 
L 228.564848 401.332417 
L 240.216105 401.009881 
L 247.49814 400.580143 
L 251.867361 400.120961 
L 254.780176 399.667811 
L 257.69299 399.032898 
L 260.605804 398.123591 
L 262.062211 397.522011 
L 263.518618 396.788966 
L 264.975025 395.890862 
L 266.431432 394.785567 
L 267.887839 393.420836 
L 269.344246 391.732763 
L 270.800654 389.644446 
L 272.257061 387.065089 
L 273.713468 383.889877 
L 275.169875 380.000956 
L 276.626282 375.269924 
L 278.082689 369.562196 
L 279.539096 362.743546 
L 280.995503 354.688961 
L 282.45191 345.293731 
L 283.908317 334.486395 
L 285.364724 322.242796 
L 286.821131 308.600184 
L 289.733946 277.647293 
L 297.015981 193.941625 
L 298.472388 179.957583 
L 299.928795 168.166919 
L 301.385202 159.053237 
L 302.841609 153.008259 
L 304.298017 150.303521 
L 305.754424 151.069975 
L 307.210831 155.287663 
L 308.667238 162.786575 
L 310.123645 173.258662 
L 311.580052 186.279778 
L 313.036459 201.33931 
L 315.949273 235.306519 
L 320.318495 287.630587 
L 321.774902 303.617916 
L 323.231309 318.359793 
L 324.687716 331.683192 
L 326.144123 343.501029 
L 327.60053 353.801062 
L 329.056937 362.631905 
L 330.513344 370.087867 
L 331.969751 376.294072 
L 333.426158 381.392952 
L 334.882565 385.532871 
L 336.338972 388.859221 
L 337.79538 391.508034 
L 339.251787 393.601927 
L 340.708194 395.248023 
L 342.164601 396.537427 
L 343.621008 397.545829 
L 345.077415 398.33484 
L 346.533822 398.953719 
L 349.446636 399.827584 
L 352.35945 400.383914 
L 356.728672 400.885072 
L 362.5543 401.237269 
L 371.292743 401.475944 
L 387.313221 401.621611 
L 423.723398 401.672016 
L 428.092619 401.672109 
L 428.092619 401.672109 
" clip-path="url(#pfc3a3ed2a2)" style="fill: none; stroke: #f3714d; stroke-width: 1.5; stroke-linecap: round"/>
   </g>
   <g id="line2d_19">
    <path d="M 137.062948 401.672125 
L 208.818628 401.564863 
L 229.097408 401.325113 
L 240.01675 401.013165 
L 246.256375 400.666489 
L 250.936093 400.230579 
L 254.055905 399.793874 
L 257.175718 399.168523 
L 260.29553 398.246937 
L 261.855436 397.622555 
L 263.415342 396.848279 
L 264.975248 395.882449 
L 266.535154 394.672122 
L 268.09506 393.15087 
L 269.654966 391.236659 
L 271.214873 388.830101 
L 272.774779 385.813497 
L 274.334685 382.051177 
L 275.894591 377.391746 
L 277.454497 371.672851 
L 279.014403 364.729009 
L 280.574309 356.402842 
L 282.134215 346.559737 
L 283.694121 335.105468 
L 285.254027 322.00572 
L 286.813934 307.305882 
L 288.37384 291.148877 
L 291.493652 255.595259 
L 294.613464 218.745838 
L 296.17337 201.328185 
L 297.733276 185.491988 
L 299.293182 171.919898 
L 300.853088 161.236696 
L 302.412995 153.961023 
L 303.972901 150.46303 
L 305.532807 150.932819 
L 307.092713 155.363458 
L 308.652619 163.550669 
L 310.212525 175.109328 
L 311.772431 189.504836 
L 313.332337 206.095719 
L 316.452149 243.058374 
L 319.571962 280.577305 
L 321.131868 298.139013 
L 322.691774 314.369088 
L 324.25168 329.019752 
L 325.811586 341.95908 
L 327.371492 353.156799 
L 328.931398 362.665214 
L 330.491304 370.598021 
L 332.05121 377.109383 
L 333.611117 382.375087 
L 335.171023 386.576934 
L 336.730929 389.890871 
L 338.290835 392.478868 
L 339.850741 394.484151 
L 341.410647 396.029187 
L 342.970553 397.215729 
L 344.530459 398.126243 
L 346.090365 398.826143 
L 347.650271 399.366367 
L 350.770084 400.114537 
L 353.889896 400.581633 
L 358.569614 400.997875 
L 364.809239 401.292327 
L 375.728581 401.522222 
L 394.447454 401.64279 
L 447.484262 401.672131 
L 447.484262 401.672131 
" clip-path="url(#pfc3a3ed2a2)" style="fill: none; stroke: #e83f3f; stroke-width: 1.5; stroke-linecap: round"/>
   </g>
   <g id="line2d_20">
    <path d="M 135.103938 401.672119 
L 206.9297 401.567342 
L 228.789715 401.337641 
L 239.719722 401.054515 
L 245.965441 400.725464 
L 250.64973 400.303995 
L 253.772589 399.881617 
L 256.895448 399.279601 
L 260.018307 398.396905 
L 261.579737 397.800372 
L 263.141167 397.06118 
L 264.702596 396.139057 
L 266.264026 394.982559 
L 267.825455 393.526828 
L 269.386885 391.691376 
L 270.948315 389.378202 
L 272.509744 386.470622 
L 274.071174 382.833337 
L 275.632604 378.31435 
L 277.194033 372.749366 
L 278.755463 365.969264 
L 280.316892 357.811053 
L 281.878322 348.132384 
L 283.439752 336.82924 
L 285.001181 323.855815 
L 286.562611 309.244968 
L 288.12404 293.127024 
L 291.2469 257.458531 
L 295.931189 202.467385 
L 297.492618 186.260021 
L 299.054048 172.275347 
L 300.615477 161.159068 
L 302.176907 153.453124 
L 303.738337 149.551232 
L 305.299766 149.665126 
L 306.861196 153.805555 
L 308.422625 161.780432 
L 309.984055 173.21043 
L 311.545485 187.560206 
L 313.106914 204.181588 
L 316.229774 241.384867 
L 319.352633 279.280704 
L 320.914062 297.043831 
L 322.475492 313.467555 
L 324.036922 328.295558 
L 325.598351 341.390574 
L 327.159781 352.719919 
L 328.72121 362.335901 
L 330.28264 370.353979 
L 331.84407 376.931181 
L 333.405499 382.24666 
L 334.966929 386.485615 
L 336.528358 389.827086 
L 338.089788 392.435646 
L 339.651218 394.456558 
L 341.212647 396.013779 
L 342.774077 397.210075 
L 344.335507 398.128551 
L 345.896936 398.834985 
L 347.458366 399.380506 
L 350.581225 400.135875 
L 353.704084 400.605942 
L 358.388373 401.020007 
L 364.634092 401.30449 
L 375.564099 401.520021 
L 395.862684 401.646301 
L 445.828431 401.672116 
L 445.828431 401.672116 
" clip-path="url(#pfc3a3ed2a2)" style="fill: none; stroke: #ca1a50; stroke-width: 1.5; stroke-linecap: round"/>
   </g>
   <g id="line2d_21">
    <path d="M 137.667093 401.672103 
L 207.603498 401.564562 
L 230.915633 401.293348 
L 240.240487 401.007851 
L 246.457057 400.657256 
L 251.119484 400.220111 
L 254.227768 399.77928 
L 257.336053 399.142177 
L 260.444338 398.196068 
L 261.99848 397.552945 
L 263.552622 396.754656 
L 265.106765 395.758749 
L 266.660907 394.511378 
L 268.215049 392.94506 
L 269.769192 390.976525 
L 271.323334 388.504974 
L 272.877476 385.411171 
L 274.431619 381.557901 
L 275.985761 376.792401 
L 277.539903 370.951384 
L 279.094046 363.86918 
L 280.648188 355.389323 
L 282.20233 345.379547 
L 283.756473 333.74967 
L 285.310615 320.471278 
L 286.864757 305.597479 
L 288.4189 289.28048 
L 291.527184 253.490514 
L 294.635469 216.583644 
L 296.189611 199.223718 
L 297.743754 183.507436 
L 299.297896 170.116039 
L 300.852038 159.668725 
L 302.406181 152.674599 
L 303.960323 149.490972 
L 305.514465 150.292806 
L 307.068608 155.056984 
L 308.62275 163.563355 
L 310.176892 175.412531 
L 311.731035 190.058343 
L 313.285177 206.851206 
L 316.393462 244.059504 
L 319.501746 281.626077 
L 321.055889 299.152352 
L 322.610031 315.31857 
L 324.164173 329.885695 
L 325.718316 342.730018 
L 327.272458 353.828439 
L 328.8266 363.239077 
L 330.380743 371.079949 
L 331.934885 377.50809 
L 333.489027 382.700865 
L 335.04317 386.840584 
L 336.597312 390.102907 
L 338.151454 392.648974 
L 339.705597 394.620873 
L 341.259739 396.139809 
L 342.813881 397.306285 
L 344.368024 398.201616 
L 345.922166 398.890211 
L 347.476308 399.42216 
L 350.584593 400.160193 
L 353.692878 400.622358 
L 358.355305 401.034798 
L 364.571874 401.322146 
L 373.896728 401.512018 
L 394.100578 401.63955 
L 446.941417 401.672111 
L 446.941417 401.672111 
" clip-path="url(#pfc3a3ed2a2)" style="fill: none; stroke: #a11a5b; stroke-width: 1.5; stroke-linecap: round"/>
   </g>
   <g id="line2d_22">
    <path d="M 137.974165 401.672128 
L 211.216436 401.561086 
L 231.052885 401.30106 
L 241.73405 400.951162 
L 247.837572 400.549438 
L 252.415214 400.042335 
L 255.466976 399.53438 
L 258.518737 398.806413 
L 261.570498 397.732271 
L 263.096379 397.004389 
L 264.62226 396.102484 
L 266.14814 394.979452 
L 267.674021 393.576212 
L 269.199901 391.819664 
L 270.725782 389.620883 
L 272.251663 386.873844 
L 273.777543 383.455147 
L 275.303424 379.225234 
L 276.829305 374.031691 
L 278.355185 367.715174 
L 279.881066 360.118385 
L 281.406947 351.098293 
L 282.932827 340.541401 
L 284.458708 328.381401 
L 285.984589 314.617984 
L 287.510469 299.335024 
L 290.562231 265.053649 
L 295.139873 210.361339 
L 296.665753 193.520072 
L 298.191634 178.473593 
L 299.717515 165.871243 
L 301.243395 156.291146 
L 302.769276 150.195668 
L 304.295157 147.893941 
L 305.821037 149.515713 
L 307.346918 154.999637 
L 308.872799 164.097439 
L 310.398679 176.393565 
L 311.92456 191.338064 
L 313.450441 208.288987 
L 318.028083 264.3681 
L 321.079844 300.024986 
L 322.605725 315.981888 
L 324.131605 330.353976 
L 325.657486 343.027807 
L 327.183367 353.985646 
L 328.709247 363.286902 
L 330.235128 371.04786 
L 331.761009 377.421875 
L 333.286889 382.581659 
L 334.81277 386.704671 
L 336.33865 389.962064 
L 337.864531 392.51113 
L 339.390412 394.490901 
L 340.916292 396.02031 
L 342.442173 397.198276 
L 343.968054 398.105087 
L 345.493934 398.80454 
L 347.019815 399.346401 
L 350.071576 400.100982 
L 353.123338 400.575482 
L 357.70098 401.000157 
L 363.804502 401.297068 
L 372.959786 401.497466 
L 391.270354 401.629807 
L 437.046774 401.672096 
L 441.624416 401.672132 
L 441.624416 401.672132 
" clip-path="url(#pfc3a3ed2a2)" style="fill: none; stroke: #751f58; stroke-width: 1.5; stroke-linecap: round"/>
   </g>
   <g id="line2d_23">
    <path d="M 137.695578 401.672104 
L 210.021975 401.561445 
L 228.889731 401.336532 
L 239.895922 401.013598 
L 246.185174 400.653427 
L 250.902113 400.2026 
L 254.046739 399.754157 
L 257.191365 399.115882 
L 260.33599 398.179355 
L 261.908303 397.545847 
L 263.480616 396.760333 
L 265.052929 395.779867 
L 266.625242 394.54961 
L 268.197555 393.000443 
L 269.769868 391.046647 
L 271.342181 388.583969 
L 272.914494 385.488533 
L 274.486807 381.617175 
L 276.05912 376.809867 
L 277.631433 370.89494 
L 279.203746 363.6977 
L 280.776059 355.052838 
L 282.348372 344.82063 
L 283.920685 332.90636 
L 285.492998 319.281759 
L 287.065311 304.006516 
L 288.637624 287.247327 
L 291.78225 250.552263 
L 294.926876 212.958421 
L 296.499189 195.444828 
L 298.071502 179.756313 
L 299.643815 166.604989 
L 301.216128 156.626943 
L 302.788441 150.330614 
L 304.360754 148.053291 
L 305.933067 149.931003 
L 307.50538 155.885528 
L 309.077693 165.630264 
L 310.650006 178.694293 
L 312.222319 194.461755 
L 315.366945 231.223449 
L 320.083884 288.642173 
L 321.656197 306.011254 
L 323.22851 321.841955 
L 324.800823 335.936617 
L 326.373136 348.2153 
L 327.945449 358.696993 
L 329.517762 367.4771 
L 331.090075 374.704094 
L 332.662388 380.55772 
L 334.234701 385.230355 
L 335.807014 388.91239 
L 337.379327 391.781837 
L 338.95164 393.997871 
L 340.523953 395.697685 
L 342.096266 396.995891 
L 343.668578 397.985696 
L 345.240891 398.741144 
L 346.813204 399.319878 
L 349.95783 400.1128 
L 353.102456 400.601143 
L 357.819395 401.030366 
L 364.108647 401.326733 
L 373.542525 401.522437 
L 392.410281 401.638649 
L 447.441235 401.672064 
L 450.585861 401.672112 
L 450.585861 401.672112 
" clip-path="url(#pfc3a3ed2a2)" style="fill: none; stroke: #4c1d4b; stroke-width: 1.5; stroke-linecap: round"/>
   </g>
   <g id="line2d_24">
    <path d="M 141.785659 401.672114 
L 206.020527 401.566355 
L 227.432149 401.329703 
L 239.667362 401.012484 
L 245.784969 400.68394 
L 250.373173 400.272896 
L 254.961378 399.606661 
L 258.020182 398.921071 
L 261.078985 397.912482 
L 262.608386 397.229868 
L 264.137788 396.384224 
L 265.66719 395.330942 
L 267.196591 394.013878 
L 268.725993 392.363343 
L 270.255394 390.294274 
L 271.784796 387.70488 
L 273.314198 384.476183 
L 274.843599 380.472932 
L 276.373001 375.54645 
L 277.902402 369.539942 
L 279.431804 362.296711 
L 280.961206 353.671511 
L 282.490607 343.544929 
L 284.020009 331.840245 
L 285.549411 318.541684 
L 287.078812 303.712459 
L 290.137615 270.199589 
L 296.255222 198.813309 
L 297.784623 183.37333 
L 299.314025 170.188576 
L 300.843427 159.849571 
L 302.372828 152.844115 
L 303.90223 149.518595 
L 305.431631 150.049318 
L 306.961033 154.427191 
L 308.490435 162.457601 
L 310.019836 173.775582 
L 311.549238 187.874568 
L 313.07864 204.145481 
L 316.137443 240.52634 
L 319.196246 277.707182 
L 322.255049 311.495017 
L 323.784451 326.26177 
L 325.313852 339.379653 
L 326.843254 350.801995 
L 328.372656 360.563858 
L 329.902057 368.762608 
L 331.431459 375.538292 
L 332.96086 381.055554 
L 334.490262 385.488298 
L 336.019664 389.007686 
L 337.549065 391.773601 
L 339.078467 393.929322 
L 340.607868 395.598894 
L 342.13727 396.886605 
L 343.666672 397.877937 
L 345.196073 398.641434 
L 346.725475 399.231026 
L 349.784278 400.045713 
L 352.843081 400.550148 
L 357.431286 400.992174 
L 363.548893 401.296221 
L 372.725302 401.506153 
L 389.54872 401.639963 
L 432.371965 401.671814 
L 446.13658 401.672131 
L 446.13658 401.672131 
" clip-path="url(#pfc3a3ed2a2)" style="fill: none; stroke: #251433; stroke-width: 1.5; stroke-linecap: round"/>
   </g>
   <g id="patch_3">
    <path d="M 81.658594 401.672147 
L 81.658594 135.205031 
" style="fill: none; stroke: #cccccc; stroke-width: 1.875; stroke-linejoin: miter; stroke-linecap: square"/>
   </g>
   <g id="patch_4">
    <path d="M 81.658594 401.672147 
L 507.278594 401.672147 
" style="fill: none; stroke: #cccccc; stroke-width: 1.875; stroke-linejoin: miter; stroke-linecap: square"/>
   </g>
   <g id="text_10">
    <!-- income_deciles = 1stD -->
    <g style="fill: #262626" transform="translate(203.676875 129.205031)scale(0.18 -0.18)">
     <defs>
      <path id="ArialMT-63" d="M 2588 1216 
L 3141 1144 
Q 3050 572 2676 248 
Q 2303 -75 1759 -75 
Q 1078 -75 664 370 
Q 250 816 250 1647 
Q 250 2184 428 2587 
Q 606 2991 970 3192 
Q 1334 3394 1763 3394 
Q 2303 3394 2647 3120 
Q 2991 2847 3088 2344 
L 2541 2259 
Q 2463 2594 2264 2762 
Q 2066 2931 1784 2931 
Q 1359 2931 1093 2626 
Q 828 2322 828 1663 
Q 828 994 1084 691 
Q 1341 388 1753 388 
Q 2084 388 2306 591 
Q 2528 794 2588 1216 
z
" transform="scale(0.015625)"/>
      <path id="ArialMT-6f" d="M 213 1659 
Q 213 2581 725 3025 
Q 1153 3394 1769 3394 
Q 2453 3394 2887 2945 
Q 3322 2497 3322 1706 
Q 3322 1066 3130 698 
Q 2938 331 2570 128 
Q 2203 -75 1769 -75 
Q 1072 -75 642 372 
Q 213 819 213 1659 
z
M 791 1659 
Q 791 1022 1069 705 
Q 1347 388 1769 388 
Q 2188 388 2466 706 
Q 2744 1025 2744 1678 
Q 2744 2294 2464 2611 
Q 2184 2928 1769 2928 
Q 1347 2928 1069 2612 
Q 791 2297 791 1659 
z
" transform="scale(0.015625)"/>
      <path id="ArialMT-6d" d="M 422 0 
L 422 3319 
L 925 3319 
L 925 2853 
Q 1081 3097 1340 3245 
Q 1600 3394 1931 3394 
Q 2300 3394 2536 3241 
Q 2772 3088 2869 2813 
Q 3263 3394 3894 3394 
Q 4388 3394 4653 3120 
Q 4919 2847 4919 2278 
L 4919 0 
L 4359 0 
L 4359 2091 
Q 4359 2428 4304 2576 
Q 4250 2725 4106 2815 
Q 3963 2906 3769 2906 
Q 3419 2906 3187 2673 
Q 2956 2441 2956 1928 
L 2956 0 
L 2394 0 
L 2394 2156 
Q 2394 2531 2256 2718 
Q 2119 2906 1806 2906 
Q 1569 2906 1367 2781 
Q 1166 2656 1075 2415 
Q 984 2175 984 1722 
L 984 0 
L 422 0 
z
" transform="scale(0.015625)"/>
      <path id="ArialMT-5f" d="M -97 -1272 
L -97 -866 
L 3631 -866 
L 3631 -1272 
L -97 -1272 
z
" transform="scale(0.015625)"/>
      <path id="ArialMT-64" d="M 2575 0 
L 2575 419 
Q 2259 -75 1647 -75 
Q 1250 -75 917 144 
Q 584 363 401 755 
Q 219 1147 219 1656 
Q 219 2153 384 2558 
Q 550 2963 881 3178 
Q 1213 3394 1622 3394 
Q 1922 3394 2156 3267 
Q 2391 3141 2538 2938 
L 2538 4581 
L 3097 4581 
L 3097 0 
L 2575 0 
z
M 797 1656 
Q 797 1019 1065 703 
Q 1334 388 1700 388 
Q 2069 388 2326 689 
Q 2584 991 2584 1609 
Q 2584 2291 2321 2609 
Q 2059 2928 1675 2928 
Q 1300 2928 1048 2622 
Q 797 2316 797 1656 
z
" transform="scale(0.015625)"/>
      <path id="ArialMT-6c" d="M 409 0 
L 409 4581 
L 972 4581 
L 972 0 
L 409 0 
z
" transform="scale(0.015625)"/>
      <path id="ArialMT-20" transform="scale(0.015625)"/>
      <path id="ArialMT-3d" d="M 3381 2694 
L 356 2694 
L 356 3219 
L 3381 3219 
L 3381 2694 
z
M 3381 1303 
L 356 1303 
L 356 1828 
L 3381 1828 
L 3381 1303 
z
" transform="scale(0.015625)"/>
     </defs>
     <use xlink:href="#ArialMT-69"/>
     <use xlink:href="#ArialMT-6e" x="22.216797"/>
     <use xlink:href="#ArialMT-63" x="77.832031"/>
     <use xlink:href="#ArialMT-6f" x="127.832031"/>
     <use xlink:href="#ArialMT-6d" x="183.447266"/>
     <use xlink:href="#ArialMT-65" x="266.748047"/>
     <use xlink:href="#ArialMT-5f" x="322.363281"/>
     <use xlink:href="#ArialMT-64" x="377.978516"/>
     <use xlink:href="#ArialMT-65" x="433.59375"/>
     <use xlink:href="#ArialMT-63" x="489.208984"/>
     <use xlink:href="#ArialMT-69" x="539.208984"/>
     <use xlink:href="#ArialMT-6c" x="561.425781"/>
     <use xlink:href="#ArialMT-65" x="583.642578"/>
     <use xlink:href="#ArialMT-73" x="639.257812"/>
     <use xlink:href="#ArialMT-20" x="689.257812"/>
     <use xlink:href="#ArialMT-3d" x="717.041016"/>
     <use xlink:href="#ArialMT-20" x="775.439453"/>
     <use xlink:href="#ArialMT-31" x="803.222656"/>
     <use xlink:href="#ArialMT-73" x="858.837891"/>
     <use xlink:href="#ArialMT-74" x="908.837891"/>
     <use xlink:href="#ArialMT-44" x="936.621094"/>
    </g>
   </g>
  </g>
  <g id="axes_2">
   <g id="patch_5">
    <path d="M 81.658594 713.999406 
L 507.278594 713.999406 
L 507.278594 447.532291 
L 81.658594 447.532291 
z
" style="fill: #ffffff"/>
   </g>
   <g id="matplotlib.axis_3">
    <g id="xtick_8">
     <g id="line2d_25">
      <path d="M 133.225768 713.999406 
L 133.225768 447.532291 
" clip-path="url(#p063b65786f)" style="fill: none; stroke: #cccccc; stroke-width: 1.5; stroke-linecap: round"/>
     </g>
     <g id="text_11">
      <!-- −150 -->
      <g style="fill: #262626" transform="translate(114.643932 738.309797)scale(0.165 -0.165)">
       <defs>
        <path id="ArialMT-2212" d="M 3381 1997 
L 356 1997 
L 356 2522 
L 3381 2522 
L 3381 1997 
z
" transform="scale(0.015625)"/>
       </defs>
       <use xlink:href="#ArialMT-2212"/>
       <use xlink:href="#ArialMT-31" x="58.398438"/>
       <use xlink:href="#ArialMT-35" x="114.013672"/>
       <use xlink:href="#ArialMT-30" x="169.628906"/>
      </g>
     </g>
    </g>
    <g id="xtick_9">
     <g id="line2d_26">
      <path d="M 190.92754 713.999406 
L 190.92754 447.532291 
" clip-path="url(#p063b65786f)" style="fill: none; stroke: #cccccc; stroke-width: 1.5; stroke-linecap: round"/>
     </g>
     <g id="text_12">
      <!-- −100 -->
      <g style="fill: #262626" transform="translate(172.345704 738.309797)scale(0.165 -0.165)">
       <use xlink:href="#ArialMT-2212"/>
       <use xlink:href="#ArialMT-31" x="58.398438"/>
       <use xlink:href="#ArialMT-30" x="114.013672"/>
       <use xlink:href="#ArialMT-30" x="169.628906"/>
      </g>
     </g>
    </g>
    <g id="xtick_10">
     <g id="line2d_27">
      <path d="M 248.629312 713.999406 
L 248.629312 447.532291 
" clip-path="url(#p063b65786f)" style="fill: none; stroke: #cccccc; stroke-width: 1.5; stroke-linecap: round"/>
     </g>
     <g id="text_13">
      <!-- −50 -->
      <g style="fill: #262626" transform="translate(234.63525 738.309797)scale(0.165 -0.165)">
       <use xlink:href="#ArialMT-2212"/>
       <use xlink:href="#ArialMT-35" x="58.398438"/>
       <use xlink:href="#ArialMT-30" x="114.013672"/>
      </g>
     </g>
    </g>
    <g id="xtick_11">
     <g id="line2d_28">
      <path d="M 306.331085 713.999406 
L 306.331085 447.532291 
" clip-path="url(#p063b65786f)" style="fill: none; stroke: #cccccc; stroke-width: 1.5; stroke-linecap: round"/>
     </g>
     <g id="text_14">
      <!-- 0 -->
      <g style="fill: #262626" transform="translate(301.743311 738.309797)scale(0.165 -0.165)">
       <use xlink:href="#ArialMT-30"/>
      </g>
     </g>
    </g>
    <g id="xtick_12">
     <g id="line2d_29">
      <path d="M 364.032857 713.999406 
L 364.032857 447.532291 
" clip-path="url(#p063b65786f)" style="fill: none; stroke: #cccccc; stroke-width: 1.5; stroke-linecap: round"/>
     </g>
     <g id="text_15">
      <!-- 50 -->
      <g style="fill: #262626" transform="translate(354.85731 738.309797)scale(0.165 -0.165)">
       <use xlink:href="#ArialMT-35"/>
       <use xlink:href="#ArialMT-30" x="55.615234"/>
      </g>
     </g>
    </g>
    <g id="xtick_13">
     <g id="line2d_30">
      <path d="M 421.734629 713.999406 
L 421.734629 447.532291 
" clip-path="url(#p063b65786f)" style="fill: none; stroke: #cccccc; stroke-width: 1.5; stroke-linecap: round"/>
     </g>
     <g id="text_16">
      <!-- 100 -->
      <g style="fill: #262626" transform="translate(407.971309 738.309797)scale(0.165 -0.165)">
       <use xlink:href="#ArialMT-31"/>
       <use xlink:href="#ArialMT-30" x="55.615234"/>
       <use xlink:href="#ArialMT-30" x="111.230469"/>
      </g>
     </g>
    </g>
    <g id="xtick_14">
     <g id="line2d_31">
      <path d="M 479.436402 713.999406 
L 479.436402 447.532291 
" clip-path="url(#p063b65786f)" style="fill: none; stroke: #cccccc; stroke-width: 1.5; stroke-linecap: round"/>
     </g>
     <g id="text_17">
      <!-- 150 -->
      <g style="fill: #262626" transform="translate(465.673081 738.309797)scale(0.165 -0.165)">
       <use xlink:href="#ArialMT-31"/>
       <use xlink:href="#ArialMT-35" x="55.615234"/>
       <use xlink:href="#ArialMT-30" x="111.230469"/>
      </g>
     </g>
    </g>
    <g id="text_18">
     <!-- Potential INEXUS ($) -->
     <g style="fill: #262626" transform="translate(209.9375 759.660109)scale(0.18 -0.18)">
      <defs>
       <path id="ArialMT-50" d="M 494 0 
L 494 4581 
L 2222 4581 
Q 2678 4581 2919 4538 
Q 3256 4481 3484 4323 
Q 3713 4166 3852 3881 
Q 3991 3597 3991 3256 
Q 3991 2672 3619 2267 
Q 3247 1863 2275 1863 
L 1100 1863 
L 1100 0 
L 494 0 
z
M 1100 2403 
L 2284 2403 
Q 2872 2403 3119 2622 
Q 3366 2841 3366 3238 
Q 3366 3525 3220 3729 
Q 3075 3934 2838 4000 
Q 2684 4041 2272 4041 
L 1100 4041 
L 1100 2403 
z
" transform="scale(0.015625)"/>
       <path id="ArialMT-61" d="M 2588 409 
Q 2275 144 1986 34 
Q 1697 -75 1366 -75 
Q 819 -75 525 192 
Q 231 459 231 875 
Q 231 1119 342 1320 
Q 453 1522 633 1644 
Q 813 1766 1038 1828 
Q 1203 1872 1538 1913 
Q 2219 1994 2541 2106 
Q 2544 2222 2544 2253 
Q 2544 2597 2384 2738 
Q 2169 2928 1744 2928 
Q 1347 2928 1158 2789 
Q 969 2650 878 2297 
L 328 2372 
Q 403 2725 575 2942 
Q 747 3159 1072 3276 
Q 1397 3394 1825 3394 
Q 2250 3394 2515 3294 
Q 2781 3194 2906 3042 
Q 3031 2891 3081 2659 
Q 3109 2516 3109 2141 
L 3109 1391 
Q 3109 606 3145 398 
Q 3181 191 3288 0 
L 2700 0 
Q 2613 175 2588 409 
z
M 2541 1666 
Q 2234 1541 1622 1453 
Q 1275 1403 1131 1340 
Q 988 1278 909 1158 
Q 831 1038 831 891 
Q 831 666 1001 516 
Q 1172 366 1500 366 
Q 1825 366 2078 508 
Q 2331 650 2450 897 
Q 2541 1088 2541 1459 
L 2541 1666 
z
" transform="scale(0.015625)"/>
       <path id="ArialMT-49" d="M 597 0 
L 597 4581 
L 1203 4581 
L 1203 0 
L 597 0 
z
" transform="scale(0.015625)"/>
       <path id="ArialMT-4e" d="M 488 0 
L 488 4581 
L 1109 4581 
L 3516 984 
L 3516 4581 
L 4097 4581 
L 4097 0 
L 3475 0 
L 1069 3600 
L 1069 0 
L 488 0 
z
" transform="scale(0.015625)"/>
       <path id="ArialMT-45" d="M 506 0 
L 506 4581 
L 3819 4581 
L 3819 4041 
L 1113 4041 
L 1113 2638 
L 3647 2638 
L 3647 2100 
L 1113 2100 
L 1113 541 
L 3925 541 
L 3925 0 
L 506 0 
z
" transform="scale(0.015625)"/>
       <path id="ArialMT-58" d="M 28 0 
L 1800 2388 
L 238 4581 
L 959 4581 
L 1791 3406 
Q 2050 3041 2159 2844 
Q 2313 3094 2522 3366 
L 3444 4581 
L 4103 4581 
L 2494 2422 
L 4228 0 
L 3478 0 
L 2325 1634 
Q 2228 1775 2125 1941 
Q 1972 1691 1906 1597 
L 756 0 
L 28 0 
z
" transform="scale(0.015625)"/>
       <path id="ArialMT-55" d="M 3500 4581 
L 4106 4581 
L 4106 1934 
Q 4106 1244 3950 837 
Q 3794 431 3386 176 
Q 2978 -78 2316 -78 
Q 1672 -78 1262 144 
Q 853 366 678 786 
Q 503 1206 503 1934 
L 503 4581 
L 1109 4581 
L 1109 1938 
Q 1109 1341 1220 1058 
Q 1331 775 1601 622 
Q 1872 469 2263 469 
Q 2931 469 3215 772 
Q 3500 1075 3500 1938 
L 3500 4581 
z
" transform="scale(0.015625)"/>
       <path id="ArialMT-53" d="M 288 1472 
L 859 1522 
Q 900 1178 1048 958 
Q 1197 738 1509 602 
Q 1822 466 2213 466 
Q 2559 466 2825 569 
Q 3091 672 3220 851 
Q 3350 1031 3350 1244 
Q 3350 1459 3225 1620 
Q 3100 1781 2813 1891 
Q 2628 1963 1997 2114 
Q 1366 2266 1113 2400 
Q 784 2572 623 2826 
Q 463 3081 463 3397 
Q 463 3744 659 4045 
Q 856 4347 1234 4503 
Q 1613 4659 2075 4659 
Q 2584 4659 2973 4495 
Q 3363 4331 3572 4012 
Q 3781 3694 3797 3291 
L 3216 3247 
Q 3169 3681 2898 3903 
Q 2628 4125 2100 4125 
Q 1550 4125 1298 3923 
Q 1047 3722 1047 3438 
Q 1047 3191 1225 3031 
Q 1400 2872 2139 2705 
Q 2878 2538 3153 2413 
Q 3553 2228 3743 1945 
Q 3934 1663 3934 1294 
Q 3934 928 3725 604 
Q 3516 281 3123 101 
Q 2731 -78 2241 -78 
Q 1619 -78 1198 103 
Q 778 284 539 648 
Q 300 1013 288 1472 
z
" transform="scale(0.015625)"/>
       <path id="ArialMT-28" d="M 1497 -1347 
Q 1031 -759 709 28 
Q 388 816 388 1659 
Q 388 2403 628 3084 
Q 909 3875 1497 4659 
L 1900 4659 
Q 1522 4009 1400 3731 
Q 1209 3300 1100 2831 
Q 966 2247 966 1656 
Q 966 153 1900 -1347 
L 1497 -1347 
z
" transform="scale(0.015625)"/>
       <path id="ArialMT-24" d="M 1594 -659 
L 1594 -97 
Q 1172 -44 908 92 
Q 644 228 451 531 
Q 259 834 228 1272 
L 794 1378 
Q 859 925 1025 713 
Q 1263 413 1594 378 
L 1594 2169 
Q 1247 2234 884 2438 
Q 616 2588 470 2853 
Q 325 3119 325 3456 
Q 325 4056 750 4428 
Q 1034 4678 1594 4734 
L 1594 5003 
L 1925 5003 
L 1925 4734 
Q 2416 4688 2703 4447 
Q 3072 4141 3147 3606 
L 2566 3519 
Q 2516 3850 2358 4026 
Q 2200 4203 1925 4259 
L 1925 2638 
Q 2350 2531 2488 2472 
Q 2750 2356 2915 2190 
Q 3081 2025 3170 1797 
Q 3259 1569 3259 1303 
Q 3259 719 2887 328 
Q 2516 -63 1925 -91 
L 1925 -659 
L 1594 -659 
z
M 1594 4266 
Q 1266 4216 1077 4003 
Q 888 3791 888 3500 
Q 888 3213 1048 3019 
Q 1209 2825 1594 2709 
L 1594 4266 
z
M 1925 378 
Q 2253 419 2467 662 
Q 2681 906 2681 1266 
Q 2681 1572 2529 1758 
Q 2378 1944 1925 2091 
L 1925 378 
z
" transform="scale(0.015625)"/>
       <path id="ArialMT-29" d="M 791 -1347 
L 388 -1347 
Q 1322 153 1322 1656 
Q 1322 2244 1188 2822 
Q 1081 3291 891 3722 
Q 769 4003 388 4659 
L 791 4659 
Q 1378 3875 1659 3084 
Q 1900 2403 1900 1659 
Q 1900 816 1576 28 
Q 1253 -759 791 -1347 
z
" transform="scale(0.015625)"/>
      </defs>
      <use xlink:href="#ArialMT-50"/>
      <use xlink:href="#ArialMT-6f" x="66.699219"/>
      <use xlink:href="#ArialMT-74" x="122.314453"/>
      <use xlink:href="#ArialMT-65" x="150.097656"/>
      <use xlink:href="#ArialMT-6e" x="205.712891"/>
      <use xlink:href="#ArialMT-74" x="261.328125"/>
      <use xlink:href="#ArialMT-69" x="289.111328"/>
      <use xlink:href="#ArialMT-61" x="311.328125"/>
      <use xlink:href="#ArialMT-6c" x="366.943359"/>
      <use xlink:href="#ArialMT-20" x="389.160156"/>
      <use xlink:href="#ArialMT-49" x="416.943359"/>
      <use xlink:href="#ArialMT-4e" x="444.726562"/>
      <use xlink:href="#ArialMT-45" x="516.943359"/>
      <use xlink:href="#ArialMT-58" x="583.642578"/>
      <use xlink:href="#ArialMT-55" x="650.341797"/>
      <use xlink:href="#ArialMT-53" x="722.558594"/>
      <use xlink:href="#ArialMT-20" x="789.257812"/>
      <use xlink:href="#ArialMT-28" x="817.041016"/>
      <use xlink:href="#ArialMT-24" x="850.341797"/>
      <use xlink:href="#ArialMT-29" x="905.957031"/>
     </g>
    </g>
   </g>
   <g id="matplotlib.axis_4">
    <g id="ytick_9">
     <g id="line2d_32">
      <path d="M 81.658594 713.999406 
L 507.278594 713.999406 
" clip-path="url(#p063b65786f)" style="fill: none; stroke: #cccccc; stroke-width: 1.5; stroke-linecap: round"/>
     </g>
     <g id="text_19">
      <!-- 0.000 -->
      <g style="fill: #262626" transform="translate(27.8725 719.904602)scale(0.165 -0.165)">
       <use xlink:href="#ArialMT-30"/>
       <use xlink:href="#ArialMT-2e" x="55.615234"/>
       <use xlink:href="#ArialMT-30" x="83.398438"/>
       <use xlink:href="#ArialMT-30" x="139.013672"/>
       <use xlink:href="#ArialMT-30" x="194.628906"/>
      </g>
     </g>
    </g>
    <g id="ytick_10">
     <g id="line2d_33">
      <path d="M 81.658594 678.889897 
L 507.278594 678.889897 
" clip-path="url(#p063b65786f)" style="fill: none; stroke: #cccccc; stroke-width: 1.5; stroke-linecap: round"/>
     </g>
     <g id="text_20">
      <!-- 0.005 -->
      <g style="fill: #262626" transform="translate(27.8725 684.795092)scale(0.165 -0.165)">
       <use xlink:href="#ArialMT-30"/>
       <use xlink:href="#ArialMT-2e" x="55.615234"/>
       <use xlink:href="#ArialMT-30" x="83.398438"/>
       <use xlink:href="#ArialMT-30" x="139.013672"/>
       <use xlink:href="#ArialMT-35" x="194.628906"/>
      </g>
     </g>
    </g>
    <g id="ytick_11">
     <g id="line2d_34">
      <path d="M 81.658594 643.780387 
L 507.278594 643.780387 
" clip-path="url(#p063b65786f)" style="fill: none; stroke: #cccccc; stroke-width: 1.5; stroke-linecap: round"/>
     </g>
     <g id="text_21">
      <!-- 0.010 -->
      <g style="fill: #262626" transform="translate(27.8725 649.685583)scale(0.165 -0.165)">
       <use xlink:href="#ArialMT-30"/>
       <use xlink:href="#ArialMT-2e" x="55.615234"/>
       <use xlink:href="#ArialMT-30" x="83.398438"/>
       <use xlink:href="#ArialMT-31" x="139.013672"/>
       <use xlink:href="#ArialMT-30" x="194.628906"/>
      </g>
     </g>
    </g>
    <g id="ytick_12">
     <g id="line2d_35">
      <path d="M 81.658594 608.670878 
L 507.278594 608.670878 
" clip-path="url(#p063b65786f)" style="fill: none; stroke: #cccccc; stroke-width: 1.5; stroke-linecap: round"/>
     </g>
     <g id="text_22">
      <!-- 0.015 -->
      <g style="fill: #262626" transform="translate(27.8725 614.576073)scale(0.165 -0.165)">
       <use xlink:href="#ArialMT-30"/>
       <use xlink:href="#ArialMT-2e" x="55.615234"/>
       <use xlink:href="#ArialMT-30" x="83.398438"/>
       <use xlink:href="#ArialMT-31" x="139.013672"/>
       <use xlink:href="#ArialMT-35" x="194.628906"/>
      </g>
     </g>
    </g>
    <g id="ytick_13">
     <g id="line2d_36">
      <path d="M 81.658594 573.561368 
L 507.278594 573.561368 
" clip-path="url(#p063b65786f)" style="fill: none; stroke: #cccccc; stroke-width: 1.5; stroke-linecap: round"/>
     </g>
     <g id="text_23">
      <!-- 0.020 -->
      <g style="fill: #262626" transform="translate(27.8725 579.466564)scale(0.165 -0.165)">
       <use xlink:href="#ArialMT-30"/>
       <use xlink:href="#ArialMT-2e" x="55.615234"/>
       <use xlink:href="#ArialMT-30" x="83.398438"/>
       <use xlink:href="#ArialMT-32" x="139.013672"/>
       <use xlink:href="#ArialMT-30" x="194.628906"/>
      </g>
     </g>
    </g>
    <g id="ytick_14">
     <g id="line2d_37">
      <path d="M 81.658594 538.451859 
L 507.278594 538.451859 
" clip-path="url(#p063b65786f)" style="fill: none; stroke: #cccccc; stroke-width: 1.5; stroke-linecap: round"/>
     </g>
     <g id="text_24">
      <!-- 0.025 -->
      <g style="fill: #262626" transform="translate(27.8725 544.357054)scale(0.165 -0.165)">
       <use xlink:href="#ArialMT-30"/>
       <use xlink:href="#ArialMT-2e" x="55.615234"/>
       <use xlink:href="#ArialMT-30" x="83.398438"/>
       <use xlink:href="#ArialMT-32" x="139.013672"/>
       <use xlink:href="#ArialMT-35" x="194.628906"/>
      </g>
     </g>
    </g>
    <g id="ytick_15">
     <g id="line2d_38">
      <path d="M 81.658594 503.34235 
L 507.278594 503.34235 
" clip-path="url(#p063b65786f)" style="fill: none; stroke: #cccccc; stroke-width: 1.5; stroke-linecap: round"/>
     </g>
     <g id="text_25">
      <!-- 0.030 -->
      <g style="fill: #262626" transform="translate(27.8725 509.247545)scale(0.165 -0.165)">
       <use xlink:href="#ArialMT-30"/>
       <use xlink:href="#ArialMT-2e" x="55.615234"/>
       <use xlink:href="#ArialMT-30" x="83.398438"/>
       <use xlink:href="#ArialMT-33" x="139.013672"/>
       <use xlink:href="#ArialMT-30" x="194.628906"/>
      </g>
     </g>
    </g>
    <g id="ytick_16">
     <g id="line2d_39">
      <path d="M 81.658594 468.23284 
L 507.278594 468.23284 
" clip-path="url(#p063b65786f)" style="fill: none; stroke: #cccccc; stroke-width: 1.5; stroke-linecap: round"/>
     </g>
     <g id="text_26">
      <!-- 0.035 -->
      <g style="fill: #262626" transform="translate(27.8725 474.138035)scale(0.165 -0.165)">
       <use xlink:href="#ArialMT-30"/>
       <use xlink:href="#ArialMT-2e" x="55.615234"/>
       <use xlink:href="#ArialMT-30" x="83.398438"/>
       <use xlink:href="#ArialMT-33" x="139.013672"/>
       <use xlink:href="#ArialMT-35" x="194.628906"/>
      </g>
     </g>
    </g>
    <g id="text_27">
     <!-- Density -->
     <g style="fill: #262626" transform="translate(20.084063 610.775223)rotate(-90)scale(0.18 -0.18)">
      <use xlink:href="#ArialMT-44"/>
      <use xlink:href="#ArialMT-65" x="72.216797"/>
      <use xlink:href="#ArialMT-6e" x="127.832031"/>
      <use xlink:href="#ArialMT-73" x="183.447266"/>
      <use xlink:href="#ArialMT-69" x="233.447266"/>
      <use xlink:href="#ArialMT-74" x="255.664062"/>
      <use xlink:href="#ArialMT-79" x="283.447266"/>
     </g>
    </g>
   </g>
   <g id="line2d_40">
    <path d="M 101.004957 713.99913 
L 157.391344 713.898109 
L 178.779284 713.643197 
L 192.389791 713.289377 
L 202.111581 712.857244 
L 209.889014 712.323145 
L 215.722088 711.743554 
L 221.555163 710.922372 
L 225.443879 710.178709 
L 229.332596 709.215669 
L 233.221312 707.961007 
L 237.110028 706.322998 
L 239.054386 705.325921 
L 240.998745 704.189287 
L 242.943103 702.896035 
L 244.887461 701.428166 
L 246.831819 699.767013 
L 248.776177 697.893585 
L 250.720535 695.789015 
L 252.664893 693.435099 
L 254.609252 690.814928 
L 256.55361 687.913608 
L 258.497968 684.719061 
L 260.442326 681.222874 
L 262.386684 677.421186 
L 264.331042 673.315571 
L 266.275401 668.913885 
L 270.164117 659.289607 
L 274.052833 648.76241 
L 285.718982 615.837814 
L 287.66334 610.882512 
L 289.607698 606.289031 
L 291.552057 602.13551 
L 293.496415 598.495577 
L 295.440773 595.436149 
L 297.385131 593.015366 
L 299.329489 591.280726 
L 301.273847 590.267517 
L 303.218205 589.997627 
L 305.162564 590.478765 
L 307.106922 591.704157 
L 309.05128 593.652717 
L 310.995638 596.28969 
L 312.939996 599.567749 
L 314.884354 603.428473 
L 316.828713 607.804166 
L 318.773071 612.619918 
L 322.661787 623.249266 
L 328.494861 640.454416 
L 332.383578 651.869768 
L 336.272294 662.650142 
L 340.16101 672.435556 
L 342.105369 676.881291 
L 344.049727 681.006645 
L 345.994085 684.80445 
L 347.938443 688.274302 
L 349.882801 691.42164 
L 351.827159 694.256791 
L 353.771517 696.793994 
L 355.715876 699.050462 
L 357.660234 701.045499 
L 359.604592 702.799702 
L 361.54895 704.334255 
L 363.493308 705.670338 
L 365.437666 706.828633 
L 367.382025 707.828948 
L 369.326383 708.689929 
L 373.215099 710.061594 
L 377.103815 711.064114 
L 380.992532 711.79412 
L 384.881248 712.326212 
L 390.714322 712.871108 
L 398.491755 713.308729 
L 408.213546 713.612034 
L 423.768411 713.847105 
L 449.045067 713.975827 
L 487.93223 713.999154 
L 487.93223 713.999154 
" clip-path="url(#p063b65786f)" style="fill: none; stroke: #f7c6a6; stroke-width: 1.5; stroke-linecap: round"/>
   </g>
   <g id="line2d_41">
    <path d="M 103.057354 713.999106 
L 158.897783 713.891855 
L 180.078636 713.636997 
L 193.55736 713.287209 
L 203.185021 712.859921 
L 210.887149 712.333399 
L 216.663745 711.764118 
L 222.440341 710.959382 
L 226.291405 710.230811 
L 230.142469 709.286131 
L 233.993533 708.052229 
L 237.844598 706.43529 
L 239.77013 705.447749 
L 241.695662 704.31913 
L 243.621194 703.03154 
L 245.546726 701.565991 
L 247.472258 699.902654 
L 249.39779 698.021222 
L 251.323322 695.901359 
L 253.248854 693.52327 
L 255.174386 690.86837 
L 257.099918 687.920052 
L 259.02545 684.664553 
L 260.950982 681.091879 
L 262.876514 677.196781 
L 264.802046 672.979734 
L 266.727578 668.447885 
L 270.578642 658.506794 
L 274.429707 647.593296 
L 285.982899 613.323002 
L 287.908431 608.165396 
L 289.833963 603.39104 
L 291.759495 599.08375 
L 293.685027 595.32238 
L 295.610559 592.178394 
L 297.536091 589.713586 
L 299.461623 587.978037 
L 301.387155 587.008407 
L 303.312687 586.826652 
L 305.238219 587.43922 
L 307.163751 588.836772 
L 309.089284 590.994437 
L 311.014816 593.872602 
L 312.940348 597.418191 
L 314.86588 601.566377 
L 316.791412 606.242649 
L 318.716944 611.365131 
L 322.568008 622.599352 
L 334.1212 658.084525 
L 337.972264 668.637589 
L 339.897796 673.463424 
L 341.823328 677.957608 
L 343.748861 682.107808 
L 345.674393 685.909602 
L 347.599925 689.365522 
L 349.525457 692.484016 
L 351.450989 695.278372 
L 353.376521 697.76565 
L 355.302053 699.965671 
L 357.227585 701.900077 
L 359.153117 703.591508 
L 361.078649 705.062873 
L 363.004181 706.336762 
L 364.929713 707.434968 
L 366.855245 708.378127 
L 370.706309 709.874633 
L 374.557373 710.960815 
L 378.408438 711.744973 
L 382.259502 712.310801 
L 388.036098 712.882174 
L 395.738226 713.331144 
L 405.365886 713.633218 
L 420.770143 713.858543 
L 447.727591 713.980976 
L 486.238233 713.999223 
L 486.238233 713.999223 
" clip-path="url(#p063b65786f)" style="fill: none; stroke: #f69c73; stroke-width: 1.5; stroke-linecap: round"/>
   </g>
   <g id="line2d_42">
    <path d="M 103.120047 713.999142 
L 158.924491 713.898215 
L 180.091693 713.658331 
L 193.561731 713.325305 
L 203.183187 712.909123 
L 210.880352 712.387689 
L 216.653225 711.819824 
L 222.426099 711.016157 
L 226.274681 710.289686 
L 230.123264 709.349702 
L 233.971846 708.12445 
L 237.820428 706.521245 
L 239.744719 705.542678 
L 241.669011 704.424434 
L 243.593302 703.148521 
L 245.517593 701.695759 
L 247.441884 700.04603 
L 249.366175 698.17862 
L 251.290466 696.072677 
L 253.214758 693.70777 
L 255.139049 691.064568 
L 257.06334 688.125625 
L 258.987631 684.87626 
L 260.911922 681.305519 
L 262.836213 677.407176 
L 264.760505 673.180766 
L 266.684796 668.632575 
L 270.533378 658.635135 
L 274.38196 647.631364 
L 285.927707 612.92615 
L 287.851999 607.686963 
L 289.77629 602.834018 
L 291.700581 598.453525 
L 293.624872 594.626683 
L 295.549163 591.427148 
L 297.473454 588.918651 
L 299.397746 587.152861 
L 301.322037 586.167602 
L 303.246328 585.985508 
L 305.170619 586.613185 
L 307.09491 588.040916 
L 309.019201 590.242942 
L 310.943493 593.178282 
L 312.867784 596.792081 
L 314.792075 601.017407 
L 316.716366 605.777407 
L 318.640657 610.987741 
L 322.48924 622.400163 
L 334.034987 658.297232 
L 337.883569 668.917487 
L 339.80786 673.763221 
L 341.732151 678.269001 
L 343.656442 682.423356 
L 345.580734 686.222844 
L 347.505025 689.671046 
L 349.429316 692.777475 
L 351.353607 695.55645 
L 353.277898 698.026004 
L 355.202189 700.206834 
L 357.126481 702.121353 
L 359.050772 703.792847 
L 360.975063 705.24475 
L 362.899354 706.500056 
L 364.823645 707.580851 
L 366.747936 708.507961 
L 370.596519 709.976809 
L 374.445101 711.041193 
L 378.293683 711.808775 
L 382.142266 712.362284 
L 387.915139 712.920979 
L 395.612304 713.359622 
L 405.23376 713.653766 
L 420.628089 713.87065 
L 447.568165 713.984006 
L 486.053989 713.999279 
L 486.053989 713.999279 
" clip-path="url(#p063b65786f)" style="fill: none; stroke: #f3714d; stroke-width: 1.5; stroke-linecap: round"/>
   </g>
   <g id="line2d_43">
    <path d="M 103.973635 713.999203 
L 161.530982 713.893448 
L 180.716764 713.655799 
L 194.146812 713.297764 
L 203.739703 712.861445 
L 211.414016 712.327808 
L 217.169751 711.753834 
L 222.925486 710.944855 
L 226.762642 710.213281 
L 230.599799 709.264741 
L 234.436955 708.024949 
L 238.274112 706.398186 
L 240.19269 705.4034 
L 242.111268 704.26538 
L 244.029846 702.96569 
L 245.948424 701.484715 
L 247.867003 699.801934 
L 249.785581 697.896278 
L 251.704159 695.746609 
L 253.622737 693.332305 
L 255.541316 690.633961 
L 257.459894 687.634203 
L 259.378472 684.31859 
L 261.29705 680.676603 
L 263.215629 676.70267 
L 265.134207 672.397206 
L 267.052785 667.767622 
L 270.889942 657.606067 
L 274.727098 646.448057 
L 286.238567 611.504602 
L 288.157146 606.278941 
L 290.075724 601.458397 
L 291.994302 597.129652 
L 293.91288 593.373854 
L 295.831459 590.264058 
L 297.750037 587.862837 
L 299.668615 586.220161 
L 301.587193 585.37166 
L 303.505772 585.337341 
L 305.42435 586.120832 
L 307.342928 587.709197 
L 309.261506 590.07332 
L 311.180085 593.168853 
L 313.098663 596.937681 
L 315.017241 601.309827 
L 316.935819 606.205719 
L 318.854398 611.538699 
L 322.691554 623.149818 
L 332.284445 653.541393 
L 336.121602 664.67442 
L 338.04018 669.809523 
L 339.958758 674.616246 
L 341.877336 679.076102 
L 343.795915 683.179453 
L 345.714493 686.924581 
L 347.633071 690.316639 
L 349.551649 693.366526 
L 351.470228 696.089752 
L 353.388806 698.505325 
L 355.307384 700.634716 
L 357.225962 702.500909 
L 359.144541 704.127583 
L 361.063119 705.538401 
L 362.981697 706.756448 
L 364.900275 707.803786 
L 366.818853 708.701125 
L 370.65601 710.120685 
L 374.493166 711.14774 
L 378.330323 711.887677 
L 382.167479 712.421019 
L 387.923214 712.959359 
L 395.597527 713.38204 
L 405.190418 713.664993 
L 420.539044 713.872706 
L 447.399139 713.983109 
L 485.770704 713.999256 
L 485.770704 713.999256 
" clip-path="url(#p063b65786f)" style="fill: none; stroke: #e83f3f; stroke-width: 1.5; stroke-linecap: round"/>
   </g>
   <g id="line2d_44">
    <path d="M 103.749578 713.999174 
L 161.36373 713.888136 
L 180.568447 713.648107 
L 194.011748 713.295014 
L 203.614107 712.870819 
L 211.295994 712.354106 
L 217.057409 711.796956 
L 222.818824 711.007437 
L 226.659767 710.289622 
L 230.500711 709.354867 
L 234.341654 708.128285 
L 238.182598 706.51344 
L 240.103069 705.523858 
L 242.023541 704.390363 
L 243.944013 703.09436 
L 245.864484 701.616053 
L 247.784956 699.934708 
L 249.705428 698.02902 
L 251.6259 695.877583 
L 253.546371 693.459487 
L 255.466843 690.755019 
L 257.387315 687.746493 
L 259.307786 684.41916 
L 261.228258 680.76222 
L 263.14873 676.76986 
L 265.069201 672.442328 
L 266.989673 667.786951 
L 270.830617 657.562916 
L 274.67156 646.329833 
L 286.19439 611.144976 
L 288.114862 605.888457 
L 290.035334 601.04311 
L 291.955805 596.696772 
L 293.876277 592.931579 
L 295.796749 589.82136 
L 297.71722 587.429196 
L 299.637692 585.805266 
L 301.558164 584.985085 
L 303.478635 584.988214 
L 305.399107 585.817517 
L 307.319579 587.458996 
L 309.240051 589.882218 
L 311.160522 593.041314 
L 313.080994 596.876507 
L 315.001466 601.316086 
L 316.921937 606.278743 
L 318.842409 611.676155 
L 322.683352 623.403178 
L 332.285711 653.963562 
L 336.126654 665.109323 
L 338.047126 670.240309 
L 339.967598 675.036901 
L 341.88807 679.481469 
L 343.808541 683.565287 
L 345.729013 687.287559 
L 347.649485 690.654339 
L 349.569956 693.677376 
L 351.490428 696.372953 
L 353.4109 698.760762 
L 355.331371 700.862859 
L 357.251843 702.702708 
L 359.172315 704.304364 
L 361.092787 705.691772 
L 363.013258 706.888207 
L 364.93373 707.915842 
L 366.854202 708.795432 
L 370.695145 710.185266 
L 374.536088 711.189761 
L 378.377032 711.913344 
L 382.217975 712.435432 
L 387.97939 712.964058 
L 395.661277 713.382261 
L 405.263636 713.665646 
L 420.627409 713.875391 
L 447.514013 713.984176 
L 485.923447 713.999269 
L 485.923447 713.999269 
" clip-path="url(#p063b65786f)" style="fill: none; stroke: #ca1a50; stroke-width: 1.5; stroke-linecap: round"/>
   </g>
   <g id="line2d_45">
    <path d="M 104.463031 713.999171 
L 161.825054 713.887204 
L 182.857796 713.610739 
L 196.242268 713.229761 
L 205.802605 712.766172 
L 213.450874 712.191323 
L 219.187077 711.562552 
L 224.923279 710.662551 
L 228.747414 709.839738 
L 232.571549 708.765764 
L 236.395683 707.356026 
L 238.307751 706.492607 
L 240.219818 705.50307 
L 242.131886 704.370231 
L 244.043953 703.07551 
L 245.956021 701.599093 
L 247.868088 699.920196 
L 249.780155 698.017423 
L 251.692223 695.869237 
L 253.60429 693.454548 
L 255.516358 690.75342 
L 257.428425 687.747893 
L 259.340493 684.422904 
L 261.25256 680.767294 
L 263.164627 676.77486 
L 265.076695 672.445431 
L 266.988762 667.785906 
L 270.812897 657.545105 
L 274.637032 646.281395 
L 286.109436 610.906646 
L 288.021504 605.605504 
L 289.933571 600.713076 
L 291.845639 596.317974 
L 293.757706 592.503222 
L 295.669774 589.343618 
L 297.581841 586.903269 
L 299.493908 585.233403 
L 301.405976 584.37057 
L 303.318043 584.335316 
L 305.230111 585.131402 
L 307.142178 586.745604 
L 309.054246 589.148118 
L 310.966313 592.293532 
L 312.87838 596.122335 
L 314.790448 600.56289 
L 316.702515 605.533769 
L 318.614583 610.946339 
L 322.438717 622.722435 
L 331.999055 653.479006 
L 335.823189 664.714125 
L 337.735257 669.888802 
L 339.647324 674.727541 
L 341.559392 679.212179 
L 343.471459 683.333563 
L 345.383527 687.090586 
L 347.295594 690.489093 
L 349.207661 693.540724 
L 351.119729 696.261739 
L 353.031796 698.671886 
L 354.943864 700.793333 
L 356.855931 702.649712 
L 358.767999 704.265277 
L 360.680066 705.664198 
L 362.592133 706.869988 
L 364.504201 707.905059 
L 366.416268 708.790406 
L 370.240403 710.187611 
L 374.064538 711.195295 
L 377.888673 711.919254 
L 381.712808 712.439978 
L 387.44901 712.965032 
L 395.09728 713.378342 
L 406.569684 713.696262 
L 423.778291 713.899009 
L 454.37137 713.991975 
L 484.964448 713.99927 
L 484.964448 713.99927 
" clip-path="url(#p063b65786f)" style="fill: none; stroke: #a11a5b; stroke-width: 1.5; stroke-linecap: round"/>
   </g>
   <g id="line2d_46">
    <path d="M 103.98626 713.999141 
L 159.529061 713.89514 
L 180.59702 713.638735 
L 194.003903 713.290911 
L 203.580248 712.872987 
L 211.241324 712.360908 
L 216.987131 711.806559 
L 222.732937 711.01985 
L 226.563475 710.304671 
L 230.394013 709.374015 
L 234.224551 708.153937 
L 238.055089 706.549057 
L 239.970358 705.566085 
L 241.885627 704.440448 
L 243.800896 703.15365 
L 245.716165 701.68597 
L 247.631434 700.016716 
L 249.546703 698.12458 
L 251.461972 695.988105 
L 253.377241 693.586266 
L 255.29251 690.899168 
L 257.207779 687.908864 
L 259.123048 684.600264 
L 261.038317 680.962136 
L 262.953586 676.988154 
L 264.868855 672.677963 
L 266.784124 668.038217 
L 270.614662 657.83731 
L 274.4452 646.611203 
L 285.936814 611.295677 
L 287.852083 605.991649 
L 289.767352 601.091841 
L 291.682621 596.684781 
L 293.59789 592.853543 
L 295.513159 589.673116 
L 297.428428 587.207936 
L 299.343697 585.509688 
L 301.258966 584.615497 
L 303.174235 584.546578 
L 305.089504 585.307432 
L 307.004773 586.885623 
L 308.920042 589.252138 
L 310.835311 592.362344 
L 312.75058 596.157461 
L 314.665849 600.566504 
L 316.581118 605.508603 
L 318.496387 610.895571 
L 322.326925 622.631149 
L 331.90327 653.349418 
L 335.733808 664.589622 
L 337.649077 669.769721 
L 339.564346 674.615251 
L 341.479615 679.107666 
L 343.394884 683.237456 
L 345.310153 687.003201 
L 347.225422 690.410481 
L 349.140691 693.470716 
L 351.05596 696.199999 
L 352.971229 698.617952 
L 354.886498 700.746661 
L 356.801767 702.609712 
L 358.717036 704.231341 
L 360.632305 705.635723 
L 362.547574 706.846394 
L 364.462843 707.885803 
L 366.378112 708.774983 
L 370.20865 710.178527 
L 374.039188 711.191064 
L 377.869726 711.918682 
L 381.700264 712.442096 
L 387.446071 712.969721 
L 395.107147 713.384336 
L 404.683492 713.663712 
L 420.005644 713.872223 
L 446.81941 713.983954 
L 485.12479 713.999281 
L 485.12479 713.999281 
" clip-path="url(#p063b65786f)" style="fill: none; stroke: #751f58; stroke-width: 1.5; stroke-linecap: round"/>
   </g>
   <g id="line2d_47">
    <path d="M 103.699741 713.999145 
L 159.194338 713.897598 
L 180.244013 713.640125 
L 193.639261 713.287075 
L 203.207295 712.864287 
L 210.861722 712.349759 
L 216.602543 711.796643 
L 222.343363 711.016893 
L 226.170577 710.311736 
L 229.99779 709.397568 
L 233.825004 708.202841 
L 237.652218 706.635047 
L 239.565824 705.676024 
L 241.479431 704.578504 
L 243.393038 703.324416 
L 245.306645 701.894446 
L 247.220252 700.268274 
L 249.133858 698.424904 
L 251.047465 696.34311 
L 252.961072 694.001982 
L 254.874679 691.381599 
L 256.788286 688.463811 
L 258.701892 685.233119 
L 260.615499 681.677643 
L 262.529106 677.790148 
L 264.442713 673.56909 
L 266.35632 669.019643 
L 270.183533 658.995496 
L 274.010747 647.926303 
L 279.751567 630.190477 
L 283.578781 618.400108 
L 287.405995 607.411121 
L 289.319601 602.441766 
L 291.233208 597.941 
L 293.146815 593.992394 
L 295.060422 590.672149 
L 296.974029 588.046623 
L 298.887635 586.170106 
L 300.801242 585.082934 
L 302.714849 584.810056 
L 304.628456 585.360099 
L 306.542063 586.725007 
L 308.45567 588.880253 
L 310.369276 591.785624 
L 312.282883 595.386547 
L 314.19649 599.615882 
L 316.110097 604.39611 
L 318.023704 609.641799 
L 321.850917 621.164197 
L 333.332558 657.562311 
L 337.159772 668.353725 
L 339.073379 673.278737 
L 340.986985 677.858299 
L 342.900592 682.08029 
L 344.814199 685.940874 
L 346.727806 689.443459 
L 348.641413 692.597584 
L 350.555019 695.417765 
L 352.468626 697.922363 
L 354.382233 700.132507 
L 356.29584 702.071112 
L 358.209447 703.762008 
L 360.123053 705.229193 
L 362.03666 706.496219 
L 363.950267 707.585711 
L 365.863874 708.519001 
L 369.691088 709.994453 
L 373.518301 711.060276 
L 377.345515 711.826431 
L 381.172728 712.377211 
L 386.913549 712.931351 
L 394.567976 713.365034 
L 404.13601 713.655349 
L 419.444865 713.869664 
L 446.23536 713.983308 
L 484.507496 713.999266 
L 484.507496 713.999266 
" clip-path="url(#p063b65786f)" style="fill: none; stroke: #4c1d4b; stroke-width: 1.5; stroke-linecap: round"/>
   </g>
   <g id="line2d_48">
    <path d="M 104.386806 713.999134 
L 159.87544 713.893994 
L 180.922853 713.633159 
L 194.316661 713.271092 
L 203.883667 712.830105 
L 211.537272 712.287862 
L 217.277475 711.701791 
L 223.017679 710.873288 
L 226.844481 710.123348 
L 230.671283 709.151385 
L 234.498086 707.882635 
L 238.324888 706.221166 
L 240.238289 705.206904 
L 242.15169 704.048068 
L 244.065091 702.726313 
L 245.978493 701.222156 
L 247.891894 699.515238 
L 249.805295 697.584694 
L 251.718696 695.409626 
L 253.632097 692.969687 
L 255.545498 690.245787 
L 257.4589 687.220895 
L 259.372301 683.880948 
L 261.285702 680.215823 
L 263.199103 676.220363 
L 265.112504 671.895407 
L 267.025905 667.248787 
L 270.852708 657.062143 
L 274.67951 645.893398 
L 286.159917 611.019346 
L 288.073318 605.819782 
L 289.986719 601.028815 
L 291.900121 596.732688 
L 293.813522 593.012043 
L 295.726923 589.939379 
L 297.640324 587.576679 
L 299.553725 585.973308 
L 301.467126 585.164291 
L 303.380528 585.169049 
L 305.293929 585.990663 
L 307.20733 587.615699 
L 309.120731 590.014605 
L 311.034132 593.14267 
L 312.947533 596.941492 
L 314.860935 601.340887 
L 316.774336 606.261153 
L 318.687737 611.615579 
L 322.514539 623.260917 
L 332.081545 653.693819 
L 335.908347 664.829934 
L 337.821749 669.964575 
L 339.73515 674.769769 
L 341.648551 679.227212 
L 343.561952 683.327427 
L 345.475353 687.068845 
L 347.388754 690.456744 
L 349.302156 693.502138 
L 351.215557 696.220628 
L 353.128958 698.631304 
L 355.042359 700.755703 
L 356.95576 702.616865 
L 358.869161 704.238513 
L 360.782563 705.644348 
L 362.695964 706.857481 
L 364.609365 707.899995 
L 366.522766 708.792616 
L 370.349568 710.203097 
L 374.176371 711.221575 
L 378.003173 711.953438 
L 381.829975 712.479197 
L 387.570179 713.007044 
L 395.223784 713.417394 
L 404.790789 713.687818 
L 420.097999 713.882475 
L 448.799016 713.986956 
L 485.153638 713.99927 
L 485.153638 713.99927 
" clip-path="url(#p063b65786f)" style="fill: none; stroke: #251433; stroke-width: 1.5; stroke-linecap: round"/>
   </g>
   <g id="patch_6">
    <path d="M 81.658594 713.999406 
L 81.658594 447.532291 
" style="fill: none; stroke: #cccccc; stroke-width: 1.875; stroke-linejoin: miter; stroke-linecap: square"/>
   </g>
   <g id="patch_7">
    <path d="M 81.658594 713.999406 
L 507.278594 713.999406 
" style="fill: none; stroke: #cccccc; stroke-width: 1.875; stroke-linejoin: miter; stroke-linecap: square"/>
   </g>
   <g id="text_28">
    <!-- income_deciles = 10thD -->
    <g style="fill: #262626" transform="translate(198.167187 441.532291)scale(0.18 -0.18)">
     <defs>
      <path id="ArialMT-68" d="M 422 0 
L 422 4581 
L 984 4581 
L 984 2938 
Q 1378 3394 1978 3394 
Q 2347 3394 2619 3248 
Q 2891 3103 3008 2847 
Q 3125 2591 3125 2103 
L 3125 0 
L 2563 0 
L 2563 2103 
Q 2563 2525 2380 2717 
Q 2197 2909 1863 2909 
Q 1613 2909 1392 2779 
Q 1172 2650 1078 2428 
Q 984 2206 984 1816 
L 984 0 
L 422 0 
z
" transform="scale(0.015625)"/>
     </defs>
     <use xlink:href="#ArialMT-69"/>
     <use xlink:href="#ArialMT-6e" x="22.216797"/>
     <use xlink:href="#ArialMT-63" x="77.832031"/>
     <use xlink:href="#ArialMT-6f" x="127.832031"/>
     <use xlink:href="#ArialMT-6d" x="183.447266"/>
     <use xlink:href="#ArialMT-65" x="266.748047"/>
     <use xlink:href="#ArialMT-5f" x="322.363281"/>
     <use xlink:href="#ArialMT-64" x="377.978516"/>
     <use xlink:href="#ArialMT-65" x="433.59375"/>
     <use xlink:href="#ArialMT-63" x="489.208984"/>
     <use xlink:href="#ArialMT-69" x="539.208984"/>
     <use xlink:href="#ArialMT-6c" x="561.425781"/>
     <use xlink:href="#ArialMT-65" x="583.642578"/>
     <use xlink:href="#ArialMT-73" x="639.257812"/>
     <use xlink:href="#ArialMT-20" x="689.257812"/>
     <use xlink:href="#ArialMT-3d" x="717.041016"/>
     <use xlink:href="#ArialMT-20" x="775.439453"/>
     <use xlink:href="#ArialMT-31" x="803.222656"/>
     <use xlink:href="#ArialMT-30" x="858.837891"/>
     <use xlink:href="#ArialMT-74" x="914.453125"/>
     <use xlink:href="#ArialMT-68" x="942.236328"/>
     <use xlink:href="#ArialMT-44" x="997.851562"/>
    </g>
   </g>
   <g id="legend_1">
    <g id="patch_8">
     <path d="M 546.613594 657.480238 
L 711.088594 657.480238 
L 711.088594 397.464613 
L 546.613594 397.464613 
z
" style="fill: #ffffff; opacity: 0.8; stroke: #cccccc; stroke-width: 1.5; stroke-linejoin: miter"/>
    </g>
    <g id="text_29">
     <!-- Ridehail Scenarios -->
     <g style="fill: #262626" transform="translate(553.813594 417.548675)scale(0.18 -0.18)">
      <defs>
       <path id="ArialMT-52" d="M 503 0 
L 503 4581 
L 2534 4581 
Q 3147 4581 3465 4457 
Q 3784 4334 3975 4021 
Q 4166 3709 4166 3331 
Q 4166 2844 3850 2509 
Q 3534 2175 2875 2084 
Q 3116 1969 3241 1856 
Q 3506 1613 3744 1247 
L 4541 0 
L 3778 0 
L 3172 953 
Q 2906 1366 2734 1584 
Q 2563 1803 2427 1890 
Q 2291 1978 2150 2013 
Q 2047 2034 1813 2034 
L 1109 2034 
L 1109 0 
L 503 0 
z
M 1109 2559 
L 2413 2559 
Q 2828 2559 3062 2645 
Q 3297 2731 3419 2920 
Q 3541 3109 3541 3331 
Q 3541 3656 3305 3865 
Q 3069 4075 2559 4075 
L 1109 4075 
L 1109 2559 
z
" transform="scale(0.015625)"/>
       <path id="ArialMT-72" d="M 416 0 
L 416 3319 
L 922 3319 
L 922 2816 
Q 1116 3169 1280 3281 
Q 1444 3394 1641 3394 
Q 1925 3394 2219 3213 
L 2025 2691 
Q 1819 2813 1613 2813 
Q 1428 2813 1281 2702 
Q 1134 2591 1072 2394 
Q 978 2094 978 1738 
L 978 0 
L 416 0 
z
" transform="scale(0.015625)"/>
      </defs>
      <use xlink:href="#ArialMT-52"/>
      <use xlink:href="#ArialMT-69" x="72.216797"/>
      <use xlink:href="#ArialMT-64" x="94.433594"/>
      <use xlink:href="#ArialMT-65" x="150.048828"/>
      <use xlink:href="#ArialMT-68" x="205.664062"/>
      <use xlink:href="#ArialMT-61" x="261.279297"/>
      <use xlink:href="#ArialMT-69" x="316.894531"/>
      <use xlink:href="#ArialMT-6c" x="339.111328"/>
      <use xlink:href="#ArialMT-20" x="361.328125"/>
      <use xlink:href="#ArialMT-53" x="389.111328"/>
      <use xlink:href="#ArialMT-63" x="455.810547"/>
      <use xlink:href="#ArialMT-65" x="505.810547"/>
      <use xlink:href="#ArialMT-6e" x="561.425781"/>
      <use xlink:href="#ArialMT-61" x="617.041016"/>
      <use xlink:href="#ArialMT-72" x="672.65625"/>
      <use xlink:href="#ArialMT-69" x="705.957031"/>
      <use xlink:href="#ArialMT-6f" x="728.173828"/>
      <use xlink:href="#ArialMT-73" x="783.789062"/>
     </g>
    </g>
    <g id="line2d_49">
     <path d="M 555.128437 436.710238 
L 573.128437 436.710238 
L 591.128437 436.710238 
" style="fill: none; stroke: #f7c6a6; stroke-width: 1.5; stroke-linecap: round"/>
    </g>
    <g id="text_30">
     <!-- 0% Price -->
     <g style="fill: #262626" transform="translate(605.528437 443.010238)scale(0.18 -0.18)">
      <defs>
       <path id="ArialMT-25" d="M 372 3481 
Q 372 3972 619 4315 
Q 866 4659 1334 4659 
Q 1766 4659 2048 4351 
Q 2331 4044 2331 3447 
Q 2331 2866 2045 2552 
Q 1759 2238 1341 2238 
Q 925 2238 648 2547 
Q 372 2856 372 3481 
z
M 1350 4272 
Q 1141 4272 1002 4090 
Q 863 3909 863 3425 
Q 863 2984 1003 2804 
Q 1144 2625 1350 2625 
Q 1563 2625 1702 2806 
Q 1841 2988 1841 3469 
Q 1841 3913 1700 4092 
Q 1559 4272 1350 4272 
z
M 1353 -169 
L 3859 4659 
L 4316 4659 
L 1819 -169 
L 1353 -169 
z
M 3334 1075 
Q 3334 1569 3581 1911 
Q 3828 2253 4300 2253 
Q 4731 2253 5014 1945 
Q 5297 1638 5297 1041 
Q 5297 459 5011 145 
Q 4725 -169 4303 -169 
Q 3888 -169 3611 142 
Q 3334 453 3334 1075 
z
M 4316 1866 
Q 4103 1866 3964 1684 
Q 3825 1503 3825 1019 
Q 3825 581 3965 400 
Q 4106 219 4313 219 
Q 4528 219 4667 400 
Q 4806 581 4806 1063 
Q 4806 1506 4665 1686 
Q 4525 1866 4316 1866 
z
" transform="scale(0.015625)"/>
      </defs>
      <use xlink:href="#ArialMT-30"/>
      <use xlink:href="#ArialMT-25" x="55.615234"/>
      <use xlink:href="#ArialMT-20" x="144.53125"/>
      <use xlink:href="#ArialMT-50" x="172.314453"/>
      <use xlink:href="#ArialMT-72" x="239.013672"/>
      <use xlink:href="#ArialMT-69" x="272.314453"/>
      <use xlink:href="#ArialMT-63" x="294.53125"/>
      <use xlink:href="#ArialMT-65" x="344.53125"/>
     </g>
    </g>
    <g id="line2d_50">
     <path d="M 555.128437 462.1718 
L 573.128437 462.1718 
L 591.128437 462.1718 
" style="fill: none; stroke: #f69c73; stroke-width: 1.5; stroke-linecap: round"/>
    </g>
    <g id="text_31">
     <!-- 12.5% Price -->
     <g style="fill: #262626" transform="translate(605.528437 468.4718)scale(0.18 -0.18)">
      <use xlink:href="#ArialMT-31"/>
      <use xlink:href="#ArialMT-32" x="55.615234"/>
      <use xlink:href="#ArialMT-2e" x="111.230469"/>
      <use xlink:href="#ArialMT-35" x="139.013672"/>
      <use xlink:href="#ArialMT-25" x="194.628906"/>
      <use xlink:href="#ArialMT-20" x="283.544922"/>
      <use xlink:href="#ArialMT-50" x="311.328125"/>
      <use xlink:href="#ArialMT-72" x="378.027344"/>
      <use xlink:href="#ArialMT-69" x="411.328125"/>
      <use xlink:href="#ArialMT-63" x="433.544922"/>
      <use xlink:href="#ArialMT-65" x="483.544922"/>
     </g>
    </g>
    <g id="line2d_51">
     <path d="M 555.128437 487.633363 
L 573.128437 487.633363 
L 591.128437 487.633363 
" style="fill: none; stroke: #f3714d; stroke-width: 1.5; stroke-linecap: round"/>
    </g>
    <g id="text_32">
     <!-- 25% Price -->
     <g style="fill: #262626" transform="translate(605.528437 493.933363)scale(0.18 -0.18)">
      <use xlink:href="#ArialMT-32"/>
      <use xlink:href="#ArialMT-35" x="55.615234"/>
      <use xlink:href="#ArialMT-25" x="111.230469"/>
      <use xlink:href="#ArialMT-20" x="200.146484"/>
      <use xlink:href="#ArialMT-50" x="227.929688"/>
      <use xlink:href="#ArialMT-72" x="294.628906"/>
      <use xlink:href="#ArialMT-69" x="327.929688"/>
      <use xlink:href="#ArialMT-63" x="350.146484"/>
      <use xlink:href="#ArialMT-65" x="400.146484"/>
     </g>
    </g>
    <g id="line2d_52">
     <path d="M 555.128437 513.094925 
L 573.128437 513.094925 
L 591.128437 513.094925 
" style="fill: none; stroke: #e83f3f; stroke-width: 1.5; stroke-linecap: round"/>
    </g>
    <g id="text_33">
     <!-- 50% Price -->
     <g style="fill: #262626" transform="translate(605.528437 519.394925)scale(0.18 -0.18)">
      <use xlink:href="#ArialMT-35"/>
      <use xlink:href="#ArialMT-30" x="55.615234"/>
      <use xlink:href="#ArialMT-25" x="111.230469"/>
      <use xlink:href="#ArialMT-20" x="200.146484"/>
      <use xlink:href="#ArialMT-50" x="227.929688"/>
      <use xlink:href="#ArialMT-72" x="294.628906"/>
      <use xlink:href="#ArialMT-69" x="327.929688"/>
      <use xlink:href="#ArialMT-63" x="350.146484"/>
      <use xlink:href="#ArialMT-65" x="400.146484"/>
     </g>
    </g>
    <g id="line2d_53">
     <path d="M 555.128437 538.556488 
L 573.128437 538.556488 
L 591.128437 538.556488 
" style="fill: none; stroke: #ca1a50; stroke-width: 1.5; stroke-linecap: round"/>
    </g>
    <g id="text_34">
     <!-- Baseline -->
     <g style="fill: #262626" transform="translate(605.528437 544.856488)scale(0.18 -0.18)">
      <defs>
       <path id="ArialMT-42" d="M 469 0 
L 469 4581 
L 2188 4581 
Q 2713 4581 3030 4442 
Q 3347 4303 3526 4014 
Q 3706 3725 3706 3409 
Q 3706 3116 3547 2856 
Q 3388 2597 3066 2438 
Q 3481 2316 3704 2022 
Q 3928 1728 3928 1328 
Q 3928 1006 3792 729 
Q 3656 453 3456 303 
Q 3256 153 2954 76 
Q 2653 0 2216 0 
L 469 0 
z
M 1075 2656 
L 2066 2656 
Q 2469 2656 2644 2709 
Q 2875 2778 2992 2937 
Q 3109 3097 3109 3338 
Q 3109 3566 3000 3739 
Q 2891 3913 2687 3977 
Q 2484 4041 1991 4041 
L 1075 4041 
L 1075 2656 
z
M 1075 541 
L 2216 541 
Q 2509 541 2628 563 
Q 2838 600 2978 687 
Q 3119 775 3209 942 
Q 3300 1109 3300 1328 
Q 3300 1584 3169 1773 
Q 3038 1963 2805 2039 
Q 2572 2116 2134 2116 
L 1075 2116 
L 1075 541 
z
" transform="scale(0.015625)"/>
      </defs>
      <use xlink:href="#ArialMT-42"/>
      <use xlink:href="#ArialMT-61" x="66.699219"/>
      <use xlink:href="#ArialMT-73" x="122.314453"/>
      <use xlink:href="#ArialMT-65" x="172.314453"/>
      <use xlink:href="#ArialMT-6c" x="227.929688"/>
      <use xlink:href="#ArialMT-69" x="250.146484"/>
      <use xlink:href="#ArialMT-6e" x="272.363281"/>
      <use xlink:href="#ArialMT-65" x="327.978516"/>
     </g>
    </g>
    <g id="line2d_54">
     <path d="M 555.128437 564.01805 
L 573.128437 564.01805 
L 591.128437 564.01805 
" style="fill: none; stroke: #a11a5b; stroke-width: 1.5; stroke-linecap: round"/>
    </g>
    <g id="text_35">
     <!-- 175% Price -->
     <g style="fill: #262626" transform="translate(605.528437 570.31805)scale(0.18 -0.18)">
      <defs>
       <path id="ArialMT-37" d="M 303 3981 
L 303 4522 
L 3269 4522 
L 3269 4084 
Q 2831 3619 2401 2847 
Q 1972 2075 1738 1259 
Q 1569 684 1522 0 
L 944 0 
Q 953 541 1156 1306 
Q 1359 2072 1739 2783 
Q 2119 3494 2547 3981 
L 303 3981 
z
" transform="scale(0.015625)"/>
      </defs>
      <use xlink:href="#ArialMT-31"/>
      <use xlink:href="#ArialMT-37" x="55.615234"/>
      <use xlink:href="#ArialMT-35" x="111.230469"/>
      <use xlink:href="#ArialMT-25" x="166.845703"/>
      <use xlink:href="#ArialMT-20" x="255.761719"/>
      <use xlink:href="#ArialMT-50" x="283.544922"/>
      <use xlink:href="#ArialMT-72" x="350.244141"/>
      <use xlink:href="#ArialMT-69" x="383.544922"/>
      <use xlink:href="#ArialMT-63" x="405.761719"/>
      <use xlink:href="#ArialMT-65" x="455.761719"/>
     </g>
    </g>
    <g id="line2d_55">
     <path d="M 555.128437 589.479613 
L 573.128437 589.479613 
L 591.128437 589.479613 
" style="fill: none; stroke: #751f58; stroke-width: 1.5; stroke-linecap: round"/>
    </g>
    <g id="text_36">
     <!-- 300% Price -->
     <g style="fill: #262626" transform="translate(605.528437 595.779613)scale(0.18 -0.18)">
      <use xlink:href="#ArialMT-33"/>
      <use xlink:href="#ArialMT-30" x="55.615234"/>
      <use xlink:href="#ArialMT-30" x="111.230469"/>
      <use xlink:href="#ArialMT-25" x="166.845703"/>
      <use xlink:href="#ArialMT-20" x="255.761719"/>
      <use xlink:href="#ArialMT-50" x="283.544922"/>
      <use xlink:href="#ArialMT-72" x="350.244141"/>
      <use xlink:href="#ArialMT-69" x="383.544922"/>
      <use xlink:href="#ArialMT-63" x="405.761719"/>
      <use xlink:href="#ArialMT-65" x="455.761719"/>
     </g>
    </g>
    <g id="line2d_56">
     <path d="M 555.128437 614.941175 
L 573.128437 614.941175 
L 591.128437 614.941175 
" style="fill: none; stroke: #4c1d4b; stroke-width: 1.5; stroke-linecap: round"/>
    </g>
    <g id="text_37">
     <!-- 500% Price -->
     <g style="fill: #262626" transform="translate(605.528437 621.241175)scale(0.18 -0.18)">
      <use xlink:href="#ArialMT-35"/>
      <use xlink:href="#ArialMT-30" x="55.615234"/>
      <use xlink:href="#ArialMT-30" x="111.230469"/>
      <use xlink:href="#ArialMT-25" x="166.845703"/>
      <use xlink:href="#ArialMT-20" x="255.761719"/>
      <use xlink:href="#ArialMT-50" x="283.544922"/>
      <use xlink:href="#ArialMT-72" x="350.244141"/>
      <use xlink:href="#ArialMT-69" x="383.544922"/>
      <use xlink:href="#ArialMT-63" x="405.761719"/>
      <use xlink:href="#ArialMT-65" x="455.761719"/>
     </g>
    </g>
    <g id="line2d_57">
     <path d="M 555.128437 640.402738 
L 573.128437 640.402738 
L 591.128437 640.402738 
" style="fill: none; stroke: #251433; stroke-width: 1.5; stroke-linecap: round"/>
    </g>
    <g id="text_38">
     <!-- 800% Price -->
     <g style="fill: #262626" transform="translate(605.528437 646.702738)scale(0.18 -0.18)">
      <defs>
       <path id="ArialMT-38" d="M 1131 2484 
Q 781 2613 612 2850 
Q 444 3088 444 3419 
Q 444 3919 803 4259 
Q 1163 4600 1759 4600 
Q 2359 4600 2725 4251 
Q 3091 3903 3091 3403 
Q 3091 3084 2923 2848 
Q 2756 2613 2416 2484 
Q 2838 2347 3058 2040 
Q 3278 1734 3278 1309 
Q 3278 722 2862 322 
Q 2447 -78 1769 -78 
Q 1091 -78 675 323 
Q 259 725 259 1325 
Q 259 1772 486 2073 
Q 713 2375 1131 2484 
z
M 1019 3438 
Q 1019 3113 1228 2906 
Q 1438 2700 1772 2700 
Q 2097 2700 2305 2904 
Q 2513 3109 2513 3406 
Q 2513 3716 2298 3927 
Q 2084 4138 1766 4138 
Q 1444 4138 1231 3931 
Q 1019 3725 1019 3438 
z
M 838 1322 
Q 838 1081 952 856 
Q 1066 631 1291 507 
Q 1516 384 1775 384 
Q 2178 384 2440 643 
Q 2703 903 2703 1303 
Q 2703 1709 2433 1975 
Q 2163 2241 1756 2241 
Q 1359 2241 1098 1978 
Q 838 1716 838 1322 
z
" transform="scale(0.015625)"/>
      </defs>
      <use xlink:href="#ArialMT-38"/>
      <use xlink:href="#ArialMT-30" x="55.615234"/>
      <use xlink:href="#ArialMT-30" x="111.230469"/>
      <use xlink:href="#ArialMT-25" x="166.845703"/>
      <use xlink:href="#ArialMT-20" x="255.761719"/>
      <use xlink:href="#ArialMT-50" x="283.544922"/>
      <use xlink:href="#ArialMT-72" x="350.244141"/>
      <use xlink:href="#ArialMT-69" x="383.544922"/>
      <use xlink:href="#ArialMT-63" x="405.761719"/>
      <use xlink:href="#ArialMT-65" x="455.761719"/>
     </g>
    </g>
   </g>
  </g>
 </g>
 <defs>
  <clipPath id="pfc3a3ed2a2">
   <rect x="81.658594" y="135.205031" width="425.62" height="266.467116"/>
  </clipPath>
  <clipPath id="p063b65786f">
   <rect x="81.658594" y="447.532291" width="425.62" height="266.467116"/>
  </clipPath>
 </defs>
</svg>
