<?xml version="1.0" encoding="utf-8" standalone="no"?>
<!DOCTYPE svg PUBLIC "-//W3C//DTD SVG 1.1//EN"
  "http://www.w3.org/Graphics/SVG/1.1/DTD/svg11.dtd">
<svg xmlns:xlink="http://www.w3.org/1999/xlink" width="683.776344pt" height="660.129766pt" viewBox="0 0 683.776344 660.129766" xmlns="http://www.w3.org/2000/svg" version="1.1">
 <metadata>
  <rdf:RDF xmlns:dc="http://purl.org/dc/elements/1.1/" xmlns:cc="http://creativecommons.org/ns#" xmlns:rdf="http://www.w3.org/1999/02/22-rdf-syntax-ns#">
   <cc:Work>
    <dc:type rdf:resource="http://purl.org/dc/dcmitype/StillImage"/>
    <dc:date>2023-01-19T05:34:38.377599</dc:date>
    <dc:format>image/svg+xml</dc:format>
    <dc:creator>
     <cc:Agent>
      <dc:title>Matplotlib v3.5.1, https://matplotlib.org/</dc:title>
     </cc:Agent>
    </dc:creator>
   </cc:Work>
  </rdf:RDF>
 </metadata>
 <defs>
  <style type="text/css">*{stroke-linejoin: round; stroke-linecap: butt}</style>
 </defs>
 <g id="figure_1">
  <g id="patch_1">
   <path d="M 0 660.129766 
L 683.776344 660.129766 
L 683.776344 0 
L 0 0 
z
" style="fill: #ffffff"/>
  </g>
  <g id="axes_1">
   <g id="patch_2">
    <path d="M 81.658594 292.551178 
L 498.153594 292.551178 
L 498.153594 26.084063 
L 81.658594 26.084063 
z
" style="fill: #ffffff"/>
   </g>
   <g id="matplotlib.axis_1">
    <g id="xtick_1">
     <g id="line2d_1">
      <path d="M 81.658594 292.551178 
L 81.658594 26.084063 
" clip-path="url(#pe9fb88bdea)" style="fill: none; stroke: #cccccc; stroke-width: 1.5; stroke-linecap: round"/>
     </g>
    </g>
    <g id="xtick_2">
     <g id="line2d_2">
      <path d="M 164.957594 292.551178 
L 164.957594 26.084063 
" clip-path="url(#pe9fb88bdea)" style="fill: none; stroke: #cccccc; stroke-width: 1.5; stroke-linecap: round"/>
     </g>
    </g>
    <g id="xtick_3">
     <g id="line2d_3">
      <path d="M 248.256594 292.551178 
L 248.256594 26.084063 
" clip-path="url(#pe9fb88bdea)" style="fill: none; stroke: #cccccc; stroke-width: 1.5; stroke-linecap: round"/>
     </g>
    </g>
    <g id="xtick_4">
     <g id="line2d_4">
      <path d="M 331.555594 292.551178 
L 331.555594 26.084063 
" clip-path="url(#pe9fb88bdea)" style="fill: none; stroke: #cccccc; stroke-width: 1.5; stroke-linecap: round"/>
     </g>
    </g>
    <g id="xtick_5">
     <g id="line2d_5">
      <path d="M 414.854594 292.551178 
L 414.854594 26.084063 
" clip-path="url(#pe9fb88bdea)" style="fill: none; stroke: #cccccc; stroke-width: 1.5; stroke-linecap: round"/>
     </g>
    </g>
    <g id="xtick_6">
     <g id="line2d_6">
      <path d="M 498.153594 292.551178 
L 498.153594 26.084063 
" clip-path="url(#pe9fb88bdea)" style="fill: none; stroke: #cccccc; stroke-width: 1.5; stroke-linecap: round"/>
     </g>
    </g>
   </g>
   <g id="matplotlib.axis_2">
    <g id="ytick_1">
     <g id="line2d_7">
      <path d="M 81.658594 292.551178 
L 498.153594 292.551178 
" clip-path="url(#pe9fb88bdea)" style="fill: none; stroke: #cccccc; stroke-width: 1.5; stroke-linecap: round"/>
     </g>
     <g id="text_1">
      <!-- 0.000 -->
      <g style="fill: #262626" transform="translate(27.8725 298.456373)scale(0.165 -0.165)">
       <defs>
        <path id="ArialMT-30" d="M 266 2259 
Q 266 3072 433 3567 
Q 600 4063 929 4331 
Q 1259 4600 1759 4600 
Q 2128 4600 2406 4451 
Q 2684 4303 2865 4023 
Q 3047 3744 3150 3342 
Q 3253 2941 3253 2259 
Q 3253 1453 3087 958 
Q 2922 463 2592 192 
Q 2263 -78 1759 -78 
Q 1097 -78 719 397 
Q 266 969 266 2259 
z
M 844 2259 
Q 844 1131 1108 757 
Q 1372 384 1759 384 
Q 2147 384 2411 759 
Q 2675 1134 2675 2259 
Q 2675 3391 2411 3762 
Q 2147 4134 1753 4134 
Q 1366 4134 1134 3806 
Q 844 3388 844 2259 
z
" transform="scale(0.015625)"/>
        <path id="ArialMT-2e" d="M 581 0 
L 581 641 
L 1222 641 
L 1222 0 
L 581 0 
z
" transform="scale(0.015625)"/>
       </defs>
       <use xlink:href="#ArialMT-30"/>
       <use xlink:href="#ArialMT-2e" x="55.615234"/>
       <use xlink:href="#ArialMT-30" x="83.398438"/>
       <use xlink:href="#ArialMT-30" x="139.013672"/>
       <use xlink:href="#ArialMT-30" x="194.628906"/>
      </g>
     </g>
    </g>
    <g id="ytick_2">
     <g id="line2d_8">
      <path d="M 81.658594 233.266656 
L 498.153594 233.266656 
" clip-path="url(#pe9fb88bdea)" style="fill: none; stroke: #cccccc; stroke-width: 1.5; stroke-linecap: round"/>
     </g>
     <g id="text_2">
      <!-- 0.001 -->
      <g style="fill: #262626" transform="translate(27.8725 239.171852)scale(0.165 -0.165)">
       <defs>
        <path id="ArialMT-31" d="M 2384 0 
L 1822 0 
L 1822 3584 
Q 1619 3391 1289 3197 
Q 959 3003 697 2906 
L 697 3450 
Q 1169 3672 1522 3987 
Q 1875 4303 2022 4600 
L 2384 4600 
L 2384 0 
z
" transform="scale(0.015625)"/>
       </defs>
       <use xlink:href="#ArialMT-30"/>
       <use xlink:href="#ArialMT-2e" x="55.615234"/>
       <use xlink:href="#ArialMT-30" x="83.398438"/>
       <use xlink:href="#ArialMT-30" x="139.013672"/>
       <use xlink:href="#ArialMT-31" x="194.628906"/>
      </g>
     </g>
    </g>
    <g id="ytick_3">
     <g id="line2d_9">
      <path d="M 81.658594 173.982135 
L 498.153594 173.982135 
" clip-path="url(#pe9fb88bdea)" style="fill: none; stroke: #cccccc; stroke-width: 1.5; stroke-linecap: round"/>
     </g>
     <g id="text_3">
      <!-- 0.002 -->
      <g style="fill: #262626" transform="translate(27.8725 179.88733)scale(0.165 -0.165)">
       <defs>
        <path id="ArialMT-32" d="M 3222 541 
L 3222 0 
L 194 0 
Q 188 203 259 391 
Q 375 700 629 1000 
Q 884 1300 1366 1694 
Q 2113 2306 2375 2664 
Q 2638 3022 2638 3341 
Q 2638 3675 2398 3904 
Q 2159 4134 1775 4134 
Q 1369 4134 1125 3890 
Q 881 3647 878 3216 
L 300 3275 
Q 359 3922 746 4261 
Q 1134 4600 1788 4600 
Q 2447 4600 2831 4234 
Q 3216 3869 3216 3328 
Q 3216 3053 3103 2787 
Q 2991 2522 2730 2228 
Q 2469 1934 1863 1422 
Q 1356 997 1212 845 
Q 1069 694 975 541 
L 3222 541 
z
" transform="scale(0.015625)"/>
       </defs>
       <use xlink:href="#ArialMT-30"/>
       <use xlink:href="#ArialMT-2e" x="55.615234"/>
       <use xlink:href="#ArialMT-30" x="83.398438"/>
       <use xlink:href="#ArialMT-30" x="139.013672"/>
       <use xlink:href="#ArialMT-32" x="194.628906"/>
      </g>
     </g>
    </g>
    <g id="ytick_4">
     <g id="line2d_10">
      <path d="M 81.658594 114.697613 
L 498.153594 114.697613 
" clip-path="url(#pe9fb88bdea)" style="fill: none; stroke: #cccccc; stroke-width: 1.5; stroke-linecap: round"/>
     </g>
     <g id="text_4">
      <!-- 0.003 -->
      <g style="fill: #262626" transform="translate(27.8725 120.602808)scale(0.165 -0.165)">
       <defs>
        <path id="ArialMT-33" d="M 269 1209 
L 831 1284 
Q 928 806 1161 595 
Q 1394 384 1728 384 
Q 2125 384 2398 659 
Q 2672 934 2672 1341 
Q 2672 1728 2419 1979 
Q 2166 2231 1775 2231 
Q 1616 2231 1378 2169 
L 1441 2663 
Q 1497 2656 1531 2656 
Q 1891 2656 2178 2843 
Q 2466 3031 2466 3422 
Q 2466 3731 2256 3934 
Q 2047 4138 1716 4138 
Q 1388 4138 1169 3931 
Q 950 3725 888 3313 
L 325 3413 
Q 428 3978 793 4289 
Q 1159 4600 1703 4600 
Q 2078 4600 2393 4439 
Q 2709 4278 2876 4000 
Q 3044 3722 3044 3409 
Q 3044 3113 2884 2869 
Q 2725 2625 2413 2481 
Q 2819 2388 3044 2092 
Q 3269 1797 3269 1353 
Q 3269 753 2831 336 
Q 2394 -81 1725 -81 
Q 1122 -81 723 278 
Q 325 638 269 1209 
z
" transform="scale(0.015625)"/>
       </defs>
       <use xlink:href="#ArialMT-30"/>
       <use xlink:href="#ArialMT-2e" x="55.615234"/>
       <use xlink:href="#ArialMT-30" x="83.398438"/>
       <use xlink:href="#ArialMT-30" x="139.013672"/>
       <use xlink:href="#ArialMT-33" x="194.628906"/>
      </g>
     </g>
    </g>
    <g id="ytick_5">
     <g id="line2d_11">
      <path d="M 81.658594 55.413091 
L 498.153594 55.413091 
" clip-path="url(#pe9fb88bdea)" style="fill: none; stroke: #cccccc; stroke-width: 1.5; stroke-linecap: round"/>
     </g>
     <g id="text_5">
      <!-- 0.004 -->
      <g style="fill: #262626" transform="translate(27.8725 61.318287)scale(0.165 -0.165)">
       <defs>
        <path id="ArialMT-34" d="M 2069 0 
L 2069 1097 
L 81 1097 
L 81 1613 
L 2172 4581 
L 2631 4581 
L 2631 1613 
L 3250 1613 
L 3250 1097 
L 2631 1097 
L 2631 0 
L 2069 0 
z
M 2069 1613 
L 2069 3678 
L 634 1613 
L 2069 1613 
z
" transform="scale(0.015625)"/>
       </defs>
       <use xlink:href="#ArialMT-30"/>
       <use xlink:href="#ArialMT-2e" x="55.615234"/>
       <use xlink:href="#ArialMT-30" x="83.398438"/>
       <use xlink:href="#ArialMT-30" x="139.013672"/>
       <use xlink:href="#ArialMT-34" x="194.628906"/>
      </g>
     </g>
    </g>
    <g id="text_6">
     <!-- Frequency Density -->
     <g style="fill: #262626" transform="translate(20.084063 234.345277)rotate(-90)scale(0.18 -0.18)">
      <defs>
       <path id="ArialMT-46" d="M 525 0 
L 525 4581 
L 3616 4581 
L 3616 4041 
L 1131 4041 
L 1131 2622 
L 3281 2622 
L 3281 2081 
L 1131 2081 
L 1131 0 
L 525 0 
z
" transform="scale(0.015625)"/>
       <path id="ArialMT-72" d="M 416 0 
L 416 3319 
L 922 3319 
L 922 2816 
Q 1116 3169 1280 3281 
Q 1444 3394 1641 3394 
Q 1925 3394 2219 3213 
L 2025 2691 
Q 1819 2813 1613 2813 
Q 1428 2813 1281 2702 
Q 1134 2591 1072 2394 
Q 978 2094 978 1738 
L 978 0 
L 416 0 
z
" transform="scale(0.015625)"/>
       <path id="ArialMT-65" d="M 2694 1069 
L 3275 997 
Q 3138 488 2766 206 
Q 2394 -75 1816 -75 
Q 1088 -75 661 373 
Q 234 822 234 1631 
Q 234 2469 665 2931 
Q 1097 3394 1784 3394 
Q 2450 3394 2872 2941 
Q 3294 2488 3294 1666 
Q 3294 1616 3291 1516 
L 816 1516 
Q 847 969 1125 678 
Q 1403 388 1819 388 
Q 2128 388 2347 550 
Q 2566 713 2694 1069 
z
M 847 1978 
L 2700 1978 
Q 2663 2397 2488 2606 
Q 2219 2931 1791 2931 
Q 1403 2931 1139 2672 
Q 875 2413 847 1978 
z
" transform="scale(0.015625)"/>
       <path id="ArialMT-71" d="M 2538 -1272 
L 2538 353 
Q 2406 169 2170 47 
Q 1934 -75 1669 -75 
Q 1078 -75 651 397 
Q 225 869 225 1691 
Q 225 2191 398 2587 
Q 572 2984 901 3189 
Q 1231 3394 1625 3394 
Q 2241 3394 2594 2875 
L 2594 3319 
L 3100 3319 
L 3100 -1272 
L 2538 -1272 
z
M 803 1669 
Q 803 1028 1072 708 
Q 1341 388 1716 388 
Q 2075 388 2334 692 
Q 2594 997 2594 1619 
Q 2594 2281 2320 2615 
Q 2047 2950 1678 2950 
Q 1313 2950 1058 2639 
Q 803 2328 803 1669 
z
" transform="scale(0.015625)"/>
       <path id="ArialMT-75" d="M 2597 0 
L 2597 488 
Q 2209 -75 1544 -75 
Q 1250 -75 995 37 
Q 741 150 617 320 
Q 494 491 444 738 
Q 409 903 409 1263 
L 409 3319 
L 972 3319 
L 972 1478 
Q 972 1038 1006 884 
Q 1059 663 1231 536 
Q 1403 409 1656 409 
Q 1909 409 2131 539 
Q 2353 669 2445 892 
Q 2538 1116 2538 1541 
L 2538 3319 
L 3100 3319 
L 3100 0 
L 2597 0 
z
" transform="scale(0.015625)"/>
       <path id="ArialMT-6e" d="M 422 0 
L 422 3319 
L 928 3319 
L 928 2847 
Q 1294 3394 1984 3394 
Q 2284 3394 2536 3286 
Q 2788 3178 2913 3003 
Q 3038 2828 3088 2588 
Q 3119 2431 3119 2041 
L 3119 0 
L 2556 0 
L 2556 2019 
Q 2556 2363 2490 2533 
Q 2425 2703 2258 2804 
Q 2091 2906 1866 2906 
Q 1506 2906 1245 2678 
Q 984 2450 984 1813 
L 984 0 
L 422 0 
z
" transform="scale(0.015625)"/>
       <path id="ArialMT-63" d="M 2588 1216 
L 3141 1144 
Q 3050 572 2676 248 
Q 2303 -75 1759 -75 
Q 1078 -75 664 370 
Q 250 816 250 1647 
Q 250 2184 428 2587 
Q 606 2991 970 3192 
Q 1334 3394 1763 3394 
Q 2303 3394 2647 3120 
Q 2991 2847 3088 2344 
L 2541 2259 
Q 2463 2594 2264 2762 
Q 2066 2931 1784 2931 
Q 1359 2931 1093 2626 
Q 828 2322 828 1663 
Q 828 994 1084 691 
Q 1341 388 1753 388 
Q 2084 388 2306 591 
Q 2528 794 2588 1216 
z
" transform="scale(0.015625)"/>
       <path id="ArialMT-79" d="M 397 -1278 
L 334 -750 
Q 519 -800 656 -800 
Q 844 -800 956 -737 
Q 1069 -675 1141 -563 
Q 1194 -478 1313 -144 
Q 1328 -97 1363 -6 
L 103 3319 
L 709 3319 
L 1400 1397 
Q 1534 1031 1641 628 
Q 1738 1016 1872 1384 
L 2581 3319 
L 3144 3319 
L 1881 -56 
Q 1678 -603 1566 -809 
Q 1416 -1088 1222 -1217 
Q 1028 -1347 759 -1347 
Q 597 -1347 397 -1278 
z
" transform="scale(0.015625)"/>
       <path id="ArialMT-20" transform="scale(0.015625)"/>
       <path id="ArialMT-44" d="M 494 0 
L 494 4581 
L 2072 4581 
Q 2606 4581 2888 4516 
Q 3281 4425 3559 4188 
Q 3922 3881 4101 3404 
Q 4281 2928 4281 2316 
Q 4281 1794 4159 1391 
Q 4038 988 3847 723 
Q 3656 459 3429 307 
Q 3203 156 2883 78 
Q 2563 0 2147 0 
L 494 0 
z
M 1100 541 
L 2078 541 
Q 2531 541 2789 625 
Q 3047 709 3200 863 
Q 3416 1078 3536 1442 
Q 3656 1806 3656 2325 
Q 3656 3044 3420 3430 
Q 3184 3816 2847 3947 
Q 2603 4041 2063 4041 
L 1100 4041 
L 1100 541 
z
" transform="scale(0.015625)"/>
       <path id="ArialMT-73" d="M 197 991 
L 753 1078 
Q 800 744 1014 566 
Q 1228 388 1613 388 
Q 2000 388 2187 545 
Q 2375 703 2375 916 
Q 2375 1106 2209 1216 
Q 2094 1291 1634 1406 
Q 1016 1563 777 1677 
Q 538 1791 414 1992 
Q 291 2194 291 2438 
Q 291 2659 392 2848 
Q 494 3038 669 3163 
Q 800 3259 1026 3326 
Q 1253 3394 1513 3394 
Q 1903 3394 2198 3281 
Q 2494 3169 2634 2976 
Q 2775 2784 2828 2463 
L 2278 2388 
Q 2241 2644 2061 2787 
Q 1881 2931 1553 2931 
Q 1166 2931 1000 2803 
Q 834 2675 834 2503 
Q 834 2394 903 2306 
Q 972 2216 1119 2156 
Q 1203 2125 1616 2013 
Q 2213 1853 2448 1751 
Q 2684 1650 2818 1456 
Q 2953 1263 2953 975 
Q 2953 694 2789 445 
Q 2625 197 2315 61 
Q 2006 -75 1616 -75 
Q 969 -75 630 194 
Q 291 463 197 991 
z
" transform="scale(0.015625)"/>
       <path id="ArialMT-69" d="M 425 3934 
L 425 4581 
L 988 4581 
L 988 3934 
L 425 3934 
z
M 425 0 
L 425 3319 
L 988 3319 
L 988 0 
L 425 0 
z
" transform="scale(0.015625)"/>
       <path id="ArialMT-74" d="M 1650 503 
L 1731 6 
Q 1494 -44 1306 -44 
Q 1000 -44 831 53 
Q 663 150 594 308 
Q 525 466 525 972 
L 525 2881 
L 113 2881 
L 113 3319 
L 525 3319 
L 525 4141 
L 1084 4478 
L 1084 3319 
L 1650 3319 
L 1650 2881 
L 1084 2881 
L 1084 941 
Q 1084 700 1114 631 
Q 1144 563 1211 522 
Q 1278 481 1403 481 
Q 1497 481 1650 503 
z
" transform="scale(0.015625)"/>
      </defs>
      <use xlink:href="#ArialMT-46"/>
      <use xlink:href="#ArialMT-72" x="61.083984"/>
      <use xlink:href="#ArialMT-65" x="94.384766"/>
      <use xlink:href="#ArialMT-71" x="150"/>
      <use xlink:href="#ArialMT-75" x="205.615234"/>
      <use xlink:href="#ArialMT-65" x="261.230469"/>
      <use xlink:href="#ArialMT-6e" x="316.845703"/>
      <use xlink:href="#ArialMT-63" x="372.460938"/>
      <use xlink:href="#ArialMT-79" x="422.460938"/>
      <use xlink:href="#ArialMT-20" x="472.460938"/>
      <use xlink:href="#ArialMT-44" x="500.244141"/>
      <use xlink:href="#ArialMT-65" x="572.460938"/>
      <use xlink:href="#ArialMT-6e" x="628.076172"/>
      <use xlink:href="#ArialMT-73" x="683.691406"/>
      <use xlink:href="#ArialMT-69" x="733.691406"/>
      <use xlink:href="#ArialMT-74" x="755.908203"/>
      <use xlink:href="#ArialMT-79" x="783.691406"/>
     </g>
    </g>
   </g>
   <g id="line2d_12">
    <path d="M -1 291.99038 
L 81.508167 291.690564 
L 126.356292 291.32819 
L 148.780354 290.863336 
L 171.204417 289.54486 
L 193.628479 285.559107 
L 216.052541 274.827043 
L 238.476603 251.130291 
L 260.900666 210.109608 
L 283.324728 157.05817 
L 305.74879 110.933826 
L 328.172853 95.092645 
L 350.596915 118.904861 
L 373.020977 169.229012 
L 395.44504 221.891163 
L 417.869102 259.909386 
L 440.293164 280.399516 
L 462.717227 288.906948 
L 485.141289 291.671006 
L 485.141289 291.671006 
" clip-path="url(#pe9fb88bdea)" style="fill: none; stroke: #f7c6a6; stroke-width: 2.25; stroke-linecap: round"/>
   </g>
   <g id="line2d_13">
    <path d="M -1 292.299029 
L 96.59453 292.021837 
L 141.263927 291.6709 
L 163.598626 291.132894 
L 185.933325 289.375226 
L 208.268024 283.596008 
L 230.602722 267.645488 
L 252.937421 233.347825 
L 275.27212 178.53204 
L 297.606818 117.959856 
L 319.941517 81.533708 
L 342.276216 91.895705 
L 364.610914 142.690189 
L 386.945613 204.729603 
L 409.280312 252.194997 
L 431.615011 278.015989 
L 453.949709 288.449229 
L 476.284408 291.644381 
L 476.284408 291.644381 
" clip-path="url(#pe9fb88bdea)" style="fill: none; stroke: #f69c73; stroke-width: 2.25; stroke-linecap: round"/>
   </g>
   <g id="line2d_14">
    <path d="M -1 292.400209 
L 113.859906 292.170098 
L 136.133169 292.037251 
L 158.406432 291.739475 
L 180.679695 290.796325 
L 202.952958 287.371928 
L 225.226221 276.350417 
L 247.499484 248.521051 
L 269.772747 196.52499 
L 292.04601 129.003648 
L 314.319273 77.184997 
L 336.592536 74.201192 
L 358.865799 122.46707 
L 381.139062 190.88034 
L 403.412325 245.946598 
L 425.685588 276.177711 
L 447.958851 288.143863 
L 470.232114 291.6425 
L 470.232114 291.6425 
" clip-path="url(#pe9fb88bdea)" style="fill: none; stroke: #f3714d; stroke-width: 2.25; stroke-linecap: round"/>
   </g>
   <g id="line2d_15">
    <path d="M -1 292.467542 
L 109.620839 292.342032 
L 154.066128 292.096321 
L 176.288772 291.57534 
L 198.511417 289.53037 
L 220.734061 282.014354 
L 242.956706 260.086408 
L 265.17935 212.900182 
L 287.401994 142.355455 
L 309.624639 77.634462 
L 331.847283 60.41759 
L 354.069928 103.769363 
L 376.292572 177.117723 
L 398.515217 239.52607 
L 420.737861 274.263345 
L 442.960506 287.817508 
L 465.18315 291.631876 
L 465.18315 291.631876 
" clip-path="url(#pe9fb88bdea)" style="fill: none; stroke: #e83f3f; stroke-width: 2.25; stroke-linecap: round"/>
   </g>
   <g id="line2d_16">
    <path d="M -1 292.494678 
L 124.400204 292.368534 
L 146.535384 292.253943 
L 168.670563 291.993087 
L 190.805743 291.164146 
L 212.940922 287.815521 
L 235.076102 275.401608 
L 257.211281 240.552182 
L 279.346461 172.744205 
L 301.481641 89.502606 
L 323.61682 42.346623 
L 345.752 69.468872 
L 367.887179 148.974889 
L 390.022359 225.936322 
L 412.157538 270.288955 
L 434.292718 287.195317 
L 456.427898 291.623971 
L 456.427898 291.623971 
" clip-path="url(#pe9fb88bdea)" style="fill: none; stroke: #ca1a50; stroke-width: 2.25; stroke-linecap: round"/>
   </g>
   <g id="line2d_17">
    <path d="M -1 292.49688 
L 107.703365 292.350607 
L 152.104557 292.099683 
L 174.305153 291.658909 
L 196.505749 290.034484 
L 218.706345 283.855486 
L 240.906942 264.645303 
L 263.107538 220.449561 
L 285.308134 149.838511 
L 307.50873 79.802734 
L 329.709326 55.244204 
L 351.909922 95.07484 
L 374.110518 170.142332 
L 396.311115 236.08227 
L 418.511711 273.175901 
L 440.712307 287.608655 
L 462.912903 291.614093 
L 462.912903 291.614093 
" clip-path="url(#pe9fb88bdea)" style="fill: none; stroke: #a11a5b; stroke-width: 2.25; stroke-linecap: round"/>
   </g>
   <g id="line2d_18">
    <path d="M -1 292.492919 
L 122.242644 292.312682 
L 166.462904 291.999828 
L 188.573034 291.409226 
L 210.683164 288.956936 
L 232.793294 279.01294 
L 254.903424 248.356254 
L 277.013554 183.243008 
L 299.123685 95.939554 
L 321.233815 38.772973 
L 343.343945 58.705529 
L 365.454075 139.102274 
L 387.564205 220.943389 
L 409.674335 268.807827 
L 431.784465 286.960675 
L 453.894595 291.616849 
L 453.894595 291.616849 
" clip-path="url(#pe9fb88bdea)" style="fill: none; stroke: #751f58; stroke-width: 2.25; stroke-linecap: round"/>
   </g>
   <g id="line2d_19">
    <path d="M -1 292.480474 
L 121.986231 292.311207 
L 166.202488 291.987307 
L 188.310617 291.404783 
L 210.418745 289.015081 
L 232.526874 279.28473 
L 254.635003 249.06974 
L 276.743131 184.404608 
L 298.85126 96.960392 
L 320.959389 38.835262 
L 343.067517 57.748333 
L 365.175646 137.908477 
L 387.283775 220.170336 
L 409.391903 268.496002 
L 431.500032 286.877996 
L 453.608161 291.602122 
L 453.608161 291.602122 
" clip-path="url(#pe9fb88bdea)" style="fill: none; stroke: #4c1d4b; stroke-width: 2.25; stroke-linecap: round"/>
   </g>
   <g id="line2d_20">
    <path d="M -1 292.490315 
L 124.264924 292.322553 
L 146.398451 292.206249 
L 168.531978 291.955635 
L 190.665505 291.173478 
L 212.799032 287.957632 
L 234.932559 275.829673 
L 257.066086 241.384197 
L 279.199613 173.77096 
L 301.33314 90.088851 
L 323.466667 42.00897 
L 345.600194 68.500377 
L 367.733721 148.0855 
L 389.867248 225.472421 
L 412.000775 270.140239 
L 434.134302 287.166595 
L 456.267829 291.621165 
L 456.267829 291.621165 
" clip-path="url(#pe9fb88bdea)" style="fill: none; stroke: #251433; stroke-width: 2.25; stroke-linecap: round"/>
   </g>
   <g id="patch_3">
    <path d="M 81.658594 292.551178 
L 81.658594 26.084063 
" style="fill: none; stroke: #cccccc; stroke-width: 1.875; stroke-linejoin: miter; stroke-linecap: square"/>
   </g>
   <g id="patch_4">
    <path d="M 81.658594 292.551178 
L 498.153594 292.551178 
" style="fill: none; stroke: #cccccc; stroke-width: 1.875; stroke-linejoin: miter; stroke-linecap: square"/>
   </g>
   <g id="text_7">
    <!-- Lowest 10% Income -->
    <g style="fill: #262626" transform="translate(208.866719 20.084063)scale(0.18 -0.18)">
     <defs>
      <path id="ArialMT-4c" d="M 469 0 
L 469 4581 
L 1075 4581 
L 1075 541 
L 3331 541 
L 3331 0 
L 469 0 
z
" transform="scale(0.015625)"/>
      <path id="ArialMT-6f" d="M 213 1659 
Q 213 2581 725 3025 
Q 1153 3394 1769 3394 
Q 2453 3394 2887 2945 
Q 3322 2497 3322 1706 
Q 3322 1066 3130 698 
Q 2938 331 2570 128 
Q 2203 -75 1769 -75 
Q 1072 -75 642 372 
Q 213 819 213 1659 
z
M 791 1659 
Q 791 1022 1069 705 
Q 1347 388 1769 388 
Q 2188 388 2466 706 
Q 2744 1025 2744 1678 
Q 2744 2294 2464 2611 
Q 2184 2928 1769 2928 
Q 1347 2928 1069 2612 
Q 791 2297 791 1659 
z
" transform="scale(0.015625)"/>
      <path id="ArialMT-77" d="M 1034 0 
L 19 3319 
L 600 3319 
L 1128 1403 
L 1325 691 
Q 1338 744 1497 1375 
L 2025 3319 
L 2603 3319 
L 3100 1394 
L 3266 759 
L 3456 1400 
L 4025 3319 
L 4572 3319 
L 3534 0 
L 2950 0 
L 2422 1988 
L 2294 2553 
L 1622 0 
L 1034 0 
z
" transform="scale(0.015625)"/>
      <path id="ArialMT-25" d="M 372 3481 
Q 372 3972 619 4315 
Q 866 4659 1334 4659 
Q 1766 4659 2048 4351 
Q 2331 4044 2331 3447 
Q 2331 2866 2045 2552 
Q 1759 2238 1341 2238 
Q 925 2238 648 2547 
Q 372 2856 372 3481 
z
M 1350 4272 
Q 1141 4272 1002 4090 
Q 863 3909 863 3425 
Q 863 2984 1003 2804 
Q 1144 2625 1350 2625 
Q 1563 2625 1702 2806 
Q 1841 2988 1841 3469 
Q 1841 3913 1700 4092 
Q 1559 4272 1350 4272 
z
M 1353 -169 
L 3859 4659 
L 4316 4659 
L 1819 -169 
L 1353 -169 
z
M 3334 1075 
Q 3334 1569 3581 1911 
Q 3828 2253 4300 2253 
Q 4731 2253 5014 1945 
Q 5297 1638 5297 1041 
Q 5297 459 5011 145 
Q 4725 -169 4303 -169 
Q 3888 -169 3611 142 
Q 3334 453 3334 1075 
z
M 4316 1866 
Q 4103 1866 3964 1684 
Q 3825 1503 3825 1019 
Q 3825 581 3965 400 
Q 4106 219 4313 219 
Q 4528 219 4667 400 
Q 4806 581 4806 1063 
Q 4806 1506 4665 1686 
Q 4525 1866 4316 1866 
z
" transform="scale(0.015625)"/>
      <path id="ArialMT-49" d="M 597 0 
L 597 4581 
L 1203 4581 
L 1203 0 
L 597 0 
z
" transform="scale(0.015625)"/>
      <path id="ArialMT-6d" d="M 422 0 
L 422 3319 
L 925 3319 
L 925 2853 
Q 1081 3097 1340 3245 
Q 1600 3394 1931 3394 
Q 2300 3394 2536 3241 
Q 2772 3088 2869 2813 
Q 3263 3394 3894 3394 
Q 4388 3394 4653 3120 
Q 4919 2847 4919 2278 
L 4919 0 
L 4359 0 
L 4359 2091 
Q 4359 2428 4304 2576 
Q 4250 2725 4106 2815 
Q 3963 2906 3769 2906 
Q 3419 2906 3187 2673 
Q 2956 2441 2956 1928 
L 2956 0 
L 2394 0 
L 2394 2156 
Q 2394 2531 2256 2718 
Q 2119 2906 1806 2906 
Q 1569 2906 1367 2781 
Q 1166 2656 1075 2415 
Q 984 2175 984 1722 
L 984 0 
L 422 0 
z
" transform="scale(0.015625)"/>
     </defs>
     <use xlink:href="#ArialMT-4c"/>
     <use xlink:href="#ArialMT-6f" x="55.615234"/>
     <use xlink:href="#ArialMT-77" x="111.230469"/>
     <use xlink:href="#ArialMT-65" x="183.447266"/>
     <use xlink:href="#ArialMT-73" x="239.0625"/>
     <use xlink:href="#ArialMT-74" x="289.0625"/>
     <use xlink:href="#ArialMT-20" x="316.845703"/>
     <use xlink:href="#ArialMT-31" x="344.628906"/>
     <use xlink:href="#ArialMT-30" x="400.244141"/>
     <use xlink:href="#ArialMT-25" x="455.859375"/>
     <use xlink:href="#ArialMT-20" x="544.775391"/>
     <use xlink:href="#ArialMT-49" x="572.558594"/>
     <use xlink:href="#ArialMT-6e" x="600.341797"/>
     <use xlink:href="#ArialMT-63" x="655.957031"/>
     <use xlink:href="#ArialMT-6f" x="705.957031"/>
     <use xlink:href="#ArialMT-6d" x="761.572266"/>
     <use xlink:href="#ArialMT-65" x="844.873047"/>
    </g>
   </g>
  </g>
  <g id="axes_2">
   <g id="patch_5">
    <path d="M 81.658594 604.878438 
L 498.153594 604.878438 
L 498.153594 338.411322 
L 81.658594 338.411322 
z
" style="fill: #ffffff"/>
   </g>
   <g id="matplotlib.axis_3">
    <g id="xtick_7">
     <g id="line2d_21">
      <path d="M 81.658594 604.878438 
L 81.658594 338.411322 
" clip-path="url(#pb7f22d329d)" style="fill: none; stroke: #cccccc; stroke-width: 1.5; stroke-linecap: round"/>
     </g>
     <g id="text_8">
      <!-- −600 -->
      <g style="fill: #262626" transform="translate(63.076758 629.188828)scale(0.165 -0.165)">
       <defs>
        <path id="ArialMT-2212" d="M 3381 1997 
L 356 1997 
L 356 2522 
L 3381 2522 
L 3381 1997 
z
" transform="scale(0.015625)"/>
        <path id="ArialMT-36" d="M 3184 3459 
L 2625 3416 
Q 2550 3747 2413 3897 
Q 2184 4138 1850 4138 
Q 1581 4138 1378 3988 
Q 1113 3794 959 3422 
Q 806 3050 800 2363 
Q 1003 2672 1297 2822 
Q 1591 2972 1913 2972 
Q 2475 2972 2870 2558 
Q 3266 2144 3266 1488 
Q 3266 1056 3080 686 
Q 2894 316 2569 119 
Q 2244 -78 1831 -78 
Q 1128 -78 684 439 
Q 241 956 241 2144 
Q 241 3472 731 4075 
Q 1159 4600 1884 4600 
Q 2425 4600 2770 4297 
Q 3116 3994 3184 3459 
z
M 888 1484 
Q 888 1194 1011 928 
Q 1134 663 1356 523 
Q 1578 384 1822 384 
Q 2178 384 2434 671 
Q 2691 959 2691 1453 
Q 2691 1928 2437 2201 
Q 2184 2475 1800 2475 
Q 1419 2475 1153 2201 
Q 888 1928 888 1484 
z
" transform="scale(0.015625)"/>
       </defs>
       <use xlink:href="#ArialMT-2212"/>
       <use xlink:href="#ArialMT-36" x="58.398438"/>
       <use xlink:href="#ArialMT-30" x="114.013672"/>
       <use xlink:href="#ArialMT-30" x="169.628906"/>
      </g>
     </g>
    </g>
    <g id="xtick_8">
     <g id="line2d_22">
      <path d="M 164.957594 604.878438 
L 164.957594 338.411322 
" clip-path="url(#pb7f22d329d)" style="fill: none; stroke: #cccccc; stroke-width: 1.5; stroke-linecap: round"/>
     </g>
     <g id="text_9">
      <!-- −400 -->
      <g style="fill: #262626" transform="translate(146.375758 629.188828)scale(0.165 -0.165)">
       <use xlink:href="#ArialMT-2212"/>
       <use xlink:href="#ArialMT-34" x="58.398438"/>
       <use xlink:href="#ArialMT-30" x="114.013672"/>
       <use xlink:href="#ArialMT-30" x="169.628906"/>
      </g>
     </g>
    </g>
    <g id="xtick_9">
     <g id="line2d_23">
      <path d="M 248.256594 604.878438 
L 248.256594 338.411322 
" clip-path="url(#pb7f22d329d)" style="fill: none; stroke: #cccccc; stroke-width: 1.5; stroke-linecap: round"/>
     </g>
     <g id="text_10">
      <!-- −200 -->
      <g style="fill: #262626" transform="translate(229.674758 629.188828)scale(0.165 -0.165)">
       <use xlink:href="#ArialMT-2212"/>
       <use xlink:href="#ArialMT-32" x="58.398438"/>
       <use xlink:href="#ArialMT-30" x="114.013672"/>
       <use xlink:href="#ArialMT-30" x="169.628906"/>
      </g>
     </g>
    </g>
    <g id="xtick_10">
     <g id="line2d_24">
      <path d="M 331.555594 604.878438 
L 331.555594 338.411322 
" clip-path="url(#pb7f22d329d)" style="fill: none; stroke: #cccccc; stroke-width: 1.5; stroke-linecap: round"/>
     </g>
     <g id="text_11">
      <!-- 0 -->
      <g style="fill: #262626" transform="translate(326.96782 629.188828)scale(0.165 -0.165)">
       <use xlink:href="#ArialMT-30"/>
      </g>
     </g>
    </g>
    <g id="xtick_11">
     <g id="line2d_25">
      <path d="M 414.854594 604.878438 
L 414.854594 338.411322 
" clip-path="url(#pb7f22d329d)" style="fill: none; stroke: #cccccc; stroke-width: 1.5; stroke-linecap: round"/>
     </g>
     <g id="text_12">
      <!-- 200 -->
      <g style="fill: #262626" transform="translate(401.091273 629.188828)scale(0.165 -0.165)">
       <use xlink:href="#ArialMT-32"/>
       <use xlink:href="#ArialMT-30" x="55.615234"/>
       <use xlink:href="#ArialMT-30" x="111.230469"/>
      </g>
     </g>
    </g>
    <g id="xtick_12">
     <g id="line2d_26">
      <path d="M 498.153594 604.878438 
L 498.153594 338.411322 
" clip-path="url(#pb7f22d329d)" style="fill: none; stroke: #cccccc; stroke-width: 1.5; stroke-linecap: round"/>
     </g>
     <g id="text_13">
      <!-- 400 -->
      <g style="fill: #262626" transform="translate(484.390273 629.188828)scale(0.165 -0.165)">
       <use xlink:href="#ArialMT-34"/>
       <use xlink:href="#ArialMT-30" x="55.615234"/>
       <use xlink:href="#ArialMT-30" x="111.230469"/>
      </g>
     </g>
    </g>
    <g id="text_14">
     <!-- Social INEXUS in dollar -->
     <g style="fill: #262626" transform="translate(195.368125 649.352266)scale(0.18 -0.18)">
      <defs>
       <path id="ArialMT-53" d="M 288 1472 
L 859 1522 
Q 900 1178 1048 958 
Q 1197 738 1509 602 
Q 1822 466 2213 466 
Q 2559 466 2825 569 
Q 3091 672 3220 851 
Q 3350 1031 3350 1244 
Q 3350 1459 3225 1620 
Q 3100 1781 2813 1891 
Q 2628 1963 1997 2114 
Q 1366 2266 1113 2400 
Q 784 2572 623 2826 
Q 463 3081 463 3397 
Q 463 3744 659 4045 
Q 856 4347 1234 4503 
Q 1613 4659 2075 4659 
Q 2584 4659 2973 4495 
Q 3363 4331 3572 4012 
Q 3781 3694 3797 3291 
L 3216 3247 
Q 3169 3681 2898 3903 
Q 2628 4125 2100 4125 
Q 1550 4125 1298 3923 
Q 1047 3722 1047 3438 
Q 1047 3191 1225 3031 
Q 1400 2872 2139 2705 
Q 2878 2538 3153 2413 
Q 3553 2228 3743 1945 
Q 3934 1663 3934 1294 
Q 3934 928 3725 604 
Q 3516 281 3123 101 
Q 2731 -78 2241 -78 
Q 1619 -78 1198 103 
Q 778 284 539 648 
Q 300 1013 288 1472 
z
" transform="scale(0.015625)"/>
       <path id="ArialMT-61" d="M 2588 409 
Q 2275 144 1986 34 
Q 1697 -75 1366 -75 
Q 819 -75 525 192 
Q 231 459 231 875 
Q 231 1119 342 1320 
Q 453 1522 633 1644 
Q 813 1766 1038 1828 
Q 1203 1872 1538 1913 
Q 2219 1994 2541 2106 
Q 2544 2222 2544 2253 
Q 2544 2597 2384 2738 
Q 2169 2928 1744 2928 
Q 1347 2928 1158 2789 
Q 969 2650 878 2297 
L 328 2372 
Q 403 2725 575 2942 
Q 747 3159 1072 3276 
Q 1397 3394 1825 3394 
Q 2250 3394 2515 3294 
Q 2781 3194 2906 3042 
Q 3031 2891 3081 2659 
Q 3109 2516 3109 2141 
L 3109 1391 
Q 3109 606 3145 398 
Q 3181 191 3288 0 
L 2700 0 
Q 2613 175 2588 409 
z
M 2541 1666 
Q 2234 1541 1622 1453 
Q 1275 1403 1131 1340 
Q 988 1278 909 1158 
Q 831 1038 831 891 
Q 831 666 1001 516 
Q 1172 366 1500 366 
Q 1825 366 2078 508 
Q 2331 650 2450 897 
Q 2541 1088 2541 1459 
L 2541 1666 
z
" transform="scale(0.015625)"/>
       <path id="ArialMT-6c" d="M 409 0 
L 409 4581 
L 972 4581 
L 972 0 
L 409 0 
z
" transform="scale(0.015625)"/>
       <path id="ArialMT-4e" d="M 488 0 
L 488 4581 
L 1109 4581 
L 3516 984 
L 3516 4581 
L 4097 4581 
L 4097 0 
L 3475 0 
L 1069 3600 
L 1069 0 
L 488 0 
z
" transform="scale(0.015625)"/>
       <path id="ArialMT-45" d="M 506 0 
L 506 4581 
L 3819 4581 
L 3819 4041 
L 1113 4041 
L 1113 2638 
L 3647 2638 
L 3647 2100 
L 1113 2100 
L 1113 541 
L 3925 541 
L 3925 0 
L 506 0 
z
" transform="scale(0.015625)"/>
       <path id="ArialMT-58" d="M 28 0 
L 1800 2388 
L 238 4581 
L 959 4581 
L 1791 3406 
Q 2050 3041 2159 2844 
Q 2313 3094 2522 3366 
L 3444 4581 
L 4103 4581 
L 2494 2422 
L 4228 0 
L 3478 0 
L 2325 1634 
Q 2228 1775 2125 1941 
Q 1972 1691 1906 1597 
L 756 0 
L 28 0 
z
" transform="scale(0.015625)"/>
       <path id="ArialMT-55" d="M 3500 4581 
L 4106 4581 
L 4106 1934 
Q 4106 1244 3950 837 
Q 3794 431 3386 176 
Q 2978 -78 2316 -78 
Q 1672 -78 1262 144 
Q 853 366 678 786 
Q 503 1206 503 1934 
L 503 4581 
L 1109 4581 
L 1109 1938 
Q 1109 1341 1220 1058 
Q 1331 775 1601 622 
Q 1872 469 2263 469 
Q 2931 469 3215 772 
Q 3500 1075 3500 1938 
L 3500 4581 
z
" transform="scale(0.015625)"/>
       <path id="ArialMT-64" d="M 2575 0 
L 2575 419 
Q 2259 -75 1647 -75 
Q 1250 -75 917 144 
Q 584 363 401 755 
Q 219 1147 219 1656 
Q 219 2153 384 2558 
Q 550 2963 881 3178 
Q 1213 3394 1622 3394 
Q 1922 3394 2156 3267 
Q 2391 3141 2538 2938 
L 2538 4581 
L 3097 4581 
L 3097 0 
L 2575 0 
z
M 797 1656 
Q 797 1019 1065 703 
Q 1334 388 1700 388 
Q 2069 388 2326 689 
Q 2584 991 2584 1609 
Q 2584 2291 2321 2609 
Q 2059 2928 1675 2928 
Q 1300 2928 1048 2622 
Q 797 2316 797 1656 
z
" transform="scale(0.015625)"/>
      </defs>
      <use xlink:href="#ArialMT-53"/>
      <use xlink:href="#ArialMT-6f" x="66.699219"/>
      <use xlink:href="#ArialMT-63" x="122.314453"/>
      <use xlink:href="#ArialMT-69" x="172.314453"/>
      <use xlink:href="#ArialMT-61" x="194.53125"/>
      <use xlink:href="#ArialMT-6c" x="250.146484"/>
      <use xlink:href="#ArialMT-20" x="272.363281"/>
      <use xlink:href="#ArialMT-49" x="300.146484"/>
      <use xlink:href="#ArialMT-4e" x="327.929688"/>
      <use xlink:href="#ArialMT-45" x="400.146484"/>
      <use xlink:href="#ArialMT-58" x="466.845703"/>
      <use xlink:href="#ArialMT-55" x="533.544922"/>
      <use xlink:href="#ArialMT-53" x="605.761719"/>
      <use xlink:href="#ArialMT-20" x="672.460938"/>
      <use xlink:href="#ArialMT-69" x="700.244141"/>
      <use xlink:href="#ArialMT-6e" x="722.460938"/>
      <use xlink:href="#ArialMT-20" x="778.076172"/>
      <use xlink:href="#ArialMT-64" x="805.859375"/>
      <use xlink:href="#ArialMT-6f" x="861.474609"/>
      <use xlink:href="#ArialMT-6c" x="917.089844"/>
      <use xlink:href="#ArialMT-6c" x="939.306641"/>
      <use xlink:href="#ArialMT-61" x="961.523438"/>
      <use xlink:href="#ArialMT-72" x="1017.138672"/>
     </g>
    </g>
   </g>
   <g id="matplotlib.axis_4">
    <g id="ytick_6">
     <g id="line2d_27">
      <path d="M 81.658594 604.878438 
L 498.153594 604.878438 
" clip-path="url(#pb7f22d329d)" style="fill: none; stroke: #cccccc; stroke-width: 1.5; stroke-linecap: round"/>
     </g>
     <g id="text_15">
      <!-- 0.000 -->
      <g style="fill: #262626" transform="translate(27.8725 610.783633)scale(0.165 -0.165)">
       <use xlink:href="#ArialMT-30"/>
       <use xlink:href="#ArialMT-2e" x="55.615234"/>
       <use xlink:href="#ArialMT-30" x="83.398438"/>
       <use xlink:href="#ArialMT-30" x="139.013672"/>
       <use xlink:href="#ArialMT-30" x="194.628906"/>
      </g>
     </g>
    </g>
    <g id="ytick_7">
     <g id="line2d_28">
      <path d="M 81.658594 545.593916 
L 498.153594 545.593916 
" clip-path="url(#pb7f22d329d)" style="fill: none; stroke: #cccccc; stroke-width: 1.5; stroke-linecap: round"/>
     </g>
     <g id="text_16">
      <!-- 0.001 -->
      <g style="fill: #262626" transform="translate(27.8725 551.499111)scale(0.165 -0.165)">
       <use xlink:href="#ArialMT-30"/>
       <use xlink:href="#ArialMT-2e" x="55.615234"/>
       <use xlink:href="#ArialMT-30" x="83.398438"/>
       <use xlink:href="#ArialMT-30" x="139.013672"/>
       <use xlink:href="#ArialMT-31" x="194.628906"/>
      </g>
     </g>
    </g>
    <g id="ytick_8">
     <g id="line2d_29">
      <path d="M 81.658594 486.309394 
L 498.153594 486.309394 
" clip-path="url(#pb7f22d329d)" style="fill: none; stroke: #cccccc; stroke-width: 1.5; stroke-linecap: round"/>
     </g>
     <g id="text_17">
      <!-- 0.002 -->
      <g style="fill: #262626" transform="translate(27.8725 492.214589)scale(0.165 -0.165)">
       <use xlink:href="#ArialMT-30"/>
       <use xlink:href="#ArialMT-2e" x="55.615234"/>
       <use xlink:href="#ArialMT-30" x="83.398438"/>
       <use xlink:href="#ArialMT-30" x="139.013672"/>
       <use xlink:href="#ArialMT-32" x="194.628906"/>
      </g>
     </g>
    </g>
    <g id="ytick_9">
     <g id="line2d_30">
      <path d="M 81.658594 427.024872 
L 498.153594 427.024872 
" clip-path="url(#pb7f22d329d)" style="fill: none; stroke: #cccccc; stroke-width: 1.5; stroke-linecap: round"/>
     </g>
     <g id="text_18">
      <!-- 0.003 -->
      <g style="fill: #262626" transform="translate(27.8725 432.930068)scale(0.165 -0.165)">
       <use xlink:href="#ArialMT-30"/>
       <use xlink:href="#ArialMT-2e" x="55.615234"/>
       <use xlink:href="#ArialMT-30" x="83.398438"/>
       <use xlink:href="#ArialMT-30" x="139.013672"/>
       <use xlink:href="#ArialMT-33" x="194.628906"/>
      </g>
     </g>
    </g>
    <g id="ytick_10">
     <g id="line2d_31">
      <path d="M 81.658594 367.740351 
L 498.153594 367.740351 
" clip-path="url(#pb7f22d329d)" style="fill: none; stroke: #cccccc; stroke-width: 1.5; stroke-linecap: round"/>
     </g>
     <g id="text_19">
      <!-- 0.004 -->
      <g style="fill: #262626" transform="translate(27.8725 373.645546)scale(0.165 -0.165)">
       <use xlink:href="#ArialMT-30"/>
       <use xlink:href="#ArialMT-2e" x="55.615234"/>
       <use xlink:href="#ArialMT-30" x="83.398438"/>
       <use xlink:href="#ArialMT-30" x="139.013672"/>
       <use xlink:href="#ArialMT-34" x="194.628906"/>
      </g>
     </g>
    </g>
    <g id="text_20">
     <!-- Frequency Density -->
     <g style="fill: #262626" transform="translate(20.084063 546.672536)rotate(-90)scale(0.18 -0.18)">
      <use xlink:href="#ArialMT-46"/>
      <use xlink:href="#ArialMT-72" x="61.083984"/>
      <use xlink:href="#ArialMT-65" x="94.384766"/>
      <use xlink:href="#ArialMT-71" x="150"/>
      <use xlink:href="#ArialMT-75" x="205.615234"/>
      <use xlink:href="#ArialMT-65" x="261.230469"/>
      <use xlink:href="#ArialMT-6e" x="316.845703"/>
      <use xlink:href="#ArialMT-63" x="372.460938"/>
      <use xlink:href="#ArialMT-79" x="422.460938"/>
      <use xlink:href="#ArialMT-20" x="472.460938"/>
      <use xlink:href="#ArialMT-44" x="500.244141"/>
      <use xlink:href="#ArialMT-65" x="572.460938"/>
      <use xlink:href="#ArialMT-6e" x="628.076172"/>
      <use xlink:href="#ArialMT-73" x="683.691406"/>
      <use xlink:href="#ArialMT-69" x="733.691406"/>
      <use xlink:href="#ArialMT-74" x="755.908203"/>
      <use xlink:href="#ArialMT-79" x="783.691406"/>
     </g>
    </g>
   </g>
   <g id="line2d_32">
    <path d="M -1 604.243724 
L 29.661625 604.112784 
L 52.872112 603.924083 
L 76.082599 603.530176 
L 99.293086 602.655845 
L 122.503572 600.763734 
L 145.714059 596.952312 
L 168.924546 589.965442 
L 192.135033 578.459503 
L 215.345519 561.616783 
L 238.556006 539.980072 
L 261.766493 516.086432 
L 284.976979 494.338304 
L 308.187466 479.817295 
L 331.397953 476.390442 
L 354.60844 485.053958 
L 377.818926 503.476593 
L 424.2399 550.655322 
L 447.450387 570.623794 
L 470.660873 585.251586 
L 493.87136 594.67956 
L 517.081847 600.072212 
L 540.292334 602.824491 
L 563.50282 604.082473 
L 563.50282 604.082473 
" clip-path="url(#pb7f22d329d)" style="fill: none; stroke: #f7c6a6; stroke-width: 2.25; stroke-linecap: round"/>
   </g>
   <g id="line2d_33">
    <path d="M -1 604.483424 
L 28.907171 604.378123 
L 52.107994 604.21382 
L 75.308817 603.856409 
L 98.50964 603.04241 
L 121.710463 601.250306 
L 144.911286 597.590588 
L 168.11211 590.799345 
L 191.312933 579.486924 
L 214.513756 562.745168 
L 237.714579 541.00516 
L 260.915402 516.726035 
L 284.116225 494.327779 
L 307.317048 479.028922 
L 330.517872 474.90894 
L 353.718695 483.156627 
L 376.919518 501.524492 
L 400.120341 525.327373 
L 423.321164 549.38076 
L 446.521987 569.788985 
L 469.72281 584.772542 
L 492.923634 594.438604 
L 516.124457 599.96631 
L 539.32528 602.784144 
L 562.526103 604.069369 
L 562.526103 604.069369 
" clip-path="url(#pb7f22d329d)" style="fill: none; stroke: #f69c73; stroke-width: 2.25; stroke-linecap: round"/>
   </g>
   <g id="line2d_34">
    <path d="M -1 604.597138 
L 48.793251 604.397907 
L 71.950497 604.135314 
L 95.107743 603.521087 
L 118.264989 602.107227 
L 141.422235 599.076299 
L 164.579481 593.177827 
L 187.736727 582.896782 
L 210.893973 567.00979 
L 234.051219 545.497319 
L 257.208465 520.427817 
L 280.36571 496.150559 
L 303.522956 478.28102 
L 326.680202 471.648802 
L 349.837448 478.196981 
L 372.994694 496.070492 
L 396.15194 520.47209 
L 419.309186 545.748407 
L 442.466432 567.47392 
L 465.623678 583.513778 
L 488.780924 593.860437 
L 511.93817 599.748315 
L 535.095416 602.7219 
L 558.252662 604.060012 
L 558.252662 604.060012 
" clip-path="url(#pb7f22d329d)" style="fill: none; stroke: #f3714d; stroke-width: 2.25; stroke-linecap: round"/>
   </g>
   <g id="line2d_35">
    <path d="M -1 604.685551 
L 27.410989 604.618843 
L 50.591706 604.495637 
L 73.772424 604.204628 
L 96.953141 603.506202 
L 120.133859 601.91124 
L 143.314576 598.558363 
L 166.495294 592.179202 
L 189.676012 581.310735 
L 212.856729 564.884283 
L 236.037447 543.117665 
L 259.218164 518.30255 
L 282.398882 494.857988 
L 305.579599 478.226139 
L 328.760317 472.865335 
L 351.941035 480.32416 
L 375.121752 498.524543 
L 398.30247 522.702916 
L 421.483187 547.429318 
L 444.663905 568.541827 
L 467.844622 584.086201 
L 491.02534 594.115408 
L 514.206058 599.838455 
L 537.386775 602.743565 
L 560.567493 604.060439 
L 560.567493 604.060439 
" clip-path="url(#pb7f22d329d)" style="fill: none; stroke: #e83f3f; stroke-width: 2.25; stroke-linecap: round"/>
   </g>
   <g id="line2d_36">
    <path d="M -1 604.76066 
L 45.105929 604.649727 
L 68.216051 604.475514 
L 91.326174 604.037368 
L 114.436296 602.966102 
L 137.546418 600.539554 
L 160.656541 595.564125 
L 183.766663 586.447524 
L 206.876786 571.666327 
L 229.986908 550.691775 
L 253.097031 525.065174 
L 276.207153 498.91156 
L 299.317275 478.17359 
L 322.427398 468.510508 
L 345.53752 472.815906 
L 368.647643 489.825657 
L 391.757765 514.722016 
L 414.867888 541.341051 
L 437.97801 564.610547 
L 461.088132 581.929765 
L 484.198255 593.118533 
L 507.308377 599.459923 
L 530.4185 602.633662 
L 553.528622 604.042314 
L 553.528622 604.042314 
" clip-path="url(#pb7f22d329d)" style="fill: none; stroke: #ca1a50; stroke-width: 2.25; stroke-linecap: round"/>
   </g>
   <g id="line2d_37">
    <path d="M -1 604.773941 
L 42.264507 604.685495 
L 65.338495 604.548266 
L 88.412483 604.203572 
L 111.486471 603.34108 
L 134.560459 601.31937 
L 157.634447 597.013569 
L 180.708435 588.815017 
L 203.782423 575.013077 
L 226.856411 554.69701 
L 249.930399 528.950078 
L 273.004387 501.619483 
L 296.078375 478.796684 
L 319.152363 466.74373 
L 342.226351 469.138664 
L 365.300339 485.272747 
L 388.374327 510.394224 
L 411.448315 537.97106 
L 434.522303 562.411066 
L 457.596291 580.719796 
L 480.670279 592.561537 
L 503.744267 599.250839 
L 526.818255 602.574227 
L 549.892243 604.032991 
L 549.892243 604.032991 
" clip-path="url(#pb7f22d329d)" style="fill: none; stroke: #a11a5b; stroke-width: 2.25; stroke-linecap: round"/>
   </g>
   <g id="line2d_38">
    <path d="M -1 604.768415 
L 43.497727 604.676334 
L 66.58707 604.527311 
L 89.676412 604.148009 
L 112.765755 603.203213 
L 135.855097 601.01619 
L 158.94444 596.429944 
L 182.033782 587.837999 
L 205.123125 573.604629 
L 228.212467 552.980798 
L 251.30181 527.251251 
L 274.391152 500.394635 
L 297.480495 478.452324 
L 320.569837 467.434406 
L 343.65918 470.677249 
L 366.748523 487.220345 
L 389.837865 512.270428 
L 412.927208 539.447403 
L 436.01655 563.384135 
L 459.105893 581.260993 
L 482.195235 592.814363 
L 505.284578 599.348077 
L 528.37392 602.603359 
L 551.463263 604.038571 
L 551.463263 604.038571 
" clip-path="url(#pb7f22d329d)" style="fill: none; stroke: #751f58; stroke-width: 2.25; stroke-linecap: round"/>
   </g>
   <g id="line2d_39">
    <path d="M -1 604.7762 
L 62.956408 604.596248 
L 85.999505 604.326337 
L 109.042602 603.631315 
L 132.085699 601.939431 
L 155.128796 598.193619 
L 178.171893 590.790194 
L 201.21499 577.878389 
L 224.258086 558.222265 
L 247.301183 532.480346 
L 270.34428 504.203266 
L 293.387377 479.562334 
L 316.430474 465.33901 
L 339.473571 465.941536 
L 362.516668 481.211031 
L 385.559765 506.492598 
L 408.602862 534.927276 
L 431.645958 560.43556 
L 454.689055 579.648044 
L 477.732152 592.080588 
L 500.775249 599.078512 
L 523.818346 602.530075 
L 546.861443 604.028958 
L 546.861443 604.028958 
" clip-path="url(#pb7f22d329d)" style="fill: none; stroke: #4c1d4b; stroke-width: 2.25; stroke-linecap: round"/>
   </g>
   <g id="line2d_40">
    <path d="M -1 604.775926 
L 41.881876 604.702352 
L 64.949943 604.578921 
L 88.01801 604.257373 
L 111.086076 603.435846 
L 134.154143 601.484386 
L 157.22221 597.287118 
L 180.290276 589.230512 
L 203.358343 575.572026 
L 226.42641 555.339012 
L 249.494476 529.543136 
L 272.562543 501.99277 
L 295.63061 478.812692 
L 318.698677 466.371445 
L 341.766743 468.477244 
L 364.83481 484.505228 
L 387.902877 509.70127 
L 410.970943 537.460753 
L 434.03901 562.101118 
L 457.107077 580.566369 
L 480.175144 592.502579 
L 503.24321 599.236151 
L 526.311277 602.574631 
L 549.379344 604.036004 
L 549.379344 604.036004 
" clip-path="url(#pb7f22d329d)" style="fill: none; stroke: #251433; stroke-width: 2.25; stroke-linecap: round"/>
   </g>
   <g id="patch_6">
    <path d="M 81.658594 604.878438 
L 81.658594 338.411322 
" style="fill: none; stroke: #cccccc; stroke-width: 1.875; stroke-linejoin: miter; stroke-linecap: square"/>
   </g>
   <g id="patch_7">
    <path d="M 81.658594 604.878438 
L 498.153594 604.878438 
" style="fill: none; stroke: #cccccc; stroke-width: 1.875; stroke-linejoin: miter; stroke-linecap: square"/>
   </g>
   <g id="text_21">
    <!-- Highest 10% Income -->
    <g style="fill: #262626" transform="translate(206.867031 332.411322)scale(0.18 -0.18)">
     <defs>
      <path id="ArialMT-48" d="M 513 0 
L 513 4581 
L 1119 4581 
L 1119 2700 
L 3500 2700 
L 3500 4581 
L 4106 4581 
L 4106 0 
L 3500 0 
L 3500 2159 
L 1119 2159 
L 1119 0 
L 513 0 
z
" transform="scale(0.015625)"/>
      <path id="ArialMT-67" d="M 319 -275 
L 866 -356 
Q 900 -609 1056 -725 
Q 1266 -881 1628 -881 
Q 2019 -881 2231 -725 
Q 2444 -569 2519 -288 
Q 2563 -116 2559 434 
Q 2191 0 1641 0 
Q 956 0 581 494 
Q 206 988 206 1678 
Q 206 2153 378 2554 
Q 550 2956 876 3175 
Q 1203 3394 1644 3394 
Q 2231 3394 2613 2919 
L 2613 3319 
L 3131 3319 
L 3131 450 
Q 3131 -325 2973 -648 
Q 2816 -972 2473 -1159 
Q 2131 -1347 1631 -1347 
Q 1038 -1347 672 -1080 
Q 306 -813 319 -275 
z
M 784 1719 
Q 784 1066 1043 766 
Q 1303 466 1694 466 
Q 2081 466 2343 764 
Q 2606 1063 2606 1700 
Q 2606 2309 2336 2618 
Q 2066 2928 1684 2928 
Q 1309 2928 1046 2623 
Q 784 2319 784 1719 
z
" transform="scale(0.015625)"/>
      <path id="ArialMT-68" d="M 422 0 
L 422 4581 
L 984 4581 
L 984 2938 
Q 1378 3394 1978 3394 
Q 2347 3394 2619 3248 
Q 2891 3103 3008 2847 
Q 3125 2591 3125 2103 
L 3125 0 
L 2563 0 
L 2563 2103 
Q 2563 2525 2380 2717 
Q 2197 2909 1863 2909 
Q 1613 2909 1392 2779 
Q 1172 2650 1078 2428 
Q 984 2206 984 1816 
L 984 0 
L 422 0 
z
" transform="scale(0.015625)"/>
     </defs>
     <use xlink:href="#ArialMT-48"/>
     <use xlink:href="#ArialMT-69" x="72.216797"/>
     <use xlink:href="#ArialMT-67" x="94.433594"/>
     <use xlink:href="#ArialMT-68" x="150.048828"/>
     <use xlink:href="#ArialMT-65" x="205.664062"/>
     <use xlink:href="#ArialMT-73" x="261.279297"/>
     <use xlink:href="#ArialMT-74" x="311.279297"/>
     <use xlink:href="#ArialMT-20" x="339.0625"/>
     <use xlink:href="#ArialMT-31" x="366.845703"/>
     <use xlink:href="#ArialMT-30" x="422.460938"/>
     <use xlink:href="#ArialMT-25" x="478.076172"/>
     <use xlink:href="#ArialMT-20" x="566.992188"/>
     <use xlink:href="#ArialMT-49" x="594.775391"/>
     <use xlink:href="#ArialMT-6e" x="622.558594"/>
     <use xlink:href="#ArialMT-63" x="678.173828"/>
     <use xlink:href="#ArialMT-6f" x="728.173828"/>
     <use xlink:href="#ArialMT-6d" x="783.789062"/>
     <use xlink:href="#ArialMT-65" x="867.089844"/>
    </g>
   </g>
   <g id="legend_1">
    <g id="patch_8">
     <path d="M 518.331031 588.921911 
L 672.976344 588.921911 
Q 676.576344 588.921911 676.576344 585.321911 
L 676.576344 357.967848 
Q 676.576344 354.367848 672.976344 354.367848 
L 518.331031 354.367848 
Q 514.731031 354.367848 514.731031 357.967848 
L 514.731031 585.321911 
Q 514.731031 588.921911 518.331031 588.921911 
z
" style="fill: #ffffff; opacity: 0.8; stroke: #cccccc; stroke-width: 1.5; stroke-linejoin: miter"/>
    </g>
    <g id="line2d_41">
     <path d="M 521.931031 368.151911 
L 539.931031 368.151911 
L 557.931031 368.151911 
" style="fill: none; stroke: #f7c6a6; stroke-width: 2.25; stroke-linecap: round"/>
    </g>
    <g id="text_22">
     <!-- 0% Price -->
     <g style="fill: #262626" transform="translate(572.331031 374.451911)scale(0.18 -0.18)">
      <defs>
       <path id="ArialMT-50" d="M 494 0 
L 494 4581 
L 2222 4581 
Q 2678 4581 2919 4538 
Q 3256 4481 3484 4323 
Q 3713 4166 3852 3881 
Q 3991 3597 3991 3256 
Q 3991 2672 3619 2267 
Q 3247 1863 2275 1863 
L 1100 1863 
L 1100 0 
L 494 0 
z
M 1100 2403 
L 2284 2403 
Q 2872 2403 3119 2622 
Q 3366 2841 3366 3238 
Q 3366 3525 3220 3729 
Q 3075 3934 2838 4000 
Q 2684 4041 2272 4041 
L 1100 4041 
L 1100 2403 
z
" transform="scale(0.015625)"/>
      </defs>
      <use xlink:href="#ArialMT-30"/>
      <use xlink:href="#ArialMT-25" x="55.615234"/>
      <use xlink:href="#ArialMT-20" x="144.53125"/>
      <use xlink:href="#ArialMT-50" x="172.314453"/>
      <use xlink:href="#ArialMT-72" x="239.013672"/>
      <use xlink:href="#ArialMT-69" x="272.314453"/>
      <use xlink:href="#ArialMT-63" x="294.53125"/>
      <use xlink:href="#ArialMT-65" x="344.53125"/>
     </g>
    </g>
    <g id="line2d_42">
     <path d="M 521.931031 393.613473 
L 539.931031 393.613473 
L 557.931031 393.613473 
" style="fill: none; stroke: #f69c73; stroke-width: 2.25; stroke-linecap: round"/>
    </g>
    <g id="text_23">
     <!-- 12.5% Price -->
     <g style="fill: #262626" transform="translate(572.331031 399.913473)scale(0.18 -0.18)">
      <defs>
       <path id="ArialMT-35" d="M 266 1200 
L 856 1250 
Q 922 819 1161 601 
Q 1400 384 1738 384 
Q 2144 384 2425 690 
Q 2706 997 2706 1503 
Q 2706 1984 2436 2262 
Q 2166 2541 1728 2541 
Q 1456 2541 1237 2417 
Q 1019 2294 894 2097 
L 366 2166 
L 809 4519 
L 3088 4519 
L 3088 3981 
L 1259 3981 
L 1013 2750 
Q 1425 3038 1878 3038 
Q 2478 3038 2890 2622 
Q 3303 2206 3303 1553 
Q 3303 931 2941 478 
Q 2500 -78 1738 -78 
Q 1113 -78 717 272 
Q 322 622 266 1200 
z
" transform="scale(0.015625)"/>
      </defs>
      <use xlink:href="#ArialMT-31"/>
      <use xlink:href="#ArialMT-32" x="55.615234"/>
      <use xlink:href="#ArialMT-2e" x="111.230469"/>
      <use xlink:href="#ArialMT-35" x="139.013672"/>
      <use xlink:href="#ArialMT-25" x="194.628906"/>
      <use xlink:href="#ArialMT-20" x="283.544922"/>
      <use xlink:href="#ArialMT-50" x="311.328125"/>
      <use xlink:href="#ArialMT-72" x="378.027344"/>
      <use xlink:href="#ArialMT-69" x="411.328125"/>
      <use xlink:href="#ArialMT-63" x="433.544922"/>
      <use xlink:href="#ArialMT-65" x="483.544922"/>
     </g>
    </g>
    <g id="line2d_43">
     <path d="M 521.931031 419.075036 
L 539.931031 419.075036 
L 557.931031 419.075036 
" style="fill: none; stroke: #f3714d; stroke-width: 2.25; stroke-linecap: round"/>
    </g>
    <g id="text_24">
     <!-- 25% Price -->
     <g style="fill: #262626" transform="translate(572.331031 425.375036)scale(0.18 -0.18)">
      <use xlink:href="#ArialMT-32"/>
      <use xlink:href="#ArialMT-35" x="55.615234"/>
      <use xlink:href="#ArialMT-25" x="111.230469"/>
      <use xlink:href="#ArialMT-20" x="200.146484"/>
      <use xlink:href="#ArialMT-50" x="227.929688"/>
      <use xlink:href="#ArialMT-72" x="294.628906"/>
      <use xlink:href="#ArialMT-69" x="327.929688"/>
      <use xlink:href="#ArialMT-63" x="350.146484"/>
      <use xlink:href="#ArialMT-65" x="400.146484"/>
     </g>
    </g>
    <g id="line2d_44">
     <path d="M 521.931031 444.536598 
L 539.931031 444.536598 
L 557.931031 444.536598 
" style="fill: none; stroke: #e83f3f; stroke-width: 2.25; stroke-linecap: round"/>
    </g>
    <g id="text_25">
     <!-- 50% Price -->
     <g style="fill: #262626" transform="translate(572.331031 450.836598)scale(0.18 -0.18)">
      <use xlink:href="#ArialMT-35"/>
      <use xlink:href="#ArialMT-30" x="55.615234"/>
      <use xlink:href="#ArialMT-25" x="111.230469"/>
      <use xlink:href="#ArialMT-20" x="200.146484"/>
      <use xlink:href="#ArialMT-50" x="227.929688"/>
      <use xlink:href="#ArialMT-72" x="294.628906"/>
      <use xlink:href="#ArialMT-69" x="327.929688"/>
      <use xlink:href="#ArialMT-63" x="350.146484"/>
      <use xlink:href="#ArialMT-65" x="400.146484"/>
     </g>
    </g>
    <g id="line2d_45">
     <path d="M 521.931031 469.998161 
L 539.931031 469.998161 
L 557.931031 469.998161 
" style="fill: none; stroke: #ca1a50; stroke-width: 2.25; stroke-linecap: round"/>
    </g>
    <g id="text_26">
     <!-- Baseline -->
     <g style="fill: #262626" transform="translate(572.331031 476.298161)scale(0.18 -0.18)">
      <defs>
       <path id="ArialMT-42" d="M 469 0 
L 469 4581 
L 2188 4581 
Q 2713 4581 3030 4442 
Q 3347 4303 3526 4014 
Q 3706 3725 3706 3409 
Q 3706 3116 3547 2856 
Q 3388 2597 3066 2438 
Q 3481 2316 3704 2022 
Q 3928 1728 3928 1328 
Q 3928 1006 3792 729 
Q 3656 453 3456 303 
Q 3256 153 2954 76 
Q 2653 0 2216 0 
L 469 0 
z
M 1075 2656 
L 2066 2656 
Q 2469 2656 2644 2709 
Q 2875 2778 2992 2937 
Q 3109 3097 3109 3338 
Q 3109 3566 3000 3739 
Q 2891 3913 2687 3977 
Q 2484 4041 1991 4041 
L 1075 4041 
L 1075 2656 
z
M 1075 541 
L 2216 541 
Q 2509 541 2628 563 
Q 2838 600 2978 687 
Q 3119 775 3209 942 
Q 3300 1109 3300 1328 
Q 3300 1584 3169 1773 
Q 3038 1963 2805 2039 
Q 2572 2116 2134 2116 
L 1075 2116 
L 1075 541 
z
" transform="scale(0.015625)"/>
      </defs>
      <use xlink:href="#ArialMT-42"/>
      <use xlink:href="#ArialMT-61" x="66.699219"/>
      <use xlink:href="#ArialMT-73" x="122.314453"/>
      <use xlink:href="#ArialMT-65" x="172.314453"/>
      <use xlink:href="#ArialMT-6c" x="227.929688"/>
      <use xlink:href="#ArialMT-69" x="250.146484"/>
      <use xlink:href="#ArialMT-6e" x="272.363281"/>
      <use xlink:href="#ArialMT-65" x="327.978516"/>
     </g>
    </g>
    <g id="line2d_46">
     <path d="M 521.931031 495.459723 
L 539.931031 495.459723 
L 557.931031 495.459723 
" style="fill: none; stroke: #a11a5b; stroke-width: 2.25; stroke-linecap: round"/>
    </g>
    <g id="text_27">
     <!-- 175% Price -->
     <g style="fill: #262626" transform="translate(572.331031 501.759723)scale(0.18 -0.18)">
      <defs>
       <path id="ArialMT-37" d="M 303 3981 
L 303 4522 
L 3269 4522 
L 3269 4084 
Q 2831 3619 2401 2847 
Q 1972 2075 1738 1259 
Q 1569 684 1522 0 
L 944 0 
Q 953 541 1156 1306 
Q 1359 2072 1739 2783 
Q 2119 3494 2547 3981 
L 303 3981 
z
" transform="scale(0.015625)"/>
      </defs>
      <use xlink:href="#ArialMT-31"/>
      <use xlink:href="#ArialMT-37" x="55.615234"/>
      <use xlink:href="#ArialMT-35" x="111.230469"/>
      <use xlink:href="#ArialMT-25" x="166.845703"/>
      <use xlink:href="#ArialMT-20" x="255.761719"/>
      <use xlink:href="#ArialMT-50" x="283.544922"/>
      <use xlink:href="#ArialMT-72" x="350.244141"/>
      <use xlink:href="#ArialMT-69" x="383.544922"/>
      <use xlink:href="#ArialMT-63" x="405.761719"/>
      <use xlink:href="#ArialMT-65" x="455.761719"/>
     </g>
    </g>
    <g id="line2d_47">
     <path d="M 521.931031 520.921286 
L 539.931031 520.921286 
L 557.931031 520.921286 
" style="fill: none; stroke: #751f58; stroke-width: 2.25; stroke-linecap: round"/>
    </g>
    <g id="text_28">
     <!-- 300% Price -->
     <g style="fill: #262626" transform="translate(572.331031 527.221286)scale(0.18 -0.18)">
      <use xlink:href="#ArialMT-33"/>
      <use xlink:href="#ArialMT-30" x="55.615234"/>
      <use xlink:href="#ArialMT-30" x="111.230469"/>
      <use xlink:href="#ArialMT-25" x="166.845703"/>
      <use xlink:href="#ArialMT-20" x="255.761719"/>
      <use xlink:href="#ArialMT-50" x="283.544922"/>
      <use xlink:href="#ArialMT-72" x="350.244141"/>
      <use xlink:href="#ArialMT-69" x="383.544922"/>
      <use xlink:href="#ArialMT-63" x="405.761719"/>
      <use xlink:href="#ArialMT-65" x="455.761719"/>
     </g>
    </g>
    <g id="line2d_48">
     <path d="M 521.931031 546.382848 
L 539.931031 546.382848 
L 557.931031 546.382848 
" style="fill: none; stroke: #4c1d4b; stroke-width: 2.25; stroke-linecap: round"/>
    </g>
    <g id="text_29">
     <!-- 500% Price -->
     <g style="fill: #262626" transform="translate(572.331031 552.682848)scale(0.18 -0.18)">
      <use xlink:href="#ArialMT-35"/>
      <use xlink:href="#ArialMT-30" x="55.615234"/>
      <use xlink:href="#ArialMT-30" x="111.230469"/>
      <use xlink:href="#ArialMT-25" x="166.845703"/>
      <use xlink:href="#ArialMT-20" x="255.761719"/>
      <use xlink:href="#ArialMT-50" x="283.544922"/>
      <use xlink:href="#ArialMT-72" x="350.244141"/>
      <use xlink:href="#ArialMT-69" x="383.544922"/>
      <use xlink:href="#ArialMT-63" x="405.761719"/>
      <use xlink:href="#ArialMT-65" x="455.761719"/>
     </g>
    </g>
    <g id="line2d_49">
     <path d="M 521.931031 571.844411 
L 539.931031 571.844411 
L 557.931031 571.844411 
" style="fill: none; stroke: #251433; stroke-width: 2.25; stroke-linecap: round"/>
    </g>
    <g id="text_30">
     <!-- 800% Price -->
     <g style="fill: #262626" transform="translate(572.331031 578.144411)scale(0.18 -0.18)">
      <defs>
       <path id="ArialMT-38" d="M 1131 2484 
Q 781 2613 612 2850 
Q 444 3088 444 3419 
Q 444 3919 803 4259 
Q 1163 4600 1759 4600 
Q 2359 4600 2725 4251 
Q 3091 3903 3091 3403 
Q 3091 3084 2923 2848 
Q 2756 2613 2416 2484 
Q 2838 2347 3058 2040 
Q 3278 1734 3278 1309 
Q 3278 722 2862 322 
Q 2447 -78 1769 -78 
Q 1091 -78 675 323 
Q 259 725 259 1325 
Q 259 1772 486 2073 
Q 713 2375 1131 2484 
z
M 1019 3438 
Q 1019 3113 1228 2906 
Q 1438 2700 1772 2700 
Q 2097 2700 2305 2904 
Q 2513 3109 2513 3406 
Q 2513 3716 2298 3927 
Q 2084 4138 1766 4138 
Q 1444 4138 1231 3931 
Q 1019 3725 1019 3438 
z
M 838 1322 
Q 838 1081 952 856 
Q 1066 631 1291 507 
Q 1516 384 1775 384 
Q 2178 384 2440 643 
Q 2703 903 2703 1303 
Q 2703 1709 2433 1975 
Q 2163 2241 1756 2241 
Q 1359 2241 1098 1978 
Q 838 1716 838 1322 
z
" transform="scale(0.015625)"/>
      </defs>
      <use xlink:href="#ArialMT-38"/>
      <use xlink:href="#ArialMT-30" x="55.615234"/>
      <use xlink:href="#ArialMT-30" x="111.230469"/>
      <use xlink:href="#ArialMT-25" x="166.845703"/>
      <use xlink:href="#ArialMT-20" x="255.761719"/>
      <use xlink:href="#ArialMT-50" x="283.544922"/>
      <use xlink:href="#ArialMT-72" x="350.244141"/>
      <use xlink:href="#ArialMT-69" x="383.544922"/>
      <use xlink:href="#ArialMT-63" x="405.761719"/>
      <use xlink:href="#ArialMT-65" x="455.761719"/>
     </g>
    </g>
   </g>
  </g>
 </g>
 <defs>
  <clipPath id="pe9fb88bdea">
   <rect x="81.658594" y="26.084063" width="416.495" height="266.467116"/>
  </clipPath>
  <clipPath id="pb7f22d329d">
   <rect x="81.658594" y="338.411322" width="416.495" height="266.467116"/>
  </clipPath>
 </defs>
</svg>
