<?xml version="1.0" encoding="utf-8" standalone="no"?>
<!DOCTYPE svg PUBLIC "-//W3C//DTD SVG 1.1//EN"
  "http://www.w3.org/Graphics/SVG/1.1/DTD/svg11.dtd">
<svg xmlns:xlink="http://www.w3.org/1999/xlink" width="1727.268047pt" height="705.596828pt" viewBox="0 0 1727.268047 705.596828" xmlns="http://www.w3.org/2000/svg" version="1.1">
 <metadata>
  <rdf:RDF xmlns:dc="http://purl.org/dc/elements/1.1/" xmlns:cc="http://creativecommons.org/ns#" xmlns:rdf="http://www.w3.org/1999/02/22-rdf-syntax-ns#">
   <cc:Work>
    <dc:type rdf:resource="http://purl.org/dc/dcmitype/StillImage"/>
    <dc:date>2023-05-02T06:54:18.056698</dc:date>
    <dc:format>image/svg+xml</dc:format>
    <dc:creator>
     <cc:Agent>
      <dc:title>Matplotlib v3.5.1, https://matplotlib.org/</dc:title>
     </cc:Agent>
    </dc:creator>
   </cc:Work>
  </rdf:RDF>
 </metadata>
 <defs>
  <style type="text/css">*{stroke-linejoin: round; stroke-linecap: butt}</style>
 </defs>
 <g id="figure_1">
  <g id="patch_1">
   <path d="M 0 705.596828 
L 1727.268047 705.596828 
L 1727.268047 0 
L 0 0 
z
" style="fill: #ffffff"/>
  </g>
  <g id="axes_1">
   <g id="patch_2">
    <path d="M 72.483047 338.018241 
L 507.228047 338.018241 
L 507.228047 71.551125 
L 72.483047 71.551125 
z
" style="fill: #ffffff"/>
   </g>
   <g id="matplotlib.axis_1">
    <g id="xtick_1">
     <g id="line2d_1">
      <path d="M 108.711797 338.018241 
L 108.711797 71.551125 
" clip-path="url(#paf4a09ca4f)" style="fill: none; stroke: #cccccc; stroke-width: 1.5; stroke-linecap: round"/>
     </g>
    </g>
    <g id="xtick_2">
     <g id="line2d_2">
      <path d="M 181.169297 338.018241 
L 181.169297 71.551125 
" clip-path="url(#paf4a09ca4f)" style="fill: none; stroke: #cccccc; stroke-width: 1.5; stroke-linecap: round"/>
     </g>
    </g>
    <g id="xtick_3">
     <g id="line2d_3">
      <path d="M 253.626797 338.018241 
L 253.626797 71.551125 
" clip-path="url(#paf4a09ca4f)" style="fill: none; stroke: #cccccc; stroke-width: 1.5; stroke-linecap: round"/>
     </g>
    </g>
    <g id="xtick_4">
     <g id="line2d_4">
      <path d="M 326.084297 338.018241 
L 326.084297 71.551125 
" clip-path="url(#paf4a09ca4f)" style="fill: none; stroke: #cccccc; stroke-width: 1.5; stroke-linecap: round"/>
     </g>
    </g>
    <g id="xtick_5">
     <g id="line2d_5">
      <path d="M 398.541797 338.018241 
L 398.541797 71.551125 
" clip-path="url(#paf4a09ca4f)" style="fill: none; stroke: #cccccc; stroke-width: 1.5; stroke-linecap: round"/>
     </g>
    </g>
    <g id="xtick_6">
     <g id="line2d_6">
      <path d="M 470.999297 338.018241 
L 470.999297 71.551125 
" clip-path="url(#paf4a09ca4f)" style="fill: none; stroke: #cccccc; stroke-width: 1.5; stroke-linecap: round"/>
     </g>
    </g>
   </g>
   <g id="matplotlib.axis_2">
    <g id="ytick_1">
     <g id="line2d_7">
      <path d="M 72.483047 338.018241 
L 507.228047 338.018241 
" clip-path="url(#paf4a09ca4f)" style="fill: none; stroke: #cccccc; stroke-width: 1.5; stroke-linecap: round"/>
     </g>
     <g id="text_1">
      <!-- 0.00 -->
      <g style="fill: #262626" transform="translate(27.8725 343.923436)scale(0.165 -0.165)">
       <defs>
        <path id="ArialMT-30" d="M 266 2259 
Q 266 3072 433 3567 
Q 600 4063 929 4331 
Q 1259 4600 1759 4600 
Q 2128 4600 2406 4451 
Q 2684 4303 2865 4023 
Q 3047 3744 3150 3342 
Q 3253 2941 3253 2259 
Q 3253 1453 3087 958 
Q 2922 463 2592 192 
Q 2263 -78 1759 -78 
Q 1097 -78 719 397 
Q 266 969 266 2259 
z
M 844 2259 
Q 844 1131 1108 757 
Q 1372 384 1759 384 
Q 2147 384 2411 759 
Q 2675 1134 2675 2259 
Q 2675 3391 2411 3762 
Q 2147 4134 1753 4134 
Q 1366 4134 1134 3806 
Q 844 3388 844 2259 
z
" transform="scale(0.015625)"/>
        <path id="ArialMT-2e" d="M 581 0 
L 581 641 
L 1222 641 
L 1222 0 
L 581 0 
z
" transform="scale(0.015625)"/>
       </defs>
       <use xlink:href="#ArialMT-30"/>
       <use xlink:href="#ArialMT-2e" x="55.615234"/>
       <use xlink:href="#ArialMT-30" x="83.398438"/>
       <use xlink:href="#ArialMT-30" x="139.013672"/>
      </g>
     </g>
    </g>
    <g id="ytick_2">
     <g id="line2d_8">
      <path d="M 72.483047 286.776021 
L 507.228047 286.776021 
" clip-path="url(#paf4a09ca4f)" style="fill: none; stroke: #cccccc; stroke-width: 1.5; stroke-linecap: round"/>
     </g>
     <g id="text_2">
      <!-- 0.02 -->
      <g style="fill: #262626" transform="translate(27.8725 292.681217)scale(0.165 -0.165)">
       <defs>
        <path id="ArialMT-32" d="M 3222 541 
L 3222 0 
L 194 0 
Q 188 203 259 391 
Q 375 700 629 1000 
Q 884 1300 1366 1694 
Q 2113 2306 2375 2664 
Q 2638 3022 2638 3341 
Q 2638 3675 2398 3904 
Q 2159 4134 1775 4134 
Q 1369 4134 1125 3890 
Q 881 3647 878 3216 
L 300 3275 
Q 359 3922 746 4261 
Q 1134 4600 1788 4600 
Q 2447 4600 2831 4234 
Q 3216 3869 3216 3328 
Q 3216 3053 3103 2787 
Q 2991 2522 2730 2228 
Q 2469 1934 1863 1422 
Q 1356 997 1212 845 
Q 1069 694 975 541 
L 3222 541 
z
" transform="scale(0.015625)"/>
       </defs>
       <use xlink:href="#ArialMT-30"/>
       <use xlink:href="#ArialMT-2e" x="55.615234"/>
       <use xlink:href="#ArialMT-30" x="83.398438"/>
       <use xlink:href="#ArialMT-32" x="139.013672"/>
      </g>
     </g>
    </g>
    <g id="ytick_3">
     <g id="line2d_9">
      <path d="M 72.483047 235.533802 
L 507.228047 235.533802 
" clip-path="url(#paf4a09ca4f)" style="fill: none; stroke: #cccccc; stroke-width: 1.5; stroke-linecap: round"/>
     </g>
     <g id="text_3">
      <!-- 0.04 -->
      <g style="fill: #262626" transform="translate(27.8725 241.438998)scale(0.165 -0.165)">
       <defs>
        <path id="ArialMT-34" d="M 2069 0 
L 2069 1097 
L 81 1097 
L 81 1613 
L 2172 4581 
L 2631 4581 
L 2631 1613 
L 3250 1613 
L 3250 1097 
L 2631 1097 
L 2631 0 
L 2069 0 
z
M 2069 1613 
L 2069 3678 
L 634 1613 
L 2069 1613 
z
" transform="scale(0.015625)"/>
       </defs>
       <use xlink:href="#ArialMT-30"/>
       <use xlink:href="#ArialMT-2e" x="55.615234"/>
       <use xlink:href="#ArialMT-30" x="83.398438"/>
       <use xlink:href="#ArialMT-34" x="139.013672"/>
      </g>
     </g>
    </g>
    <g id="ytick_4">
     <g id="line2d_10">
      <path d="M 72.483047 184.291583 
L 507.228047 184.291583 
" clip-path="url(#paf4a09ca4f)" style="fill: none; stroke: #cccccc; stroke-width: 1.5; stroke-linecap: round"/>
     </g>
     <g id="text_4">
      <!-- 0.06 -->
      <g style="fill: #262626" transform="translate(27.8725 190.196779)scale(0.165 -0.165)">
       <defs>
        <path id="ArialMT-36" d="M 3184 3459 
L 2625 3416 
Q 2550 3747 2413 3897 
Q 2184 4138 1850 4138 
Q 1581 4138 1378 3988 
Q 1113 3794 959 3422 
Q 806 3050 800 2363 
Q 1003 2672 1297 2822 
Q 1591 2972 1913 2972 
Q 2475 2972 2870 2558 
Q 3266 2144 3266 1488 
Q 3266 1056 3080 686 
Q 2894 316 2569 119 
Q 2244 -78 1831 -78 
Q 1128 -78 684 439 
Q 241 956 241 2144 
Q 241 3472 731 4075 
Q 1159 4600 1884 4600 
Q 2425 4600 2770 4297 
Q 3116 3994 3184 3459 
z
M 888 1484 
Q 888 1194 1011 928 
Q 1134 663 1356 523 
Q 1578 384 1822 384 
Q 2178 384 2434 671 
Q 2691 959 2691 1453 
Q 2691 1928 2437 2201 
Q 2184 2475 1800 2475 
Q 1419 2475 1153 2201 
Q 888 1928 888 1484 
z
" transform="scale(0.015625)"/>
       </defs>
       <use xlink:href="#ArialMT-30"/>
       <use xlink:href="#ArialMT-2e" x="55.615234"/>
       <use xlink:href="#ArialMT-30" x="83.398438"/>
       <use xlink:href="#ArialMT-36" x="139.013672"/>
      </g>
     </g>
    </g>
    <g id="ytick_5">
     <g id="line2d_11">
      <path d="M 72.483047 133.049364 
L 507.228047 133.049364 
" clip-path="url(#paf4a09ca4f)" style="fill: none; stroke: #cccccc; stroke-width: 1.5; stroke-linecap: round"/>
     </g>
     <g id="text_5">
      <!-- 0.08 -->
      <g style="fill: #262626" transform="translate(27.8725 138.954559)scale(0.165 -0.165)">
       <defs>
        <path id="ArialMT-38" d="M 1131 2484 
Q 781 2613 612 2850 
Q 444 3088 444 3419 
Q 444 3919 803 4259 
Q 1163 4600 1759 4600 
Q 2359 4600 2725 4251 
Q 3091 3903 3091 3403 
Q 3091 3084 2923 2848 
Q 2756 2613 2416 2484 
Q 2838 2347 3058 2040 
Q 3278 1734 3278 1309 
Q 3278 722 2862 322 
Q 2447 -78 1769 -78 
Q 1091 -78 675 323 
Q 259 725 259 1325 
Q 259 1772 486 2073 
Q 713 2375 1131 2484 
z
M 1019 3438 
Q 1019 3113 1228 2906 
Q 1438 2700 1772 2700 
Q 2097 2700 2305 2904 
Q 2513 3109 2513 3406 
Q 2513 3716 2298 3927 
Q 2084 4138 1766 4138 
Q 1444 4138 1231 3931 
Q 1019 3725 1019 3438 
z
M 838 1322 
Q 838 1081 952 856 
Q 1066 631 1291 507 
Q 1516 384 1775 384 
Q 2178 384 2440 643 
Q 2703 903 2703 1303 
Q 2703 1709 2433 1975 
Q 2163 2241 1756 2241 
Q 1359 2241 1098 1978 
Q 838 1716 838 1322 
z
" transform="scale(0.015625)"/>
       </defs>
       <use xlink:href="#ArialMT-30"/>
       <use xlink:href="#ArialMT-2e" x="55.615234"/>
       <use xlink:href="#ArialMT-30" x="83.398438"/>
       <use xlink:href="#ArialMT-38" x="139.013672"/>
      </g>
     </g>
    </g>
    <g id="ytick_6">
     <g id="line2d_12">
      <path d="M 72.483047 81.807145 
L 507.228047 81.807145 
" clip-path="url(#paf4a09ca4f)" style="fill: none; stroke: #cccccc; stroke-width: 1.5; stroke-linecap: round"/>
     </g>
     <g id="text_6">
      <!-- 0.10 -->
      <g style="fill: #262626" transform="translate(27.8725 87.71234)scale(0.165 -0.165)">
       <defs>
        <path id="ArialMT-31" d="M 2384 0 
L 1822 0 
L 1822 3584 
Q 1619 3391 1289 3197 
Q 959 3003 697 2906 
L 697 3450 
Q 1169 3672 1522 3987 
Q 1875 4303 2022 4600 
L 2384 4600 
L 2384 0 
z
" transform="scale(0.015625)"/>
       </defs>
       <use xlink:href="#ArialMT-30"/>
       <use xlink:href="#ArialMT-2e" x="55.615234"/>
       <use xlink:href="#ArialMT-31" x="83.398438"/>
       <use xlink:href="#ArialMT-30" x="139.013672"/>
      </g>
     </g>
    </g>
    <g id="text_7">
     <!-- Frequency Density -->
     <g style="fill: #262626" transform="translate(20.084063 279.812339)rotate(-90)scale(0.18 -0.18)">
      <defs>
       <path id="ArialMT-46" d="M 525 0 
L 525 4581 
L 3616 4581 
L 3616 4041 
L 1131 4041 
L 1131 2622 
L 3281 2622 
L 3281 2081 
L 1131 2081 
L 1131 0 
L 525 0 
z
" transform="scale(0.015625)"/>
       <path id="ArialMT-72" d="M 416 0 
L 416 3319 
L 922 3319 
L 922 2816 
Q 1116 3169 1280 3281 
Q 1444 3394 1641 3394 
Q 1925 3394 2219 3213 
L 2025 2691 
Q 1819 2813 1613 2813 
Q 1428 2813 1281 2702 
Q 1134 2591 1072 2394 
Q 978 2094 978 1738 
L 978 0 
L 416 0 
z
" transform="scale(0.015625)"/>
       <path id="ArialMT-65" d="M 2694 1069 
L 3275 997 
Q 3138 488 2766 206 
Q 2394 -75 1816 -75 
Q 1088 -75 661 373 
Q 234 822 234 1631 
Q 234 2469 665 2931 
Q 1097 3394 1784 3394 
Q 2450 3394 2872 2941 
Q 3294 2488 3294 1666 
Q 3294 1616 3291 1516 
L 816 1516 
Q 847 969 1125 678 
Q 1403 388 1819 388 
Q 2128 388 2347 550 
Q 2566 713 2694 1069 
z
M 847 1978 
L 2700 1978 
Q 2663 2397 2488 2606 
Q 2219 2931 1791 2931 
Q 1403 2931 1139 2672 
Q 875 2413 847 1978 
z
" transform="scale(0.015625)"/>
       <path id="ArialMT-71" d="M 2538 -1272 
L 2538 353 
Q 2406 169 2170 47 
Q 1934 -75 1669 -75 
Q 1078 -75 651 397 
Q 225 869 225 1691 
Q 225 2191 398 2587 
Q 572 2984 901 3189 
Q 1231 3394 1625 3394 
Q 2241 3394 2594 2875 
L 2594 3319 
L 3100 3319 
L 3100 -1272 
L 2538 -1272 
z
M 803 1669 
Q 803 1028 1072 708 
Q 1341 388 1716 388 
Q 2075 388 2334 692 
Q 2594 997 2594 1619 
Q 2594 2281 2320 2615 
Q 2047 2950 1678 2950 
Q 1313 2950 1058 2639 
Q 803 2328 803 1669 
z
" transform="scale(0.015625)"/>
       <path id="ArialMT-75" d="M 2597 0 
L 2597 488 
Q 2209 -75 1544 -75 
Q 1250 -75 995 37 
Q 741 150 617 320 
Q 494 491 444 738 
Q 409 903 409 1263 
L 409 3319 
L 972 3319 
L 972 1478 
Q 972 1038 1006 884 
Q 1059 663 1231 536 
Q 1403 409 1656 409 
Q 1909 409 2131 539 
Q 2353 669 2445 892 
Q 2538 1116 2538 1541 
L 2538 3319 
L 3100 3319 
L 3100 0 
L 2597 0 
z
" transform="scale(0.015625)"/>
       <path id="ArialMT-6e" d="M 422 0 
L 422 3319 
L 928 3319 
L 928 2847 
Q 1294 3394 1984 3394 
Q 2284 3394 2536 3286 
Q 2788 3178 2913 3003 
Q 3038 2828 3088 2588 
Q 3119 2431 3119 2041 
L 3119 0 
L 2556 0 
L 2556 2019 
Q 2556 2363 2490 2533 
Q 2425 2703 2258 2804 
Q 2091 2906 1866 2906 
Q 1506 2906 1245 2678 
Q 984 2450 984 1813 
L 984 0 
L 422 0 
z
" transform="scale(0.015625)"/>
       <path id="ArialMT-63" d="M 2588 1216 
L 3141 1144 
Q 3050 572 2676 248 
Q 2303 -75 1759 -75 
Q 1078 -75 664 370 
Q 250 816 250 1647 
Q 250 2184 428 2587 
Q 606 2991 970 3192 
Q 1334 3394 1763 3394 
Q 2303 3394 2647 3120 
Q 2991 2847 3088 2344 
L 2541 2259 
Q 2463 2594 2264 2762 
Q 2066 2931 1784 2931 
Q 1359 2931 1093 2626 
Q 828 2322 828 1663 
Q 828 994 1084 691 
Q 1341 388 1753 388 
Q 2084 388 2306 591 
Q 2528 794 2588 1216 
z
" transform="scale(0.015625)"/>
       <path id="ArialMT-79" d="M 397 -1278 
L 334 -750 
Q 519 -800 656 -800 
Q 844 -800 956 -737 
Q 1069 -675 1141 -563 
Q 1194 -478 1313 -144 
Q 1328 -97 1363 -6 
L 103 3319 
L 709 3319 
L 1400 1397 
Q 1534 1031 1641 628 
Q 1738 1016 1872 1384 
L 2581 3319 
L 3144 3319 
L 1881 -56 
Q 1678 -603 1566 -809 
Q 1416 -1088 1222 -1217 
Q 1028 -1347 759 -1347 
Q 597 -1347 397 -1278 
z
" transform="scale(0.015625)"/>
       <path id="ArialMT-20" transform="scale(0.015625)"/>
       <path id="ArialMT-44" d="M 494 0 
L 494 4581 
L 2072 4581 
Q 2606 4581 2888 4516 
Q 3281 4425 3559 4188 
Q 3922 3881 4101 3404 
Q 4281 2928 4281 2316 
Q 4281 1794 4159 1391 
Q 4038 988 3847 723 
Q 3656 459 3429 307 
Q 3203 156 2883 78 
Q 2563 0 2147 0 
L 494 0 
z
M 1100 541 
L 2078 541 
Q 2531 541 2789 625 
Q 3047 709 3200 863 
Q 3416 1078 3536 1442 
Q 3656 1806 3656 2325 
Q 3656 3044 3420 3430 
Q 3184 3816 2847 3947 
Q 2603 4041 2063 4041 
L 1100 4041 
L 1100 541 
z
" transform="scale(0.015625)"/>
       <path id="ArialMT-73" d="M 197 991 
L 753 1078 
Q 800 744 1014 566 
Q 1228 388 1613 388 
Q 2000 388 2187 545 
Q 2375 703 2375 916 
Q 2375 1106 2209 1216 
Q 2094 1291 1634 1406 
Q 1016 1563 777 1677 
Q 538 1791 414 1992 
Q 291 2194 291 2438 
Q 291 2659 392 2848 
Q 494 3038 669 3163 
Q 800 3259 1026 3326 
Q 1253 3394 1513 3394 
Q 1903 3394 2198 3281 
Q 2494 3169 2634 2976 
Q 2775 2784 2828 2463 
L 2278 2388 
Q 2241 2644 2061 2787 
Q 1881 2931 1553 2931 
Q 1166 2931 1000 2803 
Q 834 2675 834 2503 
Q 834 2394 903 2306 
Q 972 2216 1119 2156 
Q 1203 2125 1616 2013 
Q 2213 1853 2448 1751 
Q 2684 1650 2818 1456 
Q 2953 1263 2953 975 
Q 2953 694 2789 445 
Q 2625 197 2315 61 
Q 2006 -75 1616 -75 
Q 969 -75 630 194 
Q 291 463 197 991 
z
" transform="scale(0.015625)"/>
       <path id="ArialMT-69" d="M 425 3934 
L 425 4581 
L 988 4581 
L 988 3934 
L 425 3934 
z
M 425 0 
L 425 3319 
L 988 3319 
L 988 0 
L 425 0 
z
" transform="scale(0.015625)"/>
       <path id="ArialMT-74" d="M 1650 503 
L 1731 6 
Q 1494 -44 1306 -44 
Q 1000 -44 831 53 
Q 663 150 594 308 
Q 525 466 525 972 
L 525 2881 
L 113 2881 
L 113 3319 
L 525 3319 
L 525 4141 
L 1084 4478 
L 1084 3319 
L 1650 3319 
L 1650 2881 
L 1084 2881 
L 1084 941 
Q 1084 700 1114 631 
Q 1144 563 1211 522 
Q 1278 481 1403 481 
Q 1497 481 1650 503 
z
" transform="scale(0.015625)"/>
      </defs>
      <use xlink:href="#ArialMT-46"/>
      <use xlink:href="#ArialMT-72" x="61.083984"/>
      <use xlink:href="#ArialMT-65" x="94.384766"/>
      <use xlink:href="#ArialMT-71" x="150"/>
      <use xlink:href="#ArialMT-75" x="205.615234"/>
      <use xlink:href="#ArialMT-65" x="261.230469"/>
      <use xlink:href="#ArialMT-6e" x="316.845703"/>
      <use xlink:href="#ArialMT-63" x="372.460938"/>
      <use xlink:href="#ArialMT-79" x="422.460938"/>
      <use xlink:href="#ArialMT-20" x="472.460938"/>
      <use xlink:href="#ArialMT-44" x="500.244141"/>
      <use xlink:href="#ArialMT-65" x="572.460938"/>
      <use xlink:href="#ArialMT-6e" x="628.076172"/>
      <use xlink:href="#ArialMT-73" x="683.691406"/>
      <use xlink:href="#ArialMT-69" x="733.691406"/>
      <use xlink:href="#ArialMT-74" x="755.908203"/>
      <use xlink:href="#ArialMT-79" x="783.691406"/>
     </g>
    </g>
   </g>
   <g id="line2d_13">
    <path d="M 54.476186 338.017933 
L 71.045943 337.927313 
L 85.248591 337.788632 
L 134.957861 337.62871 
L 165.730266 337.270296 
L 203.603995 336.294757 
L 213.072428 335.841352 
L 224.907968 335.020504 
L 232.009293 334.368688 
L 239.110617 333.494369 
L 243.844833 332.724919 
L 248.579049 331.771639 
L 253.313265 330.624494 
L 258.047482 329.25454 
L 262.781698 327.534423 
L 265.148806 326.490851 
L 267.515914 325.310739 
L 269.883022 323.992069 
L 272.25013 322.528476 
L 274.617238 320.897984 
L 276.984346 319.0565 
L 279.351454 316.939341 
L 281.718562 314.471096 
L 284.08567 311.578212 
L 286.452779 308.193341 
L 288.819887 304.243945 
L 291.186995 299.629791 
L 293.554103 294.201493 
L 295.921211 287.747335 
L 298.288319 279.985229 
L 300.655427 270.551914 
L 303.022535 258.986103 
L 305.389643 244.72094 
L 307.756751 227.137544 
L 310.123859 205.764852 
L 312.490968 180.68647 
L 317.225184 125.652951 
L 319.592292 102.458136 
L 321.9594 88.016114 
L 324.326508 85.761283 
L 326.693616 96.643994 
L 329.060724 118.667443 
L 331.427832 147.665932 
L 333.79494 178.861326 
L 336.162048 208.335952 
L 338.529157 233.786394 
L 340.896265 254.477424 
L 343.263373 270.727961 
L 345.630481 283.328248 
L 347.997589 293.1256 
L 350.364697 300.827027 
L 352.731805 306.958128 
L 355.098913 311.893633 
L 357.466021 315.900367 
L 359.833129 319.170673 
L 362.200237 321.847255 
L 364.567346 324.042888 
L 366.934454 325.853161 
L 369.301562 327.360497 
L 371.66867 328.632802 
L 374.035778 329.722127 
L 376.402886 330.665662 
L 381.137102 332.206363 
L 385.871318 333.372864 
L 390.605534 334.253701 
L 395.339751 334.926516 
L 402.441075 335.66399 
L 411.909507 336.387016 
L 421.37794 336.850089 
L 433.21348 337.237488 
L 456.884561 337.652894 
L 480.555642 337.848143 
L 525.530696 338.018015 
L 525.530696 338.018015 
" clip-path="url(#paf4a09ca4f)" style="fill: none; stroke: #f7c6a6; stroke-width: 1.5; stroke-linecap: round"/>
   </g>
   <g id="line2d_14">
    <path d="M 54.646895 338.017818 
L 71.209379 337.911794 
L 83.039725 337.798684 
L 113.798624 337.746565 
L 170.584283 337.211533 
L 194.244974 336.592473 
L 208.441389 336.034572 
L 215.539597 335.66483 
L 222.637804 335.080996 
L 234.46815 333.918243 
L 239.200288 333.246237 
L 243.932426 332.372503 
L 251.030634 330.760123 
L 255.762772 329.482356 
L 260.49491 327.922707 
L 262.860979 326.97783 
L 265.227048 325.896018 
L 267.593118 324.667484 
L 269.959187 323.285686 
L 272.325256 321.73684 
L 274.691325 319.990742 
L 277.057394 317.997744 
L 279.423463 315.692872 
L 281.789532 313.00428 
L 284.155602 309.860816 
L 286.521671 306.193708 
L 288.88774 301.929382 
L 291.253809 296.97196 
L 293.619878 291.176082 
L 295.985947 284.316505 
L 298.352016 276.066318 
L 300.718086 265.991481 
L 303.084155 253.560154 
L 305.450224 238.17351 
L 307.816293 219.263597 
L 310.182362 196.542443 
L 312.548431 170.451159 
L 314.9145 142.694406 
L 317.28057 116.518206 
L 319.646639 96.310427 
L 322.012708 86.381669 
L 324.378777 89.352885 
L 326.744846 105.008565 
L 329.110915 130.322559 
L 333.843053 191.401727 
L 336.209123 219.258004 
L 338.575192 242.62107 
L 340.941261 261.294851 
L 343.30733 275.88374 
L 345.673399 287.246107 
L 348.039468 296.169092 
L 350.405537 303.255276 
L 352.771607 308.934473 
L 355.137676 313.515098 
L 357.503745 317.227703 
L 359.869814 320.250844 
L 362.235883 322.726086 
L 364.601952 324.767518 
L 366.968021 326.466877 
L 369.334091 327.896294 
L 371.70016 329.111744 
L 374.066229 330.157361 
L 378.798367 331.868371 
L 383.530505 333.190575 
L 388.262644 334.171314 
L 392.994782 334.853532 
L 400.092989 335.537466 
L 411.923335 336.410403 
L 421.387612 336.961615 
L 428.485819 337.172998 
L 480.53934 337.833539 
L 494.735755 337.879525 
L 525.494654 338.01808 
L 525.494654 338.01808 
" clip-path="url(#paf4a09ca4f)" style="fill: none; stroke: #f69c73; stroke-width: 1.5; stroke-linecap: round"/>
   </g>
   <g id="line2d_15">
    <path d="M 54.307448 338.017924 
L 73.248661 337.921584 
L 106.395785 337.703515 
L 139.542908 337.599902 
L 165.587077 337.322491 
L 177.425335 337.069308 
L 205.837155 336.157521 
L 215.307762 335.634518 
L 224.778369 334.936633 
L 231.881324 334.128952 
L 241.351931 332.714451 
L 246.087234 331.846078 
L 250.822537 330.809955 
L 255.557841 329.565509 
L 260.293144 327.995428 
L 262.660796 327.033694 
L 265.028448 325.920681 
L 267.396099 324.633022 
L 269.763751 323.15537 
L 272.131403 321.482142 
L 274.499054 319.609671 
L 276.866706 317.521693 
L 279.234358 315.177797 
L 281.602009 312.511603 
L 283.969661 309.436965 
L 286.337313 305.854752 
L 288.704964 301.652567 
L 291.072616 296.693735 
L 293.440268 290.798612 
L 295.807919 283.726233 
L 298.175571 275.161899 
L 300.543223 264.708862 
L 302.910874 251.882094 
L 305.278526 236.121988 
L 307.646178 216.886379 
L 310.01383 193.910983 
L 312.381481 167.683731 
L 314.749133 140.001468 
L 317.116785 114.235945 
L 319.484436 94.866637 
L 321.852088 86.165339 
L 324.21974 90.537421 
L 326.587391 107.441952 
L 328.955043 133.571163 
L 333.690346 194.76334 
L 336.057998 222.217099 
L 338.42565 245.127447 
L 340.793301 263.392928 
L 343.160953 277.622079 
L 345.528605 288.641438 
L 347.896256 297.224531 
L 350.263908 303.995731 
L 352.63156 309.422192 
L 354.999211 313.835516 
L 357.366863 317.461552 
L 359.734515 320.452691 
L 362.102167 322.917505 
L 364.469818 324.942529 
L 366.83747 326.605011 
L 369.205122 327.97825 
L 371.572773 329.130792 
L 373.940425 330.120762 
L 378.675728 331.7595 
L 383.411032 333.042203 
L 388.146335 334.034238 
L 392.881638 334.786981 
L 397.616942 335.321443 
L 407.087548 336.032534 
L 418.925807 336.749016 
L 433.131717 337.170747 
L 444.969975 337.451607 
L 494.690661 337.872293 
L 525.470133 338.01804 
L 525.470133 338.01804 
" clip-path="url(#paf4a09ca4f)" style="fill: none; stroke: #f3714d; stroke-width: 1.5; stroke-linecap: round"/>
   </g>
   <g id="line2d_16">
    <path d="M 54.640037 338.01795 
L 73.566934 337.908498 
L 92.493832 337.765743 
L 170.567284 337.273698 
L 182.396595 336.971196 
L 210.786941 335.960632 
L 220.25039 335.321736 
L 229.713839 334.417812 
L 236.811426 333.569476 
L 241.54315 332.832671 
L 246.274874 331.903761 
L 251.006599 330.792136 
L 255.738323 329.528188 
L 260.470047 328.000217 
L 262.83591 327.051527 
L 265.201772 325.934997 
L 267.567634 324.629033 
L 269.933496 323.120709 
L 272.299358 321.401676 
L 274.665221 319.462135 
L 277.031083 317.281397 
L 279.396945 314.817311 
L 281.762807 312.00114 
L 284.128669 308.74131 
L 286.494532 304.930889 
L 288.860394 300.45028 
L 291.226256 295.161887 
L 293.592118 288.899247 
L 295.95798 281.451335 
L 298.323843 272.537636 
L 300.689705 261.773317 
L 303.055567 248.641835 
L 305.421429 232.518555 
L 307.787291 212.811726 
L 310.153154 189.287972 
L 317.25074 109.494695 
L 319.616602 91.43634 
L 321.982465 84.815074 
L 324.348327 91.682352 
L 326.714189 110.940607 
L 329.080051 138.761012 
L 333.811775 200.637925 
L 336.177638 227.433958 
L 338.5435 249.43539 
L 340.909362 266.784889 
L 343.275224 280.227573 
L 345.641086 290.63903 
L 348.006949 298.783269 
L 350.372811 305.242127 
L 352.738673 310.431435 
L 355.104535 314.642708 
L 357.470397 318.082307 
L 359.83626 320.902426 
L 362.202122 323.224404 
L 364.567984 325.15222 
L 366.933846 326.774299 
L 369.299708 328.158233 
L 371.665571 329.347881 
L 374.031433 330.368702 
L 376.397295 331.238322 
L 381.129019 332.598276 
L 385.860744 333.585164 
L 390.592468 334.339532 
L 397.690055 335.251904 
L 404.787641 335.958732 
L 414.25109 336.632302 
L 423.714539 337.027684 
L 435.54385 337.223461 
L 449.739023 337.482971 
L 466.300058 337.766035 
L 511.25144 337.989292 
L 525.446613 338.018061 
L 525.446613 338.018061 
" clip-path="url(#paf4a09ca4f)" style="fill: none; stroke: #e83f3f; stroke-width: 1.5; stroke-linecap: round"/>
   </g>
   <g id="line2d_17">
    <path d="M 54.68182 338.017941 
L 73.599874 337.91017 
L 90.153172 337.78099 
L 120.89501 337.67085 
L 154.001606 337.426961 
L 177.649174 337.010267 
L 215.485283 335.676288 
L 222.579553 335.081338 
L 234.403337 333.823804 
L 241.497608 332.833828 
L 246.227121 331.938353 
L 250.956635 330.775974 
L 255.686148 329.313147 
L 260.415662 327.494748 
L 265.145176 325.260278 
L 267.509932 323.959456 
L 269.874689 322.505995 
L 272.239446 320.866417 
L 274.604203 319.000307 
L 276.96896 316.861241 
L 279.333716 314.397203 
L 281.698473 311.549135 
L 284.06323 308.245969 
L 286.427987 304.397775 
L 288.792744 299.890714 
L 291.1575 294.583298 
L 293.522257 288.297433 
L 295.887014 280.798807 
L 298.251771 271.769664 
L 300.616528 260.783663 
L 302.981285 247.296051 
L 305.346041 230.678444 
L 307.710798 210.364259 
L 310.075555 186.190367 
L 314.805069 130.922436 
L 317.169825 106.044221 
L 319.534582 89.117146 
L 321.899339 84.240031 
L 324.264096 93.075241 
L 326.628853 114.027937 
L 328.993609 142.895341 
L 333.723123 204.770721 
L 336.08788 230.937772 
L 338.452637 252.224067 
L 340.817393 268.925993 
L 343.18215 281.855788 
L 345.546907 291.897515 
L 347.911664 299.790111 
L 350.276421 306.076918 
L 352.641177 311.139806 
L 355.005934 315.252231 
L 357.370691 318.617363 
L 359.735448 321.387401 
L 362.100205 323.674389 
L 364.464961 325.56108 
L 366.829718 327.113323 
L 369.194475 328.390938 
L 371.559232 329.45332 
L 376.288746 331.152276 
L 381.018259 332.517187 
L 385.747773 333.606189 
L 390.477286 334.41014 
L 397.571557 335.270726 
L 407.030584 336.114494 
L 416.489611 336.704981 
L 425.948638 337.061813 
L 447.23145 337.477522 
L 468.514261 337.774455 
L 525.268424 338.018142 
L 525.268424 338.018142 
" clip-path="url(#paf4a09ca4f)" style="fill: none; stroke: #ca1a50; stroke-width: 1.5; stroke-linecap: round"/>
   </g>
   <g id="line2d_18">
    <path d="M 54.264634 338.017933 
L 73.189681 337.906644 
L 89.749097 337.807225 
L 127.599191 337.586874 
L 146.524238 337.452004 
L 160.718023 337.260307 
L 196.202486 336.587158 
L 208.03064 335.880176 
L 222.224426 334.875672 
L 234.05258 333.782794 
L 238.783842 333.184661 
L 243.515103 332.331022 
L 248.246365 331.244986 
L 252.977627 329.949846 
L 257.708889 328.397605 
L 262.44015 326.511802 
L 264.805781 325.392981 
L 267.171412 324.117255 
L 269.537043 322.65672 
L 271.902674 320.988218 
L 274.268305 319.089676 
L 276.633936 316.934322 
L 278.999566 314.485966 
L 281.365197 311.694656 
L 283.730828 308.489899 
L 286.096459 304.771452 
L 288.46209 300.402885 
L 290.827721 295.213436 
L 293.193352 289.005545 
L 295.558983 281.555444 
L 297.924613 272.593099 
L 300.290244 261.759341 
L 302.655875 248.559596 
L 305.021506 232.365336 
L 307.387137 212.549394 
L 309.752768 188.842492 
L 316.84966 108.618217 
L 319.215291 90.821158 
L 321.580922 84.675401 
L 323.946553 92.079372 
L 326.312184 111.773485 
L 328.677815 139.841918 
L 333.409077 201.744397 
L 335.774707 228.461797 
L 338.140338 250.397957 
L 340.505969 267.706878 
L 342.8716 281.115848 
L 345.237231 291.472492 
L 347.602862 299.522642 
L 349.968493 305.851303 
L 352.334123 310.897368 
L 354.699754 314.983271 
L 357.065385 318.338889 
L 359.431016 321.121774 
L 361.796647 323.438924 
L 364.162278 325.368279 
L 366.527909 326.974452 
L 368.89354 328.31629 
L 371.25917 329.447878 
L 373.624801 330.415607 
L 378.356063 331.984732 
L 383.087325 333.165629 
L 387.818587 334.049064 
L 394.915479 335.061134 
L 402.012372 335.806806 
L 409.109264 336.318548 
L 420.937419 336.925768 
L 432.765573 337.269396 
L 446.959358 337.466276 
L 472.981298 337.794607 
L 501.368868 337.932383 
L 525.025177 338.018123 
L 525.025177 338.018123 
" clip-path="url(#paf4a09ca4f)" style="fill: none; stroke: #a11a5b; stroke-width: 1.5; stroke-linecap: round"/>
   </g>
   <g id="line2d_19">
    <path d="M 54.894762 338.018009 
L 73.818714 337.907125 
L 88.011679 337.782349 
L 123.494091 337.63068 
L 158.976502 337.270512 
L 199.189902 336.375309 
L 211.017372 335.864744 
L 218.113855 335.399004 
L 225.210337 334.730917 
L 234.672313 333.598798 
L 239.403302 332.901637 
L 244.13429 332.020908 
L 248.865278 330.894702 
L 253.596266 329.568282 
L 258.327254 328.036074 
L 260.692749 327.141209 
L 263.058243 326.123651 
L 265.423737 324.960793 
L 267.789231 323.634542 
L 270.154725 322.125841 
L 272.520219 320.407537 
L 274.885713 318.44075 
L 277.251207 316.17827 
L 279.616701 313.572382 
L 281.982195 310.57917 
L 284.34769 307.152241 
L 286.713184 303.225249 
L 289.078678 298.689383 
L 291.444172 293.375622 
L 293.809666 287.049595 
L 296.17516 279.417503 
L 298.540654 270.12926 
L 300.906148 258.764298 
L 303.271642 244.809761 
L 305.637137 227.685248 
L 308.002631 206.904204 
L 310.368125 182.445705 
L 315.099113 127.951881 
L 317.464607 104.377903 
L 319.830101 89.214478 
L 322.195595 86.190169 
L 324.561089 96.550415 
L 326.926583 118.42205 
L 329.292078 147.556866 
L 331.657572 178.996694 
L 334.023066 208.682227 
L 336.38856 234.262843 
L 338.754054 255.018622 
L 341.119548 271.29005 
L 343.485042 283.869822 
L 345.850536 293.599009 
L 348.21603 301.187875 
L 350.581524 307.178859 
L 352.947019 311.969209 
L 355.312513 315.847087 
L 357.678007 319.023673 
L 360.043501 321.656461 
L 362.408995 323.863595 
L 364.774489 325.731897 
L 367.139983 327.32277 
L 369.505477 328.679101 
L 371.870971 329.832995 
L 374.236465 330.811615 
L 376.60196 331.639535 
L 381.332948 332.930669 
L 386.063936 333.868411 
L 390.794924 334.591631 
L 397.891407 335.429608 
L 407.353383 336.223872 
L 416.815359 336.781713 
L 428.64283 337.187136 
L 447.566783 337.447771 
L 490.145677 337.868995 
L 525.628088 338.018156 
L 525.628088 338.018156 
" clip-path="url(#paf4a09ca4f)" style="fill: none; stroke: #751f58; stroke-width: 1.5; stroke-linecap: round"/>
   </g>
   <g id="line2d_20">
    <path d="M 54.145802 338.017862 
L 70.728022 337.925332 
L 87.310243 337.746552 
L 139.425795 337.545672 
L 153.639127 337.38396 
L 165.48357 337.269305 
L 198.648012 336.371969 
L 210.492455 335.763302 
L 219.96801 335.110156 
L 231.812454 334.013696 
L 236.550231 333.475581 
L 241.288008 332.733626 
L 246.025786 331.714929 
L 253.132452 329.838027 
L 257.870229 328.2888 
L 260.239118 327.349533 
L 264.976895 325.107602 
L 269.714673 322.408001 
L 272.083561 320.838979 
L 274.45245 319.047346 
L 276.821339 316.957893 
L 279.190227 314.50243 
L 281.559116 311.628779 
L 283.928005 308.291696 
L 286.296894 304.42954 
L 288.665782 299.939906 
L 291.034671 294.666117 
L 293.40356 288.396011 
L 295.772448 280.863723 
L 298.141337 271.742192 
L 300.510226 260.622194 
L 302.879114 246.992686 
L 305.248003 230.266452 
L 307.616892 209.92531 
L 309.985781 185.859443 
L 314.723558 131.298798 
L 317.092447 106.893219 
L 319.461335 90.321879 
L 321.830224 85.54838 
L 324.199113 94.208966 
L 326.568001 114.806428 
L 328.93689 143.291248 
L 333.674667 204.710563 
L 336.043556 230.819441 
L 338.412445 252.109851 
L 340.781334 268.8441 
L 343.150222 281.820609 
L 345.519111 291.92731 
L 347.888 299.910792 
L 350.256888 306.308304 
L 352.625777 311.47551 
L 354.994666 315.651362 
L 357.363554 319.016558 
L 359.732443 321.725952 
L 362.101332 323.91787 
L 364.470221 325.712262 
L 366.839109 327.206924 
L 369.207998 328.475965 
L 371.576887 329.571591 
L 376.314664 331.37007 
L 381.052441 332.771856 
L 385.790219 333.874517 
L 390.527996 334.703428 
L 395.265774 335.279692 
L 404.741328 336.095801 
L 414.216883 336.714611 
L 423.692438 337.076977 
L 437.90577 337.304048 
L 478.176878 337.811037 
L 525.554652 338.018052 
L 525.554652 338.018052 
" clip-path="url(#paf4a09ca4f)" style="fill: none; stroke: #4c1d4b; stroke-width: 1.5; stroke-linecap: round"/>
   </g>
   <g id="line2d_21">
    <path d="M 54.282884 338.017974 
L 70.853821 337.936323 
L 92.159311 337.727325 
L 163.177609 337.277262 
L 177.381269 336.981741 
L 201.054035 336.231212 
L 215.257695 335.574442 
L 224.726802 334.895885 
L 231.828632 334.092008 
L 241.297738 332.767541 
L 246.032291 331.903493 
L 250.766845 330.72243 
L 255.501398 329.197054 
L 260.235951 327.30079 
L 264.970504 324.998786 
L 267.337781 323.683756 
L 269.705058 322.239154 
L 272.072334 320.635211 
L 274.439611 318.831558 
L 276.806888 316.779345 
L 279.174164 314.421603 
L 281.541441 311.691135 
L 283.908718 308.505457 
L 286.275994 304.758809 
L 288.643271 300.314701 
L 291.010547 295.005056 
L 293.377824 288.636153 
L 295.745101 280.989371 
L 298.112377 271.800459 
L 300.479654 260.71545 
L 302.846931 247.249148 
L 305.214207 230.801035 
L 307.581484 210.803967 
L 309.94876 187.074121 
L 314.683314 132.827339 
L 317.05059 108.270467 
L 319.417867 91.321493 
L 321.785144 85.99559 
L 324.15242 94.029479 
L 326.519697 114.051108 
L 328.886973 142.123374 
L 333.621527 203.394065 
L 335.988803 229.706445 
L 338.35608 251.280888 
L 340.723357 268.290905 
L 343.090633 281.46048 
L 345.45791 291.635144 
L 347.825187 299.5664 
L 350.192463 305.841534 
L 352.55974 310.885153 
L 354.927016 314.989459 
L 357.294293 318.353259 
L 359.66157 321.119006 
L 362.028846 323.400701 
L 364.396123 325.298422 
L 366.7634 326.899828 
L 369.130676 328.274651 
L 371.497953 329.470682 
L 373.865229 330.515866 
L 376.232506 331.424947 
L 378.599783 332.206694 
L 383.334336 333.424718 
L 388.068889 334.278665 
L 392.803442 334.909569 
L 399.905272 335.620793 
L 409.374379 336.308256 
L 418.843485 336.824216 
L 433.047145 337.243794 
L 451.985358 337.617316 
L 523.003657 338.017742 
L 525.370934 338.018083 
L 525.370934 338.018083 
" clip-path="url(#paf4a09ca4f)" style="fill: none; stroke: #251433; stroke-width: 1.5; stroke-linecap: round"/>
   </g>
   <g id="patch_3">
    <path d="M 72.483047 338.018241 
L 72.483047 71.551125 
" style="fill: none; stroke: #cccccc; stroke-width: 1.875; stroke-linejoin: miter; stroke-linecap: square"/>
   </g>
   <g id="patch_4">
    <path d="M 72.483047 338.018241 
L 507.228047 338.018241 
" style="fill: none; stroke: #cccccc; stroke-width: 1.875; stroke-linejoin: miter; stroke-linecap: square"/>
   </g>
   <g id="text_8">
    <!-- income_deciles = 1stD -->
    <g style="fill: #262626" transform="translate(199.063828 65.551125)scale(0.18 -0.18)">
     <defs>
      <path id="ArialMT-6f" d="M 213 1659 
Q 213 2581 725 3025 
Q 1153 3394 1769 3394 
Q 2453 3394 2887 2945 
Q 3322 2497 3322 1706 
Q 3322 1066 3130 698 
Q 2938 331 2570 128 
Q 2203 -75 1769 -75 
Q 1072 -75 642 372 
Q 213 819 213 1659 
z
M 791 1659 
Q 791 1022 1069 705 
Q 1347 388 1769 388 
Q 2188 388 2466 706 
Q 2744 1025 2744 1678 
Q 2744 2294 2464 2611 
Q 2184 2928 1769 2928 
Q 1347 2928 1069 2612 
Q 791 2297 791 1659 
z
" transform="scale(0.015625)"/>
      <path id="ArialMT-6d" d="M 422 0 
L 422 3319 
L 925 3319 
L 925 2853 
Q 1081 3097 1340 3245 
Q 1600 3394 1931 3394 
Q 2300 3394 2536 3241 
Q 2772 3088 2869 2813 
Q 3263 3394 3894 3394 
Q 4388 3394 4653 3120 
Q 4919 2847 4919 2278 
L 4919 0 
L 4359 0 
L 4359 2091 
Q 4359 2428 4304 2576 
Q 4250 2725 4106 2815 
Q 3963 2906 3769 2906 
Q 3419 2906 3187 2673 
Q 2956 2441 2956 1928 
L 2956 0 
L 2394 0 
L 2394 2156 
Q 2394 2531 2256 2718 
Q 2119 2906 1806 2906 
Q 1569 2906 1367 2781 
Q 1166 2656 1075 2415 
Q 984 2175 984 1722 
L 984 0 
L 422 0 
z
" transform="scale(0.015625)"/>
      <path id="ArialMT-5f" d="M -97 -1272 
L -97 -866 
L 3631 -866 
L 3631 -1272 
L -97 -1272 
z
" transform="scale(0.015625)"/>
      <path id="ArialMT-64" d="M 2575 0 
L 2575 419 
Q 2259 -75 1647 -75 
Q 1250 -75 917 144 
Q 584 363 401 755 
Q 219 1147 219 1656 
Q 219 2153 384 2558 
Q 550 2963 881 3178 
Q 1213 3394 1622 3394 
Q 1922 3394 2156 3267 
Q 2391 3141 2538 2938 
L 2538 4581 
L 3097 4581 
L 3097 0 
L 2575 0 
z
M 797 1656 
Q 797 1019 1065 703 
Q 1334 388 1700 388 
Q 2069 388 2326 689 
Q 2584 991 2584 1609 
Q 2584 2291 2321 2609 
Q 2059 2928 1675 2928 
Q 1300 2928 1048 2622 
Q 797 2316 797 1656 
z
" transform="scale(0.015625)"/>
      <path id="ArialMT-6c" d="M 409 0 
L 409 4581 
L 972 4581 
L 972 0 
L 409 0 
z
" transform="scale(0.015625)"/>
      <path id="ArialMT-3d" d="M 3381 2694 
L 356 2694 
L 356 3219 
L 3381 3219 
L 3381 2694 
z
M 3381 1303 
L 356 1303 
L 356 1828 
L 3381 1828 
L 3381 1303 
z
" transform="scale(0.015625)"/>
     </defs>
     <use xlink:href="#ArialMT-69"/>
     <use xlink:href="#ArialMT-6e" x="22.216797"/>
     <use xlink:href="#ArialMT-63" x="77.832031"/>
     <use xlink:href="#ArialMT-6f" x="127.832031"/>
     <use xlink:href="#ArialMT-6d" x="183.447266"/>
     <use xlink:href="#ArialMT-65" x="266.748047"/>
     <use xlink:href="#ArialMT-5f" x="322.363281"/>
     <use xlink:href="#ArialMT-64" x="377.978516"/>
     <use xlink:href="#ArialMT-65" x="433.59375"/>
     <use xlink:href="#ArialMT-63" x="489.208984"/>
     <use xlink:href="#ArialMT-69" x="539.208984"/>
     <use xlink:href="#ArialMT-6c" x="561.425781"/>
     <use xlink:href="#ArialMT-65" x="583.642578"/>
     <use xlink:href="#ArialMT-73" x="639.257812"/>
     <use xlink:href="#ArialMT-20" x="689.257812"/>
     <use xlink:href="#ArialMT-3d" x="717.041016"/>
     <use xlink:href="#ArialMT-20" x="775.439453"/>
     <use xlink:href="#ArialMT-31" x="803.222656"/>
     <use xlink:href="#ArialMT-73" x="858.837891"/>
     <use xlink:href="#ArialMT-74" x="908.837891"/>
     <use xlink:href="#ArialMT-44" x="936.621094"/>
    </g>
   </g>
  </g>
  <g id="axes_2">
   <g id="patch_5">
    <path d="M 72.483047 650.3455 
L 507.228047 650.3455 
L 507.228047 383.878384 
L 72.483047 383.878384 
z
" style="fill: #ffffff"/>
   </g>
   <g id="matplotlib.axis_3">
    <g id="xtick_7">
     <g id="line2d_22">
      <path d="M 108.711797 650.3455 
L 108.711797 383.878384 
" clip-path="url(#pc3f6f12d0a)" style="fill: none; stroke: #cccccc; stroke-width: 1.5; stroke-linecap: round"/>
     </g>
     <g id="text_9">
      <!-- −60 -->
      <g style="fill: #262626" transform="translate(94.717734 674.655891)scale(0.165 -0.165)">
       <defs>
        <path id="ArialMT-2212" d="M 3381 1997 
L 356 1997 
L 356 2522 
L 3381 2522 
L 3381 1997 
z
" transform="scale(0.015625)"/>
       </defs>
       <use xlink:href="#ArialMT-2212"/>
       <use xlink:href="#ArialMT-36" x="58.398438"/>
       <use xlink:href="#ArialMT-30" x="114.013672"/>
      </g>
     </g>
    </g>
    <g id="xtick_8">
     <g id="line2d_23">
      <path d="M 181.169297 650.3455 
L 181.169297 383.878384 
" clip-path="url(#pc3f6f12d0a)" style="fill: none; stroke: #cccccc; stroke-width: 1.5; stroke-linecap: round"/>
     </g>
     <g id="text_10">
      <!-- −40 -->
      <g style="fill: #262626" transform="translate(167.175234 674.655891)scale(0.165 -0.165)">
       <use xlink:href="#ArialMT-2212"/>
       <use xlink:href="#ArialMT-34" x="58.398438"/>
       <use xlink:href="#ArialMT-30" x="114.013672"/>
      </g>
     </g>
    </g>
    <g id="xtick_9">
     <g id="line2d_24">
      <path d="M 253.626797 650.3455 
L 253.626797 383.878384 
" clip-path="url(#pc3f6f12d0a)" style="fill: none; stroke: #cccccc; stroke-width: 1.5; stroke-linecap: round"/>
     </g>
     <g id="text_11">
      <!-- −20 -->
      <g style="fill: #262626" transform="translate(239.632734 674.655891)scale(0.165 -0.165)">
       <use xlink:href="#ArialMT-2212"/>
       <use xlink:href="#ArialMT-32" x="58.398438"/>
       <use xlink:href="#ArialMT-30" x="114.013672"/>
      </g>
     </g>
    </g>
    <g id="xtick_10">
     <g id="line2d_25">
      <path d="M 326.084297 650.3455 
L 326.084297 383.878384 
" clip-path="url(#pc3f6f12d0a)" style="fill: none; stroke: #cccccc; stroke-width: 1.5; stroke-linecap: round"/>
     </g>
     <g id="text_12">
      <!-- 0 -->
      <g style="fill: #262626" transform="translate(321.496523 674.655891)scale(0.165 -0.165)">
       <use xlink:href="#ArialMT-30"/>
      </g>
     </g>
    </g>
    <g id="xtick_11">
     <g id="line2d_26">
      <path d="M 398.541797 650.3455 
L 398.541797 383.878384 
" clip-path="url(#pc3f6f12d0a)" style="fill: none; stroke: #cccccc; stroke-width: 1.5; stroke-linecap: round"/>
     </g>
     <g id="text_13">
      <!-- 20 -->
      <g style="fill: #262626" transform="translate(389.36625 674.655891)scale(0.165 -0.165)">
       <use xlink:href="#ArialMT-32"/>
       <use xlink:href="#ArialMT-30" x="55.615234"/>
      </g>
     </g>
    </g>
    <g id="xtick_12">
     <g id="line2d_27">
      <path d="M 470.999297 650.3455 
L 470.999297 383.878384 
" clip-path="url(#pc3f6f12d0a)" style="fill: none; stroke: #cccccc; stroke-width: 1.5; stroke-linecap: round"/>
     </g>
     <g id="text_14">
      <!-- 40 -->
      <g style="fill: #262626" transform="translate(461.82375 674.655891)scale(0.165 -0.165)">
       <use xlink:href="#ArialMT-34"/>
       <use xlink:href="#ArialMT-30" x="55.615234"/>
      </g>
     </g>
    </g>
    <g id="text_15">
     <!-- Potential INEXUS in dollar -->
     <g style="fill: #262626" transform="translate(184.807266 694.819328)scale(0.18 -0.18)">
      <defs>
       <path id="ArialMT-50" d="M 494 0 
L 494 4581 
L 2222 4581 
Q 2678 4581 2919 4538 
Q 3256 4481 3484 4323 
Q 3713 4166 3852 3881 
Q 3991 3597 3991 3256 
Q 3991 2672 3619 2267 
Q 3247 1863 2275 1863 
L 1100 1863 
L 1100 0 
L 494 0 
z
M 1100 2403 
L 2284 2403 
Q 2872 2403 3119 2622 
Q 3366 2841 3366 3238 
Q 3366 3525 3220 3729 
Q 3075 3934 2838 4000 
Q 2684 4041 2272 4041 
L 1100 4041 
L 1100 2403 
z
" transform="scale(0.015625)"/>
       <path id="ArialMT-61" d="M 2588 409 
Q 2275 144 1986 34 
Q 1697 -75 1366 -75 
Q 819 -75 525 192 
Q 231 459 231 875 
Q 231 1119 342 1320 
Q 453 1522 633 1644 
Q 813 1766 1038 1828 
Q 1203 1872 1538 1913 
Q 2219 1994 2541 2106 
Q 2544 2222 2544 2253 
Q 2544 2597 2384 2738 
Q 2169 2928 1744 2928 
Q 1347 2928 1158 2789 
Q 969 2650 878 2297 
L 328 2372 
Q 403 2725 575 2942 
Q 747 3159 1072 3276 
Q 1397 3394 1825 3394 
Q 2250 3394 2515 3294 
Q 2781 3194 2906 3042 
Q 3031 2891 3081 2659 
Q 3109 2516 3109 2141 
L 3109 1391 
Q 3109 606 3145 398 
Q 3181 191 3288 0 
L 2700 0 
Q 2613 175 2588 409 
z
M 2541 1666 
Q 2234 1541 1622 1453 
Q 1275 1403 1131 1340 
Q 988 1278 909 1158 
Q 831 1038 831 891 
Q 831 666 1001 516 
Q 1172 366 1500 366 
Q 1825 366 2078 508 
Q 2331 650 2450 897 
Q 2541 1088 2541 1459 
L 2541 1666 
z
" transform="scale(0.015625)"/>
       <path id="ArialMT-49" d="M 597 0 
L 597 4581 
L 1203 4581 
L 1203 0 
L 597 0 
z
" transform="scale(0.015625)"/>
       <path id="ArialMT-4e" d="M 488 0 
L 488 4581 
L 1109 4581 
L 3516 984 
L 3516 4581 
L 4097 4581 
L 4097 0 
L 3475 0 
L 1069 3600 
L 1069 0 
L 488 0 
z
" transform="scale(0.015625)"/>
       <path id="ArialMT-45" d="M 506 0 
L 506 4581 
L 3819 4581 
L 3819 4041 
L 1113 4041 
L 1113 2638 
L 3647 2638 
L 3647 2100 
L 1113 2100 
L 1113 541 
L 3925 541 
L 3925 0 
L 506 0 
z
" transform="scale(0.015625)"/>
       <path id="ArialMT-58" d="M 28 0 
L 1800 2388 
L 238 4581 
L 959 4581 
L 1791 3406 
Q 2050 3041 2159 2844 
Q 2313 3094 2522 3366 
L 3444 4581 
L 4103 4581 
L 2494 2422 
L 4228 0 
L 3478 0 
L 2325 1634 
Q 2228 1775 2125 1941 
Q 1972 1691 1906 1597 
L 756 0 
L 28 0 
z
" transform="scale(0.015625)"/>
       <path id="ArialMT-55" d="M 3500 4581 
L 4106 4581 
L 4106 1934 
Q 4106 1244 3950 837 
Q 3794 431 3386 176 
Q 2978 -78 2316 -78 
Q 1672 -78 1262 144 
Q 853 366 678 786 
Q 503 1206 503 1934 
L 503 4581 
L 1109 4581 
L 1109 1938 
Q 1109 1341 1220 1058 
Q 1331 775 1601 622 
Q 1872 469 2263 469 
Q 2931 469 3215 772 
Q 3500 1075 3500 1938 
L 3500 4581 
z
" transform="scale(0.015625)"/>
       <path id="ArialMT-53" d="M 288 1472 
L 859 1522 
Q 900 1178 1048 958 
Q 1197 738 1509 602 
Q 1822 466 2213 466 
Q 2559 466 2825 569 
Q 3091 672 3220 851 
Q 3350 1031 3350 1244 
Q 3350 1459 3225 1620 
Q 3100 1781 2813 1891 
Q 2628 1963 1997 2114 
Q 1366 2266 1113 2400 
Q 784 2572 623 2826 
Q 463 3081 463 3397 
Q 463 3744 659 4045 
Q 856 4347 1234 4503 
Q 1613 4659 2075 4659 
Q 2584 4659 2973 4495 
Q 3363 4331 3572 4012 
Q 3781 3694 3797 3291 
L 3216 3247 
Q 3169 3681 2898 3903 
Q 2628 4125 2100 4125 
Q 1550 4125 1298 3923 
Q 1047 3722 1047 3438 
Q 1047 3191 1225 3031 
Q 1400 2872 2139 2705 
Q 2878 2538 3153 2413 
Q 3553 2228 3743 1945 
Q 3934 1663 3934 1294 
Q 3934 928 3725 604 
Q 3516 281 3123 101 
Q 2731 -78 2241 -78 
Q 1619 -78 1198 103 
Q 778 284 539 648 
Q 300 1013 288 1472 
z
" transform="scale(0.015625)"/>
      </defs>
      <use xlink:href="#ArialMT-50"/>
      <use xlink:href="#ArialMT-6f" x="66.699219"/>
      <use xlink:href="#ArialMT-74" x="122.314453"/>
      <use xlink:href="#ArialMT-65" x="150.097656"/>
      <use xlink:href="#ArialMT-6e" x="205.712891"/>
      <use xlink:href="#ArialMT-74" x="261.328125"/>
      <use xlink:href="#ArialMT-69" x="289.111328"/>
      <use xlink:href="#ArialMT-61" x="311.328125"/>
      <use xlink:href="#ArialMT-6c" x="366.943359"/>
      <use xlink:href="#ArialMT-20" x="389.160156"/>
      <use xlink:href="#ArialMT-49" x="416.943359"/>
      <use xlink:href="#ArialMT-4e" x="444.726562"/>
      <use xlink:href="#ArialMT-45" x="516.943359"/>
      <use xlink:href="#ArialMT-58" x="583.642578"/>
      <use xlink:href="#ArialMT-55" x="650.341797"/>
      <use xlink:href="#ArialMT-53" x="722.558594"/>
      <use xlink:href="#ArialMT-20" x="789.257812"/>
      <use xlink:href="#ArialMT-69" x="817.041016"/>
      <use xlink:href="#ArialMT-6e" x="839.257812"/>
      <use xlink:href="#ArialMT-20" x="894.873047"/>
      <use xlink:href="#ArialMT-64" x="922.65625"/>
      <use xlink:href="#ArialMT-6f" x="978.271484"/>
      <use xlink:href="#ArialMT-6c" x="1033.886719"/>
      <use xlink:href="#ArialMT-6c" x="1056.103516"/>
      <use xlink:href="#ArialMT-61" x="1078.320312"/>
      <use xlink:href="#ArialMT-72" x="1133.935547"/>
     </g>
    </g>
   </g>
   <g id="matplotlib.axis_4">
    <g id="ytick_7">
     <g id="line2d_28">
      <path d="M 72.483047 650.3455 
L 507.228047 650.3455 
" clip-path="url(#pc3f6f12d0a)" style="fill: none; stroke: #cccccc; stroke-width: 1.5; stroke-linecap: round"/>
     </g>
     <g id="text_16">
      <!-- 0.00 -->
      <g style="fill: #262626" transform="translate(27.8725 656.250695)scale(0.165 -0.165)">
       <use xlink:href="#ArialMT-30"/>
       <use xlink:href="#ArialMT-2e" x="55.615234"/>
       <use xlink:href="#ArialMT-30" x="83.398438"/>
       <use xlink:href="#ArialMT-30" x="139.013672"/>
      </g>
     </g>
    </g>
    <g id="ytick_8">
     <g id="line2d_29">
      <path d="M 72.483047 599.103281 
L 507.228047 599.103281 
" clip-path="url(#pc3f6f12d0a)" style="fill: none; stroke: #cccccc; stroke-width: 1.5; stroke-linecap: round"/>
     </g>
     <g id="text_17">
      <!-- 0.02 -->
      <g style="fill: #262626" transform="translate(27.8725 605.008476)scale(0.165 -0.165)">
       <use xlink:href="#ArialMT-30"/>
       <use xlink:href="#ArialMT-2e" x="55.615234"/>
       <use xlink:href="#ArialMT-30" x="83.398438"/>
       <use xlink:href="#ArialMT-32" x="139.013672"/>
      </g>
     </g>
    </g>
    <g id="ytick_9">
     <g id="line2d_30">
      <path d="M 72.483047 547.861062 
L 507.228047 547.861062 
" clip-path="url(#pc3f6f12d0a)" style="fill: none; stroke: #cccccc; stroke-width: 1.5; stroke-linecap: round"/>
     </g>
     <g id="text_18">
      <!-- 0.04 -->
      <g style="fill: #262626" transform="translate(27.8725 553.766257)scale(0.165 -0.165)">
       <use xlink:href="#ArialMT-30"/>
       <use xlink:href="#ArialMT-2e" x="55.615234"/>
       <use xlink:href="#ArialMT-30" x="83.398438"/>
       <use xlink:href="#ArialMT-34" x="139.013672"/>
      </g>
     </g>
    </g>
    <g id="ytick_10">
     <g id="line2d_31">
      <path d="M 72.483047 496.618843 
L 507.228047 496.618843 
" clip-path="url(#pc3f6f12d0a)" style="fill: none; stroke: #cccccc; stroke-width: 1.5; stroke-linecap: round"/>
     </g>
     <g id="text_19">
      <!-- 0.06 -->
      <g style="fill: #262626" transform="translate(27.8725 502.524038)scale(0.165 -0.165)">
       <use xlink:href="#ArialMT-30"/>
       <use xlink:href="#ArialMT-2e" x="55.615234"/>
       <use xlink:href="#ArialMT-30" x="83.398438"/>
       <use xlink:href="#ArialMT-36" x="139.013672"/>
      </g>
     </g>
    </g>
    <g id="ytick_11">
     <g id="line2d_32">
      <path d="M 72.483047 445.376623 
L 507.228047 445.376623 
" clip-path="url(#pc3f6f12d0a)" style="fill: none; stroke: #cccccc; stroke-width: 1.5; stroke-linecap: round"/>
     </g>
     <g id="text_20">
      <!-- 0.08 -->
      <g style="fill: #262626" transform="translate(27.8725 451.281819)scale(0.165 -0.165)">
       <use xlink:href="#ArialMT-30"/>
       <use xlink:href="#ArialMT-2e" x="55.615234"/>
       <use xlink:href="#ArialMT-30" x="83.398438"/>
       <use xlink:href="#ArialMT-38" x="139.013672"/>
      </g>
     </g>
    </g>
    <g id="ytick_12">
     <g id="line2d_33">
      <path d="M 72.483047 394.134404 
L 507.228047 394.134404 
" clip-path="url(#pc3f6f12d0a)" style="fill: none; stroke: #cccccc; stroke-width: 1.5; stroke-linecap: round"/>
     </g>
     <g id="text_21">
      <!-- 0.10 -->
      <g style="fill: #262626" transform="translate(27.8725 400.0396)scale(0.165 -0.165)">
       <use xlink:href="#ArialMT-30"/>
       <use xlink:href="#ArialMT-2e" x="55.615234"/>
       <use xlink:href="#ArialMT-31" x="83.398438"/>
       <use xlink:href="#ArialMT-30" x="139.013672"/>
      </g>
     </g>
    </g>
    <g id="text_22">
     <!-- Frequency Density -->
     <g style="fill: #262626" transform="translate(20.084063 592.139598)rotate(-90)scale(0.18 -0.18)">
      <use xlink:href="#ArialMT-46"/>
      <use xlink:href="#ArialMT-72" x="61.083984"/>
      <use xlink:href="#ArialMT-65" x="94.384766"/>
      <use xlink:href="#ArialMT-71" x="150"/>
      <use xlink:href="#ArialMT-75" x="205.615234"/>
      <use xlink:href="#ArialMT-65" x="261.230469"/>
      <use xlink:href="#ArialMT-6e" x="316.845703"/>
      <use xlink:href="#ArialMT-63" x="372.460938"/>
      <use xlink:href="#ArialMT-79" x="422.460938"/>
      <use xlink:href="#ArialMT-20" x="472.460938"/>
      <use xlink:href="#ArialMT-44" x="500.244141"/>
      <use xlink:href="#ArialMT-65" x="572.460938"/>
      <use xlink:href="#ArialMT-6e" x="628.076172"/>
      <use xlink:href="#ArialMT-73" x="683.691406"/>
      <use xlink:href="#ArialMT-69" x="733.691406"/>
      <use xlink:href="#ArialMT-74" x="755.908203"/>
      <use xlink:href="#ArialMT-79" x="783.691406"/>
     </g>
    </g>
   </g>
   <g id="line2d_34">
    <path d="M 40.434971 650.344164 
L 57.983368 650.25731 
L 68.011023 649.993787 
L 93.080162 649.115388 
L 115.642387 648.787084 
L 130.683871 648.45754 
L 155.75301 647.566032 
L 173.301407 646.763205 
L 183.329063 646.083441 
L 193.356718 645.138845 
L 203.384374 643.936879 
L 210.905115 642.856177 
L 218.425857 641.586699 
L 225.946599 640.05943 
L 230.960426 638.850603 
L 235.974254 637.45443 
L 240.988082 635.842896 
L 246.00191 633.989104 
L 251.015738 631.855753 
L 256.029565 629.373633 
L 258.536479 627.967661 
L 261.043393 626.427995 
L 263.550307 624.734086 
L 266.057221 622.863713 
L 268.564135 620.793208 
L 271.071049 618.497483 
L 273.577963 615.949916 
L 276.084877 613.122161 
L 278.59179 609.983884 
L 281.098704 606.50238 
L 283.605618 602.642107 
L 286.112532 598.364402 
L 288.619446 593.628086 
L 291.12636 588.392158 
L 293.633274 582.622112 
L 296.140188 576.301267 
L 298.647102 569.44757 
L 303.660929 554.513201 
L 308.674757 539.419353 
L 311.181671 532.711734 
L 313.688585 527.17282 
L 316.195499 523.258674 
L 318.702413 521.346342 
L 321.209327 521.670451 
L 323.71624 524.2788 
L 326.223154 529.01882 
L 328.730068 535.559196 
L 331.236982 543.441646 
L 336.25081 561.181596 
L 338.757724 570.102635 
L 341.264638 578.584713 
L 343.771552 586.414357 
L 346.278466 593.483552 
L 348.785379 599.767629 
L 351.292293 605.298773 
L 353.799207 610.141414 
L 356.306121 614.373075 
L 358.813035 618.071658 
L 361.319949 621.308483 
L 363.826863 624.145563 
L 366.333777 626.635559 
L 368.840691 628.823128 
L 371.347604 630.746749 
L 373.854518 632.440435 
L 376.361432 633.934989 
L 378.868346 635.258623 
L 383.882174 637.492715 
L 388.896002 639.309236 
L 393.909829 640.816779 
L 398.923657 642.075461 
L 403.937485 643.122221 
L 408.951313 643.989924 
L 416.472055 645.025465 
L 423.992796 645.818973 
L 434.020452 646.609797 
L 446.555021 647.355442 
L 466.610332 648.304378 
L 481.651816 648.825154 
L 499.200213 649.423684 
L 516.74861 650.150353 
L 526.776266 650.310814 
L 539.310835 650.344108 
L 539.310835 650.344108 
" clip-path="url(#pc3f6f12d0a)" style="fill: none; stroke: #f7c6a6; stroke-width: 1.5; stroke-linecap: round"/>
   </g>
   <g id="line2d_35">
    <path d="M 40.736594 650.34415 
L 58.263129 650.253602 
L 68.278291 649.97656 
L 90.812407 649.16409 
L 143.392011 648.115713 
L 158.414755 647.597728 
L 170.933709 646.912156 
L 183.452662 645.949494 
L 195.971615 644.746603 
L 205.986778 643.587514 
L 213.49815 642.509435 
L 221.009522 641.168245 
L 226.017103 640.084199 
L 231.024685 638.820585 
L 236.032266 637.367753 
L 241.039847 635.718103 
L 246.047429 633.83886 
L 251.05501 631.655321 
L 256.062591 629.060778 
L 258.566382 627.572852 
L 261.070173 625.938133 
L 263.573963 624.141315 
L 266.077754 622.165867 
L 268.581545 619.993286 
L 271.085335 617.602457 
L 273.589126 614.969146 
L 276.092917 612.065589 
L 278.596707 608.8601 
L 281.100498 605.316739 
L 283.604289 601.395251 
L 286.108079 597.051736 
L 288.61187 592.240765 
L 291.115661 586.919894 
L 293.619451 581.057641 
L 296.123242 574.64573 
L 298.627033 567.715688 
L 303.634614 552.743663 
L 306.138405 545.133166 
L 308.642195 537.882034 
L 311.145986 531.420892 
L 313.649777 526.216658 
L 316.153567 522.714464 
L 318.657358 521.270196 
L 321.161149 522.088241 
L 323.664939 525.180206 
L 326.16873 530.356272 
L 328.672521 537.25254 
L 331.176311 545.387891 
L 341.191474 580.488851 
L 343.695265 588.119975 
L 346.199055 594.958278 
L 348.702846 600.998641 
L 351.206637 606.289685 
L 353.710427 610.909039 
L 356.214218 614.944138 
L 358.718009 618.479375 
L 361.221799 621.58902 
L 363.72559 624.334648 
L 366.229381 626.765654 
L 368.733171 628.921507 
L 371.236962 630.834579 
L 373.740753 632.532705 
L 376.244543 634.040922 
L 378.748334 635.382283 
L 381.252125 636.577881 
L 386.259706 638.604026 
L 391.267287 640.236519 
L 396.274869 641.556374 
L 401.28245 642.63037 
L 408.793822 643.924755 
L 416.305194 644.984593 
L 423.816566 645.852419 
L 431.327938 646.523309 
L 441.343101 647.183035 
L 456.365845 647.890878 
L 483.907542 648.948908 
L 498.930286 649.43349 
L 518.960611 650.216076 
L 531.479565 650.335588 
L 538.990937 650.344312 
L 538.990937 650.344312 
" clip-path="url(#pc3f6f12d0a)" style="fill: none; stroke: #f69c73; stroke-width: 1.5; stroke-linecap: round"/>
   </g>
   <g id="line2d_36">
    <path d="M 40.485126 650.344126 
L 58.028636 650.254506 
L 68.053499 649.983045 
L 90.60944 649.18017 
L 143.239969 648.034006 
L 160.783479 647.358097 
L 175.820773 646.542121 
L 185.845636 645.828104 
L 195.870498 644.885763 
L 203.389145 643.965524 
L 210.907792 642.842281 
L 218.42644 641.529508 
L 225.945087 639.982232 
L 230.957518 638.766614 
L 235.969949 637.366469 
L 240.982381 635.754799 
L 245.994812 633.894769 
L 251.007243 631.721769 
L 256.019675 629.135235 
L 258.52589 627.6474 
L 261.032106 626.006909 
L 263.538322 624.196326 
L 266.044538 622.198207 
L 268.550753 619.994718 
L 271.056969 617.566779 
L 273.563185 614.892931 
L 276.0694 611.948097 
L 278.575616 608.702495 
L 281.081832 605.120843 
L 283.588047 601.162105 
L 286.094263 596.780179 
L 288.600479 591.926264 
L 291.106694 586.553982 
L 293.61291 580.628453 
L 296.119126 574.140134 
L 298.625341 567.123208 
L 303.637773 551.983394 
L 306.143988 544.32321 
L 308.650204 537.06991 
L 311.15642 530.669913 
L 313.662635 525.598774 
L 316.168851 522.300179 
L 318.675067 521.117714 
L 321.181283 522.234307 
L 323.687498 525.634656 
L 326.193714 531.101354 
L 328.69993 538.246785 
L 331.206145 546.573293 
L 338.724792 573.522746 
L 341.231008 581.814473 
L 343.737224 589.364488 
L 346.243439 596.098601 
L 348.749655 602.021465 
L 351.255871 607.188788 
L 353.762086 611.68279 
L 356.268302 615.593756 
L 358.774518 619.008136 
L 361.280733 622.002223 
L 363.786949 624.639861 
L 366.293165 626.97271 
L 368.799381 629.041923 
L 371.305596 630.88045 
L 373.811812 632.515445 
L 376.318028 633.970422 
L 378.824243 635.266889 
L 383.836675 637.465146 
L 388.849106 639.259771 
L 393.861537 640.764861 
L 398.873969 642.042027 
L 403.8864 643.111955 
L 408.898831 643.986824 
L 416.417478 644.993865 
L 423.936126 645.751149 
L 436.467204 646.726752 
L 448.998282 647.473979 
L 469.048008 648.408075 
L 484.085302 648.94041 
L 501.628812 649.538008 
L 516.666106 650.153172 
L 526.690969 650.312727 
L 539.222047 650.344262 
L 539.222047 650.344262 
" clip-path="url(#pc3f6f12d0a)" style="fill: none; stroke: #f3714d; stroke-width: 1.5; stroke-linecap: round"/>
   </g>
   <g id="line2d_37">
    <path d="M 40.627192 650.344223 
L 58.158253 650.259694 
L 68.176003 650.005805 
L 93.220376 649.149037 
L 150.822435 647.778611 
L 168.353497 647.018616 
L 180.875683 646.316986 
L 190.893433 645.538478 
L 198.406745 644.733961 
L 205.920057 643.674002 
L 213.433369 642.35451 
L 220.946681 640.83754 
L 228.459993 639.129979 
L 233.468868 637.822172 
L 238.477742 636.315104 
L 243.486617 634.560913 
L 248.495492 632.511951 
L 253.504366 630.105357 
L 258.513241 627.256247 
L 261.017678 625.632972 
L 263.522116 623.856031 
L 266.026553 621.906073 
L 268.53099 619.760015 
L 271.035428 617.390479 
L 273.539865 614.76564 
L 276.044303 611.849528 
L 278.54874 608.602683 
L 281.053177 604.982999 
L 283.557615 600.946716 
L 286.062052 596.44979 
L 288.566489 591.450204 
L 291.070927 585.912201 
L 293.575364 579.813627 
L 296.079801 573.157466 
L 298.584239 565.98798 
L 303.593113 550.610468 
L 306.097551 542.86917 
L 308.601988 535.563267 
L 311.106425 529.146486 
L 313.610863 524.106735 
L 316.1153 520.902699 
L 318.619737 519.890428 
L 321.124175 521.256561 
L 323.628612 524.976039 
L 326.13305 530.807253 
L 328.637487 538.327621 
L 331.141924 547.001137 
L 338.655236 574.558329 
L 341.159674 582.890433 
L 343.664111 590.423649 
L 346.168548 597.107867 
L 348.672986 602.970153 
L 351.177423 608.082811 
L 353.68186 612.53693 
L 356.186298 616.424126 
L 358.690735 619.826394 
L 361.195172 622.812371 
L 363.69961 625.437776 
L 366.204047 627.747984 
L 368.708484 629.781121 
L 371.212922 631.570694 
L 373.717359 633.14727 
L 376.221797 634.539165 
L 378.726234 635.77241 
L 383.735109 637.853266 
L 388.743983 639.539055 
L 393.752858 640.931712 
L 398.761733 642.099494 
L 406.275045 643.532656 
L 413.788357 644.675814 
L 421.301669 645.586935 
L 431.319418 646.522025 
L 441.337168 647.233063 
L 453.859354 647.881171 
L 471.390416 648.508295 
L 498.939227 649.426064 
L 516.470288 650.148404 
L 526.488038 650.310662 
L 539.010224 650.344139 
L 539.010224 650.344139 
" clip-path="url(#pc3f6f12d0a)" style="fill: none; stroke: #e83f3f; stroke-width: 1.5; stroke-linecap: round"/>
   </g>
   <g id="line2d_38">
    <path d="M 40.775026 650.344185 
L 58.297869 650.259439 
L 68.310923 650.005436 
L 90.840293 649.231601 
L 135.899034 648.38287 
L 150.918614 647.867337 
L 165.938194 647.10689 
L 180.957774 646.179808 
L 190.970828 645.371963 
L 198.480618 644.595779 
L 205.990408 643.626519 
L 213.500198 642.455299 
L 221.009988 641.05723 
L 226.016515 639.958469 
L 231.023041 638.689484 
L 236.029568 637.223047 
L 241.036095 635.535513 
L 246.042622 633.598136 
L 251.049148 631.363287 
L 256.055675 628.747849 
L 258.558938 627.258818 
L 261.062202 625.623003 
L 263.565465 623.818946 
L 266.068728 621.824733 
L 268.571992 619.618568 
L 271.075255 617.178556 
L 273.578519 614.481497 
L 276.081782 611.500905 
L 278.585045 608.204715 
L 281.088309 604.553393 
L 283.591572 600.499197 
L 286.094835 595.98733 
L 288.598099 590.959759 
L 291.101362 585.362529 
L 293.604625 579.157411 
L 296.107889 572.338311 
L 298.611152 564.951953 
L 308.624206 533.662128 
L 311.127469 527.243852 
L 313.630732 522.362811 
L 316.133996 519.483549 
L 318.637259 518.940998 
L 321.140522 520.87591 
L 323.643786 525.200721 
L 326.147049 531.606838 
L 328.650313 539.613103 
L 331.153576 548.643488 
L 336.160103 567.51116 
L 338.663366 576.438615 
L 341.166629 584.640564 
L 343.669893 591.9913 
L 346.173156 598.46884 
L 348.676419 604.120863 
L 351.179683 609.032453 
L 353.682946 613.301078 
L 356.18621 617.020523 
L 358.689473 620.272872 
L 361.192736 623.126323 
L 363.696 625.636424 
L 366.199263 627.848727 
L 368.702526 629.801531 
L 371.20579 631.528012 
L 373.709053 633.057552 
L 376.212316 634.416395 
L 378.71558 635.627889 
L 383.722107 637.688332 
L 388.728633 639.372142 
L 393.73516 640.7761 
L 398.741687 641.966721 
L 403.748213 642.985559 
L 411.258004 644.241969 
L 418.767794 645.220674 
L 426.277584 645.981274 
L 436.290637 646.76016 
L 448.806954 647.496185 
L 466.329798 648.298206 
L 486.355905 649.003115 
L 503.878748 649.649385 
L 516.395065 650.145801 
L 526.408118 650.310985 
L 538.924435 650.344204 
L 538.924435 650.344204 
" clip-path="url(#pc3f6f12d0a)" style="fill: none; stroke: #ca1a50; stroke-width: 1.5; stroke-linecap: round"/>
   </g>
   <g id="line2d_39">
    <path d="M 40.82384 650.344369 
L 60.846828 650.227682 
L 70.858322 649.935416 
L 90.881311 649.243758 
L 140.938782 648.171423 
L 158.458897 647.460891 
L 173.476139 646.648341 
L 185.990507 645.748532 
L 196.002001 644.79748 
L 203.510622 643.845199 
L 211.019242 642.68651 
L 221.030737 640.876411 
L 228.539357 639.26794 
L 233.545105 638.009362 
L 238.550852 636.542118 
L 243.556599 634.802149 
L 248.562346 632.712828 
L 253.568093 630.191408 
L 256.070967 628.743659 
L 258.57384 627.158502 
L 261.076714 625.42598 
L 263.579587 623.53465 
L 266.082461 621.470361 
L 268.585335 619.215049 
L 271.088208 616.745717 
L 273.591082 614.03378 
L 276.093955 611.044821 
L 278.596829 607.738796 
L 281.099702 604.070659 
L 283.602576 599.991417 
L 286.10545 595.449817 
L 288.608323 590.395192 
L 291.111197 584.782495 
L 293.61407 578.580919 
L 296.116944 571.787484 
L 298.619817 564.446082 
L 303.625565 548.667127 
L 306.128438 540.749738 
L 308.631312 533.337903 
L 311.134185 526.930881 
L 313.637059 522.054665 
L 316.139932 519.187562 
L 318.642806 518.67846 
L 321.14568 520.677617 
L 323.648553 525.099373 
L 326.151427 531.62882 
L 328.6543 539.772155 
L 331.157174 548.937917 
L 336.162921 568.017689 
L 338.665795 577.006268 
L 341.168668 585.237428 
L 343.671542 592.588801 
L 346.174415 599.043699 
L 348.677289 604.655798 
L 351.180162 609.51626 
L 353.683036 613.728563 
L 356.18591 617.392392 
L 358.688783 620.595308 
L 361.191657 623.409902 
L 363.69453 625.894177 
L 366.197404 628.093571 
L 368.700277 630.043631 
L 371.203151 631.772797 
L 373.706025 633.30495 
L 376.208898 634.661489 
L 378.711772 635.86274 
L 383.717519 637.878627 
L 388.723266 639.503336 
L 393.729013 640.859918 
L 398.73476 642.027359 
L 406.243381 643.500731 
L 413.752002 644.68191 
L 421.260622 645.613419 
L 428.769243 646.344543 
L 438.780737 647.091345 
L 451.295105 647.801859 
L 463.809473 648.333928 
L 481.329588 648.810031 
L 496.34683 649.286538 
L 521.375565 650.248191 
L 533.889933 650.339213 
L 538.89568 650.344018 
L 538.89568 650.344018 
" clip-path="url(#pc3f6f12d0a)" style="fill: none; stroke: #a11a5b; stroke-width: 1.5; stroke-linecap: round"/>
   </g>
   <g id="line2d_40">
    <path d="M 40.80451 650.344213 
L 58.327997 650.258562 
L 68.341419 649.999639 
L 93.374972 649.157375 
L 115.90517 648.76423 
L 130.925302 648.510499 
L 143.442078 648.081875 
L 163.468921 647.147781 
L 178.489053 646.304516 
L 188.502474 645.560963 
L 198.515895 644.580155 
L 206.025961 643.598667 
L 213.536027 642.365374 
L 221.046093 640.908422 
L 228.556159 639.210022 
L 233.56287 637.871953 
L 238.569581 636.296316 
L 243.576291 634.434087 
L 248.583002 632.253628 
L 253.589713 629.715876 
L 258.596423 626.74354 
L 261.099779 625.056391 
L 263.603134 623.209258 
L 266.106489 621.179903 
L 268.609845 618.944376 
L 271.1132 616.477107 
L 273.616555 613.7506 
L 276.119911 610.734714 
L 278.623266 607.395617 
L 281.126621 603.694711 
L 283.629977 599.588012 
L 286.133332 595.026745 
L 288.636687 589.96008 
L 291.140042 584.341117 
L 293.643398 578.137214 
L 296.146753 571.345384 
L 298.650108 564.01255 
L 308.66353 533.144106 
L 311.166885 526.873176 
L 313.67024 522.157354 
L 316.173596 519.461225 
L 318.676951 519.116002 
L 321.180306 521.253698 
L 323.683662 525.773602 
L 326.187017 532.352009 
L 328.690372 540.49412 
L 333.697083 559.128409 
L 336.200438 568.523952 
L 338.703794 577.415457 
L 341.207149 585.558138 
L 343.710504 592.837543 
L 346.21386 599.240961 
L 348.717215 604.822569 
L 351.22057 609.671362 
L 353.723926 613.886881 
L 356.227281 617.563971 
L 358.730636 620.785271 
L 361.233992 623.61911 
L 363.737347 626.120478 
L 366.240702 628.333366 
L 368.744058 630.293422 
L 371.247413 632.0304 
L 373.750768 633.570145 
L 376.254124 634.935999 
L 378.757479 636.149584 
L 383.76419 638.198346 
L 388.7709 639.851736 
L 393.777611 641.204242 
L 398.784321 642.317632 
L 406.294387 643.654377 
L 413.804453 644.739361 
L 423.817875 645.924856 
L 431.327941 646.606014 
L 441.341362 647.246125 
L 461.368205 648.149327 
L 481.395047 648.848677 
L 503.925245 649.594556 
L 518.945377 650.189639 
L 528.958798 650.322455 
L 538.97222 650.343944 
L 538.97222 650.343944 
" clip-path="url(#pc3f6f12d0a)" style="fill: none; stroke: #751f58; stroke-width: 1.5; stroke-linecap: round"/>
   </g>
   <g id="line2d_41">
    <path d="M 40.745385 650.343964 
L 58.271788 650.244579 
L 68.286876 649.956923 
L 88.317051 649.235 
L 115.858541 648.755583 
L 135.888716 648.282006 
L 155.918891 647.511593 
L 170.941522 646.80786 
L 183.460381 645.981131 
L 193.475468 645.106162 
L 200.986784 644.271348 
L 208.4981 643.229091 
L 216.009415 641.945996 
L 223.520731 640.391785 
L 231.032046 638.528018 
L 236.03959 637.082143 
L 241.047134 635.429814 
L 246.054677 633.508917 
L 251.062221 631.241754 
L 256.069765 628.546103 
L 258.573537 627.010582 
L 261.077309 625.333096 
L 263.58108 623.497852 
L 266.084852 621.48534 
L 268.588624 619.271605 
L 271.092396 616.82795 
L 273.596168 614.121204 
L 276.09994 611.114503 
L 278.603712 607.768362 
L 281.107483 604.041699 
L 283.611255 599.892561 
L 286.115027 595.278709 
L 288.618799 590.158907 
L 291.122571 584.496404 
L 293.626343 578.266524 
L 296.130114 571.469932 
L 298.633886 564.151927 
L 308.648974 533.362691 
L 311.152746 527.060432 
L 313.656517 522.276848 
L 316.160289 519.477111 
L 318.664061 518.999826 
L 321.167833 520.990721 
L 323.671605 525.367005 
L 326.175377 531.823647 
L 328.679149 539.881321 
L 331.18292 548.964002 
L 336.190464 567.931382 
L 338.694236 576.900262 
L 341.198008 585.133851 
L 343.70178 592.504128 
L 346.205552 598.988038 
L 348.709323 604.633716 
L 351.213095 609.528306 
L 353.716867 613.772774 
L 356.220639 617.465381 
L 358.724411 620.692937 
L 361.228183 623.527694 
L 363.731955 626.027708 
L 366.235726 628.238908 
L 368.739498 630.197802 
L 371.24327 631.93416 
L 373.747042 633.473355 
L 376.250814 634.838148 
L 378.754586 636.049813 
L 383.762129 638.093491 
L 388.769673 639.74912 
L 393.777217 641.126798 
L 398.78476 642.294592 
L 403.792304 643.287918 
L 411.30362 644.495988 
L 418.814935 645.428633 
L 426.326251 646.157098 
L 436.341338 646.902746 
L 451.363969 647.760416 
L 466.386601 648.427544 
L 483.913004 648.959599 
L 498.935635 649.468138 
L 516.462038 650.163326 
L 526.477125 650.314335 
L 538.995984 650.344333 
L 538.995984 650.344333 
" clip-path="url(#pc3f6f12d0a)" style="fill: none; stroke: #4c1d4b; stroke-width: 1.5; stroke-linecap: round"/>
   </g>
   <g id="line2d_42">
    <path d="M 40.561023 650.344218 
L 58.097724 650.25937 
L 68.118696 650.00078 
L 93.171126 649.122097 
L 145.781229 647.945089 
L 158.307444 647.405572 
L 175.844146 646.366834 
L 188.370361 645.435357 
L 198.391333 644.409191 
L 205.907062 643.436889 
L 213.422791 642.257845 
L 220.93852 640.803425 
L 228.454249 639.022873 
L 233.464735 637.645184 
L 238.475221 636.091952 
L 243.485707 634.311787 
L 248.496193 632.231877 
L 253.506679 629.773998 
L 258.517165 626.854783 
L 261.022408 625.19036 
L 263.527651 623.367877 
L 266.032894 621.367882 
L 268.538137 619.168268 
L 271.04338 616.744245 
L 273.548623 614.06812 
L 276.053866 611.108792 
L 278.559109 607.831065 
L 281.064352 604.194968 
L 283.569595 600.155463 
L 286.074838 595.663151 
L 288.580081 590.666826 
L 291.085324 585.119055 
L 293.590567 578.986035 
L 296.09581 572.262685 
L 298.601053 564.992802 
L 308.622025 534.224556 
L 311.127268 527.908985 
L 313.632511 523.107362 
L 316.137754 520.28118 
L 318.642997 519.763904 
L 321.14824 521.696507 
L 323.653483 525.993593 
L 326.158726 532.350837 
L 328.663969 540.293152 
L 331.169212 549.251584 
L 336.179698 567.977689 
L 338.684941 576.84459 
L 341.190184 584.995078 
L 343.695427 592.302611 
L 346.20067 598.743303 
L 348.705913 604.362906 
L 351.211156 609.245425 
L 353.716399 613.488522 
L 356.221642 617.187314 
L 358.726885 620.425767 
L 361.232128 623.273751 
L 363.737371 625.787619 
L 366.242614 628.012523 
L 368.747857 629.985176 
L 371.2531 631.736268 
L 373.758343 633.29221 
L 376.263586 634.676212 
L 378.768829 635.908895 
L 383.779315 637.99212 
L 388.789801 639.668619 
L 393.800287 641.042727 
L 398.810773 642.196008 
L 406.326502 643.620726 
L 413.842231 644.747402 
L 421.35796 645.638239 
L 431.378932 646.58138 
L 441.399904 647.316652 
L 451.420876 647.858475 
L 466.452334 648.401207 
L 504.030979 649.651251 
L 516.557194 650.153645 
L 526.578166 650.312741 
L 539.104381 650.344261 
L 539.104381 650.344261 
" clip-path="url(#pc3f6f12d0a)" style="fill: none; stroke: #251433; stroke-width: 1.5; stroke-linecap: round"/>
   </g>
   <g id="patch_6">
    <path d="M 72.483047 650.3455 
L 72.483047 383.878384 
" style="fill: none; stroke: #cccccc; stroke-width: 1.875; stroke-linejoin: miter; stroke-linecap: square"/>
   </g>
   <g id="patch_7">
    <path d="M 72.483047 650.3455 
L 507.228047 650.3455 
" style="fill: none; stroke: #cccccc; stroke-width: 1.875; stroke-linejoin: miter; stroke-linecap: square"/>
   </g>
   <g id="text_23">
    <!-- income_deciles = 10thD -->
    <g style="fill: #262626" transform="translate(193.554141 377.878384)scale(0.18 -0.18)">
     <defs>
      <path id="ArialMT-68" d="M 422 0 
L 422 4581 
L 984 4581 
L 984 2938 
Q 1378 3394 1978 3394 
Q 2347 3394 2619 3248 
Q 2891 3103 3008 2847 
Q 3125 2591 3125 2103 
L 3125 0 
L 2563 0 
L 2563 2103 
Q 2563 2525 2380 2717 
Q 2197 2909 1863 2909 
Q 1613 2909 1392 2779 
Q 1172 2650 1078 2428 
Q 984 2206 984 1816 
L 984 0 
L 422 0 
z
" transform="scale(0.015625)"/>
     </defs>
     <use xlink:href="#ArialMT-69"/>
     <use xlink:href="#ArialMT-6e" x="22.216797"/>
     <use xlink:href="#ArialMT-63" x="77.832031"/>
     <use xlink:href="#ArialMT-6f" x="127.832031"/>
     <use xlink:href="#ArialMT-6d" x="183.447266"/>
     <use xlink:href="#ArialMT-65" x="266.748047"/>
     <use xlink:href="#ArialMT-5f" x="322.363281"/>
     <use xlink:href="#ArialMT-64" x="377.978516"/>
     <use xlink:href="#ArialMT-65" x="433.59375"/>
     <use xlink:href="#ArialMT-63" x="489.208984"/>
     <use xlink:href="#ArialMT-69" x="539.208984"/>
     <use xlink:href="#ArialMT-6c" x="561.425781"/>
     <use xlink:href="#ArialMT-65" x="583.642578"/>
     <use xlink:href="#ArialMT-73" x="639.257812"/>
     <use xlink:href="#ArialMT-20" x="689.257812"/>
     <use xlink:href="#ArialMT-3d" x="717.041016"/>
     <use xlink:href="#ArialMT-20" x="775.439453"/>
     <use xlink:href="#ArialMT-31" x="803.222656"/>
     <use xlink:href="#ArialMT-30" x="858.837891"/>
     <use xlink:href="#ArialMT-74" x="914.453125"/>
     <use xlink:href="#ArialMT-68" x="942.236328"/>
     <use xlink:href="#ArialMT-44" x="997.851562"/>
    </g>
   </g>
   <g id="legend_1">
    <g id="patch_8">
     <path d="M 551.125547 593.826332 
L 715.600547 593.826332 
L 715.600547 333.810707 
L 551.125547 333.810707 
z
" style="fill: #ffffff; opacity: 0.8; stroke: #cccccc; stroke-width: 1.5; stroke-linejoin: miter"/>
    </g>
    <g id="text_24">
     <!-- Ridehail Scenarios -->
     <g style="fill: #262626" transform="translate(558.325547 353.894769)scale(0.18 -0.18)">
      <defs>
       <path id="ArialMT-52" d="M 503 0 
L 503 4581 
L 2534 4581 
Q 3147 4581 3465 4457 
Q 3784 4334 3975 4021 
Q 4166 3709 4166 3331 
Q 4166 2844 3850 2509 
Q 3534 2175 2875 2084 
Q 3116 1969 3241 1856 
Q 3506 1613 3744 1247 
L 4541 0 
L 3778 0 
L 3172 953 
Q 2906 1366 2734 1584 
Q 2563 1803 2427 1890 
Q 2291 1978 2150 2013 
Q 2047 2034 1813 2034 
L 1109 2034 
L 1109 0 
L 503 0 
z
M 1109 2559 
L 2413 2559 
Q 2828 2559 3062 2645 
Q 3297 2731 3419 2920 
Q 3541 3109 3541 3331 
Q 3541 3656 3305 3865 
Q 3069 4075 2559 4075 
L 1109 4075 
L 1109 2559 
z
" transform="scale(0.015625)"/>
      </defs>
      <use xlink:href="#ArialMT-52"/>
      <use xlink:href="#ArialMT-69" x="72.216797"/>
      <use xlink:href="#ArialMT-64" x="94.433594"/>
      <use xlink:href="#ArialMT-65" x="150.048828"/>
      <use xlink:href="#ArialMT-68" x="205.664062"/>
      <use xlink:href="#ArialMT-61" x="261.279297"/>
      <use xlink:href="#ArialMT-69" x="316.894531"/>
      <use xlink:href="#ArialMT-6c" x="339.111328"/>
      <use xlink:href="#ArialMT-20" x="361.328125"/>
      <use xlink:href="#ArialMT-53" x="389.111328"/>
      <use xlink:href="#ArialMT-63" x="455.810547"/>
      <use xlink:href="#ArialMT-65" x="505.810547"/>
      <use xlink:href="#ArialMT-6e" x="561.425781"/>
      <use xlink:href="#ArialMT-61" x="617.041016"/>
      <use xlink:href="#ArialMT-72" x="672.65625"/>
      <use xlink:href="#ArialMT-69" x="705.957031"/>
      <use xlink:href="#ArialMT-6f" x="728.173828"/>
      <use xlink:href="#ArialMT-73" x="783.789062"/>
     </g>
    </g>
    <g id="line2d_43">
     <path d="M 559.640391 373.056332 
L 577.640391 373.056332 
L 595.640391 373.056332 
" style="fill: none; stroke: #f7c6a6; stroke-width: 1.5; stroke-linecap: round"/>
    </g>
    <g id="text_25">
     <!-- 0% Price -->
     <g style="fill: #262626" transform="translate(610.040391 379.356332)scale(0.18 -0.18)">
      <defs>
       <path id="ArialMT-25" d="M 372 3481 
Q 372 3972 619 4315 
Q 866 4659 1334 4659 
Q 1766 4659 2048 4351 
Q 2331 4044 2331 3447 
Q 2331 2866 2045 2552 
Q 1759 2238 1341 2238 
Q 925 2238 648 2547 
Q 372 2856 372 3481 
z
M 1350 4272 
Q 1141 4272 1002 4090 
Q 863 3909 863 3425 
Q 863 2984 1003 2804 
Q 1144 2625 1350 2625 
Q 1563 2625 1702 2806 
Q 1841 2988 1841 3469 
Q 1841 3913 1700 4092 
Q 1559 4272 1350 4272 
z
M 1353 -169 
L 3859 4659 
L 4316 4659 
L 1819 -169 
L 1353 -169 
z
M 3334 1075 
Q 3334 1569 3581 1911 
Q 3828 2253 4300 2253 
Q 4731 2253 5014 1945 
Q 5297 1638 5297 1041 
Q 5297 459 5011 145 
Q 4725 -169 4303 -169 
Q 3888 -169 3611 142 
Q 3334 453 3334 1075 
z
M 4316 1866 
Q 4103 1866 3964 1684 
Q 3825 1503 3825 1019 
Q 3825 581 3965 400 
Q 4106 219 4313 219 
Q 4528 219 4667 400 
Q 4806 581 4806 1063 
Q 4806 1506 4665 1686 
Q 4525 1866 4316 1866 
z
" transform="scale(0.015625)"/>
      </defs>
      <use xlink:href="#ArialMT-30"/>
      <use xlink:href="#ArialMT-25" x="55.615234"/>
      <use xlink:href="#ArialMT-20" x="144.53125"/>
      <use xlink:href="#ArialMT-50" x="172.314453"/>
      <use xlink:href="#ArialMT-72" x="239.013672"/>
      <use xlink:href="#ArialMT-69" x="272.314453"/>
      <use xlink:href="#ArialMT-63" x="294.53125"/>
      <use xlink:href="#ArialMT-65" x="344.53125"/>
     </g>
    </g>
    <g id="line2d_44">
     <path d="M 559.640391 398.517894 
L 577.640391 398.517894 
L 595.640391 398.517894 
" style="fill: none; stroke: #f69c73; stroke-width: 1.5; stroke-linecap: round"/>
    </g>
    <g id="text_26">
     <!-- 12.5% Price -->
     <g style="fill: #262626" transform="translate(610.040391 404.817894)scale(0.18 -0.18)">
      <defs>
       <path id="ArialMT-35" d="M 266 1200 
L 856 1250 
Q 922 819 1161 601 
Q 1400 384 1738 384 
Q 2144 384 2425 690 
Q 2706 997 2706 1503 
Q 2706 1984 2436 2262 
Q 2166 2541 1728 2541 
Q 1456 2541 1237 2417 
Q 1019 2294 894 2097 
L 366 2166 
L 809 4519 
L 3088 4519 
L 3088 3981 
L 1259 3981 
L 1013 2750 
Q 1425 3038 1878 3038 
Q 2478 3038 2890 2622 
Q 3303 2206 3303 1553 
Q 3303 931 2941 478 
Q 2500 -78 1738 -78 
Q 1113 -78 717 272 
Q 322 622 266 1200 
z
" transform="scale(0.015625)"/>
      </defs>
      <use xlink:href="#ArialMT-31"/>
      <use xlink:href="#ArialMT-32" x="55.615234"/>
      <use xlink:href="#ArialMT-2e" x="111.230469"/>
      <use xlink:href="#ArialMT-35" x="139.013672"/>
      <use xlink:href="#ArialMT-25" x="194.628906"/>
      <use xlink:href="#ArialMT-20" x="283.544922"/>
      <use xlink:href="#ArialMT-50" x="311.328125"/>
      <use xlink:href="#ArialMT-72" x="378.027344"/>
      <use xlink:href="#ArialMT-69" x="411.328125"/>
      <use xlink:href="#ArialMT-63" x="433.544922"/>
      <use xlink:href="#ArialMT-65" x="483.544922"/>
     </g>
    </g>
    <g id="line2d_45">
     <path d="M 559.640391 423.979457 
L 577.640391 423.979457 
L 595.640391 423.979457 
" style="fill: none; stroke: #f3714d; stroke-width: 1.5; stroke-linecap: round"/>
    </g>
    <g id="text_27">
     <!-- 25% Price -->
     <g style="fill: #262626" transform="translate(610.040391 430.279457)scale(0.18 -0.18)">
      <use xlink:href="#ArialMT-32"/>
      <use xlink:href="#ArialMT-35" x="55.615234"/>
      <use xlink:href="#ArialMT-25" x="111.230469"/>
      <use xlink:href="#ArialMT-20" x="200.146484"/>
      <use xlink:href="#ArialMT-50" x="227.929688"/>
      <use xlink:href="#ArialMT-72" x="294.628906"/>
      <use xlink:href="#ArialMT-69" x="327.929688"/>
      <use xlink:href="#ArialMT-63" x="350.146484"/>
      <use xlink:href="#ArialMT-65" x="400.146484"/>
     </g>
    </g>
    <g id="line2d_46">
     <path d="M 559.640391 449.441019 
L 577.640391 449.441019 
L 595.640391 449.441019 
" style="fill: none; stroke: #e83f3f; stroke-width: 1.5; stroke-linecap: round"/>
    </g>
    <g id="text_28">
     <!-- 50% Price -->
     <g style="fill: #262626" transform="translate(610.040391 455.741019)scale(0.18 -0.18)">
      <use xlink:href="#ArialMT-35"/>
      <use xlink:href="#ArialMT-30" x="55.615234"/>
      <use xlink:href="#ArialMT-25" x="111.230469"/>
      <use xlink:href="#ArialMT-20" x="200.146484"/>
      <use xlink:href="#ArialMT-50" x="227.929688"/>
      <use xlink:href="#ArialMT-72" x="294.628906"/>
      <use xlink:href="#ArialMT-69" x="327.929688"/>
      <use xlink:href="#ArialMT-63" x="350.146484"/>
      <use xlink:href="#ArialMT-65" x="400.146484"/>
     </g>
    </g>
    <g id="line2d_47">
     <path d="M 559.640391 474.902582 
L 577.640391 474.902582 
L 595.640391 474.902582 
" style="fill: none; stroke: #ca1a50; stroke-width: 1.5; stroke-linecap: round"/>
    </g>
    <g id="text_29">
     <!-- Baseline -->
     <g style="fill: #262626" transform="translate(610.040391 481.202582)scale(0.18 -0.18)">
      <defs>
       <path id="ArialMT-42" d="M 469 0 
L 469 4581 
L 2188 4581 
Q 2713 4581 3030 4442 
Q 3347 4303 3526 4014 
Q 3706 3725 3706 3409 
Q 3706 3116 3547 2856 
Q 3388 2597 3066 2438 
Q 3481 2316 3704 2022 
Q 3928 1728 3928 1328 
Q 3928 1006 3792 729 
Q 3656 453 3456 303 
Q 3256 153 2954 76 
Q 2653 0 2216 0 
L 469 0 
z
M 1075 2656 
L 2066 2656 
Q 2469 2656 2644 2709 
Q 2875 2778 2992 2937 
Q 3109 3097 3109 3338 
Q 3109 3566 3000 3739 
Q 2891 3913 2687 3977 
Q 2484 4041 1991 4041 
L 1075 4041 
L 1075 2656 
z
M 1075 541 
L 2216 541 
Q 2509 541 2628 563 
Q 2838 600 2978 687 
Q 3119 775 3209 942 
Q 3300 1109 3300 1328 
Q 3300 1584 3169 1773 
Q 3038 1963 2805 2039 
Q 2572 2116 2134 2116 
L 1075 2116 
L 1075 541 
z
" transform="scale(0.015625)"/>
      </defs>
      <use xlink:href="#ArialMT-42"/>
      <use xlink:href="#ArialMT-61" x="66.699219"/>
      <use xlink:href="#ArialMT-73" x="122.314453"/>
      <use xlink:href="#ArialMT-65" x="172.314453"/>
      <use xlink:href="#ArialMT-6c" x="227.929688"/>
      <use xlink:href="#ArialMT-69" x="250.146484"/>
      <use xlink:href="#ArialMT-6e" x="272.363281"/>
      <use xlink:href="#ArialMT-65" x="327.978516"/>
     </g>
    </g>
    <g id="line2d_48">
     <path d="M 559.640391 500.364144 
L 577.640391 500.364144 
L 595.640391 500.364144 
" style="fill: none; stroke: #a11a5b; stroke-width: 1.5; stroke-linecap: round"/>
    </g>
    <g id="text_30">
     <!-- 175% Price -->
     <g style="fill: #262626" transform="translate(610.040391 506.664144)scale(0.18 -0.18)">
      <defs>
       <path id="ArialMT-37" d="M 303 3981 
L 303 4522 
L 3269 4522 
L 3269 4084 
Q 2831 3619 2401 2847 
Q 1972 2075 1738 1259 
Q 1569 684 1522 0 
L 944 0 
Q 953 541 1156 1306 
Q 1359 2072 1739 2783 
Q 2119 3494 2547 3981 
L 303 3981 
z
" transform="scale(0.015625)"/>
      </defs>
      <use xlink:href="#ArialMT-31"/>
      <use xlink:href="#ArialMT-37" x="55.615234"/>
      <use xlink:href="#ArialMT-35" x="111.230469"/>
      <use xlink:href="#ArialMT-25" x="166.845703"/>
      <use xlink:href="#ArialMT-20" x="255.761719"/>
      <use xlink:href="#ArialMT-50" x="283.544922"/>
      <use xlink:href="#ArialMT-72" x="350.244141"/>
      <use xlink:href="#ArialMT-69" x="383.544922"/>
      <use xlink:href="#ArialMT-63" x="405.761719"/>
      <use xlink:href="#ArialMT-65" x="455.761719"/>
     </g>
    </g>
    <g id="line2d_49">
     <path d="M 559.640391 525.825707 
L 577.640391 525.825707 
L 595.640391 525.825707 
" style="fill: none; stroke: #751f58; stroke-width: 1.5; stroke-linecap: round"/>
    </g>
    <g id="text_31">
     <!-- 300% Price -->
     <g style="fill: #262626" transform="translate(610.040391 532.125707)scale(0.18 -0.18)">
      <defs>
       <path id="ArialMT-33" d="M 269 1209 
L 831 1284 
Q 928 806 1161 595 
Q 1394 384 1728 384 
Q 2125 384 2398 659 
Q 2672 934 2672 1341 
Q 2672 1728 2419 1979 
Q 2166 2231 1775 2231 
Q 1616 2231 1378 2169 
L 1441 2663 
Q 1497 2656 1531 2656 
Q 1891 2656 2178 2843 
Q 2466 3031 2466 3422 
Q 2466 3731 2256 3934 
Q 2047 4138 1716 4138 
Q 1388 4138 1169 3931 
Q 950 3725 888 3313 
L 325 3413 
Q 428 3978 793 4289 
Q 1159 4600 1703 4600 
Q 2078 4600 2393 4439 
Q 2709 4278 2876 4000 
Q 3044 3722 3044 3409 
Q 3044 3113 2884 2869 
Q 2725 2625 2413 2481 
Q 2819 2388 3044 2092 
Q 3269 1797 3269 1353 
Q 3269 753 2831 336 
Q 2394 -81 1725 -81 
Q 1122 -81 723 278 
Q 325 638 269 1209 
z
" transform="scale(0.015625)"/>
      </defs>
      <use xlink:href="#ArialMT-33"/>
      <use xlink:href="#ArialMT-30" x="55.615234"/>
      <use xlink:href="#ArialMT-30" x="111.230469"/>
      <use xlink:href="#ArialMT-25" x="166.845703"/>
      <use xlink:href="#ArialMT-20" x="255.761719"/>
      <use xlink:href="#ArialMT-50" x="283.544922"/>
      <use xlink:href="#ArialMT-72" x="350.244141"/>
      <use xlink:href="#ArialMT-69" x="383.544922"/>
      <use xlink:href="#ArialMT-63" x="405.761719"/>
      <use xlink:href="#ArialMT-65" x="455.761719"/>
     </g>
    </g>
    <g id="line2d_50">
     <path d="M 559.640391 551.287269 
L 577.640391 551.287269 
L 595.640391 551.287269 
" style="fill: none; stroke: #4c1d4b; stroke-width: 1.5; stroke-linecap: round"/>
    </g>
    <g id="text_32">
     <!-- 500% Price -->
     <g style="fill: #262626" transform="translate(610.040391 557.587269)scale(0.18 -0.18)">
      <use xlink:href="#ArialMT-35"/>
      <use xlink:href="#ArialMT-30" x="55.615234"/>
      <use xlink:href="#ArialMT-30" x="111.230469"/>
      <use xlink:href="#ArialMT-25" x="166.845703"/>
      <use xlink:href="#ArialMT-20" x="255.761719"/>
      <use xlink:href="#ArialMT-50" x="283.544922"/>
      <use xlink:href="#ArialMT-72" x="350.244141"/>
      <use xlink:href="#ArialMT-69" x="383.544922"/>
      <use xlink:href="#ArialMT-63" x="405.761719"/>
      <use xlink:href="#ArialMT-65" x="455.761719"/>
     </g>
    </g>
    <g id="line2d_51">
     <path d="M 559.640391 576.748832 
L 577.640391 576.748832 
L 595.640391 576.748832 
" style="fill: none; stroke: #251433; stroke-width: 1.5; stroke-linecap: round"/>
    </g>
    <g id="text_33">
     <!-- 800% Price -->
     <g style="fill: #262626" transform="translate(610.040391 583.048832)scale(0.18 -0.18)">
      <use xlink:href="#ArialMT-38"/>
      <use xlink:href="#ArialMT-30" x="55.615234"/>
      <use xlink:href="#ArialMT-30" x="111.230469"/>
      <use xlink:href="#ArialMT-25" x="166.845703"/>
      <use xlink:href="#ArialMT-20" x="255.761719"/>
      <use xlink:href="#ArialMT-50" x="283.544922"/>
      <use xlink:href="#ArialMT-72" x="350.244141"/>
      <use xlink:href="#ArialMT-69" x="383.544922"/>
      <use xlink:href="#ArialMT-63" x="405.761719"/>
      <use xlink:href="#ArialMT-65" x="455.761719"/>
     </g>
    </g>
   </g>
  </g>
 </g>
 <defs>
  <clipPath id="paf4a09ca4f">
   <rect x="72.483047" y="71.551125" width="434.745" height="266.467116"/>
  </clipPath>
  <clipPath id="pc3f6f12d0a">
   <rect x="72.483047" y="383.878384" width="434.745" height="266.467116"/>
  </clipPath>
 </defs>
</svg>
