<?xml version="1.0" encoding="utf-8" standalone="no"?>
<!DOCTYPE svg PUBLIC "-//W3C//DTD SVG 1.1//EN"
  "http://www.w3.org/Graphics/SVG/1.1/DTD/svg11.dtd">
<svg xmlns:xlink="http://www.w3.org/1999/xlink" width="697.007594pt" height="660.129766pt" viewBox="0 0 697.007594 660.129766" xmlns="http://www.w3.org/2000/svg" version="1.1">
 <metadata>
  <rdf:RDF xmlns:dc="http://purl.org/dc/elements/1.1/" xmlns:cc="http://creativecommons.org/ns#" xmlns:rdf="http://www.w3.org/1999/02/22-rdf-syntax-ns#">
   <cc:Work>
    <dc:type rdf:resource="http://purl.org/dc/dcmitype/StillImage"/>
    <dc:date>2023-01-24T19:28:07.573174</dc:date>
    <dc:format>image/svg+xml</dc:format>
    <dc:creator>
     <cc:Agent>
      <dc:title>Matplotlib v3.5.1, https://matplotlib.org/</dc:title>
     </cc:Agent>
    </dc:creator>
   </cc:Work>
  </rdf:RDF>
 </metadata>
 <defs>
  <style type="text/css">*{stroke-linejoin: round; stroke-linecap: butt}</style>
 </defs>
 <g id="figure_1">
  <g id="patch_1">
   <path d="M 0 660.129766 
L 697.007594 660.129766 
L 697.007594 0 
L 0 0 
z
" style="fill: #ffffff"/>
  </g>
  <g id="axes_1">
   <g id="patch_2">
    <path d="M 81.658594 292.551178 
L 507.278594 292.551178 
L 507.278594 26.084063 
L 81.658594 26.084063 
z
" style="fill: #ffffff"/>
   </g>
   <g id="matplotlib.axis_1">
    <g id="xtick_1">
     <g id="line2d_1">
      <path d="M 81.658594 292.551178 
L 81.658594 26.084063 
" clip-path="url(#pfc863e0d8b)" style="fill: none; stroke: #cccccc; stroke-width: 1.5; stroke-linecap: round"/>
     </g>
    </g>
    <g id="xtick_2">
     <g id="line2d_2">
      <path d="M 147.138594 292.551178 
L 147.138594 26.084063 
" clip-path="url(#pfc863e0d8b)" style="fill: none; stroke: #cccccc; stroke-width: 1.5; stroke-linecap: round"/>
     </g>
    </g>
    <g id="xtick_3">
     <g id="line2d_3">
      <path d="M 212.618594 292.551178 
L 212.618594 26.084063 
" clip-path="url(#pfc863e0d8b)" style="fill: none; stroke: #cccccc; stroke-width: 1.5; stroke-linecap: round"/>
     </g>
    </g>
    <g id="xtick_4">
     <g id="line2d_4">
      <path d="M 278.098594 292.551178 
L 278.098594 26.084063 
" clip-path="url(#pfc863e0d8b)" style="fill: none; stroke: #cccccc; stroke-width: 1.5; stroke-linecap: round"/>
     </g>
    </g>
    <g id="xtick_5">
     <g id="line2d_5">
      <path d="M 343.578594 292.551178 
L 343.578594 26.084063 
" clip-path="url(#pfc863e0d8b)" style="fill: none; stroke: #cccccc; stroke-width: 1.5; stroke-linecap: round"/>
     </g>
    </g>
    <g id="xtick_6">
     <g id="line2d_6">
      <path d="M 409.058594 292.551178 
L 409.058594 26.084063 
" clip-path="url(#pfc863e0d8b)" style="fill: none; stroke: #cccccc; stroke-width: 1.5; stroke-linecap: round"/>
     </g>
    </g>
    <g id="xtick_7">
     <g id="line2d_7">
      <path d="M 474.538594 292.551178 
L 474.538594 26.084063 
" clip-path="url(#pfc863e0d8b)" style="fill: none; stroke: #cccccc; stroke-width: 1.5; stroke-linecap: round"/>
     </g>
    </g>
   </g>
   <g id="matplotlib.axis_2">
    <g id="ytick_1">
     <g id="line2d_8">
      <path d="M 81.658594 292.551178 
L 507.278594 292.551178 
" clip-path="url(#pfc863e0d8b)" style="fill: none; stroke: #cccccc; stroke-width: 1.5; stroke-linecap: round"/>
     </g>
     <g id="text_1">
      <!-- 0.000 -->
      <g style="fill: #262626" transform="translate(27.8725 298.456373)scale(0.165 -0.165)">
       <defs>
        <path id="ArialMT-30" d="M 266 2259 
Q 266 3072 433 3567 
Q 600 4063 929 4331 
Q 1259 4600 1759 4600 
Q 2128 4600 2406 4451 
Q 2684 4303 2865 4023 
Q 3047 3744 3150 3342 
Q 3253 2941 3253 2259 
Q 3253 1453 3087 958 
Q 2922 463 2592 192 
Q 2263 -78 1759 -78 
Q 1097 -78 719 397 
Q 266 969 266 2259 
z
M 844 2259 
Q 844 1131 1108 757 
Q 1372 384 1759 384 
Q 2147 384 2411 759 
Q 2675 1134 2675 2259 
Q 2675 3391 2411 3762 
Q 2147 4134 1753 4134 
Q 1366 4134 1134 3806 
Q 844 3388 844 2259 
z
" transform="scale(0.015625)"/>
        <path id="ArialMT-2e" d="M 581 0 
L 581 641 
L 1222 641 
L 1222 0 
L 581 0 
z
" transform="scale(0.015625)"/>
       </defs>
       <use xlink:href="#ArialMT-30"/>
       <use xlink:href="#ArialMT-2e" x="55.615234"/>
       <use xlink:href="#ArialMT-30" x="83.398438"/>
       <use xlink:href="#ArialMT-30" x="139.013672"/>
       <use xlink:href="#ArialMT-30" x="194.628906"/>
      </g>
     </g>
    </g>
    <g id="ytick_2">
     <g id="line2d_9">
      <path d="M 81.658594 257.606474 
L 507.278594 257.606474 
" clip-path="url(#pfc863e0d8b)" style="fill: none; stroke: #cccccc; stroke-width: 1.5; stroke-linecap: round"/>
     </g>
     <g id="text_2">
      <!-- 0.005 -->
      <g style="fill: #262626" transform="translate(27.8725 263.511669)scale(0.165 -0.165)">
       <defs>
        <path id="ArialMT-35" d="M 266 1200 
L 856 1250 
Q 922 819 1161 601 
Q 1400 384 1738 384 
Q 2144 384 2425 690 
Q 2706 997 2706 1503 
Q 2706 1984 2436 2262 
Q 2166 2541 1728 2541 
Q 1456 2541 1237 2417 
Q 1019 2294 894 2097 
L 366 2166 
L 809 4519 
L 3088 4519 
L 3088 3981 
L 1259 3981 
L 1013 2750 
Q 1425 3038 1878 3038 
Q 2478 3038 2890 2622 
Q 3303 2206 3303 1553 
Q 3303 931 2941 478 
Q 2500 -78 1738 -78 
Q 1113 -78 717 272 
Q 322 622 266 1200 
z
" transform="scale(0.015625)"/>
       </defs>
       <use xlink:href="#ArialMT-30"/>
       <use xlink:href="#ArialMT-2e" x="55.615234"/>
       <use xlink:href="#ArialMT-30" x="83.398438"/>
       <use xlink:href="#ArialMT-30" x="139.013672"/>
       <use xlink:href="#ArialMT-35" x="194.628906"/>
      </g>
     </g>
    </g>
    <g id="ytick_3">
     <g id="line2d_10">
      <path d="M 81.658594 222.66177 
L 507.278594 222.66177 
" clip-path="url(#pfc863e0d8b)" style="fill: none; stroke: #cccccc; stroke-width: 1.5; stroke-linecap: round"/>
     </g>
     <g id="text_3">
      <!-- 0.010 -->
      <g style="fill: #262626" transform="translate(27.8725 228.566965)scale(0.165 -0.165)">
       <defs>
        <path id="ArialMT-31" d="M 2384 0 
L 1822 0 
L 1822 3584 
Q 1619 3391 1289 3197 
Q 959 3003 697 2906 
L 697 3450 
Q 1169 3672 1522 3987 
Q 1875 4303 2022 4600 
L 2384 4600 
L 2384 0 
z
" transform="scale(0.015625)"/>
       </defs>
       <use xlink:href="#ArialMT-30"/>
       <use xlink:href="#ArialMT-2e" x="55.615234"/>
       <use xlink:href="#ArialMT-30" x="83.398438"/>
       <use xlink:href="#ArialMT-31" x="139.013672"/>
       <use xlink:href="#ArialMT-30" x="194.628906"/>
      </g>
     </g>
    </g>
    <g id="ytick_4">
     <g id="line2d_11">
      <path d="M 81.658594 187.717066 
L 507.278594 187.717066 
" clip-path="url(#pfc863e0d8b)" style="fill: none; stroke: #cccccc; stroke-width: 1.5; stroke-linecap: round"/>
     </g>
     <g id="text_4">
      <!-- 0.015 -->
      <g style="fill: #262626" transform="translate(27.8725 193.622261)scale(0.165 -0.165)">
       <use xlink:href="#ArialMT-30"/>
       <use xlink:href="#ArialMT-2e" x="55.615234"/>
       <use xlink:href="#ArialMT-30" x="83.398438"/>
       <use xlink:href="#ArialMT-31" x="139.013672"/>
       <use xlink:href="#ArialMT-35" x="194.628906"/>
      </g>
     </g>
    </g>
    <g id="ytick_5">
     <g id="line2d_12">
      <path d="M 81.658594 152.772362 
L 507.278594 152.772362 
" clip-path="url(#pfc863e0d8b)" style="fill: none; stroke: #cccccc; stroke-width: 1.5; stroke-linecap: round"/>
     </g>
     <g id="text_5">
      <!-- 0.020 -->
      <g style="fill: #262626" transform="translate(27.8725 158.677557)scale(0.165 -0.165)">
       <defs>
        <path id="ArialMT-32" d="M 3222 541 
L 3222 0 
L 194 0 
Q 188 203 259 391 
Q 375 700 629 1000 
Q 884 1300 1366 1694 
Q 2113 2306 2375 2664 
Q 2638 3022 2638 3341 
Q 2638 3675 2398 3904 
Q 2159 4134 1775 4134 
Q 1369 4134 1125 3890 
Q 881 3647 878 3216 
L 300 3275 
Q 359 3922 746 4261 
Q 1134 4600 1788 4600 
Q 2447 4600 2831 4234 
Q 3216 3869 3216 3328 
Q 3216 3053 3103 2787 
Q 2991 2522 2730 2228 
Q 2469 1934 1863 1422 
Q 1356 997 1212 845 
Q 1069 694 975 541 
L 3222 541 
z
" transform="scale(0.015625)"/>
       </defs>
       <use xlink:href="#ArialMT-30"/>
       <use xlink:href="#ArialMT-2e" x="55.615234"/>
       <use xlink:href="#ArialMT-30" x="83.398438"/>
       <use xlink:href="#ArialMT-32" x="139.013672"/>
       <use xlink:href="#ArialMT-30" x="194.628906"/>
      </g>
     </g>
    </g>
    <g id="ytick_6">
     <g id="line2d_13">
      <path d="M 81.658594 117.827658 
L 507.278594 117.827658 
" clip-path="url(#pfc863e0d8b)" style="fill: none; stroke: #cccccc; stroke-width: 1.5; stroke-linecap: round"/>
     </g>
     <g id="text_6">
      <!-- 0.025 -->
      <g style="fill: #262626" transform="translate(27.8725 123.732853)scale(0.165 -0.165)">
       <use xlink:href="#ArialMT-30"/>
       <use xlink:href="#ArialMT-2e" x="55.615234"/>
       <use xlink:href="#ArialMT-30" x="83.398438"/>
       <use xlink:href="#ArialMT-32" x="139.013672"/>
       <use xlink:href="#ArialMT-35" x="194.628906"/>
      </g>
     </g>
    </g>
    <g id="ytick_7">
     <g id="line2d_14">
      <path d="M 81.658594 82.882954 
L 507.278594 82.882954 
" clip-path="url(#pfc863e0d8b)" style="fill: none; stroke: #cccccc; stroke-width: 1.5; stroke-linecap: round"/>
     </g>
     <g id="text_7">
      <!-- 0.030 -->
      <g style="fill: #262626" transform="translate(27.8725 88.788149)scale(0.165 -0.165)">
       <defs>
        <path id="ArialMT-33" d="M 269 1209 
L 831 1284 
Q 928 806 1161 595 
Q 1394 384 1728 384 
Q 2125 384 2398 659 
Q 2672 934 2672 1341 
Q 2672 1728 2419 1979 
Q 2166 2231 1775 2231 
Q 1616 2231 1378 2169 
L 1441 2663 
Q 1497 2656 1531 2656 
Q 1891 2656 2178 2843 
Q 2466 3031 2466 3422 
Q 2466 3731 2256 3934 
Q 2047 4138 1716 4138 
Q 1388 4138 1169 3931 
Q 950 3725 888 3313 
L 325 3413 
Q 428 3978 793 4289 
Q 1159 4600 1703 4600 
Q 2078 4600 2393 4439 
Q 2709 4278 2876 4000 
Q 3044 3722 3044 3409 
Q 3044 3113 2884 2869 
Q 2725 2625 2413 2481 
Q 2819 2388 3044 2092 
Q 3269 1797 3269 1353 
Q 3269 753 2831 336 
Q 2394 -81 1725 -81 
Q 1122 -81 723 278 
Q 325 638 269 1209 
z
" transform="scale(0.015625)"/>
       </defs>
       <use xlink:href="#ArialMT-30"/>
       <use xlink:href="#ArialMT-2e" x="55.615234"/>
       <use xlink:href="#ArialMT-30" x="83.398438"/>
       <use xlink:href="#ArialMT-33" x="139.013672"/>
       <use xlink:href="#ArialMT-30" x="194.628906"/>
      </g>
     </g>
    </g>
    <g id="ytick_8">
     <g id="line2d_15">
      <path d="M 81.658594 47.93825 
L 507.278594 47.93825 
" clip-path="url(#pfc863e0d8b)" style="fill: none; stroke: #cccccc; stroke-width: 1.5; stroke-linecap: round"/>
     </g>
     <g id="text_8">
      <!-- 0.035 -->
      <g style="fill: #262626" transform="translate(27.8725 53.843445)scale(0.165 -0.165)">
       <use xlink:href="#ArialMT-30"/>
       <use xlink:href="#ArialMT-2e" x="55.615234"/>
       <use xlink:href="#ArialMT-30" x="83.398438"/>
       <use xlink:href="#ArialMT-33" x="139.013672"/>
       <use xlink:href="#ArialMT-35" x="194.628906"/>
      </g>
     </g>
    </g>
    <g id="text_9">
     <!-- Frequency Density -->
     <g style="fill: #262626" transform="translate(20.084063 234.345277)rotate(-90)scale(0.18 -0.18)">
      <defs>
       <path id="ArialMT-46" d="M 525 0 
L 525 4581 
L 3616 4581 
L 3616 4041 
L 1131 4041 
L 1131 2622 
L 3281 2622 
L 3281 2081 
L 1131 2081 
L 1131 0 
L 525 0 
z
" transform="scale(0.015625)"/>
       <path id="ArialMT-72" d="M 416 0 
L 416 3319 
L 922 3319 
L 922 2816 
Q 1116 3169 1280 3281 
Q 1444 3394 1641 3394 
Q 1925 3394 2219 3213 
L 2025 2691 
Q 1819 2813 1613 2813 
Q 1428 2813 1281 2702 
Q 1134 2591 1072 2394 
Q 978 2094 978 1738 
L 978 0 
L 416 0 
z
" transform="scale(0.015625)"/>
       <path id="ArialMT-65" d="M 2694 1069 
L 3275 997 
Q 3138 488 2766 206 
Q 2394 -75 1816 -75 
Q 1088 -75 661 373 
Q 234 822 234 1631 
Q 234 2469 665 2931 
Q 1097 3394 1784 3394 
Q 2450 3394 2872 2941 
Q 3294 2488 3294 1666 
Q 3294 1616 3291 1516 
L 816 1516 
Q 847 969 1125 678 
Q 1403 388 1819 388 
Q 2128 388 2347 550 
Q 2566 713 2694 1069 
z
M 847 1978 
L 2700 1978 
Q 2663 2397 2488 2606 
Q 2219 2931 1791 2931 
Q 1403 2931 1139 2672 
Q 875 2413 847 1978 
z
" transform="scale(0.015625)"/>
       <path id="ArialMT-71" d="M 2538 -1272 
L 2538 353 
Q 2406 169 2170 47 
Q 1934 -75 1669 -75 
Q 1078 -75 651 397 
Q 225 869 225 1691 
Q 225 2191 398 2587 
Q 572 2984 901 3189 
Q 1231 3394 1625 3394 
Q 2241 3394 2594 2875 
L 2594 3319 
L 3100 3319 
L 3100 -1272 
L 2538 -1272 
z
M 803 1669 
Q 803 1028 1072 708 
Q 1341 388 1716 388 
Q 2075 388 2334 692 
Q 2594 997 2594 1619 
Q 2594 2281 2320 2615 
Q 2047 2950 1678 2950 
Q 1313 2950 1058 2639 
Q 803 2328 803 1669 
z
" transform="scale(0.015625)"/>
       <path id="ArialMT-75" d="M 2597 0 
L 2597 488 
Q 2209 -75 1544 -75 
Q 1250 -75 995 37 
Q 741 150 617 320 
Q 494 491 444 738 
Q 409 903 409 1263 
L 409 3319 
L 972 3319 
L 972 1478 
Q 972 1038 1006 884 
Q 1059 663 1231 536 
Q 1403 409 1656 409 
Q 1909 409 2131 539 
Q 2353 669 2445 892 
Q 2538 1116 2538 1541 
L 2538 3319 
L 3100 3319 
L 3100 0 
L 2597 0 
z
" transform="scale(0.015625)"/>
       <path id="ArialMT-6e" d="M 422 0 
L 422 3319 
L 928 3319 
L 928 2847 
Q 1294 3394 1984 3394 
Q 2284 3394 2536 3286 
Q 2788 3178 2913 3003 
Q 3038 2828 3088 2588 
Q 3119 2431 3119 2041 
L 3119 0 
L 2556 0 
L 2556 2019 
Q 2556 2363 2490 2533 
Q 2425 2703 2258 2804 
Q 2091 2906 1866 2906 
Q 1506 2906 1245 2678 
Q 984 2450 984 1813 
L 984 0 
L 422 0 
z
" transform="scale(0.015625)"/>
       <path id="ArialMT-63" d="M 2588 1216 
L 3141 1144 
Q 3050 572 2676 248 
Q 2303 -75 1759 -75 
Q 1078 -75 664 370 
Q 250 816 250 1647 
Q 250 2184 428 2587 
Q 606 2991 970 3192 
Q 1334 3394 1763 3394 
Q 2303 3394 2647 3120 
Q 2991 2847 3088 2344 
L 2541 2259 
Q 2463 2594 2264 2762 
Q 2066 2931 1784 2931 
Q 1359 2931 1093 2626 
Q 828 2322 828 1663 
Q 828 994 1084 691 
Q 1341 388 1753 388 
Q 2084 388 2306 591 
Q 2528 794 2588 1216 
z
" transform="scale(0.015625)"/>
       <path id="ArialMT-79" d="M 397 -1278 
L 334 -750 
Q 519 -800 656 -800 
Q 844 -800 956 -737 
Q 1069 -675 1141 -563 
Q 1194 -478 1313 -144 
Q 1328 -97 1363 -6 
L 103 3319 
L 709 3319 
L 1400 1397 
Q 1534 1031 1641 628 
Q 1738 1016 1872 1384 
L 2581 3319 
L 3144 3319 
L 1881 -56 
Q 1678 -603 1566 -809 
Q 1416 -1088 1222 -1217 
Q 1028 -1347 759 -1347 
Q 597 -1347 397 -1278 
z
" transform="scale(0.015625)"/>
       <path id="ArialMT-20" transform="scale(0.015625)"/>
       <path id="ArialMT-44" d="M 494 0 
L 494 4581 
L 2072 4581 
Q 2606 4581 2888 4516 
Q 3281 4425 3559 4188 
Q 3922 3881 4101 3404 
Q 4281 2928 4281 2316 
Q 4281 1794 4159 1391 
Q 4038 988 3847 723 
Q 3656 459 3429 307 
Q 3203 156 2883 78 
Q 2563 0 2147 0 
L 494 0 
z
M 1100 541 
L 2078 541 
Q 2531 541 2789 625 
Q 3047 709 3200 863 
Q 3416 1078 3536 1442 
Q 3656 1806 3656 2325 
Q 3656 3044 3420 3430 
Q 3184 3816 2847 3947 
Q 2603 4041 2063 4041 
L 1100 4041 
L 1100 541 
z
" transform="scale(0.015625)"/>
       <path id="ArialMT-73" d="M 197 991 
L 753 1078 
Q 800 744 1014 566 
Q 1228 388 1613 388 
Q 2000 388 2187 545 
Q 2375 703 2375 916 
Q 2375 1106 2209 1216 
Q 2094 1291 1634 1406 
Q 1016 1563 777 1677 
Q 538 1791 414 1992 
Q 291 2194 291 2438 
Q 291 2659 392 2848 
Q 494 3038 669 3163 
Q 800 3259 1026 3326 
Q 1253 3394 1513 3394 
Q 1903 3394 2198 3281 
Q 2494 3169 2634 2976 
Q 2775 2784 2828 2463 
L 2278 2388 
Q 2241 2644 2061 2787 
Q 1881 2931 1553 2931 
Q 1166 2931 1000 2803 
Q 834 2675 834 2503 
Q 834 2394 903 2306 
Q 972 2216 1119 2156 
Q 1203 2125 1616 2013 
Q 2213 1853 2448 1751 
Q 2684 1650 2818 1456 
Q 2953 1263 2953 975 
Q 2953 694 2789 445 
Q 2625 197 2315 61 
Q 2006 -75 1616 -75 
Q 969 -75 630 194 
Q 291 463 197 991 
z
" transform="scale(0.015625)"/>
       <path id="ArialMT-69" d="M 425 3934 
L 425 4581 
L 988 4581 
L 988 3934 
L 425 3934 
z
M 425 0 
L 425 3319 
L 988 3319 
L 988 0 
L 425 0 
z
" transform="scale(0.015625)"/>
       <path id="ArialMT-74" d="M 1650 503 
L 1731 6 
Q 1494 -44 1306 -44 
Q 1000 -44 831 53 
Q 663 150 594 308 
Q 525 466 525 972 
L 525 2881 
L 113 2881 
L 113 3319 
L 525 3319 
L 525 4141 
L 1084 4478 
L 1084 3319 
L 1650 3319 
L 1650 2881 
L 1084 2881 
L 1084 941 
Q 1084 700 1114 631 
Q 1144 563 1211 522 
Q 1278 481 1403 481 
Q 1497 481 1650 503 
z
" transform="scale(0.015625)"/>
      </defs>
      <use xlink:href="#ArialMT-46"/>
      <use xlink:href="#ArialMT-72" x="61.083984"/>
      <use xlink:href="#ArialMT-65" x="94.384766"/>
      <use xlink:href="#ArialMT-71" x="150"/>
      <use xlink:href="#ArialMT-75" x="205.615234"/>
      <use xlink:href="#ArialMT-65" x="261.230469"/>
      <use xlink:href="#ArialMT-6e" x="316.845703"/>
      <use xlink:href="#ArialMT-63" x="372.460938"/>
      <use xlink:href="#ArialMT-79" x="422.460938"/>
      <use xlink:href="#ArialMT-20" x="472.460938"/>
      <use xlink:href="#ArialMT-44" x="500.244141"/>
      <use xlink:href="#ArialMT-65" x="572.460938"/>
      <use xlink:href="#ArialMT-6e" x="628.076172"/>
      <use xlink:href="#ArialMT-73" x="683.691406"/>
      <use xlink:href="#ArialMT-69" x="733.691406"/>
      <use xlink:href="#ArialMT-74" x="755.908203"/>
      <use xlink:href="#ArialMT-79" x="783.691406"/>
     </g>
    </g>
   </g>
   <g id="line2d_16">
    <path d="M -1 290.748623 
L 25.658479 289.955194 
L 40.441959 289.34282 
L 55.225439 288.599185 
L 84.792399 286.797961 
L 129.142838 283.861632 
L 143.926318 282.648916 
L 158.709798 280.897322 
L 173.493277 278.094538 
L 188.276757 273.547838 
L 203.060237 266.412593 
L 217.843717 255.774568 
L 232.627197 240.83596 
L 247.410677 221.268938 
L 262.194156 197.754596 
L 276.977636 172.552687 
L 291.761116 149.688192 
L 306.544596 134.254158 
L 321.328076 130.722705 
L 336.111555 140.940819 
L 350.895035 163.017901 
L 365.678515 191.941325 
L 380.461995 221.631213 
L 395.245475 247.203088 
L 410.028954 266.233154 
L 424.812434 278.668395 
L 439.595914 285.880265 
L 454.379394 289.622936 
L 469.162874 291.373183 
L 483.946353 292.115458 
L 498.729833 292.402591 
L 528.296793 292.537578 
L 543.080273 292.547537 
L 543.080273 292.547537 
" clip-path="url(#pfc863e0d8b)" style="fill: none; stroke: #d62f27; stroke-width: 2.25; stroke-linecap: round"/>
   </g>
   <g id="line2d_17">
    <path d="M -1 291.571757 
L 34.478882 291.110856 
L 63.42675 290.460809 
L 77.900684 289.951786 
L 92.374619 289.276487 
L 106.848553 288.438789 
L 121.322487 287.468202 
L 135.796421 286.371324 
L 150.270356 285.063812 
L 164.74429 283.314699 
L 179.218224 280.700997 
L 193.692158 276.550998 
L 208.166092 269.908327 
L 222.640027 259.59422 
L 237.113961 244.352458 
L 251.587895 222.985744 
L 266.061829 194.726605 
L 280.535764 160.563633 
L 295.009698 125.500397 
L 309.483632 99.405028 
L 323.957566 93.349785 
L 338.431501 112.397694 
L 352.905435 151.066704 
L 367.379369 196.397295 
L 381.853303 235.931754 
L 396.327238 263.522709 
L 410.801172 279.490894 
L 425.275106 287.339968 
L 439.74904 290.683807 
L 454.222975 291.943181 
L 468.696909 292.370367 
L 497.644777 292.53943 
L 512.118712 292.548713 
L 512.118712 292.548713 
" clip-path="url(#pfc863e0d8b)" style="fill: none; stroke: #f46d43; stroke-width: 2.25; stroke-linecap: round"/>
   </g>
   <g id="line2d_18">
    <path d="M -1 291.658262 
L 44.72143 291.289368 
L 58.980731 291.081401 
L 73.240031 290.747431 
L 87.499331 290.243298 
L 101.758632 289.570327 
L 130.277232 287.887063 
L 144.536533 286.865752 
L 158.795833 285.527905 
L 173.055133 283.575552 
L 187.314434 280.577769 
L 201.573734 275.814548 
L 215.833035 268.147313 
L 230.092335 256.233998 
L 244.351635 238.915001 
L 258.610936 215.052967 
L 272.870236 183.098867 
L 287.129536 142.874434 
L 301.388837 100.820545 
L 315.648137 72.77655 
L 329.907437 75.665684 
L 344.166738 112.432618 
L 358.426038 167.648613 
L 372.685338 219.99362 
L 386.944639 256.868595 
L 401.203939 277.461523 
L 415.463239 286.945962 
L 429.72254 290.673286 
L 443.98184 291.972226 
L 458.24114 292.388117 
L 486.759741 292.542838 
L 501.019041 292.549794 
L 501.019041 292.549794 
" clip-path="url(#pfc863e0d8b)" style="fill: none; stroke: #fdad60; stroke-width: 2.25; stroke-linecap: round"/>
   </g>
   <g id="line2d_19">
    <path d="M -1 291.758345 
L 31.908197 291.614688 
L 60.294638 291.307208 
L 88.681079 290.779786 
L 102.8743 290.326433 
L 117.067521 289.686785 
L 131.260741 288.830353 
L 145.453962 287.707873 
L 159.647183 286.198417 
L 173.840404 284.115428 
L 188.033624 281.213844 
L 202.226845 276.926971 
L 216.420066 269.98372 
L 230.613286 258.652475 
L 244.806507 241.774119 
L 258.999728 219.028393 
L 273.192949 188.649113 
L 287.386169 146.322085 
L 301.57939 93.815721 
L 315.772611 51.743757 
L 329.965831 50.777246 
L 344.159052 98.860451 
L 358.352273 169.223959 
L 372.545493 228.984189 
L 386.738714 265.328748 
L 400.931935 282.602351 
L 415.125156 289.325997 
L 429.318376 291.578972 
L 443.511597 292.279999 
L 457.704818 292.486995 
L 486.091259 292.549659 
L 486.091259 292.549659 
" clip-path="url(#pfc863e0d8b)" style="fill: none; stroke: #fee08b; stroke-width: 2.25; stroke-linecap: round"/>
   </g>
   <g id="line2d_20">
    <path d="M -1 291.766299 
L 32.28446 291.534133 
L 74.387438 291.069855 
L 88.421764 290.795722 
L 102.45609 290.405347 
L 116.490416 289.877601 
L 130.524742 289.161845 
L 144.559068 288.166629 
L 158.593394 286.782609 
L 172.627721 284.880477 
L 186.662047 282.222839 
L 200.696373 278.230797 
L 214.730699 271.722321 
L 228.765025 261.077837 
L 242.799351 245.156031 
L 256.833677 223.943426 
L 270.868003 196.387266 
L 284.902329 157.30524 
L 298.936655 103.944846 
L 312.970981 52.771937 
L 327.005307 38.772972 
L 341.039633 80.068995 
L 355.073959 153.029982 
L 369.108286 219.197812 
L 383.142612 260.698632 
L 397.176938 280.776796 
L 411.211264 288.672557 
L 425.24559 291.342292 
L 439.279916 292.199196 
L 453.314242 292.465953 
L 481.382894 292.549292 
L 481.382894 292.549292 
" clip-path="url(#pfc863e0d8b)" style="fill: none; stroke: #feffbe; stroke-width: 2.25; stroke-linecap: round"/>
   </g>
   <g id="line2d_21">
    <path d="M -1 291.810451 
L 45.293681 291.542572 
L 73.577853 291.189567 
L 101.862026 290.601928 
L 116.004113 290.163873 
L 130.146199 289.546582 
L 144.288285 288.62401 
L 158.430372 287.231926 
L 172.572458 285.226203 
L 186.714545 282.421348 
L 200.856631 278.284949 
L 214.998717 271.598179 
L 229.140804 260.670564 
L 243.28289 244.361509 
L 257.424977 222.559425 
L 271.567063 193.892029 
L 285.709149 153.500256 
L 299.851236 100.458136 
L 313.993322 52.775943 
L 328.135408 43.460796 
L 342.277495 86.658912 
L 356.419581 158.126614 
L 370.561668 221.957259 
L 384.703754 261.901316 
L 398.84584 281.231891 
L 412.987927 288.839958 
L 427.130013 291.410089 
L 441.2721 292.224026 
L 455.414186 292.471986 
L 483.698359 292.5493 
L 483.698359 292.5493 
" clip-path="url(#pfc863e0d8b)" style="fill: none; stroke: #d9ef8b; stroke-width: 2.25; stroke-linecap: round"/>
   </g>
   <g id="line2d_22">
    <path d="M -1 291.912117 
L 35.92632 291.598517 
L 77.897585 291.033306 
L 105.878429 290.369283 
L 119.868851 289.851027 
L 133.859273 289.088321 
L 147.849695 287.974106 
L 161.840117 286.406814 
L 175.830539 284.279159 
L 189.820961 281.344352 
L 203.811383 276.909138 
L 217.801805 269.624163 
L 231.792227 257.893688 
L 245.782649 240.837932 
L 259.773071 218.324793 
L 273.763493 188.520258 
L 287.753915 146.68261 
L 301.744337 93.745274 
L 315.734759 49.769918 
L 329.72518 46.373514 
L 343.715602 93.359665 
L 357.706024 164.536148 
L 371.696446 225.975953 
L 385.686868 263.758239 
L 399.67729 281.876958 
L 413.667712 289.002433 
L 427.658134 291.440374 
L 441.648556 292.229801 
L 455.638978 292.473422 
L 483.619822 292.549329 
L 483.619822 292.549329 
" clip-path="url(#pfc863e0d8b)" style="fill: none; stroke: #a5d86a; stroke-width: 2.25; stroke-linecap: round"/>
   </g>
   <g id="line2d_23">
    <path d="M -1 291.798187 
L 65.174689 291.367438 
L 93.205709 290.839232 
L 107.22122 290.437318 
L 121.23673 289.912099 
L 135.25224 289.185929 
L 149.267751 288.107967 
L 163.283261 286.506972 
L 177.298771 284.223913 
L 191.314281 280.985526 
L 205.329792 276.11387 
L 219.345302 268.337837 
L 233.360812 256.14169 
L 247.376323 238.572009 
L 261.391833 215.078954 
L 275.407343 183.342664 
L 289.422854 139.488719 
L 303.438364 87.446586 
L 317.453874 49.188441 
L 331.469385 52.963877 
L 345.484895 103.026078 
L 359.500405 172.371418 
L 373.515916 230.421756 
L 387.531426 265.726104 
L 401.546936 282.617828 
L 415.562447 289.274324 
L 429.577957 291.545398 
L 443.593467 292.26533 
L 457.608978 292.481636 
L 485.639998 292.549348 
L 485.639998 292.549348 
" clip-path="url(#pfc863e0d8b)" style="fill: none; stroke: #66bd63; stroke-width: 2.25; stroke-linecap: round"/>
   </g>
   <g id="line2d_24">
    <path d="M -1 291.857523 
L 34.856634 291.643873 
L 63.089266 291.270872 
L 91.321899 290.74553 
L 105.438215 290.377993 
L 119.554531 289.866708 
L 133.670848 289.132388 
L 147.787164 288.076689 
L 161.90348 286.584263 
L 176.019796 284.492917 
L 190.136113 281.492874 
L 204.252429 276.883839 
L 218.368745 269.351378 
L 232.485061 257.324725 
L 246.601378 239.950038 
L 260.717694 217.006566 
L 274.83401 186.232487 
L 288.950327 142.741089 
L 303.066643 89.015182 
L 317.182959 47.607393 
L 331.299275 49.749528 
L 345.415592 101.145709 
L 359.531908 172.74611 
L 373.648224 231.824861 
L 387.76454 266.932605 
L 401.880857 283.268927 
L 415.997173 289.523324 
L 430.113489 291.620199 
L 444.229805 292.288369 
L 458.346122 292.489713 
L 486.578754 292.549832 
L 486.578754 292.549832 
" clip-path="url(#pfc863e0d8b)" style="fill: none; stroke: #199750; stroke-width: 2.25; stroke-linecap: round"/>
   </g>
   <g id="patch_3">
    <path d="M 81.658594 292.551178 
L 81.658594 26.084063 
" style="fill: none; stroke: #cccccc; stroke-width: 1.875; stroke-linejoin: miter; stroke-linecap: square"/>
   </g>
   <g id="patch_4">
    <path d="M 81.658594 292.551178 
L 507.278594 292.551178 
" style="fill: none; stroke: #cccccc; stroke-width: 1.875; stroke-linejoin: miter; stroke-linecap: square"/>
   </g>
   <g id="text_10">
    <!-- Lowest 10% Income -->
    <g style="fill: #262626" transform="translate(213.429219 20.084063)scale(0.18 -0.18)">
     <defs>
      <path id="ArialMT-4c" d="M 469 0 
L 469 4581 
L 1075 4581 
L 1075 541 
L 3331 541 
L 3331 0 
L 469 0 
z
" transform="scale(0.015625)"/>
      <path id="ArialMT-6f" d="M 213 1659 
Q 213 2581 725 3025 
Q 1153 3394 1769 3394 
Q 2453 3394 2887 2945 
Q 3322 2497 3322 1706 
Q 3322 1066 3130 698 
Q 2938 331 2570 128 
Q 2203 -75 1769 -75 
Q 1072 -75 642 372 
Q 213 819 213 1659 
z
M 791 1659 
Q 791 1022 1069 705 
Q 1347 388 1769 388 
Q 2188 388 2466 706 
Q 2744 1025 2744 1678 
Q 2744 2294 2464 2611 
Q 2184 2928 1769 2928 
Q 1347 2928 1069 2612 
Q 791 2297 791 1659 
z
" transform="scale(0.015625)"/>
      <path id="ArialMT-77" d="M 1034 0 
L 19 3319 
L 600 3319 
L 1128 1403 
L 1325 691 
Q 1338 744 1497 1375 
L 2025 3319 
L 2603 3319 
L 3100 1394 
L 3266 759 
L 3456 1400 
L 4025 3319 
L 4572 3319 
L 3534 0 
L 2950 0 
L 2422 1988 
L 2294 2553 
L 1622 0 
L 1034 0 
z
" transform="scale(0.015625)"/>
      <path id="ArialMT-25" d="M 372 3481 
Q 372 3972 619 4315 
Q 866 4659 1334 4659 
Q 1766 4659 2048 4351 
Q 2331 4044 2331 3447 
Q 2331 2866 2045 2552 
Q 1759 2238 1341 2238 
Q 925 2238 648 2547 
Q 372 2856 372 3481 
z
M 1350 4272 
Q 1141 4272 1002 4090 
Q 863 3909 863 3425 
Q 863 2984 1003 2804 
Q 1144 2625 1350 2625 
Q 1563 2625 1702 2806 
Q 1841 2988 1841 3469 
Q 1841 3913 1700 4092 
Q 1559 4272 1350 4272 
z
M 1353 -169 
L 3859 4659 
L 4316 4659 
L 1819 -169 
L 1353 -169 
z
M 3334 1075 
Q 3334 1569 3581 1911 
Q 3828 2253 4300 2253 
Q 4731 2253 5014 1945 
Q 5297 1638 5297 1041 
Q 5297 459 5011 145 
Q 4725 -169 4303 -169 
Q 3888 -169 3611 142 
Q 3334 453 3334 1075 
z
M 4316 1866 
Q 4103 1866 3964 1684 
Q 3825 1503 3825 1019 
Q 3825 581 3965 400 
Q 4106 219 4313 219 
Q 4528 219 4667 400 
Q 4806 581 4806 1063 
Q 4806 1506 4665 1686 
Q 4525 1866 4316 1866 
z
" transform="scale(0.015625)"/>
      <path id="ArialMT-49" d="M 597 0 
L 597 4581 
L 1203 4581 
L 1203 0 
L 597 0 
z
" transform="scale(0.015625)"/>
      <path id="ArialMT-6d" d="M 422 0 
L 422 3319 
L 925 3319 
L 925 2853 
Q 1081 3097 1340 3245 
Q 1600 3394 1931 3394 
Q 2300 3394 2536 3241 
Q 2772 3088 2869 2813 
Q 3263 3394 3894 3394 
Q 4388 3394 4653 3120 
Q 4919 2847 4919 2278 
L 4919 0 
L 4359 0 
L 4359 2091 
Q 4359 2428 4304 2576 
Q 4250 2725 4106 2815 
Q 3963 2906 3769 2906 
Q 3419 2906 3187 2673 
Q 2956 2441 2956 1928 
L 2956 0 
L 2394 0 
L 2394 2156 
Q 2394 2531 2256 2718 
Q 2119 2906 1806 2906 
Q 1569 2906 1367 2781 
Q 1166 2656 1075 2415 
Q 984 2175 984 1722 
L 984 0 
L 422 0 
z
" transform="scale(0.015625)"/>
     </defs>
     <use xlink:href="#ArialMT-4c"/>
     <use xlink:href="#ArialMT-6f" x="55.615234"/>
     <use xlink:href="#ArialMT-77" x="111.230469"/>
     <use xlink:href="#ArialMT-65" x="183.447266"/>
     <use xlink:href="#ArialMT-73" x="239.0625"/>
     <use xlink:href="#ArialMT-74" x="289.0625"/>
     <use xlink:href="#ArialMT-20" x="316.845703"/>
     <use xlink:href="#ArialMT-31" x="344.628906"/>
     <use xlink:href="#ArialMT-30" x="400.244141"/>
     <use xlink:href="#ArialMT-25" x="455.859375"/>
     <use xlink:href="#ArialMT-20" x="544.775391"/>
     <use xlink:href="#ArialMT-49" x="572.558594"/>
     <use xlink:href="#ArialMT-6e" x="600.341797"/>
     <use xlink:href="#ArialMT-63" x="655.957031"/>
     <use xlink:href="#ArialMT-6f" x="705.957031"/>
     <use xlink:href="#ArialMT-6d" x="761.572266"/>
     <use xlink:href="#ArialMT-65" x="844.873047"/>
    </g>
   </g>
  </g>
  <g id="axes_2">
   <g id="patch_5">
    <path d="M 81.658594 604.878438 
L 507.278594 604.878438 
L 507.278594 338.411322 
L 81.658594 338.411322 
z
" style="fill: #ffffff"/>
   </g>
   <g id="matplotlib.axis_3">
    <g id="xtick_8">
     <g id="line2d_25">
      <path d="M 81.658594 604.878438 
L 81.658594 338.411322 
" clip-path="url(#pc0f80e2cce)" style="fill: none; stroke: #cccccc; stroke-width: 1.5; stroke-linecap: round"/>
     </g>
     <g id="text_11">
      <!-- −80 -->
      <g style="fill: #262626" transform="translate(67.664531 629.188828)scale(0.165 -0.165)">
       <defs>
        <path id="ArialMT-2212" d="M 3381 1997 
L 356 1997 
L 356 2522 
L 3381 2522 
L 3381 1997 
z
" transform="scale(0.015625)"/>
        <path id="ArialMT-38" d="M 1131 2484 
Q 781 2613 612 2850 
Q 444 3088 444 3419 
Q 444 3919 803 4259 
Q 1163 4600 1759 4600 
Q 2359 4600 2725 4251 
Q 3091 3903 3091 3403 
Q 3091 3084 2923 2848 
Q 2756 2613 2416 2484 
Q 2838 2347 3058 2040 
Q 3278 1734 3278 1309 
Q 3278 722 2862 322 
Q 2447 -78 1769 -78 
Q 1091 -78 675 323 
Q 259 725 259 1325 
Q 259 1772 486 2073 
Q 713 2375 1131 2484 
z
M 1019 3438 
Q 1019 3113 1228 2906 
Q 1438 2700 1772 2700 
Q 2097 2700 2305 2904 
Q 2513 3109 2513 3406 
Q 2513 3716 2298 3927 
Q 2084 4138 1766 4138 
Q 1444 4138 1231 3931 
Q 1019 3725 1019 3438 
z
M 838 1322 
Q 838 1081 952 856 
Q 1066 631 1291 507 
Q 1516 384 1775 384 
Q 2178 384 2440 643 
Q 2703 903 2703 1303 
Q 2703 1709 2433 1975 
Q 2163 2241 1756 2241 
Q 1359 2241 1098 1978 
Q 838 1716 838 1322 
z
" transform="scale(0.015625)"/>
       </defs>
       <use xlink:href="#ArialMT-2212"/>
       <use xlink:href="#ArialMT-38" x="58.398438"/>
       <use xlink:href="#ArialMT-30" x="114.013672"/>
      </g>
     </g>
    </g>
    <g id="xtick_9">
     <g id="line2d_26">
      <path d="M 147.138594 604.878438 
L 147.138594 338.411322 
" clip-path="url(#pc0f80e2cce)" style="fill: none; stroke: #cccccc; stroke-width: 1.5; stroke-linecap: round"/>
     </g>
     <g id="text_12">
      <!-- −60 -->
      <g style="fill: #262626" transform="translate(133.144531 629.188828)scale(0.165 -0.165)">
       <defs>
        <path id="ArialMT-36" d="M 3184 3459 
L 2625 3416 
Q 2550 3747 2413 3897 
Q 2184 4138 1850 4138 
Q 1581 4138 1378 3988 
Q 1113 3794 959 3422 
Q 806 3050 800 2363 
Q 1003 2672 1297 2822 
Q 1591 2972 1913 2972 
Q 2475 2972 2870 2558 
Q 3266 2144 3266 1488 
Q 3266 1056 3080 686 
Q 2894 316 2569 119 
Q 2244 -78 1831 -78 
Q 1128 -78 684 439 
Q 241 956 241 2144 
Q 241 3472 731 4075 
Q 1159 4600 1884 4600 
Q 2425 4600 2770 4297 
Q 3116 3994 3184 3459 
z
M 888 1484 
Q 888 1194 1011 928 
Q 1134 663 1356 523 
Q 1578 384 1822 384 
Q 2178 384 2434 671 
Q 2691 959 2691 1453 
Q 2691 1928 2437 2201 
Q 2184 2475 1800 2475 
Q 1419 2475 1153 2201 
Q 888 1928 888 1484 
z
" transform="scale(0.015625)"/>
       </defs>
       <use xlink:href="#ArialMT-2212"/>
       <use xlink:href="#ArialMT-36" x="58.398438"/>
       <use xlink:href="#ArialMT-30" x="114.013672"/>
      </g>
     </g>
    </g>
    <g id="xtick_10">
     <g id="line2d_27">
      <path d="M 212.618594 604.878438 
L 212.618594 338.411322 
" clip-path="url(#pc0f80e2cce)" style="fill: none; stroke: #cccccc; stroke-width: 1.5; stroke-linecap: round"/>
     </g>
     <g id="text_13">
      <!-- −40 -->
      <g style="fill: #262626" transform="translate(198.624531 629.188828)scale(0.165 -0.165)">
       <defs>
        <path id="ArialMT-34" d="M 2069 0 
L 2069 1097 
L 81 1097 
L 81 1613 
L 2172 4581 
L 2631 4581 
L 2631 1613 
L 3250 1613 
L 3250 1097 
L 2631 1097 
L 2631 0 
L 2069 0 
z
M 2069 1613 
L 2069 3678 
L 634 1613 
L 2069 1613 
z
" transform="scale(0.015625)"/>
       </defs>
       <use xlink:href="#ArialMT-2212"/>
       <use xlink:href="#ArialMT-34" x="58.398438"/>
       <use xlink:href="#ArialMT-30" x="114.013672"/>
      </g>
     </g>
    </g>
    <g id="xtick_11">
     <g id="line2d_28">
      <path d="M 278.098594 604.878438 
L 278.098594 338.411322 
" clip-path="url(#pc0f80e2cce)" style="fill: none; stroke: #cccccc; stroke-width: 1.5; stroke-linecap: round"/>
     </g>
     <g id="text_14">
      <!-- −20 -->
      <g style="fill: #262626" transform="translate(264.104531 629.188828)scale(0.165 -0.165)">
       <use xlink:href="#ArialMT-2212"/>
       <use xlink:href="#ArialMT-32" x="58.398438"/>
       <use xlink:href="#ArialMT-30" x="114.013672"/>
      </g>
     </g>
    </g>
    <g id="xtick_12">
     <g id="line2d_29">
      <path d="M 343.578594 604.878438 
L 343.578594 338.411322 
" clip-path="url(#pc0f80e2cce)" style="fill: none; stroke: #cccccc; stroke-width: 1.5; stroke-linecap: round"/>
     </g>
     <g id="text_15">
      <!-- 0 -->
      <g style="fill: #262626" transform="translate(338.99082 629.188828)scale(0.165 -0.165)">
       <use xlink:href="#ArialMT-30"/>
      </g>
     </g>
    </g>
    <g id="xtick_13">
     <g id="line2d_30">
      <path d="M 409.058594 604.878438 
L 409.058594 338.411322 
" clip-path="url(#pc0f80e2cce)" style="fill: none; stroke: #cccccc; stroke-width: 1.5; stroke-linecap: round"/>
     </g>
     <g id="text_16">
      <!-- 20 -->
      <g style="fill: #262626" transform="translate(399.883047 629.188828)scale(0.165 -0.165)">
       <use xlink:href="#ArialMT-32"/>
       <use xlink:href="#ArialMT-30" x="55.615234"/>
      </g>
     </g>
    </g>
    <g id="xtick_14">
     <g id="line2d_31">
      <path d="M 474.538594 604.878438 
L 474.538594 338.411322 
" clip-path="url(#pc0f80e2cce)" style="fill: none; stroke: #cccccc; stroke-width: 1.5; stroke-linecap: round"/>
     </g>
     <g id="text_17">
      <!-- 40 -->
      <g style="fill: #262626" transform="translate(465.363047 629.188828)scale(0.165 -0.165)">
       <use xlink:href="#ArialMT-34"/>
       <use xlink:href="#ArialMT-30" x="55.615234"/>
      </g>
     </g>
    </g>
    <g id="text_18">
     <!-- Realized INEXUS in dollar -->
     <g style="fill: #262626" transform="translate(189.424531 649.352266)scale(0.18 -0.18)">
      <defs>
       <path id="ArialMT-52" d="M 503 0 
L 503 4581 
L 2534 4581 
Q 3147 4581 3465 4457 
Q 3784 4334 3975 4021 
Q 4166 3709 4166 3331 
Q 4166 2844 3850 2509 
Q 3534 2175 2875 2084 
Q 3116 1969 3241 1856 
Q 3506 1613 3744 1247 
L 4541 0 
L 3778 0 
L 3172 953 
Q 2906 1366 2734 1584 
Q 2563 1803 2427 1890 
Q 2291 1978 2150 2013 
Q 2047 2034 1813 2034 
L 1109 2034 
L 1109 0 
L 503 0 
z
M 1109 2559 
L 2413 2559 
Q 2828 2559 3062 2645 
Q 3297 2731 3419 2920 
Q 3541 3109 3541 3331 
Q 3541 3656 3305 3865 
Q 3069 4075 2559 4075 
L 1109 4075 
L 1109 2559 
z
" transform="scale(0.015625)"/>
       <path id="ArialMT-61" d="M 2588 409 
Q 2275 144 1986 34 
Q 1697 -75 1366 -75 
Q 819 -75 525 192 
Q 231 459 231 875 
Q 231 1119 342 1320 
Q 453 1522 633 1644 
Q 813 1766 1038 1828 
Q 1203 1872 1538 1913 
Q 2219 1994 2541 2106 
Q 2544 2222 2544 2253 
Q 2544 2597 2384 2738 
Q 2169 2928 1744 2928 
Q 1347 2928 1158 2789 
Q 969 2650 878 2297 
L 328 2372 
Q 403 2725 575 2942 
Q 747 3159 1072 3276 
Q 1397 3394 1825 3394 
Q 2250 3394 2515 3294 
Q 2781 3194 2906 3042 
Q 3031 2891 3081 2659 
Q 3109 2516 3109 2141 
L 3109 1391 
Q 3109 606 3145 398 
Q 3181 191 3288 0 
L 2700 0 
Q 2613 175 2588 409 
z
M 2541 1666 
Q 2234 1541 1622 1453 
Q 1275 1403 1131 1340 
Q 988 1278 909 1158 
Q 831 1038 831 891 
Q 831 666 1001 516 
Q 1172 366 1500 366 
Q 1825 366 2078 508 
Q 2331 650 2450 897 
Q 2541 1088 2541 1459 
L 2541 1666 
z
" transform="scale(0.015625)"/>
       <path id="ArialMT-6c" d="M 409 0 
L 409 4581 
L 972 4581 
L 972 0 
L 409 0 
z
" transform="scale(0.015625)"/>
       <path id="ArialMT-7a" d="M 125 0 
L 125 456 
L 2238 2881 
Q 1878 2863 1603 2863 
L 250 2863 
L 250 3319 
L 2963 3319 
L 2963 2947 
L 1166 841 
L 819 456 
Q 1197 484 1528 484 
L 3063 484 
L 3063 0 
L 125 0 
z
" transform="scale(0.015625)"/>
       <path id="ArialMT-64" d="M 2575 0 
L 2575 419 
Q 2259 -75 1647 -75 
Q 1250 -75 917 144 
Q 584 363 401 755 
Q 219 1147 219 1656 
Q 219 2153 384 2558 
Q 550 2963 881 3178 
Q 1213 3394 1622 3394 
Q 1922 3394 2156 3267 
Q 2391 3141 2538 2938 
L 2538 4581 
L 3097 4581 
L 3097 0 
L 2575 0 
z
M 797 1656 
Q 797 1019 1065 703 
Q 1334 388 1700 388 
Q 2069 388 2326 689 
Q 2584 991 2584 1609 
Q 2584 2291 2321 2609 
Q 2059 2928 1675 2928 
Q 1300 2928 1048 2622 
Q 797 2316 797 1656 
z
" transform="scale(0.015625)"/>
       <path id="ArialMT-4e" d="M 488 0 
L 488 4581 
L 1109 4581 
L 3516 984 
L 3516 4581 
L 4097 4581 
L 4097 0 
L 3475 0 
L 1069 3600 
L 1069 0 
L 488 0 
z
" transform="scale(0.015625)"/>
       <path id="ArialMT-45" d="M 506 0 
L 506 4581 
L 3819 4581 
L 3819 4041 
L 1113 4041 
L 1113 2638 
L 3647 2638 
L 3647 2100 
L 1113 2100 
L 1113 541 
L 3925 541 
L 3925 0 
L 506 0 
z
" transform="scale(0.015625)"/>
       <path id="ArialMT-58" d="M 28 0 
L 1800 2388 
L 238 4581 
L 959 4581 
L 1791 3406 
Q 2050 3041 2159 2844 
Q 2313 3094 2522 3366 
L 3444 4581 
L 4103 4581 
L 2494 2422 
L 4228 0 
L 3478 0 
L 2325 1634 
Q 2228 1775 2125 1941 
Q 1972 1691 1906 1597 
L 756 0 
L 28 0 
z
" transform="scale(0.015625)"/>
       <path id="ArialMT-55" d="M 3500 4581 
L 4106 4581 
L 4106 1934 
Q 4106 1244 3950 837 
Q 3794 431 3386 176 
Q 2978 -78 2316 -78 
Q 1672 -78 1262 144 
Q 853 366 678 786 
Q 503 1206 503 1934 
L 503 4581 
L 1109 4581 
L 1109 1938 
Q 1109 1341 1220 1058 
Q 1331 775 1601 622 
Q 1872 469 2263 469 
Q 2931 469 3215 772 
Q 3500 1075 3500 1938 
L 3500 4581 
z
" transform="scale(0.015625)"/>
       <path id="ArialMT-53" d="M 288 1472 
L 859 1522 
Q 900 1178 1048 958 
Q 1197 738 1509 602 
Q 1822 466 2213 466 
Q 2559 466 2825 569 
Q 3091 672 3220 851 
Q 3350 1031 3350 1244 
Q 3350 1459 3225 1620 
Q 3100 1781 2813 1891 
Q 2628 1963 1997 2114 
Q 1366 2266 1113 2400 
Q 784 2572 623 2826 
Q 463 3081 463 3397 
Q 463 3744 659 4045 
Q 856 4347 1234 4503 
Q 1613 4659 2075 4659 
Q 2584 4659 2973 4495 
Q 3363 4331 3572 4012 
Q 3781 3694 3797 3291 
L 3216 3247 
Q 3169 3681 2898 3903 
Q 2628 4125 2100 4125 
Q 1550 4125 1298 3923 
Q 1047 3722 1047 3438 
Q 1047 3191 1225 3031 
Q 1400 2872 2139 2705 
Q 2878 2538 3153 2413 
Q 3553 2228 3743 1945 
Q 3934 1663 3934 1294 
Q 3934 928 3725 604 
Q 3516 281 3123 101 
Q 2731 -78 2241 -78 
Q 1619 -78 1198 103 
Q 778 284 539 648 
Q 300 1013 288 1472 
z
" transform="scale(0.015625)"/>
      </defs>
      <use xlink:href="#ArialMT-52"/>
      <use xlink:href="#ArialMT-65" x="72.216797"/>
      <use xlink:href="#ArialMT-61" x="127.832031"/>
      <use xlink:href="#ArialMT-6c" x="183.447266"/>
      <use xlink:href="#ArialMT-69" x="205.664062"/>
      <use xlink:href="#ArialMT-7a" x="227.880859"/>
      <use xlink:href="#ArialMT-65" x="277.880859"/>
      <use xlink:href="#ArialMT-64" x="333.496094"/>
      <use xlink:href="#ArialMT-20" x="389.111328"/>
      <use xlink:href="#ArialMT-49" x="416.894531"/>
      <use xlink:href="#ArialMT-4e" x="444.677734"/>
      <use xlink:href="#ArialMT-45" x="516.894531"/>
      <use xlink:href="#ArialMT-58" x="583.59375"/>
      <use xlink:href="#ArialMT-55" x="650.292969"/>
      <use xlink:href="#ArialMT-53" x="722.509766"/>
      <use xlink:href="#ArialMT-20" x="789.208984"/>
      <use xlink:href="#ArialMT-69" x="816.992188"/>
      <use xlink:href="#ArialMT-6e" x="839.208984"/>
      <use xlink:href="#ArialMT-20" x="894.824219"/>
      <use xlink:href="#ArialMT-64" x="922.607422"/>
      <use xlink:href="#ArialMT-6f" x="978.222656"/>
      <use xlink:href="#ArialMT-6c" x="1033.837891"/>
      <use xlink:href="#ArialMT-6c" x="1056.054688"/>
      <use xlink:href="#ArialMT-61" x="1078.271484"/>
      <use xlink:href="#ArialMT-72" x="1133.886719"/>
     </g>
    </g>
   </g>
   <g id="matplotlib.axis_4">
    <g id="ytick_9">
     <g id="line2d_32">
      <path d="M 81.658594 604.878438 
L 507.278594 604.878438 
" clip-path="url(#pc0f80e2cce)" style="fill: none; stroke: #cccccc; stroke-width: 1.5; stroke-linecap: round"/>
     </g>
     <g id="text_19">
      <!-- 0.000 -->
      <g style="fill: #262626" transform="translate(27.8725 610.783633)scale(0.165 -0.165)">
       <use xlink:href="#ArialMT-30"/>
       <use xlink:href="#ArialMT-2e" x="55.615234"/>
       <use xlink:href="#ArialMT-30" x="83.398438"/>
       <use xlink:href="#ArialMT-30" x="139.013672"/>
       <use xlink:href="#ArialMT-30" x="194.628906"/>
      </g>
     </g>
    </g>
    <g id="ytick_10">
     <g id="line2d_33">
      <path d="M 81.658594 569.933733 
L 507.278594 569.933733 
" clip-path="url(#pc0f80e2cce)" style="fill: none; stroke: #cccccc; stroke-width: 1.5; stroke-linecap: round"/>
     </g>
     <g id="text_20">
      <!-- 0.005 -->
      <g style="fill: #262626" transform="translate(27.8725 575.838929)scale(0.165 -0.165)">
       <use xlink:href="#ArialMT-30"/>
       <use xlink:href="#ArialMT-2e" x="55.615234"/>
       <use xlink:href="#ArialMT-30" x="83.398438"/>
       <use xlink:href="#ArialMT-30" x="139.013672"/>
       <use xlink:href="#ArialMT-35" x="194.628906"/>
      </g>
     </g>
    </g>
    <g id="ytick_11">
     <g id="line2d_34">
      <path d="M 81.658594 534.989029 
L 507.278594 534.989029 
" clip-path="url(#pc0f80e2cce)" style="fill: none; stroke: #cccccc; stroke-width: 1.5; stroke-linecap: round"/>
     </g>
     <g id="text_21">
      <!-- 0.010 -->
      <g style="fill: #262626" transform="translate(27.8725 540.894225)scale(0.165 -0.165)">
       <use xlink:href="#ArialMT-30"/>
       <use xlink:href="#ArialMT-2e" x="55.615234"/>
       <use xlink:href="#ArialMT-30" x="83.398438"/>
       <use xlink:href="#ArialMT-31" x="139.013672"/>
       <use xlink:href="#ArialMT-30" x="194.628906"/>
      </g>
     </g>
    </g>
    <g id="ytick_12">
     <g id="line2d_35">
      <path d="M 81.658594 500.044325 
L 507.278594 500.044325 
" clip-path="url(#pc0f80e2cce)" style="fill: none; stroke: #cccccc; stroke-width: 1.5; stroke-linecap: round"/>
     </g>
     <g id="text_22">
      <!-- 0.015 -->
      <g style="fill: #262626" transform="translate(27.8725 505.949521)scale(0.165 -0.165)">
       <use xlink:href="#ArialMT-30"/>
       <use xlink:href="#ArialMT-2e" x="55.615234"/>
       <use xlink:href="#ArialMT-30" x="83.398438"/>
       <use xlink:href="#ArialMT-31" x="139.013672"/>
       <use xlink:href="#ArialMT-35" x="194.628906"/>
      </g>
     </g>
    </g>
    <g id="ytick_13">
     <g id="line2d_36">
      <path d="M 81.658594 465.099621 
L 507.278594 465.099621 
" clip-path="url(#pc0f80e2cce)" style="fill: none; stroke: #cccccc; stroke-width: 1.5; stroke-linecap: round"/>
     </g>
     <g id="text_23">
      <!-- 0.020 -->
      <g style="fill: #262626" transform="translate(27.8725 471.004817)scale(0.165 -0.165)">
       <use xlink:href="#ArialMT-30"/>
       <use xlink:href="#ArialMT-2e" x="55.615234"/>
       <use xlink:href="#ArialMT-30" x="83.398438"/>
       <use xlink:href="#ArialMT-32" x="139.013672"/>
       <use xlink:href="#ArialMT-30" x="194.628906"/>
      </g>
     </g>
    </g>
    <g id="ytick_14">
     <g id="line2d_37">
      <path d="M 81.658594 430.154917 
L 507.278594 430.154917 
" clip-path="url(#pc0f80e2cce)" style="fill: none; stroke: #cccccc; stroke-width: 1.5; stroke-linecap: round"/>
     </g>
     <g id="text_24">
      <!-- 0.025 -->
      <g style="fill: #262626" transform="translate(27.8725 436.060113)scale(0.165 -0.165)">
       <use xlink:href="#ArialMT-30"/>
       <use xlink:href="#ArialMT-2e" x="55.615234"/>
       <use xlink:href="#ArialMT-30" x="83.398438"/>
       <use xlink:href="#ArialMT-32" x="139.013672"/>
       <use xlink:href="#ArialMT-35" x="194.628906"/>
      </g>
     </g>
    </g>
    <g id="ytick_15">
     <g id="line2d_38">
      <path d="M 81.658594 395.210213 
L 507.278594 395.210213 
" clip-path="url(#pc0f80e2cce)" style="fill: none; stroke: #cccccc; stroke-width: 1.5; stroke-linecap: round"/>
     </g>
     <g id="text_25">
      <!-- 0.030 -->
      <g style="fill: #262626" transform="translate(27.8725 401.115409)scale(0.165 -0.165)">
       <use xlink:href="#ArialMT-30"/>
       <use xlink:href="#ArialMT-2e" x="55.615234"/>
       <use xlink:href="#ArialMT-30" x="83.398438"/>
       <use xlink:href="#ArialMT-33" x="139.013672"/>
       <use xlink:href="#ArialMT-30" x="194.628906"/>
      </g>
     </g>
    </g>
    <g id="ytick_16">
     <g id="line2d_39">
      <path d="M 81.658594 360.265509 
L 507.278594 360.265509 
" clip-path="url(#pc0f80e2cce)" style="fill: none; stroke: #cccccc; stroke-width: 1.5; stroke-linecap: round"/>
     </g>
     <g id="text_26">
      <!-- 0.035 -->
      <g style="fill: #262626" transform="translate(27.8725 366.170705)scale(0.165 -0.165)">
       <use xlink:href="#ArialMT-30"/>
       <use xlink:href="#ArialMT-2e" x="55.615234"/>
       <use xlink:href="#ArialMT-30" x="83.398438"/>
       <use xlink:href="#ArialMT-33" x="139.013672"/>
       <use xlink:href="#ArialMT-35" x="194.628906"/>
      </g>
     </g>
    </g>
    <g id="text_27">
     <!-- Frequency Density -->
     <g style="fill: #262626" transform="translate(20.084063 546.672536)rotate(-90)scale(0.18 -0.18)">
      <use xlink:href="#ArialMT-46"/>
      <use xlink:href="#ArialMT-72" x="61.083984"/>
      <use xlink:href="#ArialMT-65" x="94.384766"/>
      <use xlink:href="#ArialMT-71" x="150"/>
      <use xlink:href="#ArialMT-75" x="205.615234"/>
      <use xlink:href="#ArialMT-65" x="261.230469"/>
      <use xlink:href="#ArialMT-6e" x="316.845703"/>
      <use xlink:href="#ArialMT-63" x="372.460938"/>
      <use xlink:href="#ArialMT-79" x="422.460938"/>
      <use xlink:href="#ArialMT-20" x="472.460938"/>
      <use xlink:href="#ArialMT-44" x="500.244141"/>
      <use xlink:href="#ArialMT-65" x="572.460938"/>
      <use xlink:href="#ArialMT-6e" x="628.076172"/>
      <use xlink:href="#ArialMT-73" x="683.691406"/>
      <use xlink:href="#ArialMT-69" x="733.691406"/>
      <use xlink:href="#ArialMT-74" x="755.908203"/>
      <use xlink:href="#ArialMT-79" x="783.691406"/>
     </g>
    </g>
   </g>
   <g id="line2d_40">
    <path d="M -1 603.871959 
L 24.163644 603.498627 
L 53.599439 602.733203 
L 68.317337 602.164734 
L 83.035235 601.449262 
L 97.753132 600.586985 
L 112.47103 599.585874 
L 127.188928 598.42807 
L 141.906826 597.013647 
L 156.624724 595.101609 
L 171.342621 592.270859 
L 186.060519 587.912925 
L 200.778417 581.259172 
L 215.496315 571.446836 
L 230.214213 557.640981 
L 244.93211 539.265584 
L 259.650008 516.441506 
L 274.367906 490.657911 
L 289.085804 465.375948 
L 303.803701 445.861311 
L 318.521599 437.657903 
L 333.239497 444.08707 
L 347.957395 464.288873 
L 362.675293 493.326593 
L 377.39319 524.434069 
L 392.111088 551.886015 
L 406.828986 572.724121 
L 421.546884 586.721085 
L 436.264781 595.243717 
L 450.982679 600.049288 
L 465.700577 602.59663 
L 480.418475 603.871218 
L 495.136373 604.468523 
L 509.85427 604.726707 
L 539.290066 604.863472 
L 539.290066 604.863472 
" clip-path="url(#pc0f80e2cce)" style="fill: none; stroke: #d62f27; stroke-width: 2.25; stroke-linecap: round"/>
   </g>
   <g id="line2d_41">
    <path d="M -1 604.139357 
L 41.682472 603.626821 
L 70.748748 602.980322 
L 85.281886 602.449862 
L 99.815024 601.729762 
L 114.348162 600.819306 
L 128.8813 599.73224 
L 143.414438 598.430107 
L 157.947577 596.740653 
L 172.480715 594.300883 
L 187.013853 590.526187 
L 201.546991 584.60209 
L 216.080129 575.546282 
L 230.613267 562.361316 
L 245.146405 544.171489 
L 259.679543 520.35221 
L 274.212681 491.149758 
L 288.745819 459.257474 
L 303.278957 431.305201 
L 317.812095 416.666791 
L 332.345233 422.554509 
L 346.878371 448.736151 
L 361.411509 486.940784 
L 375.944647 525.854332 
L 390.477785 557.238105 
L 405.010923 578.482903 
L 419.544061 591.130948 
L 434.0772 598.064532 
L 448.610338 601.68862 
L 463.143476 603.502567 
L 477.676614 604.347787 
L 492.209752 604.70004 
L 521.276028 604.865933 
L 521.276028 604.865933 
" clip-path="url(#pc0f80e2cce)" style="fill: none; stroke: #f46d43; stroke-width: 2.25; stroke-linecap: round"/>
   </g>
   <g id="line2d_42">
    <path d="M -1 604.149391 
L 49.816126 603.697144 
L 78.641366 603.145366 
L 93.053987 602.649786 
L 107.466607 601.951357 
L 121.879227 601.05188 
L 136.291847 599.961698 
L 150.704468 598.614262 
L 165.117088 596.78396 
L 179.529708 594.049112 
L 193.942328 589.757315 
L 208.354948 582.985279 
L 222.767569 572.641554 
L 237.180189 557.75113 
L 251.592809 537.540852 
L 266.005429 511.180026 
L 280.41805 478.399056 
L 294.83067 442.36052 
L 309.24329 412.549761 
L 323.65591 402.117427 
L 338.068531 418.744643 
L 352.481151 457.449443 
L 366.893771 503.689887 
L 381.306391 543.59633 
L 395.719012 571.07426 
L 410.131632 587.241873 
L 424.544252 595.983395 
L 438.956872 600.605723 
L 453.369492 603.008224 
L 467.782113 604.167043 
L 482.194733 604.651379 
L 496.607353 604.818932 
L 511.019973 604.865792 
L 511.019973 604.865792 
" clip-path="url(#pc0f80e2cce)" style="fill: none; stroke: #fdad60; stroke-width: 2.25; stroke-linecap: round"/>
   </g>
   <g id="line2d_43">
    <path d="M -1 604.004111 
L 55.249302 603.704252 
L 83.878076 603.290439 
L 98.192462 602.882531 
L 112.506849 602.260739 
L 126.821236 601.408019 
L 141.135623 600.326341 
L 155.45001 598.931475 
L 169.764396 596.977077 
L 184.078783 594.076806 
L 198.39317 589.627946 
L 212.707557 582.566843 
L 227.021944 571.490397 
L 241.33633 555.472799 
L 255.650717 534.368298 
L 269.965104 507.236545 
L 284.279491 471.569795 
L 298.593878 428.709351 
L 312.908264 392.039541 
L 327.222651 383.054818 
L 341.537038 412.020992 
L 355.851425 465.871945 
L 370.165812 520.259909 
L 384.480198 559.423885 
L 398.794585 581.855225 
L 413.108972 593.250483 
L 427.423359 599.108979 
L 441.737746 602.293346 
L 456.052132 603.919714 
L 470.366519 604.599958 
L 484.680906 604.816868 
L 498.995293 604.868221 
L 498.995293 604.868221 
" clip-path="url(#pc0f80e2cce)" style="fill: none; stroke: #fee08b; stroke-width: 2.25; stroke-linecap: round"/>
   </g>
   <g id="line2d_44">
    <path d="M -1 604.049756 
L 64.655492 603.601024 
L 93.056682 603.175394 
L 107.257277 602.82234 
L 121.457872 602.283484 
L 135.658467 601.497072 
L 149.859062 600.386275 
L 164.059657 598.771732 
L 178.260252 596.376712 
L 192.460847 592.855904 
L 206.661442 587.477464 
L 220.862037 578.739618 
L 235.062631 565.041084 
L 249.263226 546.206126 
L 263.463821 522.913463 
L 277.664416 492.868044 
L 291.865011 451.155435 
L 306.065606 402.289311 
L 320.266201 370.02847 
L 334.466796 380.533669 
L 348.667391 432.252 
L 362.867986 496.253078 
L 377.068581 546.169089 
L 391.269176 575.317573 
L 405.469771 589.772555 
L 419.670365 597.029293 
L 433.87096 601.168123 
L 448.071555 603.468385 
L 462.27215 604.478396 
L 476.472745 604.796617 
L 490.67334 604.866561 
L 490.67334 604.866561 
" clip-path="url(#pc0f80e2cce)" style="fill: none; stroke: #feffbe; stroke-width: 2.25; stroke-linecap: round"/>
   </g>
   <g id="line2d_45">
    <path d="M -1 603.997197 
L 49.984432 603.69534 
L 92.669902 603.2165 
L 106.898392 602.932916 
L 121.126882 602.458131 
L 135.355372 601.712995 
L 149.583862 600.611738 
L 163.812352 598.994595 
L 178.040843 596.609781 
L 192.269333 593.106027 
L 206.497823 587.75605 
L 220.726313 579.10908 
L 234.954803 565.587687 
L 249.183293 546.944526 
L 263.411783 523.75598 
L 277.640273 493.639286 
L 291.868763 451.539758 
L 306.097253 401.943146 
L 320.325743 369.017218 
L 334.554233 379.479753 
L 348.782723 431.748389 
L 363.011214 496.323242 
L 377.239704 546.481963 
L 391.468194 575.636101 
L 405.696684 590.042003 
L 419.925174 597.244827 
L 434.153664 601.313365 
L 448.382154 603.542167 
L 462.610644 604.505229 
L 476.839134 604.803462 
L 491.067624 604.867775 
L 491.067624 604.867775 
" clip-path="url(#pc0f80e2cce)" style="fill: none; stroke: #d9ef8b; stroke-width: 2.25; stroke-linecap: round"/>
   </g>
   <g id="line2d_46">
    <path d="M -1 604.064834 
L 80.857356 603.48563 
L 95.019522 603.296779 
L 109.181688 602.962517 
L 123.343854 602.40113 
L 137.50602 601.561178 
L 151.668186 600.374123 
L 165.830352 598.67172 
L 179.992518 596.203814 
L 194.154684 592.6024 
L 208.316851 587.017958 
L 222.479017 577.873003 
L 236.641183 563.68972 
L 250.803349 544.458994 
L 264.965515 520.65917 
L 279.127681 489.486472 
L 293.289847 446.273938 
L 307.452013 397.275819 
L 321.614179 367.77672 
L 335.776345 382.640856 
L 349.938511 437.154464 
L 364.100677 501.062488 
L 378.262843 549.32733 
L 392.425009 576.944152 
L 406.587176 590.574235 
L 420.749342 597.495002 
L 434.911508 601.452807 
L 449.073674 603.609222 
L 463.23584 604.52816 
L 477.398006 604.808763 
L 491.560172 604.868597 
L 491.560172 604.868597 
" clip-path="url(#pc0f80e2cce)" style="fill: none; stroke: #a5d86a; stroke-width: 2.25; stroke-linecap: round"/>
   </g>
   <g id="line2d_47">
    <path d="M -1 604.145421 
L 54.295915 603.805507 
L 96.508601 603.341172 
L 110.579497 603.029543 
L 124.650392 602.492101 
L 138.721288 601.637394 
L 152.792184 600.372645 
L 166.863079 598.550617 
L 180.933975 595.970192 
L 195.00487 592.29965 
L 209.075766 586.684182 
L 223.146661 577.489653 
L 237.217557 563.18893 
L 251.288452 543.84964 
L 265.359348 520.126224 
L 279.430243 489.166881 
L 293.501139 445.815658 
L 307.572035 395.944728 
L 321.64293 365.393905 
L 335.713826 380.078625 
L 349.784721 435.423704 
L 363.855617 500.361223 
L 377.926512 549.262507 
L 391.997408 577.089784 
L 406.068303 590.678207 
L 420.139199 597.503585 
L 434.210094 601.424904 
L 448.28099 603.59128 
L 462.351886 604.523285 
L 476.422781 604.808289 
L 490.493677 604.868668 
L 490.493677 604.868668 
" clip-path="url(#pc0f80e2cce)" style="fill: none; stroke: #66bd63; stroke-width: 2.25; stroke-linecap: round"/>
   </g>
   <g id="line2d_48">
    <path d="M -1 604.083148 
L 67.175166 603.755718 
L 95.208546 603.361308 
L 109.225236 602.996831 
L 123.241926 602.452436 
L 137.258616 601.657548 
L 151.275306 600.493562 
L 165.291996 598.776513 
L 179.308686 596.312807 
L 193.325376 592.875596 
L 207.342066 587.778019 
L 221.358756 579.399852 
L 235.375446 565.884922 
L 249.392136 547.038116 
L 263.408826 524.203219 
L 277.425516 495.544178 
L 291.442206 454.359222 
L 305.458896 402.083949 
L 319.475586 363.319084 
L 333.492276 370.063285 
L 347.508966 423.827963 
L 361.525656 492.1627 
L 375.542346 544.893888 
L 389.559036 575.0056 
L 403.575726 589.556786 
L 417.592416 596.776969 
L 431.609106 601.011215 
L 445.625796 603.432725 
L 459.642486 604.487905 
L 473.659176 604.804899 
L 487.675866 604.868935 
L 487.675866 604.868935 
" clip-path="url(#pc0f80e2cce)" style="fill: none; stroke: #199750; stroke-width: 2.25; stroke-linecap: round"/>
   </g>
   <g id="patch_6">
    <path d="M 81.658594 604.878438 
L 81.658594 338.411322 
" style="fill: none; stroke: #cccccc; stroke-width: 1.875; stroke-linejoin: miter; stroke-linecap: square"/>
   </g>
   <g id="patch_7">
    <path d="M 81.658594 604.878438 
L 507.278594 604.878438 
" style="fill: none; stroke: #cccccc; stroke-width: 1.875; stroke-linejoin: miter; stroke-linecap: square"/>
   </g>
   <g id="text_28">
    <!-- Highest 10% Income -->
    <g style="fill: #262626" transform="translate(211.429531 332.411322)scale(0.18 -0.18)">
     <defs>
      <path id="ArialMT-48" d="M 513 0 
L 513 4581 
L 1119 4581 
L 1119 2700 
L 3500 2700 
L 3500 4581 
L 4106 4581 
L 4106 0 
L 3500 0 
L 3500 2159 
L 1119 2159 
L 1119 0 
L 513 0 
z
" transform="scale(0.015625)"/>
      <path id="ArialMT-67" d="M 319 -275 
L 866 -356 
Q 900 -609 1056 -725 
Q 1266 -881 1628 -881 
Q 2019 -881 2231 -725 
Q 2444 -569 2519 -288 
Q 2563 -116 2559 434 
Q 2191 0 1641 0 
Q 956 0 581 494 
Q 206 988 206 1678 
Q 206 2153 378 2554 
Q 550 2956 876 3175 
Q 1203 3394 1644 3394 
Q 2231 3394 2613 2919 
L 2613 3319 
L 3131 3319 
L 3131 450 
Q 3131 -325 2973 -648 
Q 2816 -972 2473 -1159 
Q 2131 -1347 1631 -1347 
Q 1038 -1347 672 -1080 
Q 306 -813 319 -275 
z
M 784 1719 
Q 784 1066 1043 766 
Q 1303 466 1694 466 
Q 2081 466 2343 764 
Q 2606 1063 2606 1700 
Q 2606 2309 2336 2618 
Q 2066 2928 1684 2928 
Q 1309 2928 1046 2623 
Q 784 2319 784 1719 
z
" transform="scale(0.015625)"/>
      <path id="ArialMT-68" d="M 422 0 
L 422 4581 
L 984 4581 
L 984 2938 
Q 1378 3394 1978 3394 
Q 2347 3394 2619 3248 
Q 2891 3103 3008 2847 
Q 3125 2591 3125 2103 
L 3125 0 
L 2563 0 
L 2563 2103 
Q 2563 2525 2380 2717 
Q 2197 2909 1863 2909 
Q 1613 2909 1392 2779 
Q 1172 2650 1078 2428 
Q 984 2206 984 1816 
L 984 0 
L 422 0 
z
" transform="scale(0.015625)"/>
     </defs>
     <use xlink:href="#ArialMT-48"/>
     <use xlink:href="#ArialMT-69" x="72.216797"/>
     <use xlink:href="#ArialMT-67" x="94.433594"/>
     <use xlink:href="#ArialMT-68" x="150.048828"/>
     <use xlink:href="#ArialMT-65" x="205.664062"/>
     <use xlink:href="#ArialMT-73" x="261.279297"/>
     <use xlink:href="#ArialMT-74" x="311.279297"/>
     <use xlink:href="#ArialMT-20" x="339.0625"/>
     <use xlink:href="#ArialMT-31" x="366.845703"/>
     <use xlink:href="#ArialMT-30" x="422.460938"/>
     <use xlink:href="#ArialMT-25" x="478.076172"/>
     <use xlink:href="#ArialMT-20" x="566.992188"/>
     <use xlink:href="#ArialMT-49" x="594.775391"/>
     <use xlink:href="#ArialMT-6e" x="622.558594"/>
     <use xlink:href="#ArialMT-63" x="678.173828"/>
     <use xlink:href="#ArialMT-6f" x="728.173828"/>
     <use xlink:href="#ArialMT-6d" x="783.789062"/>
     <use xlink:href="#ArialMT-65" x="867.089844"/>
    </g>
   </g>
   <g id="legend_1">
    <g id="patch_8">
     <path d="M 531.562281 588.921911 
L 686.207594 588.921911 
Q 689.807594 588.921911 689.807594 585.321911 
L 689.807594 357.967848 
Q 689.807594 354.367848 686.207594 354.367848 
L 531.562281 354.367848 
Q 527.962281 354.367848 527.962281 357.967848 
L 527.962281 585.321911 
Q 527.962281 588.921911 531.562281 588.921911 
z
" style="fill: #ffffff; opacity: 0.8; stroke: #cccccc; stroke-width: 1.5; stroke-linejoin: miter"/>
    </g>
    <g id="line2d_49">
     <path d="M 535.162281 368.151911 
L 553.162281 368.151911 
L 571.162281 368.151911 
" style="fill: none; stroke: #d62f27; stroke-width: 2.25; stroke-linecap: round"/>
    </g>
    <g id="text_29">
     <!-- 0% Price -->
     <g style="fill: #262626" transform="translate(585.562281 374.451911)scale(0.18 -0.18)">
      <defs>
       <path id="ArialMT-50" d="M 494 0 
L 494 4581 
L 2222 4581 
Q 2678 4581 2919 4538 
Q 3256 4481 3484 4323 
Q 3713 4166 3852 3881 
Q 3991 3597 3991 3256 
Q 3991 2672 3619 2267 
Q 3247 1863 2275 1863 
L 1100 1863 
L 1100 0 
L 494 0 
z
M 1100 2403 
L 2284 2403 
Q 2872 2403 3119 2622 
Q 3366 2841 3366 3238 
Q 3366 3525 3220 3729 
Q 3075 3934 2838 4000 
Q 2684 4041 2272 4041 
L 1100 4041 
L 1100 2403 
z
" transform="scale(0.015625)"/>
      </defs>
      <use xlink:href="#ArialMT-30"/>
      <use xlink:href="#ArialMT-25" x="55.615234"/>
      <use xlink:href="#ArialMT-20" x="144.53125"/>
      <use xlink:href="#ArialMT-50" x="172.314453"/>
      <use xlink:href="#ArialMT-72" x="239.013672"/>
      <use xlink:href="#ArialMT-69" x="272.314453"/>
      <use xlink:href="#ArialMT-63" x="294.53125"/>
      <use xlink:href="#ArialMT-65" x="344.53125"/>
     </g>
    </g>
    <g id="line2d_50">
     <path d="M 535.162281 393.613473 
L 553.162281 393.613473 
L 571.162281 393.613473 
" style="fill: none; stroke: #f46d43; stroke-width: 2.25; stroke-linecap: round"/>
    </g>
    <g id="text_30">
     <!-- 12.5% Price -->
     <g style="fill: #262626" transform="translate(585.562281 399.913473)scale(0.18 -0.18)">
      <use xlink:href="#ArialMT-31"/>
      <use xlink:href="#ArialMT-32" x="55.615234"/>
      <use xlink:href="#ArialMT-2e" x="111.230469"/>
      <use xlink:href="#ArialMT-35" x="139.013672"/>
      <use xlink:href="#ArialMT-25" x="194.628906"/>
      <use xlink:href="#ArialMT-20" x="283.544922"/>
      <use xlink:href="#ArialMT-50" x="311.328125"/>
      <use xlink:href="#ArialMT-72" x="378.027344"/>
      <use xlink:href="#ArialMT-69" x="411.328125"/>
      <use xlink:href="#ArialMT-63" x="433.544922"/>
      <use xlink:href="#ArialMT-65" x="483.544922"/>
     </g>
    </g>
    <g id="line2d_51">
     <path d="M 535.162281 419.075036 
L 553.162281 419.075036 
L 571.162281 419.075036 
" style="fill: none; stroke: #fdad60; stroke-width: 2.25; stroke-linecap: round"/>
    </g>
    <g id="text_31">
     <!-- 25% Price -->
     <g style="fill: #262626" transform="translate(585.562281 425.375036)scale(0.18 -0.18)">
      <use xlink:href="#ArialMT-32"/>
      <use xlink:href="#ArialMT-35" x="55.615234"/>
      <use xlink:href="#ArialMT-25" x="111.230469"/>
      <use xlink:href="#ArialMT-20" x="200.146484"/>
      <use xlink:href="#ArialMT-50" x="227.929688"/>
      <use xlink:href="#ArialMT-72" x="294.628906"/>
      <use xlink:href="#ArialMT-69" x="327.929688"/>
      <use xlink:href="#ArialMT-63" x="350.146484"/>
      <use xlink:href="#ArialMT-65" x="400.146484"/>
     </g>
    </g>
    <g id="line2d_52">
     <path d="M 535.162281 444.536598 
L 553.162281 444.536598 
L 571.162281 444.536598 
" style="fill: none; stroke: #fee08b; stroke-width: 2.25; stroke-linecap: round"/>
    </g>
    <g id="text_32">
     <!-- 50% Price -->
     <g style="fill: #262626" transform="translate(585.562281 450.836598)scale(0.18 -0.18)">
      <use xlink:href="#ArialMT-35"/>
      <use xlink:href="#ArialMT-30" x="55.615234"/>
      <use xlink:href="#ArialMT-25" x="111.230469"/>
      <use xlink:href="#ArialMT-20" x="200.146484"/>
      <use xlink:href="#ArialMT-50" x="227.929688"/>
      <use xlink:href="#ArialMT-72" x="294.628906"/>
      <use xlink:href="#ArialMT-69" x="327.929688"/>
      <use xlink:href="#ArialMT-63" x="350.146484"/>
      <use xlink:href="#ArialMT-65" x="400.146484"/>
     </g>
    </g>
    <g id="line2d_53">
     <path d="M 535.162281 469.998161 
L 553.162281 469.998161 
L 571.162281 469.998161 
" style="fill: none; stroke: #feffbe; stroke-width: 2.25; stroke-linecap: round"/>
    </g>
    <g id="text_33">
     <!-- Baseline -->
     <g style="fill: #262626" transform="translate(585.562281 476.298161)scale(0.18 -0.18)">
      <defs>
       <path id="ArialMT-42" d="M 469 0 
L 469 4581 
L 2188 4581 
Q 2713 4581 3030 4442 
Q 3347 4303 3526 4014 
Q 3706 3725 3706 3409 
Q 3706 3116 3547 2856 
Q 3388 2597 3066 2438 
Q 3481 2316 3704 2022 
Q 3928 1728 3928 1328 
Q 3928 1006 3792 729 
Q 3656 453 3456 303 
Q 3256 153 2954 76 
Q 2653 0 2216 0 
L 469 0 
z
M 1075 2656 
L 2066 2656 
Q 2469 2656 2644 2709 
Q 2875 2778 2992 2937 
Q 3109 3097 3109 3338 
Q 3109 3566 3000 3739 
Q 2891 3913 2687 3977 
Q 2484 4041 1991 4041 
L 1075 4041 
L 1075 2656 
z
M 1075 541 
L 2216 541 
Q 2509 541 2628 563 
Q 2838 600 2978 687 
Q 3119 775 3209 942 
Q 3300 1109 3300 1328 
Q 3300 1584 3169 1773 
Q 3038 1963 2805 2039 
Q 2572 2116 2134 2116 
L 1075 2116 
L 1075 541 
z
" transform="scale(0.015625)"/>
      </defs>
      <use xlink:href="#ArialMT-42"/>
      <use xlink:href="#ArialMT-61" x="66.699219"/>
      <use xlink:href="#ArialMT-73" x="122.314453"/>
      <use xlink:href="#ArialMT-65" x="172.314453"/>
      <use xlink:href="#ArialMT-6c" x="227.929688"/>
      <use xlink:href="#ArialMT-69" x="250.146484"/>
      <use xlink:href="#ArialMT-6e" x="272.363281"/>
      <use xlink:href="#ArialMT-65" x="327.978516"/>
     </g>
    </g>
    <g id="line2d_54">
     <path d="M 535.162281 495.459723 
L 553.162281 495.459723 
L 571.162281 495.459723 
" style="fill: none; stroke: #d9ef8b; stroke-width: 2.25; stroke-linecap: round"/>
    </g>
    <g id="text_34">
     <!-- 175% Price -->
     <g style="fill: #262626" transform="translate(585.562281 501.759723)scale(0.18 -0.18)">
      <defs>
       <path id="ArialMT-37" d="M 303 3981 
L 303 4522 
L 3269 4522 
L 3269 4084 
Q 2831 3619 2401 2847 
Q 1972 2075 1738 1259 
Q 1569 684 1522 0 
L 944 0 
Q 953 541 1156 1306 
Q 1359 2072 1739 2783 
Q 2119 3494 2547 3981 
L 303 3981 
z
" transform="scale(0.015625)"/>
      </defs>
      <use xlink:href="#ArialMT-31"/>
      <use xlink:href="#ArialMT-37" x="55.615234"/>
      <use xlink:href="#ArialMT-35" x="111.230469"/>
      <use xlink:href="#ArialMT-25" x="166.845703"/>
      <use xlink:href="#ArialMT-20" x="255.761719"/>
      <use xlink:href="#ArialMT-50" x="283.544922"/>
      <use xlink:href="#ArialMT-72" x="350.244141"/>
      <use xlink:href="#ArialMT-69" x="383.544922"/>
      <use xlink:href="#ArialMT-63" x="405.761719"/>
      <use xlink:href="#ArialMT-65" x="455.761719"/>
     </g>
    </g>
    <g id="line2d_55">
     <path d="M 535.162281 520.921286 
L 553.162281 520.921286 
L 571.162281 520.921286 
" style="fill: none; stroke: #a5d86a; stroke-width: 2.25; stroke-linecap: round"/>
    </g>
    <g id="text_35">
     <!-- 300% Price -->
     <g style="fill: #262626" transform="translate(585.562281 527.221286)scale(0.18 -0.18)">
      <use xlink:href="#ArialMT-33"/>
      <use xlink:href="#ArialMT-30" x="55.615234"/>
      <use xlink:href="#ArialMT-30" x="111.230469"/>
      <use xlink:href="#ArialMT-25" x="166.845703"/>
      <use xlink:href="#ArialMT-20" x="255.761719"/>
      <use xlink:href="#ArialMT-50" x="283.544922"/>
      <use xlink:href="#ArialMT-72" x="350.244141"/>
      <use xlink:href="#ArialMT-69" x="383.544922"/>
      <use xlink:href="#ArialMT-63" x="405.761719"/>
      <use xlink:href="#ArialMT-65" x="455.761719"/>
     </g>
    </g>
    <g id="line2d_56">
     <path d="M 535.162281 546.382848 
L 553.162281 546.382848 
L 571.162281 546.382848 
" style="fill: none; stroke: #66bd63; stroke-width: 2.25; stroke-linecap: round"/>
    </g>
    <g id="text_36">
     <!-- 500% Price -->
     <g style="fill: #262626" transform="translate(585.562281 552.682848)scale(0.18 -0.18)">
      <use xlink:href="#ArialMT-35"/>
      <use xlink:href="#ArialMT-30" x="55.615234"/>
      <use xlink:href="#ArialMT-30" x="111.230469"/>
      <use xlink:href="#ArialMT-25" x="166.845703"/>
      <use xlink:href="#ArialMT-20" x="255.761719"/>
      <use xlink:href="#ArialMT-50" x="283.544922"/>
      <use xlink:href="#ArialMT-72" x="350.244141"/>
      <use xlink:href="#ArialMT-69" x="383.544922"/>
      <use xlink:href="#ArialMT-63" x="405.761719"/>
      <use xlink:href="#ArialMT-65" x="455.761719"/>
     </g>
    </g>
    <g id="line2d_57">
     <path d="M 535.162281 571.844411 
L 553.162281 571.844411 
L 571.162281 571.844411 
" style="fill: none; stroke: #199750; stroke-width: 2.25; stroke-linecap: round"/>
    </g>
    <g id="text_37">
     <!-- 800% Price -->
     <g style="fill: #262626" transform="translate(585.562281 578.144411)scale(0.18 -0.18)">
      <use xlink:href="#ArialMT-38"/>
      <use xlink:href="#ArialMT-30" x="55.615234"/>
      <use xlink:href="#ArialMT-30" x="111.230469"/>
      <use xlink:href="#ArialMT-25" x="166.845703"/>
      <use xlink:href="#ArialMT-20" x="255.761719"/>
      <use xlink:href="#ArialMT-50" x="283.544922"/>
      <use xlink:href="#ArialMT-72" x="350.244141"/>
      <use xlink:href="#ArialMT-69" x="383.544922"/>
      <use xlink:href="#ArialMT-63" x="405.761719"/>
      <use xlink:href="#ArialMT-65" x="455.761719"/>
     </g>
    </g>
   </g>
  </g>
 </g>
 <defs>
  <clipPath id="pfc863e0d8b">
   <rect x="81.658594" y="26.084063" width="425.62" height="266.467116"/>
  </clipPath>
  <clipPath id="pc0f80e2cce">
   <rect x="81.658594" y="338.411322" width="425.62" height="266.467116"/>
  </clipPath>
 </defs>
</svg>
