<?xml version="1.0" encoding="utf-8" standalone="no"?>
<!DOCTYPE svg PUBLIC "-//W3C//DTD SVG 1.1//EN"
  "http://www.w3.org/Graphics/SVG/1.1/DTD/svg11.dtd">
<svg xmlns:xlink="http://www.w3.org/1999/xlink" width="685.0105pt" height="661.501562pt" viewBox="0 0 685.0105 661.501562" xmlns="http://www.w3.org/2000/svg" version="1.1">
 <metadata>
  <rdf:RDF xmlns:dc="http://purl.org/dc/elements/1.1/" xmlns:cc="http://creativecommons.org/ns#" xmlns:rdf="http://www.w3.org/1999/02/22-rdf-syntax-ns#">
   <cc:Work>
    <dc:type rdf:resource="http://purl.org/dc/dcmitype/StillImage"/>
    <dc:date>2023-02-02T21:08:27.553214</dc:date>
    <dc:format>image/svg+xml</dc:format>
    <dc:creator>
     <cc:Agent>
      <dc:title>Matplotlib v3.5.1, https://matplotlib.org/</dc:title>
     </cc:Agent>
    </dc:creator>
   </cc:Work>
  </rdf:RDF>
 </metadata>
 <defs>
  <style type="text/css">*{stroke-linejoin: round; stroke-linecap: butt}</style>
 </defs>
 <g id="figure_1">
  <g id="patch_1">
   <path d="M 0 661.501562 
L 685.0105 661.501562 
L 685.0105 0 
L 0 0 
z
" style="fill: #ffffff"/>
  </g>
  <g id="axes_1">
   <g id="patch_2">
    <path d="M 65.3925 292.551178 
L 509.2625 292.551178 
L 509.2625 26.084063 
L 65.3925 26.084063 
z
" style="fill: #ffffff"/>
   </g>
   <g id="matplotlib.axis_1">
    <g id="xtick_1">
     <g id="line2d_1">
      <path d="M 65.3925 292.551178 
L 65.3925 26.084063 
" clip-path="url(#p575d95c17d)" style="fill: none; stroke: #cccccc; stroke-width: 1.5; stroke-linecap: round"/>
     </g>
    </g>
    <g id="xtick_2">
     <g id="line2d_2">
      <path d="M 128.8025 292.551178 
L 128.8025 26.084063 
" clip-path="url(#p575d95c17d)" style="fill: none; stroke: #cccccc; stroke-width: 1.5; stroke-linecap: round"/>
     </g>
    </g>
    <g id="xtick_3">
     <g id="line2d_3">
      <path d="M 192.2125 292.551178 
L 192.2125 26.084063 
" clip-path="url(#p575d95c17d)" style="fill: none; stroke: #cccccc; stroke-width: 1.5; stroke-linecap: round"/>
     </g>
    </g>
    <g id="xtick_4">
     <g id="line2d_4">
      <path d="M 255.6225 292.551178 
L 255.6225 26.084063 
" clip-path="url(#p575d95c17d)" style="fill: none; stroke: #cccccc; stroke-width: 1.5; stroke-linecap: round"/>
     </g>
    </g>
    <g id="xtick_5">
     <g id="line2d_5">
      <path d="M 319.0325 292.551178 
L 319.0325 26.084063 
" clip-path="url(#p575d95c17d)" style="fill: none; stroke: #cccccc; stroke-width: 1.5; stroke-linecap: round"/>
     </g>
    </g>
    <g id="xtick_6">
     <g id="line2d_6">
      <path d="M 382.4425 292.551178 
L 382.4425 26.084063 
" clip-path="url(#p575d95c17d)" style="fill: none; stroke: #cccccc; stroke-width: 1.5; stroke-linecap: round"/>
     </g>
    </g>
    <g id="xtick_7">
     <g id="line2d_7">
      <path d="M 445.8525 292.551178 
L 445.8525 26.084063 
" clip-path="url(#p575d95c17d)" style="fill: none; stroke: #cccccc; stroke-width: 1.5; stroke-linecap: round"/>
     </g>
    </g>
    <g id="xtick_8">
     <g id="line2d_8">
      <path d="M 509.2625 292.551178 
L 509.2625 26.084063 
" clip-path="url(#p575d95c17d)" style="fill: none; stroke: #cccccc; stroke-width: 1.5; stroke-linecap: round"/>
     </g>
    </g>
   </g>
   <g id="matplotlib.axis_2">
    <g id="ytick_1">
     <g id="line2d_9">
      <path d="M 65.3925 292.551178 
L 509.2625 292.551178 
" clip-path="url(#p575d95c17d)" style="fill: none; stroke: #cccccc; stroke-width: 1.5; stroke-linecap: round"/>
     </g>
     <g id="text_1">
      <!-- 0.0 -->
      <g style="fill: #262626" transform="translate(29.9575 298.456373)scale(0.165 -0.165)">
       <defs>
        <path id="ArialMT-30" d="M 266 2259 
Q 266 3072 433 3567 
Q 600 4063 929 4331 
Q 1259 4600 1759 4600 
Q 2128 4600 2406 4451 
Q 2684 4303 2865 4023 
Q 3047 3744 3150 3342 
Q 3253 2941 3253 2259 
Q 3253 1453 3087 958 
Q 2922 463 2592 192 
Q 2263 -78 1759 -78 
Q 1097 -78 719 397 
Q 266 969 266 2259 
z
M 844 2259 
Q 844 1131 1108 757 
Q 1372 384 1759 384 
Q 2147 384 2411 759 
Q 2675 1134 2675 2259 
Q 2675 3391 2411 3762 
Q 2147 4134 1753 4134 
Q 1366 4134 1134 3806 
Q 844 3388 844 2259 
z
" transform="scale(0.015625)"/>
        <path id="ArialMT-2e" d="M 581 0 
L 581 641 
L 1222 641 
L 1222 0 
L 581 0 
z
" transform="scale(0.015625)"/>
       </defs>
       <use xlink:href="#ArialMT-30"/>
       <use xlink:href="#ArialMT-2e" x="55.615234"/>
       <use xlink:href="#ArialMT-30" x="83.398438"/>
      </g>
     </g>
    </g>
    <g id="ytick_2">
     <g id="line2d_10">
      <path d="M 65.3925 237.06502 
L 509.2625 237.06502 
" clip-path="url(#p575d95c17d)" style="fill: none; stroke: #cccccc; stroke-width: 1.5; stroke-linecap: round"/>
     </g>
     <g id="text_2">
      <!-- 0.1 -->
      <g style="fill: #262626" transform="translate(29.9575 242.970215)scale(0.165 -0.165)">
       <defs>
        <path id="ArialMT-31" d="M 2384 0 
L 1822 0 
L 1822 3584 
Q 1619 3391 1289 3197 
Q 959 3003 697 2906 
L 697 3450 
Q 1169 3672 1522 3987 
Q 1875 4303 2022 4600 
L 2384 4600 
L 2384 0 
z
" transform="scale(0.015625)"/>
       </defs>
       <use xlink:href="#ArialMT-30"/>
       <use xlink:href="#ArialMT-2e" x="55.615234"/>
       <use xlink:href="#ArialMT-31" x="83.398438"/>
      </g>
     </g>
    </g>
    <g id="ytick_3">
     <g id="line2d_11">
      <path d="M 65.3925 181.578862 
L 509.2625 181.578862 
" clip-path="url(#p575d95c17d)" style="fill: none; stroke: #cccccc; stroke-width: 1.5; stroke-linecap: round"/>
     </g>
     <g id="text_3">
      <!-- 0.2 -->
      <g style="fill: #262626" transform="translate(29.9575 187.484057)scale(0.165 -0.165)">
       <defs>
        <path id="ArialMT-32" d="M 3222 541 
L 3222 0 
L 194 0 
Q 188 203 259 391 
Q 375 700 629 1000 
Q 884 1300 1366 1694 
Q 2113 2306 2375 2664 
Q 2638 3022 2638 3341 
Q 2638 3675 2398 3904 
Q 2159 4134 1775 4134 
Q 1369 4134 1125 3890 
Q 881 3647 878 3216 
L 300 3275 
Q 359 3922 746 4261 
Q 1134 4600 1788 4600 
Q 2447 4600 2831 4234 
Q 3216 3869 3216 3328 
Q 3216 3053 3103 2787 
Q 2991 2522 2730 2228 
Q 2469 1934 1863 1422 
Q 1356 997 1212 845 
Q 1069 694 975 541 
L 3222 541 
z
" transform="scale(0.015625)"/>
       </defs>
       <use xlink:href="#ArialMT-30"/>
       <use xlink:href="#ArialMT-2e" x="55.615234"/>
       <use xlink:href="#ArialMT-32" x="83.398438"/>
      </g>
     </g>
    </g>
    <g id="ytick_4">
     <g id="line2d_12">
      <path d="M 65.3925 126.092704 
L 509.2625 126.092704 
" clip-path="url(#p575d95c17d)" style="fill: none; stroke: #cccccc; stroke-width: 1.5; stroke-linecap: round"/>
     </g>
     <g id="text_4">
      <!-- 0.3 -->
      <g style="fill: #262626" transform="translate(29.9575 131.997899)scale(0.165 -0.165)">
       <defs>
        <path id="ArialMT-33" d="M 269 1209 
L 831 1284 
Q 928 806 1161 595 
Q 1394 384 1728 384 
Q 2125 384 2398 659 
Q 2672 934 2672 1341 
Q 2672 1728 2419 1979 
Q 2166 2231 1775 2231 
Q 1616 2231 1378 2169 
L 1441 2663 
Q 1497 2656 1531 2656 
Q 1891 2656 2178 2843 
Q 2466 3031 2466 3422 
Q 2466 3731 2256 3934 
Q 2047 4138 1716 4138 
Q 1388 4138 1169 3931 
Q 950 3725 888 3313 
L 325 3413 
Q 428 3978 793 4289 
Q 1159 4600 1703 4600 
Q 2078 4600 2393 4439 
Q 2709 4278 2876 4000 
Q 3044 3722 3044 3409 
Q 3044 3113 2884 2869 
Q 2725 2625 2413 2481 
Q 2819 2388 3044 2092 
Q 3269 1797 3269 1353 
Q 3269 753 2831 336 
Q 2394 -81 1725 -81 
Q 1122 -81 723 278 
Q 325 638 269 1209 
z
" transform="scale(0.015625)"/>
       </defs>
       <use xlink:href="#ArialMT-30"/>
       <use xlink:href="#ArialMT-2e" x="55.615234"/>
       <use xlink:href="#ArialMT-33" x="83.398438"/>
      </g>
     </g>
    </g>
    <g id="ytick_5">
     <g id="line2d_13">
      <path d="M 65.3925 70.606546 
L 509.2625 70.606546 
" clip-path="url(#p575d95c17d)" style="fill: none; stroke: #cccccc; stroke-width: 1.5; stroke-linecap: round"/>
     </g>
     <g id="text_5">
      <!-- 0.4 -->
      <g style="fill: #262626" transform="translate(29.9575 76.511741)scale(0.165 -0.165)">
       <defs>
        <path id="ArialMT-34" d="M 2069 0 
L 2069 1097 
L 81 1097 
L 81 1613 
L 2172 4581 
L 2631 4581 
L 2631 1613 
L 3250 1613 
L 3250 1097 
L 2631 1097 
L 2631 0 
L 2069 0 
z
M 2069 1613 
L 2069 3678 
L 634 1613 
L 2069 1613 
z
" transform="scale(0.015625)"/>
       </defs>
       <use xlink:href="#ArialMT-30"/>
       <use xlink:href="#ArialMT-2e" x="55.615234"/>
       <use xlink:href="#ArialMT-34" x="83.398438"/>
      </g>
     </g>
    </g>
    <g id="text_6">
     <!-- Frequency Density -->
     <g style="fill: #262626" transform="translate(22.169062 234.345277)rotate(-90)scale(0.18 -0.18)">
      <defs>
       <path id="ArialMT-46" d="M 525 0 
L 525 4581 
L 3616 4581 
L 3616 4041 
L 1131 4041 
L 1131 2622 
L 3281 2622 
L 3281 2081 
L 1131 2081 
L 1131 0 
L 525 0 
z
" transform="scale(0.015625)"/>
       <path id="ArialMT-72" d="M 416 0 
L 416 3319 
L 922 3319 
L 922 2816 
Q 1116 3169 1280 3281 
Q 1444 3394 1641 3394 
Q 1925 3394 2219 3213 
L 2025 2691 
Q 1819 2813 1613 2813 
Q 1428 2813 1281 2702 
Q 1134 2591 1072 2394 
Q 978 2094 978 1738 
L 978 0 
L 416 0 
z
" transform="scale(0.015625)"/>
       <path id="ArialMT-65" d="M 2694 1069 
L 3275 997 
Q 3138 488 2766 206 
Q 2394 -75 1816 -75 
Q 1088 -75 661 373 
Q 234 822 234 1631 
Q 234 2469 665 2931 
Q 1097 3394 1784 3394 
Q 2450 3394 2872 2941 
Q 3294 2488 3294 1666 
Q 3294 1616 3291 1516 
L 816 1516 
Q 847 969 1125 678 
Q 1403 388 1819 388 
Q 2128 388 2347 550 
Q 2566 713 2694 1069 
z
M 847 1978 
L 2700 1978 
Q 2663 2397 2488 2606 
Q 2219 2931 1791 2931 
Q 1403 2931 1139 2672 
Q 875 2413 847 1978 
z
" transform="scale(0.015625)"/>
       <path id="ArialMT-71" d="M 2538 -1272 
L 2538 353 
Q 2406 169 2170 47 
Q 1934 -75 1669 -75 
Q 1078 -75 651 397 
Q 225 869 225 1691 
Q 225 2191 398 2587 
Q 572 2984 901 3189 
Q 1231 3394 1625 3394 
Q 2241 3394 2594 2875 
L 2594 3319 
L 3100 3319 
L 3100 -1272 
L 2538 -1272 
z
M 803 1669 
Q 803 1028 1072 708 
Q 1341 388 1716 388 
Q 2075 388 2334 692 
Q 2594 997 2594 1619 
Q 2594 2281 2320 2615 
Q 2047 2950 1678 2950 
Q 1313 2950 1058 2639 
Q 803 2328 803 1669 
z
" transform="scale(0.015625)"/>
       <path id="ArialMT-75" d="M 2597 0 
L 2597 488 
Q 2209 -75 1544 -75 
Q 1250 -75 995 37 
Q 741 150 617 320 
Q 494 491 444 738 
Q 409 903 409 1263 
L 409 3319 
L 972 3319 
L 972 1478 
Q 972 1038 1006 884 
Q 1059 663 1231 536 
Q 1403 409 1656 409 
Q 1909 409 2131 539 
Q 2353 669 2445 892 
Q 2538 1116 2538 1541 
L 2538 3319 
L 3100 3319 
L 3100 0 
L 2597 0 
z
" transform="scale(0.015625)"/>
       <path id="ArialMT-6e" d="M 422 0 
L 422 3319 
L 928 3319 
L 928 2847 
Q 1294 3394 1984 3394 
Q 2284 3394 2536 3286 
Q 2788 3178 2913 3003 
Q 3038 2828 3088 2588 
Q 3119 2431 3119 2041 
L 3119 0 
L 2556 0 
L 2556 2019 
Q 2556 2363 2490 2533 
Q 2425 2703 2258 2804 
Q 2091 2906 1866 2906 
Q 1506 2906 1245 2678 
Q 984 2450 984 1813 
L 984 0 
L 422 0 
z
" transform="scale(0.015625)"/>
       <path id="ArialMT-63" d="M 2588 1216 
L 3141 1144 
Q 3050 572 2676 248 
Q 2303 -75 1759 -75 
Q 1078 -75 664 370 
Q 250 816 250 1647 
Q 250 2184 428 2587 
Q 606 2991 970 3192 
Q 1334 3394 1763 3394 
Q 2303 3394 2647 3120 
Q 2991 2847 3088 2344 
L 2541 2259 
Q 2463 2594 2264 2762 
Q 2066 2931 1784 2931 
Q 1359 2931 1093 2626 
Q 828 2322 828 1663 
Q 828 994 1084 691 
Q 1341 388 1753 388 
Q 2084 388 2306 591 
Q 2528 794 2588 1216 
z
" transform="scale(0.015625)"/>
       <path id="ArialMT-79" d="M 397 -1278 
L 334 -750 
Q 519 -800 656 -800 
Q 844 -800 956 -737 
Q 1069 -675 1141 -563 
Q 1194 -478 1313 -144 
Q 1328 -97 1363 -6 
L 103 3319 
L 709 3319 
L 1400 1397 
Q 1534 1031 1641 628 
Q 1738 1016 1872 1384 
L 2581 3319 
L 3144 3319 
L 1881 -56 
Q 1678 -603 1566 -809 
Q 1416 -1088 1222 -1217 
Q 1028 -1347 759 -1347 
Q 597 -1347 397 -1278 
z
" transform="scale(0.015625)"/>
       <path id="ArialMT-20" transform="scale(0.015625)"/>
       <path id="ArialMT-44" d="M 494 0 
L 494 4581 
L 2072 4581 
Q 2606 4581 2888 4516 
Q 3281 4425 3559 4188 
Q 3922 3881 4101 3404 
Q 4281 2928 4281 2316 
Q 4281 1794 4159 1391 
Q 4038 988 3847 723 
Q 3656 459 3429 307 
Q 3203 156 2883 78 
Q 2563 0 2147 0 
L 494 0 
z
M 1100 541 
L 2078 541 
Q 2531 541 2789 625 
Q 3047 709 3200 863 
Q 3416 1078 3536 1442 
Q 3656 1806 3656 2325 
Q 3656 3044 3420 3430 
Q 3184 3816 2847 3947 
Q 2603 4041 2063 4041 
L 1100 4041 
L 1100 541 
z
" transform="scale(0.015625)"/>
       <path id="ArialMT-73" d="M 197 991 
L 753 1078 
Q 800 744 1014 566 
Q 1228 388 1613 388 
Q 2000 388 2187 545 
Q 2375 703 2375 916 
Q 2375 1106 2209 1216 
Q 2094 1291 1634 1406 
Q 1016 1563 777 1677 
Q 538 1791 414 1992 
Q 291 2194 291 2438 
Q 291 2659 392 2848 
Q 494 3038 669 3163 
Q 800 3259 1026 3326 
Q 1253 3394 1513 3394 
Q 1903 3394 2198 3281 
Q 2494 3169 2634 2976 
Q 2775 2784 2828 2463 
L 2278 2388 
Q 2241 2644 2061 2787 
Q 1881 2931 1553 2931 
Q 1166 2931 1000 2803 
Q 834 2675 834 2503 
Q 834 2394 903 2306 
Q 972 2216 1119 2156 
Q 1203 2125 1616 2013 
Q 2213 1853 2448 1751 
Q 2684 1650 2818 1456 
Q 2953 1263 2953 975 
Q 2953 694 2789 445 
Q 2625 197 2315 61 
Q 2006 -75 1616 -75 
Q 969 -75 630 194 
Q 291 463 197 991 
z
" transform="scale(0.015625)"/>
       <path id="ArialMT-69" d="M 425 3934 
L 425 4581 
L 988 4581 
L 988 3934 
L 425 3934 
z
M 425 0 
L 425 3319 
L 988 3319 
L 988 0 
L 425 0 
z
" transform="scale(0.015625)"/>
       <path id="ArialMT-74" d="M 1650 503 
L 1731 6 
Q 1494 -44 1306 -44 
Q 1000 -44 831 53 
Q 663 150 594 308 
Q 525 466 525 972 
L 525 2881 
L 113 2881 
L 113 3319 
L 525 3319 
L 525 4141 
L 1084 4478 
L 1084 3319 
L 1650 3319 
L 1650 2881 
L 1084 2881 
L 1084 941 
Q 1084 700 1114 631 
Q 1144 563 1211 522 
Q 1278 481 1403 481 
Q 1497 481 1650 503 
z
" transform="scale(0.015625)"/>
      </defs>
      <use xlink:href="#ArialMT-46"/>
      <use xlink:href="#ArialMT-72" x="61.083984"/>
      <use xlink:href="#ArialMT-65" x="94.384766"/>
      <use xlink:href="#ArialMT-71" x="150"/>
      <use xlink:href="#ArialMT-75" x="205.615234"/>
      <use xlink:href="#ArialMT-65" x="261.230469"/>
      <use xlink:href="#ArialMT-6e" x="316.845703"/>
      <use xlink:href="#ArialMT-63" x="372.460938"/>
      <use xlink:href="#ArialMT-79" x="422.460938"/>
      <use xlink:href="#ArialMT-20" x="472.460938"/>
      <use xlink:href="#ArialMT-44" x="500.244141"/>
      <use xlink:href="#ArialMT-65" x="572.460938"/>
      <use xlink:href="#ArialMT-6e" x="628.076172"/>
      <use xlink:href="#ArialMT-73" x="683.691406"/>
      <use xlink:href="#ArialMT-69" x="733.691406"/>
      <use xlink:href="#ArialMT-74" x="755.908203"/>
      <use xlink:href="#ArialMT-79" x="783.691406"/>
     </g>
    </g>
   </g>
   <g id="line2d_14">
    <path d="M -1 289.899803 
L 13.552377 289.546483 
L 29.84647 288.92208 
L 46.140563 287.936184 
L 54.287609 287.273014 
L 62.434655 286.479532 
L 70.581702 285.560584 
L 78.728748 284.519232 
L 86.875795 283.334666 
L 95.022841 281.948466 
L 103.169887 280.258588 
L 111.316934 278.129839 
L 119.46398 275.42447 
L 127.611026 272.034614 
L 135.758073 267.89585 
L 143.905119 262.980907 
L 152.052166 257.296817 
L 160.199212 250.910609 
L 168.346258 243.995503 
L 176.493305 236.858385 
L 184.640351 229.914649 
L 192.787398 223.586212 
L 200.934444 218.09431 
L 217.228537 208.252541 
L 225.375583 202.360676 
L 233.522629 194.951283 
L 241.669676 185.773004 
L 249.816722 174.690698 
L 257.963769 161.459758 
L 266.110815 145.707399 
L 274.257861 127.200942 
L 282.404908 106.34613 
L 290.551954 84.660377 
L 298.699 64.865462 
L 306.846047 50.306723 
L 314.993093 43.758435 
L 323.14014 46.319285 
L 331.287186 57.26499 
L 339.434232 74.874239 
L 347.581279 97.359802 
L 355.728325 123.200922 
L 372.022418 179.052013 
L 380.169464 205.852163 
L 388.316511 229.866496 
L 396.463557 249.941201 
L 404.610603 265.425527 
L 412.75765 276.30889 
L 420.904696 283.191497 
L 429.051742 287.055836 
L 437.198789 288.971641 
L 445.345835 289.859026 
L 469.786974 291.241435 
L 486.081067 292.045255 
L 502.37516 292.441942 
L 526.816299 292.54838 
L 534.963345 292.550634 
L 534.963345 292.550634 
" clip-path="url(#p575d95c17d)" style="fill: none; stroke: #f7c6a6; stroke-width: 1.5; stroke-linecap: round"/>
   </g>
   <g id="line2d_15">
    <path d="M -1 289.414091 
L 20.429143 288.814348 
L 30.608515 288.338462 
L 40.787887 287.675343 
L 50.967259 286.863439 
L 61.146632 285.927945 
L 71.326004 284.81597 
L 81.505376 283.400777 
L 91.684748 281.550106 
L 101.86412 279.19853 
L 112.043493 276.298075 
L 122.222865 272.669166 
L 132.402237 267.985419 
L 142.581609 261.963499 
L 152.760981 254.557179 
L 162.940353 246.010218 
L 183.299098 227.708337 
L 193.47847 219.396424 
L 203.657842 212.151195 
L 213.837214 205.277498 
L 224.016587 197.387589 
L 234.195959 187.399744 
L 244.375331 174.98329 
L 254.554703 159.900062 
L 264.734075 141.412467 
L 274.913448 118.90313 
L 285.09282 93.527984 
L 295.272192 69.467642 
L 305.451564 53.031413 
L 315.630936 49.395474 
L 325.810309 59.582661 
L 335.989681 80.772503 
L 346.169053 109.000938 
L 356.348425 140.832146 
L 366.527797 173.418122 
L 376.70717 204.394714 
L 386.886542 231.848781 
L 397.065914 254.198241 
L 407.245286 270.47978 
L 417.424658 280.847814 
L 427.60403 286.498121 
L 437.783403 289.079078 
L 447.962775 290.114887 
L 478.500891 291.641786 
L 488.680264 292.065029 
L 498.859636 292.339779 
L 519.21838 292.531504 
L 539.577125 292.550575 
L 539.577125 292.550575 
" clip-path="url(#p575d95c17d)" style="fill: none; stroke: #f69c73; stroke-width: 1.5; stroke-linecap: round"/>
   </g>
   <g id="line2d_16">
    <path d="M -1 289.731365 
L 15.116561 289.017551 
L 41.679889 287.568251 
L 54.961553 286.590925 
L 68.243217 285.274861 
L 81.524881 283.449702 
L 94.806545 280.877173 
L 108.088209 277.331945 
L 121.369873 272.563085 
L 134.651537 266.101569 
L 147.933201 257.523479 
L 161.214865 246.785464 
L 174.496529 234.546456 
L 187.778193 222.517635 
L 201.059857 212.116709 
L 214.341521 202.683624 
L 227.623185 191.665886 
L 240.904849 176.590429 
L 254.186513 156.418356 
L 267.468177 130.504575 
L 280.749841 99.342022 
L 294.031505 69.389163 
L 307.313169 53.07164 
L 320.594833 58.908504 
L 333.876497 83.850733 
L 347.158161 119.252626 
L 360.439825 158.679945 
L 373.721489 197.703698 
L 387.003153 232.639984 
L 400.284817 259.996939 
L 413.56648 277.509678 
L 426.848144 286.172761 
L 440.129808 289.331042 
L 453.411472 290.331875 
L 479.9748 291.696527 
L 493.256464 292.205554 
L 506.538128 292.453674 
L 533.101456 292.548874 
L 546.38312 292.550998 
L 546.38312 292.550998 
" clip-path="url(#p575d95c17d)" style="fill: none; stroke: #f3714d; stroke-width: 1.5; stroke-linecap: round"/>
   </g>
   <g id="line2d_17">
    <path d="M -1 289.48181 
L 23.450806 288.503616 
L 34.320391 287.94356 
L 45.189976 287.211614 
L 56.059562 286.266354 
L 66.929147 285.098444 
L 77.798732 283.666614 
L 88.668317 281.893937 
L 99.537902 279.674418 
L 110.407487 276.80629 
L 121.277072 273.001727 
L 132.146657 267.967073 
L 143.016242 261.389005 
L 153.885827 253.020336 
L 164.755412 243.048115 
L 175.624998 232.360223 
L 186.494583 222.265616 
L 197.364168 213.685671 
L 208.233753 206.291645 
L 219.103338 198.441793 
L 229.972923 188.249733 
L 240.842508 174.704313 
L 251.712093 157.629486 
L 262.581678 136.869293 
L 273.451263 112.340124 
L 284.320848 85.926657 
L 295.190434 63.387234 
L 306.060019 52.589815 
L 316.929604 58.021676 
L 327.799189 77.328548 
L 338.668774 104.166796 
L 349.538359 133.501328 
L 371.277529 192.819479 
L 382.147114 221.000363 
L 393.016699 245.866654 
L 403.886284 265.23526 
L 414.75587 278.12879 
L 425.625455 285.34645 
L 436.49504 288.712958 
L 447.364625 290.063633 
L 458.23421 290.679815 
L 490.842965 292.114804 
L 501.71255 292.378444 
L 523.45172 292.539192 
L 545.190891 292.550924 
L 545.190891 292.550924 
" clip-path="url(#p575d95c17d)" style="fill: none; stroke: #e83f3f; stroke-width: 1.5; stroke-linecap: round"/>
   </g>
   <g id="line2d_18">
    <path d="M -1 289.458946 
L 22.564328 288.626021 
L 34.111703 288.097237 
L 45.659078 287.34695 
L 57.206454 286.284485 
L 68.753829 284.902134 
L 80.301204 283.203445 
L 91.84858 281.058959 
L 103.395955 278.225928 
L 114.94333 274.483867 
L 126.490706 269.615253 
L 138.038081 263.334857 
L 149.585456 255.40147 
L 161.132832 245.851606 
L 184.227582 224.813358 
L 195.774958 215.578592 
L 207.322333 207.504327 
L 218.869708 198.948596 
L 230.417084 187.573088 
L 241.964459 171.907567 
L 253.511834 151.671654 
L 265.05921 126.856548 
L 276.606585 98.31312 
L 288.15396 70.801364 
L 299.701336 53.828623 
L 311.248711 55.512734 
L 322.796086 74.697463 
L 334.343462 102.338847 
L 368.985588 188.50052 
L 380.532963 217.449858 
L 392.080338 243.704337 
L 403.627714 264.410026 
L 415.175089 278.1737 
L 426.722464 285.666558 
L 438.26984 288.890239 
L 449.817215 290.043476 
L 484.459341 291.857709 
L 496.006716 292.264005 
L 507.554092 292.462271 
L 530.648842 292.547936 
L 542.196218 292.550812 
L 542.196218 292.550812 
" clip-path="url(#p575d95c17d)" style="fill: none; stroke: #ca1a50; stroke-width: 1.5; stroke-linecap: round"/>
   </g>
   <g id="line2d_19">
    <path d="M -1 289.580408 
L 13.365896 288.990594 
L 31.025263 288.092736 
L 48.68463 286.96475 
L 66.343997 285.342542 
L 84.003363 282.85994 
L 101.66273 279.025012 
L 119.322097 273.207797 
L 136.981464 264.417001 
L 154.640831 251.661466 
L 189.959564 219.566965 
L 207.618931 206.052467 
L 225.278298 191.896187 
L 242.937664 169.984299 
L 260.597031 136.01388 
L 278.256398 91.737399 
L 295.915765 56.983799 
L 313.575131 60.554447 
L 331.234498 97.654734 
L 348.893865 140.751328 
L 384.212599 225.531162 
L 401.871965 260.569801 
L 419.531332 280.916386 
L 437.190699 288.457318 
L 454.850066 290.321594 
L 490.168799 292.015705 
L 507.828166 292.429574 
L 543.146899 292.550437 
L 543.146899 292.550437 
" clip-path="url(#p575d95c17d)" style="fill: none; stroke: #a11a5b; stroke-width: 1.5; stroke-linecap: round"/>
   </g>
   <g id="line2d_20">
    <path d="M -1 289.480859 
L 7.90553 289.207711 
L 25.228596 288.363679 
L 42.551663 287.316579 
L 59.874729 286.099815 
L 77.197796 284.180166 
L 94.520862 280.952792 
L 111.843928 276.207825 
L 129.166995 269.057385 
L 146.490061 258.047515 
L 163.813128 243.146529 
L 181.136194 226.605126 
L 198.45926 211.830181 
L 215.782327 199.272734 
L 233.105393 183.607527 
L 250.428459 158.301754 
L 267.751526 120.495385 
L 285.074592 76.539709 
L 302.397659 52.484915 
L 319.720725 69.932049 
L 337.043791 111.20761 
L 371.689924 195.317773 
L 389.01299 236.494739 
L 406.336057 267.764516 
L 423.659123 283.848459 
L 440.98219 289.098894 
L 458.305256 290.488208 
L 475.628322 291.41526 
L 492.951389 292.145236 
L 510.274455 292.46824 
L 544.920588 292.550729 
L 544.920588 292.550729 
" clip-path="url(#p575d95c17d)" style="fill: none; stroke: #751f58; stroke-width: 1.5; stroke-linecap: round"/>
   </g>
   <g id="line2d_21">
    <path d="M -1 289.678907 
L -0.217368 289.656398 
L 19.900791 288.789314 
L 40.018949 287.510468 
L 60.137108 285.631172 
L 80.255267 283.041773 
L 100.373425 279.295828 
L 120.491584 273.134028 
L 140.609742 262.903095 
L 160.727901 247.157315 
L 180.84606 227.783858 
L 200.964218 210.619206 
L 221.082377 194.671612 
L 241.200536 171.233587 
L 261.318694 134.466028 
L 281.436853 85.124181 
L 301.555012 53.475247 
L 321.67317 74.53916 
L 361.909488 171.447164 
L 382.027646 220.709619 
L 402.145805 261.409952 
L 422.263964 282.86609 
L 442.382122 289.357015 
L 462.500281 290.781573 
L 482.618439 291.74926 
L 502.736598 292.367735 
L 522.854757 292.533325 
L 542.972915 292.55053 
L 542.972915 292.55053 
" clip-path="url(#p575d95c17d)" style="fill: none; stroke: #4c1d4b; stroke-width: 1.5; stroke-linecap: round"/>
   </g>
   <g id="line2d_22">
    <path d="M -1 289.646959 
L 4.857984 289.498165 
L 21.752471 288.871827 
L 38.646958 287.920168 
L 55.541444 286.560772 
L 72.435931 284.658193 
L 89.330418 281.819914 
L 106.224904 277.566211 
L 123.119391 271.313058 
L 140.013878 262.133412 
L 156.908364 249.386483 
L 173.802851 234.118754 
L 190.697338 219.357709 
L 207.591824 206.977144 
L 224.486311 193.403098 
L 241.380798 172.554817 
L 258.275284 141.668091 
L 275.169771 101.398667 
L 292.064258 63.998143 
L 308.958745 55.794009 
L 325.853231 83.455646 
L 359.642205 164.383822 
L 376.536691 206.504594 
L 393.431178 245.371028 
L 410.325665 272.368073 
L 427.220151 285.299443 
L 444.114638 289.40944 
L 461.009125 290.655569 
L 477.903611 291.576916 
L 494.798098 292.233152 
L 511.692585 292.490762 
L 545.481558 292.550842 
L 545.481558 292.550842 
" clip-path="url(#p575d95c17d)" style="fill: none; stroke: #251433; stroke-width: 1.5; stroke-linecap: round"/>
   </g>
   <g id="patch_3">
    <path d="M 65.3925 292.551178 
L 65.3925 26.084063 
" style="fill: none; stroke: #cccccc; stroke-width: 1.875; stroke-linejoin: miter; stroke-linecap: square"/>
   </g>
   <g id="patch_4">
    <path d="M 65.3925 292.551178 
L 509.2625 292.551178 
" style="fill: none; stroke: #cccccc; stroke-width: 1.875; stroke-linejoin: miter; stroke-linecap: square"/>
   </g>
   <g id="text_7">
    <!-- Lowest 10% Income -->
    <g style="fill: #262626" transform="translate(206.288125 20.084063)scale(0.18 -0.18)">
     <defs>
      <path id="ArialMT-4c" d="M 469 0 
L 469 4581 
L 1075 4581 
L 1075 541 
L 3331 541 
L 3331 0 
L 469 0 
z
" transform="scale(0.015625)"/>
      <path id="ArialMT-6f" d="M 213 1659 
Q 213 2581 725 3025 
Q 1153 3394 1769 3394 
Q 2453 3394 2887 2945 
Q 3322 2497 3322 1706 
Q 3322 1066 3130 698 
Q 2938 331 2570 128 
Q 2203 -75 1769 -75 
Q 1072 -75 642 372 
Q 213 819 213 1659 
z
M 791 1659 
Q 791 1022 1069 705 
Q 1347 388 1769 388 
Q 2188 388 2466 706 
Q 2744 1025 2744 1678 
Q 2744 2294 2464 2611 
Q 2184 2928 1769 2928 
Q 1347 2928 1069 2612 
Q 791 2297 791 1659 
z
" transform="scale(0.015625)"/>
      <path id="ArialMT-77" d="M 1034 0 
L 19 3319 
L 600 3319 
L 1128 1403 
L 1325 691 
Q 1338 744 1497 1375 
L 2025 3319 
L 2603 3319 
L 3100 1394 
L 3266 759 
L 3456 1400 
L 4025 3319 
L 4572 3319 
L 3534 0 
L 2950 0 
L 2422 1988 
L 2294 2553 
L 1622 0 
L 1034 0 
z
" transform="scale(0.015625)"/>
      <path id="ArialMT-25" d="M 372 3481 
Q 372 3972 619 4315 
Q 866 4659 1334 4659 
Q 1766 4659 2048 4351 
Q 2331 4044 2331 3447 
Q 2331 2866 2045 2552 
Q 1759 2238 1341 2238 
Q 925 2238 648 2547 
Q 372 2856 372 3481 
z
M 1350 4272 
Q 1141 4272 1002 4090 
Q 863 3909 863 3425 
Q 863 2984 1003 2804 
Q 1144 2625 1350 2625 
Q 1563 2625 1702 2806 
Q 1841 2988 1841 3469 
Q 1841 3913 1700 4092 
Q 1559 4272 1350 4272 
z
M 1353 -169 
L 3859 4659 
L 4316 4659 
L 1819 -169 
L 1353 -169 
z
M 3334 1075 
Q 3334 1569 3581 1911 
Q 3828 2253 4300 2253 
Q 4731 2253 5014 1945 
Q 5297 1638 5297 1041 
Q 5297 459 5011 145 
Q 4725 -169 4303 -169 
Q 3888 -169 3611 142 
Q 3334 453 3334 1075 
z
M 4316 1866 
Q 4103 1866 3964 1684 
Q 3825 1503 3825 1019 
Q 3825 581 3965 400 
Q 4106 219 4313 219 
Q 4528 219 4667 400 
Q 4806 581 4806 1063 
Q 4806 1506 4665 1686 
Q 4525 1866 4316 1866 
z
" transform="scale(0.015625)"/>
      <path id="ArialMT-49" d="M 597 0 
L 597 4581 
L 1203 4581 
L 1203 0 
L 597 0 
z
" transform="scale(0.015625)"/>
      <path id="ArialMT-6d" d="M 422 0 
L 422 3319 
L 925 3319 
L 925 2853 
Q 1081 3097 1340 3245 
Q 1600 3394 1931 3394 
Q 2300 3394 2536 3241 
Q 2772 3088 2869 2813 
Q 3263 3394 3894 3394 
Q 4388 3394 4653 3120 
Q 4919 2847 4919 2278 
L 4919 0 
L 4359 0 
L 4359 2091 
Q 4359 2428 4304 2576 
Q 4250 2725 4106 2815 
Q 3963 2906 3769 2906 
Q 3419 2906 3187 2673 
Q 2956 2441 2956 1928 
L 2956 0 
L 2394 0 
L 2394 2156 
Q 2394 2531 2256 2718 
Q 2119 2906 1806 2906 
Q 1569 2906 1367 2781 
Q 1166 2656 1075 2415 
Q 984 2175 984 1722 
L 984 0 
L 422 0 
z
" transform="scale(0.015625)"/>
     </defs>
     <use xlink:href="#ArialMT-4c"/>
     <use xlink:href="#ArialMT-6f" x="55.615234"/>
     <use xlink:href="#ArialMT-77" x="111.230469"/>
     <use xlink:href="#ArialMT-65" x="183.447266"/>
     <use xlink:href="#ArialMT-73" x="239.0625"/>
     <use xlink:href="#ArialMT-74" x="289.0625"/>
     <use xlink:href="#ArialMT-20" x="316.845703"/>
     <use xlink:href="#ArialMT-31" x="344.628906"/>
     <use xlink:href="#ArialMT-30" x="400.244141"/>
     <use xlink:href="#ArialMT-25" x="455.859375"/>
     <use xlink:href="#ArialMT-20" x="544.775391"/>
     <use xlink:href="#ArialMT-49" x="572.558594"/>
     <use xlink:href="#ArialMT-6e" x="600.341797"/>
     <use xlink:href="#ArialMT-63" x="655.957031"/>
     <use xlink:href="#ArialMT-6f" x="705.957031"/>
     <use xlink:href="#ArialMT-6d" x="761.572266"/>
     <use xlink:href="#ArialMT-65" x="844.873047"/>
    </g>
   </g>
  </g>
  <g id="axes_2">
   <g id="patch_5">
    <path d="M 65.3925 604.878438 
L 509.2625 604.878438 
L 509.2625 338.411322 
L 65.3925 338.411322 
z
" style="fill: #ffffff"/>
   </g>
   <g id="matplotlib.axis_3">
    <g id="xtick_9">
     <g id="line2d_23">
      <path d="M 65.3925 604.878438 
L 65.3925 338.411322 
" clip-path="url(#pd8ecabd624)" style="fill: none; stroke: #cccccc; stroke-width: 1.5; stroke-linecap: round"/>
     </g>
     <g id="text_8">
      <!-- −4 -->
      <g style="fill: #262626" transform="translate(55.131094 630.2625)scale(0.18 -0.18)">
       <defs>
        <path id="ArialMT-2212" d="M 3381 1997 
L 356 1997 
L 356 2522 
L 3381 2522 
L 3381 1997 
z
" transform="scale(0.015625)"/>
       </defs>
       <use xlink:href="#ArialMT-2212"/>
       <use xlink:href="#ArialMT-34" x="58.398438"/>
      </g>
     </g>
    </g>
    <g id="xtick_10">
     <g id="line2d_24">
      <path d="M 128.8025 604.878438 
L 128.8025 338.411322 
" clip-path="url(#pd8ecabd624)" style="fill: none; stroke: #cccccc; stroke-width: 1.5; stroke-linecap: round"/>
     </g>
     <g id="text_9">
      <!-- −3 -->
      <g style="fill: #262626" transform="translate(118.541094 630.2625)scale(0.18 -0.18)">
       <use xlink:href="#ArialMT-2212"/>
       <use xlink:href="#ArialMT-33" x="58.398438"/>
      </g>
     </g>
    </g>
    <g id="xtick_11">
     <g id="line2d_25">
      <path d="M 192.2125 604.878438 
L 192.2125 338.411322 
" clip-path="url(#pd8ecabd624)" style="fill: none; stroke: #cccccc; stroke-width: 1.5; stroke-linecap: round"/>
     </g>
     <g id="text_10">
      <!-- −2 -->
      <g style="fill: #262626" transform="translate(181.951094 630.2625)scale(0.18 -0.18)">
       <use xlink:href="#ArialMT-2212"/>
       <use xlink:href="#ArialMT-32" x="58.398438"/>
      </g>
     </g>
    </g>
    <g id="xtick_12">
     <g id="line2d_26">
      <path d="M 255.6225 604.878438 
L 255.6225 338.411322 
" clip-path="url(#pd8ecabd624)" style="fill: none; stroke: #cccccc; stroke-width: 1.5; stroke-linecap: round"/>
     </g>
     <g id="text_11">
      <!-- −1 -->
      <g style="fill: #262626" transform="translate(245.361094 630.2625)scale(0.18 -0.18)">
       <use xlink:href="#ArialMT-2212"/>
       <use xlink:href="#ArialMT-31" x="58.398438"/>
      </g>
     </g>
    </g>
    <g id="xtick_13">
     <g id="line2d_27">
      <path d="M 319.0325 604.878438 
L 319.0325 338.411322 
" clip-path="url(#pd8ecabd624)" style="fill: none; stroke: #cccccc; stroke-width: 1.5; stroke-linecap: round"/>
     </g>
     <g id="text_12">
      <!-- 0 -->
      <g style="fill: #262626" transform="translate(314.027656 630.2625)scale(0.18 -0.18)">
       <use xlink:href="#ArialMT-30"/>
      </g>
     </g>
    </g>
    <g id="xtick_14">
     <g id="line2d_28">
      <path d="M 382.4425 604.878438 
L 382.4425 338.411322 
" clip-path="url(#pd8ecabd624)" style="fill: none; stroke: #cccccc; stroke-width: 1.5; stroke-linecap: round"/>
     </g>
     <g id="text_13">
      <!-- 1 -->
      <g style="fill: #262626" transform="translate(377.437656 630.2625)scale(0.18 -0.18)">
       <use xlink:href="#ArialMT-31"/>
      </g>
     </g>
    </g>
    <g id="xtick_15">
     <g id="line2d_29">
      <path d="M 445.8525 604.878438 
L 445.8525 338.411322 
" clip-path="url(#pd8ecabd624)" style="fill: none; stroke: #cccccc; stroke-width: 1.5; stroke-linecap: round"/>
     </g>
     <g id="text_14">
      <!-- 2 -->
      <g style="fill: #262626" transform="translate(440.847656 630.2625)scale(0.18 -0.18)">
       <use xlink:href="#ArialMT-32"/>
      </g>
     </g>
    </g>
    <g id="xtick_16">
     <g id="line2d_30">
      <path d="M 509.2625 604.878438 
L 509.2625 338.411322 
" clip-path="url(#pd8ecabd624)" style="fill: none; stroke: #cccccc; stroke-width: 1.5; stroke-linecap: round"/>
     </g>
     <g id="text_15">
      <!-- 3 -->
      <g style="fill: #262626" transform="translate(504.257656 630.2625)scale(0.18 -0.18)">
       <use xlink:href="#ArialMT-33"/>
      </g>
     </g>
    </g>
    <g id="text_16">
     <!-- Potential INEXUS in dollar -->
     <g style="fill: #262626" transform="translate(182.279219 650.724062)scale(0.18 -0.18)">
      <defs>
       <path id="ArialMT-50" d="M 494 0 
L 494 4581 
L 2222 4581 
Q 2678 4581 2919 4538 
Q 3256 4481 3484 4323 
Q 3713 4166 3852 3881 
Q 3991 3597 3991 3256 
Q 3991 2672 3619 2267 
Q 3247 1863 2275 1863 
L 1100 1863 
L 1100 0 
L 494 0 
z
M 1100 2403 
L 2284 2403 
Q 2872 2403 3119 2622 
Q 3366 2841 3366 3238 
Q 3366 3525 3220 3729 
Q 3075 3934 2838 4000 
Q 2684 4041 2272 4041 
L 1100 4041 
L 1100 2403 
z
" transform="scale(0.015625)"/>
       <path id="ArialMT-61" d="M 2588 409 
Q 2275 144 1986 34 
Q 1697 -75 1366 -75 
Q 819 -75 525 192 
Q 231 459 231 875 
Q 231 1119 342 1320 
Q 453 1522 633 1644 
Q 813 1766 1038 1828 
Q 1203 1872 1538 1913 
Q 2219 1994 2541 2106 
Q 2544 2222 2544 2253 
Q 2544 2597 2384 2738 
Q 2169 2928 1744 2928 
Q 1347 2928 1158 2789 
Q 969 2650 878 2297 
L 328 2372 
Q 403 2725 575 2942 
Q 747 3159 1072 3276 
Q 1397 3394 1825 3394 
Q 2250 3394 2515 3294 
Q 2781 3194 2906 3042 
Q 3031 2891 3081 2659 
Q 3109 2516 3109 2141 
L 3109 1391 
Q 3109 606 3145 398 
Q 3181 191 3288 0 
L 2700 0 
Q 2613 175 2588 409 
z
M 2541 1666 
Q 2234 1541 1622 1453 
Q 1275 1403 1131 1340 
Q 988 1278 909 1158 
Q 831 1038 831 891 
Q 831 666 1001 516 
Q 1172 366 1500 366 
Q 1825 366 2078 508 
Q 2331 650 2450 897 
Q 2541 1088 2541 1459 
L 2541 1666 
z
" transform="scale(0.015625)"/>
       <path id="ArialMT-6c" d="M 409 0 
L 409 4581 
L 972 4581 
L 972 0 
L 409 0 
z
" transform="scale(0.015625)"/>
       <path id="ArialMT-4e" d="M 488 0 
L 488 4581 
L 1109 4581 
L 3516 984 
L 3516 4581 
L 4097 4581 
L 4097 0 
L 3475 0 
L 1069 3600 
L 1069 0 
L 488 0 
z
" transform="scale(0.015625)"/>
       <path id="ArialMT-45" d="M 506 0 
L 506 4581 
L 3819 4581 
L 3819 4041 
L 1113 4041 
L 1113 2638 
L 3647 2638 
L 3647 2100 
L 1113 2100 
L 1113 541 
L 3925 541 
L 3925 0 
L 506 0 
z
" transform="scale(0.015625)"/>
       <path id="ArialMT-58" d="M 28 0 
L 1800 2388 
L 238 4581 
L 959 4581 
L 1791 3406 
Q 2050 3041 2159 2844 
Q 2313 3094 2522 3366 
L 3444 4581 
L 4103 4581 
L 2494 2422 
L 4228 0 
L 3478 0 
L 2325 1634 
Q 2228 1775 2125 1941 
Q 1972 1691 1906 1597 
L 756 0 
L 28 0 
z
" transform="scale(0.015625)"/>
       <path id="ArialMT-55" d="M 3500 4581 
L 4106 4581 
L 4106 1934 
Q 4106 1244 3950 837 
Q 3794 431 3386 176 
Q 2978 -78 2316 -78 
Q 1672 -78 1262 144 
Q 853 366 678 786 
Q 503 1206 503 1934 
L 503 4581 
L 1109 4581 
L 1109 1938 
Q 1109 1341 1220 1058 
Q 1331 775 1601 622 
Q 1872 469 2263 469 
Q 2931 469 3215 772 
Q 3500 1075 3500 1938 
L 3500 4581 
z
" transform="scale(0.015625)"/>
       <path id="ArialMT-53" d="M 288 1472 
L 859 1522 
Q 900 1178 1048 958 
Q 1197 738 1509 602 
Q 1822 466 2213 466 
Q 2559 466 2825 569 
Q 3091 672 3220 851 
Q 3350 1031 3350 1244 
Q 3350 1459 3225 1620 
Q 3100 1781 2813 1891 
Q 2628 1963 1997 2114 
Q 1366 2266 1113 2400 
Q 784 2572 623 2826 
Q 463 3081 463 3397 
Q 463 3744 659 4045 
Q 856 4347 1234 4503 
Q 1613 4659 2075 4659 
Q 2584 4659 2973 4495 
Q 3363 4331 3572 4012 
Q 3781 3694 3797 3291 
L 3216 3247 
Q 3169 3681 2898 3903 
Q 2628 4125 2100 4125 
Q 1550 4125 1298 3923 
Q 1047 3722 1047 3438 
Q 1047 3191 1225 3031 
Q 1400 2872 2139 2705 
Q 2878 2538 3153 2413 
Q 3553 2228 3743 1945 
Q 3934 1663 3934 1294 
Q 3934 928 3725 604 
Q 3516 281 3123 101 
Q 2731 -78 2241 -78 
Q 1619 -78 1198 103 
Q 778 284 539 648 
Q 300 1013 288 1472 
z
" transform="scale(0.015625)"/>
       <path id="ArialMT-64" d="M 2575 0 
L 2575 419 
Q 2259 -75 1647 -75 
Q 1250 -75 917 144 
Q 584 363 401 755 
Q 219 1147 219 1656 
Q 219 2153 384 2558 
Q 550 2963 881 3178 
Q 1213 3394 1622 3394 
Q 1922 3394 2156 3267 
Q 2391 3141 2538 2938 
L 2538 4581 
L 3097 4581 
L 3097 0 
L 2575 0 
z
M 797 1656 
Q 797 1019 1065 703 
Q 1334 388 1700 388 
Q 2069 388 2326 689 
Q 2584 991 2584 1609 
Q 2584 2291 2321 2609 
Q 2059 2928 1675 2928 
Q 1300 2928 1048 2622 
Q 797 2316 797 1656 
z
" transform="scale(0.015625)"/>
      </defs>
      <use xlink:href="#ArialMT-50"/>
      <use xlink:href="#ArialMT-6f" x="66.699219"/>
      <use xlink:href="#ArialMT-74" x="122.314453"/>
      <use xlink:href="#ArialMT-65" x="150.097656"/>
      <use xlink:href="#ArialMT-6e" x="205.712891"/>
      <use xlink:href="#ArialMT-74" x="261.328125"/>
      <use xlink:href="#ArialMT-69" x="289.111328"/>
      <use xlink:href="#ArialMT-61" x="311.328125"/>
      <use xlink:href="#ArialMT-6c" x="366.943359"/>
      <use xlink:href="#ArialMT-20" x="389.160156"/>
      <use xlink:href="#ArialMT-49" x="416.943359"/>
      <use xlink:href="#ArialMT-4e" x="444.726562"/>
      <use xlink:href="#ArialMT-45" x="516.943359"/>
      <use xlink:href="#ArialMT-58" x="583.642578"/>
      <use xlink:href="#ArialMT-55" x="650.341797"/>
      <use xlink:href="#ArialMT-53" x="722.558594"/>
      <use xlink:href="#ArialMT-20" x="789.257812"/>
      <use xlink:href="#ArialMT-69" x="817.041016"/>
      <use xlink:href="#ArialMT-6e" x="839.257812"/>
      <use xlink:href="#ArialMT-20" x="894.873047"/>
      <use xlink:href="#ArialMT-64" x="922.65625"/>
      <use xlink:href="#ArialMT-6f" x="978.271484"/>
      <use xlink:href="#ArialMT-6c" x="1033.886719"/>
      <use xlink:href="#ArialMT-6c" x="1056.103516"/>
      <use xlink:href="#ArialMT-61" x="1078.320312"/>
      <use xlink:href="#ArialMT-72" x="1133.935547"/>
     </g>
    </g>
   </g>
   <g id="matplotlib.axis_4">
    <g id="ytick_6">
     <g id="line2d_31">
      <path d="M 65.3925 604.878438 
L 509.2625 604.878438 
" clip-path="url(#pd8ecabd624)" style="fill: none; stroke: #cccccc; stroke-width: 1.5; stroke-linecap: round"/>
     </g>
     <g id="text_17">
      <!-- 0.0 -->
      <g style="fill: #262626" transform="translate(27.8725 611.320469)scale(0.18 -0.18)">
       <use xlink:href="#ArialMT-30"/>
       <use xlink:href="#ArialMT-2e" x="55.615234"/>
       <use xlink:href="#ArialMT-30" x="83.398438"/>
      </g>
     </g>
    </g>
    <g id="ytick_7">
     <g id="line2d_32">
      <path d="M 65.3925 549.392279 
L 509.2625 549.392279 
" clip-path="url(#pd8ecabd624)" style="fill: none; stroke: #cccccc; stroke-width: 1.5; stroke-linecap: round"/>
     </g>
     <g id="text_18">
      <!-- 0.1 -->
      <g style="fill: #262626" transform="translate(27.8725 555.834311)scale(0.18 -0.18)">
       <use xlink:href="#ArialMT-30"/>
       <use xlink:href="#ArialMT-2e" x="55.615234"/>
       <use xlink:href="#ArialMT-31" x="83.398438"/>
      </g>
     </g>
    </g>
    <g id="ytick_8">
     <g id="line2d_33">
      <path d="M 65.3925 493.906121 
L 509.2625 493.906121 
" clip-path="url(#pd8ecabd624)" style="fill: none; stroke: #cccccc; stroke-width: 1.5; stroke-linecap: round"/>
     </g>
     <g id="text_19">
      <!-- 0.2 -->
      <g style="fill: #262626" transform="translate(27.8725 500.348153)scale(0.18 -0.18)">
       <use xlink:href="#ArialMT-30"/>
       <use xlink:href="#ArialMT-2e" x="55.615234"/>
       <use xlink:href="#ArialMT-32" x="83.398438"/>
      </g>
     </g>
    </g>
    <g id="ytick_9">
     <g id="line2d_34">
      <path d="M 65.3925 438.419963 
L 509.2625 438.419963 
" clip-path="url(#pd8ecabd624)" style="fill: none; stroke: #cccccc; stroke-width: 1.5; stroke-linecap: round"/>
     </g>
     <g id="text_20">
      <!-- 0.3 -->
      <g style="fill: #262626" transform="translate(27.8725 444.861995)scale(0.18 -0.18)">
       <use xlink:href="#ArialMT-30"/>
       <use xlink:href="#ArialMT-2e" x="55.615234"/>
       <use xlink:href="#ArialMT-33" x="83.398438"/>
      </g>
     </g>
    </g>
    <g id="ytick_10">
     <g id="line2d_35">
      <path d="M 65.3925 382.933805 
L 509.2625 382.933805 
" clip-path="url(#pd8ecabd624)" style="fill: none; stroke: #cccccc; stroke-width: 1.5; stroke-linecap: round"/>
     </g>
     <g id="text_21">
      <!-- 0.4 -->
      <g style="fill: #262626" transform="translate(27.8725 389.375837)scale(0.18 -0.18)">
       <use xlink:href="#ArialMT-30"/>
       <use xlink:href="#ArialMT-2e" x="55.615234"/>
       <use xlink:href="#ArialMT-34" x="83.398438"/>
      </g>
     </g>
    </g>
    <g id="text_22">
     <!-- Frequency Density -->
     <g style="fill: #262626" transform="translate(20.084062 546.672536)rotate(-90)scale(0.18 -0.18)">
      <use xlink:href="#ArialMT-46"/>
      <use xlink:href="#ArialMT-72" x="61.083984"/>
      <use xlink:href="#ArialMT-65" x="94.384766"/>
      <use xlink:href="#ArialMT-71" x="150"/>
      <use xlink:href="#ArialMT-75" x="205.615234"/>
      <use xlink:href="#ArialMT-65" x="261.230469"/>
      <use xlink:href="#ArialMT-6e" x="316.845703"/>
      <use xlink:href="#ArialMT-63" x="372.460938"/>
      <use xlink:href="#ArialMT-79" x="422.460938"/>
      <use xlink:href="#ArialMT-20" x="472.460938"/>
      <use xlink:href="#ArialMT-44" x="500.244141"/>
      <use xlink:href="#ArialMT-65" x="572.460938"/>
      <use xlink:href="#ArialMT-6e" x="628.076172"/>
      <use xlink:href="#ArialMT-73" x="683.691406"/>
      <use xlink:href="#ArialMT-69" x="733.691406"/>
      <use xlink:href="#ArialMT-74" x="755.908203"/>
      <use xlink:href="#ArialMT-79" x="783.691406"/>
     </g>
    </g>
   </g>
   <g id="line2d_36">
    <path d="M -1 602.869315 
L 11.642312 602.475385 
L 30.752836 601.657624 
L 49.86336 600.607846 
L 59.418622 599.867655 
L 68.973884 598.892092 
L 78.529146 597.623741 
L 88.084408 595.998756 
L 97.63967 593.954857 
L 107.194932 591.420607 
L 116.750194 588.25751 
L 126.305456 584.21833 
L 135.860718 578.987417 
L 145.41598 572.278694 
L 154.971241 563.96597 
L 164.526503 554.302042 
L 174.081765 544.142343 
L 183.637027 534.864855 
L 193.192289 527.839827 
L 202.747551 523.625809 
L 212.302813 521.315008 
L 221.858075 518.701145 
L 231.413337 513.435967 
L 240.968599 504.076604 
L 250.523861 490.004086 
L 260.079123 470.769233 
L 269.634385 445.997958 
L 279.189647 416.394742 
L 288.744909 385.628774 
L 298.300171 361.252059 
L 307.855433 351.777253 
L 317.410694 360.60832 
L 326.965956 383.086215 
L 336.521218 410.76371 
L 346.07648 437.919308 
L 355.631742 463.335622 
L 365.187004 487.784048 
L 374.742266 511.675373 
L 384.297528 534.455135 
L 393.85279 554.855216 
L 403.408052 571.414014 
L 412.963314 583.100251 
L 422.518576 589.768126 
L 432.073838 592.300539 
L 441.6291 592.429761 
L 451.184362 592.174032 
L 460.739624 593.015906 
L 470.294885 595.307351 
L 479.850147 598.370185 
L 489.405409 601.201675 
L 498.960671 603.17401 
L 508.515933 604.238528 
L 518.071195 604.68653 
L 537.181719 604.8701 
L 546.736981 604.877258 
L 546.736981 604.877258 
" clip-path="url(#pd8ecabd624)" style="fill: none; stroke: #f7c6a6; stroke-width: 1.5; stroke-linecap: round"/>
   </g>
   <g id="line2d_37">
    <path d="M -1 602.536056 
L 17.918979 601.958556 
L 27.698158 601.542586 
L 37.477336 600.995635 
L 57.035693 599.537128 
L 66.814872 598.633514 
L 76.59405 597.528717 
L 86.373229 596.083273 
L 96.152407 594.134572 
L 105.931586 591.529552 
L 115.710764 588.133808 
L 125.489943 583.787165 
L 135.269121 578.22949 
L 145.0483 571.136506 
L 154.827478 562.361394 
L 164.606657 552.268182 
L 174.385835 541.890875 
L 184.165014 532.718987 
L 193.944192 526.11308 
L 203.723371 522.486909 
L 213.502549 520.654953 
L 223.281728 518.066219 
L 233.060906 512.083332 
L 242.840085 501.203411 
L 252.619263 485.050634 
L 262.398442 463.519686 
L 272.17762 436.620244 
L 281.956799 405.935848 
L 291.735977 376.672535 
L 301.515156 357.399474 
L 311.294334 355.399287 
L 321.073513 370.884913 
L 330.852691 396.905819 
L 340.63187 425.551395 
L 350.411048 452.979663 
L 360.190227 478.822236 
L 369.969405 503.42814 
L 379.748584 526.644318 
L 389.527762 547.751393 
L 399.306941 565.595441 
L 409.086119 579.037614 
L 418.865298 587.554275 
L 428.644476 591.592023 
L 438.423655 592.58339 
L 448.202833 592.518974 
L 457.982012 593.111621 
L 467.76119 595.055069 
L 487.319547 600.796322 
L 497.098726 602.913762 
L 506.877904 604.11425 
L 516.657083 604.641181 
L 526.436261 604.820331 
L 545.994618 604.876802 
L 545.994618 604.876802 
" clip-path="url(#pd8ecabd624)" style="fill: none; stroke: #f69c73; stroke-width: 1.5; stroke-linecap: round"/>
   </g>
   <g id="line2d_38">
    <path d="M -1 602.663783 
L 16.616109 602.087106 
L 26.037756 601.694921 
L 35.459403 601.186227 
L 44.88105 600.553275 
L 54.302697 599.805717 
L 63.724344 598.912919 
L 73.145991 597.794993 
L 82.567638 596.366626 
L 91.989285 594.565726 
L 101.410932 592.335347 
L 110.832579 589.578107 
L 120.254226 586.103341 
L 129.675873 581.606768 
L 139.09752 575.741169 
L 148.519167 568.272489 
L 157.940814 559.26037 
L 176.784108 539.218923 
L 186.205755 530.628053 
L 195.627402 524.586816 
L 205.049049 521.207756 
L 214.470696 519.159897 
L 223.892343 516.151995 
L 233.31399 510.106473 
L 242.735637 499.931016 
L 252.157284 485.214848 
L 261.578931 465.489879 
L 271.000578 440.287978 
L 289.843872 380.871019 
L 299.265519 359.032696 
L 308.687166 352.839282 
L 318.108813 364.39183 
L 327.53046 388.519082 
L 336.952107 417.201189 
L 346.373754 445.049101 
L 355.795401 470.558569 
L 365.217048 494.102609 
L 374.638695 516.181981 
L 384.060342 536.819238 
L 393.481989 555.391083 
L 402.903636 570.818848 
L 412.325283 582.129557 
L 421.74693 588.989531 
L 431.168577 591.973171 
L 440.590224 592.508004 
L 450.011871 592.398471 
L 459.433518 593.076581 
L 468.855165 595.043456 
L 487.698459 600.676885 
L 497.120106 602.794979 
L 506.541753 604.035172 
L 515.9634 604.60345 
L 525.385047 604.807052 
L 544.228341 604.876114 
L 544.228341 604.876114 
" clip-path="url(#pd8ecabd624)" style="fill: none; stroke: #f3714d; stroke-width: 1.5; stroke-linecap: round"/>
   </g>
   <g id="line2d_39">
    <path d="M -1 602.636771 
L 16.251661 602.088338 
L 31.026213 601.44981 
L 45.800765 600.513639 
L 60.575317 599.201224 
L 75.349869 597.400636 
L 90.124421 594.895415 
L 104.898973 591.35003 
L 119.673525 586.274566 
L 134.448077 578.797699 
L 149.22263 567.709855 
L 163.997182 552.890569 
L 178.771734 537.049489 
L 193.546286 525.036347 
L 208.320838 519.440493 
L 223.09539 515.707547 
L 237.869942 505.20437 
L 252.644494 483.2362 
L 267.419046 448.243582 
L 282.193598 401.498078 
L 296.96815 359.918973 
L 311.742702 354.070478 
L 326.517254 388.507499 
L 341.291806 434.599496 
L 356.066358 474.356584 
L 370.84091 508.704469 
L 385.615462 540.329106 
L 400.390014 567.29318 
L 415.164567 585.121919 
L 429.939119 592.329055 
L 459.488223 593.165383 
L 474.262775 596.671937 
L 489.037327 601.092137 
L 503.811879 603.764782 
L 518.586431 604.674995 
L 533.360983 604.856126 
L 548.135535 604.877033 
L 548.135535 604.877033 
" clip-path="url(#pd8ecabd624)" style="fill: none; stroke: #e83f3f; stroke-width: 1.5; stroke-linecap: round"/>
   </g>
   <g id="line2d_40">
    <path d="M -1 602.818116 
L 7.692838 602.530006 
L 20.818747 601.933777 
L 33.944656 601.154093 
L 47.070564 600.227302 
L 60.196473 599.148472 
L 73.322382 597.77007 
L 86.448291 595.845989 
L 99.5742 593.107518 
L 112.700109 589.204862 
L 125.826018 583.675629 
L 138.951927 575.898465 
L 152.077836 565.103715 
L 165.203744 551.45443 
L 178.329653 537.323031 
L 191.455562 526.417896 
L 204.581471 520.776682 
L 217.70738 517.852979 
L 230.833289 511.482305 
L 243.959198 496.788141 
L 257.085107 471.868207 
L 270.211016 435.924811 
L 283.336925 392.610229 
L 296.462833 357.788198 
L 309.588742 353.367911 
L 322.714651 382.34245 
L 335.84056 423.624031 
L 348.966469 460.063091 
L 362.092378 490.713764 
L 375.218287 518.838773 
L 388.344196 545.282951 
L 401.470105 568.080248 
L 414.596014 583.907511 
L 427.721922 591.315615 
L 440.847831 592.548234 
L 453.97374 592.378815 
L 467.099649 594.386764 
L 480.225558 598.374578 
L 493.351467 602.023078 
L 506.477376 604.017974 
L 519.603285 604.7062 
L 532.729194 604.856265 
L 545.855102 604.876653 
L 545.855102 604.876653 
" clip-path="url(#pd8ecabd624)" style="fill: none; stroke: #ca1a50; stroke-width: 1.5; stroke-linecap: round"/>
   </g>
   <g id="line2d_41">
    <path d="M -1 602.734346 
L 16.194653 602.295299 
L 27.77548 601.7852 
L 39.356307 601.075385 
L 50.937135 600.179957 
L 62.517962 599.104713 
L 74.098789 597.785375 
L 85.679616 596.070593 
L 97.260444 593.750087 
L 108.841271 590.566431 
L 120.422098 586.219453 
L 132.002926 580.335104 
L 143.583753 572.457848 
L 155.16458 562.329606 
L 166.745407 550.428137 
L 178.326235 538.349639 
L 189.907062 528.494582 
L 201.487889 522.527084 
L 213.068716 519.363004 
L 224.649544 515.079884 
L 236.230371 505.536211 
L 247.811198 488.625265 
L 259.392025 463.656551 
L 270.972853 430.553278 
L 282.55368 392.722207 
L 294.134507 361.167654 
L 305.715335 351.100232 
L 317.296162 368.665577 
L 328.876989 403.385687 
L 340.457816 439.391555 
L 352.038644 469.68299 
L 363.619471 495.582574 
L 375.200298 519.602008 
L 386.781125 542.445149 
L 398.361953 562.861642 
L 409.94278 578.627231 
L 421.523607 588.247024 
L 433.104434 592.123826 
L 444.685262 592.648881 
L 456.266089 592.964961 
L 467.846916 594.952369 
L 479.427744 598.288784 
L 491.008571 601.492573 
L 502.589398 603.557663 
L 514.170225 604.494247 
L 525.751053 604.796543 
L 548.912707 604.877067 
L 548.912707 604.877067 
" clip-path="url(#pd8ecabd624)" style="fill: none; stroke: #a11a5b; stroke-width: 1.5; stroke-linecap: round"/>
   </g>
   <g id="line2d_42">
    <path d="M -1 602.682058 
L 12.432238 602.213347 
L 33.033563 601.295837 
L 53.634888 599.959698 
L 74.236213 597.878933 
L 94.837539 594.433357 
L 115.438864 588.332962 
L 136.040189 577.589891 
L 156.641514 560.393486 
L 177.242839 538.777445 
L 197.844164 523.072575 
L 218.445489 516.514223 
L 239.046815 501.235274 
L 259.64814 463.264226 
L 280.249465 401.403314 
L 300.85079 351.984621 
L 321.452115 380.052639 
L 342.05344 445.211131 
L 362.654765 494.662581 
L 383.25609 536.090656 
L 403.857416 571.03467 
L 424.458741 589.49304 
L 445.060066 592.248737 
L 465.661391 594.20934 
L 486.262716 600.220644 
L 506.864041 603.993853 
L 527.465366 604.813835 
L 548.066692 604.876842 
L 548.066692 604.876842 
" clip-path="url(#pd8ecabd624)" style="fill: none; stroke: #751f58; stroke-width: 1.5; stroke-linecap: round"/>
   </g>
   <g id="line2d_43">
    <path d="M -1 602.550354 
L 12.480844 602.160935 
L 31.61327 601.34622 
L 50.745697 600.038493 
L 69.878123 598.1771 
L 89.01055 595.493436 
L 108.142976 591.048108 
L 127.275403 583.210857 
L 146.407829 570.124085 
L 165.540256 551.545839 
L 184.672682 532.460169 
L 203.805109 520.93326 
L 222.937535 514.575514 
L 242.069961 497.618122 
L 261.202388 459.748343 
L 280.334814 401.045384 
L 299.467241 353.205067 
L 318.599667 371.191143 
L 337.732094 431.338218 
L 356.86452 481.160819 
L 375.996947 521.361805 
L 395.129373 557.806757 
L 414.2618 583.211586 
L 433.394226 592.275462 
L 452.526653 592.869296 
L 471.659079 596.022238 
L 490.791506 601.377039 
L 509.923932 604.219513 
L 529.056359 604.825168 
L 548.188785 604.876747 
L 548.188785 604.876747 
" clip-path="url(#pd8ecabd624)" style="fill: none; stroke: #4c1d4b; stroke-width: 1.5; stroke-linecap: round"/>
   </g>
   <g id="line2d_44">
    <path d="M -1 602.569442 
L 21.166577 601.705388 
L 44.182093 600.543867 
L 55.689851 599.75831 
L 67.19761 598.6668 
L 78.705368 597.134693 
L 90.213126 595.087072 
L 101.720884 592.437757 
L 113.228642 588.918984 
L 124.7364 584.09259 
L 136.244158 577.529252 
L 147.751916 568.871932 
L 159.259674 558.011425 
L 170.767432 545.69123 
L 182.27519 533.860109 
L 193.782948 524.877039 
L 205.290706 519.702774 
L 216.798465 516.426694 
L 228.306223 511.032794 
L 239.813981 500.060868 
L 251.321739 481.944945 
L 262.829497 455.965515 
L 274.337255 422.242426 
L 285.845013 385.504725 
L 297.352771 358.29582 
L 308.860529 354.839647 
L 320.368287 377.425373 
L 331.876045 413.154894 
L 343.383803 447.722817 
L 354.891561 476.537474 
L 366.39932 501.543761 
L 377.907078 524.975138 
L 389.414836 547.24207 
L 400.922594 566.779722 
L 412.430352 581.25432 
L 423.93811 589.473565 
L 435.445868 592.356006 
L 446.953626 592.583306 
L 458.461384 593.104751 
L 469.969142 595.357859 
L 481.4769 598.755018 
L 492.984658 601.837155 
L 504.492417 603.737325 
L 516.000175 604.561069 
L 527.507933 604.814056 
L 550.523449 604.877461 
L 550.523449 604.877461 
" clip-path="url(#pd8ecabd624)" style="fill: none; stroke: #251433; stroke-width: 1.5; stroke-linecap: round"/>
   </g>
   <g id="patch_6">
    <path d="M 65.3925 604.878438 
L 65.3925 338.411322 
" style="fill: none; stroke: #cccccc; stroke-width: 1.875; stroke-linejoin: miter; stroke-linecap: square"/>
   </g>
   <g id="patch_7">
    <path d="M 65.3925 604.878438 
L 509.2625 604.878438 
" style="fill: none; stroke: #cccccc; stroke-width: 1.875; stroke-linejoin: miter; stroke-linecap: square"/>
   </g>
   <g id="text_23">
    <!-- Highest 10% Income -->
    <g style="fill: #262626" transform="translate(204.288437 332.411322)scale(0.18 -0.18)">
     <defs>
      <path id="ArialMT-48" d="M 513 0 
L 513 4581 
L 1119 4581 
L 1119 2700 
L 3500 2700 
L 3500 4581 
L 4106 4581 
L 4106 0 
L 3500 0 
L 3500 2159 
L 1119 2159 
L 1119 0 
L 513 0 
z
" transform="scale(0.015625)"/>
      <path id="ArialMT-67" d="M 319 -275 
L 866 -356 
Q 900 -609 1056 -725 
Q 1266 -881 1628 -881 
Q 2019 -881 2231 -725 
Q 2444 -569 2519 -288 
Q 2563 -116 2559 434 
Q 2191 0 1641 0 
Q 956 0 581 494 
Q 206 988 206 1678 
Q 206 2153 378 2554 
Q 550 2956 876 3175 
Q 1203 3394 1644 3394 
Q 2231 3394 2613 2919 
L 2613 3319 
L 3131 3319 
L 3131 450 
Q 3131 -325 2973 -648 
Q 2816 -972 2473 -1159 
Q 2131 -1347 1631 -1347 
Q 1038 -1347 672 -1080 
Q 306 -813 319 -275 
z
M 784 1719 
Q 784 1066 1043 766 
Q 1303 466 1694 466 
Q 2081 466 2343 764 
Q 2606 1063 2606 1700 
Q 2606 2309 2336 2618 
Q 2066 2928 1684 2928 
Q 1309 2928 1046 2623 
Q 784 2319 784 1719 
z
" transform="scale(0.015625)"/>
      <path id="ArialMT-68" d="M 422 0 
L 422 4581 
L 984 4581 
L 984 2938 
Q 1378 3394 1978 3394 
Q 2347 3394 2619 3248 
Q 2891 3103 3008 2847 
Q 3125 2591 3125 2103 
L 3125 0 
L 2563 0 
L 2563 2103 
Q 2563 2525 2380 2717 
Q 2197 2909 1863 2909 
Q 1613 2909 1392 2779 
Q 1172 2650 1078 2428 
Q 984 2206 984 1816 
L 984 0 
L 422 0 
z
" transform="scale(0.015625)"/>
     </defs>
     <use xlink:href="#ArialMT-48"/>
     <use xlink:href="#ArialMT-69" x="72.216797"/>
     <use xlink:href="#ArialMT-67" x="94.433594"/>
     <use xlink:href="#ArialMT-68" x="150.048828"/>
     <use xlink:href="#ArialMT-65" x="205.664062"/>
     <use xlink:href="#ArialMT-73" x="261.279297"/>
     <use xlink:href="#ArialMT-74" x="311.279297"/>
     <use xlink:href="#ArialMT-20" x="339.0625"/>
     <use xlink:href="#ArialMT-31" x="366.845703"/>
     <use xlink:href="#ArialMT-30" x="422.460938"/>
     <use xlink:href="#ArialMT-25" x="478.076172"/>
     <use xlink:href="#ArialMT-20" x="566.992188"/>
     <use xlink:href="#ArialMT-49" x="594.775391"/>
     <use xlink:href="#ArialMT-6e" x="622.558594"/>
     <use xlink:href="#ArialMT-63" x="678.173828"/>
     <use xlink:href="#ArialMT-6f" x="728.173828"/>
     <use xlink:href="#ArialMT-6d" x="783.789062"/>
     <use xlink:href="#ArialMT-65" x="867.089844"/>
    </g>
   </g>
   <g id="legend_1">
    <g id="patch_8">
     <path d="M 519.565187 535.628488 
L 674.2105 535.628488 
Q 677.8105 535.628488 677.8105 532.028488 
L 677.8105 304.674425 
Q 677.8105 301.074425 674.2105 301.074425 
L 519.565187 301.074425 
Q 515.965187 301.074425 515.965187 304.674425 
L 515.965187 532.028488 
Q 515.965187 535.628488 519.565187 535.628488 
z
" style="fill: #ffffff; opacity: 0.8; stroke: #cccccc; stroke-width: 1.5; stroke-linejoin: miter"/>
    </g>
    <g id="line2d_45">
     <path d="M 523.165188 314.858488 
L 541.165188 314.858488 
L 559.165188 314.858488 
" style="fill: none; stroke: #f7c6a6; stroke-width: 1.5; stroke-linecap: round"/>
    </g>
    <g id="text_24">
     <!-- 0% Price -->
     <g style="fill: #262626" transform="translate(573.565187 321.158488)scale(0.18 -0.18)">
      <use xlink:href="#ArialMT-30"/>
      <use xlink:href="#ArialMT-25" x="55.615234"/>
      <use xlink:href="#ArialMT-20" x="144.53125"/>
      <use xlink:href="#ArialMT-50" x="172.314453"/>
      <use xlink:href="#ArialMT-72" x="239.013672"/>
      <use xlink:href="#ArialMT-69" x="272.314453"/>
      <use xlink:href="#ArialMT-63" x="294.53125"/>
      <use xlink:href="#ArialMT-65" x="344.53125"/>
     </g>
    </g>
    <g id="line2d_46">
     <path d="M 523.165188 340.32005 
L 541.165188 340.32005 
L 559.165188 340.32005 
" style="fill: none; stroke: #f69c73; stroke-width: 1.5; stroke-linecap: round"/>
    </g>
    <g id="text_25">
     <!-- 12.5% Price -->
     <g style="fill: #262626" transform="translate(573.565187 346.62005)scale(0.18 -0.18)">
      <defs>
       <path id="ArialMT-35" d="M 266 1200 
L 856 1250 
Q 922 819 1161 601 
Q 1400 384 1738 384 
Q 2144 384 2425 690 
Q 2706 997 2706 1503 
Q 2706 1984 2436 2262 
Q 2166 2541 1728 2541 
Q 1456 2541 1237 2417 
Q 1019 2294 894 2097 
L 366 2166 
L 809 4519 
L 3088 4519 
L 3088 3981 
L 1259 3981 
L 1013 2750 
Q 1425 3038 1878 3038 
Q 2478 3038 2890 2622 
Q 3303 2206 3303 1553 
Q 3303 931 2941 478 
Q 2500 -78 1738 -78 
Q 1113 -78 717 272 
Q 322 622 266 1200 
z
" transform="scale(0.015625)"/>
      </defs>
      <use xlink:href="#ArialMT-31"/>
      <use xlink:href="#ArialMT-32" x="55.615234"/>
      <use xlink:href="#ArialMT-2e" x="111.230469"/>
      <use xlink:href="#ArialMT-35" x="139.013672"/>
      <use xlink:href="#ArialMT-25" x="194.628906"/>
      <use xlink:href="#ArialMT-20" x="283.544922"/>
      <use xlink:href="#ArialMT-50" x="311.328125"/>
      <use xlink:href="#ArialMT-72" x="378.027344"/>
      <use xlink:href="#ArialMT-69" x="411.328125"/>
      <use xlink:href="#ArialMT-63" x="433.544922"/>
      <use xlink:href="#ArialMT-65" x="483.544922"/>
     </g>
    </g>
    <g id="line2d_47">
     <path d="M 523.165188 365.781613 
L 541.165188 365.781613 
L 559.165188 365.781613 
" style="fill: none; stroke: #f3714d; stroke-width: 1.5; stroke-linecap: round"/>
    </g>
    <g id="text_26">
     <!-- 25% Price -->
     <g style="fill: #262626" transform="translate(573.565187 372.081613)scale(0.18 -0.18)">
      <use xlink:href="#ArialMT-32"/>
      <use xlink:href="#ArialMT-35" x="55.615234"/>
      <use xlink:href="#ArialMT-25" x="111.230469"/>
      <use xlink:href="#ArialMT-20" x="200.146484"/>
      <use xlink:href="#ArialMT-50" x="227.929688"/>
      <use xlink:href="#ArialMT-72" x="294.628906"/>
      <use xlink:href="#ArialMT-69" x="327.929688"/>
      <use xlink:href="#ArialMT-63" x="350.146484"/>
      <use xlink:href="#ArialMT-65" x="400.146484"/>
     </g>
    </g>
    <g id="line2d_48">
     <path d="M 523.165188 391.243175 
L 541.165188 391.243175 
L 559.165188 391.243175 
" style="fill: none; stroke: #e83f3f; stroke-width: 1.5; stroke-linecap: round"/>
    </g>
    <g id="text_27">
     <!-- 50% Price -->
     <g style="fill: #262626" transform="translate(573.565187 397.543175)scale(0.18 -0.18)">
      <use xlink:href="#ArialMT-35"/>
      <use xlink:href="#ArialMT-30" x="55.615234"/>
      <use xlink:href="#ArialMT-25" x="111.230469"/>
      <use xlink:href="#ArialMT-20" x="200.146484"/>
      <use xlink:href="#ArialMT-50" x="227.929688"/>
      <use xlink:href="#ArialMT-72" x="294.628906"/>
      <use xlink:href="#ArialMT-69" x="327.929688"/>
      <use xlink:href="#ArialMT-63" x="350.146484"/>
      <use xlink:href="#ArialMT-65" x="400.146484"/>
     </g>
    </g>
    <g id="line2d_49">
     <path d="M 523.165188 416.704738 
L 541.165188 416.704738 
L 559.165188 416.704738 
" style="fill: none; stroke: #ca1a50; stroke-width: 1.5; stroke-linecap: round"/>
    </g>
    <g id="text_28">
     <!-- Baseline -->
     <g style="fill: #262626" transform="translate(573.565187 423.004738)scale(0.18 -0.18)">
      <defs>
       <path id="ArialMT-42" d="M 469 0 
L 469 4581 
L 2188 4581 
Q 2713 4581 3030 4442 
Q 3347 4303 3526 4014 
Q 3706 3725 3706 3409 
Q 3706 3116 3547 2856 
Q 3388 2597 3066 2438 
Q 3481 2316 3704 2022 
Q 3928 1728 3928 1328 
Q 3928 1006 3792 729 
Q 3656 453 3456 303 
Q 3256 153 2954 76 
Q 2653 0 2216 0 
L 469 0 
z
M 1075 2656 
L 2066 2656 
Q 2469 2656 2644 2709 
Q 2875 2778 2992 2937 
Q 3109 3097 3109 3338 
Q 3109 3566 3000 3739 
Q 2891 3913 2687 3977 
Q 2484 4041 1991 4041 
L 1075 4041 
L 1075 2656 
z
M 1075 541 
L 2216 541 
Q 2509 541 2628 563 
Q 2838 600 2978 687 
Q 3119 775 3209 942 
Q 3300 1109 3300 1328 
Q 3300 1584 3169 1773 
Q 3038 1963 2805 2039 
Q 2572 2116 2134 2116 
L 1075 2116 
L 1075 541 
z
" transform="scale(0.015625)"/>
      </defs>
      <use xlink:href="#ArialMT-42"/>
      <use xlink:href="#ArialMT-61" x="66.699219"/>
      <use xlink:href="#ArialMT-73" x="122.314453"/>
      <use xlink:href="#ArialMT-65" x="172.314453"/>
      <use xlink:href="#ArialMT-6c" x="227.929688"/>
      <use xlink:href="#ArialMT-69" x="250.146484"/>
      <use xlink:href="#ArialMT-6e" x="272.363281"/>
      <use xlink:href="#ArialMT-65" x="327.978516"/>
     </g>
    </g>
    <g id="line2d_50">
     <path d="M 523.165188 442.1663 
L 541.165188 442.1663 
L 559.165188 442.1663 
" style="fill: none; stroke: #a11a5b; stroke-width: 1.5; stroke-linecap: round"/>
    </g>
    <g id="text_29">
     <!-- 175% Price -->
     <g style="fill: #262626" transform="translate(573.565187 448.4663)scale(0.18 -0.18)">
      <defs>
       <path id="ArialMT-37" d="M 303 3981 
L 303 4522 
L 3269 4522 
L 3269 4084 
Q 2831 3619 2401 2847 
Q 1972 2075 1738 1259 
Q 1569 684 1522 0 
L 944 0 
Q 953 541 1156 1306 
Q 1359 2072 1739 2783 
Q 2119 3494 2547 3981 
L 303 3981 
z
" transform="scale(0.015625)"/>
      </defs>
      <use xlink:href="#ArialMT-31"/>
      <use xlink:href="#ArialMT-37" x="55.615234"/>
      <use xlink:href="#ArialMT-35" x="111.230469"/>
      <use xlink:href="#ArialMT-25" x="166.845703"/>
      <use xlink:href="#ArialMT-20" x="255.761719"/>
      <use xlink:href="#ArialMT-50" x="283.544922"/>
      <use xlink:href="#ArialMT-72" x="350.244141"/>
      <use xlink:href="#ArialMT-69" x="383.544922"/>
      <use xlink:href="#ArialMT-63" x="405.761719"/>
      <use xlink:href="#ArialMT-65" x="455.761719"/>
     </g>
    </g>
    <g id="line2d_51">
     <path d="M 523.165188 467.627863 
L 541.165188 467.627863 
L 559.165188 467.627863 
" style="fill: none; stroke: #751f58; stroke-width: 1.5; stroke-linecap: round"/>
    </g>
    <g id="text_30">
     <!-- 300% Price -->
     <g style="fill: #262626" transform="translate(573.565187 473.927863)scale(0.18 -0.18)">
      <use xlink:href="#ArialMT-33"/>
      <use xlink:href="#ArialMT-30" x="55.615234"/>
      <use xlink:href="#ArialMT-30" x="111.230469"/>
      <use xlink:href="#ArialMT-25" x="166.845703"/>
      <use xlink:href="#ArialMT-20" x="255.761719"/>
      <use xlink:href="#ArialMT-50" x="283.544922"/>
      <use xlink:href="#ArialMT-72" x="350.244141"/>
      <use xlink:href="#ArialMT-69" x="383.544922"/>
      <use xlink:href="#ArialMT-63" x="405.761719"/>
      <use xlink:href="#ArialMT-65" x="455.761719"/>
     </g>
    </g>
    <g id="line2d_52">
     <path d="M 523.165188 493.089425 
L 541.165188 493.089425 
L 559.165188 493.089425 
" style="fill: none; stroke: #4c1d4b; stroke-width: 1.5; stroke-linecap: round"/>
    </g>
    <g id="text_31">
     <!-- 500% Price -->
     <g style="fill: #262626" transform="translate(573.565187 499.389425)scale(0.18 -0.18)">
      <use xlink:href="#ArialMT-35"/>
      <use xlink:href="#ArialMT-30" x="55.615234"/>
      <use xlink:href="#ArialMT-30" x="111.230469"/>
      <use xlink:href="#ArialMT-25" x="166.845703"/>
      <use xlink:href="#ArialMT-20" x="255.761719"/>
      <use xlink:href="#ArialMT-50" x="283.544922"/>
      <use xlink:href="#ArialMT-72" x="350.244141"/>
      <use xlink:href="#ArialMT-69" x="383.544922"/>
      <use xlink:href="#ArialMT-63" x="405.761719"/>
      <use xlink:href="#ArialMT-65" x="455.761719"/>
     </g>
    </g>
    <g id="line2d_53">
     <path d="M 523.165188 518.550988 
L 541.165188 518.550988 
L 559.165188 518.550988 
" style="fill: none; stroke: #251433; stroke-width: 1.5; stroke-linecap: round"/>
    </g>
    <g id="text_32">
     <!-- 800% Price -->
     <g style="fill: #262626" transform="translate(573.565187 524.850988)scale(0.18 -0.18)">
      <defs>
       <path id="ArialMT-38" d="M 1131 2484 
Q 781 2613 612 2850 
Q 444 3088 444 3419 
Q 444 3919 803 4259 
Q 1163 4600 1759 4600 
Q 2359 4600 2725 4251 
Q 3091 3903 3091 3403 
Q 3091 3084 2923 2848 
Q 2756 2613 2416 2484 
Q 2838 2347 3058 2040 
Q 3278 1734 3278 1309 
Q 3278 722 2862 322 
Q 2447 -78 1769 -78 
Q 1091 -78 675 323 
Q 259 725 259 1325 
Q 259 1772 486 2073 
Q 713 2375 1131 2484 
z
M 1019 3438 
Q 1019 3113 1228 2906 
Q 1438 2700 1772 2700 
Q 2097 2700 2305 2904 
Q 2513 3109 2513 3406 
Q 2513 3716 2298 3927 
Q 2084 4138 1766 4138 
Q 1444 4138 1231 3931 
Q 1019 3725 1019 3438 
z
M 838 1322 
Q 838 1081 952 856 
Q 1066 631 1291 507 
Q 1516 384 1775 384 
Q 2178 384 2440 643 
Q 2703 903 2703 1303 
Q 2703 1709 2433 1975 
Q 2163 2241 1756 2241 
Q 1359 2241 1098 1978 
Q 838 1716 838 1322 
z
" transform="scale(0.015625)"/>
      </defs>
      <use xlink:href="#ArialMT-38"/>
      <use xlink:href="#ArialMT-30" x="55.615234"/>
      <use xlink:href="#ArialMT-30" x="111.230469"/>
      <use xlink:href="#ArialMT-25" x="166.845703"/>
      <use xlink:href="#ArialMT-20" x="255.761719"/>
      <use xlink:href="#ArialMT-50" x="283.544922"/>
      <use xlink:href="#ArialMT-72" x="350.244141"/>
      <use xlink:href="#ArialMT-69" x="383.544922"/>
      <use xlink:href="#ArialMT-63" x="405.761719"/>
      <use xlink:href="#ArialMT-65" x="455.761719"/>
     </g>
    </g>
   </g>
  </g>
 </g>
 <defs>
  <clipPath id="p575d95c17d">
   <rect x="65.3925" y="26.084063" width="443.87" height="266.467116"/>
  </clipPath>
  <clipPath id="pd8ecabd624">
   <rect x="65.3925" y="338.411322" width="443.87" height="266.467116"/>
  </clipPath>
 </defs>
</svg>
